<svg viewBox="0 0 330 200" xmlns="http://www.w3.org/2000/svg"><g><g><g><g><g><line x1="61.953125" y1="177" x2="56.953125" y2="177" style="visibility: inherit;" fill="rgb(0, 0, 0)" stroke="rgb(204, 204, 204)" stroke-width="1px"></line><line x1="61.953125" y1="162.25" x2="56.953125" y2="162.25" style="visibility: inherit;" fill="rgb(0, 0, 0)" stroke="rgb(204, 204, 204)" stroke-width="1px"></line><line x1="61.953125" y1="147.5" x2="56.953125" y2="147.5" style="visibility: inherit;" fill="rgb(0, 0, 0)" stroke="rgb(204, 204, 204)" stroke-width="1px"></line><line x1="61.953125" y1="132.75" x2="56.953125" y2="132.75" style="visibility: inherit;" fill="rgb(0, 0, 0)" stroke="rgb(204, 204, 204)" stroke-width="1px"></line><line x1="61.953125" y1="118.00000000000001" x2="56.953125" y2="118.00000000000001" style="visibility: inherit;" fill="rgb(0, 0, 0)" stroke="rgb(204, 204, 204)" stroke-width="1px"></line><line x1="61.953125" y1="103.25" x2="56.953125" y2="103.25" style="visibility: inherit;" fill="rgb(0, 0, 0)" stroke="rgb(204, 204, 204)" stroke-width="1px"></line><line x1="61.953125" y1="88.5" x2="56.953125" y2="88.5" style="visibility: inherit;" fill="rgb(0, 0, 0)" stroke="rgb(204, 204, 204)" stroke-width="1px"></line><line x1="61.953125" y1="73.75000000000001" x2="56.953125" y2="73.75000000000001" style="visibility: inherit;" fill="rgb(0, 0, 0)" stroke="rgb(204, 204, 204)" stroke-width="1px"></line><line x1="61.953125" y1="59.00000000000001" x2="56.953125" y2="59.00000000000001" style="visibility: inherit;" fill="rgb(0, 0, 0)" stroke="rgb(204, 204, 204)" stroke-width="1px"></line><line x1="61.953125" y1="44.25" x2="56.953125" y2="44.25" style="visibility: inherit;" fill="rgb(0, 0, 0)" stroke="rgb(204, 204, 204)" stroke-width="1px"></line><line x1="61.953125" y1="29.500000000000032" x2="56.953125" y2="29.500000000000032" style="visibility: inherit;" fill="rgb(0, 0, 0)" stroke="rgb(204, 204, 204)" stroke-width="1px"></line><line x1="61.953125" y1="14.750000000000007" x2="56.953125" y2="14.750000000000007" style="visibility: inherit;" fill="rgb(0, 0, 0)" stroke="rgb(204, 204, 204)" stroke-width="1px"></line><line x1="61.953125" y1="0" x2="56.953125" y2="0" style="visibility: inherit;" fill="rgb(0, 0, 0)" stroke="rgb(204, 204, 204)" stroke-width="1px"></line></g><g transform="translate(51.953125, 0)"><text x="0" y="177" dx="0em" dy="0.3em" style="text-anchor: end; visibility: hidden; font-family: Roboto, sans-serif; font-size: 12px; font-weight: 200;" fill="rgb(255, 255, 255)" stroke="none" stroke-width="1px">0.025</text><text x="0" y="162.25" dx="0em" dy="0.3em" style="text-anchor: end; visibility: inherit; font-family: Roboto, sans-serif; font-size: 12px; font-weight: 200;" fill="rgb(255, 255, 255)" stroke="none" stroke-width="1px">0.03</text><text x="0" y="147.5" dx="0em" dy="0.3em" style="text-anchor: end; visibility: hidden; font-family: Roboto, sans-serif; font-size: 12px; font-weight: 200;" fill="rgb(255, 255, 255)" stroke="none" stroke-width="1px">0.035</text><text x="0" y="132.75" dx="0em" dy="0.3em" style="text-anchor: end; visibility: inherit; font-family: Roboto, sans-serif; font-size: 12px; font-weight: 200;" fill="rgb(255, 255, 255)" stroke="none" stroke-width="1px">0.04</text><text x="0" y="118.00000000000001" dx="0em" dy="0.3em" style="text-anchor: end; visibility: hidden; font-family: Roboto, sans-serif; font-size: 12px; font-weight: 200;" fill="rgb(255, 255, 255)" stroke="none" stroke-width="1px">0.045</text><text x="0" y="103.25" dx="0em" dy="0.3em" style="text-anchor: end; visibility: inherit; font-family: Roboto, sans-serif; font-size: 12px; font-weight: 200;" fill="rgb(255, 255, 255)" stroke="none" stroke-width="1px">0.05</text><text x="0" y="88.5" dx="0em" dy="0.3em" style="text-anchor: end; visibility: hidden; font-family: Roboto, sans-serif; font-size: 12px; font-weight: 200;" fill="rgb(255, 255, 255)" stroke="none" stroke-width="1px">0.055</text><text x="0" y="73.75000000000001" dx="0em" dy="0.3em" style="text-anchor: end; visibility: inherit; font-family: Roboto, sans-serif; font-size: 12px; font-weight: 200;" fill="rgb(255, 255, 255)" stroke="none" stroke-width="1px">0.06</text><text x="0" y="59.00000000000001" dx="0em" dy="0.3em" style="text-anchor: end; visibility: hidden; font-family: Roboto, sans-serif; font-size: 12px; font-weight: 200;" fill="rgb(255, 255, 255)" stroke="none" stroke-width="1px">0.065</text><text x="0" y="44.25" dx="0em" dy="0.3em" style="text-anchor: end; visibility: inherit; font-family: Roboto, sans-serif; font-size: 12px; font-weight: 200;" fill="rgb(255, 255, 255)" stroke="none" stroke-width="1px">0.07</text><text x="0" y="29.500000000000032" dx="0em" dy="0.3em" style="text-anchor: end; visibility: hidden; font-family: Roboto, sans-serif; font-size: 12px; font-weight: 200;" fill="rgb(255, 255, 255)" stroke="none" stroke-width="1px">0.075</text><text x="0" y="14.750000000000007" dx="0em" dy="0.3em" style="text-anchor: end; visibility: inherit; font-family: Roboto, sans-serif; font-size: 12px; font-weight: 200;" fill="rgb(255, 255, 255)" stroke="none" stroke-width="1px">0.08</text><text x="0" y="0" dx="0em" dy="0.3em" style="text-anchor: end; visibility: hidden; font-family: Roboto, sans-serif; font-size: 12px; font-weight: 200;" fill="rgb(255, 255, 255)" stroke="none" stroke-width="1px">0.085</text></g><line x1="61.953125" y1="0" x2="61.953125" y2="177" fill="rgb(0, 0, 0)" stroke="rgb(204, 204, 204)" stroke-width="1px"></line></g></g><g transform="translate(61, 0)" clip-path="url(#clip_0)"><clipPath id="clip_0"><rect width="268" height="177"></rect></clipPath><g><g><g><line x1="0" y1="0" x2="0" y2="177" fill="rgb(0, 0, 0)" stroke="rgb(189, 189, 189)" stroke-width="1px" opacity="0.25"></line><line x1="22.337239583333332" y1="0" x2="22.337239583333332" y2="177" fill="rgb(0, 0, 0)" stroke="rgb(189, 189, 189)" stroke-width="1px" opacity="0.25"></line><line x1="44.674479166666664" y1="0" x2="44.674479166666664" y2="177" fill="rgb(0, 0, 0)" stroke="rgb(189, 189, 189)" stroke-width="1px" opacity="0.25"></line><line x1="67.01171875" y1="0" x2="67.01171875" y2="177" fill="rgb(0, 0, 0)" stroke="rgb(189, 189, 189)" stroke-width="1px" opacity="0.25"></line><line x1="89.34895833333333" y1="0" x2="89.34895833333333" y2="177" fill="rgb(0, 0, 0)" stroke="rgb(189, 189, 189)" stroke-width="1px" opacity="0.25"></line><line x1="111.68619791666667" y1="0" x2="111.68619791666667" y2="177" fill="rgb(0, 0, 0)" stroke="rgb(189, 189, 189)" stroke-width="1px" opacity="0.25"></line><line x1="134.0234375" y1="0" x2="134.0234375" y2="177" fill="rgb(0, 0, 0)" stroke="rgb(189, 189, 189)" stroke-width="1px" opacity="0.25"></line><line x1="156.36067708333334" y1="0" x2="156.36067708333334" y2="177" fill="rgb(0, 0, 0)" stroke="rgb(189, 189, 189)" stroke-width="1px" opacity="0.25"></line><line x1="178.69791666666666" y1="0" x2="178.69791666666666" y2="177" fill="rgb(0, 0, 0)" stroke="rgb(189, 189, 189)" stroke-width="1px" opacity="0.25"></line><line x1="201.03515625" y1="0" x2="201.03515625" y2="177" fill="rgb(0, 0, 0)" stroke="rgb(189, 189, 189)" stroke-width="1px" opacity="0.25"></line><line x1="223.37239583333334" y1="0" x2="223.37239583333334" y2="177" fill="rgb(0, 0, 0)" stroke="rgb(189, 189, 189)" stroke-width="1px" opacity="0.25"></line><line x1="245.70963541666666" y1="0" x2="245.70963541666666" y2="177" fill="rgb(0, 0, 0)" stroke="rgb(189, 189, 189)" stroke-width="1px" opacity="0.25"></line><line x1="268.046875" y1="0" x2="268.046875" y2="177" fill="rgb(0, 0, 0)" stroke="rgb(189, 189, 189)" stroke-width="1px" opacity="0.25"></line></g><g><line x1="0" y1="177" x2="268.046875" y2="177" fill="rgb(0, 0, 0)" stroke="rgb(189, 189, 189)" stroke-width="1px" opacity="0.25"></line><line x1="0" y1="162.25" x2="268.046875" y2="162.25" fill="rgb(0, 0, 0)" stroke="rgb(189, 189, 189)" stroke-width="1px" opacity="0.25"></line><line x1="0" y1="147.5" x2="268.046875" y2="147.5" fill="rgb(0, 0, 0)" stroke="rgb(189, 189, 189)" stroke-width="1px" opacity="0.25"></line><line x1="0" y1="132.75" x2="268.046875" y2="132.75" fill="rgb(0, 0, 0)" stroke="rgb(189, 189, 189)" stroke-width="1px" opacity="0.25"></line><line x1="0" y1="118.00000000000001" x2="268.046875" y2="118.00000000000001" fill="rgb(0, 0, 0)" stroke="rgb(189, 189, 189)" stroke-width="1px" opacity="0.25"></line><line x1="0" y1="103.25" x2="268.046875" y2="103.25" fill="rgb(0, 0, 0)" stroke="rgb(189, 189, 189)" stroke-width="1px" opacity="0.25"></line><line x1="0" y1="88.5" x2="268.046875" y2="88.5" fill="rgb(0, 0, 0)" stroke="rgb(189, 189, 189)" stroke-width="1px" opacity="0.25"></line><line x1="0" y1="73.75000000000001" x2="268.046875" y2="73.75000000000001" fill="rgb(0, 0, 0)" stroke="rgb(189, 189, 189)" stroke-width="1px" opacity="0.25"></line><line x1="0" y1="59.00000000000001" x2="268.046875" y2="59.00000000000001" fill="rgb(0, 0, 0)" stroke="rgb(189, 189, 189)" stroke-width="1px" opacity="0.25"></line><line x1="0" y1="44.25" x2="268.046875" y2="44.25" fill="rgb(0, 0, 0)" stroke="rgb(189, 189, 189)" stroke-width="1px" opacity="0.25"></line><line x1="0" y1="29.500000000000032" x2="268.046875" y2="29.500000000000032" fill="rgb(0, 0, 0)" stroke="rgb(189, 189, 189)" stroke-width="1px" opacity="0.25"></line><line x1="0" y1="14.750000000000007" x2="268.046875" y2="14.750000000000007" fill="rgb(0, 0, 0)" stroke="rgb(189, 189, 189)" stroke-width="1px" opacity="0.25"></line><line x1="0" y1="0" x2="268.046875" y2="0" fill="rgb(0, 0, 0)" stroke="rgb(189, 189, 189)" stroke-width="1px" opacity="0.25"></line></g></g></g><g><g><line x1="0" y1="250.74999999999997" x2="268.046875" y2="250.74999999999997" fill="rgb(0, 0, 0)" stroke="rgb(153, 153, 153)" stroke-width="1.5px"></line></g></g><g><g><line x1="22.337239583333332" y1="0" x2="22.337239583333332" y2="177" fill="rgb(0, 0, 0)" stroke="rgb(153, 153, 153)" stroke-width="1.5px"></line></g></g><g><g><g><g><g><path stroke="rgb(255, 112, 67)" stroke-width="2px" d="M32.388997395833336,177.03089170171518L33.505859375,167.99590331040517L34.62272135416667,158.86762444852118L35.739583333333336,149.67496401757197L36.8564453125,140.43851491635252L37.973307291666664,131.17264796003857L39.090169270833336,121.88722321820144L40.20703125,112.58891126444435L41.32389322916667,103.28217210819895L42.44075520833333,93.96995836652373L43.5576171875,84.65420838529775L44.674479166666664,75.33617676722999L45.791341145833336,66.01669421741379L46.908203125,56.69628663181375L48.025065104166664,47.37529132658315L49.14192708333333,38.053923766021406L50.2587890625,28.732329868057295L51.37565104166667,23.139416865406474L52.492513020833336,19.783754294981232L53.609375,17.770490826157513L54.726236979166664,16.56271816157222L55.843098958333336,15.838292223178897L56.9599609375,15.403926888286959L58.07682291666667,15.143650599972425L59.19368489583333,14.987880466089575L60.310546875,14.894866766473607L61.427408854166664,14.839559674469147L62.544270833333336,14.806920504357054L63.6611328125,14.787943628781191L64.77799479166667,14.77721687989614L65.89485677083333,14.771484165400533L67.01171875,14.768809413316411L68.12858072916666,14.768030980468737L69.24544270833334,14.768425505901103L70.3623046875,14.769585348096665L71.47916666666667,14.771248338775406L72.59602864583333,14.773274760339806L73.712890625,14.775571990546272L74.82975260416667,14.778084456048521L75.94661458333333,14.780770021153796L77.0634765625,14.783620987816688L78.18033854166667,14.786623945524758L79.29720052083333,14.789770847970548L80.4140625,14.793048075684467L81.53092447916666,14.796456248669964L82.64778645833334,14.800004530614137L83.7646484375,14.80368962804408L84.88151041666666,14.807500773191018L85.99837239583334,14.811449088763974L87.115234375,14.815532456703036L88.23209635416667,14.819740814487337L89.34895833333333,14.824085707974547L90.4658203125,14.828556481309018L91.58268229166667,14.833155532662424L92.69954427083333,14.837893092622936L93.81640625,14.842757716173312L94.93326822916667,14.847751327988115L96.05013020833333,14.852883874557406L97.1669921875,14.858143740404847L98.28385416666666,14.863532747929835L99.40071614583334,14.869069573942111L100.517578125,14.87473025778728L101.63444010416666,14.880518006442795L102.75130208333334,14.886434744095109L103.8681640625,14.892481625256135L104.98502604166667,14.898668134318127L106.10188802083333,14.904982378546205L107.21875,14.911426013984592L108.33561197916667,14.918000034259753L109.45247395833333,14.924705035547614L110.5693359375,14.931541375553728L111.68619791666667,14.938509268901417L112.80305989583333,14.945617636049771L113.919921875,14.952854245904128L115.03678385416666,14.960220551492592L116.15364583333334,14.967717424632202L117.2705078125,14.97533659672801L118.38736979166666,14.983099481678412L119.50423177083334,14.990983761081964L120.62109375,14.99900241895311L121.73795572916667,15.007154454015472L122.85481770833333,15.01544805718828L123.9716796875,15.023861767967754L125.08854166666667,15.032409085107005L126.20540364583333,15.041089316172712L127.322265625,15.049893254019802L128.43912760416669,15.058832957731472L129.55598958333334,15.067898079387454L130.6728515625,15.077099993605689L131.78971354166666,15.0864367334719L132.90657552083334,15.095907118837566L134.0234375,15.105501649928401L135.14029947916666,15.115232210250099L136.25716145833331,15.125088346535806L137.3740234375,15.135081370195635L138.49088541666669,15.145200484705505L139.60774739583334,15.155448003836009L140.724609375,15.16583410753461L141.84147135416666,15.176347320399618L142.95833333333334,15.186989548875037L144.0751953125,15.19776193682739L145.19205729166666,15.208673962261647L146.30891927083331,15.219713728610522L147.42578125,15.23088288961882L148.54264322916669,15.242182437533351L149.65950520833334,15.253612967702269L150.7763671875,15.265174837334504L151.89322916666666,15.276868260755275L153.01009114583331,15.288693366559817L154.126953125,15.300650231905273L155.24381510416669,15.312738903085915L156.36067708333334,15.32495940787826L157.4775390625,15.337311762948238L158.59440104166666,15.349795978295468L159.71126302083334,15.36240326823451L160.828125,15.37514594472446L161.94498697916666,15.38801381157039L163.06184895833331,15.401018334425668L164.1787109375,15.414148809312076L165.29557291666669,15.427416397212903L166.41243489583334,15.440810211347891L167.529296875,15.454341303019119L168.64615885416666,15.467998719637624L169.76302083333331,15.481784681335094L170.8798828125,15.495700520190587L171.99674479166669,15.509747035451545L173.11360677083334,15.52392470666637L174.23046875,15.538242613249249L175.34733072916666,15.552679827793396L176.46419270833334,15.567250168910004L177.5810546875,15.581961927765848L178.69791666666666,15.596793704005627L179.81477864583331,15.611759032471483L180.931640625,15.626857242383666L182.04850260416669,15.642079139589152L183.16536458333334,15.657427999281223L184.2822265625,15.672923369946117L185.39908854166666,15.68854181393508L186.51595052083331,15.704286852029112L187.6328125,15.720169388381912L188.74967447916669,15.73617838211552L189.86653645833334,15.752316000388253L190.9833984375,15.768583543495057L192.10026041666666,15.784990583298045L193.21712239583334,15.801516487859136L194.333984375,15.818175253070878L195.45084635416666,15.834966484783568L196.56770833333331,15.851889946507503L197.6845703125,15.868945496348811L198.80143229166669,15.886124257486047L199.91829427083334,15.903438487196539L201.03515625,15.92088674816168L202.15201822916666,15.938459386305093L203.26888020833331,15.9561681925512L204.3857421875,15.974002658084439L205.50260416666669,15.991965269300586L206.61946614583334,16.01005751803709L207.736328125,16.028280299396478L208.85319010416666,16.046634150440205L209.97005208333334,16.06511939340516L211.0869140625,16.083736221633472L212.20377604166666,16.1024759594453L213.32063802083331,16.121350984802987L214.4375,16.140359932798855L215.55436197916669,16.159493192803087L216.67122395833334,16.178753790122993L217.7880859375,16.19815233162806L218.90494791666666,16.217677598069745L220.02180989583331,16.237331649583957L221.138671875,16.257115722252383L222.25553385416669,16.277030557723883L223.37239583333334,16.297076600987943L224.4892578125,16.317254119038168L225.60611979166666,16.337554480385563L226.72298177083334,16.35799008950697L227.83984375,16.37855080571834L228.95670572916666,16.399248127979416L230.07356770833331,16.420071372295865L231.1904296875,16.441031711641227L232.30729166666669,16.46211826642951L233.42415364583334,16.48333330059409L234.541015625,16.50467817249514L235.65787760416666,16.526144905463546L236.77473958333331,16.547746296868134L237.8916015625,16.569481233445046L239.00846354166669,16.59134025555091L240.12532552083334,16.613326479084716L241.2421875,16.635441773585924L242.35904947916666,16.657696052463308L243.47591145833334,16.680077680391953L244.5927734375,16.70258846786192L245.70963541666666,16.725220709482272" style="fill: none;" fill="none"></path></g></g></g></g><g opacity="0.2"><g><g><g><path stroke="rgb(255, 112, 67)" stroke-width="2px" d="M30.1552734375,182.54599717259407L31.272135416666668,173.22399762272835L32.388997395833336,163.90199807286263L33.505859375,154.5799985229969L34.62272135416667,145.25799897313118L35.739583333333336,135.93599942326546L36.8564453125,126.61399987339973L37.973307291666664,117.29200032353401L39.090169270833336,107.97000077366829L40.20703125,98.64800122380257L41.32389322916667,89.32600167393684L42.44075520833333,80.00400212407112L43.5576171875,70.6820025742054L44.674479166666664,61.359981045126936L45.791341145833336,52.037981495261214L46.908203125,42.71598194539549L48.025065104166664,33.39398239552977L49.14192708333333,24.071982845664046L50.2587890625,14.75000527501109L51.37565104166667,14.750071212649372L52.492513020833336,14.75026902556422L53.609375,14.750598713755634L54.726236979166664,14.751060277223614L55.843098958333336,14.751653715968159L56.9599609375,14.75237902998927L58.07682291666667,14.753236219286945L59.19368489583333,14.754225283861187L60.310546875,14.755346223711994L61.427408854166664,14.756599038839367L62.544270833333336,14.757961750030537L63.6611328125,14.759478315711041L64.77799479166667,14.76112675666811L65.89485677083333,14.762885093688977L67.01171875,14.764797285199178L68.12858072916666,14.766863331198712L69.24544270833334,14.769017294049275L70.3623046875,14.771325111389173L71.47916666666667,14.773742824792889L72.59602864583333,14.776314392685917L73.712890625,14.77901783585551L74.82975260416667,14.78185315430167L75.94661458333333,14.784798368811627L77.0634765625,14.787897437810917L78.18033854166667,14.791128382086773L79.29720052083333,14.794491201639195L80.4140625,14.797963917255414L81.53092447916666,14.80156850814822L82.64778645833334,14.805326953530338L83.7646484375,14.809217274189022L84.88151041666666,14.813217490911503L85.99837239583334,14.817371562123318L87.115234375,14.821657508611699L88.23209635416667,14.826053351163877L89.34895833333333,14.830603048205388L90.4658203125,14.835262641310718L91.58268229166667,14.840054109692593L92.69954427083333,14.844999432563801L93.81640625,14.850054651498807L94.93326822916667,14.8552417457104L96.05013020833333,14.860582694411304L97.1669921875,14.866033539176007L98.28385416666666,14.871616259217275L99.40071614583334,14.877374812960644L100.517578125,14.883221283555043L101.63444010416666,14.88919962942603L102.75130208333334,14.89530985057356L103.8681640625,14.901551946997655L104.98502604166667,14.907947897911084L106.10188802083333,14.914453744888332L107.21875,14.921091467142125L108.33561197916667,14.927861064672483L109.45247395833333,14.934762537479427L110.5693359375,14.941795885562916L111.68619791666667,14.94896110892297L112.80305989583333,14.956280186772359L113.919921875,14.963709160685566L115.03678385416666,14.971270009875317L116.15364583333334,14.978962734341634L117.2705078125,14.98676535487177L118.38736979166666,14.994743809103985L119.50423177083334,15.002810180187252L120.62109375,15.011030405759831L121.73795572916667,15.019382506608975L122.85481770833333,15.027888461947454L123.9716796875,15.036482334136982L125.08854166666667,15.045230060815824L126.20540364583333,15.054109662771252L127.322265625,15.063099160790456L128.43912760416669,15.072242513299015L129.55598958333334,15.08149576187135L130.6728515625,15.09090286493304L131.78971354166666,15.100441843271275L132.90657552083334,15.110112696886075L134.0234375,15.119893446564694L135.14029947916666,15.129828050732625L136.25716145833331,15.139872550964375L137.3740234375,15.150070905685437L138.49088541666669,15.160379156470318L139.60774739583334,15.170819282531765L140.724609375,15.181413263082524L141.84147135416666,15.192117139697102L142.95833333333334,15.202952891588223L144.0751953125,15.213920518755932L145.19205729166666,15.225042000412953L146.30891927083331,15.236273378133793L147.42578125,15.247636631131199L148.54264322916669,15.259131759405149L149.65950520833334,15.270758762955685L150.7763671875,15.282517641782787L151.89322916666666,15.294408395886434L153.01009114583331,15.306431025266667L154.126953125,15.318585529923466L155.24381510416669,15.330871909856809L156.36067708333334,15.343290165066739L157.4775390625,15.355840295553234L158.59440104166666,15.368522301316274L159.71126302083334,15.381314203143132L160.828125,15.394259959459324L161.94498697916666,15.407315611839314L163.06184895833331,15.420525118708637L164.1787109375,15.433844521641758L165.29557291666669,15.447317779064191L166.41243489583334,15.460900932550443L167.529296875,15.474637940526028L168.64615885416666,15.488484844565411L169.76302083333331,15.50246362388136L170.8798828125,15.516574278473874L171.99674479166669,15.530816808342953L173.11360677083334,15.545191213488598L174.23046875,15.559719473123577L175.34733072916666,15.574335649609585L176.46419270833334,15.589105680584927L177.5810546875,15.604029566049602L178.69791666666666,15.619041368365307L179.81477864583331,15.634207025170346L180.931640625,15.64950455725195L182.04850260416669,15.664911985397351L183.16536458333334,15.68045128881934L184.2822265625,15.696166425943387L185.39908854166666,15.711969479918507L186.51595052083331,15.72790440917017L187.6328125,15.743993192911168L188.74967447916669,15.760191872715962L189.86653645833334,15.776522427797344L190.9833984375,15.79298485815527L192.10026041666666,15.80960114300253L193.21712239583334,15.82630534470084L194.333984375,15.843163400888463L195.45084635416666,15.86015333235265L196.56770833333331,15.877275139093426L197.6845703125,15.894528821110745L198.80143229166669,15.911892399191883L199.91829427083334,15.929409831762333L201.03515625,15.94705913960935L202.15201822916666,15.964818343520184L203.26888020833331,15.982731401920331L204.3857421875,16.0007543563843L205.50260416666669,16.018909186124827L206.61946614583334,16.037195891141906L207.736328125,16.055614471435568L208.85319010416666,16.074164927005793L209.97005208333334,16.09284725785257L211.0869140625,16.111661463975928L212.20377604166666,16.130585566163084L213.32063802083331,16.14966352283957L214.4375,16.16887335479261L215.55436197916669,16.188193082809462L216.67122395833334,16.20764468610288L217.7880859375,16.227250143885634L218.90494791666666,16.246965497732184L220.02180989583331,16.2668127268553L221.138671875,16.28679183125498L222.25553385416669,16.306902810931227L223.37239583333334,16.32714566588404L224.4892578125,16.347520396113417L225.60611979166666,16.368005022406592L226.72298177083334,16.3886435031891L227.83984375,16.409391880035425L228.95670572916666,16.430294111371065L230.07356770833331,16.451306238770506L231.1904296875,16.472472220659277L232.30729166666669,16.493748098611846L233.42415364583334,16.515155851840998L234.541015625,16.5366954803467L235.65787760416666,16.558345004916216L236.77473958333331,16.58014838397505L237.8916015625,16.602083638310447L239.00846354166669,16.624128788709662L240.12532552083334,16.64630581438544L241.2421875,16.668614715337768L242.35904947916666,16.691077470779444L243.47591145833334,16.713650122284903L244.5927734375,16.736354649066946L245.70963541666666,16.759169071912787" style="fill: none;" fill="none"></path></g></g></g></g></g><g><g opacity="0.286852"><span fill="rgb(0, 0, 0)" stroke="none" stroke-width="1px">Alt + Scroll to Zoom</span></g></g></g><g transform="translate(61, 177)" clip-path="url(#clip_1)"><clipPath id="clip_1"><rect width="268" height="23"></rect></clipPath><g><g><line x1="0" y1="0" x2="0" y2="5" style="visibility: inherit;" fill="rgb(0, 0, 0)" stroke="rgb(204, 204, 204)" stroke-width="1px"></line><line x1="22.337239583333332" y1="0" x2="22.337239583333332" y2="5" style="visibility: inherit;" fill="rgb(0, 0, 0)" stroke="rgb(204, 204, 204)" stroke-width="1px"></line><line x1="44.674479166666664" y1="0" x2="44.674479166666664" y2="5" style="visibility: inherit;" fill="rgb(0, 0, 0)" stroke="rgb(204, 204, 204)" stroke-width="1px"></line><line x1="67.01171875" y1="0" x2="67.01171875" y2="5" style="visibility: inherit;" fill="rgb(0, 0, 0)" stroke="rgb(204, 204, 204)" stroke-width="1px"></line><line x1="89.34895833333333" y1="0" x2="89.34895833333333" y2="5" style="visibility: inherit;" fill="rgb(0, 0, 0)" stroke="rgb(204, 204, 204)" stroke-width="1px"></line><line x1="111.68619791666667" y1="0" x2="111.68619791666667" y2="5" style="visibility: inherit;" fill="rgb(0, 0, 0)" stroke="rgb(204, 204, 204)" stroke-width="1px"></line><line x1="134.0234375" y1="0" x2="134.0234375" y2="5" style="visibility: inherit;" fill="rgb(0, 0, 0)" stroke="rgb(204, 204, 204)" stroke-width="1px"></line><line x1="156.36067708333334" y1="0" x2="156.36067708333334" y2="5" style="visibility: inherit;" fill="rgb(0, 0, 0)" stroke="rgb(204, 204, 204)" stroke-width="1px"></line><line x1="178.69791666666666" y1="0" x2="178.69791666666666" y2="5" style="visibility: inherit;" fill="rgb(0, 0, 0)" stroke="rgb(204, 204, 204)" stroke-width="1px"></line><line x1="201.03515625" y1="0" x2="201.03515625" y2="5" style="visibility: inherit;" fill="rgb(0, 0, 0)" stroke="rgb(204, 204, 204)" stroke-width="1px"></line><line x1="223.37239583333334" y1="0" x2="223.37239583333334" y2="5" style="visibility: inherit;" fill="rgb(0, 0, 0)" stroke="rgb(204, 204, 204)" stroke-width="1px"></line><line x1="245.70963541666666" y1="0" x2="245.70963541666666" y2="5" style="visibility: inherit;" fill="rgb(0, 0, 0)" stroke="rgb(204, 204, 204)" stroke-width="1px"></line><line x1="268.046875" y1="0" x2="268.046875" y2="5" style="visibility: inherit;" fill="rgb(0, 0, 0)" stroke="rgb(204, 204, 204)" stroke-width="1px"></line></g><g transform="translate(0, 8)"><text x="0" y="0" dx="0em" dy="0.95em" style="text-anchor: middle; visibility: hidden; font-family: Roboto, sans-serif; font-size: 12px; font-weight: 200;" fill="rgb(255, 255, 255)" stroke="none" stroke-width="1px">-2k</text><text x="22.337239583333332" y="0" dx="0em" dy="0.95em" style="text-anchor: middle; visibility: inherit; font-family: Roboto, sans-serif; font-size: 12px; font-weight: 200;" fill="rgb(255, 255, 255)" stroke="none" stroke-width="1px">0</text><text x="44.674479166666664" y="0" dx="0em" dy="0.95em" style="text-anchor: middle; visibility: hidden; font-family: Roboto, sans-serif; font-size: 12px; font-weight: 200;" fill="rgb(255, 255, 255)" stroke="none" stroke-width="1px">2k</text><text x="67.01171875" y="0" dx="0em" dy="0.95em" style="text-anchor: middle; visibility: inherit; font-family: Roboto, sans-serif; font-size: 12px; font-weight: 200;" fill="rgb(255, 255, 255)" stroke="none" stroke-width="1px">4k</text><text x="89.34895833333333" y="0" dx="0em" dy="0.95em" style="text-anchor: middle; visibility: hidden; font-family: Roboto, sans-serif; font-size: 12px; font-weight: 200;" fill="rgb(255, 255, 255)" stroke="none" stroke-width="1px">6k</text><text x="111.68619791666667" y="0" dx="0em" dy="0.95em" style="text-anchor: middle; visibility: inherit; font-family: Roboto, sans-serif; font-size: 12px; font-weight: 200;" fill="rgb(255, 255, 255)" stroke="none" stroke-width="1px">8k</text><text x="134.0234375" y="0" dx="0em" dy="0.95em" style="text-anchor: middle; visibility: hidden; font-family: Roboto, sans-serif; font-size: 12px; font-weight: 200;" fill="rgb(255, 255, 255)" stroke="none" stroke-width="1px">10k</text><text x="156.36067708333334" y="0" dx="0em" dy="0.95em" style="text-anchor: middle; visibility: inherit; font-family: Roboto, sans-serif; font-size: 12px; font-weight: 200;" fill="rgb(255, 255, 255)" stroke="none" stroke-width="1px">12k</text><text x="178.69791666666666" y="0" dx="0em" dy="0.95em" style="text-anchor: middle; visibility: hidden; font-family: Roboto, sans-serif; font-size: 12px; font-weight: 200;" fill="rgb(255, 255, 255)" stroke="none" stroke-width="1px">14k</text><text x="201.03515625" y="0" dx="0em" dy="0.95em" style="text-anchor: middle; visibility: inherit; font-family: Roboto, sans-serif; font-size: 12px; font-weight: 200;" fill="rgb(255, 255, 255)" stroke="none" stroke-width="1px">16k</text><text x="223.37239583333334" y="0" dx="0em" dy="0.95em" style="text-anchor: middle; visibility: hidden; font-family: Roboto, sans-serif; font-size: 12px; font-weight: 200;" fill="rgb(255, 255, 255)" stroke="none" stroke-width="1px">18k</text><text x="245.70963541666666" y="0" dx="0em" dy="0.95em" style="text-anchor: middle; visibility: inherit; font-family: Roboto, sans-serif; font-size: 12px; font-weight: 200;" fill="rgb(255, 255, 255)" stroke="none" stroke-width="1px">20k</text><text x="268.046875" y="0" dx="0em" dy="0.95em" style="text-anchor: middle; visibility: hidden; font-family: Roboto, sans-serif; font-size: 12px; font-weight: 200;" fill="rgb(255, 255, 255)" stroke="none" stroke-width="1px">22k</text></g><line x1="0" y1="0" x2="268.046875" y2="0" fill="rgb(0, 0, 0)" stroke="rgb(204, 204, 204)" stroke-width="1px"></line></g></g></g></g></svg>