<svg viewBox="0 0 330 200" xmlns="http://www.w3.org/2000/svg"><g><g><g><g><g><line x1="51.5625" y1="177" x2="46.5625" y2="177" style="visibility: inherit;" fill="rgb(0, 0, 0)" stroke="rgb(204, 204, 204)" stroke-width="1px"></line><line x1="51.5625" y1="162.25" x2="46.5625" y2="162.25" style="visibility: inherit;" fill="rgb(0, 0, 0)" stroke="rgb(204, 204, 204)" stroke-width="1px"></line><line x1="51.5625" y1="147.5" x2="46.5625" y2="147.5" style="visibility: inherit;" fill="rgb(0, 0, 0)" stroke="rgb(204, 204, 204)" stroke-width="1px"></line><line x1="51.5625" y1="132.75" x2="46.5625" y2="132.75" style="visibility: inherit;" fill="rgb(0, 0, 0)" stroke="rgb(204, 204, 204)" stroke-width="1px"></line><line x1="51.5625" y1="118.00000000000001" x2="46.5625" y2="118.00000000000001" style="visibility: inherit;" fill="rgb(0, 0, 0)" stroke="rgb(204, 204, 204)" stroke-width="1px"></line><line x1="51.5625" y1="103.24999999999999" x2="46.5625" y2="103.24999999999999" style="visibility: inherit;" fill="rgb(0, 0, 0)" stroke="rgb(204, 204, 204)" stroke-width="1px"></line><line x1="51.5625" y1="88.49999999999999" x2="46.5625" y2="88.49999999999999" style="visibility: inherit;" fill="rgb(0, 0, 0)" stroke="rgb(204, 204, 204)" stroke-width="1px"></line><line x1="51.5625" y1="73.75" x2="46.5625" y2="73.75" style="visibility: inherit;" fill="rgb(0, 0, 0)" stroke="rgb(204, 204, 204)" stroke-width="1px"></line><line x1="51.5625" y1="58.999999999999986" x2="46.5625" y2="58.999999999999986" style="visibility: inherit;" fill="rgb(0, 0, 0)" stroke="rgb(204, 204, 204)" stroke-width="1px"></line><line x1="51.5625" y1="44.25" x2="46.5625" y2="44.25" style="visibility: inherit;" fill="rgb(0, 0, 0)" stroke="rgb(204, 204, 204)" stroke-width="1px"></line><line x1="51.5625" y1="29.499999999999993" x2="46.5625" y2="29.499999999999993" style="visibility: inherit;" fill="rgb(0, 0, 0)" stroke="rgb(204, 204, 204)" stroke-width="1px"></line><line x1="51.5625" y1="14.750000000000007" x2="46.5625" y2="14.750000000000007" style="visibility: inherit;" fill="rgb(0, 0, 0)" stroke="rgb(204, 204, 204)" stroke-width="1px"></line><line x1="51.5625" y1="0" x2="46.5625" y2="0" style="visibility: inherit;" fill="rgb(0, 0, 0)" stroke="rgb(204, 204, 204)" stroke-width="1px"></line></g><g transform="translate(41.5625, 0)"><text x="0" y="177" dx="0em" dy="0.3em" style="text-anchor: end; visibility: hidden; font-family: Roboto, sans-serif; font-size: 12px; font-weight: 200;" fill="rgb(255, 255, 255)" stroke="none" stroke-width="1px">0.15</text><text x="0" y="162.25" dx="0em" dy="0.3em" style="text-anchor: end; visibility: inherit; font-family: Roboto, sans-serif; font-size: 12px; font-weight: 200;" fill="rgb(255, 255, 255)" stroke="none" stroke-width="1px">0.2</text><text x="0" y="147.5" dx="0em" dy="0.3em" style="text-anchor: end; visibility: hidden; font-family: Roboto, sans-serif; font-size: 12px; font-weight: 200;" fill="rgb(255, 255, 255)" stroke="none" stroke-width="1px">0.25</text><text x="0" y="132.75" dx="0em" dy="0.3em" style="text-anchor: end; visibility: inherit; font-family: Roboto, sans-serif; font-size: 12px; font-weight: 200;" fill="rgb(255, 255, 255)" stroke="none" stroke-width="1px">0.3</text><text x="0" y="118.00000000000001" dx="0em" dy="0.3em" style="text-anchor: end; visibility: hidden; font-family: Roboto, sans-serif; font-size: 12px; font-weight: 200;" fill="rgb(255, 255, 255)" stroke="none" stroke-width="1px">0.35</text><text x="0" y="103.24999999999999" dx="0em" dy="0.3em" style="text-anchor: end; visibility: inherit; font-family: Roboto, sans-serif; font-size: 12px; font-weight: 200;" fill="rgb(255, 255, 255)" stroke="none" stroke-width="1px">0.4</text><text x="0" y="88.49999999999999" dx="0em" dy="0.3em" style="text-anchor: end; visibility: hidden; font-family: Roboto, sans-serif; font-size: 12px; font-weight: 200;" fill="rgb(255, 255, 255)" stroke="none" stroke-width="1px">0.45</text><text x="0" y="73.75" dx="0em" dy="0.3em" style="text-anchor: end; visibility: inherit; font-family: Roboto, sans-serif; font-size: 12px; font-weight: 200;" fill="rgb(255, 255, 255)" stroke="none" stroke-width="1px">0.5</text><text x="0" y="58.999999999999986" dx="0em" dy="0.3em" style="text-anchor: end; visibility: hidden; font-family: Roboto, sans-serif; font-size: 12px; font-weight: 200;" fill="rgb(255, 255, 255)" stroke="none" stroke-width="1px">0.55</text><text x="0" y="44.25" dx="0em" dy="0.3em" style="text-anchor: end; visibility: inherit; font-family: Roboto, sans-serif; font-size: 12px; font-weight: 200;" fill="rgb(255, 255, 255)" stroke="none" stroke-width="1px">0.6</text><text x="0" y="29.499999999999993" dx="0em" dy="0.3em" style="text-anchor: end; visibility: hidden; font-family: Roboto, sans-serif; font-size: 12px; font-weight: 200;" fill="rgb(255, 255, 255)" stroke="none" stroke-width="1px">0.65</text><text x="0" y="14.750000000000007" dx="0em" dy="0.3em" style="text-anchor: end; visibility: inherit; font-family: Roboto, sans-serif; font-size: 12px; font-weight: 200;" fill="rgb(255, 255, 255)" stroke="none" stroke-width="1px">0.7</text><text x="0" y="0" dx="0em" dy="0.3em" style="text-anchor: end; visibility: hidden; font-family: Roboto, sans-serif; font-size: 12px; font-weight: 200;" fill="rgb(255, 255, 255)" stroke="none" stroke-width="1px">0.75</text></g><line x1="51.5625" y1="0" x2="51.5625" y2="177" fill="rgb(0, 0, 0)" stroke="rgb(204, 204, 204)" stroke-width="1px"></line></g></g><g transform="translate(51, 0)" clip-path="url(#clip_0)"><clipPath id="clip_0"><rect width="278" height="177"></rect></clipPath><g><g><g><line x1="0" y1="0" x2="0" y2="177" fill="rgb(0, 0, 0)" stroke="rgb(189, 189, 189)" stroke-width="1px" opacity="0.25"></line><line x1="23.203125" y1="0" x2="23.203125" y2="177" fill="rgb(0, 0, 0)" stroke="rgb(189, 189, 189)" stroke-width="1px" opacity="0.25"></line><line x1="46.40625" y1="0" x2="46.40625" y2="177" fill="rgb(0, 0, 0)" stroke="rgb(189, 189, 189)" stroke-width="1px" opacity="0.25"></line><line x1="69.609375" y1="0" x2="69.609375" y2="177" fill="rgb(0, 0, 0)" stroke="rgb(189, 189, 189)" stroke-width="1px" opacity="0.25"></line><line x1="92.8125" y1="0" x2="92.8125" y2="177" fill="rgb(0, 0, 0)" stroke="rgb(189, 189, 189)" stroke-width="1px" opacity="0.25"></line><line x1="116.015625" y1="0" x2="116.015625" y2="177" fill="rgb(0, 0, 0)" stroke="rgb(189, 189, 189)" stroke-width="1px" opacity="0.25"></line><line x1="139.21875" y1="0" x2="139.21875" y2="177" fill="rgb(0, 0, 0)" stroke="rgb(189, 189, 189)" stroke-width="1px" opacity="0.25"></line><line x1="162.421875" y1="0" x2="162.421875" y2="177" fill="rgb(0, 0, 0)" stroke="rgb(189, 189, 189)" stroke-width="1px" opacity="0.25"></line><line x1="185.625" y1="0" x2="185.625" y2="177" fill="rgb(0, 0, 0)" stroke="rgb(189, 189, 189)" stroke-width="1px" opacity="0.25"></line><line x1="208.828125" y1="0" x2="208.828125" y2="177" fill="rgb(0, 0, 0)" stroke="rgb(189, 189, 189)" stroke-width="1px" opacity="0.25"></line><line x1="232.03125" y1="0" x2="232.03125" y2="177" fill="rgb(0, 0, 0)" stroke="rgb(189, 189, 189)" stroke-width="1px" opacity="0.25"></line><line x1="255.234375" y1="0" x2="255.234375" y2="177" fill="rgb(0, 0, 0)" stroke="rgb(189, 189, 189)" stroke-width="1px" opacity="0.25"></line><line x1="278.4375" y1="0" x2="278.4375" y2="177" fill="rgb(0, 0, 0)" stroke="rgb(189, 189, 189)" stroke-width="1px" opacity="0.25"></line></g><g><line x1="0" y1="177" x2="278.4375" y2="177" fill="rgb(0, 0, 0)" stroke="rgb(189, 189, 189)" stroke-width="1px" opacity="0.25"></line><line x1="0" y1="162.25" x2="278.4375" y2="162.25" fill="rgb(0, 0, 0)" stroke="rgb(189, 189, 189)" stroke-width="1px" opacity="0.25"></line><line x1="0" y1="147.5" x2="278.4375" y2="147.5" fill="rgb(0, 0, 0)" stroke="rgb(189, 189, 189)" stroke-width="1px" opacity="0.25"></line><line x1="0" y1="132.75" x2="278.4375" y2="132.75" fill="rgb(0, 0, 0)" stroke="rgb(189, 189, 189)" stroke-width="1px" opacity="0.25"></line><line x1="0" y1="118.00000000000001" x2="278.4375" y2="118.00000000000001" fill="rgb(0, 0, 0)" stroke="rgb(189, 189, 189)" stroke-width="1px" opacity="0.25"></line><line x1="0" y1="103.24999999999999" x2="278.4375" y2="103.24999999999999" fill="rgb(0, 0, 0)" stroke="rgb(189, 189, 189)" stroke-width="1px" opacity="0.25"></line><line x1="0" y1="88.49999999999999" x2="278.4375" y2="88.49999999999999" fill="rgb(0, 0, 0)" stroke="rgb(189, 189, 189)" stroke-width="1px" opacity="0.25"></line><line x1="0" y1="73.75" x2="278.4375" y2="73.75" fill="rgb(0, 0, 0)" stroke="rgb(189, 189, 189)" stroke-width="1px" opacity="0.25"></line><line x1="0" y1="58.999999999999986" x2="278.4375" y2="58.999999999999986" fill="rgb(0, 0, 0)" stroke="rgb(189, 189, 189)" stroke-width="1px" opacity="0.25"></line><line x1="0" y1="44.25" x2="278.4375" y2="44.25" fill="rgb(0, 0, 0)" stroke="rgb(189, 189, 189)" stroke-width="1px" opacity="0.25"></line><line x1="0" y1="29.499999999999993" x2="278.4375" y2="29.499999999999993" fill="rgb(0, 0, 0)" stroke="rgb(189, 189, 189)" stroke-width="1px" opacity="0.25"></line><line x1="0" y1="14.750000000000007" x2="278.4375" y2="14.750000000000007" fill="rgb(0, 0, 0)" stroke="rgb(189, 189, 189)" stroke-width="1px" opacity="0.25"></line><line x1="0" y1="0" x2="278.4375" y2="0" fill="rgb(0, 0, 0)" stroke="rgb(189, 189, 189)" stroke-width="1px" opacity="0.25"></line></g></g></g><g><g><line x1="0" y1="221.25" x2="278.4375" y2="221.25" fill="rgb(0, 0, 0)" stroke="rgb(153, 153, 153)" stroke-width="1.5px"></line></g></g><g><g><line x1="23.203125" y1="0" x2="23.203125" y2="177" fill="rgb(0, 0, 0)" stroke="rgb(153, 153, 153)" stroke-width="1.5px"></line></g></g><g><g><g><g><g><path stroke="rgb(255, 112, 67)" stroke-width="2px" d="M25.523437499999996,-11.985959261655847L26.683593750000004,15.750815935280853L27.84375,22.04858665518898L29.00390625,39.11309318812169L30.1640625,35.19854276604096L31.32421875,41.44980462012849L32.484375,52.76543233561949L33.64453125,73.69364489317375L34.8046875,94.36095785784308L35.96484375000001,93.86346567809622L37.125,100.74949539373362L38.28515625,118.75059118452728L39.4453125,123.11057294343829L40.60546875,104.54088547604474L41.765625,78.45264203879489L42.92578125,86.7792618795239L44.0859375,91.18174003822644L45.24609375,83.700513148233L46.40625,67.95619734828253L47.56640625,95.14186688127228L48.7265625,106.02275774206619L49.88671875,88.33210424268006L51.04687499999999,93.22259547394574L52.20703125,105.31035380193067L53.36718750000001,119.86156434428557L54.52734375,107.88951262743873L55.6875,81.69294348915655L56.84765625,97.75903698631463L58.0078125,85.21951002917687L59.16796875,105.11909071140202L60.328125,86.69535087067631L61.48828125,102.36934758478519L62.6484375,106.662269818125L63.80859375,121.05538439896874L64.96875,100.93231437995874L66.12890625,101.64513104638426L67.2890625,109.52242731087381L68.44921875,116.21479464491881L69.609375,125.0571772152409L70.76953125,132.08601968221703L71.92968750000001,118.73756996187643L73.08984375,130.98633788219948L74.25,114.56650603839522L75.41015625,114.69356339592328L76.5703125,129.74869988308023L77.73046875,120.183346461568L78.890625,109.63043713028205L80.05078125,122.07959123541778L81.2109375,118.34310691407204L82.37109375,120.08141613514599L83.53125,115.34976969068686L84.69140624999999,127.41064137166126L85.8515625,138.5467092749318L87.01171875,140.2650991414105L88.171875,142.54642321670826L89.33203125000001,137.29857083561765L90.4921875,129.13034174682235L91.65234375,127.70215155983875L92.8125,130.80547661963067L93.97265625,131.60089958538393L95.1328125,119.7502520610675L96.29296875,103.15764432726989L97.453125,119.44025549637502L98.61328125,128.76356681196233L99.7734375,98.32655537133411L100.93359375,115.45495336058737L102.09374999999999,126.35291018964647L103.25390625,135.45116888810279L104.4140625,140.75790487127946L105.57421875,146.8699785017815L106.73437500000001,152.1068672802357L107.89453125,132.37542900242258L109.0546875,140.96648167251257L110.21484375,146.4234540502948L111.375,145.3184006596042L112.53515625,146.10116124060355L113.6953125,114.18554830495476L114.85546875,130.78734822835898L116.015625,141.29059206108076L117.17578125,153.20980796611204L118.3359375,131.9052534067386L119.49609374999999,120.36817233346423L120.65625,130.08336133112027L121.81640625,143.04000461905903L122.9765625,143.5816919494254L124.13671875000001,142.29458008340492L125.296875,142.38641955930888L126.45703125,149.33630557941734L127.6171875,150.81584791593158L128.77734375,139.57543844135046L129.9375,141.78191592783594L131.09765625,134.78512305313865L132.2578125,141.59734230217052L133.41796875,142.5021471439404L134.578125,134.341437629378L135.73828125,155.7932288566328L136.8984375,149.93010444158895L138.05859375,129.0407391948377L139.21875,148.70928842204063L140.37890625,148.03692459092886L141.5390625,148.45367907897443L142.69921875,158.3231100703228L143.85937500000003,148.45116926818778L145.01953125,148.07448022717054L146.1796875,146.34706677886138L147.33984375,146.82464535172156L148.5,145.72049912891015L149.66015625,155.323283148296L150.8203125,157.44517306833706L151.98046874999997,157.39766755908275L153.140625,151.93620353466002L154.30078125,145.66207790092068L155.4609375,165.9637731833186L156.62109375,177.94393815236842L157.78125,152.27298306010698L158.94140625,152.40777222265325L160.1015625,156.9995837387414L161.26171875000003,159.32609358292646L162.421875,144.81260656632082L163.58203125,148.9300144870108L164.7421875,151.84285331720267L165.90234375,156.23411434265466L167.0625,159.4615395508557L168.22265625,158.09131003274615L169.38281249999997,162.65470365794954L170.54296875,164.05386817522324L171.703125,164.33085904757664L172.86328125,161.19412473583512L174.0234375,172.89580821540528L175.18359375,163.5899179252778L176.34375,163.77788588838544L177.50390625,172.67037397883396L178.66406250000003,164.6360558942679L179.82421875,159.9822784766986L180.984375,152.47953088911973L182.14453125,151.24746255178812L183.3046875,148.04880566656328L184.46484375,159.83031688487372L185.625,157.3348460993519L186.78515624999997,143.4496590734333L187.9453125,144.47011811976495L189.10546875,141.53153391745602L190.265625,152.70518450180836L191.42578125,150.99591683292476L192.5859375,156.4621259626394L193.74609375,172.07755800227199L194.90625,178.33756833457872L196.06640625000003,167.05275174488975L197.2265625,164.5713355035207L198.38671875,161.48880644980795L199.546875,152.43522223439055L200.70703125,155.83155352834603L201.8671875,149.31477015592898L203.02734375,153.91454842912103L204.18749999999997,151.92123304144707L205.34765625,146.00674993000132L206.5078125,144.07763615966857L207.66796875,149.62908170056951L208.828125,167.28292193372616L209.98828125,165.93661794876795L211.1484375,157.8883940566524L212.30859375,169.29435863130954L213.46875000000003,160.0165320875267L214.62890625,169.21210583698868L215.7890625,177.62491420896123L216.94921875,178.7363367437796L218.109375,165.52852560040213L219.26953125,164.1784790692142L220.4296875,167.36585980876754L221.58984374999997,157.96615187063497L222.75,169.09833116075208L223.91015625,169.17368973935132L225.0703125,167.06216562178423L226.23046875,166.34807758561786L227.390625,174.85506798644076L228.55078125,154.5148384321881L229.7109375,157.90428926045612L230.87109375000003,156.04632562097856L232.03125,158.04271907029718L233.19140625,158.12879556666715L234.3515625,164.42953431159796L235.51171875,161.8294156107339L236.671875,169.12081471163228L237.83203125,165.9060350720775L238.99218749999997,166.4690948226864L240.15234375,163.29745350473016L241.3125,177.18652165349062L242.47265625,167.5033688629611L243.6328125,160.37977964192297L244.79296875,164.93928623503245L245.953125,165.5759331721413L247.11328125,137.7875722729175L248.27343750000003,144.4970673789387L249.43359375,154.22476655064852L250.59375,151.5184089292218L251.75390625,163.2527703791338L252.9140625,171.1522627919601L254.07421875,167.09387278852978L255.234375,159.33337575970958" style="fill: none;" fill="none"></path></g><g><path stroke="rgb(0, 119, 187)" stroke-width="2px" d="M23.203125,14.349155426025384L34.8046875,-1703.8752746582027L127.6171875,-37.10997287948129L139.21875,26.928958111811088L150.8203125,60.532001970691624L162.421875,60.754644380314524L174.0234375,85.30412077961715L185.625,71.42781270778073L197.2265625,69.34410363742141L208.828125,32.40762412522551L220.4296875,34.537673555281664L232.03125,28.52857210063555L243.6328125,54.590023393526764L255.234375,79.28882905978449" style="fill: none;" fill="none"></path></g></g></g></g><g opacity="0.2"><g><g><g><path stroke="rgb(255, 112, 67)" stroke-width="2px" d="M24.36328125,-52.656162679195404L25.523437499999996,12.41616278886795L26.683593750000004,42.37812012434006L27.84375,29.454765021800995L29.00390625,61.39251291751862L30.1640625,29.7833102941513L31.32421875,50.38920909166337L32.484375,69.26372617483139L33.64453125,104.55869331955908L34.8046875,125.04950895905495L35.96484375000001,93.1217396259308L37.125,111.04106649756432L38.28515625,145.69345816969872L39.4453125,129.64200392365456L40.60546875,76.70818224549294L41.765625,39.33867633342742L42.92578125,99.26566809415817L44.0859375,97.78433948755264L45.24609375,72.47981250286102L46.40625,44.341162741184235L47.56640625,135.91888025403023L48.7265625,122.34373599290846L49.88671875,61.79647326469422L51.04687499999999,100.5582743883133L52.20703125,123.44190537929535L53.36718750000001,141.68831810355186L54.52734375,89.9314656853676L55.6875,42.3981299996376L56.84765625,121.85816243290901L58.0078125,66.41022652387619L59.16796875,134.9684551358223L60.328125,59.059744775295265L61.48828125,125.88034078478812L62.6484375,113.10165286064147L63.80859375,142.64505565166473L64.96875,70.74770987033844L66.12890625,102.71435603499413L67.2890625,121.33837163448332L68.44921875,126.25334560871124L69.609375,138.32075104117393L70.76953125,142.6292833685875L71.92968750000001,98.7148953974247L73.08984375,149.35948975384235L74.25,89.93675827980042L75.41015625,114.88414943218231L76.5703125,152.33140461146832L77.73046875,105.83531633019447L78.890625,93.80107313394547L80.05078125,140.7533223927021L81.2109375,112.7383804321289L82.37109375,122.68887996673583L83.53125,108.25230002403259L84.69140624999999,145.50194889307022L85.8515625,155.25081112980843L87.01171875,142.84268394112587L88.171875,145.9684093296528L89.33203125000001,129.42679226398468L90.4921875,116.8779981136322L91.65234375,125.55986627936363L92.8125,135.46046420931816L93.97265625,132.79403403401375L95.1328125,101.97428077459335L96.29296875,78.26873272657394L97.453125,143.86417225003242L98.61328125,142.74853378534317L99.7734375,52.671038210392L100.93359375,141.14755034446716L102.09374999999999,142.69984543323517L103.25390625,149.0985569357872L104.4140625,148.71800884604454L105.57421875,156.03808894753456L106.73437500000001,159.96220044791698L107.89453125,102.7782715857029L109.0546875,153.8530606776476L110.21484375,154.60891261696815L111.375,143.66082057356834L112.53515625,147.2753021121025L113.6953125,66.31212890148163L114.85546875,155.6900481134653L116.015625,157.0454578101635L117.17578125,171.08863182365894L118.3359375,99.94842156767847L119.49609374999999,103.06255072355272L120.65625,144.6561448276043L121.81640625,162.47496955096722L122.9765625,144.3942229449749L124.13671875000001,140.36391228437424L125.296875,142.52417877316475L126.45703125,159.76113460958004L127.6171875,153.03516142070293L128.77734375,122.71482422947884L129.9375,145.09163215756416L131.09765625,124.28993374109268L132.2578125,151.8156711757183L133.41796875,143.85935440659523L134.578125,122.1003733575344L135.73828125,187.970915697515L136.8984375,141.13541781902313L138.05859375,97.70669132471085L139.21875,178.21211226284504L140.37890625,147.02837884426117L141.5390625,149.07881081104279L142.69921875,173.1272565573454L143.85937500000003,133.64325806498528L145.01953125,147.50944666564465L146.1796875,143.75594660639763L147.33984375,147.5410132110119L148.5,144.064279794693L149.66015625,169.72745917737484L150.8203125,160.6280079483986L151.98046874999997,157.3264092952013L153.140625,143.7440074980259L154.30078125,136.25088945031166L155.4609375,196.41631610691547L156.62109375,195.9141856059432L157.78125,113.76655042171478L158.94140625,152.60995596647263L160.1015625,163.88730101287365L161.26171875000003,162.81585834920406L162.421875,123.04237604141235L163.58203125,155.1061263680458L164.7421875,156.21211156249046L165.90234375,162.82100588083267L167.0625,164.30267736315727L168.22265625,156.03596575558186L169.38281249999997,169.49979409575462L170.54296875,166.15261495113373L171.703125,164.74634535610676L172.86328125,156.4890232682228L174.0234375,190.44833343476057L175.18359375,149.63108249008656L176.34375,164.0598378330469L177.50390625,186.00910611450672L178.66406250000003,152.58457876741886L179.82421875,153.00161235034466L180.984375,141.22540950775146L182.14453125,149.39936004579067L183.3046875,143.25082033872604L184.46484375,177.5025837123394L185.625,153.59163992106915L186.78515624999997,122.62187853455544L187.9453125,146.0008066892624L189.10546875,137.1236576139927L190.265625,169.4656603783369L191.42578125,148.43201532959938L192.5859375,164.6614396572113L193.74609375,195.50070606172085L194.90625,187.7275838330388L196.06640625000003,150.12552686035633L197.2265625,160.8492111414671L198.38671875,156.86501286923885L199.546875,138.85484591126442L200.70703125,160.9260504692793L201.8671875,139.5395950973034L203.02734375,160.81421583890915L204.18749999999997,148.93125995993614L205.34765625,137.13502526283264L206.5078125,141.18396550416946L207.66796875,157.95625001192093L208.828125,193.7636822834611L209.98828125,163.91716197133064L211.1484375,145.81605821847916L212.30859375,186.4033054932952L213.46875000000003,146.0997922718525L214.62890625,183.00546646118164L216.94921875,180.40347054600716L218.109375,145.71680888533592L219.26953125,162.15340927243233L220.4296875,172.1469309180975L221.58984374999997,143.86658996343613L222.75,185.79660009592772L223.91015625,169.2867276072502L225.0703125,163.89487944543362L226.23046875,165.27694553136826L227.390625,187.6155535876751L228.55078125,124.00449410080908L229.7109375,162.98846550285816L230.87109375000003,153.25938016176224L232.03125,161.0373092442751L233.19140625,158.25791031122208L234.3515625,173.88064242899418L235.51171875,157.92923755943775L236.671875,180.0579133629799L237.83203125,161.08386561274529L238.99218749999997,167.31368444859982L240.15234375,158.5399915277958L241.3125,198.02012387663126L242.47265625,152.97863967716694L243.6328125,149.69439581036568L244.79296875,171.77854612469673L245.953125,166.53090357780457L247.11328125,96.1050309240818L248.27343750000003,154.56131003797054L249.43359375,168.81631530821323L250.59375,147.45887249708176L251.75390625,180.8543125540018L252.9140625,183.00150141119957L254.07421875,161.00628778338432L255.234375,147.6926302164793" style="fill: none;" fill="none"></path></g><g><path stroke="rgb(0, 119, 187)" stroke-width="2px" d="M23.203125,14.349155426025384L34.8046875,-2734.8099327087402L46.40625,-836.8236756324769L58.0078125,72.41512328386307L69.609375,-58.228666782379136L81.2109375,-17.217460274696336L92.8125,40.80927908420563L104.4140625,-175.8164352178574L116.015625,16.071130037307732L127.6171875,25.218526721000664L139.21875,122.40652620792389L150.8203125,110.75370147824287L162.421875,61.0878810286522L174.0234375,122.0802403986454L185.625,50.62966167926788L197.2265625,66.22000962495804L208.828125,-22.981464862823472L220.4296875,37.732206881046295L232.03125,19.51583534479142L243.6328125,93.67981821298599L255.234375,116.33568301796912" style="fill: none;" fill="none"></path></g></g></g></g></g></g><g transform="translate(51, 177)" clip-path="url(#clip_1)"><clipPath id="clip_1"><rect width="278" height="23"></rect></clipPath><g><g><line x1="0" y1="0" x2="0" y2="5" style="visibility: inherit;" fill="rgb(0, 0, 0)" stroke="rgb(204, 204, 204)" stroke-width="1px"></line><line x1="23.203125" y1="0" x2="23.203125" y2="5" style="visibility: inherit;" fill="rgb(0, 0, 0)" stroke="rgb(204, 204, 204)" stroke-width="1px"></line><line x1="46.40625" y1="0" x2="46.40625" y2="5" style="visibility: inherit;" fill="rgb(0, 0, 0)" stroke="rgb(204, 204, 204)" stroke-width="1px"></line><line x1="69.609375" y1="0" x2="69.609375" y2="5" style="visibility: inherit;" fill="rgb(0, 0, 0)" stroke="rgb(204, 204, 204)" stroke-width="1px"></line><line x1="92.8125" y1="0" x2="92.8125" y2="5" style="visibility: inherit;" fill="rgb(0, 0, 0)" stroke="rgb(204, 204, 204)" stroke-width="1px"></line><line x1="116.015625" y1="0" x2="116.015625" y2="5" style="visibility: inherit;" fill="rgb(0, 0, 0)" stroke="rgb(204, 204, 204)" stroke-width="1px"></line><line x1="139.21875" y1="0" x2="139.21875" y2="5" style="visibility: inherit;" fill="rgb(0, 0, 0)" stroke="rgb(204, 204, 204)" stroke-width="1px"></line><line x1="162.421875" y1="0" x2="162.421875" y2="5" style="visibility: inherit;" fill="rgb(0, 0, 0)" stroke="rgb(204, 204, 204)" stroke-width="1px"></line><line x1="185.625" y1="0" x2="185.625" y2="5" style="visibility: inherit;" fill="rgb(0, 0, 0)" stroke="rgb(204, 204, 204)" stroke-width="1px"></line><line x1="208.828125" y1="0" x2="208.828125" y2="5" style="visibility: inherit;" fill="rgb(0, 0, 0)" stroke="rgb(204, 204, 204)" stroke-width="1px"></line><line x1="232.03125" y1="0" x2="232.03125" y2="5" style="visibility: inherit;" fill="rgb(0, 0, 0)" stroke="rgb(204, 204, 204)" stroke-width="1px"></line><line x1="255.234375" y1="0" x2="255.234375" y2="5" style="visibility: inherit;" fill="rgb(0, 0, 0)" stroke="rgb(204, 204, 204)" stroke-width="1px"></line><line x1="278.4375" y1="0" x2="278.4375" y2="5" style="visibility: inherit;" fill="rgb(0, 0, 0)" stroke="rgb(204, 204, 204)" stroke-width="1px"></line></g><g transform="translate(0, 8)"><text x="0" y="0" dx="0em" dy="0.95em" style="text-anchor: middle; visibility: hidden; font-family: Roboto, sans-serif; font-size: 12px; font-weight: 200;" fill="rgb(255, 255, 255)" stroke="none" stroke-width="1px">-2k</text><text x="23.203125" y="0" dx="0em" dy="0.95em" style="text-anchor: middle; visibility: inherit; font-family: Roboto, sans-serif; font-size: 12px; font-weight: 200;" fill="rgb(255, 255, 255)" stroke="none" stroke-width="1px">0</text><text x="46.40625" y="0" dx="0em" dy="0.95em" style="text-anchor: middle; visibility: hidden; font-family: Roboto, sans-serif; font-size: 12px; font-weight: 200;" fill="rgb(255, 255, 255)" stroke="none" stroke-width="1px">2k</text><text x="69.609375" y="0" dx="0em" dy="0.95em" style="text-anchor: middle; visibility: inherit; font-family: Roboto, sans-serif; font-size: 12px; font-weight: 200;" fill="rgb(255, 255, 255)" stroke="none" stroke-width="1px">4k</text><text x="92.8125" y="0" dx="0em" dy="0.95em" style="text-anchor: middle; visibility: hidden; font-family: Roboto, sans-serif; font-size: 12px; font-weight: 200;" fill="rgb(255, 255, 255)" stroke="none" stroke-width="1px">6k</text><text x="116.015625" y="0" dx="0em" dy="0.95em" style="text-anchor: middle; visibility: inherit; font-family: Roboto, sans-serif; font-size: 12px; font-weight: 200;" fill="rgb(255, 255, 255)" stroke="none" stroke-width="1px">8k</text><text x="139.21875" y="0" dx="0em" dy="0.95em" style="text-anchor: middle; visibility: hidden; font-family: Roboto, sans-serif; font-size: 12px; font-weight: 200;" fill="rgb(255, 255, 255)" stroke="none" stroke-width="1px">10k</text><text x="162.421875" y="0" dx="0em" dy="0.95em" style="text-anchor: middle; visibility: inherit; font-family: Roboto, sans-serif; font-size: 12px; font-weight: 200;" fill="rgb(255, 255, 255)" stroke="none" stroke-width="1px">12k</text><text x="185.625" y="0" dx="0em" dy="0.95em" style="text-anchor: middle; visibility: hidden; font-family: Roboto, sans-serif; font-size: 12px; font-weight: 200;" fill="rgb(255, 255, 255)" stroke="none" stroke-width="1px">14k</text><text x="208.828125" y="0" dx="0em" dy="0.95em" style="text-anchor: middle; visibility: inherit; font-family: Roboto, sans-serif; font-size: 12px; font-weight: 200;" fill="rgb(255, 255, 255)" stroke="none" stroke-width="1px">16k</text><text x="232.03125" y="0" dx="0em" dy="0.95em" style="text-anchor: middle; visibility: hidden; font-family: Roboto, sans-serif; font-size: 12px; font-weight: 200;" fill="rgb(255, 255, 255)" stroke="none" stroke-width="1px">18k</text><text x="255.234375" y="0" dx="0em" dy="0.95em" style="text-anchor: middle; visibility: inherit; font-family: Roboto, sans-serif; font-size: 12px; font-weight: 200;" fill="rgb(255, 255, 255)" stroke="none" stroke-width="1px">20k</text><text x="278.4375" y="0" dx="0em" dy="0.95em" style="text-anchor: middle; visibility: hidden; font-family: Roboto, sans-serif; font-size: 12px; font-weight: 200;" fill="rgb(255, 255, 255)" stroke="none" stroke-width="1px">22k</text></g><line x1="0" y1="0" x2="278.4375" y2="0" fill="rgb(0, 0, 0)" stroke="rgb(204, 204, 204)" stroke-width="1px"></line></g></g></g></g></svg>