<svg viewBox="0 0 330 200" xmlns="http://www.w3.org/2000/svg"><g><g><g><g><g><line x1="51.5625" y1="177" x2="46.5625" y2="177" style="visibility: inherit;" fill="rgb(0, 0, 0)" stroke="rgb(204, 204, 204)" stroke-width="1px"></line><line x1="51.5625" y1="162.25" x2="46.5625" y2="162.25" style="visibility: inherit;" fill="rgb(0, 0, 0)" stroke="rgb(204, 204, 204)" stroke-width="1px"></line><line x1="51.5625" y1="147.5" x2="46.5625" y2="147.5" style="visibility: inherit;" fill="rgb(0, 0, 0)" stroke="rgb(204, 204, 204)" stroke-width="1px"></line><line x1="51.5625" y1="132.75000000000003" x2="46.5625" y2="132.75000000000003" style="visibility: inherit;" fill="rgb(0, 0, 0)" stroke="rgb(204, 204, 204)" stroke-width="1px"></line><line x1="51.5625" y1="118.00000000000001" x2="46.5625" y2="118.00000000000001" style="visibility: inherit;" fill="rgb(0, 0, 0)" stroke="rgb(204, 204, 204)" stroke-width="1px"></line><line x1="51.5625" y1="103.25" x2="46.5625" y2="103.25" style="visibility: inherit;" fill="rgb(0, 0, 0)" stroke="rgb(204, 204, 204)" stroke-width="1px"></line><line x1="51.5625" y1="88.50000000000001" x2="46.5625" y2="88.50000000000001" style="visibility: inherit;" fill="rgb(0, 0, 0)" stroke="rgb(204, 204, 204)" stroke-width="1px"></line><line x1="51.5625" y1="73.75000000000001" x2="46.5625" y2="73.75000000000001" style="visibility: inherit;" fill="rgb(0, 0, 0)" stroke="rgb(204, 204, 204)" stroke-width="1px"></line><line x1="51.5625" y1="59.00000000000003" x2="46.5625" y2="59.00000000000003" style="visibility: inherit;" fill="rgb(0, 0, 0)" stroke="rgb(204, 204, 204)" stroke-width="1px"></line><line x1="51.5625" y1="44.25000000000002" x2="46.5625" y2="44.25000000000002" style="visibility: inherit;" fill="rgb(0, 0, 0)" stroke="rgb(204, 204, 204)" stroke-width="1px"></line><line x1="51.5625" y1="29.500000000000032" x2="46.5625" y2="29.500000000000032" style="visibility: inherit;" fill="rgb(0, 0, 0)" stroke="rgb(204, 204, 204)" stroke-width="1px"></line><line x1="51.5625" y1="14.750000000000007" x2="46.5625" y2="14.750000000000007" style="visibility: inherit;" fill="rgb(0, 0, 0)" stroke="rgb(204, 204, 204)" stroke-width="1px"></line><line x1="51.5625" y1="0" x2="46.5625" y2="0" style="visibility: inherit;" fill="rgb(0, 0, 0)" stroke="rgb(204, 204, 204)" stroke-width="1px"></line></g><g transform="translate(41.5625, 0)"><text x="0" y="177" dx="0em" dy="0.3em" style="text-anchor: end; visibility: hidden; font-family: Roboto, sans-serif; font-size: 12px; font-weight: 200;" fill="rgb(255, 255, 255)" stroke="none" stroke-width="1px">0.2</text><text x="0" y="162.25" dx="0em" dy="0.3em" style="text-anchor: end; visibility: inherit; font-family: Roboto, sans-serif; font-size: 12px; font-weight: 200;" fill="rgb(255, 255, 255)" stroke="none" stroke-width="1px">0.25</text><text x="0" y="147.5" dx="0em" dy="0.3em" style="text-anchor: end; visibility: hidden; font-family: Roboto, sans-serif; font-size: 12px; font-weight: 200;" fill="rgb(255, 255, 255)" stroke="none" stroke-width="1px">0.3</text><text x="0" y="132.75000000000003" dx="0em" dy="0.3em" style="text-anchor: end; visibility: inherit; font-family: Roboto, sans-serif; font-size: 12px; font-weight: 200;" fill="rgb(255, 255, 255)" stroke="none" stroke-width="1px">0.35</text><text x="0" y="118.00000000000001" dx="0em" dy="0.3em" style="text-anchor: end; visibility: hidden; font-family: Roboto, sans-serif; font-size: 12px; font-weight: 200;" fill="rgb(255, 255, 255)" stroke="none" stroke-width="1px">0.4</text><text x="0" y="103.25" dx="0em" dy="0.3em" style="text-anchor: end; visibility: inherit; font-family: Roboto, sans-serif; font-size: 12px; font-weight: 200;" fill="rgb(255, 255, 255)" stroke="none" stroke-width="1px">0.45</text><text x="0" y="88.50000000000001" dx="0em" dy="0.3em" style="text-anchor: end; visibility: hidden; font-family: Roboto, sans-serif; font-size: 12px; font-weight: 200;" fill="rgb(255, 255, 255)" stroke="none" stroke-width="1px">0.5</text><text x="0" y="73.75000000000001" dx="0em" dy="0.3em" style="text-anchor: end; visibility: inherit; font-family: Roboto, sans-serif; font-size: 12px; font-weight: 200;" fill="rgb(255, 255, 255)" stroke="none" stroke-width="1px">0.55</text><text x="0" y="59.00000000000003" dx="0em" dy="0.3em" style="text-anchor: end; visibility: hidden; font-family: Roboto, sans-serif; font-size: 12px; font-weight: 200;" fill="rgb(255, 255, 255)" stroke="none" stroke-width="1px">0.6</text><text x="0" y="44.25000000000002" dx="0em" dy="0.3em" style="text-anchor: end; visibility: inherit; font-family: Roboto, sans-serif; font-size: 12px; font-weight: 200;" fill="rgb(255, 255, 255)" stroke="none" stroke-width="1px">0.65</text><text x="0" y="29.500000000000032" dx="0em" dy="0.3em" style="text-anchor: end; visibility: hidden; font-family: Roboto, sans-serif; font-size: 12px; font-weight: 200;" fill="rgb(255, 255, 255)" stroke="none" stroke-width="1px">0.7</text><text x="0" y="14.750000000000007" dx="0em" dy="0.3em" style="text-anchor: end; visibility: inherit; font-family: Roboto, sans-serif; font-size: 12px; font-weight: 200;" fill="rgb(255, 255, 255)" stroke="none" stroke-width="1px">0.75</text><text x="0" y="0" dx="0em" dy="0.3em" style="text-anchor: end; visibility: hidden; font-family: Roboto, sans-serif; font-size: 12px; font-weight: 200;" fill="rgb(255, 255, 255)" stroke="none" stroke-width="1px">0.8</text></g><line x1="51.5625" y1="0" x2="51.5625" y2="177" fill="rgb(0, 0, 0)" stroke="rgb(204, 204, 204)" stroke-width="1px"></line></g></g><g transform="translate(51, 0)" clip-path="url(#clip_0)"><clipPath id="clip_0"><rect width="278" height="177"></rect></clipPath><g><g><g><line x1="0" y1="0" x2="0" y2="177" fill="rgb(0, 0, 0)" stroke="rgb(189, 189, 189)" stroke-width="1px" opacity="0.25"></line><line x1="23.203125" y1="0" x2="23.203125" y2="177" fill="rgb(0, 0, 0)" stroke="rgb(189, 189, 189)" stroke-width="1px" opacity="0.25"></line><line x1="46.40625" y1="0" x2="46.40625" y2="177" fill="rgb(0, 0, 0)" stroke="rgb(189, 189, 189)" stroke-width="1px" opacity="0.25"></line><line x1="69.609375" y1="0" x2="69.609375" y2="177" fill="rgb(0, 0, 0)" stroke="rgb(189, 189, 189)" stroke-width="1px" opacity="0.25"></line><line x1="92.8125" y1="0" x2="92.8125" y2="177" fill="rgb(0, 0, 0)" stroke="rgb(189, 189, 189)" stroke-width="1px" opacity="0.25"></line><line x1="116.015625" y1="0" x2="116.015625" y2="177" fill="rgb(0, 0, 0)" stroke="rgb(189, 189, 189)" stroke-width="1px" opacity="0.25"></line><line x1="139.21875" y1="0" x2="139.21875" y2="177" fill="rgb(0, 0, 0)" stroke="rgb(189, 189, 189)" stroke-width="1px" opacity="0.25"></line><line x1="162.421875" y1="0" x2="162.421875" y2="177" fill="rgb(0, 0, 0)" stroke="rgb(189, 189, 189)" stroke-width="1px" opacity="0.25"></line><line x1="185.625" y1="0" x2="185.625" y2="177" fill="rgb(0, 0, 0)" stroke="rgb(189, 189, 189)" stroke-width="1px" opacity="0.25"></line><line x1="208.828125" y1="0" x2="208.828125" y2="177" fill="rgb(0, 0, 0)" stroke="rgb(189, 189, 189)" stroke-width="1px" opacity="0.25"></line><line x1="232.03125" y1="0" x2="232.03125" y2="177" fill="rgb(0, 0, 0)" stroke="rgb(189, 189, 189)" stroke-width="1px" opacity="0.25"></line><line x1="255.234375" y1="0" x2="255.234375" y2="177" fill="rgb(0, 0, 0)" stroke="rgb(189, 189, 189)" stroke-width="1px" opacity="0.25"></line><line x1="278.4375" y1="0" x2="278.4375" y2="177" fill="rgb(0, 0, 0)" stroke="rgb(189, 189, 189)" stroke-width="1px" opacity="0.25"></line></g><g><line x1="0" y1="177" x2="278.4375" y2="177" fill="rgb(0, 0, 0)" stroke="rgb(189, 189, 189)" stroke-width="1px" opacity="0.25"></line><line x1="0" y1="162.25" x2="278.4375" y2="162.25" fill="rgb(0, 0, 0)" stroke="rgb(189, 189, 189)" stroke-width="1px" opacity="0.25"></line><line x1="0" y1="147.5" x2="278.4375" y2="147.5" fill="rgb(0, 0, 0)" stroke="rgb(189, 189, 189)" stroke-width="1px" opacity="0.25"></line><line x1="0" y1="132.75000000000003" x2="278.4375" y2="132.75000000000003" fill="rgb(0, 0, 0)" stroke="rgb(189, 189, 189)" stroke-width="1px" opacity="0.25"></line><line x1="0" y1="118.00000000000001" x2="278.4375" y2="118.00000000000001" fill="rgb(0, 0, 0)" stroke="rgb(189, 189, 189)" stroke-width="1px" opacity="0.25"></line><line x1="0" y1="103.25" x2="278.4375" y2="103.25" fill="rgb(0, 0, 0)" stroke="rgb(189, 189, 189)" stroke-width="1px" opacity="0.25"></line><line x1="0" y1="88.50000000000001" x2="278.4375" y2="88.50000000000001" fill="rgb(0, 0, 0)" stroke="rgb(189, 189, 189)" stroke-width="1px" opacity="0.25"></line><line x1="0" y1="73.75000000000001" x2="278.4375" y2="73.75000000000001" fill="rgb(0, 0, 0)" stroke="rgb(189, 189, 189)" stroke-width="1px" opacity="0.25"></line><line x1="0" y1="59.00000000000003" x2="278.4375" y2="59.00000000000003" fill="rgb(0, 0, 0)" stroke="rgb(189, 189, 189)" stroke-width="1px" opacity="0.25"></line><line x1="0" y1="44.25000000000002" x2="278.4375" y2="44.25000000000002" fill="rgb(0, 0, 0)" stroke="rgb(189, 189, 189)" stroke-width="1px" opacity="0.25"></line><line x1="0" y1="29.500000000000032" x2="278.4375" y2="29.500000000000032" fill="rgb(0, 0, 0)" stroke="rgb(189, 189, 189)" stroke-width="1px" opacity="0.25"></line><line x1="0" y1="14.750000000000007" x2="278.4375" y2="14.750000000000007" fill="rgb(0, 0, 0)" stroke="rgb(189, 189, 189)" stroke-width="1px" opacity="0.25"></line><line x1="0" y1="0" x2="278.4375" y2="0" fill="rgb(0, 0, 0)" stroke="rgb(189, 189, 189)" stroke-width="1px" opacity="0.25"></line></g></g></g><g><g><line x1="0" y1="236" x2="278.4375" y2="236" fill="rgb(0, 0, 0)" stroke="rgb(153, 153, 153)" stroke-width="1.5px"></line></g></g><g><g><line x1="23.203125" y1="0" x2="23.203125" y2="177" fill="rgb(0, 0, 0)" stroke="rgb(153, 153, 153)" stroke-width="1.5px"></line></g></g><g><g><g><g><g><path stroke="rgb(255, 112, 67)" stroke-width="2px" d="M25.523437499999996,-11.749892845749763L26.683593750000004,17.043519548007517L27.84375,23.914764011169225L29.00390625,40.98004624737714L30.1640625,37.719579531518065L31.32421875,43.63470167509358L32.484375,55.49718947179674L33.64453125,76.6851165732003L34.8046875,97.68227341265124L35.96484375000001,97.4104929040709L37.125,103.1973465309055L38.28515625,122.11390155091797L39.4453125,126.37843199500686L40.60546875,108.15612235163474L41.765625,81.12051044090046L42.92578125,90.1368070541489L44.0859375,94.48159368941998L45.24609375,85.92497824877475L46.40625,69.77829944648772L47.56640625,97.69902876185441L48.7265625,108.83247006262279L49.88671875,90.63502515355736L51.04687499999999,95.48024440286477L52.20703125,107.83197540056673L53.36718750000001,122.22874279143448L54.52734375,110.30321897001443L55.6875,83.74450736428935L56.84765625,99.78863518823057L58.0078125,87.44049028990013L59.16796875,107.53726069731394L60.328125,88.40554984300309L61.48828125,104.58499816363944L62.6484375,109.19014831448946L63.80859375,123.48806652606903L64.96875,103.19519389906588L66.12890625,103.94446792612686L67.2890625,111.59207684501675L68.44921875,118.24137800449168L69.609375,127.11137431563915L70.76953125,134.21236957703533L71.92968750000001,120.76756792371876L73.08984375,133.38906581233036L74.25,116.6375592264128L75.41015625,116.51287569477408L76.5703125,131.9217492820947L77.73046875,121.92069268678723L78.890625,111.26304686316821L80.05078125,123.30664863751049L81.2109375,119.37413570022811L82.37109375,121.39527142487691L83.53125,116.96396532321312L84.69140624999999,128.84639672438988L85.8515625,140.4377377391024L87.01171875,141.83830384970776L88.171875,144.32499205208558L89.33203125000001,138.9141782470735L90.4921875,130.59400497366028L91.65234375,128.99761201434742L92.8125,132.2830971210804L93.97265625,133.2052131014828L95.1328125,121.22060077892307L96.29296875,103.7367289156111L97.453125,120.4257385307785L98.61328125,129.8456774219416L99.7734375,98.02310409930594L100.93359375,115.64275089971575L102.09374999999999,126.87214647574636L103.25390625,136.44807385708935L104.4140625,141.58448607507972L105.57421875,147.92231288423318L106.73437500000001,153.3003558568369L107.89453125,133.14842756105725L109.0546875,141.4671007365779L110.21484375,146.95751058881257L111.375,145.85408176079258L112.53515625,146.44788151439946L113.6953125,114.47892874155595L114.85546875,131.33606692358347L116.015625,142.03685721280868L117.17578125,153.91470309807477L118.3359375,132.413802508793L119.49609374999999,120.27820557611093L120.65625,130.05347963724677L121.81640625,143.3643731805929L122.9765625,143.87971244652562L124.13671875000001,142.70432744264303L125.296875,142.64432524347123L126.45703125,149.74965148391615L127.6171875,151.47672740949568L128.77734375,139.26470883091318L129.9375,141.30340642571468L131.09765625,134.51837748789796L132.2578125,141.57150742115982L133.41796875,142.43977106036192L134.578125,133.71775990975766L135.73828125,155.5474647000603L136.8984375,148.4279724666579L138.05859375,126.69761169607065L139.21875,147.26654698046818L140.37890625,147.0328901624249L141.5390625,147.7613567599992L142.69921875,156.88623751338363L143.85937500000003,147.42263531169914L145.01953125,147.22700047184006L146.1796875,145.61904210858927L147.33984375,145.9780803502404L148.5,144.9764773595812L149.66015625,154.70040725162517L150.8203125,156.59043193156057L151.98046874999997,156.9105090158852L153.140625,151.22388952122162L154.30078125,144.74900023428222L155.4609375,165.40314734153523L156.62109375,177.63747670753344L157.78125,151.3307691961738L158.94140625,151.76683752240018L160.1015625,156.6128517240362L161.26171875000003,158.8090388447092L162.421875,143.95622932136334L163.58203125,148.2269756032245L164.7421875,151.17177375753025L165.90234375,155.7437945163208L167.0625,158.8559957537626L168.22265625,157.63367394170612L169.38281249999997,162.1767583701697L170.54296875,163.55401024900002L171.703125,163.3504119496472L172.86328125,159.88072391634748L174.0234375,172.0065327005718L175.18359375,162.40152716142737L176.34375,162.77817075552227L177.50390625,172.00838979543258L178.66406250000003,163.80024504936344L179.82421875,159.17632571623687L180.984375,151.48453495362975L182.14453125,150.12612572586286L183.3046875,146.63062903449386L184.46484375,158.74949638346106L185.625,156.24432932316822L186.78515624999997,142.10568913805224L187.9453125,142.77149828069057L189.10546875,139.80662742729572L190.265625,151.4240983931755L191.42578125,149.5498609071097L192.5859375,154.92439579517372L193.74609375,170.7397663328095L194.90625,176.8880111654427L196.06640625000003,165.5041590380565L197.2265625,163.25191732930514L198.38671875,160.2295507829629L199.546875,151.07352997310417L200.70703125,154.51317685513172L201.8671875,147.8215649227409L203.02734375,152.33309399486237L204.18749999999997,149.9633865082303L205.34765625,143.81959014678236L206.5078125,142.23970864739562L207.66796875,147.576976528922L208.828125,165.62826657364326L209.98828125,164.17704068463777L211.1484375,155.82070223594744L212.30859375,167.67990297737742L213.46875000000003,158.05443555511846L214.62890625,167.35851272581704L215.7890625,176.097673348419L216.94921875,177.27612311353212L218.109375,163.95248996442513L219.26953125,162.52384204403137L220.4296875,165.64491893491493L221.58984374999997,155.73806094909517L222.75,167.21423060765747L223.91015625,167.43010467333127L225.0703125,164.8140544297846L226.23046875,164.21574020400953L227.390625,172.1158382476289L228.55078125,151.70935842877142L229.7109375,155.52872674158522L230.87109375000003,153.64794409567895L232.03125,155.79108208593598L233.19140625,156.08279057846588L234.3515625,162.21414364878012L235.51171875,159.61224950256153L236.671875,167.211540734185L237.83203125,163.97599776709868L238.99218749999997,164.48383852317806L240.15234375,161.3303934244804L241.3125,174.59961897781446L242.47265625,165.02072620779848L243.6328125,158.2250981473361L244.79296875,162.89712016841378L245.953125,163.60768901741866L247.11328125,135.1664795365117L248.27343750000003,141.1966314486374L249.43359375,151.477529285652L250.59375,148.64278108972465L251.75390625,160.54702794610353L252.9140625,168.9031292799645L254.07421875,164.7926175119599L255.234375,157.100828225739" style="fill: none;" fill="none"></path></g><g><path stroke="rgb(0, 119, 187)" stroke-width="2px" d="M23.203125,15.569244384765637L34.8046875,-1701.5892817974088L127.6171875,-36.325981651514226L139.21875,27.45638244634174L150.8203125,60.7989113610322L162.421875,60.73706413937337L174.0234375,84.96673412985479L185.625,70.78579952552349L197.2265625,68.42135479563392L208.828125,31.20234919145085L220.4296875,33.05510953434875L232.03125,26.826575772915962L243.6328125,52.68476710471222L255.234375,77.19369901812571" style="fill: none;" fill="none"></path></g></g></g></g><g opacity="0.2"><g><g><g><path stroke="rgb(255, 112, 67)" stroke-width="2px" d="M24.36328125,-53.41415011882778L25.523437499999996,13.248661518096936L26.683593750000004,44.68519544601442L27.84375,31.995347499847433L29.00390625,63.26047873497012L30.1640625,33.2091802954674L31.32421875,52.093420982360854L32.484375,72.79281055927278L33.64453125,107.93319350481033L34.8046875,128.8606042265892L35.96484375000001,97.00528717041017L37.125,111.84613516926767L38.28515625,150.42696824669838L39.4453125,132.7668730020523L40.60546875,80.84407752752305L41.765625,40.58616018295291L42.92578125,103.6574365794659L44.0859375,100.9976705014706L45.24609375,73.091358602047L46.40625,45.559757113456754L47.56640625,139.57859149575233L48.7265625,125.53226566314697L49.88671875,63.339217066764846L51.04687499999999,102.74801588058472L52.20703125,126.35948410630228L53.36718750000001,143.82383248209953L54.52734375,92.41496375203135L55.6875,43.90648072957995L56.84765625,123.85481214523315L58.0078125,68.91827976703645L59.16796875,137.6824096441269L60.328125,59.70798736810686L61.48828125,128.8541687130928L62.6484375,116.097873210907L63.80859375,144.93494322896004L64.96875,72.75588548183443L66.12890625,105.06837895512582L67.2890625,123.06349015235901L68.44921875,128.21532970666885L69.609375,140.41636875271797L70.76953125,144.8638624548912L71.92968750000001,100.60036545991899L73.08984375,152.321312636137L74.25,91.51029935479167L75.41015625,116.32585039734843L76.5703125,155.03505966067314L77.73046875,106.91910779476169L78.890625,95.27657812833789L80.05078125,141.37205129861832L81.2109375,113.47536629438403L82.37109375,124.42697501182556L83.53125,110.31700617074969L84.69140624999999,146.6700438261032L85.8515625,157.82474926114082L87.01171875,143.93915301561356L88.171875,148.05502435564995L89.33203125000001,130.7979575395584L90.4921875,118.11374506354333L91.65234375,126.60302257537842L92.8125,137.21132478117943L93.97265625,134.58838707208633L95.1328125,103.243682295084L96.29296875,77.51092112064364L97.453125,145.45925295352936L98.61328125,143.97558575868607L99.7734375,50.28924411535265L100.93359375,142.07222110033035L102.09374999999999,143.71623983979225L103.25390625,150.81196492910385L104.4140625,149.28910440206528L105.57421875,157.42905309796333L106.73437500000001,161.3674203157425L107.89453125,102.92053511738777L109.0546875,153.94511049985886L110.21484375,155.1931253671646L111.375,144.1989385187626L112.53515625,147.33858114480972L113.6953125,66.52549958229068L114.85546875,156.62177419662476L116.015625,158.0880426466465L117.17578125,171.7314719259739L118.3359375,100.16245162487033L119.49609374999999,102.0748101770878L120.65625,144.7163907289505L121.81640625,163.33071349561214L122.9765625,144.65272134542465L124.13671875000001,140.94124993681908L125.296875,142.5543219447136L126.45703125,160.4076408445835L127.6171875,154.0673412978649L128.77734375,120.94668096303943L129.9375,144.36145281791687L131.09765625,124.34083408117294L132.2578125,152.15120232105255L133.41796875,143.74216651916504L134.578125,120.63474318385127L135.73828125,188.29202188551426L136.8984375,137.74873411655426L138.05859375,94.10207054018977L139.21875,178.11994990706444L140.37890625,146.68240493535995L141.5390625,148.85405665636063L142.69921875,170.57355864346027L143.85937500000003,133.22723200917244L145.01953125,146.9335482120514L146.1796875,143.20710456371307L147.33984375,146.51663771271706L148.5,143.47407287359238L149.66015625,169.28630208969116L150.8203125,159.4254689514637L151.98046874999997,157.39062464237213L153.140625,142.6939602792263L154.30078125,135.03666630387306L155.4609375,196.3843680024147L156.62109375,195.98897075653076L157.78125,111.8707079291344L158.94140625,152.42094001173973L160.1015625,163.8818730264902L161.26171875000003,162.1033195257187L162.421875,121.67701503634454L163.58203125,154.63309502601624L164.7421875,155.58897098898888L165.90234375,162.60182565450668L167.0625,163.52429760992527L168.22265625,155.80019122362137L169.38281249999997,168.99138501286507L170.54296875,165.61988806724548L171.703125,163.04501450061798L172.86328125,154.67619186639786L174.0234375,190.1952458769083L175.18359375,147.99401885271072L176.34375,163.34313614666462L177.50390625,185.85371835529804L178.66406250000003,151.4880279302597L179.82421875,152.240446716547L180.984375,139.94684880971909L182.14453125,148.0885118842125L183.3046875,141.38738399744034L184.46484375,176.92779740691185L185.625,152.48657873272896L186.78515624999997,120.8977288603783L187.9453125,143.77021199464798L189.10546875,135.35932114720345L190.265625,168.85030484199524L191.42578125,146.73850467801094L192.5859375,162.98619812726974L193.74609375,194.46282213926315L194.90625,186.11037841439247L196.06640625000003,148.42838084697723L197.2265625,159.87355476617813L198.38671875,155.69600096344948L199.546875,137.33949875831604L200.70703125,159.67264717817307L201.8671875,137.78414702415466L203.02734375,159.1003876030445L204.18749999999997,146.40882527828217L205.34765625,134.60389560461044L206.5078125,139.86988639831543L207.66796875,155.58287835121155L208.828125,192.70520164072514L209.98828125,162.00020185112953L211.1484375,143.286194562912L212.30859375,185.46870408952236L213.46875000000003,143.61623442173004L214.62890625,181.31462848186493L216.94921875,179.04379776120186L218.109375,143.96704024076462L219.26953125,160.3808701634407L220.4296875,170.32653427124023L221.58984374999997,140.87777397036552L222.75,184.42848509550095L223.91015625,167.753915771842L225.0703125,160.88997906446457L226.23046875,163.3182688653469L227.390625,183.9659853130579L228.55078125,121.09963870048524L229.7109375,161.2577792108059L230.87109375000003,150.8267701268196L232.03125,159.0057890713215L233.19140625,156.52035331726074L234.3515625,171.41117325425148L235.51171875,155.70940828323364L236.671875,178.61047758162022L237.83203125,159.1226833164692L238.99218749999997,165.24559965729713L240.15234375,156.60022577643394L241.3125,194.50345730781555L242.47265625,150.65238705277443L243.6328125,148.03165605664253L244.79296875,169.90515320003033L245.953125,164.67354229092598L247.11328125,92.50466531515124L248.27343750000003,150.24185931682587L249.43359375,166.89887604117393L250.59375,144.3906587958336L251.75390625,178.40339823067188L252.9140625,181.437281280756L254.07421875,158.62684985995293L255.234375,145.5631442964077" style="fill: none;" fill="none"></path></g><g><path stroke="rgb(0, 119, 187)" stroke-width="2px" d="M23.203125,15.569244384765637L34.8046875,-2731.884397506714L46.40625,-833.4540548324583L58.0078125,75.54756200313571L69.609375,-55.569589972496004L81.2109375,-14.972612500190735L92.8125,42.72204732894901L104.4140625,-174.5064952373504L116.015625,16.885851979255683L127.6171875,24.993473649024978L139.21875,122.55142724514009L150.8203125,110.63125616312027L162.421875,60.644495248794584L174.0234375,121.26377066969873L185.625,49.53106677532198L197.2265625,64.87635529041292L208.828125,-24.610409379005418L220.4296875,35.83377963304523L232.03125,17.484723985195167L243.6328125,91.46969056129457L255.234375,113.95575276017189" style="fill: none;" fill="none"></path></g></g></g></g></g></g><g transform="translate(51, 177)" clip-path="url(#clip_1)"><clipPath id="clip_1"><rect width="278" height="23"></rect></clipPath><g><g><line x1="0" y1="0" x2="0" y2="5" style="visibility: inherit;" fill="rgb(0, 0, 0)" stroke="rgb(204, 204, 204)" stroke-width="1px"></line><line x1="23.203125" y1="0" x2="23.203125" y2="5" style="visibility: inherit;" fill="rgb(0, 0, 0)" stroke="rgb(204, 204, 204)" stroke-width="1px"></line><line x1="46.40625" y1="0" x2="46.40625" y2="5" style="visibility: inherit;" fill="rgb(0, 0, 0)" stroke="rgb(204, 204, 204)" stroke-width="1px"></line><line x1="69.609375" y1="0" x2="69.609375" y2="5" style="visibility: inherit;" fill="rgb(0, 0, 0)" stroke="rgb(204, 204, 204)" stroke-width="1px"></line><line x1="92.8125" y1="0" x2="92.8125" y2="5" style="visibility: inherit;" fill="rgb(0, 0, 0)" stroke="rgb(204, 204, 204)" stroke-width="1px"></line><line x1="116.015625" y1="0" x2="116.015625" y2="5" style="visibility: inherit;" fill="rgb(0, 0, 0)" stroke="rgb(204, 204, 204)" stroke-width="1px"></line><line x1="139.21875" y1="0" x2="139.21875" y2="5" style="visibility: inherit;" fill="rgb(0, 0, 0)" stroke="rgb(204, 204, 204)" stroke-width="1px"></line><line x1="162.421875" y1="0" x2="162.421875" y2="5" style="visibility: inherit;" fill="rgb(0, 0, 0)" stroke="rgb(204, 204, 204)" stroke-width="1px"></line><line x1="185.625" y1="0" x2="185.625" y2="5" style="visibility: inherit;" fill="rgb(0, 0, 0)" stroke="rgb(204, 204, 204)" stroke-width="1px"></line><line x1="208.828125" y1="0" x2="208.828125" y2="5" style="visibility: inherit;" fill="rgb(0, 0, 0)" stroke="rgb(204, 204, 204)" stroke-width="1px"></line><line x1="232.03125" y1="0" x2="232.03125" y2="5" style="visibility: inherit;" fill="rgb(0, 0, 0)" stroke="rgb(204, 204, 204)" stroke-width="1px"></line><line x1="255.234375" y1="0" x2="255.234375" y2="5" style="visibility: inherit;" fill="rgb(0, 0, 0)" stroke="rgb(204, 204, 204)" stroke-width="1px"></line><line x1="278.4375" y1="0" x2="278.4375" y2="5" style="visibility: inherit;" fill="rgb(0, 0, 0)" stroke="rgb(204, 204, 204)" stroke-width="1px"></line></g><g transform="translate(0, 8)"><text x="0" y="0" dx="0em" dy="0.95em" style="text-anchor: middle; visibility: hidden; font-family: Roboto, sans-serif; font-size: 12px; font-weight: 200;" fill="rgb(255, 255, 255)" stroke="none" stroke-width="1px">-2k</text><text x="23.203125" y="0" dx="0em" dy="0.95em" style="text-anchor: middle; visibility: inherit; font-family: Roboto, sans-serif; font-size: 12px; font-weight: 200;" fill="rgb(255, 255, 255)" stroke="none" stroke-width="1px">0</text><text x="46.40625" y="0" dx="0em" dy="0.95em" style="text-anchor: middle; visibility: hidden; font-family: Roboto, sans-serif; font-size: 12px; font-weight: 200;" fill="rgb(255, 255, 255)" stroke="none" stroke-width="1px">2k</text><text x="69.609375" y="0" dx="0em" dy="0.95em" style="text-anchor: middle; visibility: inherit; font-family: Roboto, sans-serif; font-size: 12px; font-weight: 200;" fill="rgb(255, 255, 255)" stroke="none" stroke-width="1px">4k</text><text x="92.8125" y="0" dx="0em" dy="0.95em" style="text-anchor: middle; visibility: hidden; font-family: Roboto, sans-serif; font-size: 12px; font-weight: 200;" fill="rgb(255, 255, 255)" stroke="none" stroke-width="1px">6k</text><text x="116.015625" y="0" dx="0em" dy="0.95em" style="text-anchor: middle; visibility: inherit; font-family: Roboto, sans-serif; font-size: 12px; font-weight: 200;" fill="rgb(255, 255, 255)" stroke="none" stroke-width="1px">8k</text><text x="139.21875" y="0" dx="0em" dy="0.95em" style="text-anchor: middle; visibility: hidden; font-family: Roboto, sans-serif; font-size: 12px; font-weight: 200;" fill="rgb(255, 255, 255)" stroke="none" stroke-width="1px">10k</text><text x="162.421875" y="0" dx="0em" dy="0.95em" style="text-anchor: middle; visibility: inherit; font-family: Roboto, sans-serif; font-size: 12px; font-weight: 200;" fill="rgb(255, 255, 255)" stroke="none" stroke-width="1px">12k</text><text x="185.625" y="0" dx="0em" dy="0.95em" style="text-anchor: middle; visibility: hidden; font-family: Roboto, sans-serif; font-size: 12px; font-weight: 200;" fill="rgb(255, 255, 255)" stroke="none" stroke-width="1px">14k</text><text x="208.828125" y="0" dx="0em" dy="0.95em" style="text-anchor: middle; visibility: inherit; font-family: Roboto, sans-serif; font-size: 12px; font-weight: 200;" fill="rgb(255, 255, 255)" stroke="none" stroke-width="1px">16k</text><text x="232.03125" y="0" dx="0em" dy="0.95em" style="text-anchor: middle; visibility: hidden; font-family: Roboto, sans-serif; font-size: 12px; font-weight: 200;" fill="rgb(255, 255, 255)" stroke="none" stroke-width="1px">18k</text><text x="255.234375" y="0" dx="0em" dy="0.95em" style="text-anchor: middle; visibility: inherit; font-family: Roboto, sans-serif; font-size: 12px; font-weight: 200;" fill="rgb(255, 255, 255)" stroke="none" stroke-width="1px">20k</text><text x="278.4375" y="0" dx="0em" dy="0.95em" style="text-anchor: middle; visibility: hidden; font-family: Roboto, sans-serif; font-size: 12px; font-weight: 200;" fill="rgb(255, 255, 255)" stroke="none" stroke-width="1px">22k</text></g><line x1="0" y1="0" x2="278.4375" y2="0" fill="rgb(0, 0, 0)" stroke="rgb(204, 204, 204)" stroke-width="1px"></line></g></g></g></g></svg>