<svg viewBox="0 0 330 200" xmlns="http://www.w3.org/2000/svg"><g><g><g><g><g><line x1="51.5625" y1="177" x2="46.5625" y2="177" style="visibility: inherit;" fill="rgb(0, 0, 0)" stroke="rgb(204, 204, 204)" stroke-width="1px"></line><line x1="51.5625" y1="160.9090909090909" x2="46.5625" y2="160.9090909090909" style="visibility: inherit;" fill="rgb(0, 0, 0)" stroke="rgb(204, 204, 204)" stroke-width="1px"></line><line x1="51.5625" y1="144.8181818181818" x2="46.5625" y2="144.8181818181818" style="visibility: inherit;" fill="rgb(0, 0, 0)" stroke="rgb(204, 204, 204)" stroke-width="1px"></line><line x1="51.5625" y1="128.72727272727272" x2="46.5625" y2="128.72727272727272" style="visibility: inherit;" fill="rgb(0, 0, 0)" stroke="rgb(204, 204, 204)" stroke-width="1px"></line><line x1="51.5625" y1="112.63636363636364" x2="46.5625" y2="112.63636363636364" style="visibility: inherit;" fill="rgb(0, 0, 0)" stroke="rgb(204, 204, 204)" stroke-width="1px"></line><line x1="51.5625" y1="96.54545454545453" x2="46.5625" y2="96.54545454545453" style="visibility: inherit;" fill="rgb(0, 0, 0)" stroke="rgb(204, 204, 204)" stroke-width="1px"></line><line x1="51.5625" y1="80.45454545454542" x2="46.5625" y2="80.45454545454542" style="visibility: inherit;" fill="rgb(0, 0, 0)" stroke="rgb(204, 204, 204)" stroke-width="1px"></line><line x1="51.5625" y1="64.36363636363636" x2="46.5625" y2="64.36363636363636" style="visibility: inherit;" fill="rgb(0, 0, 0)" stroke="rgb(204, 204, 204)" stroke-width="1px"></line><line x1="51.5625" y1="48.27272727272725" x2="46.5625" y2="48.27272727272725" style="visibility: inherit;" fill="rgb(0, 0, 0)" stroke="rgb(204, 204, 204)" stroke-width="1px"></line><line x1="51.5625" y1="32.18181818181817" x2="46.5625" y2="32.18181818181817" style="visibility: inherit;" fill="rgb(0, 0, 0)" stroke="rgb(204, 204, 204)" stroke-width="1px"></line><line x1="51.5625" y1="16.090909090909076" x2="46.5625" y2="16.090909090909076" style="visibility: inherit;" fill="rgb(0, 0, 0)" stroke="rgb(204, 204, 204)" stroke-width="1px"></line><line x1="51.5625" y1="0" x2="46.5625" y2="0" style="visibility: inherit;" fill="rgb(0, 0, 0)" stroke="rgb(204, 204, 204)" stroke-width="1px"></line></g><g transform="translate(41.5625, 0)"><text x="0" y="177" dx="0em" dy="0.3em" style="text-anchor: end; visibility: hidden; font-family: Roboto, sans-serif; font-size: 12px; font-weight: 200;" fill="rgb(255, 255, 255)" stroke="none" stroke-width="1px">0.15</text><text x="0" y="160.9090909090909" dx="0em" dy="0.3em" style="text-anchor: end; visibility: inherit; font-family: Roboto, sans-serif; font-size: 12px; font-weight: 200;" fill="rgb(255, 255, 255)" stroke="none" stroke-width="1px">0.2</text><text x="0" y="144.8181818181818" dx="0em" dy="0.3em" style="text-anchor: end; visibility: hidden; font-family: Roboto, sans-serif; font-size: 12px; font-weight: 200;" fill="rgb(255, 255, 255)" stroke="none" stroke-width="1px">0.25</text><text x="0" y="128.72727272727272" dx="0em" dy="0.3em" style="text-anchor: end; visibility: inherit; font-family: Roboto, sans-serif; font-size: 12px; font-weight: 200;" fill="rgb(255, 255, 255)" stroke="none" stroke-width="1px">0.3</text><text x="0" y="112.63636363636364" dx="0em" dy="0.3em" style="text-anchor: end; visibility: hidden; font-family: Roboto, sans-serif; font-size: 12px; font-weight: 200;" fill="rgb(255, 255, 255)" stroke="none" stroke-width="1px">0.35</text><text x="0" y="96.54545454545453" dx="0em" dy="0.3em" style="text-anchor: end; visibility: inherit; font-family: Roboto, sans-serif; font-size: 12px; font-weight: 200;" fill="rgb(255, 255, 255)" stroke="none" stroke-width="1px">0.4</text><text x="0" y="80.45454545454542" dx="0em" dy="0.3em" style="text-anchor: end; visibility: hidden; font-family: Roboto, sans-serif; font-size: 12px; font-weight: 200;" fill="rgb(255, 255, 255)" stroke="none" stroke-width="1px">0.45</text><text x="0" y="64.36363636363636" dx="0em" dy="0.3em" style="text-anchor: end; visibility: inherit; font-family: Roboto, sans-serif; font-size: 12px; font-weight: 200;" fill="rgb(255, 255, 255)" stroke="none" stroke-width="1px">0.5</text><text x="0" y="48.27272727272725" dx="0em" dy="0.3em" style="text-anchor: end; visibility: hidden; font-family: Roboto, sans-serif; font-size: 12px; font-weight: 200;" fill="rgb(255, 255, 255)" stroke="none" stroke-width="1px">0.55</text><text x="0" y="32.18181818181817" dx="0em" dy="0.3em" style="text-anchor: end; visibility: inherit; font-family: Roboto, sans-serif; font-size: 12px; font-weight: 200;" fill="rgb(255, 255, 255)" stroke="none" stroke-width="1px">0.6</text><text x="0" y="16.090909090909076" dx="0em" dy="0.3em" style="text-anchor: end; visibility: hidden; font-family: Roboto, sans-serif; font-size: 12px; font-weight: 200;" fill="rgb(255, 255, 255)" stroke="none" stroke-width="1px">0.65</text><text x="0" y="0" dx="0em" dy="0.3em" style="text-anchor: end; visibility: hidden; font-family: Roboto, sans-serif; font-size: 12px; font-weight: 200;" fill="rgb(255, 255, 255)" stroke="none" stroke-width="1px">0.7</text></g><line x1="51.5625" y1="0" x2="51.5625" y2="177" fill="rgb(0, 0, 0)" stroke="rgb(204, 204, 204)" stroke-width="1px"></line></g></g><g transform="translate(51, 0)" clip-path="url(#clip_0)"><clipPath id="clip_0"><rect width="278" height="177"></rect></clipPath><g><g><g><line x1="0" y1="0" x2="0" y2="177" fill="rgb(0, 0, 0)" stroke="rgb(189, 189, 189)" stroke-width="1px" opacity="0.25"></line><line x1="23.203125" y1="0" x2="23.203125" y2="177" fill="rgb(0, 0, 0)" stroke="rgb(189, 189, 189)" stroke-width="1px" opacity="0.25"></line><line x1="46.40625" y1="0" x2="46.40625" y2="177" fill="rgb(0, 0, 0)" stroke="rgb(189, 189, 189)" stroke-width="1px" opacity="0.25"></line><line x1="69.609375" y1="0" x2="69.609375" y2="177" fill="rgb(0, 0, 0)" stroke="rgb(189, 189, 189)" stroke-width="1px" opacity="0.25"></line><line x1="92.8125" y1="0" x2="92.8125" y2="177" fill="rgb(0, 0, 0)" stroke="rgb(189, 189, 189)" stroke-width="1px" opacity="0.25"></line><line x1="116.015625" y1="0" x2="116.015625" y2="177" fill="rgb(0, 0, 0)" stroke="rgb(189, 189, 189)" stroke-width="1px" opacity="0.25"></line><line x1="139.21875" y1="0" x2="139.21875" y2="177" fill="rgb(0, 0, 0)" stroke="rgb(189, 189, 189)" stroke-width="1px" opacity="0.25"></line><line x1="162.421875" y1="0" x2="162.421875" y2="177" fill="rgb(0, 0, 0)" stroke="rgb(189, 189, 189)" stroke-width="1px" opacity="0.25"></line><line x1="185.625" y1="0" x2="185.625" y2="177" fill="rgb(0, 0, 0)" stroke="rgb(189, 189, 189)" stroke-width="1px" opacity="0.25"></line><line x1="208.828125" y1="0" x2="208.828125" y2="177" fill="rgb(0, 0, 0)" stroke="rgb(189, 189, 189)" stroke-width="1px" opacity="0.25"></line><line x1="232.03125" y1="0" x2="232.03125" y2="177" fill="rgb(0, 0, 0)" stroke="rgb(189, 189, 189)" stroke-width="1px" opacity="0.25"></line><line x1="255.234375" y1="0" x2="255.234375" y2="177" fill="rgb(0, 0, 0)" stroke="rgb(189, 189, 189)" stroke-width="1px" opacity="0.25"></line><line x1="278.4375" y1="0" x2="278.4375" y2="177" fill="rgb(0, 0, 0)" stroke="rgb(189, 189, 189)" stroke-width="1px" opacity="0.25"></line></g><g><line x1="0" y1="177" x2="278.4375" y2="177" fill="rgb(0, 0, 0)" stroke="rgb(189, 189, 189)" stroke-width="1px" opacity="0.25"></line><line x1="0" y1="160.9090909090909" x2="278.4375" y2="160.9090909090909" fill="rgb(0, 0, 0)" stroke="rgb(189, 189, 189)" stroke-width="1px" opacity="0.25"></line><line x1="0" y1="144.8181818181818" x2="278.4375" y2="144.8181818181818" fill="rgb(0, 0, 0)" stroke="rgb(189, 189, 189)" stroke-width="1px" opacity="0.25"></line><line x1="0" y1="128.72727272727272" x2="278.4375" y2="128.72727272727272" fill="rgb(0, 0, 0)" stroke="rgb(189, 189, 189)" stroke-width="1px" opacity="0.25"></line><line x1="0" y1="112.63636363636364" x2="278.4375" y2="112.63636363636364" fill="rgb(0, 0, 0)" stroke="rgb(189, 189, 189)" stroke-width="1px" opacity="0.25"></line><line x1="0" y1="96.54545454545453" x2="278.4375" y2="96.54545454545453" fill="rgb(0, 0, 0)" stroke="rgb(189, 189, 189)" stroke-width="1px" opacity="0.25"></line><line x1="0" y1="80.45454545454542" x2="278.4375" y2="80.45454545454542" fill="rgb(0, 0, 0)" stroke="rgb(189, 189, 189)" stroke-width="1px" opacity="0.25"></line><line x1="0" y1="64.36363636363636" x2="278.4375" y2="64.36363636363636" fill="rgb(0, 0, 0)" stroke="rgb(189, 189, 189)" stroke-width="1px" opacity="0.25"></line><line x1="0" y1="48.27272727272725" x2="278.4375" y2="48.27272727272725" fill="rgb(0, 0, 0)" stroke="rgb(189, 189, 189)" stroke-width="1px" opacity="0.25"></line><line x1="0" y1="32.18181818181817" x2="278.4375" y2="32.18181818181817" fill="rgb(0, 0, 0)" stroke="rgb(189, 189, 189)" stroke-width="1px" opacity="0.25"></line><line x1="0" y1="16.090909090909076" x2="278.4375" y2="16.090909090909076" fill="rgb(0, 0, 0)" stroke="rgb(189, 189, 189)" stroke-width="1px" opacity="0.25"></line><line x1="0" y1="0" x2="278.4375" y2="0" fill="rgb(0, 0, 0)" stroke="rgb(189, 189, 189)" stroke-width="1px" opacity="0.25"></line></g></g></g><g><g><line x1="0" y1="225.27272727272728" x2="278.4375" y2="225.27272727272728" fill="rgb(0, 0, 0)" stroke="rgb(153, 153, 153)" stroke-width="1.5px"></line></g></g><g><g><line x1="23.203125" y1="0" x2="23.203125" y2="177" fill="rgb(0, 0, 0)" stroke="rgb(153, 153, 153)" stroke-width="1.5px"></line></g></g><g><g><g><g><g><path stroke="rgb(255, 112, 67)" stroke-width="2px" d="M30.1640625,-36.25460674919931L31.32421875,7.791886275706314L32.484375,17.729751132289444L33.64453125,20.54096511938695L34.8046875,23.39909142833259L35.96484375000001,38.707675354995324L37.125,41.32569588486593L38.28515625,50.358080553163134L39.4453125,61.33744857155001L40.60546875,43.575381878283565L41.765625,51.82147700010842L42.92578125,55.932018511616064L44.0859375,55.090448653944925L45.24609375,54.88895253063983L46.40625,51.559365252896676L47.56640625,48.33918879845874L48.7265625,62.078321922809934L49.88671875,36.792875504019L51.04687499999999,49.65318499046066L52.20703125,52.335337868121805L53.36718750000001,74.83661213006137L54.52734375,77.82360363944302L55.6875,63.16304616249152L56.84765625,72.08872018868256L58.0078125,67.77257364219581L59.16796875,53.30643711537642L60.328125,71.21879136641533L61.48828125,68.75828056554462L62.6484375,54.95478319111591L63.80859375,74.16365692735941L64.96875,87.54876189541912L66.12890625,78.11358401367484L67.2890625,72.00200288469301L68.44921875,71.22005944225285L69.609375,66.57637621762981L70.76953125,49.744933329341315L71.92968750000001,77.42341421253607L73.08984375,86.04328814467063L74.25,111.41465699490344L75.41015625,99.99495115268779L76.5703125,103.42572781317284L77.73046875,108.11659696639954L78.890625,92.8150961744358L80.05078125,96.65144216273485L81.2109375,111.19417955442655L82.37109375,110.50795159643462L83.53125,96.10001454184483L84.69140624999999,107.75971747299101L85.8515625,114.0358435768826L87.01171875,96.50896585771352L88.171875,111.11216185130216L89.33203125000001,121.88757994284273L90.4921875,117.5789372030222L91.65234375,124.91961519358738L92.8125,117.93555315885729L93.97265625,49.70202377389123L95.1328125,49.091218684181705L96.29296875,83.26098498619267L97.453125,94.92283161016134L98.61328125,115.11655752379798L99.7734375,110.68957384158811L100.93359375,130.51268214801559L102.09374999999999,125.34889347716661L103.25390625,134.3489866652323L104.4140625,117.02161713286185L105.57421875,94.53004390233394L106.73437500000001,101.75372063277528L107.89453125,118.54564599705934L109.0546875,114.30468206494787L110.21484375,124.49926309465665L111.375,117.70588441950206L112.53515625,100.05095059160935L113.6953125,91.76333125685021L114.85546875,62.02781294194028L116.015625,95.21067499598529L117.17578125,114.33904608070162L118.3359375,119.31606966353134L119.49609374999999,139.1620248074225L120.65625,134.8771055170829L121.81640625,123.58568979999306L122.9765625,113.1445427172345L124.13671875000001,102.19114841635972L125.296875,127.65087609387285L126.45703125,122.20258875644492L127.6171875,122.06626703279622L128.77734375,130.27480414851766L129.9375,126.03583576288378L131.09765625,143.3627653848432L132.2578125,129.8001183122089L133.41796875,125.70844053542936L134.578125,135.5125672516387L135.73828125,133.67526983710187L136.8984375,111.16925970121547L138.05859375,121.25999164659737L139.21875,133.79703769080666L140.37890625,133.04755499737973L141.5390625,128.2556028748386L142.69921875,133.65848536184245L143.85937500000003,134.07051477421356L145.01953125,130.36641153502433L146.1796875,137.45665553097706L147.33984375,139.54519121415646L148.5,147.66379131308446L149.66015625,135.39672815785826L150.8203125,120.6617140530707L151.98046874999997,138.6183928714599L153.140625,125.62427641657517L154.30078125,130.80566497866826L155.4609375,144.49252575444615L156.62109375,151.25143997229327L157.78125,147.67638717344084L158.94140625,154.3004744208712L160.1015625,149.31217081831502L161.26171875000003,154.94568279350491L162.421875,158.7056502388887L163.58203125,146.5005120513477L164.7421875,156.38410089695464L165.90234375,126.97578500245055L167.0625,129.69208113056663L168.22265625,123.61640270229073L169.38281249999997,145.54787464815638L170.54296875,131.77023032505994L171.703125,113.03070198579078L172.86328125,121.31227538472841L174.0234375,137.34698034002062L175.18359375,148.49705587485184L176.34375,161.45923129496046L177.50390625,156.96897657434926L178.66406250000003,154.63024631463867L179.82421875,151.85651041191124L180.984375,145.12842129595404L182.14453125,141.28123036958985L183.3046875,129.9061922719914L184.46484375,117.8971570871051L185.625,139.75054619940593L186.78515624999997,121.75612907656605L187.9453125,141.8294727062823L189.10546875,143.84493092521785L190.265625,146.75249662728328L191.42578125,156.18448997955073L192.5859375,160.3645191797484L193.74609375,161.33838125520165L194.90625,166.38297355445155L196.06640625000003,166.24117748899417L197.2265625,168.90027761383203L198.38671875,140.91957356233857L199.546875,134.03840452686987L200.70703125,122.68593799245164L201.8671875,140.08627930277575L203.02734375,149.0460340114799L204.18749999999997,141.78584336397884L205.34765625,142.9185678865347L206.5078125,155.927990439611L207.66796875,142.09494244585528L208.828125,135.89980086349954L209.98828125,149.4951506849303L211.1484375,144.2211715284148L212.30859375,144.0962147178149L213.46875000000003,134.5578784578543L214.62890625,143.08012464029414L215.7890625,148.59527281967675L216.94921875,150.85136593717155L218.109375,151.24311682674883L219.26953125,158.90569176458746L220.4296875,151.0135469978602L221.58984374999997,152.4736743125106L222.75,160.5610782974451L223.91015625,165.45965881243828L225.0703125,155.70088297348147L226.23046875,149.09031261337353L227.390625,147.5985528960326L228.55078125,146.00520452845902L229.7109375,151.480268404092L230.87109375000003,153.48390296032545L232.03125,159.5633167224774L233.19140625,148.26474096219184L234.3515625,147.7032088454446L235.51171875,157.34433170109818L236.671875,153.0840013392666L237.83203125,163.83294817993254L238.99218749999997,159.776978298253L240.15234375,161.68018820971184L241.3125,168.6928715413209L242.47265625,166.83689852389074L243.6328125,170.89011707639486L244.79296875,174.08590625529595L245.953125,169.75176849736744L247.11328125,164.76816436296903L248.27343750000003,162.09826986307894L249.43359375,156.46572981935466L250.59375,152.55311892968902L251.75390625,151.9409274534569L252.9140625,153.3105068284709L254.07421875,139.97109019140126L255.234375,155.14542449017924" style="fill: none;" fill="none"></path></g><g><path stroke="rgb(0, 119, 187)" stroke-width="2px" d="M81.2109375,-23.143015032987474L92.8125,20.094069851018354L104.4140625,41.80305636673601L116.015625,56.229259899865L127.6171875,48.74162579864429L139.21875,62.63207245723554L150.8203125,74.22513933341519L162.421875,76.69208106646778L174.0234375,79.73299528676934L185.625,87.3262375394738L197.2265625,84.45525922276843L208.828125,80.78046789348318L220.4296875,76.54005700184312L232.03125,69.5678147125694L243.6328125,75.79163431750688" style="fill: none;" fill="none"></path></g></g></g></g><g opacity="0.2"><g><g><g><path stroke="rgb(255, 112, 67)" stroke-width="2px" d="M27.84375,-19.143394947052002L29.00390625,11.934821865775366L30.1640625,-46.69322399659593L31.32421875,70.7790760452097L32.484375,32.219253496690214L33.64453125,24.68695970015091L34.8046875,27.64307589964432L35.96484375000001,61.53170351548628L37.125,45.238479527560145L38.28515625,63.87716525251214L39.4453125,77.78499087420376L40.60546875,16.95316048101944L41.765625,64.18480389768426L42.92578125,62.096091335470014L44.0859375,53.828307541933924L45.24609375,54.58673904158851L46.40625,46.565288673747666L47.56640625,43.50910071893171L48.7265625,82.68656951730901L49.88671875,-1.134794907136404L51.04687499999999,68.94349687749688L52.20703125,56.35854812101883L53.36718750000001,108.58842756531455L54.52734375,82.30408326062289L55.6875,41.17223245447331L56.84765625,85.47722300616178L58.0078125,61.29835620793429L59.16796875,31.60723712227561L60.328125,98.08731917901471L61.48828125,65.06751465797424L62.6484375,34.24953811818902L63.80859375,102.97696670618923L64.96875,107.62641900235955L66.12890625,63.96081733703613L67.2890625,62.83463124795393L68.44921875,70.04714428294788L69.609375,59.61085139621388L70.76953125,24.497769030657675L71.92968750000001,118.94113550402902L73.08984375,98.97309903665021L74.25,149.47171025926417L75.41015625,82.8653923923319L76.5703125,108.57189280336553L77.73046875,115.15290069580078L78.890625,69.86284498734906L80.05078125,102.40596114505419L81.2109375,133.00828564167023L82.37109375,109.47860965945505L83.53125,74.48810896006496L84.69140624999999,125.24927186965942L85.8515625,123.45003273270346L87.01171875,70.21864927898754L88.171875,133.01695584167132L89.33203125000001,138.05070708014748L90.4921875,111.11597309329294L91.65234375,135.93063217943364L92.8125,107.45946010676296L93.97265625,-52.64827030355281L95.1328125,48.17501104961742L96.29296875,134.5156344392083L97.453125,112.41560154611413L98.61328125,145.40714639425278L99.7734375,104.04909831827337L100.93359375,160.24734460765666L102.09374999999999,117.60321047089316L103.25390625,147.84912644733083L104.4140625,91.03056283430621L105.57421875,60.79268405654212L106.73437500000001,112.58923572843725L107.89453125,143.73353404348546L109.0546875,107.94323616678064L110.21484375,139.7911346392198L111.375,107.51581640677017L112.53515625,73.56854984977029L113.6953125,79.3319022547115L114.85546875,17.42453546957535L116.015625,144.9849680770527L117.17578125,143.03160270777613L118.3359375,126.7816050377759L119.49609374999999,168.93095752325925L120.65625,128.4497265815735L121.81640625,106.6485662243583L122.9765625,97.48282209309662L124.13671875000001,85.76105696504766L125.296875,165.84046761014244L126.45703125,114.03015775030309L127.6171875,121.86178444732317L128.77734375,142.58760982209986L129.9375,119.67738318443298L131.09765625,169.3531598177823L132.2578125,109.45614770325747L133.41796875,119.57092387026006L134.578125,150.2187573259527L135.73828125,130.91932371529666L136.8984375,77.41024449738589L138.05859375,136.3960895646702L139.21875,152.60260675712064L140.37890625,131.92333095723933L141.5390625,121.06767469102685L142.69921875,141.76280909234828L143.85937500000003,134.68855889277023L145.01953125,124.81025667624039L146.1796875,148.09202152490616L147.33984375,142.67799473892558L148.5,159.8416914614764L149.66015625,116.99613342501901L150.8203125,98.55919289588928L151.98046874999997,165.55341109904376L153.140625,106.13310173424804L154.30078125,138.57774782180786L155.4609375,165.02281691811302L156.62109375,161.38981129906395L157.78125,142.31380797516215L158.94140625,164.2366052920168L160.1015625,141.82971541448072L161.26171875000003,163.39595075628975L162.421875,164.34560140696436L163.58203125,128.19280477003616L164.7421875,171.20948416536504L165.90234375,82.86331116069447L167.0625,133.76652532274073L168.22265625,114.50288505987686L169.38281249999997,178.44508256695488L170.54296875,111.10376384041525L171.703125,84.92140947688709L172.86328125,133.73463548313487L174.0234375,161.39903777295893L175.18359375,165.22216917709872L176.34375,180.9024944251234L177.50390625,150.2335944934325L178.66406250000003,151.12215092507273L179.82421875,147.69590655782005L180.984375,135.03628762201828L182.14453125,135.5104439800436L183.3046875,112.84363512559369L184.46484375,99.8836043097756L185.625,172.53062986785716L186.78515624999997,94.76450339230624L187.9453125,171.9394881508567L189.10546875,146.86811825362116L190.265625,151.11384518038142L191.42578125,170.33248000795192L192.5859375,166.63456298004496L193.74609375,162.7991743683815L194.90625,173.94986200332642L196.06640625000003,166.0284833908081L197.2265625,172.88892780108884L198.38671875,98.94851748509839L199.546875,123.71665097366677L200.70703125,105.65723819082433L201.8671875,166.186791268262L203.02734375,162.48566607453606L204.18749999999997,130.89555739272723L205.34765625,144.61765467036852L206.5078125,175.4421242692254L207.66796875,121.34537045522168L208.828125,126.60708848996595L209.98828125,169.88817541707647L211.1484375,136.3102027936415L212.30859375,143.90877950191498L213.46875000000003,120.25037406791338L214.62890625,155.86349391395396L215.7890625,156.86799508875066L216.94921875,154.23550561341372L218.109375,151.83074316111475L219.26953125,170.39955417134544L220.4296875,139.1753298477693L221.58984374999997,154.66386528448626L222.75,172.69218427484685L223.91015625,172.807529584928L225.0703125,141.06271921504626L226.23046875,139.17445707321167L227.390625,145.36091332002118L228.55078125,143.61518197709864L229.7109375,159.69286421754143L230.87109375000003,156.48935479467565L232.03125,168.6824373657053L233.19140625,131.31687732176349L234.3515625,146.8609106703238L235.51171875,171.80601598457858L236.671875,146.6935057965192L237.83203125,179.9563684409315L238.99218749999997,153.69302347573367L240.15234375,164.53500307690013L241.3125,179.21189653873444L242.47265625,164.0529389977455L243.6328125,176.969944905151L244.79296875,178.87959002364764L245.953125,163.25056186047465L247.11328125,157.2927581613714L248.27343750000003,158.0934281132438L249.43359375,148.01691975376824L250.59375,146.68420259519056L251.75390625,151.02264023910868L252.9140625,155.3648758909919L254.07421875,119.96196523579684L255.234375,177.90692593834618" style="fill: none;" fill="none"></path></g><g><path stroke="rgb(0, 119, 187)" stroke-width="2px" d="M58.0078125,-40.7143538214944L69.609375,50.8570952198722L81.2109375,75.9704350233078L92.8125,79.90652359615673L104.4140625,72.84725442799655L116.015625,77.262803142721L127.6171875,37.69881989739157L139.21875,83.25776689702813L150.8203125,91.5095913843675L162.421875,80.37906867807561L174.0234375,84.28443750468168L185.625,98.70122496648267L197.2265625,80.15216647494923L208.828125,75.27087264711206L220.4296875,70.18123506415974L232.03125,59.11122153022071L243.6328125,85.126415588639" style="fill: none;" fill="none"></path></g></g></g></g></g></g><g transform="translate(51, 177)" clip-path="url(#clip_1)"><clipPath id="clip_1"><rect width="278" height="23"></rect></clipPath><g><g><line x1="0" y1="0" x2="0" y2="5" style="visibility: inherit;" fill="rgb(0, 0, 0)" stroke="rgb(204, 204, 204)" stroke-width="1px"></line><line x1="23.203125" y1="0" x2="23.203125" y2="5" style="visibility: inherit;" fill="rgb(0, 0, 0)" stroke="rgb(204, 204, 204)" stroke-width="1px"></line><line x1="46.40625" y1="0" x2="46.40625" y2="5" style="visibility: inherit;" fill="rgb(0, 0, 0)" stroke="rgb(204, 204, 204)" stroke-width="1px"></line><line x1="69.609375" y1="0" x2="69.609375" y2="5" style="visibility: inherit;" fill="rgb(0, 0, 0)" stroke="rgb(204, 204, 204)" stroke-width="1px"></line><line x1="92.8125" y1="0" x2="92.8125" y2="5" style="visibility: inherit;" fill="rgb(0, 0, 0)" stroke="rgb(204, 204, 204)" stroke-width="1px"></line><line x1="116.015625" y1="0" x2="116.015625" y2="5" style="visibility: inherit;" fill="rgb(0, 0, 0)" stroke="rgb(204, 204, 204)" stroke-width="1px"></line><line x1="139.21875" y1="0" x2="139.21875" y2="5" style="visibility: inherit;" fill="rgb(0, 0, 0)" stroke="rgb(204, 204, 204)" stroke-width="1px"></line><line x1="162.421875" y1="0" x2="162.421875" y2="5" style="visibility: inherit;" fill="rgb(0, 0, 0)" stroke="rgb(204, 204, 204)" stroke-width="1px"></line><line x1="185.625" y1="0" x2="185.625" y2="5" style="visibility: inherit;" fill="rgb(0, 0, 0)" stroke="rgb(204, 204, 204)" stroke-width="1px"></line><line x1="208.828125" y1="0" x2="208.828125" y2="5" style="visibility: inherit;" fill="rgb(0, 0, 0)" stroke="rgb(204, 204, 204)" stroke-width="1px"></line><line x1="232.03125" y1="0" x2="232.03125" y2="5" style="visibility: inherit;" fill="rgb(0, 0, 0)" stroke="rgb(204, 204, 204)" stroke-width="1px"></line><line x1="255.234375" y1="0" x2="255.234375" y2="5" style="visibility: inherit;" fill="rgb(0, 0, 0)" stroke="rgb(204, 204, 204)" stroke-width="1px"></line><line x1="278.4375" y1="0" x2="278.4375" y2="5" style="visibility: inherit;" fill="rgb(0, 0, 0)" stroke="rgb(204, 204, 204)" stroke-width="1px"></line></g><g transform="translate(0, 8)"><text x="0" y="0" dx="0em" dy="0.95em" style="text-anchor: middle; visibility: hidden; font-family: Roboto, sans-serif; font-size: 12px; font-weight: 200;" fill="rgb(255, 255, 255)" stroke="none" stroke-width="1px">-2k</text><text x="23.203125" y="0" dx="0em" dy="0.95em" style="text-anchor: middle; visibility: inherit; font-family: Roboto, sans-serif; font-size: 12px; font-weight: 200;" fill="rgb(255, 255, 255)" stroke="none" stroke-width="1px">0</text><text x="46.40625" y="0" dx="0em" dy="0.95em" style="text-anchor: middle; visibility: hidden; font-family: Roboto, sans-serif; font-size: 12px; font-weight: 200;" fill="rgb(255, 255, 255)" stroke="none" stroke-width="1px">2k</text><text x="69.609375" y="0" dx="0em" dy="0.95em" style="text-anchor: middle; visibility: inherit; font-family: Roboto, sans-serif; font-size: 12px; font-weight: 200;" fill="rgb(255, 255, 255)" stroke="none" stroke-width="1px">4k</text><text x="92.8125" y="0" dx="0em" dy="0.95em" style="text-anchor: middle; visibility: hidden; font-family: Roboto, sans-serif; font-size: 12px; font-weight: 200;" fill="rgb(255, 255, 255)" stroke="none" stroke-width="1px">6k</text><text x="116.015625" y="0" dx="0em" dy="0.95em" style="text-anchor: middle; visibility: inherit; font-family: Roboto, sans-serif; font-size: 12px; font-weight: 200;" fill="rgb(255, 255, 255)" stroke="none" stroke-width="1px">8k</text><text x="139.21875" y="0" dx="0em" dy="0.95em" style="text-anchor: middle; visibility: hidden; font-family: Roboto, sans-serif; font-size: 12px; font-weight: 200;" fill="rgb(255, 255, 255)" stroke="none" stroke-width="1px">10k</text><text x="162.421875" y="0" dx="0em" dy="0.95em" style="text-anchor: middle; visibility: inherit; font-family: Roboto, sans-serif; font-size: 12px; font-weight: 200;" fill="rgb(255, 255, 255)" stroke="none" stroke-width="1px">12k</text><text x="185.625" y="0" dx="0em" dy="0.95em" style="text-anchor: middle; visibility: hidden; font-family: Roboto, sans-serif; font-size: 12px; font-weight: 200;" fill="rgb(255, 255, 255)" stroke="none" stroke-width="1px">14k</text><text x="208.828125" y="0" dx="0em" dy="0.95em" style="text-anchor: middle; visibility: inherit; font-family: Roboto, sans-serif; font-size: 12px; font-weight: 200;" fill="rgb(255, 255, 255)" stroke="none" stroke-width="1px">16k</text><text x="232.03125" y="0" dx="0em" dy="0.95em" style="text-anchor: middle; visibility: hidden; font-family: Roboto, sans-serif; font-size: 12px; font-weight: 200;" fill="rgb(255, 255, 255)" stroke="none" stroke-width="1px">18k</text><text x="255.234375" y="0" dx="0em" dy="0.95em" style="text-anchor: middle; visibility: inherit; font-family: Roboto, sans-serif; font-size: 12px; font-weight: 200;" fill="rgb(255, 255, 255)" stroke="none" stroke-width="1px">20k</text><text x="278.4375" y="0" dx="0em" dy="0.95em" style="text-anchor: middle; visibility: hidden; font-family: Roboto, sans-serif; font-size: 12px; font-weight: 200;" fill="rgb(255, 255, 255)" stroke="none" stroke-width="1px">22k</text></g><line x1="0" y1="0" x2="278.4375" y2="0" fill="rgb(0, 0, 0)" stroke="rgb(204, 204, 204)" stroke-width="1px"></line></g></g></g></g></svg>