<svg viewBox="0 0 330 200" xmlns="http://www.w3.org/2000/svg"><g><g><g><g><g><line x1="61.953125" y1="177" x2="56.953125" y2="177" style="visibility: inherit;" fill="rgb(0, 0, 0)" stroke="rgb(204, 204, 204)" stroke-width="1px"></line><line x1="61.953125" y1="165.2" x2="56.953125" y2="165.2" style="visibility: inherit;" fill="rgb(0, 0, 0)" stroke="rgb(204, 204, 204)" stroke-width="1px"></line><line x1="61.953125" y1="153.4" x2="56.953125" y2="153.4" style="visibility: inherit;" fill="rgb(0, 0, 0)" stroke="rgb(204, 204, 204)" stroke-width="1px"></line><line x1="61.953125" y1="141.6" x2="56.953125" y2="141.6" style="visibility: inherit;" fill="rgb(0, 0, 0)" stroke="rgb(204, 204, 204)" stroke-width="1px"></line><line x1="61.953125" y1="129.79999999999998" x2="56.953125" y2="129.79999999999998" style="visibility: inherit;" fill="rgb(0, 0, 0)" stroke="rgb(204, 204, 204)" stroke-width="1px"></line><line x1="61.953125" y1="118.00000000000001" x2="56.953125" y2="118.00000000000001" style="visibility: inherit;" fill="rgb(0, 0, 0)" stroke="rgb(204, 204, 204)" stroke-width="1px"></line><line x1="61.953125" y1="106.20000000000002" x2="56.953125" y2="106.20000000000002" style="visibility: inherit;" fill="rgb(0, 0, 0)" stroke="rgb(204, 204, 204)" stroke-width="1px"></line><line x1="61.953125" y1="94.4" x2="56.953125" y2="94.4" style="visibility: inherit;" fill="rgb(0, 0, 0)" stroke="rgb(204, 204, 204)" stroke-width="1px"></line><line x1="61.953125" y1="82.59999999999998" x2="56.953125" y2="82.59999999999998" style="visibility: inherit;" fill="rgb(0, 0, 0)" stroke="rgb(204, 204, 204)" stroke-width="1px"></line><line x1="61.953125" y1="70.80000000000003" x2="56.953125" y2="70.80000000000003" style="visibility: inherit;" fill="rgb(0, 0, 0)" stroke="rgb(204, 204, 204)" stroke-width="1px"></line><line x1="61.953125" y1="59.00000000000001" x2="56.953125" y2="59.00000000000001" style="visibility: inherit;" fill="rgb(0, 0, 0)" stroke="rgb(204, 204, 204)" stroke-width="1px"></line><line x1="61.953125" y1="47.19999999999999" x2="56.953125" y2="47.19999999999999" style="visibility: inherit;" fill="rgb(0, 0, 0)" stroke="rgb(204, 204, 204)" stroke-width="1px"></line><line x1="61.953125" y1="35.39999999999999" x2="56.953125" y2="35.39999999999999" style="visibility: inherit;" fill="rgb(0, 0, 0)" stroke="rgb(204, 204, 204)" stroke-width="1px"></line><line x1="61.953125" y1="23.600000000000016" x2="56.953125" y2="23.600000000000016" style="visibility: inherit;" fill="rgb(0, 0, 0)" stroke="rgb(204, 204, 204)" stroke-width="1px"></line><line x1="61.953125" y1="11.800000000000017" x2="56.953125" y2="11.800000000000017" style="visibility: inherit;" fill="rgb(0, 0, 0)" stroke="rgb(204, 204, 204)" stroke-width="1px"></line><line x1="61.953125" y1="0" x2="56.953125" y2="0" style="visibility: inherit;" fill="rgb(0, 0, 0)" stroke="rgb(204, 204, 204)" stroke-width="1px"></line></g><g transform="translate(51.953125, 0)"><text x="0" y="177" dx="0em" dy="0.3em" style="text-anchor: end; visibility: hidden; font-family: Roboto, sans-serif; font-size: 12px; font-weight: 200;" fill="rgb(255, 255, 255)" stroke="none" stroke-width="1px">0.026</text><text x="0" y="165.2" dx="0em" dy="0.3em" style="text-anchor: end; visibility: inherit; font-family: Roboto, sans-serif; font-size: 12px; font-weight: 200;" fill="rgb(255, 255, 255)" stroke="none" stroke-width="1px">0.028</text><text x="0" y="153.4" dx="0em" dy="0.3em" style="text-anchor: end; visibility: hidden; font-family: Roboto, sans-serif; font-size: 12px; font-weight: 200;" fill="rgb(255, 255, 255)" stroke="none" stroke-width="1px">0.03</text><text x="0" y="141.6" dx="0em" dy="0.3em" style="text-anchor: end; visibility: inherit; font-family: Roboto, sans-serif; font-size: 12px; font-weight: 200;" fill="rgb(255, 255, 255)" stroke="none" stroke-width="1px">0.032</text><text x="0" y="129.79999999999998" dx="0em" dy="0.3em" style="text-anchor: end; visibility: hidden; font-family: Roboto, sans-serif; font-size: 12px; font-weight: 200;" fill="rgb(255, 255, 255)" stroke="none" stroke-width="1px">0.034</text><text x="0" y="118.00000000000001" dx="0em" dy="0.3em" style="text-anchor: end; visibility: inherit; font-family: Roboto, sans-serif; font-size: 12px; font-weight: 200;" fill="rgb(255, 255, 255)" stroke="none" stroke-width="1px">0.036</text><text x="0" y="106.20000000000002" dx="0em" dy="0.3em" style="text-anchor: end; visibility: hidden; font-family: Roboto, sans-serif; font-size: 12px; font-weight: 200;" fill="rgb(255, 255, 255)" stroke="none" stroke-width="1px">0.038</text><text x="0" y="94.4" dx="0em" dy="0.3em" style="text-anchor: end; visibility: inherit; font-family: Roboto, sans-serif; font-size: 12px; font-weight: 200;" fill="rgb(255, 255, 255)" stroke="none" stroke-width="1px">0.04</text><text x="0" y="82.59999999999998" dx="0em" dy="0.3em" style="text-anchor: end; visibility: hidden; font-family: Roboto, sans-serif; font-size: 12px; font-weight: 200;" fill="rgb(255, 255, 255)" stroke="none" stroke-width="1px">0.042</text><text x="0" y="70.80000000000003" dx="0em" dy="0.3em" style="text-anchor: end; visibility: inherit; font-family: Roboto, sans-serif; font-size: 12px; font-weight: 200;" fill="rgb(255, 255, 255)" stroke="none" stroke-width="1px">0.044</text><text x="0" y="59.00000000000001" dx="0em" dy="0.3em" style="text-anchor: end; visibility: hidden; font-family: Roboto, sans-serif; font-size: 12px; font-weight: 200;" fill="rgb(255, 255, 255)" stroke="none" stroke-width="1px">0.046</text><text x="0" y="47.19999999999999" dx="0em" dy="0.3em" style="text-anchor: end; visibility: inherit; font-family: Roboto, sans-serif; font-size: 12px; font-weight: 200;" fill="rgb(255, 255, 255)" stroke="none" stroke-width="1px">0.048</text><text x="0" y="35.39999999999999" dx="0em" dy="0.3em" style="text-anchor: end; visibility: hidden; font-family: Roboto, sans-serif; font-size: 12px; font-weight: 200;" fill="rgb(255, 255, 255)" stroke="none" stroke-width="1px">0.05</text><text x="0" y="23.600000000000016" dx="0em" dy="0.3em" style="text-anchor: end; visibility: inherit; font-family: Roboto, sans-serif; font-size: 12px; font-weight: 200;" fill="rgb(255, 255, 255)" stroke="none" stroke-width="1px">0.052</text><text x="0" y="11.800000000000017" dx="0em" dy="0.3em" style="text-anchor: end; visibility: hidden; font-family: Roboto, sans-serif; font-size: 12px; font-weight: 200;" fill="rgb(255, 255, 255)" stroke="none" stroke-width="1px">0.054</text><text x="0" y="0" dx="0em" dy="0.3em" style="text-anchor: end; visibility: hidden; font-family: Roboto, sans-serif; font-size: 12px; font-weight: 200;" fill="rgb(255, 255, 255)" stroke="none" stroke-width="1px">0.056</text></g><line x1="61.953125" y1="0" x2="61.953125" y2="177" fill="rgb(0, 0, 0)" stroke="rgb(204, 204, 204)" stroke-width="1px"></line></g></g><g transform="translate(61, 0)" clip-path="url(#clip_0)"><clipPath id="clip_0"><rect width="268" height="177"></rect></clipPath><g><g><g><line x1="0" y1="0" x2="0" y2="177" fill="rgb(0, 0, 0)" stroke="rgb(189, 189, 189)" stroke-width="1px" opacity="0.25"></line><line x1="22.337239583333332" y1="0" x2="22.337239583333332" y2="177" fill="rgb(0, 0, 0)" stroke="rgb(189, 189, 189)" stroke-width="1px" opacity="0.25"></line><line x1="44.674479166666664" y1="0" x2="44.674479166666664" y2="177" fill="rgb(0, 0, 0)" stroke="rgb(189, 189, 189)" stroke-width="1px" opacity="0.25"></line><line x1="67.01171875" y1="0" x2="67.01171875" y2="177" fill="rgb(0, 0, 0)" stroke="rgb(189, 189, 189)" stroke-width="1px" opacity="0.25"></line><line x1="89.34895833333333" y1="0" x2="89.34895833333333" y2="177" fill="rgb(0, 0, 0)" stroke="rgb(189, 189, 189)" stroke-width="1px" opacity="0.25"></line><line x1="111.68619791666667" y1="0" x2="111.68619791666667" y2="177" fill="rgb(0, 0, 0)" stroke="rgb(189, 189, 189)" stroke-width="1px" opacity="0.25"></line><line x1="134.0234375" y1="0" x2="134.0234375" y2="177" fill="rgb(0, 0, 0)" stroke="rgb(189, 189, 189)" stroke-width="1px" opacity="0.25"></line><line x1="156.36067708333334" y1="0" x2="156.36067708333334" y2="177" fill="rgb(0, 0, 0)" stroke="rgb(189, 189, 189)" stroke-width="1px" opacity="0.25"></line><line x1="178.69791666666666" y1="0" x2="178.69791666666666" y2="177" fill="rgb(0, 0, 0)" stroke="rgb(189, 189, 189)" stroke-width="1px" opacity="0.25"></line><line x1="201.03515625" y1="0" x2="201.03515625" y2="177" fill="rgb(0, 0, 0)" stroke="rgb(189, 189, 189)" stroke-width="1px" opacity="0.25"></line><line x1="223.37239583333334" y1="0" x2="223.37239583333334" y2="177" fill="rgb(0, 0, 0)" stroke="rgb(189, 189, 189)" stroke-width="1px" opacity="0.25"></line><line x1="245.70963541666666" y1="0" x2="245.70963541666666" y2="177" fill="rgb(0, 0, 0)" stroke="rgb(189, 189, 189)" stroke-width="1px" opacity="0.25"></line><line x1="268.046875" y1="0" x2="268.046875" y2="177" fill="rgb(0, 0, 0)" stroke="rgb(189, 189, 189)" stroke-width="1px" opacity="0.25"></line></g><g><line x1="0" y1="177" x2="268.046875" y2="177" fill="rgb(0, 0, 0)" stroke="rgb(189, 189, 189)" stroke-width="1px" opacity="0.25"></line><line x1="0" y1="165.2" x2="268.046875" y2="165.2" fill="rgb(0, 0, 0)" stroke="rgb(189, 189, 189)" stroke-width="1px" opacity="0.25"></line><line x1="0" y1="153.4" x2="268.046875" y2="153.4" fill="rgb(0, 0, 0)" stroke="rgb(189, 189, 189)" stroke-width="1px" opacity="0.25"></line><line x1="0" y1="141.6" x2="268.046875" y2="141.6" fill="rgb(0, 0, 0)" stroke="rgb(189, 189, 189)" stroke-width="1px" opacity="0.25"></line><line x1="0" y1="129.79999999999998" x2="268.046875" y2="129.79999999999998" fill="rgb(0, 0, 0)" stroke="rgb(189, 189, 189)" stroke-width="1px" opacity="0.25"></line><line x1="0" y1="118.00000000000001" x2="268.046875" y2="118.00000000000001" fill="rgb(0, 0, 0)" stroke="rgb(189, 189, 189)" stroke-width="1px" opacity="0.25"></line><line x1="0" y1="106.20000000000002" x2="268.046875" y2="106.20000000000002" fill="rgb(0, 0, 0)" stroke="rgb(189, 189, 189)" stroke-width="1px" opacity="0.25"></line><line x1="0" y1="94.4" x2="268.046875" y2="94.4" fill="rgb(0, 0, 0)" stroke="rgb(189, 189, 189)" stroke-width="1px" opacity="0.25"></line><line x1="0" y1="82.59999999999998" x2="268.046875" y2="82.59999999999998" fill="rgb(0, 0, 0)" stroke="rgb(189, 189, 189)" stroke-width="1px" opacity="0.25"></line><line x1="0" y1="70.80000000000003" x2="268.046875" y2="70.80000000000003" fill="rgb(0, 0, 0)" stroke="rgb(189, 189, 189)" stroke-width="1px" opacity="0.25"></line><line x1="0" y1="59.00000000000001" x2="268.046875" y2="59.00000000000001" fill="rgb(0, 0, 0)" stroke="rgb(189, 189, 189)" stroke-width="1px" opacity="0.25"></line><line x1="0" y1="47.19999999999999" x2="268.046875" y2="47.19999999999999" fill="rgb(0, 0, 0)" stroke="rgb(189, 189, 189)" stroke-width="1px" opacity="0.25"></line><line x1="0" y1="35.39999999999999" x2="268.046875" y2="35.39999999999999" fill="rgb(0, 0, 0)" stroke="rgb(189, 189, 189)" stroke-width="1px" opacity="0.25"></line><line x1="0" y1="23.600000000000016" x2="268.046875" y2="23.600000000000016" fill="rgb(0, 0, 0)" stroke="rgb(189, 189, 189)" stroke-width="1px" opacity="0.25"></line><line x1="0" y1="11.800000000000017" x2="268.046875" y2="11.800000000000017" fill="rgb(0, 0, 0)" stroke="rgb(189, 189, 189)" stroke-width="1px" opacity="0.25"></line><line x1="0" y1="0" x2="268.046875" y2="0" fill="rgb(0, 0, 0)" stroke="rgb(189, 189, 189)" stroke-width="1px" opacity="0.25"></line></g></g></g><g><g><line x1="0" y1="330.4" x2="268.046875" y2="330.4" fill="rgb(0, 0, 0)" stroke="rgb(153, 153, 153)" stroke-width="1.5px"></line></g></g><g><g><line x1="22.337239583333332" y1="0" x2="22.337239583333332" y2="177" fill="rgb(0, 0, 0)" stroke="rgb(153, 153, 153)" stroke-width="1.5px"></line></g></g><g><g><g><g><g><path stroke="rgb(255, 112, 67)" stroke-width="2px" d="M23.4541015625,163.19005084186793L24.570963541666664,163.17145780157298L25.687825520833336,163.11079559487348L26.8046875,162.9759347247453L27.921549479166668,162.80107391469085L29.038411458333336,162.55736551717962L30.1552734375,162.2183508080831L31.272135416666668,161.762815574507L32.388997395833336,161.2829444930768L33.505859375,160.6413658396341L34.62272135416667,159.8862504632934L35.739583333333336,159.12588407916647L36.8564453125,158.26245532700256L37.973307291666664,157.24827775148228L39.090169270833336,156.1704161370127L40.20703125,155.00234488486296L41.32389322916667,153.8321136352541L42.44075520833333,152.6186022331201L43.5576171875,151.30150426705L44.674479166666664,149.80397553154293L45.791341145833336,148.33009569064953L46.908203125,146.8645801102973L48.025065104166664,145.3290929241105L49.14192708333333,143.79493710056383L50.2587890625,142.1199085312992L51.37565104166667,140.41022209099677L52.492513020833336,138.86770664752422L53.609375,137.31090226356145L54.726236979166664,135.79731610786314L55.843098958333336,134.39406091525905L56.9599609375,133.00270673150726L58.07682291666667,131.59224991966423L59.19368489583333,130.16995346054125L60.310546875,128.74298849252136L61.427408854166664,127.48440531204558L62.544270833333336,126.27619350445057L63.6611328125,125.06606211564137L64.77799479166667,123.8299952157209L65.89485677083333,122.52402560228435L67.01171875,121.42341567079721L68.12858072916666,120.36183237110168L69.24544270833334,119.2202484582807L70.3623046875,118.13415989456676L71.47916666666667,116.99542102661732L72.59602864583333,115.97953550833037L73.712890625,114.86200304869344L74.82975260416667,113.85164098523371L75.94661458333333,112.83247829782047L77.0634765625,111.8154378348874L78.18033854166667,110.85919920648082L79.29720052083333,109.91016536738975L80.4140625,108.82091909877046L81.53092447916666,107.60053623218073L82.64778645833334,106.27700414716301L83.7646484375,105.01090328132493L84.88151041666666,103.94660208127088L85.99837239583334,102.98004754842015L87.115234375,102.12462737596431L88.23209635416667,101.17529010794394L89.34895833333333,100.27242133988037L90.4658203125,99.27264449341949L91.58268229166667,98.14235843982604L92.69954427083333,97.13347878078406L93.81640625,96.20525876653066L94.93326822916667,95.3531547222845L96.05013020833333,94.4531679388471L97.1669921875,93.65913133600876L98.28385416666666,92.83101559507561L99.40071614583334,91.94562400238344L100.517578125,91.0234491852321L101.63444010416666,90.07637351080169L102.75130208333334,89.23388907268279L103.8681640625,88.434211042849L104.98502604166667,87.55888389547337L106.10188802083333,86.72443129181661L107.21875,85.96937232112764L108.33561197916667,85.24800591764378L109.45247395833333,84.46759801326712L110.5693359375,83.58267135511944L111.68619791666667,82.46071191245977L112.80305989583333,81.47530834206741L113.919921875,80.61210421281339L115.03678385416666,79.77398856375981L116.15364583333334,78.97519105371454L117.2705078125,78.09350832877529L118.38736979166666,77.35062337027772L119.50423177083334,76.60295076195467L120.62109375,75.7703967250828L121.73795572916667,74.91950460776353L122.85481770833333,73.98150002422727L123.9716796875,73.06622982658624L125.08854166666667,72.24525517962982L126.20540364583333,71.41629172767765L127.322265625,70.70293712023239L128.43912760416669,69.80565937163435L129.55598958333334,68.89190535188918L130.6728515625,68.12877536440611L131.78971354166666,67.3966671301408L132.90657552083334,66.71825077137252L134.0234375,66.08162368298115L135.14029947916666,65.48698535895672L136.25716145833331,64.83845908603863L137.3740234375,64.22419705844997L138.49088541666669,63.583932813746216L139.60774739583334,62.95605117246062L140.724609375,62.27338033774228L141.84147135416666,61.70455162798605L142.95833333333334,61.1664613227561L144.0751953125,60.473362904817755L145.19205729166666,59.817464475650134L146.30891927083331,59.283495831977454L147.42578125,58.76787769466109L148.54264322916669,58.3074920372335L149.65950520833334,57.74328020549821L150.7763671875,57.114328580719295L151.89322916666666,56.4792117736471L153.01009114583331,55.81738801728082L154.126953125,54.946729645314164L155.24381510416669,54.084878868569334L156.36067708333334,53.25612074894274L157.4775390625,52.5059818468247L158.59440104166666,51.74338926683391L159.71126302083334,50.9057340050371L160.828125,50.17589337138128L161.94498697916666,49.48749629919404L163.06184895833331,48.703018151907195L164.1787109375,47.78753353904967L165.29557291666669,47.01306134075693L166.41243489583334,46.38596043116315L167.529296875,45.83939615325014L168.64615885416666,45.31492825767925L169.76302083333331,44.78428856743295L170.8798828125,44.319558363037814L171.99674479166669,43.76954071335646L173.11360677083334,43.19862036831768L174.23046875,42.47035056071037L175.34733072916666,41.861915649870355L176.46419270833334,41.26469267481522L177.5810546875,40.57580032154294L178.69791666666666,39.88387399199229L179.81477864583331,39.12854152251853L180.931640625,38.48134471732126L182.04850260416669,37.88902437304106L183.16536458333334,37.289179362145916L184.2822265625,36.4815294166135L185.39908854166666,35.76369604347512L186.51595052083331,35.057675608863626L187.6328125,34.40856541685475L188.74967447916669,33.82876811082487L189.86653645833334,33.11242141279773L190.9833984375,32.5006606790614L192.10026041666666,31.877959619354716L193.21712239583334,31.256853047842654L194.333984375,30.797388797900012L195.45084635416666,30.41152405852136L196.56770833333331,29.938277832949517L197.6845703125,29.604120783975322L198.80143229166669,29.30352442799248L199.91829427083334,28.71822159849545L201.03515625,28.147634607332613L202.15201822916666,27.621360360251447L203.26888020833331,27.214628246227836L204.3857421875,26.934947486400574L205.50260416666669,26.560332221794074L206.61946614583334,26.096183061008446L207.736328125,25.704104992988622L208.85319010416666,25.276970833088697L209.97005208333334,24.78706888887033L211.0869140625,24.13323130090682L212.20377604166666,23.696891197440927L213.32063802083331,23.23121674947615L214.4375,22.72373818571972L215.55436197916669,22.257800542209164L216.67122395833334,21.812338858183374L217.7880859375,21.51461624225151L218.90494791666666,21.10554381442175L220.02180989583331,20.551696835947652L221.138671875,20.123963698740372L222.25553385416669,19.83192849218582L223.37239583333334,19.50447054898584L224.4892578125,19.05433808443456L225.60611979166666,18.434375913605166L226.72298177083334,17.98175248364514L227.83984375,17.72912450706903L228.95670572916666,17.44488119289842L230.07356770833331,17.15204286459427L231.1904296875,16.8739606945714L232.30729166666669,16.67023906522995L233.42415364583334,16.376462727868578L234.541015625,15.984237972548037L235.65787760416666,15.634171628743672L236.77473958333331,15.076491010064046L237.8916015625,14.63556479088913L239.00846354166669,14.289132096007192L240.12532552083334,13.970075245877927L241.2421875,13.528385819304475L242.35904947916666,13.131233136241724L243.47591145833334,12.913232735625018L244.5927734375,12.741630284685549L245.70963541666666,12.555947848974851" style="fill: none;" fill="none"></path></g><g><path stroke="rgb(0, 119, 187)" stroke-width="2px" d="M22.337239583333332,163.1813470736146L33.505859375,160.99207324404267L44.674479166666664,154.12212897301936L55.843098958333336,144.08336183950306L67.01171875,133.53489120492375L78.18033854166667,123.41469431395785L89.34895833333333,113.33145922547816L100.517578125,103.68716956640505L111.68619791666667,94.4201475461131L122.85481770833333,85.62591466807497L134.0234375,77.39307421968678L145.19205729166666,69.95199469346001L156.36067708333334,62.76470851951249L167.529296875,55.65864109915174L178.69791666666666,48.928998820504816L189.86653645833334,42.16872731267508L201.03515625,36.2125515950787L212.20377604166666,30.943104207325703L223.37239583333334,26.16601428789478L234.541015625,21.856518968876504L245.70963541666666,18.02346942962019" style="fill: none;" fill="none"></path></g></g></g></g><g opacity="0.2"><g><g><g><path stroke="rgb(255, 112, 67)" stroke-width="2px" d="M23.4541015625,163.19005084186793L24.570963541666664,163.16030197739602L25.687825520833336,163.05255987644196L26.8046875,162.81733834147454L27.921549479166668,162.57277564108372L29.038411458333336,162.22022906839848L30.1552734375,161.7335543498397L31.272135416666668,161.09864083081484L32.388997395833336,160.57522785812617L33.505859375,159.68869631141425L34.62272135416667,158.76042623966933L35.739583333333336,157.98947238326073L36.8564453125,156.97013144344092L37.973307291666664,155.7289982676506L39.090169270833336,154.55489070117474L40.20703125,153.2510618209839L41.32389322916667,152.07726196348668L42.44075520833333,150.7986432403326L43.5576171875,149.32605796456338L44.674479166666664,147.55781930834056L45.791341145833336,146.11935676038266L46.908203125,144.6663549631834L48.025065104166664,143.02589246034623L49.14192708333333,141.49372153878213L50.2587890625,139.60737758278847L51.37565104166667,137.8456997215748L52.492513020833336,136.5539374291897L53.609375,134.9756980776787L54.726236979166664,133.5269382685423L55.843098958333336,132.2891789019108L56.9599609375,130.9156759172678L58.07682291666667,129.47656498253346L59.19368489583333,128.0365089416504L60.310546875,126.6025411427021L61.427408854166664,125.59653059542178L62.544270833333336,124.46387582421303L63.6611328125,123.25086505115031L64.77799479166667,121.97589487731456L65.89485677083333,120.56507118940354L67.01171875,119.77250077724457L68.12858072916666,118.76945742368699L69.24544270833334,117.50787259042264L70.3623046875,116.5050270497799L71.47916666666667,115.28731272518634L72.59602864583333,114.45570723116397L73.712890625,113.1857043594122L74.82975260416667,112.33609789013863L75.94661458333333,111.30373426675797L77.0634765625,110.28987714052201L78.18033854166667,109.42484126389027L79.29720052083333,108.48661460876465L80.4140625,107.18704969584942L81.53092447916666,105.76996193230153L82.64778645833334,104.29170601963997L83.7646484375,103.1117519825697L84.88151041666666,102.35015028119086L85.99837239583334,101.53021574914455L87.115234375,100.84149711728095L88.23209635416667,99.75128420591354L89.34895833333333,98.91811818778515L90.4658203125,97.77297922372819L91.58268229166667,96.44692935943604L92.69954427083333,95.62015929222106L93.81640625,94.81292874515057L94.93326822916667,94.07499865591527L96.05013020833333,93.10318776369094L97.1669921875,92.46807643175124L98.28385416666666,91.58884198367596L99.40071614583334,90.61753661334514L100.517578125,89.64018695950509L101.63444010416666,88.65575999915599L102.75130208333334,87.97016241550446L103.8681640625,87.23469399809838L104.98502604166667,86.24589317440987L106.10188802083333,85.47275238633155L107.21875,84.83678386509418L108.33561197916667,84.16595631241799L109.45247395833333,83.29698615670205L110.5693359375,82.255281367898L111.68619791666667,80.77777274847031L112.80305989583333,79.99720298647881L113.919921875,79.31729801893235L115.03678385416666,78.51681509017945L116.15364583333334,77.7769947886467L117.2705078125,76.77098424136639L118.38736979166666,76.23629593253136L119.50423177083334,75.48144184947014L120.62109375,74.521565669775L121.73795572916667,73.64316643178464L122.85481770833333,72.57449314892291L123.9716796875,71.69332453012467L125.08854166666667,71.01379320919514L126.20540364583333,70.17284654974937L127.322265625,69.63290520906449L128.43912760416669,68.45974274873734L129.55598958333334,67.52127432227135L130.6728515625,66.98408038318158L131.78971354166666,66.2985047787428L132.90657552083334,65.70062623322009L134.0234375,65.12668305039406L135.14029947916666,64.59502787292004L136.25716145833331,63.86566967666149L137.3740234375,63.30280401706695L138.49088541666669,62.62353644669056L139.60774739583334,62.014228710532194L140.724609375,61.24937408566476L141.84147135416666,60.851308563351644L142.95833333333334,60.359325864911085L144.0751953125,59.433715277910245L145.19205729166666,58.8336168318987L146.30891927083331,58.482542866468435L147.42578125,57.99445048868656L148.54264322916669,57.61691355109215L149.65950520833334,56.89696245789529L150.7763671875,56.17090114355088L151.89322916666666,55.526536563038825L153.01009114583331,54.82465238273144L154.126953125,53.6407420873642L155.24381510416669,52.79210270345211L156.36067708333334,52.01298356950283L157.4775390625,51.380773493647574L158.59440104166666,50.59950039684773L159.71126302083334,49.64925111234188L160.828125,49.08113242089748L161.94498697916666,48.45490069091321L163.06184895833331,47.52630093097688L164.1787109375,46.41430661976338L165.29557291666669,45.85135304331781L166.41243489583334,45.445309066772474L167.529296875,45.01954973638059L168.64615885416666,44.52822641432286L169.76302083333331,43.98832903206349L170.8798828125,43.622463056445135L171.99674479166669,42.94451423883438L173.11360677083334,42.342239850759505L174.23046875,41.377945849299444L175.34733072916666,40.94926328361035L176.46419270833334,40.36885821223259L177.5810546875,39.54246179163456L178.69791666666666,38.845984497666365L179.81477864583331,37.99554281830789L180.931640625,37.510549509525305L182.04850260416669,37.0005438566208L183.16536458333334,36.38941184580327L184.2822265625,35.27005449831486L185.39908854166666,34.68694598376751L186.51595052083331,33.99864495694638L187.6328125,33.43490012884141L188.74967447916669,32.959072151780134L189.86653645833334,32.03790136575699L190.9833984375,31.583019578456884L192.10026041666666,30.943908029794706L193.21712239583334,30.32519319057465L194.333984375,30.108192422986036L195.45084635416666,29.832726949453367L196.56770833333331,29.228408494591726L197.6845703125,29.102885210514067L198.80143229166669,28.852629894018186L199.91829427083334,27.84026735424996L201.03515625,27.291754120588315L202.15201822916666,26.83194898962975L203.26888020833331,26.604530075192457L204.3857421875,26.51542634665966L205.50260416666669,25.998409324884413L206.61946614583334,25.39995931982994L207.736328125,25.11598789095879L208.85319010416666,24.63626959323883L209.97005208333334,24.05221597254277L211.0869140625,23.152474918961524L212.20377604166666,23.042381042242056L213.32063802083331,22.532705077528966L214.4375,21.962520340085035L215.55436197916669,21.558894076943396L216.67122395833334,21.144146332144736L217.7880859375,21.068032318353666L218.90494791666666,20.491935172677053L220.02180989583331,19.720926368236555L221.138671875,19.48236399292947L222.25553385416669,19.393875682353986L223.37239583333334,19.013283634185804L224.4892578125,18.37913938760758L225.60611979166666,17.504432657361043L226.72298177083334,17.30281733870506L227.83984375,17.350182542204863L228.95670572916666,17.0185162216425L230.07356770833331,16.712785372138036L231.1904296875,16.456837439537047L232.30729166666669,16.364656621217726L233.42415364583334,15.935798221826552L234.541015625,15.395900839567183L235.65787760416666,15.109072113037108L236.77473958333331,14.239970082044607L237.8916015625,13.974175462126738L239.00846354166669,13.769483053684233L240.12532552083334,13.49148997068405L241.2421875,12.865851679444324L242.35904947916666,12.535504111647617L243.47591145833334,12.58623213469982L244.5927734375,12.484226608276366L245.70963541666666,12.277424195408832" style="fill: none;" fill="none"></path></g><g><path stroke="rgb(0, 119, 187)" stroke-width="2px" d="M22.337239583333332,163.1813470736146L33.505859375,159.67850894629956L44.674479166666664,147.52698247283698L55.843098958333336,132.27777169048787L67.01171875,119.762807944417L78.18033854166667,109.41481874287129L89.34895833333333,98.91227171719075L100.517578125,89.62570265829562L111.68619791666667,80.7530900925398L122.85481770833333,72.56750375926494L134.0234375,65.11848480403424L145.19205729166666,58.83086943030357L156.36067708333334,52.00724699497223L167.529296875,45.01346149444581L178.69791666666666,38.84244584441186L189.86653645833334,32.033087918162344L201.03515625,27.280808472633375L212.20377604166666,23.040271037817007L223.37239583333334,19.001107150316237L234.541015625,15.392669895291327L245.70963541666666,12.274105334281927" style="fill: none;" fill="none"></path></g></g></g></g></g></g><g transform="translate(61, 177)" clip-path="url(#clip_1)"><clipPath id="clip_1"><rect width="268" height="23"></rect></clipPath><g><g><line x1="0" y1="0" x2="0" y2="5" style="visibility: inherit;" fill="rgb(0, 0, 0)" stroke="rgb(204, 204, 204)" stroke-width="1px"></line><line x1="22.337239583333332" y1="0" x2="22.337239583333332" y2="5" style="visibility: inherit;" fill="rgb(0, 0, 0)" stroke="rgb(204, 204, 204)" stroke-width="1px"></line><line x1="44.674479166666664" y1="0" x2="44.674479166666664" y2="5" style="visibility: inherit;" fill="rgb(0, 0, 0)" stroke="rgb(204, 204, 204)" stroke-width="1px"></line><line x1="67.01171875" y1="0" x2="67.01171875" y2="5" style="visibility: inherit;" fill="rgb(0, 0, 0)" stroke="rgb(204, 204, 204)" stroke-width="1px"></line><line x1="89.34895833333333" y1="0" x2="89.34895833333333" y2="5" style="visibility: inherit;" fill="rgb(0, 0, 0)" stroke="rgb(204, 204, 204)" stroke-width="1px"></line><line x1="111.68619791666667" y1="0" x2="111.68619791666667" y2="5" style="visibility: inherit;" fill="rgb(0, 0, 0)" stroke="rgb(204, 204, 204)" stroke-width="1px"></line><line x1="134.0234375" y1="0" x2="134.0234375" y2="5" style="visibility: inherit;" fill="rgb(0, 0, 0)" stroke="rgb(204, 204, 204)" stroke-width="1px"></line><line x1="156.36067708333334" y1="0" x2="156.36067708333334" y2="5" style="visibility: inherit;" fill="rgb(0, 0, 0)" stroke="rgb(204, 204, 204)" stroke-width="1px"></line><line x1="178.69791666666666" y1="0" x2="178.69791666666666" y2="5" style="visibility: inherit;" fill="rgb(0, 0, 0)" stroke="rgb(204, 204, 204)" stroke-width="1px"></line><line x1="201.03515625" y1="0" x2="201.03515625" y2="5" style="visibility: inherit;" fill="rgb(0, 0, 0)" stroke="rgb(204, 204, 204)" stroke-width="1px"></line><line x1="223.37239583333334" y1="0" x2="223.37239583333334" y2="5" style="visibility: inherit;" fill="rgb(0, 0, 0)" stroke="rgb(204, 204, 204)" stroke-width="1px"></line><line x1="245.70963541666666" y1="0" x2="245.70963541666666" y2="5" style="visibility: inherit;" fill="rgb(0, 0, 0)" stroke="rgb(204, 204, 204)" stroke-width="1px"></line><line x1="268.046875" y1="0" x2="268.046875" y2="5" style="visibility: inherit;" fill="rgb(0, 0, 0)" stroke="rgb(204, 204, 204)" stroke-width="1px"></line></g><g transform="translate(0, 8)"><text x="0" y="0" dx="0em" dy="0.95em" style="text-anchor: middle; visibility: hidden; font-family: Roboto, sans-serif; font-size: 12px; font-weight: 200;" fill="rgb(255, 255, 255)" stroke="none" stroke-width="1px">-2k</text><text x="22.337239583333332" y="0" dx="0em" dy="0.95em" style="text-anchor: middle; visibility: inherit; font-family: Roboto, sans-serif; font-size: 12px; font-weight: 200;" fill="rgb(255, 255, 255)" stroke="none" stroke-width="1px">0</text><text x="44.674479166666664" y="0" dx="0em" dy="0.95em" style="text-anchor: middle; visibility: hidden; font-family: Roboto, sans-serif; font-size: 12px; font-weight: 200;" fill="rgb(255, 255, 255)" stroke="none" stroke-width="1px">2k</text><text x="67.01171875" y="0" dx="0em" dy="0.95em" style="text-anchor: middle; visibility: inherit; font-family: Roboto, sans-serif; font-size: 12px; font-weight: 200;" fill="rgb(255, 255, 255)" stroke="none" stroke-width="1px">4k</text><text x="89.34895833333333" y="0" dx="0em" dy="0.95em" style="text-anchor: middle; visibility: hidden; font-family: Roboto, sans-serif; font-size: 12px; font-weight: 200;" fill="rgb(255, 255, 255)" stroke="none" stroke-width="1px">6k</text><text x="111.68619791666667" y="0" dx="0em" dy="0.95em" style="text-anchor: middle; visibility: inherit; font-family: Roboto, sans-serif; font-size: 12px; font-weight: 200;" fill="rgb(255, 255, 255)" stroke="none" stroke-width="1px">8k</text><text x="134.0234375" y="0" dx="0em" dy="0.95em" style="text-anchor: middle; visibility: hidden; font-family: Roboto, sans-serif; font-size: 12px; font-weight: 200;" fill="rgb(255, 255, 255)" stroke="none" stroke-width="1px">10k</text><text x="156.36067708333334" y="0" dx="0em" dy="0.95em" style="text-anchor: middle; visibility: inherit; font-family: Roboto, sans-serif; font-size: 12px; font-weight: 200;" fill="rgb(255, 255, 255)" stroke="none" stroke-width="1px">12k</text><text x="178.69791666666666" y="0" dx="0em" dy="0.95em" style="text-anchor: middle; visibility: hidden; font-family: Roboto, sans-serif; font-size: 12px; font-weight: 200;" fill="rgb(255, 255, 255)" stroke="none" stroke-width="1px">14k</text><text x="201.03515625" y="0" dx="0em" dy="0.95em" style="text-anchor: middle; visibility: inherit; font-family: Roboto, sans-serif; font-size: 12px; font-weight: 200;" fill="rgb(255, 255, 255)" stroke="none" stroke-width="1px">16k</text><text x="223.37239583333334" y="0" dx="0em" dy="0.95em" style="text-anchor: middle; visibility: hidden; font-family: Roboto, sans-serif; font-size: 12px; font-weight: 200;" fill="rgb(255, 255, 255)" stroke="none" stroke-width="1px">18k</text><text x="245.70963541666666" y="0" dx="0em" dy="0.95em" style="text-anchor: middle; visibility: inherit; font-family: Roboto, sans-serif; font-size: 12px; font-weight: 200;" fill="rgb(255, 255, 255)" stroke="none" stroke-width="1px">20k</text><text x="268.046875" y="0" dx="0em" dy="0.95em" style="text-anchor: middle; visibility: hidden; font-family: Roboto, sans-serif; font-size: 12px; font-weight: 200;" fill="rgb(255, 255, 255)" stroke="none" stroke-width="1px">22k</text></g><line x1="0" y1="0" x2="268.046875" y2="0" fill="rgb(0, 0, 0)" stroke="rgb(204, 204, 204)" stroke-width="1px"></line></g></g></g></g></svg>