<svg viewBox="0 0 330 200" xmlns="http://www.w3.org/2000/svg"><g><g><g><g><g><line x1="41.171875" y1="177" x2="36.171875" y2="177" style="visibility: inherit;" fill="rgb(0, 0, 0)" stroke="rgb(204, 204, 204)" stroke-width="1px"></line><line x1="41.171875" y1="154.875" x2="36.171875" y2="154.875" style="visibility: inherit;" fill="rgb(0, 0, 0)" stroke="rgb(204, 204, 204)" stroke-width="1px"></line><line x1="41.171875" y1="132.75" x2="36.171875" y2="132.75" style="visibility: inherit;" fill="rgb(0, 0, 0)" stroke="rgb(204, 204, 204)" stroke-width="1px"></line><line x1="41.171875" y1="110.625" x2="36.171875" y2="110.625" style="visibility: inherit;" fill="rgb(0, 0, 0)" stroke="rgb(204, 204, 204)" stroke-width="1px"></line><line x1="41.171875" y1="88.5" x2="36.171875" y2="88.5" style="visibility: inherit;" fill="rgb(0, 0, 0)" stroke="rgb(204, 204, 204)" stroke-width="1px"></line><line x1="41.171875" y1="66.375" x2="36.171875" y2="66.375" style="visibility: inherit;" fill="rgb(0, 0, 0)" stroke="rgb(204, 204, 204)" stroke-width="1px"></line><line x1="41.171875" y1="44.24999999999998" x2="36.171875" y2="44.24999999999998" style="visibility: inherit;" fill="rgb(0, 0, 0)" stroke="rgb(204, 204, 204)" stroke-width="1px"></line><line x1="41.171875" y1="22.12500000000002" x2="36.171875" y2="22.12500000000002" style="visibility: inherit;" fill="rgb(0, 0, 0)" stroke="rgb(204, 204, 204)" stroke-width="1px"></line><line x1="41.171875" y1="0" x2="36.171875" y2="0" style="visibility: inherit;" fill="rgb(0, 0, 0)" stroke="rgb(204, 204, 204)" stroke-width="1px"></line></g><g transform="translate(31.171875, 0)"><text x="0" y="177" dx="0em" dy="0.3em" style="text-anchor: end; visibility: hidden; font-family: Roboto, sans-serif; font-size: 12px; font-weight: 200;" fill="rgb(255, 255, 255)" stroke="none" stroke-width="1px">0.3</text><text x="0" y="154.875" dx="0em" dy="0.3em" style="text-anchor: end; visibility: inherit; font-family: Roboto, sans-serif; font-size: 12px; font-weight: 200;" fill="rgb(255, 255, 255)" stroke="none" stroke-width="1px">0.4</text><text x="0" y="132.75" dx="0em" dy="0.3em" style="text-anchor: end; visibility: hidden; font-family: Roboto, sans-serif; font-size: 12px; font-weight: 200;" fill="rgb(255, 255, 255)" stroke="none" stroke-width="1px">0.5</text><text x="0" y="110.625" dx="0em" dy="0.3em" style="text-anchor: end; visibility: inherit; font-family: Roboto, sans-serif; font-size: 12px; font-weight: 200;" fill="rgb(255, 255, 255)" stroke="none" stroke-width="1px">0.6</text><text x="0" y="88.5" dx="0em" dy="0.3em" style="text-anchor: end; visibility: hidden; font-family: Roboto, sans-serif; font-size: 12px; font-weight: 200;" fill="rgb(255, 255, 255)" stroke="none" stroke-width="1px">0.7</text><text x="0" y="66.375" dx="0em" dy="0.3em" style="text-anchor: end; visibility: inherit; font-family: Roboto, sans-serif; font-size: 12px; font-weight: 200;" fill="rgb(255, 255, 255)" stroke="none" stroke-width="1px">0.8</text><text x="0" y="44.24999999999998" dx="0em" dy="0.3em" style="text-anchor: end; visibility: hidden; font-family: Roboto, sans-serif; font-size: 12px; font-weight: 200;" fill="rgb(255, 255, 255)" stroke="none" stroke-width="1px">0.9</text><text x="0" y="22.12500000000002" dx="0em" dy="0.3em" style="text-anchor: end; visibility: inherit; font-family: Roboto, sans-serif; font-size: 12px; font-weight: 200;" fill="rgb(255, 255, 255)" stroke="none" stroke-width="1px">1</text><text x="0" y="0" dx="0em" dy="0.3em" style="text-anchor: end; visibility: hidden; font-family: Roboto, sans-serif; font-size: 12px; font-weight: 200;" fill="rgb(255, 255, 255)" stroke="none" stroke-width="1px">1.1</text></g><line x1="41.171875" y1="0" x2="41.171875" y2="177" fill="rgb(0, 0, 0)" stroke="rgb(204, 204, 204)" stroke-width="1px"></line></g></g><g transform="translate(41, 0)" clip-path="url(#clip_0)"><clipPath id="clip_0"><rect width="288" height="177"></rect></clipPath><g><g><g><line x1="0" y1="0" x2="0" y2="177" fill="rgb(0, 0, 0)" stroke="rgb(189, 189, 189)" stroke-width="1px" opacity="0.25"></line><line x1="24.069010416666664" y1="0" x2="24.069010416666664" y2="177" fill="rgb(0, 0, 0)" stroke="rgb(189, 189, 189)" stroke-width="1px" opacity="0.25"></line><line x1="48.13802083333333" y1="0" x2="48.13802083333333" y2="177" fill="rgb(0, 0, 0)" stroke="rgb(189, 189, 189)" stroke-width="1px" opacity="0.25"></line><line x1="72.20703125" y1="0" x2="72.20703125" y2="177" fill="rgb(0, 0, 0)" stroke="rgb(189, 189, 189)" stroke-width="1px" opacity="0.25"></line><line x1="96.27604166666666" y1="0" x2="96.27604166666666" y2="177" fill="rgb(0, 0, 0)" stroke="rgb(189, 189, 189)" stroke-width="1px" opacity="0.25"></line><line x1="120.34505208333334" y1="0" x2="120.34505208333334" y2="177" fill="rgb(0, 0, 0)" stroke="rgb(189, 189, 189)" stroke-width="1px" opacity="0.25"></line><line x1="144.4140625" y1="0" x2="144.4140625" y2="177" fill="rgb(0, 0, 0)" stroke="rgb(189, 189, 189)" stroke-width="1px" opacity="0.25"></line><line x1="168.48307291666669" y1="0" x2="168.48307291666669" y2="177" fill="rgb(0, 0, 0)" stroke="rgb(189, 189, 189)" stroke-width="1px" opacity="0.25"></line><line x1="192.55208333333331" y1="0" x2="192.55208333333331" y2="177" fill="rgb(0, 0, 0)" stroke="rgb(189, 189, 189)" stroke-width="1px" opacity="0.25"></line><line x1="216.62109375" y1="0" x2="216.62109375" y2="177" fill="rgb(0, 0, 0)" stroke="rgb(189, 189, 189)" stroke-width="1px" opacity="0.25"></line><line x1="240.69010416666669" y1="0" x2="240.69010416666669" y2="177" fill="rgb(0, 0, 0)" stroke="rgb(189, 189, 189)" stroke-width="1px" opacity="0.25"></line><line x1="264.7591145833333" y1="0" x2="264.7591145833333" y2="177" fill="rgb(0, 0, 0)" stroke="rgb(189, 189, 189)" stroke-width="1px" opacity="0.25"></line><line x1="288.828125" y1="0" x2="288.828125" y2="177" fill="rgb(0, 0, 0)" stroke="rgb(189, 189, 189)" stroke-width="1px" opacity="0.25"></line></g><g><line x1="0" y1="177" x2="288.828125" y2="177" fill="rgb(0, 0, 0)" stroke="rgb(189, 189, 189)" stroke-width="1px" opacity="0.25"></line><line x1="0" y1="154.875" x2="288.828125" y2="154.875" fill="rgb(0, 0, 0)" stroke="rgb(189, 189, 189)" stroke-width="1px" opacity="0.25"></line><line x1="0" y1="132.75" x2="288.828125" y2="132.75" fill="rgb(0, 0, 0)" stroke="rgb(189, 189, 189)" stroke-width="1px" opacity="0.25"></line><line x1="0" y1="110.625" x2="288.828125" y2="110.625" fill="rgb(0, 0, 0)" stroke="rgb(189, 189, 189)" stroke-width="1px" opacity="0.25"></line><line x1="0" y1="88.5" x2="288.828125" y2="88.5" fill="rgb(0, 0, 0)" stroke="rgb(189, 189, 189)" stroke-width="1px" opacity="0.25"></line><line x1="0" y1="66.375" x2="288.828125" y2="66.375" fill="rgb(0, 0, 0)" stroke="rgb(189, 189, 189)" stroke-width="1px" opacity="0.25"></line><line x1="0" y1="44.24999999999998" x2="288.828125" y2="44.24999999999998" fill="rgb(0, 0, 0)" stroke="rgb(189, 189, 189)" stroke-width="1px" opacity="0.25"></line><line x1="0" y1="22.12500000000002" x2="288.828125" y2="22.12500000000002" fill="rgb(0, 0, 0)" stroke="rgb(189, 189, 189)" stroke-width="1px" opacity="0.25"></line><line x1="0" y1="0" x2="288.828125" y2="0" fill="rgb(0, 0, 0)" stroke="rgb(189, 189, 189)" stroke-width="1px" opacity="0.25"></line></g></g></g><g><g><line x1="0" y1="243.375" x2="288.828125" y2="243.375" fill="rgb(0, 0, 0)" stroke="rgb(153, 153, 153)" stroke-width="1.5px"></line></g></g><g><g><line x1="24.069010416666664" y1="0" x2="24.069010416666664" y2="177" fill="rgb(0, 0, 0)" stroke="rgb(153, 153, 153)" stroke-width="1.5px"></line></g></g><g><g><g><g><g><path stroke="rgb(255, 112, 67)" stroke-width="2px" d="M31.289713541666668,-26.97500536614827L32.4931640625,13.960902210652398L33.696614583333336,32.37971391484863L34.900065104166664,36.00514052506194L36.103515625,31.596047141286892L37.306966145833336,45.35881154203365L38.510416666666664,44.528061990985776L39.7138671875,57.715718252874986L40.917317708333336,66.88449725820529L42.12076822916667,47.666856872568935L43.32421875,54.49948483445908L44.527669270833336,62.14076091882314L45.731119791666664,64.41293297067143L46.9345703125,67.40063243020742L48.13802083333333,61.66974523994635L49.341471354166664,62.72574977196765L50.544921875,80.15941929783966L51.748372395833336,46.361992824986054L52.951822916666664,56.5861870396346L54.1552734375,59.723439680887836L55.358723958333336,82.90037161535157L56.562174479166664,89.99607414514928L57.765625,73.5843761005884L58.969075520833336,80.7990187667287L60.17252604166667,73.43511560855647L61.3759765625,64.2633983563821L62.579427083333336,85.0236276025394L63.782877604166664,89.10307777542177L64.986328125,66.38169639944775L66.18977864583333,82.36483258448281L67.39322916666667,91.24337887052492L68.5966796875,74.30883090913846L69.80013020833333,70.90590307176491L71.00358072916666,76.35592283068598L72.20703125,69.23870993055299L73.41048177083333,58.960830342855395L74.61393229166667,88.88674901798225L75.8173828125,98.35994790991398L77.02083333333333,123.61078228196014L78.22428385416666,110.7525408352391L79.427734375,111.48384873186002L80.63118489583333,117.86986029240214L81.83463541666667,98.61214773070924L83.0380859375,95.24616779210866L84.24153645833334,120.15285797331619L85.44498697916667,117.74867417461832L86.6484375,106.79309816981441L87.85188802083333,117.8463286330004L89.05533854166667,124.25517086802795L90.2587890625,106.55310047040587L91.46223958333333,118.85158612353194L92.66569010416667,131.6504507066195L93.869140625,122.54238962539219L95.07259114583333,137.45643991475336L96.27604166666666,127.70782547739118L97.4794921875,87.82482349006399L98.68294270833333,68.14192842917448L99.88639322916667,90.25071297572161L101.08984375,95.98087832621403L102.29329427083334,114.4772456663351L103.49674479166667,118.06800265178086L104.7001953125,137.19712594190244L105.90364583333333,134.64051210903528L107.10709635416667,146.96097001447322L108.310546875,127.0730924964788L109.51399739583333,99.86297917132629L110.71744791666667,104.98889361479908L111.9208984375,120.11814059709926L113.12434895833333,117.36196898159636L114.32779947916666,127.19343154869827L115.53125,113.56033572699042L116.73470052083333,104.32249036517985L117.93815104166667,92.82441170863657L119.1416015625,54.603413926674996L120.34505208333334,92.91698266393787L121.54850260416667,110.46723105208187L122.751953125,121.9685887467629L123.95540364583333,142.14188243578474L125.15885416666667,144.82745563465713L126.3623046875,138.06908983873342L127.56575520833333,115.86823803119071L128.76920572916669,114.51974962909345L129.97265625,137.04679912781313L131.17610677083334,123.97342826399561L132.37955729166666,115.56020567699287L133.5830078125,129.43702577581416L134.78645833333334,128.56838056463246L135.98990885416666,148.30706030141263L137.193359375,130.04111162430615L138.39680989583334,129.2525655484591L139.60026041666666,132.29333377220598L140.8037109375,132.1491078277729L142.00716145833331,118.31618355752838L143.21061197916666,120.87826229954847L144.4140625,137.3004830111568L145.61751302083334,132.57406993684205L146.82096354166666,121.30049902187007L148.0244140625,135.72068221262825L149.22786458333334,134.43529637391407L150.43131510416669,137.16741863033198L151.634765625,142.585694084412L152.83821614583334,138.6773695050753L154.04166666666666,147.34848367268305L155.2451171875,132.58405633625068L156.44856770833331,118.8918387225668L157.65201822916666,137.92333817073109L158.85546875,130.5134814774299L160.05891927083334,139.46654657395507L161.26236979166666,155.21052383406058L162.4658203125,157.45434414758142L163.66927083333334,151.4509053970209L164.87272135416666,161.38332574336715L166.076171875,151.62351401012532L167.27962239583334,156.90468661404486L168.48307291666669,160.18308666894933L169.6865234375,148.90740924209416L170.88997395833334,157.72010479348936L172.09342447916666,127.65117713795921L173.296875,135.7441401778866L174.50032552083331,133.54815661306435L175.70377604166666,155.62643532690558L176.9072265625,127.95885798774452L178.11067708333334,114.00079145099099L179.31412760416666,123.59003071525918L180.517578125,138.85805370234982L181.72102864583334,154.5338226576062L182.92447916666666,168.23541392799686L184.1279296875,166.90755421469493L185.33138020833334,161.18618300884893L186.53483072916669,160.01327524977881L187.73828125,155.36796320317958L188.94173177083334,153.54899634324772L190.14518229166666,141.45248988511122L191.3486328125,129.22329953457094L192.55208333333331,149.54770332363353L193.75553385416666,126.09199304453794L194.958984375,146.79277437968412L196.16243489583334,143.04837795521829L197.36588541666666,152.13302037671812L198.5693359375,163.06039352748164L199.77278645833334,167.24369544108728L200.97623697916666,167.57233818960202L202.1796875,171.0480724519015L203.38313802083334,171.92334370884424L204.58658854166669,173.70647000117972L205.7900390625,151.77047167923376L206.99348958333334,147.63567206684544L208.19694010416666,136.8962560798156L209.400390625,149.21069880160258L210.60384114583331,156.0243565787826L211.80729166666666,140.4506174355718L213.0107421875,145.2001590567811L214.21419270833334,158.27959957051178L215.41764322916666,136.07849304871502L216.62109375,136.04066832957707L217.82454427083334,143.78948640881802L219.02799479166666,141.5626447234084L220.2314453125,141.0586384197193L221.43489583333334,133.7386764204572L222.63834635416669,128.41292203760568L223.841796875,137.84345631180062L225.04524739583334,142.02130018399868L226.24869791666666,145.75262406305498L227.4521484375,156.01647734544295L228.65559895833331,151.40534782947074L229.85904947916666,151.7659498783408L231.0625,160.5232925195967L232.26595052083334,166.4309079992458L233.46940104166666,150.45493487403897L234.6728515625,147.71238547495668L235.87630208333334,141.43486862141887L237.07975260416666,138.967762534374L238.283203125,142.00110166046264L239.48665364583334,147.50950100882793L240.69010416666669,159.1691822639939L241.8935546875,141.1244291026495L243.09700520833334,142.10426257902992L244.30045572916666,152.15544283601412L245.50390625,146.56580274529915L246.70735677083331,161.08804475502765L247.91080729166666,155.2623701824939L249.1142578125,158.78764118756033L250.31770833333334,167.12391709986434L251.52115885416666,163.44012373210847L252.724609375,169.38009586645282L253.92805989583334,175.7787171167917L255.13151041666666,168.67187002377435L256.3349609375,164.1934908186002L257.53841145833337,161.95729739097376L258.7418619791667,156.86548629479182L259.9453125,154.83824609265668L261.1487630208333,154.64618515697683L262.3522135416667,155.55088253454903L263.5556640625,141.07619284174763L264.7591145833333,156.78889335442736" style="fill: none;" fill="none"></path></g><g><path stroke="rgb(0, 119, 187)" stroke-width="2px" d="M72.20703125,-42.885136626934695L84.24153645833334,12.6870641264959L96.27604166666666,45.46546134409103L108.310546875,61.276323234412274L120.34505208333334,70.96758113471031L132.37955729166666,65.6106210670936L144.4140625,75.70505667786144L156.44856770833331,85.00908862380612L168.48307291666669,85.93129169102097L180.517578125,87.03342213198738L192.55208333333331,92.40386068212653L204.58658854166669,88.94048762821707L216.62109375,84.37110419806162L228.65559895833331,80.72935952342733L240.69010416666669,75.75674430452673L252.724609375,79.68456910544495" style="fill: none;" fill="none"></path></g></g></g></g><g opacity="0.2"><g><g><g><path stroke="rgb(255, 112, 67)" stroke-width="2px" d="M28.8828125,-6.039972066879233L30.086263020833336,32.25737312436106L31.289713541666668,-44.15150499343868L32.4931640625,72.49990501999855L33.696614583333336,59.234518200159094L34.900065104166664,41.35194057226183L36.103515625,25.049057319760344L37.306966145833336,65.87813088297845L38.510416666666664,43.28645856678488L39.7138671875,77.45414265990257L40.917317708333336,80.61970317363739L42.12076822916667,18.86298590898516L43.32421875,64.74360787868501L44.527669270833336,73.59944151341915L45.731119791666664,67.82061414420605L46.9345703125,71.88172647356987L48.13802083333333,53.07393828034403L49.341471354166664,64.30969865620138L50.544921875,106.30934992432594L51.748372395833336,-4.3334796130656805L52.951822916666664,71.92235724627972L54.1552734375,64.42929634451868L55.358723958333336,117.66567067801952L56.562174479166664,100.63960978388786L57.765625,48.966854229569456L58.969075520833336,91.62097612023354L60.17252604166667,62.38926494121554L61.3759765625,50.50582551956179L62.579427083333336,116.16396734118462L63.782877604166664,95.22225254774094L64.986328125,32.29962596297266L66.18977864583333,106.3395361751318L67.39322916666667,104.56119807064533L68.5966796875,48.90700922906401L69.80013020833333,65.80151134729387L71.00358072916666,84.53095243871212L72.20703125,58.562890604138396L73.41048177083333,43.5440109819174L74.61393229166667,133.77562699466944L75.8173828125,112.56974624097347L77.02083333333333,161.48703382909298L78.22428385416666,91.465178668499L79.427734375,112.58081057667732L80.63118489583333,127.44887763261795L81.83463541666667,69.72557888925076L83.0380859375,90.19719788432121L84.24153645833334,157.51289324462414L85.44498697916667,114.14239847660065L86.6484375,90.35973416268826L87.85188802083333,134.42617432773113L89.05533854166667,133.86843422055244L90.2587890625,79.99999487400055L91.46223958333333,137.2993146032095L92.66569010416667,150.84874758124352L93.869140625,108.88029800355434L95.07259114583333,159.82751534879208L96.27604166666666,113.08490382134914L97.4794921875,28.00032050907614L98.68294270833333,38.617585837841055L99.88639322916667,123.41388979554176L101.08984375,104.57612635195255L102.29329427083334,142.22179667651653L103.49674479166667,123.45413812994957L104.7001953125,165.89081087708473L105.90364583333333,130.80559135973454L107.10709635416667,165.44165687263012L108.310546875,97.24127621948719L109.51399739583333,59.047809183597586L110.71744791666667,112.67776528000832L111.9208984375,142.8120110705495L113.12434895833333,113.22771155834198L114.32779947916666,141.94062539935112L115.53125,93.11069199442863L116.73470052083333,90.46572232246399L117.93815104166667,75.57729372382164L119.1416015625,-2.7280827462672796L120.34505208333334,150.38733576983213L121.54850260416667,136.79260363429785L122.751953125,139.2206252887845L123.95540364583333,172.40182296931744L125.15885416666667,148.85581543296576L126.3623046875,127.93154114484787L127.56575520833333,82.56696031987667L128.76920572916669,112.49701702594757L129.97265625,170.83737337589264L131.17610677083334,104.36337196826935L132.37955729166666,102.94037179648876L133.5830078125,150.25225592404604L134.78645833333334,127.26541274785995L135.98990885416666,177.91507990658283L137.193359375,102.64218860864639L138.39680989583334,128.06974643468857L139.60026041666666,136.85448610782623L140.8037109375,131.93276891112328L142.00716145833331,97.5667971521616L143.21061197916666,124.72138041257858L144.4140625,161.9338140785694L145.61751302083334,125.48445032536983L146.82096354166666,104.39014264941216L148.0244140625,157.35095699876547L149.22786458333334,132.50721761584282L150.43131510416669,141.26560201495886L151.634765625,150.71310726553202L152.83821614583334,132.81488263607025L154.04166666666666,160.35515492409468L155.2451171875,110.4374153316021L156.44856770833331,98.35351230204105L157.65201822916666,166.47058734297752L158.85546875,119.39869643747807L160.05891927083334,152.89614421874285L161.26236979166666,178.82648972421885L162.4658203125,160.8200746178627L163.66927083333334,142.44574727118015L164.87272135416666,176.28195626288652L166.076171875,136.98379641026258L167.27962239583334,164.82644551992416L168.48307291666669,165.10068675130606L169.6865234375,131.9938931018114L170.88997395833334,170.9391481205821L172.09342447916666,82.54778565466404L173.296875,147.8835847377777L174.50032552083331,130.254181265831L175.70377604166666,188.7438533976674L176.9072265625,86.45749197900295L178.11067708333334,93.06369164586067L179.31412760416666,137.97388961166143L180.517578125,161.76008818298578L181.72102864583334,178.04747609049082L182.92447916666666,188.78780083358288L184.1279296875,164.915764644742L185.33138020833334,152.60412620007992L186.53483072916669,158.25391361117363L187.73828125,148.39999513328075L188.94173177083334,150.82054605334997L190.14518229166666,123.3077301979065L191.3486328125,110.87951400876045L192.55208333333331,180.03430900722742L193.75553385416666,90.90842762589455L194.958984375,177.84394638240337L196.16243489583334,137.4317833185196L197.36588541666666,165.75998400896788L198.5693359375,179.45145325362682L199.77278645833334,173.51864831149578L200.97623697916666,168.06530231237411L202.1796875,176.26167384535074L203.38313802083334,173.2362505942583L204.58658854166669,176.38115943968296L205.7900390625,118.86647419631481L206.99348958333334,141.43347264826298L208.19694010416666,120.78713209927082L209.400390625,167.68236288428307L210.60384114583331,166.2448432445526L211.80729166666666,117.09000872075558L213.0107421875,152.324471488595L214.21419270833334,177.89876034110785L215.41764322916666,102.77683326601982L216.62109375,135.98393125087023L217.82454427083334,155.41271352767944L219.02799479166666,138.2223821952939L220.2314453125,140.30262896418571L221.43489583333334,122.7587334215641L222.63834635416669,120.42429046332836L223.841796875,151.98925772309303L225.04524739583334,148.28806599229574L226.24869791666666,151.34960988163948L227.4521484375,171.41225726902485L228.65559895833331,144.48865355551243L229.85904947916666,152.30685295164585L231.0625,173.6593064814806L232.26595052083334,175.29233121871948L233.46940104166666,126.49097518622875L234.6728515625,143.59856137633324L235.87630208333334,132.01859334111214L237.07975260416666,135.2671034038067L238.283203125,146.55111034959555L239.48665364583334,155.77210003137589L240.69010416666669,176.65870414674282L241.8935546875,114.0572993606329L243.09700520833334,143.57401279360056L244.30045572916666,167.23221322149038L245.50390625,138.1813426092267L246.70735677083331,182.87140776962042L247.91080729166666,146.52385832369328L249.1142578125,164.0755476951599L250.31770833333334,179.62833096832037L251.52115885416666,157.91443368047476L252.724609375,178.29005406796932L253.92805989583334,185.37664899230003L255.13151041666666,158.01159938424826L256.3349609375,157.47592201083899L257.53841145833337,158.60300724953413L258.7418619791667,149.2277696505189L259.9453125,151.79738578945398L261.1487630208333,154.35809375345707L262.3522135416667,156.90792860090733L263.5556640625,119.36415830254555L264.7591145833333,180.35794412344694" style="fill: none;" fill="none"></path></g><g><path stroke="rgb(0, 119, 187)" stroke-width="2px" d="M60.17252604166667,-15.332273304462394L72.20703125,71.42225982248783L84.24153645833334,85.24212943017483L96.27604166666666,90.80978491902351L108.310546875,83.88610871136189L120.34505208333334,85.0975281894207L132.37955729166666,57.71014550328257L144.4140625,90.69411711394787L156.44856770833331,98.88074965775013L168.48307291666669,87.30957770347595L180.517578125,88.6830191463232L192.55208333333331,100.44899725914001L204.58658854166669,83.74949911236763L216.62109375,77.52025173604488L228.65559895833331,75.26828357577324L240.69010416666669,68.29908402264118L252.724609375,85.57570794224739" style="fill: none;" fill="none"></path></g></g></g></g></g></g><g transform="translate(41, 177)" clip-path="url(#clip_1)"><clipPath id="clip_1"><rect width="288" height="23"></rect></clipPath><g><g><line x1="0" y1="0" x2="0" y2="5" style="visibility: inherit;" fill="rgb(0, 0, 0)" stroke="rgb(204, 204, 204)" stroke-width="1px"></line><line x1="24.069010416666664" y1="0" x2="24.069010416666664" y2="5" style="visibility: inherit;" fill="rgb(0, 0, 0)" stroke="rgb(204, 204, 204)" stroke-width="1px"></line><line x1="48.13802083333333" y1="0" x2="48.13802083333333" y2="5" style="visibility: inherit;" fill="rgb(0, 0, 0)" stroke="rgb(204, 204, 204)" stroke-width="1px"></line><line x1="72.20703125" y1="0" x2="72.20703125" y2="5" style="visibility: inherit;" fill="rgb(0, 0, 0)" stroke="rgb(204, 204, 204)" stroke-width="1px"></line><line x1="96.27604166666666" y1="0" x2="96.27604166666666" y2="5" style="visibility: inherit;" fill="rgb(0, 0, 0)" stroke="rgb(204, 204, 204)" stroke-width="1px"></line><line x1="120.34505208333334" y1="0" x2="120.34505208333334" y2="5" style="visibility: inherit;" fill="rgb(0, 0, 0)" stroke="rgb(204, 204, 204)" stroke-width="1px"></line><line x1="144.4140625" y1="0" x2="144.4140625" y2="5" style="visibility: inherit;" fill="rgb(0, 0, 0)" stroke="rgb(204, 204, 204)" stroke-width="1px"></line><line x1="168.48307291666669" y1="0" x2="168.48307291666669" y2="5" style="visibility: inherit;" fill="rgb(0, 0, 0)" stroke="rgb(204, 204, 204)" stroke-width="1px"></line><line x1="192.55208333333331" y1="0" x2="192.55208333333331" y2="5" style="visibility: inherit;" fill="rgb(0, 0, 0)" stroke="rgb(204, 204, 204)" stroke-width="1px"></line><line x1="216.62109375" y1="0" x2="216.62109375" y2="5" style="visibility: inherit;" fill="rgb(0, 0, 0)" stroke="rgb(204, 204, 204)" stroke-width="1px"></line><line x1="240.69010416666669" y1="0" x2="240.69010416666669" y2="5" style="visibility: inherit;" fill="rgb(0, 0, 0)" stroke="rgb(204, 204, 204)" stroke-width="1px"></line><line x1="264.7591145833333" y1="0" x2="264.7591145833333" y2="5" style="visibility: inherit;" fill="rgb(0, 0, 0)" stroke="rgb(204, 204, 204)" stroke-width="1px"></line><line x1="288.828125" y1="0" x2="288.828125" y2="5" style="visibility: inherit;" fill="rgb(0, 0, 0)" stroke="rgb(204, 204, 204)" stroke-width="1px"></line></g><g transform="translate(0, 8)"><text x="0" y="0" dx="0em" dy="0.95em" style="text-anchor: middle; visibility: hidden; font-family: Roboto, sans-serif; font-size: 12px; font-weight: 200;" fill="rgb(255, 255, 255)" stroke="none" stroke-width="1px">-2k</text><text x="24.069010416666664" y="0" dx="0em" dy="0.95em" style="text-anchor: middle; visibility: inherit; font-family: Roboto, sans-serif; font-size: 12px; font-weight: 200;" fill="rgb(255, 255, 255)" stroke="none" stroke-width="1px">0</text><text x="48.13802083333333" y="0" dx="0em" dy="0.95em" style="text-anchor: middle; visibility: hidden; font-family: Roboto, sans-serif; font-size: 12px; font-weight: 200;" fill="rgb(255, 255, 255)" stroke="none" stroke-width="1px">2k</text><text x="72.20703125" y="0" dx="0em" dy="0.95em" style="text-anchor: middle; visibility: inherit; font-family: Roboto, sans-serif; font-size: 12px; font-weight: 200;" fill="rgb(255, 255, 255)" stroke="none" stroke-width="1px">4k</text><text x="96.27604166666666" y="0" dx="0em" dy="0.95em" style="text-anchor: middle; visibility: hidden; font-family: Roboto, sans-serif; font-size: 12px; font-weight: 200;" fill="rgb(255, 255, 255)" stroke="none" stroke-width="1px">6k</text><text x="120.34505208333334" y="0" dx="0em" dy="0.95em" style="text-anchor: middle; visibility: inherit; font-family: Roboto, sans-serif; font-size: 12px; font-weight: 200;" fill="rgb(255, 255, 255)" stroke="none" stroke-width="1px">8k</text><text x="144.4140625" y="0" dx="0em" dy="0.95em" style="text-anchor: middle; visibility: hidden; font-family: Roboto, sans-serif; font-size: 12px; font-weight: 200;" fill="rgb(255, 255, 255)" stroke="none" stroke-width="1px">10k</text><text x="168.48307291666669" y="0" dx="0em" dy="0.95em" style="text-anchor: middle; visibility: inherit; font-family: Roboto, sans-serif; font-size: 12px; font-weight: 200;" fill="rgb(255, 255, 255)" stroke="none" stroke-width="1px">12k</text><text x="192.55208333333331" y="0" dx="0em" dy="0.95em" style="text-anchor: middle; visibility: hidden; font-family: Roboto, sans-serif; font-size: 12px; font-weight: 200;" fill="rgb(255, 255, 255)" stroke="none" stroke-width="1px">14k</text><text x="216.62109375" y="0" dx="0em" dy="0.95em" style="text-anchor: middle; visibility: inherit; font-family: Roboto, sans-serif; font-size: 12px; font-weight: 200;" fill="rgb(255, 255, 255)" stroke="none" stroke-width="1px">16k</text><text x="240.69010416666669" y="0" dx="0em" dy="0.95em" style="text-anchor: middle; visibility: hidden; font-family: Roboto, sans-serif; font-size: 12px; font-weight: 200;" fill="rgb(255, 255, 255)" stroke="none" stroke-width="1px">18k</text><text x="264.7591145833333" y="0" dx="0em" dy="0.95em" style="text-anchor: middle; visibility: inherit; font-family: Roboto, sans-serif; font-size: 12px; font-weight: 200;" fill="rgb(255, 255, 255)" stroke="none" stroke-width="1px">20k</text><text x="288.828125" y="0" dx="0em" dy="0.95em" style="text-anchor: middle; visibility: hidden; font-family: Roboto, sans-serif; font-size: 12px; font-weight: 200;" fill="rgb(255, 255, 255)" stroke="none" stroke-width="1px">22k</text></g><line x1="0" y1="0" x2="288.828125" y2="0" fill="rgb(0, 0, 0)" stroke="rgb(204, 204, 204)" stroke-width="1px"></line></g></g></g></g></svg>