<svg viewBox="0 0 330 200" xmlns="http://www.w3.org/2000/svg"><g><g><g><g><g><line x1="61.953125" y1="177" x2="56.953125" y2="177" style="visibility: inherit;" fill="rgb(0, 0, 0)" stroke="rgb(204, 204, 204)" stroke-width="1px"></line><line x1="61.953125" y1="160.9090909090909" x2="56.953125" y2="160.9090909090909" style="visibility: inherit;" fill="rgb(0, 0, 0)" stroke="rgb(204, 204, 204)" stroke-width="1px"></line><line x1="61.953125" y1="144.8181818181818" x2="56.953125" y2="144.8181818181818" style="visibility: inherit;" fill="rgb(0, 0, 0)" stroke="rgb(204, 204, 204)" stroke-width="1px"></line><line x1="61.953125" y1="128.72727272727272" x2="56.953125" y2="128.72727272727272" style="visibility: inherit;" fill="rgb(0, 0, 0)" stroke="rgb(204, 204, 204)" stroke-width="1px"></line><line x1="61.953125" y1="112.63636363636364" x2="56.953125" y2="112.63636363636364" style="visibility: inherit;" fill="rgb(0, 0, 0)" stroke="rgb(204, 204, 204)" stroke-width="1px"></line><line x1="61.953125" y1="96.54545454545453" x2="56.953125" y2="96.54545454545453" style="visibility: inherit;" fill="rgb(0, 0, 0)" stroke="rgb(204, 204, 204)" stroke-width="1px"></line><line x1="61.953125" y1="80.45454545454547" x2="56.953125" y2="80.45454545454547" style="visibility: inherit;" fill="rgb(0, 0, 0)" stroke="rgb(204, 204, 204)" stroke-width="1px"></line><line x1="61.953125" y1="64.36363636363635" x2="56.953125" y2="64.36363636363635" style="visibility: inherit;" fill="rgb(0, 0, 0)" stroke="rgb(204, 204, 204)" stroke-width="1px"></line><line x1="61.953125" y1="48.272727272727266" x2="56.953125" y2="48.272727272727266" style="visibility: inherit;" fill="rgb(0, 0, 0)" stroke="rgb(204, 204, 204)" stroke-width="1px"></line><line x1="61.953125" y1="32.18181818181815" x2="56.953125" y2="32.18181818181815" style="visibility: inherit;" fill="rgb(0, 0, 0)" stroke="rgb(204, 204, 204)" stroke-width="1px"></line><line x1="61.953125" y1="16.090909090909115" x2="56.953125" y2="16.090909090909115" style="visibility: inherit;" fill="rgb(0, 0, 0)" stroke="rgb(204, 204, 204)" stroke-width="1px"></line><line x1="61.953125" y1="0" x2="56.953125" y2="0" style="visibility: inherit;" fill="rgb(0, 0, 0)" stroke="rgb(204, 204, 204)" stroke-width="1px"></line></g><g transform="translate(51.953125, 0)"><text x="0" y="177" dx="0em" dy="0.3em" style="text-anchor: end; visibility: hidden; font-family: Roboto, sans-serif; font-size: 12px; font-weight: 200;" fill="rgb(255, 255, 255)" stroke="none" stroke-width="1px">3e-3</text><text x="0" y="160.9090909090909" dx="0em" dy="0.3em" style="text-anchor: end; visibility: inherit; font-family: Roboto, sans-serif; font-size: 12px; font-weight: 200;" fill="rgb(255, 255, 255)" stroke="none" stroke-width="1px">4e-3</text><text x="0" y="144.8181818181818" dx="0em" dy="0.3em" style="text-anchor: end; visibility: hidden; font-family: Roboto, sans-serif; font-size: 12px; font-weight: 200;" fill="rgb(255, 255, 255)" stroke="none" stroke-width="1px">5e-3</text><text x="0" y="128.72727272727272" dx="0em" dy="0.3em" style="text-anchor: end; visibility: inherit; font-family: Roboto, sans-serif; font-size: 12px; font-weight: 200;" fill="rgb(255, 255, 255)" stroke="none" stroke-width="1px">6e-3</text><text x="0" y="112.63636363636364" dx="0em" dy="0.3em" style="text-anchor: end; visibility: hidden; font-family: Roboto, sans-serif; font-size: 12px; font-weight: 200;" fill="rgb(255, 255, 255)" stroke="none" stroke-width="1px">7e-3</text><text x="0" y="96.54545454545453" dx="0em" dy="0.3em" style="text-anchor: end; visibility: inherit; font-family: Roboto, sans-serif; font-size: 12px; font-weight: 200;" fill="rgb(255, 255, 255)" stroke="none" stroke-width="1px">8e-3</text><text x="0" y="80.45454545454547" dx="0em" dy="0.3em" style="text-anchor: end; visibility: hidden; font-family: Roboto, sans-serif; font-size: 12px; font-weight: 200;" fill="rgb(255, 255, 255)" stroke="none" stroke-width="1px">9e-3</text><text x="0" y="64.36363636363635" dx="0em" dy="0.3em" style="text-anchor: end; visibility: inherit; font-family: Roboto, sans-serif; font-size: 12px; font-weight: 200;" fill="rgb(255, 255, 255)" stroke="none" stroke-width="1px">0.01</text><text x="0" y="48.272727272727266" dx="0em" dy="0.3em" style="text-anchor: end; visibility: hidden; font-family: Roboto, sans-serif; font-size: 12px; font-weight: 200;" fill="rgb(255, 255, 255)" stroke="none" stroke-width="1px">0.011</text><text x="0" y="32.18181818181815" dx="0em" dy="0.3em" style="text-anchor: end; visibility: inherit; font-family: Roboto, sans-serif; font-size: 12px; font-weight: 200;" fill="rgb(255, 255, 255)" stroke="none" stroke-width="1px">0.012</text><text x="0" y="16.090909090909115" dx="0em" dy="0.3em" style="text-anchor: end; visibility: hidden; font-family: Roboto, sans-serif; font-size: 12px; font-weight: 200;" fill="rgb(255, 255, 255)" stroke="none" stroke-width="1px">0.013</text><text x="0" y="0" dx="0em" dy="0.3em" style="text-anchor: end; visibility: hidden; font-family: Roboto, sans-serif; font-size: 12px; font-weight: 200;" fill="rgb(255, 255, 255)" stroke="none" stroke-width="1px">0.014</text></g><line x1="61.953125" y1="0" x2="61.953125" y2="177" fill="rgb(0, 0, 0)" stroke="rgb(204, 204, 204)" stroke-width="1px"></line></g></g><g transform="translate(61, 0)" clip-path="url(#clip_0)"><clipPath id="clip_0"><rect width="268" height="177"></rect></clipPath><g><g><g><line x1="0" y1="0" x2="0" y2="177" fill="rgb(0, 0, 0)" stroke="rgb(189, 189, 189)" stroke-width="1px" opacity="0.25"></line><line x1="22.337239583333332" y1="0" x2="22.337239583333332" y2="177" fill="rgb(0, 0, 0)" stroke="rgb(189, 189, 189)" stroke-width="1px" opacity="0.25"></line><line x1="44.674479166666664" y1="0" x2="44.674479166666664" y2="177" fill="rgb(0, 0, 0)" stroke="rgb(189, 189, 189)" stroke-width="1px" opacity="0.25"></line><line x1="67.01171875" y1="0" x2="67.01171875" y2="177" fill="rgb(0, 0, 0)" stroke="rgb(189, 189, 189)" stroke-width="1px" opacity="0.25"></line><line x1="89.34895833333333" y1="0" x2="89.34895833333333" y2="177" fill="rgb(0, 0, 0)" stroke="rgb(189, 189, 189)" stroke-width="1px" opacity="0.25"></line><line x1="111.68619791666667" y1="0" x2="111.68619791666667" y2="177" fill="rgb(0, 0, 0)" stroke="rgb(189, 189, 189)" stroke-width="1px" opacity="0.25"></line><line x1="134.0234375" y1="0" x2="134.0234375" y2="177" fill="rgb(0, 0, 0)" stroke="rgb(189, 189, 189)" stroke-width="1px" opacity="0.25"></line><line x1="156.36067708333334" y1="0" x2="156.36067708333334" y2="177" fill="rgb(0, 0, 0)" stroke="rgb(189, 189, 189)" stroke-width="1px" opacity="0.25"></line><line x1="178.69791666666666" y1="0" x2="178.69791666666666" y2="177" fill="rgb(0, 0, 0)" stroke="rgb(189, 189, 189)" stroke-width="1px" opacity="0.25"></line><line x1="201.03515625" y1="0" x2="201.03515625" y2="177" fill="rgb(0, 0, 0)" stroke="rgb(189, 189, 189)" stroke-width="1px" opacity="0.25"></line><line x1="223.37239583333334" y1="0" x2="223.37239583333334" y2="177" fill="rgb(0, 0, 0)" stroke="rgb(189, 189, 189)" stroke-width="1px" opacity="0.25"></line><line x1="245.70963541666666" y1="0" x2="245.70963541666666" y2="177" fill="rgb(0, 0, 0)" stroke="rgb(189, 189, 189)" stroke-width="1px" opacity="0.25"></line><line x1="268.046875" y1="0" x2="268.046875" y2="177" fill="rgb(0, 0, 0)" stroke="rgb(189, 189, 189)" stroke-width="1px" opacity="0.25"></line></g><g><line x1="0" y1="177" x2="268.046875" y2="177" fill="rgb(0, 0, 0)" stroke="rgb(189, 189, 189)" stroke-width="1px" opacity="0.25"></line><line x1="0" y1="160.9090909090909" x2="268.046875" y2="160.9090909090909" fill="rgb(0, 0, 0)" stroke="rgb(189, 189, 189)" stroke-width="1px" opacity="0.25"></line><line x1="0" y1="144.8181818181818" x2="268.046875" y2="144.8181818181818" fill="rgb(0, 0, 0)" stroke="rgb(189, 189, 189)" stroke-width="1px" opacity="0.25"></line><line x1="0" y1="128.72727272727272" x2="268.046875" y2="128.72727272727272" fill="rgb(0, 0, 0)" stroke="rgb(189, 189, 189)" stroke-width="1px" opacity="0.25"></line><line x1="0" y1="112.63636363636364" x2="268.046875" y2="112.63636363636364" fill="rgb(0, 0, 0)" stroke="rgb(189, 189, 189)" stroke-width="1px" opacity="0.25"></line><line x1="0" y1="96.54545454545453" x2="268.046875" y2="96.54545454545453" fill="rgb(0, 0, 0)" stroke="rgb(189, 189, 189)" stroke-width="1px" opacity="0.25"></line><line x1="0" y1="80.45454545454547" x2="268.046875" y2="80.45454545454547" fill="rgb(0, 0, 0)" stroke="rgb(189, 189, 189)" stroke-width="1px" opacity="0.25"></line><line x1="0" y1="64.36363636363635" x2="268.046875" y2="64.36363636363635" fill="rgb(0, 0, 0)" stroke="rgb(189, 189, 189)" stroke-width="1px" opacity="0.25"></line><line x1="0" y1="48.272727272727266" x2="268.046875" y2="48.272727272727266" fill="rgb(0, 0, 0)" stroke="rgb(189, 189, 189)" stroke-width="1px" opacity="0.25"></line><line x1="0" y1="32.18181818181815" x2="268.046875" y2="32.18181818181815" fill="rgb(0, 0, 0)" stroke="rgb(189, 189, 189)" stroke-width="1px" opacity="0.25"></line><line x1="0" y1="16.090909090909115" x2="268.046875" y2="16.090909090909115" fill="rgb(0, 0, 0)" stroke="rgb(189, 189, 189)" stroke-width="1px" opacity="0.25"></line><line x1="0" y1="0" x2="268.046875" y2="0" fill="rgb(0, 0, 0)" stroke="rgb(189, 189, 189)" stroke-width="1px" opacity="0.25"></line></g></g></g><g><g><line x1="0" y1="225.27272727272728" x2="268.046875" y2="225.27272727272728" fill="rgb(0, 0, 0)" stroke="rgb(153, 153, 153)" stroke-width="1.5px"></line></g></g><g><g><line x1="22.337239583333332" y1="0" x2="22.337239583333332" y2="177" fill="rgb(0, 0, 0)" stroke="rgb(153, 153, 153)" stroke-width="1.5px"></line></g></g><g><g><g><g><g><path stroke="rgb(255, 112, 67)" stroke-width="2px" d="M27.921549479166668,-20.350908126919183L29.038411458333336,15.990865754847045L30.1552734375,-1.4195558979958443L31.272135416666668,29.651892923557767L32.388997395833336,45.126921786247735L33.505859375,64.86814836501452L34.62272135416667,79.2389689030329L35.739583333333336,21.357605939140193L36.8564453125,73.6465484037241L37.973307291666664,71.20614907942614L39.090169270833336,93.09357930091353L40.20703125,44.60451000001872L41.32389322916667,85.41486123887958L42.44075520833333,85.57758753845859L43.5576171875,30.512199569684515L44.674479166666664,12.64924446949229L45.791341145833336,56.76295389154288L46.908203125,74.53532431625949L48.025065104166664,51.079858573883364L49.14192708333333,52.79447298379319L50.2587890625,71.76125926618049L51.37565104166667,67.99996586005939L52.492513020833336,74.74481170120052L53.609375,59.23742259471568L54.726236979166664,62.16733888523981L55.843098958333336,76.43326509024455L56.9599609375,90.98367962492716L58.07682291666667,56.213736739155635L59.19368489583333,87.66291506752405L60.310546875,108.58514076543942L61.427408854166664,106.82517961370331L62.544270833333336,100.85812563175347L63.6611328125,106.14723699424799L64.77799479166667,96.98989183400069L65.89485677083333,98.20268831516964L67.01171875,102.71062795608867L68.12858072916666,109.54150239611043L69.24544270833334,107.39931731802528L70.3623046875,130.69208711324347L71.47916666666667,115.70638871275791L72.59602864583333,104.74561023133174L73.712890625,127.08808453173016L74.82975260416667,106.07792832620869L75.94661458333333,103.14474827009205L77.0634765625,83.79750377863884L78.18033854166667,75.71287646245523L79.29720052083333,93.72804119439472L80.4140625,113.08090761039527L81.53092447916666,106.67611790058393L82.64778645833334,135.11877694650735L83.7646484375,121.2360727896206L84.88151041666666,135.34023613569423L85.99837239583334,129.08745238792218L87.115234375,123.13258085682877L88.23209635416667,116.54693727337923L89.34895833333333,128.94544491474238L90.4658203125,138.58274551581198L91.58268229166667,134.35809121097176L92.69954427083333,88.49519696599496L93.81640625,113.19392874711163L94.93326822916667,120.78853963890268L96.05013020833333,47.66685397888541L97.1669921875,76.62784750183528L98.28385416666666,96.96478881544479L99.40071614583334,125.43403571568984L100.517578125,118.65870493173794L101.63444010416666,133.55543886990557L102.75130208333334,143.55254859874645L103.8681640625,122.79769668235018L104.98502604166667,110.32777362183549L106.10188802083333,114.4273373552474L107.21875,116.57522353503617L108.33561197916667,108.23562740857419L109.45247395833333,107.45446813367994L110.5693359375,123.79546749491318L111.68619791666667,137.63065211279124L112.80305989583333,138.06154228737802L113.919921875,129.70579450544952L115.03678385416666,99.3453152501527L116.15364583333334,104.80131120553546L117.2705078125,126.52865381472776L118.38736979166666,127.11751686931642L119.50423177083334,135.25081364588897L120.62109375,129.23926057492957L121.73795572916667,140.03838094720945L122.85481770833333,156.09839270156718L123.9716796875,105.59792341728809L125.08854166666667,98.6851406955382L126.20540364583333,112.49678271778751L127.322265625,127.58288254518489L128.43912760416669,128.0366880183713L129.55598958333334,99.91230396540738L130.6728515625,122.60703009704541L131.78971354166666,56.07459240487364L132.90657552083334,12.05232209435518L134.0234375,62.90063527737723L135.14029947916666,88.4518800626621L136.25716145833331,107.22299514320592L137.3740234375,68.28643802007657L138.49088541666669,92.30559422059862L139.60774739583334,103.89355434901286L140.724609375,112.27112290273712L141.84147135416666,107.35663893974188L142.95833333333334,114.41738995122368L144.0751953125,122.91574378584298L145.19205729166666,112.05742502186473L146.30891927083331,133.56374659868075L147.42578125,122.68878922912312L148.54264322916669,112.99359609922558L149.65950520833334,133.75699871386922L150.7763671875,149.33584622383887L151.89322916666666,116.39049278186046L153.01009114583331,134.62880330443335L154.126953125,150.8689752086371L155.24381510416669,146.11094750441242L156.36067708333334,129.8626170404924L157.4775390625,140.2724601722842L158.59440104166666,144.0955384844701L159.71126302083334,156.23964740791521L160.828125,151.94516765084842L161.94498697916666,161.89024261233578L163.06184895833331,162.92202919935426L164.1787109375,164.22357219220163L165.29557291666669,140.1218991570151L166.41243489583334,123.67090040969435L167.529296875,148.29565905098397L168.64615885416666,133.41069304954303L169.76302083333331,145.14931080212605L170.8798828125,164.83844905047906L171.99674479166669,156.85702963739212L173.11360677083334,160.0426879521204L174.23046875,151.71738148700604L175.34733072916666,146.48538557721022L176.46419270833334,131.92308563758638L177.5810546875,152.20307397149736L178.69791666666666,153.56126553759253L179.81477864583331,141.79643599873134L180.931640625,124.21711016109792L182.04850260416669,124.39869234414171L183.16536458333334,150.2429610089627L184.2822265625,143.4473988454875L185.39908854166666,140.40472199851658L186.51595052083331,153.23596191239804L187.6328125,148.90999744678462L188.74967447916669,145.08928845662646L189.86653645833334,159.54329232335172L190.9833984375,164.49330216358246L192.10026041666666,160.60417371842618L193.21712239583334,164.6608120837737L194.333984375,156.37769299666024L195.45084635416666,152.61648243143847L196.56770833333331,133.37673509241318L197.6845703125,121.77997772860685L198.80143229166669,141.6489856296099L199.91829427083334,131.56283891112415L201.03515625,154.79804077278152L202.15201822916666,150.5103915798861L203.26888020833331,134.81335874443803L204.3857421875,160.29805073145496L205.50260416666669,142.35738045372105L206.61946614583334,149.54156308749745L207.736328125,168.41192067745666L208.85319010416666,173.23290963344508L209.97005208333334,168.2516138804772L211.0869140625,165.74741812676734L212.20377604166666,163.32080865133136L213.32063802083331,136.92799843902566L214.4375,157.07513790177052L215.55436197916669,166.01037662886174L216.67122395833334,139.70566442218072L217.7880859375,146.83259378030795L218.90494791666666,114.84503446313676L220.02180989583331,112.741874286111L221.138671875,137.3585620398865L222.25553385416669,136.9102606886138L223.37239583333334,145.8076216438879L224.4892578125,158.25159350927126L225.60611979166666,150.70313568662513L226.72298177083334,151.84065470926328L227.83984375,169.32375341272814L228.95670572916666,168.96654069980767L230.07356770833331,166.7532026723941L231.1904296875,168.5041069237488L232.30729166666669,135.2500896341642L233.42415364583334,141.73830356046525L234.541015625,160.69676541471733L235.65787760416666,167.78867890694022L236.77473958333331,173.34169851675145L237.8916015625,138.934143473224L239.00846354166669,102.82389542756718L240.12532552083334,133.8685808727176L241.2421875,128.07014426095563L242.35904947916666,138.41976956212307L243.47591145833334,163.92028717332084L244.5927734375,161.54530646731257L245.70963541666666,165.7993979508919" style="fill: none;" fill="none"></path></g><g><path stroke="rgb(0, 119, 187)" stroke-width="2px" d="M22.337239583333332,-56.67127907005226L33.505859375,7.4316163290799695L44.674479166666664,56.32858318946772L55.843098958333336,91.06816490308535L67.01171875,112.39225418483399L78.18033854166667,126.43504164111415L89.34895833333333,138.76186305855154L100.517578125,142.85997724718166L111.68619791666667,144.13749093763542L122.85481770833333,131.05554668010072L134.0234375,139.51445248205107L145.19205729166666,145.59829519755942L156.36067708333334,149.6825040338455L167.529296875,151.61898713919257L178.69791666666666,153.35652536555486L189.86653645833334,156.48105776471294L201.03515625,157.31520037603678L212.20377604166666,156.56127435821233L223.37239583333334,157.62029956657378L234.541015625,158.28653333213646L245.70963541666666,158.38343874923848" style="fill: none;" fill="none"></path></g></g></g></g><g opacity="0.2"><g><g><g><path stroke="rgb(255, 112, 67)" stroke-width="2px" d="M24.570963541666664,-77.75591789050539L25.687825520833336,2.969314756718524L26.8046875,16.3481065217744L27.921549479166668,-19.672771079973774L29.038411458333336,66.26462207192723L30.1552734375,-26.316737428307572L31.272135416666668,74.95436359129168L32.388997395833336,67.94958348910917L33.505859375,94.18156911297277L34.62272135416667,100.66485742547296L35.739583333333336,-65.14945068549028L36.8564453125,151.90922963111237L37.973307291666664,67.55033108930697L39.090169270833336,125.89899678054181L40.20703125,-28.094895702871433L41.32389322916667,146.6131185242398L42.44075520833333,85.82163567163728L43.5576171875,-52.07749372585256L44.674479166666664,-14.143555435944705L45.791341145833336,122.93109872395343L46.908203125,101.1932951459153L48.025065104166664,15.897123047573988L49.14192708333333,55.36637428741563L50.2587890625,100.2113038819622L51.37565104166667,62.358041791076L52.492513020833336,84.86206320470029L53.609375,35.976362742483595L54.726236979166664,66.56221062215891L55.843098958333336,97.83214651319113L56.9599609375,112.80929660187527L58.07682291666667,4.058829328553216L59.19368489583333,134.83667880567637L60.310546875,139.96847781369632L61.427408854166664,104.18523796173659L62.544270833333336,91.90754481269553L63.6611328125,114.08090395615861L64.77799479166667,83.25387417863716L65.89485677083333,100.02188303016804L67.01171875,109.47253740240227L68.12858072916666,119.78781404244629L69.24544270833334,104.18603970347479L70.3623046875,165.631241789257L71.47916666666667,93.22784111851996L72.59602864583333,88.30444251204078L73.712890625,160.60179597884417L74.82975260416667,74.56269401989199L75.94661458333333,98.74497818608174L77.0634765625,54.77663704211061L78.18033854166667,63.58593548834324L79.29720052083333,120.75078829208559L80.4140625,142.11020723425528L81.53092447916666,97.06893333589488L82.64778645833334,177.78276551531798L83.7646484375,100.41201655431226L84.88151041666666,156.49648115479133L85.99837239583334,119.70827676626769L87.115234375,114.20027356019074L88.23209635416667,106.66847189820625L89.34895833333333,147.54320637678558L90.4658203125,153.03869641741568L91.58268229166667,128.02110975371167L92.69954427083333,19.70085559853097L93.81640625,150.24202641878617L94.93326822916667,132.18045597658917L96.05013020833333,-62.015674511140055L97.1669921875,120.06933778625996L98.28385416666666,127.47020078585908L99.40071614583334,168.13790606605735L100.517578125,108.49570875581016L101.63444010416666,155.90053977715698L102.75130208333334,158.54821319200775L103.8681640625,91.6654188077558L104.98502604166667,91.62288903106341L106.10188802083333,120.57668295536529L107.21875,119.79705280471931L108.33561197916667,95.7262332188812L109.45247395833333,106.28272922133857L110.5693359375,148.30696653676304L111.68619791666667,158.38342903960836L112.80305989583333,138.70787754925814L113.919921875,117.17217283255674L115.03678385416666,53.80459636720744L116.15364583333334,112.98530513860963L117.2705078125,159.1196677285162L118.38736979166666,128.00081145119935L119.50423177083334,147.45075881074774L120.62109375,120.22193096849051L121.73795572916667,156.23706150562927L122.85481770833333,180.18841033310375L123.9716796875,29.847219490869467L125.08854166666667,88.31596661291339L126.20540364583333,133.21424575116146L127.322265625,150.21203228628093L128.43912760416669,128.71739622815088L129.55598958333334,57.72572788596153L130.6728515625,156.64911929450253L131.78971354166666,-43.72406413338405L132.90657552083334,-53.98108337142255L134.0234375,139.17310505191034L135.14029947916666,126.77874724058941L136.25716145833331,135.3796677640216L137.3740234375,9.88160233538257L138.49088541666669,128.33432852138174L139.60774739583334,121.27549454163422L140.724609375,124.83747573332354L141.84147135416666,99.98491299524903L142.95833333333334,125.00851646844636L144.0751953125,135.66327453777194L145.19205729166666,95.76994687589732L146.30891927083331,165.82322896390477L147.42578125,106.37635317478667L148.54264322916669,98.45080640437928L149.65950520833334,164.9021026358347L150.7763671875,172.70411748879334L151.89322916666666,66.97246261889283L153.01009114583331,161.98626908829266L154.126953125,175.22923306494275L155.24381510416669,138.97390594807538L156.36067708333334,105.49012134461239L157.4775390625,155.88722486997193L158.59440104166666,149.83015595274892L159.71126302083334,174.45581079308283L160.828125,145.50344801524824L161.94498697916666,176.8078550545668L163.06184895833331,164.46970907988197L164.1787109375,166.17588668147272L165.29557291666669,103.96938960423523L166.41243489583334,98.99440228871323L167.529296875,185.23279701291838L168.64615885416666,111.08324404738165L169.76302083333331,162.7572374310006L170.8798828125,194.3721564230086L171.99674479166669,144.8849005177617L173.11360677083334,164.82117542421275L174.23046875,139.22942178933457L175.34733072916666,138.63739171251655L176.46419270833334,110.0796357281506L177.5810546875,182.62305647236377L178.69791666666666,155.59855288673532L179.81477864583331,124.14919169043952L180.931640625,97.84812140464783L182.04850260416669,124.67106561870739L183.16536458333334,189.00936400619418L184.2822265625,133.25405560027468L185.39908854166666,135.84070672806013L186.51595052083331,172.48282178322023L187.6328125,142.42105074836448L188.74967447916669,139.35822497138923L189.86653645833334,181.2242981234396L190.9833984375,171.91831692392853L192.10026041666666,154.7704810506918L193.21712239583334,170.7457696317949L194.333984375,143.95301436599004L195.45084635416666,146.9746665836058L196.56770833333331,104.51711408387531L197.6845703125,104.38484168289736L198.80143229166669,171.45249748111448L199.91829427083334,116.43361883339556L201.03515625,189.65084356526762L202.15201822916666,144.07891779054296L203.26888020833331,111.26780949126591L204.3857421875,198.5250887119804L205.50260416666669,115.44637503712013L206.61946614583334,160.31783703816208L207.736328125,196.71745706239545L208.85319010416666,180.46439306742766L209.97005208333334,160.7796702510254L211.0869140625,161.9911244962026L212.20377604166666,159.68089443817735L213.32063802083331,97.33878312056714L214.4375,187.29584709588778L215.55436197916669,179.4132347194986L216.67122395833334,100.24859611215916L217.7880859375,157.52298781749877L218.90494791666666,66.86369548738003L220.02180989583331,109.58713402057236L221.138671875,174.28359367054972L222.25553385416669,136.23780866170472L223.37239583333334,159.15366307679903L224.4892578125,176.91755130734634L225.60611979166666,139.3804489526559L226.72298177083334,153.5469332432205L227.83984375,195.54840146792546L228.95670572916666,168.43072163042697L230.07356770833331,163.43319563127378L231.1904296875,171.1304633007808L232.30729166666669,85.3690636997873L233.42415364583334,151.47062444991687L234.541015625,189.13445819609544L236.77473958333331,181.67122793146834L237.8916015625,87.32281090793285L239.00846354166669,48.65852335908195L240.12532552083334,180.4356090404432L241.2421875,119.37248934331265L242.35904947916666,153.94420751387423L243.47591145833334,202.17106359011748L244.5927734375,157.98283540830016L245.70963541666666,172.18053517626092" style="fill: none;" fill="none"></path></g><g><path stroke="rgb(0, 119, 187)" stroke-width="2px" d="M22.337239583333332,-56.67127907005226L33.505859375,45.89335356855931L44.674479166666664,103.26967137543991L55.843098958333336,131.92191299829972L67.01171875,140.232985151085L78.18033854166667,145.8612720966339L89.34895833333333,156.38941491462967L100.517578125,148.83506707610056L111.68619791666667,146.02157548679546L122.85481770833333,111.63038407977332L134.0234375,152.1260895319283L145.19205729166666,154.69095126742667L156.36067708333334,155.79548163779756L167.529296875,154.51991802521727L178.69791666666666,155.96079029413787L189.86653645833334,161.1656527011232L201.03515625,158.56606131182477L212.20377604166666,155.43057675320995L223.37239583333334,159.20867604728448L234.541015625,159.28582308407533L245.70963541666666,158.5287915603681" style="fill: none;" fill="none"></path></g></g></g></g></g></g><g transform="translate(61, 177)" clip-path="url(#clip_1)"><clipPath id="clip_1"><rect width="268" height="23"></rect></clipPath><g><g><line x1="0" y1="0" x2="0" y2="5" style="visibility: inherit;" fill="rgb(0, 0, 0)" stroke="rgb(204, 204, 204)" stroke-width="1px"></line><line x1="22.337239583333332" y1="0" x2="22.337239583333332" y2="5" style="visibility: inherit;" fill="rgb(0, 0, 0)" stroke="rgb(204, 204, 204)" stroke-width="1px"></line><line x1="44.674479166666664" y1="0" x2="44.674479166666664" y2="5" style="visibility: inherit;" fill="rgb(0, 0, 0)" stroke="rgb(204, 204, 204)" stroke-width="1px"></line><line x1="67.01171875" y1="0" x2="67.01171875" y2="5" style="visibility: inherit;" fill="rgb(0, 0, 0)" stroke="rgb(204, 204, 204)" stroke-width="1px"></line><line x1="89.34895833333333" y1="0" x2="89.34895833333333" y2="5" style="visibility: inherit;" fill="rgb(0, 0, 0)" stroke="rgb(204, 204, 204)" stroke-width="1px"></line><line x1="111.68619791666667" y1="0" x2="111.68619791666667" y2="5" style="visibility: inherit;" fill="rgb(0, 0, 0)" stroke="rgb(204, 204, 204)" stroke-width="1px"></line><line x1="134.0234375" y1="0" x2="134.0234375" y2="5" style="visibility: inherit;" fill="rgb(0, 0, 0)" stroke="rgb(204, 204, 204)" stroke-width="1px"></line><line x1="156.36067708333334" y1="0" x2="156.36067708333334" y2="5" style="visibility: inherit;" fill="rgb(0, 0, 0)" stroke="rgb(204, 204, 204)" stroke-width="1px"></line><line x1="178.69791666666666" y1="0" x2="178.69791666666666" y2="5" style="visibility: inherit;" fill="rgb(0, 0, 0)" stroke="rgb(204, 204, 204)" stroke-width="1px"></line><line x1="201.03515625" y1="0" x2="201.03515625" y2="5" style="visibility: inherit;" fill="rgb(0, 0, 0)" stroke="rgb(204, 204, 204)" stroke-width="1px"></line><line x1="223.37239583333334" y1="0" x2="223.37239583333334" y2="5" style="visibility: inherit;" fill="rgb(0, 0, 0)" stroke="rgb(204, 204, 204)" stroke-width="1px"></line><line x1="245.70963541666666" y1="0" x2="245.70963541666666" y2="5" style="visibility: inherit;" fill="rgb(0, 0, 0)" stroke="rgb(204, 204, 204)" stroke-width="1px"></line><line x1="268.046875" y1="0" x2="268.046875" y2="5" style="visibility: inherit;" fill="rgb(0, 0, 0)" stroke="rgb(204, 204, 204)" stroke-width="1px"></line></g><g transform="translate(0, 8)"><text x="0" y="0" dx="0em" dy="0.95em" style="text-anchor: middle; visibility: hidden; font-family: Roboto, sans-serif; font-size: 12px; font-weight: 200;" fill="rgb(255, 255, 255)" stroke="none" stroke-width="1px">-2k</text><text x="22.337239583333332" y="0" dx="0em" dy="0.95em" style="text-anchor: middle; visibility: inherit; font-family: Roboto, sans-serif; font-size: 12px; font-weight: 200;" fill="rgb(255, 255, 255)" stroke="none" stroke-width="1px">0</text><text x="44.674479166666664" y="0" dx="0em" dy="0.95em" style="text-anchor: middle; visibility: hidden; font-family: Roboto, sans-serif; font-size: 12px; font-weight: 200;" fill="rgb(255, 255, 255)" stroke="none" stroke-width="1px">2k</text><text x="67.01171875" y="0" dx="0em" dy="0.95em" style="text-anchor: middle; visibility: inherit; font-family: Roboto, sans-serif; font-size: 12px; font-weight: 200;" fill="rgb(255, 255, 255)" stroke="none" stroke-width="1px">4k</text><text x="89.34895833333333" y="0" dx="0em" dy="0.95em" style="text-anchor: middle; visibility: hidden; font-family: Roboto, sans-serif; font-size: 12px; font-weight: 200;" fill="rgb(255, 255, 255)" stroke="none" stroke-width="1px">6k</text><text x="111.68619791666667" y="0" dx="0em" dy="0.95em" style="text-anchor: middle; visibility: inherit; font-family: Roboto, sans-serif; font-size: 12px; font-weight: 200;" fill="rgb(255, 255, 255)" stroke="none" stroke-width="1px">8k</text><text x="134.0234375" y="0" dx="0em" dy="0.95em" style="text-anchor: middle; visibility: hidden; font-family: Roboto, sans-serif; font-size: 12px; font-weight: 200;" fill="rgb(255, 255, 255)" stroke="none" stroke-width="1px">10k</text><text x="156.36067708333334" y="0" dx="0em" dy="0.95em" style="text-anchor: middle; visibility: inherit; font-family: Roboto, sans-serif; font-size: 12px; font-weight: 200;" fill="rgb(255, 255, 255)" stroke="none" stroke-width="1px">12k</text><text x="178.69791666666666" y="0" dx="0em" dy="0.95em" style="text-anchor: middle; visibility: hidden; font-family: Roboto, sans-serif; font-size: 12px; font-weight: 200;" fill="rgb(255, 255, 255)" stroke="none" stroke-width="1px">14k</text><text x="201.03515625" y="0" dx="0em" dy="0.95em" style="text-anchor: middle; visibility: inherit; font-family: Roboto, sans-serif; font-size: 12px; font-weight: 200;" fill="rgb(255, 255, 255)" stroke="none" stroke-width="1px">16k</text><text x="223.37239583333334" y="0" dx="0em" dy="0.95em" style="text-anchor: middle; visibility: hidden; font-family: Roboto, sans-serif; font-size: 12px; font-weight: 200;" fill="rgb(255, 255, 255)" stroke="none" stroke-width="1px">18k</text><text x="245.70963541666666" y="0" dx="0em" dy="0.95em" style="text-anchor: middle; visibility: inherit; font-family: Roboto, sans-serif; font-size: 12px; font-weight: 200;" fill="rgb(255, 255, 255)" stroke="none" stroke-width="1px">20k</text><text x="268.046875" y="0" dx="0em" dy="0.95em" style="text-anchor: middle; visibility: hidden; font-family: Roboto, sans-serif; font-size: 12px; font-weight: 200;" fill="rgb(255, 255, 255)" stroke="none" stroke-width="1px">22k</text></g><line x1="0" y1="0" x2="268.046875" y2="0" fill="rgb(0, 0, 0)" stroke="rgb(204, 204, 204)" stroke-width="1px"></line></g></g></g></g></svg>