<svg viewBox="0 0 330 200" xmlns="http://www.w3.org/2000/svg"><g><g><g><g><g><line x1="61.953125" y1="177" x2="56.953125" y2="177" style="visibility: inherit;" fill="rgb(0, 0, 0)" stroke="rgb(204, 204, 204)" stroke-width="1px"></line><line x1="61.953125" y1="162.25" x2="56.953125" y2="162.25" style="visibility: inherit;" fill="rgb(0, 0, 0)" stroke="rgb(204, 204, 204)" stroke-width="1px"></line><line x1="61.953125" y1="147.5" x2="56.953125" y2="147.5" style="visibility: inherit;" fill="rgb(0, 0, 0)" stroke="rgb(204, 204, 204)" stroke-width="1px"></line><line x1="61.953125" y1="132.75" x2="56.953125" y2="132.75" style="visibility: inherit;" fill="rgb(0, 0, 0)" stroke="rgb(204, 204, 204)" stroke-width="1px"></line><line x1="61.953125" y1="118.00000000000001" x2="56.953125" y2="118.00000000000001" style="visibility: inherit;" fill="rgb(0, 0, 0)" stroke="rgb(204, 204, 204)" stroke-width="1px"></line><line x1="61.953125" y1="103.25" x2="56.953125" y2="103.25" style="visibility: inherit;" fill="rgb(0, 0, 0)" stroke="rgb(204, 204, 204)" stroke-width="1px"></line><line x1="61.953125" y1="88.5" x2="56.953125" y2="88.5" style="visibility: inherit;" fill="rgb(0, 0, 0)" stroke="rgb(204, 204, 204)" stroke-width="1px"></line><line x1="61.953125" y1="73.75000000000001" x2="56.953125" y2="73.75000000000001" style="visibility: inherit;" fill="rgb(0, 0, 0)" stroke="rgb(204, 204, 204)" stroke-width="1px"></line><line x1="61.953125" y1="59.00000000000001" x2="56.953125" y2="59.00000000000001" style="visibility: inherit;" fill="rgb(0, 0, 0)" stroke="rgb(204, 204, 204)" stroke-width="1px"></line><line x1="61.953125" y1="44.25" x2="56.953125" y2="44.25" style="visibility: inherit;" fill="rgb(0, 0, 0)" stroke="rgb(204, 204, 204)" stroke-width="1px"></line><line x1="61.953125" y1="29.500000000000032" x2="56.953125" y2="29.500000000000032" style="visibility: inherit;" fill="rgb(0, 0, 0)" stroke="rgb(204, 204, 204)" stroke-width="1px"></line><line x1="61.953125" y1="14.750000000000007" x2="56.953125" y2="14.750000000000007" style="visibility: inherit;" fill="rgb(0, 0, 0)" stroke="rgb(204, 204, 204)" stroke-width="1px"></line><line x1="61.953125" y1="0" x2="56.953125" y2="0" style="visibility: inherit;" fill="rgb(0, 0, 0)" stroke="rgb(204, 204, 204)" stroke-width="1px"></line></g><g transform="translate(51.953125, 0)"><text x="0" y="177" dx="0em" dy="0.3em" style="text-anchor: end; visibility: hidden; font-family: Roboto, sans-serif; font-size: 12px; font-weight: 200;" fill="rgb(255, 255, 255)" stroke="none" stroke-width="1px">0.025</text><text x="0" y="162.25" dx="0em" dy="0.3em" style="text-anchor: end; visibility: inherit; font-family: Roboto, sans-serif; font-size: 12px; font-weight: 200;" fill="rgb(255, 255, 255)" stroke="none" stroke-width="1px">0.03</text><text x="0" y="147.5" dx="0em" dy="0.3em" style="text-anchor: end; visibility: hidden; font-family: Roboto, sans-serif; font-size: 12px; font-weight: 200;" fill="rgb(255, 255, 255)" stroke="none" stroke-width="1px">0.035</text><text x="0" y="132.75" dx="0em" dy="0.3em" style="text-anchor: end; visibility: inherit; font-family: Roboto, sans-serif; font-size: 12px; font-weight: 200;" fill="rgb(255, 255, 255)" stroke="none" stroke-width="1px">0.04</text><text x="0" y="118.00000000000001" dx="0em" dy="0.3em" style="text-anchor: end; visibility: hidden; font-family: Roboto, sans-serif; font-size: 12px; font-weight: 200;" fill="rgb(255, 255, 255)" stroke="none" stroke-width="1px">0.045</text><text x="0" y="103.25" dx="0em" dy="0.3em" style="text-anchor: end; visibility: inherit; font-family: Roboto, sans-serif; font-size: 12px; font-weight: 200;" fill="rgb(255, 255, 255)" stroke="none" stroke-width="1px">0.05</text><text x="0" y="88.5" dx="0em" dy="0.3em" style="text-anchor: end; visibility: hidden; font-family: Roboto, sans-serif; font-size: 12px; font-weight: 200;" fill="rgb(255, 255, 255)" stroke="none" stroke-width="1px">0.055</text><text x="0" y="73.75000000000001" dx="0em" dy="0.3em" style="text-anchor: end; visibility: inherit; font-family: Roboto, sans-serif; font-size: 12px; font-weight: 200;" fill="rgb(255, 255, 255)" stroke="none" stroke-width="1px">0.06</text><text x="0" y="59.00000000000001" dx="0em" dy="0.3em" style="text-anchor: end; visibility: hidden; font-family: Roboto, sans-serif; font-size: 12px; font-weight: 200;" fill="rgb(255, 255, 255)" stroke="none" stroke-width="1px">0.065</text><text x="0" y="44.25" dx="0em" dy="0.3em" style="text-anchor: end; visibility: inherit; font-family: Roboto, sans-serif; font-size: 12px; font-weight: 200;" fill="rgb(255, 255, 255)" stroke="none" stroke-width="1px">0.07</text><text x="0" y="29.500000000000032" dx="0em" dy="0.3em" style="text-anchor: end; visibility: hidden; font-family: Roboto, sans-serif; font-size: 12px; font-weight: 200;" fill="rgb(255, 255, 255)" stroke="none" stroke-width="1px">0.075</text><text x="0" y="14.750000000000007" dx="0em" dy="0.3em" style="text-anchor: end; visibility: inherit; font-family: Roboto, sans-serif; font-size: 12px; font-weight: 200;" fill="rgb(255, 255, 255)" stroke="none" stroke-width="1px">0.08</text><text x="0" y="0" dx="0em" dy="0.3em" style="text-anchor: end; visibility: hidden; font-family: Roboto, sans-serif; font-size: 12px; font-weight: 200;" fill="rgb(255, 255, 255)" stroke="none" stroke-width="1px">0.085</text></g><line x1="61.953125" y1="0" x2="61.953125" y2="177" fill="rgb(0, 0, 0)" stroke="rgb(204, 204, 204)" stroke-width="1px"></line></g></g><g transform="translate(61, 0)" clip-path="url(#clip_0)"><clipPath id="clip_0"><rect width="268" height="177"></rect></clipPath><g><g><g><line x1="0" y1="0" x2="0" y2="177" fill="rgb(0, 0, 0)" stroke="rgb(189, 189, 189)" stroke-width="1px" opacity="0.25"></line><line x1="22.337239583333332" y1="0" x2="22.337239583333332" y2="177" fill="rgb(0, 0, 0)" stroke="rgb(189, 189, 189)" stroke-width="1px" opacity="0.25"></line><line x1="44.674479166666664" y1="0" x2="44.674479166666664" y2="177" fill="rgb(0, 0, 0)" stroke="rgb(189, 189, 189)" stroke-width="1px" opacity="0.25"></line><line x1="67.01171875" y1="0" x2="67.01171875" y2="177" fill="rgb(0, 0, 0)" stroke="rgb(189, 189, 189)" stroke-width="1px" opacity="0.25"></line><line x1="89.34895833333333" y1="0" x2="89.34895833333333" y2="177" fill="rgb(0, 0, 0)" stroke="rgb(189, 189, 189)" stroke-width="1px" opacity="0.25"></line><line x1="111.68619791666667" y1="0" x2="111.68619791666667" y2="177" fill="rgb(0, 0, 0)" stroke="rgb(189, 189, 189)" stroke-width="1px" opacity="0.25"></line><line x1="134.0234375" y1="0" x2="134.0234375" y2="177" fill="rgb(0, 0, 0)" stroke="rgb(189, 189, 189)" stroke-width="1px" opacity="0.25"></line><line x1="156.36067708333334" y1="0" x2="156.36067708333334" y2="177" fill="rgb(0, 0, 0)" stroke="rgb(189, 189, 189)" stroke-width="1px" opacity="0.25"></line><line x1="178.69791666666666" y1="0" x2="178.69791666666666" y2="177" fill="rgb(0, 0, 0)" stroke="rgb(189, 189, 189)" stroke-width="1px" opacity="0.25"></line><line x1="201.03515625" y1="0" x2="201.03515625" y2="177" fill="rgb(0, 0, 0)" stroke="rgb(189, 189, 189)" stroke-width="1px" opacity="0.25"></line><line x1="223.37239583333334" y1="0" x2="223.37239583333334" y2="177" fill="rgb(0, 0, 0)" stroke="rgb(189, 189, 189)" stroke-width="1px" opacity="0.25"></line><line x1="245.70963541666666" y1="0" x2="245.70963541666666" y2="177" fill="rgb(0, 0, 0)" stroke="rgb(189, 189, 189)" stroke-width="1px" opacity="0.25"></line><line x1="268.046875" y1="0" x2="268.046875" y2="177" fill="rgb(0, 0, 0)" stroke="rgb(189, 189, 189)" stroke-width="1px" opacity="0.25"></line></g><g><line x1="0" y1="177" x2="268.046875" y2="177" fill="rgb(0, 0, 0)" stroke="rgb(189, 189, 189)" stroke-width="1px" opacity="0.25"></line><line x1="0" y1="162.25" x2="268.046875" y2="162.25" fill="rgb(0, 0, 0)" stroke="rgb(189, 189, 189)" stroke-width="1px" opacity="0.25"></line><line x1="0" y1="147.5" x2="268.046875" y2="147.5" fill="rgb(0, 0, 0)" stroke="rgb(189, 189, 189)" stroke-width="1px" opacity="0.25"></line><line x1="0" y1="132.75" x2="268.046875" y2="132.75" fill="rgb(0, 0, 0)" stroke="rgb(189, 189, 189)" stroke-width="1px" opacity="0.25"></line><line x1="0" y1="118.00000000000001" x2="268.046875" y2="118.00000000000001" fill="rgb(0, 0, 0)" stroke="rgb(189, 189, 189)" stroke-width="1px" opacity="0.25"></line><line x1="0" y1="103.25" x2="268.046875" y2="103.25" fill="rgb(0, 0, 0)" stroke="rgb(189, 189, 189)" stroke-width="1px" opacity="0.25"></line><line x1="0" y1="88.5" x2="268.046875" y2="88.5" fill="rgb(0, 0, 0)" stroke="rgb(189, 189, 189)" stroke-width="1px" opacity="0.25"></line><line x1="0" y1="73.75000000000001" x2="268.046875" y2="73.75000000000001" fill="rgb(0, 0, 0)" stroke="rgb(189, 189, 189)" stroke-width="1px" opacity="0.25"></line><line x1="0" y1="59.00000000000001" x2="268.046875" y2="59.00000000000001" fill="rgb(0, 0, 0)" stroke="rgb(189, 189, 189)" stroke-width="1px" opacity="0.25"></line><line x1="0" y1="44.25" x2="268.046875" y2="44.25" fill="rgb(0, 0, 0)" stroke="rgb(189, 189, 189)" stroke-width="1px" opacity="0.25"></line><line x1="0" y1="29.500000000000032" x2="268.046875" y2="29.500000000000032" fill="rgb(0, 0, 0)" stroke="rgb(189, 189, 189)" stroke-width="1px" opacity="0.25"></line><line x1="0" y1="14.750000000000007" x2="268.046875" y2="14.750000000000007" fill="rgb(0, 0, 0)" stroke="rgb(189, 189, 189)" stroke-width="1px" opacity="0.25"></line><line x1="0" y1="0" x2="268.046875" y2="0" fill="rgb(0, 0, 0)" stroke="rgb(189, 189, 189)" stroke-width="1px" opacity="0.25"></line></g></g></g><g><g><line x1="0" y1="250.74999999999997" x2="268.046875" y2="250.74999999999997" fill="rgb(0, 0, 0)" stroke="rgb(153, 153, 153)" stroke-width="1.5px"></line></g></g><g><g><line x1="22.337239583333332" y1="0" x2="22.337239583333332" y2="177" fill="rgb(0, 0, 0)" stroke="rgb(153, 153, 153)" stroke-width="1.5px"></line></g></g><g><g><g><g><g><path stroke="rgb(255, 112, 67)" stroke-width="2px" d="M23.4541015625,167.1419593207538L24.570963541666664,167.1150176138617L25.687825520833336,167.03711791518998L26.8046875,166.88422577913084L27.921549479166668,166.65867326753235L29.038411458333336,166.31538708047106L30.1552734375,165.8628014319217L31.272135416666668,165.3205932773161L32.388997395833336,164.6878434742785L33.505859375,163.94537314736294L34.62272135416667,163.12147842908345L35.739583333333336,162.2280631165998L36.8564453125,161.19976699425598L37.973307291666664,160.10097262863306L39.090169270833336,158.9337125719756L40.20703125,157.72947239207082L41.32389322916667,156.46198218082333L42.44075520833333,155.14609710417326L43.5576171875,153.81753019466618L44.674479166666664,152.32621623415318L45.791341145833336,150.74450936919123L46.908203125,149.09438771683892L48.025065104166664,147.39918595329323L49.14192708333333,145.5953545855661L50.2587890625,143.78652310427069L51.37565104166667,142.02592383439847L52.492513020833336,140.3602050846197L53.609375,138.64110912048164L54.726236979166664,136.8895338170925L55.843098958333336,135.11581126835665L56.9599609375,133.43385213349077L58.07682291666667,131.97010268085728L59.19368489583333,130.43307889997803L60.310546875,129.0519826612538L61.427408854166664,127.67970427309777L62.544270833333336,126.28191052387035L63.6611328125,124.95493529815731L64.77799479166667,123.63382062766698L65.89485677083333,122.32175225891662L67.01171875,121.02814534358903L68.12858072916666,119.76508448650102L69.24544270833334,118.46720992341564L70.3623046875,117.2052765891182L71.47916666666667,116.00033848295958L72.59602864583333,114.82201908105495L73.712890625,113.55411353445422L74.82975260416667,112.3353629751725L75.94661458333333,111.16335029860028L77.0634765625,110.02619390760135L78.18033854166667,108.9133272950218L79.29720052083333,107.88810224439398L80.4140625,106.8333433962177L81.53092447916666,105.69113301910623L82.64778645833334,104.49883427129662L83.7646484375,103.34698302391979L84.88151041666666,102.26384664084758L85.99837239583334,101.2358871847761L87.115234375,100.04150659146126L88.23209635416667,99.01040845097425L89.34895833333333,97.93890305448363L90.4658203125,96.84557541363708L91.58268229166667,95.82716798575682L92.69954427083333,94.76651235694862L93.81640625,93.7585384087275L94.93326822916667,92.82810123184386L96.05013020833333,91.91032054674066L97.1669921875,90.93997225553656L98.28385416666666,89.98496066564839L99.40071614583334,89.06125778874468L100.517578125,88.11137946200795L101.63444010416666,87.17302810998216L102.75130208333334,86.13445746810113L103.8681640625,85.10461173004435L104.98502604166667,84.08797499267177L106.10188802083333,83.08602446155497L107.21875,82.2003288378522L108.33561197916667,81.3246554499987L109.45247395833333,80.31515046454211L110.5693359375,79.30534206328834L111.68619791666667,78.39957264362602L112.80305989583333,77.4606302249362L113.919921875,76.61462088930189L115.03678385416666,75.6614746660446L116.15364583333334,74.73920311394065L117.2705078125,73.7114012918635L118.38736979166666,72.73117522786642L119.50423177083334,71.86752136582486L120.62109375,71.05451747199507L121.73795572916667,70.24181401682266L122.85481770833333,69.4198441592L123.9716796875,68.57181664628638L125.08854166666667,67.70488403333935L126.20540364583333,66.85564729627201L127.322265625,66.04081398878235L128.43912760416669,65.30590507169806L129.55598958333334,64.58359063136722L130.6728515625,63.73703672568886L131.78971354166666,62.80822883296545L132.90657552083334,61.782021988919574L134.0234375,60.92600354521944L135.14029947916666,60.195114773329976L136.25716145833331,59.41469925154266L137.3740234375,58.643769803696976L138.49088541666669,57.81246248665697L139.60774739583334,56.97872368564159L140.724609375,56.165091997801966L141.84147135416666,55.404898247968994L142.95833333333334,54.72088393679375L144.0751953125,54.06563571161697L145.19205729166666,53.43675532380742L146.30891927083331,52.67985487842561L147.42578125,51.97408779182436L148.54264322916669,51.28317568730355L149.65950520833334,50.43275426048663L150.7763671875,49.69208012949605L151.89322916666666,49.06315576393114L153.01009114583331,48.410929109804066L154.126953125,47.67683169016374L155.24381510416669,46.999753825480525L156.36067708333334,46.34328695691515L157.4775390625,45.7318917546087L158.59440104166666,45.09653019508205L159.71126302083334,44.443667773011214L160.828125,43.82976685381109L161.94498697916666,43.241194590426524L163.06184895833331,42.507177850304295L164.1787109375,41.79958849590914L165.29557291666669,41.09307675028978L166.41243489583334,40.399519929082025L167.529296875,39.69400752114704L168.64615885416666,38.99719075278911L169.76302083333331,38.24739041278642L170.8798828125,37.48130846232106L171.99674479166669,36.83341173058708L173.11360677083334,36.24424964622233L174.23046875,35.670837184402814L175.34733072916666,35.09782785213798L176.46419270833334,34.44774631879817L177.5810546875,33.78740583194546L178.69791666666666,33.18002526362691L179.81477864583331,32.69266278982136L180.931640625,32.190554824113725L182.04850260416669,31.58987162508958L183.16536458333334,31.085673695793144L184.2822265625,30.53762075662042L185.39908854166666,29.99705884074822L186.51595052083331,29.512959189508294L187.6328125,29.024967817839364L188.74967447916669,28.573562203870047L189.86653645833334,28.067629175797613L190.9833984375,27.439172635922162L192.10026041666666,26.743681460886783L193.21712239583334,26.097890860002998L194.333984375,25.551322165824025L195.45084635416666,24.96882649880472L196.56770833333331,24.345177981983582L197.6845703125,23.794847460824826L198.80143229166669,23.19834021463309L199.91829427083334,22.593503807391638L201.03515625,21.991934087518416L202.15201822916666,21.50225561061119L203.26888020833331,20.935000742665622L204.3857421875,20.41991308044893L205.50260416666669,19.907790140578182L206.61946614583334,19.396461365383303L207.736328125,18.81010609731758L208.85319010416666,18.2436527363401L209.97005208333334,17.718223413940756L211.0869140625,17.185828781793404L212.20377604166666,16.40078435937756L213.32063802083331,15.72261681318398L214.4375,15.153307486534818L215.55436197916669,14.6595378213887L216.67122395833334,14.257283466682724L217.7880859375,13.8167112693941L218.90494791666666,13.43044486199352L220.02180989583331,13.147482243505324L221.138671875,12.766080020265102L222.25553385416669,12.355734347341242L223.37239583333334,11.946836810730598L224.4892578125,11.454381603850514L225.60611979166666,11.01664143136359L226.72298177083334,10.715164454765421L227.83984375,10.326609874956226L228.95670572916666,9.93862038564229L230.07356770833331,9.48560377187458L231.1904296875,9.038698603075305L232.30729166666669,8.591890877104728L233.42415364583334,8.22679878808077L234.541015625,7.861994979006169L235.65787760416666,7.5355552179945136L236.77473958333331,7.183014741142582L237.8916015625,6.839087677359573L239.00846354166669,6.502201290345169L240.12532552083334,6.153599984297729L241.2421875,5.868795542031273L242.35904947916666,5.5137270737348425L243.47591145833334,5.097431024829072L244.5927734375,4.757169372391417L245.70963541666666,4.408318827481096" style="fill: none;" fill="none"></path></g><g><path stroke="rgb(0, 119, 187)" stroke-width="2px" d="M33.505859375,162.834857840091L44.674479166666664,154.85903767915443L55.843098958333336,143.42001702279157L67.01171875,132.23294264717742L78.18033854166667,121.38959541050025L89.34895833333333,110.87105077274282L100.517578125,100.91324745767632L111.68619791666667,91.19826662679728L122.85481770833333,81.8962628679987L134.0234375,72.93825483584348L145.19205729166666,64.7288376877049L156.36067708333334,56.96157897128998L167.529296875,49.61921801671964L178.69791666666666,42.671382122843255L189.86653645833334,36.52094123534319L201.03515625,30.34348881042787L212.20377604166666,24.289863148870097L223.37239583333334,19.103675126090106L234.541015625,14.386048596567987" style="fill: none;" fill="none"></path></g></g></g></g><g opacity="0.2"><g><g><g><path stroke="rgb(255, 112, 67)" stroke-width="2px" d="M23.4541015625,167.1419593207538L24.570963541666664,167.09885258972645L25.687825520833336,166.96233420446515L26.8046875,166.70442462712526L27.921549479166668,166.36419190838933L29.038411458333336,165.84049870073795L30.1552734375,165.2155967131257L31.272135416666668,164.53004858270288L32.388997395833336,163.75466042011976L33.505859375,162.8428912423551L34.62272135416667,161.89310901612043L35.739583333333336,160.89280207455158L36.8564453125,159.66068037599325L37.973307291666664,158.45493373274803L39.090169270833336,157.18419455736876L40.20703125,155.9239614456892L41.32389322916667,154.56128322333097L42.44075520833333,153.17260359227657L43.5576171875,151.82488222420216L44.674479166666664,150.08938160538673L45.791341145833336,148.37203581631184L46.908203125,146.61925953626633L48.025065104166664,144.8564167767763L49.14192708333333,142.88962890207767L50.2587890625,141.07328873872757L51.37565104166667,139.38503243774176L52.492513020833336,137.86163122206926L53.609375,136.06246781349182L54.726236979166664,134.2621724754572L55.843098958333336,132.45522842556238L56.9599609375,130.91091398894787L58.07682291666667,129.77447879314423L59.19368489583333,128.12754341214895L60.310546875,126.98033840209247L61.427408854166664,125.62128674983978L62.544270833333336,124.18521993607283L63.6611328125,122.96447248011829L64.77799479166667,121.65214863419534L65.89485677083333,120.353649713099L67.01171875,119.08773497492076L68.12858072916666,117.87049320340158L69.24544270833334,116.52039808034897L70.3623046875,115.312376588583L71.47916666666667,114.19293132424355L72.59602864583333,113.0545399785042L73.712890625,111.65225521475077L74.82975260416667,110.507237136364L75.94661458333333,109.40533128380775L77.0634765625,108.32045932114124L78.18033854166667,107.24402737617493L79.29720052083333,106.35026466846467L80.4140625,105.25120512396097L81.53092447916666,103.977817453444L82.64778645833334,102.71038614958525L83.7646484375,101.61920615285636L84.88151041666666,100.63914206624032L85.99837239583334,99.69394800066948L87.115234375,98.24993570148945L88.23209635416667,97.46376124024391L89.34895833333333,96.33164495974779L90.4658203125,95.20558395236732L91.58268229166667,94.29955684393644L92.69954427083333,93.17552891373636L93.81640625,92.24657748639584L94.93326822916667,91.4324454665184L96.05013020833333,90.53364951908588L97.1669921875,89.48444981873035L98.28385416666666,88.55244328081609L99.40071614583334,87.67570347338916L100.517578125,86.68656197190286L101.63444010416666,85.76550108194351L102.75130208333334,84.57660150527956L103.8681640625,83.55984312295915L104.98502604166667,82.5630198866129L106.10188802083333,81.58309866487981L107.21875,80.87178540229799L108.33561197916667,80.01114536821844L109.45247395833333,78.80089298635723L110.5693359375,77.79062946140768L111.68619791666667,77.04091851413251L112.80305989583333,76.05221659690143L113.919921875,75.34560688585043L115.03678385416666,74.23175533115864L116.15364583333334,73.35579578578474L117.2705078125,72.16969855874778L118.38736979166666,71.26083613187075L119.50423177083334,70.5720405727625L120.62109375,69.8350116312504L121.73795572916667,69.02275883406402L122.85481770833333,68.18688937276602L123.9716796875,67.29977537691595L125.08854166666667,66.4044851139188L126.20540364583333,65.58179219067097L127.322265625,64.81856402754784L128.43912760416669,64.20354169607164L129.55598958333334,63.50011897087099L130.6728515625,62.46720586717131L131.78971354166666,61.415016993880286L132.90657552083334,60.242711722850814L134.0234375,59.64197587966921L135.14029947916666,59.0987816154957L136.25716145833331,58.244075968861594L137.3740234375,57.48737563192846L138.49088541666669,56.56550151109697L139.60774739583334,55.72811548411848L140.724609375,54.94464446604254L141.84147135416666,54.264607623219504L142.95833333333334,53.694862470030806L144.0751953125,53.0827633738518L145.19205729166666,52.49343474209309L146.30891927083331,51.54450421035292L147.42578125,50.91543716192247L148.54264322916669,50.246807530522354L149.65950520833334,49.1571221202612L150.7763671875,48.58106893301012L151.89322916666666,48.11976921558382L153.01009114583331,47.43258912861348L154.126953125,46.57568556070329L155.24381510416669,45.98413702845574L156.36067708333334,45.35858665406705L157.4775390625,44.814798951148994L158.59440104166666,44.14348785579205L159.71126302083334,43.464374139905L160.828125,42.90891547501089L161.94498697916666,42.358336195349715L163.06184895833331,41.406152740120895L164.1787109375,40.738204464316375L165.29557291666669,40.033309131860754L166.41243489583334,39.3591846972704L167.529296875,38.63573890924455L168.64615885416666,37.951965600252166L169.76302083333331,37.12268990278246L170.8798828125,36.33218553662301L171.99674479166669,35.86156663298609L173.11360677083334,35.360506519675276L174.23046875,34.81071849167349L175.34733072916666,34.23831385374071L176.46419270833334,33.47262401878835L177.5810546875,32.796895101666465L178.69791666666666,32.268954411149046L179.81477864583331,31.961619079113028L180.931640625,31.43739287555219L182.04850260416669,30.688846826553352L183.16536458333334,30.329376801848426L184.2822265625,29.715541347861297L185.39908854166666,29.18621596693994L186.51595052083331,28.7868097126484L187.6328125,28.292980760335944L188.74967447916669,27.896453782916076L189.86653645833334,27.308729633688948L190.9833984375,26.496487826108947L192.10026041666666,25.70044469833376L193.21712239583334,25.129204958677306L194.333984375,24.731469124555602L195.45084635416666,24.095082998275764L196.56770833333331,23.409705206751845L197.6845703125,22.9693516790867L198.80143229166669,22.30357934534551L199.91829427083334,21.686249196529396L201.03515625,21.089579507708557L202.15201822916666,20.767737895250345L203.26888020833331,20.084118440747275L204.3857421875,19.647281587123885L205.50260416666669,19.139605730772043L206.61946614583334,18.629468202590957L207.736328125,17.930573195219065L208.85319010416666,17.393972694873835L209.97005208333334,16.930079430341742L211.0869140625,16.387236833572413L212.20377604166666,15.223217725753804L213.32063802083331,14.70536549389365L214.4375,14.299343496561063L215.55436197916669,13.918883323669446L216.67122395833334,13.653901934623738L217.7880859375,13.155852973461164L218.90494791666666,12.851045250892659L220.02180989583331,12.723038315773023L221.138671875,12.193976685404797L222.25553385416669,11.740215837955501L223.37239583333334,11.333490505814572L224.4892578125,10.715698793530477L225.60611979166666,10.360031172633184L226.72298177083334,10.26294898986819L227.83984375,9.74377800524236L228.95670572916666,9.356636151671436L230.07356770833331,8.806078851223004L231.1904296875,8.368340849876423L232.30729166666669,7.9216792881488995L233.42415364583334,7.67916065454485L234.541015625,7.31478926539423L235.65787760416666,7.04589557647707L236.77473958333331,6.6542040258646145L237.8916015625,6.3231970816850795L239.00846354166669,5.996871709823622L240.12532552083334,5.63069802522662L241.2421875,5.441588878631618L242.35904947916666,4.9811243712902264L243.47591145833334,4.472986951470388L244.5927734375,4.2467768937349515L245.70963541666666,3.885043010115643" style="fill: none;" fill="none"></path></g><g><path stroke="rgb(0, 119, 187)" stroke-width="2px" d="M33.505859375,162.834857840091L44.674479166666664,150.0735455825925L55.843098958333336,132.43855719268322L67.01171875,119.07694318145514L78.18033854166667,107.23252125829458L89.34895833333333,96.32011686265469L100.517578125,86.6734293922782L111.68619791666667,77.03373131155969L122.85481770833333,68.17761414498092L134.0234375,59.63665691018105L145.19205729166666,52.48917077481748L156.36067708333334,45.352959975600264L167.529296875,38.62965066730977L178.69791666666666,32.26323981583119L189.86653645833334,27.3025095164776L201.03515625,21.081666991114623L212.20377604166666,15.211986348032964L223.37239583333334,11.325709864497204L234.541015625,7.31032748520377" style="fill: none;" fill="none"></path></g></g></g></g></g></g><g transform="translate(61, 177)" clip-path="url(#clip_1)"><clipPath id="clip_1"><rect width="268" height="23"></rect></clipPath><g><g><line x1="0" y1="0" x2="0" y2="5" style="visibility: inherit;" fill="rgb(0, 0, 0)" stroke="rgb(204, 204, 204)" stroke-width="1px"></line><line x1="22.337239583333332" y1="0" x2="22.337239583333332" y2="5" style="visibility: inherit;" fill="rgb(0, 0, 0)" stroke="rgb(204, 204, 204)" stroke-width="1px"></line><line x1="44.674479166666664" y1="0" x2="44.674479166666664" y2="5" style="visibility: inherit;" fill="rgb(0, 0, 0)" stroke="rgb(204, 204, 204)" stroke-width="1px"></line><line x1="67.01171875" y1="0" x2="67.01171875" y2="5" style="visibility: inherit;" fill="rgb(0, 0, 0)" stroke="rgb(204, 204, 204)" stroke-width="1px"></line><line x1="89.34895833333333" y1="0" x2="89.34895833333333" y2="5" style="visibility: inherit;" fill="rgb(0, 0, 0)" stroke="rgb(204, 204, 204)" stroke-width="1px"></line><line x1="111.68619791666667" y1="0" x2="111.68619791666667" y2="5" style="visibility: inherit;" fill="rgb(0, 0, 0)" stroke="rgb(204, 204, 204)" stroke-width="1px"></line><line x1="134.0234375" y1="0" x2="134.0234375" y2="5" style="visibility: inherit;" fill="rgb(0, 0, 0)" stroke="rgb(204, 204, 204)" stroke-width="1px"></line><line x1="156.36067708333334" y1="0" x2="156.36067708333334" y2="5" style="visibility: inherit;" fill="rgb(0, 0, 0)" stroke="rgb(204, 204, 204)" stroke-width="1px"></line><line x1="178.69791666666666" y1="0" x2="178.69791666666666" y2="5" style="visibility: inherit;" fill="rgb(0, 0, 0)" stroke="rgb(204, 204, 204)" stroke-width="1px"></line><line x1="201.03515625" y1="0" x2="201.03515625" y2="5" style="visibility: inherit;" fill="rgb(0, 0, 0)" stroke="rgb(204, 204, 204)" stroke-width="1px"></line><line x1="223.37239583333334" y1="0" x2="223.37239583333334" y2="5" style="visibility: inherit;" fill="rgb(0, 0, 0)" stroke="rgb(204, 204, 204)" stroke-width="1px"></line><line x1="245.70963541666666" y1="0" x2="245.70963541666666" y2="5" style="visibility: inherit;" fill="rgb(0, 0, 0)" stroke="rgb(204, 204, 204)" stroke-width="1px"></line><line x1="268.046875" y1="0" x2="268.046875" y2="5" style="visibility: inherit;" fill="rgb(0, 0, 0)" stroke="rgb(204, 204, 204)" stroke-width="1px"></line></g><g transform="translate(0, 8)"><text x="0" y="0" dx="0em" dy="0.95em" style="text-anchor: middle; visibility: hidden; font-family: Roboto, sans-serif; font-size: 12px; font-weight: 200;" fill="rgb(255, 255, 255)" stroke="none" stroke-width="1px">-2k</text><text x="22.337239583333332" y="0" dx="0em" dy="0.95em" style="text-anchor: middle; visibility: inherit; font-family: Roboto, sans-serif; font-size: 12px; font-weight: 200;" fill="rgb(255, 255, 255)" stroke="none" stroke-width="1px">0</text><text x="44.674479166666664" y="0" dx="0em" dy="0.95em" style="text-anchor: middle; visibility: hidden; font-family: Roboto, sans-serif; font-size: 12px; font-weight: 200;" fill="rgb(255, 255, 255)" stroke="none" stroke-width="1px">2k</text><text x="67.01171875" y="0" dx="0em" dy="0.95em" style="text-anchor: middle; visibility: inherit; font-family: Roboto, sans-serif; font-size: 12px; font-weight: 200;" fill="rgb(255, 255, 255)" stroke="none" stroke-width="1px">4k</text><text x="89.34895833333333" y="0" dx="0em" dy="0.95em" style="text-anchor: middle; visibility: hidden; font-family: Roboto, sans-serif; font-size: 12px; font-weight: 200;" fill="rgb(255, 255, 255)" stroke="none" stroke-width="1px">6k</text><text x="111.68619791666667" y="0" dx="0em" dy="0.95em" style="text-anchor: middle; visibility: inherit; font-family: Roboto, sans-serif; font-size: 12px; font-weight: 200;" fill="rgb(255, 255, 255)" stroke="none" stroke-width="1px">8k</text><text x="134.0234375" y="0" dx="0em" dy="0.95em" style="text-anchor: middle; visibility: hidden; font-family: Roboto, sans-serif; font-size: 12px; font-weight: 200;" fill="rgb(255, 255, 255)" stroke="none" stroke-width="1px">10k</text><text x="156.36067708333334" y="0" dx="0em" dy="0.95em" style="text-anchor: middle; visibility: inherit; font-family: Roboto, sans-serif; font-size: 12px; font-weight: 200;" fill="rgb(255, 255, 255)" stroke="none" stroke-width="1px">12k</text><text x="178.69791666666666" y="0" dx="0em" dy="0.95em" style="text-anchor: middle; visibility: hidden; font-family: Roboto, sans-serif; font-size: 12px; font-weight: 200;" fill="rgb(255, 255, 255)" stroke="none" stroke-width="1px">14k</text><text x="201.03515625" y="0" dx="0em" dy="0.95em" style="text-anchor: middle; visibility: inherit; font-family: Roboto, sans-serif; font-size: 12px; font-weight: 200;" fill="rgb(255, 255, 255)" stroke="none" stroke-width="1px">16k</text><text x="223.37239583333334" y="0" dx="0em" dy="0.95em" style="text-anchor: middle; visibility: hidden; font-family: Roboto, sans-serif; font-size: 12px; font-weight: 200;" fill="rgb(255, 255, 255)" stroke="none" stroke-width="1px">18k</text><text x="245.70963541666666" y="0" dx="0em" dy="0.95em" style="text-anchor: middle; visibility: inherit; font-family: Roboto, sans-serif; font-size: 12px; font-weight: 200;" fill="rgb(255, 255, 255)" stroke="none" stroke-width="1px">20k</text><text x="268.046875" y="0" dx="0em" dy="0.95em" style="text-anchor: middle; visibility: hidden; font-family: Roboto, sans-serif; font-size: 12px; font-weight: 200;" fill="rgb(255, 255, 255)" stroke="none" stroke-width="1px">22k</text></g><line x1="0" y1="0" x2="268.046875" y2="0" fill="rgb(0, 0, 0)" stroke="rgb(204, 204, 204)" stroke-width="1px"></line></g></g></g></g></svg>