<svg viewBox="0 0 330 200" xmlns="http://www.w3.org/2000/svg"><g><g><g><g><g><line x1="51.5625" y1="177" x2="46.5625" y2="177" style="visibility: inherit;" fill="rgb(0, 0, 0)" stroke="rgb(204, 204, 204)" stroke-width="1px"></line><line x1="51.5625" y1="162.25" x2="46.5625" y2="162.25" style="visibility: inherit;" fill="rgb(0, 0, 0)" stroke="rgb(204, 204, 204)" stroke-width="1px"></line><line x1="51.5625" y1="147.5" x2="46.5625" y2="147.5" style="visibility: inherit;" fill="rgb(0, 0, 0)" stroke="rgb(204, 204, 204)" stroke-width="1px"></line><line x1="51.5625" y1="132.75" x2="46.5625" y2="132.75" style="visibility: inherit;" fill="rgb(0, 0, 0)" stroke="rgb(204, 204, 204)" stroke-width="1px"></line><line x1="51.5625" y1="117.99999999999997" x2="46.5625" y2="117.99999999999997" style="visibility: inherit;" fill="rgb(0, 0, 0)" stroke="rgb(204, 204, 204)" stroke-width="1px"></line><line x1="51.5625" y1="103.24999999999999" x2="46.5625" y2="103.24999999999999" style="visibility: inherit;" fill="rgb(0, 0, 0)" stroke="rgb(204, 204, 204)" stroke-width="1px"></line><line x1="51.5625" y1="88.5" x2="46.5625" y2="88.5" style="visibility: inherit;" fill="rgb(0, 0, 0)" stroke="rgb(204, 204, 204)" stroke-width="1px"></line><line x1="51.5625" y1="73.75" x2="46.5625" y2="73.75" style="visibility: inherit;" fill="rgb(0, 0, 0)" stroke="rgb(204, 204, 204)" stroke-width="1px"></line><line x1="51.5625" y1="58.999999999999986" x2="46.5625" y2="58.999999999999986" style="visibility: inherit;" fill="rgb(0, 0, 0)" stroke="rgb(204, 204, 204)" stroke-width="1px"></line><line x1="51.5625" y1="44.25" x2="46.5625" y2="44.25" style="visibility: inherit;" fill="rgb(0, 0, 0)" stroke="rgb(204, 204, 204)" stroke-width="1px"></line><line x1="51.5625" y1="29.499999999999993" x2="46.5625" y2="29.499999999999993" style="visibility: inherit;" fill="rgb(0, 0, 0)" stroke="rgb(204, 204, 204)" stroke-width="1px"></line><line x1="51.5625" y1="14.749999999999968" x2="46.5625" y2="14.749999999999968" style="visibility: inherit;" fill="rgb(0, 0, 0)" stroke="rgb(204, 204, 204)" stroke-width="1px"></line><line x1="51.5625" y1="0" x2="46.5625" y2="0" style="visibility: inherit;" fill="rgb(0, 0, 0)" stroke="rgb(204, 204, 204)" stroke-width="1px"></line></g><g transform="translate(41.5625, 0)"><text x="0" y="177" dx="0em" dy="0.3em" style="text-anchor: end; visibility: hidden; font-family: Roboto, sans-serif; font-size: 12px; font-weight: 200;" fill="rgb(255, 255, 255)" stroke="none" stroke-width="1px">0.06</text><text x="0" y="162.25" dx="0em" dy="0.3em" style="text-anchor: end; visibility: inherit; font-family: Roboto, sans-serif; font-size: 12px; font-weight: 200;" fill="rgb(255, 255, 255)" stroke="none" stroke-width="1px">0.08</text><text x="0" y="147.5" dx="0em" dy="0.3em" style="text-anchor: end; visibility: hidden; font-family: Roboto, sans-serif; font-size: 12px; font-weight: 200;" fill="rgb(255, 255, 255)" stroke="none" stroke-width="1px">0.1</text><text x="0" y="132.75" dx="0em" dy="0.3em" style="text-anchor: end; visibility: inherit; font-family: Roboto, sans-serif; font-size: 12px; font-weight: 200;" fill="rgb(255, 255, 255)" stroke="none" stroke-width="1px">0.12</text><text x="0" y="117.99999999999997" dx="0em" dy="0.3em" style="text-anchor: end; visibility: hidden; font-family: Roboto, sans-serif; font-size: 12px; font-weight: 200;" fill="rgb(255, 255, 255)" stroke="none" stroke-width="1px">0.14</text><text x="0" y="103.24999999999999" dx="0em" dy="0.3em" style="text-anchor: end; visibility: inherit; font-family: Roboto, sans-serif; font-size: 12px; font-weight: 200;" fill="rgb(255, 255, 255)" stroke="none" stroke-width="1px">0.16</text><text x="0" y="88.5" dx="0em" dy="0.3em" style="text-anchor: end; visibility: hidden; font-family: Roboto, sans-serif; font-size: 12px; font-weight: 200;" fill="rgb(255, 255, 255)" stroke="none" stroke-width="1px">0.18</text><text x="0" y="73.75" dx="0em" dy="0.3em" style="text-anchor: end; visibility: inherit; font-family: Roboto, sans-serif; font-size: 12px; font-weight: 200;" fill="rgb(255, 255, 255)" stroke="none" stroke-width="1px">0.2</text><text x="0" y="58.999999999999986" dx="0em" dy="0.3em" style="text-anchor: end; visibility: hidden; font-family: Roboto, sans-serif; font-size: 12px; font-weight: 200;" fill="rgb(255, 255, 255)" stroke="none" stroke-width="1px">0.22</text><text x="0" y="44.25" dx="0em" dy="0.3em" style="text-anchor: end; visibility: inherit; font-family: Roboto, sans-serif; font-size: 12px; font-weight: 200;" fill="rgb(255, 255, 255)" stroke="none" stroke-width="1px">0.24</text><text x="0" y="29.499999999999993" dx="0em" dy="0.3em" style="text-anchor: end; visibility: hidden; font-family: Roboto, sans-serif; font-size: 12px; font-weight: 200;" fill="rgb(255, 255, 255)" stroke="none" stroke-width="1px">0.26</text><text x="0" y="14.749999999999968" dx="0em" dy="0.3em" style="text-anchor: end; visibility: inherit; font-family: Roboto, sans-serif; font-size: 12px; font-weight: 200;" fill="rgb(255, 255, 255)" stroke="none" stroke-width="1px">0.28</text><text x="0" y="0" dx="0em" dy="0.3em" style="text-anchor: end; visibility: hidden; font-family: Roboto, sans-serif; font-size: 12px; font-weight: 200;" fill="rgb(255, 255, 255)" stroke="none" stroke-width="1px">0.3</text></g><line x1="51.5625" y1="0" x2="51.5625" y2="177" fill="rgb(0, 0, 0)" stroke="rgb(204, 204, 204)" stroke-width="1px"></line></g></g><g transform="translate(51, 0)" clip-path="url(#clip_0)"><clipPath id="clip_0"><rect width="278" height="177"></rect></clipPath><g><g><g><line x1="0" y1="0" x2="0" y2="177" fill="rgb(0, 0, 0)" stroke="rgb(189, 189, 189)" stroke-width="1px" opacity="0.25"></line><line x1="23.203125" y1="0" x2="23.203125" y2="177" fill="rgb(0, 0, 0)" stroke="rgb(189, 189, 189)" stroke-width="1px" opacity="0.25"></line><line x1="46.40625" y1="0" x2="46.40625" y2="177" fill="rgb(0, 0, 0)" stroke="rgb(189, 189, 189)" stroke-width="1px" opacity="0.25"></line><line x1="69.609375" y1="0" x2="69.609375" y2="177" fill="rgb(0, 0, 0)" stroke="rgb(189, 189, 189)" stroke-width="1px" opacity="0.25"></line><line x1="92.8125" y1="0" x2="92.8125" y2="177" fill="rgb(0, 0, 0)" stroke="rgb(189, 189, 189)" stroke-width="1px" opacity="0.25"></line><line x1="116.015625" y1="0" x2="116.015625" y2="177" fill="rgb(0, 0, 0)" stroke="rgb(189, 189, 189)" stroke-width="1px" opacity="0.25"></line><line x1="139.21875" y1="0" x2="139.21875" y2="177" fill="rgb(0, 0, 0)" stroke="rgb(189, 189, 189)" stroke-width="1px" opacity="0.25"></line><line x1="162.421875" y1="0" x2="162.421875" y2="177" fill="rgb(0, 0, 0)" stroke="rgb(189, 189, 189)" stroke-width="1px" opacity="0.25"></line><line x1="185.625" y1="0" x2="185.625" y2="177" fill="rgb(0, 0, 0)" stroke="rgb(189, 189, 189)" stroke-width="1px" opacity="0.25"></line><line x1="208.828125" y1="0" x2="208.828125" y2="177" fill="rgb(0, 0, 0)" stroke="rgb(189, 189, 189)" stroke-width="1px" opacity="0.25"></line><line x1="232.03125" y1="0" x2="232.03125" y2="177" fill="rgb(0, 0, 0)" stroke="rgb(189, 189, 189)" stroke-width="1px" opacity="0.25"></line><line x1="255.234375" y1="0" x2="255.234375" y2="177" fill="rgb(0, 0, 0)" stroke="rgb(189, 189, 189)" stroke-width="1px" opacity="0.25"></line><line x1="278.4375" y1="0" x2="278.4375" y2="177" fill="rgb(0, 0, 0)" stroke="rgb(189, 189, 189)" stroke-width="1px" opacity="0.25"></line></g><g><line x1="0" y1="177" x2="278.4375" y2="177" fill="rgb(0, 0, 0)" stroke="rgb(189, 189, 189)" stroke-width="1px" opacity="0.25"></line><line x1="0" y1="162.25" x2="278.4375" y2="162.25" fill="rgb(0, 0, 0)" stroke="rgb(189, 189, 189)" stroke-width="1px" opacity="0.25"></line><line x1="0" y1="147.5" x2="278.4375" y2="147.5" fill="rgb(0, 0, 0)" stroke="rgb(189, 189, 189)" stroke-width="1px" opacity="0.25"></line><line x1="0" y1="132.75" x2="278.4375" y2="132.75" fill="rgb(0, 0, 0)" stroke="rgb(189, 189, 189)" stroke-width="1px" opacity="0.25"></line><line x1="0" y1="117.99999999999997" x2="278.4375" y2="117.99999999999997" fill="rgb(0, 0, 0)" stroke="rgb(189, 189, 189)" stroke-width="1px" opacity="0.25"></line><line x1="0" y1="103.24999999999999" x2="278.4375" y2="103.24999999999999" fill="rgb(0, 0, 0)" stroke="rgb(189, 189, 189)" stroke-width="1px" opacity="0.25"></line><line x1="0" y1="88.5" x2="278.4375" y2="88.5" fill="rgb(0, 0, 0)" stroke="rgb(189, 189, 189)" stroke-width="1px" opacity="0.25"></line><line x1="0" y1="73.75" x2="278.4375" y2="73.75" fill="rgb(0, 0, 0)" stroke="rgb(189, 189, 189)" stroke-width="1px" opacity="0.25"></line><line x1="0" y1="58.999999999999986" x2="278.4375" y2="58.999999999999986" fill="rgb(0, 0, 0)" stroke="rgb(189, 189, 189)" stroke-width="1px" opacity="0.25"></line><line x1="0" y1="44.25" x2="278.4375" y2="44.25" fill="rgb(0, 0, 0)" stroke="rgb(189, 189, 189)" stroke-width="1px" opacity="0.25"></line><line x1="0" y1="29.499999999999993" x2="278.4375" y2="29.499999999999993" fill="rgb(0, 0, 0)" stroke="rgb(189, 189, 189)" stroke-width="1px" opacity="0.25"></line><line x1="0" y1="14.749999999999968" x2="278.4375" y2="14.749999999999968" fill="rgb(0, 0, 0)" stroke="rgb(189, 189, 189)" stroke-width="1px" opacity="0.25"></line><line x1="0" y1="0" x2="278.4375" y2="0" fill="rgb(0, 0, 0)" stroke="rgb(189, 189, 189)" stroke-width="1px" opacity="0.25"></line></g></g></g><g><g><line x1="0" y1="221.25" x2="278.4375" y2="221.25" fill="rgb(0, 0, 0)" stroke="rgb(153, 153, 153)" stroke-width="1.5px"></line></g></g><g><g><line x1="23.203125" y1="0" x2="23.203125" y2="177" fill="rgb(0, 0, 0)" stroke="rgb(153, 153, 153)" stroke-width="1.5px"></line></g></g><g><g><g><g><g><path stroke="rgb(255, 112, 67)" stroke-width="2px" d="M31.32421875,-23.848258447010068L32.484375,14.909048758179793L33.64453125,20.709624055024797L34.8046875,-0.3516087086952988L35.96484375000001,10.648073387211044L37.125,2.10262310548828L38.28515625,25.619330253826767L39.4453125,31.29559098847937L40.60546875,8.23333029113914L41.765625,12.412532283905064L42.92578125,28.780343089293943L44.0859375,38.61179886995814L45.24609375,49.36470637967208L46.40625,38.2648785336527L47.56640625,49.559887272093555L48.7265625,76.59914454235127L49.88671875,22.310669964774554L51.04687499999999,27.37073172457204L52.20703125,32.133849717643024L53.36718750000001,58.26502562578067L54.52734375,75.48861429710924L55.6875,54.80983498768948L56.84765625,58.84186783328117L58.0078125,44.63012034761935L59.16796875,47.62977900697305L60.328125,76.14733127279153L61.48828125,95.76841489801653L62.6484375,52.00878394235954L63.80859375,61.60862848327701L64.96875,60.879036196491775L66.12890625,26.38456517474116L67.2890625,29.37746513414829L68.44921875,49.664171776838664L69.609375,36.90531093660195L70.76953125,41.533534672295936L71.92968750000001,78.18120506466872L73.08984375,90.3201483795016L74.25,116.64810000720574L75.41015625,100.25204772399081L76.5703125,95.14451437945823L77.73046875,105.98600930764509L78.890625,77.15256534031404L80.05078125,57.42529053668252L81.2109375,107.3987029373517L82.37109375,101.21367213901085L83.53125,97.9769650714077L84.69140624999999,108.38646275501145L85.8515625,115.66455136359914L87.01171875,97.11136716973319L88.171875,104.91144498212354L89.33203125000001,123.13766073449797L90.4921875,102.95002707102232L91.65234375,136.0989155181276L92.8125,119.8765459840306L93.97265625,143.57503662614943L95.1328125,79.61975064938505L96.29296875,75.27514353135366L97.453125,67.90263095342596L98.61328125,83.51251206602745L99.7734375,105.85631747130216L100.93359375,124.43469191541473L102.09374999999999,127.98508743167041L103.25390625,148.6589986255474L104.4140625,122.31208654765528L105.57421875,83.38949580505039L106.73437500000001,84.18126707979765L107.89453125,96.38805115645366L109.0546875,97.173855286391L110.21484375,106.83329488727536L111.375,77.17922267850093L112.53515625,87.0645557942143L113.6953125,67.98245764387552L114.85546875,8.975474933462754L116.015625,60.869753397808935L117.17578125,75.7694693728128L118.3359375,102.91314673863882L119.49609374999999,124.91543207283635L120.65625,143.91751754263532L121.81640625,147.52274645405703L122.9765625,97.69258560560758L124.13671875000001,118.5150721852339L125.296875,135.4632824024175L126.45703125,104.574225864447L127.6171875,77.04802341558745L128.77734375,104.70486434428817L129.9375,111.74042247014599L131.09765625,138.04078540445778L132.2578125,108.43907744432337L133.41796875,115.37106520381478L134.578125,103.2197478201801L135.73828125,107.16109998743619L136.8984375,112.85982817543082L138.05859375,98.53204645295462L139.21875,124.75606392371368L140.37890625,110.9016449782116L141.5390625,84.49973225789442L142.69921875,120.37813392399059L143.85937500000003,115.35710364352649L145.01953125,133.16118910027137L146.1796875,135.17703896977062L147.33984375,117.5531043631885L148.5,128.02270129460416L149.66015625,107.08379349194956L150.8203125,95.3680112128436L151.98046874999997,117.84484592318415L153.140625,123.099946966707L154.30078125,141.24221088197189L155.4609375,162.56901954013918L156.62109375,154.74441282837876L157.78125,143.08301422231966L158.94140625,161.17393645336372L160.1015625,140.25628273302402L161.26171875000003,145.1193350306993L162.421875,147.59485892962488L163.58203125,138.13222189254208L164.7421875,145.01682575498012L165.90234375,112.34433921250098L167.0625,133.24950788660283L168.22265625,140.00013702656886L169.38281249999997,163.51827637170888L170.54296875,103.04368669280491L171.703125,99.63818233900713L172.86328125,112.79709455635219L174.0234375,127.12068246165555L175.18359375,153.99519262528207L176.34375,170.14962890559903L177.50390625,176.20510790535494L178.66406250000003,162.65543580078295L179.82421875,165.24951682998662L180.984375,165.32703257509425L182.14453125,168.2235425824425L183.3046875,154.13217121300107L184.46484375,141.05398801825646L185.625,158.87316533393982L186.78515624999997,122.04650389234615L187.9453125,145.1732296173596L189.10546875,128.22332684247635L190.265625,151.9683434906539L191.42578125,166.91494632693747L192.5859375,171.4151978466369L193.74609375,170.39993318012102L194.90625,170.54718678945744L196.06640625000003,173.90256100970177L197.2265625,173.87902794228594L198.38671875,165.03858815399767L199.546875,167.1991440923092L200.70703125,157.5786114794658L201.8671875,158.8876074291853L203.02734375,161.21265324876236L204.18749999999997,126.09403218582587L205.34765625,139.46760260763952L206.5078125,153.40159910889383L207.66796875,111.24986037893245L208.828125,125.47136882861344L209.98828125,120.26717580807143L211.1484375,125.07237961114605L212.30859375,123.80749035013412L213.46875000000003,121.39433530350146L214.62890625,84.23950995433103L215.7890625,103.18232792125804L216.94921875,112.07986959818996L218.109375,123.75121682288645L219.26953125,140.5370914453411L220.4296875,143.44908987069988L221.58984374999997,141.47451366236726L222.75,152.2743534982259L223.91015625,160.86393213659852L225.0703125,130.07511005634268L226.23046875,136.19264138987182L227.390625,118.78276755363059L228.55078125,114.28124882251208L229.7109375,111.94070875626915L230.87109375000003,125.8129618166811L232.03125,150.84880151444236L233.19140625,116.71530816312766L234.3515625,121.37769958887182L235.51171875,132.86275896587182L236.671875,124.09101854657061L237.83203125,147.9624835045333L238.99218749999997,137.9517551297662L240.15234375,145.45285870341763L241.3125,157.28141675715628L242.47265625,149.34665148153888L243.6328125,159.94913455662126L244.79296875,174.03580337355731L245.953125,160.3668391680133L247.11328125,156.94564709665846L248.27343750000003,155.69439945133016L249.43359375,151.71675076342513L250.59375,153.99688691053922L251.75390625,154.84839116128765L252.9140625,154.82950456942606L254.07421875,137.2350947290986L255.234375,154.92346259089285" style="fill: none;" fill="none"></path></g><g><path stroke="rgb(0, 119, 187)" stroke-width="2px" d="M34.8046875,-47.14836537837982L46.40625,12.827335889451206L58.0078125,5.274610457827827L69.609375,39.934716148110226L81.2109375,53.916415962636826L92.8125,66.72237721724468L104.4140625,72.16491375792438L116.015625,73.83782591224548L127.6171875,75.46592544736161L139.21875,79.52131154691577L150.8203125,86.01966411340379L162.421875,85.38210492812735L174.0234375,83.92269833844246L185.625,86.15991506348166L197.2265625,82.73223961764604L208.828125,77.46669875308991L220.4296875,76.5585993129937L232.03125,77.25781637669915L243.6328125,77.26705613853171" style="fill: none;" fill="none"></path></g></g></g></g><g opacity="0.2"><g><g><g><path stroke="rgb(255, 112, 67)" stroke-width="2px" d="M27.84375,-29.001536071300507L29.00390625,27.520405277609825L30.1640625,-92.68900848925117L31.32421875,27.097920849919312L32.484375,71.41757473349571L33.64453125,29.26434591412543L34.8046875,-31.62508480250838L35.96484375000001,27.04783022403717L37.125,-10.669048354029682L38.28515625,60.81760484725236L39.4453125,39.79886170476674L40.60546875,-26.332951933145537L41.765625,18.678387776017175L42.92578125,53.32513298839331L44.0859375,53.35648633539677L45.24609375,65.49242954701184L46.40625,21.616151332855225L47.56640625,66.50178093463182L48.7265625,117.15714070945977L49.88671875,-59.120970070362105L51.04687499999999,34.96076442301272L52.20703125,39.27849285304545L53.36718750000001,97.46167805045843L54.52734375,101.32395323365927L55.6875,23.791697770357132L56.84765625,64.88991338759661L58.0078125,23.31250697374343L59.16796875,52.129266001284115L60.328125,118.92365399748087L61.48828125,125.2000379934907L62.6484375,-13.630659356713307L63.80859375,76.00839488208292L64.96875,59.78464778512716L66.12890625,-25.357140824198737L67.2890625,33.86681504547595L68.44921875,80.09423162788153L69.609375,17.767019718885415L70.76953125,48.475870266556726L71.92968750000001,133.152710609138L73.08984375,108.52856334298849L74.25,156.1400274373591L75.41015625,75.65796930342911L76.5703125,87.48321436345577L77.73046875,122.24825169891118L78.890625,33.902399390935884L80.05078125,27.834378331899636L81.2109375,182.35882153734565L82.37109375,91.93612594157456L83.53125,93.1219044700265L84.69140624999999,124.00070928037165L85.8515625,126.5816842764616L87.01171875,69.28159087896347L88.171875,116.61156170070171L89.33203125000001,150.47698436304927L90.4921875,72.66857657581568L91.65234375,185.82224818877876L92.8125,95.54299168288708L93.97265625,179.1227725893259L95.1328125,-16.31317831575873L96.29296875,68.7582328543067L97.453125,56.8438620865345L98.61328125,106.92733373492956L99.7734375,139.3720255792141L100.93359375,152.3022535815835L102.09374999999999,133.31068070605397L103.25390625,179.66986541636288L104.4140625,82.79171843081713L105.57421875,25.005609691143036L106.73437500000001,85.36892399191856L107.89453125,114.69822727143763L109.0546875,98.35256148129702L110.21484375,121.32245428860186L111.375,32.698114365339265L112.53515625,101.8925554677844L113.6953125,39.359310418367386L114.85546875,-79.53499913215639L116.015625,138.71117109432817L117.17578125,98.11904333531857L118.3359375,143.62866278737783L119.49609374999999,157.91886007413268L120.65625,172.42064574733377L121.81640625,152.93058982118964L122.9765625,22.94734433293342L124.13671875000001,149.74880205467343L125.296875,160.8855977281928L126.45703125,58.24064105749129L127.6171875,35.758719742298126L128.77734375,146.19012573733926L129.9375,122.29375965893269L131.09765625,177.4913298059255L132.2578125,64.03651550412178L133.41796875,125.76904684305191L134.578125,84.99277174472809L135.73828125,113.07312823832034L136.8984375,121.40792045742273L138.05859375,77.04037386924028L139.21875,164.0920901298523L140.37890625,90.12001655995846L141.5390625,44.8968631774187L142.69921875,174.1957364231348L143.85937500000003,107.8255582228303L145.01953125,159.8673172853887L146.1796875,138.20081377401948L147.33984375,91.11720245331526L148.5,143.72709669172764L149.66015625,75.67543178796768L150.8203125,77.79433779418468L151.98046874999997,151.5600979886949L153.140625,130.98259853199124L154.30078125,168.45560675486922L155.4609375,194.55923252739012L156.62109375,143.00750276073813L157.78125,125.59091631323099L158.94140625,188.31031979992986L160.1015625,108.87980215251446L161.26171875000003,152.4139134772122L162.421875,151.30814477801323L163.58203125,123.93826633691786L164.7421875,155.34373154863715L165.90234375,63.33560939878224L167.0625,164.60726089775562L168.22265625,150.1260807365179L169.38281249999997,198.7954853894189L170.54296875,12.331802174448967L171.703125,94.52992580831051L172.86328125,132.53546288236976L174.0234375,148.6060643196106L175.18359375,194.30695787072182L177.50390625,185.28832640498877L178.66406250000003,142.33092764392495L179.82421875,169.14063837379217L180.984375,165.4433061927557L182.14453125,172.56830759346485L183.3046875,132.995114158839L184.46484375,121.43671322613955L185.625,185.60193130746484L186.78515624999997,66.80651172995567L187.9453125,179.86331820487976L189.10546875,102.79847268015146L190.265625,187.5858684629202L192.5859375,178.165575126186L193.74609375,168.8770361803472L194.90625,170.76806720346212L196.06640625000003,178.93562234006822L197.2265625,173.8437283411622L198.38671875,151.77792847156525L199.546875,170.4399779997766L200.70703125,143.1478125602007L201.8671875,160.85110135376453L203.02734375,164.70022197812796L204.18749999999997,73.41610059142113L205.34765625,159.52795824036002L206.5078125,174.30259386077523L207.66796875,48.02225228399037L208.828125,146.80363150313497L209.98828125,112.4608862772584L211.1484375,132.280185315758L212.30859375,121.91015645861624L213.46875000000003,117.77460273355246L214.62890625,28.507271930575364L215.7890625,131.59655487164855L216.94921875,125.42618211358784L218.109375,141.25823765993118L219.26953125,165.71590337902308L220.4296875,147.81708750873804L221.58984374999997,138.5126493498683L222.75,168.47411325201392L223.91015625,173.74830009415746L225.0703125,83.89187693595886L226.23046875,145.36893839016557L227.390625,92.66795679926872L228.55078125,107.52897072583437L229.7109375,108.42989865690468L230.87109375000003,146.62134140729904L232.03125,188.40256106108427L233.19140625,65.5150681361556L234.3515625,128.37128672748804L235.51171875,150.09034803137183L236.671875,110.93340791761875L237.83203125,183.76968094147742L238.99218749999997,122.93566256761551L240.15234375,156.70451406389475L241.3125,175.02425383776426L242.47265625,137.44450356811285L243.6328125,175.85285916924477L244.79296875,195.16580659896135L245.953125,139.86339285969734L247.11328125,151.81385898962617L248.27343750000003,153.81752798333764L249.43359375,145.75027773156762L250.59375,157.41709113121033L251.75390625,156.12564753741026L252.9140625,154.8011746816337L254.07421875,110.84347996860741L255.234375,181.45601438358426" style="fill: none;" fill="none"></path></g><g><path stroke="rgb(0, 119, 187)" stroke-width="2px" d="M34.8046875,-47.14836537837982L46.40625,48.81275665014982L58.0078125,-1.976005956530571L69.609375,80.69500043988228L81.2109375,72.1709232404828L92.8125,84.437631778419L104.4140625,79.947828091681L116.015625,76.2769478932023L127.6171875,77.8670560196042L139.21875,85.54308727383614L150.8203125,95.70825338363646L162.421875,84.42923571914434L174.0234375,81.7383536696434L185.625,89.51135721057653L197.2265625,77.59475555270909L208.828125,69.572101123631L220.4296875,75.19683443009852L232.03125,78.30646444112062L243.6328125,77.28091437369585" style="fill: none;" fill="none"></path></g></g></g></g></g></g><g transform="translate(51, 177)" clip-path="url(#clip_1)"><clipPath id="clip_1"><rect width="278" height="23"></rect></clipPath><g><g><line x1="0" y1="0" x2="0" y2="5" style="visibility: inherit;" fill="rgb(0, 0, 0)" stroke="rgb(204, 204, 204)" stroke-width="1px"></line><line x1="23.203125" y1="0" x2="23.203125" y2="5" style="visibility: inherit;" fill="rgb(0, 0, 0)" stroke="rgb(204, 204, 204)" stroke-width="1px"></line><line x1="46.40625" y1="0" x2="46.40625" y2="5" style="visibility: inherit;" fill="rgb(0, 0, 0)" stroke="rgb(204, 204, 204)" stroke-width="1px"></line><line x1="69.609375" y1="0" x2="69.609375" y2="5" style="visibility: inherit;" fill="rgb(0, 0, 0)" stroke="rgb(204, 204, 204)" stroke-width="1px"></line><line x1="92.8125" y1="0" x2="92.8125" y2="5" style="visibility: inherit;" fill="rgb(0, 0, 0)" stroke="rgb(204, 204, 204)" stroke-width="1px"></line><line x1="116.015625" y1="0" x2="116.015625" y2="5" style="visibility: inherit;" fill="rgb(0, 0, 0)" stroke="rgb(204, 204, 204)" stroke-width="1px"></line><line x1="139.21875" y1="0" x2="139.21875" y2="5" style="visibility: inherit;" fill="rgb(0, 0, 0)" stroke="rgb(204, 204, 204)" stroke-width="1px"></line><line x1="162.421875" y1="0" x2="162.421875" y2="5" style="visibility: inherit;" fill="rgb(0, 0, 0)" stroke="rgb(204, 204, 204)" stroke-width="1px"></line><line x1="185.625" y1="0" x2="185.625" y2="5" style="visibility: inherit;" fill="rgb(0, 0, 0)" stroke="rgb(204, 204, 204)" stroke-width="1px"></line><line x1="208.828125" y1="0" x2="208.828125" y2="5" style="visibility: inherit;" fill="rgb(0, 0, 0)" stroke="rgb(204, 204, 204)" stroke-width="1px"></line><line x1="232.03125" y1="0" x2="232.03125" y2="5" style="visibility: inherit;" fill="rgb(0, 0, 0)" stroke="rgb(204, 204, 204)" stroke-width="1px"></line><line x1="255.234375" y1="0" x2="255.234375" y2="5" style="visibility: inherit;" fill="rgb(0, 0, 0)" stroke="rgb(204, 204, 204)" stroke-width="1px"></line><line x1="278.4375" y1="0" x2="278.4375" y2="5" style="visibility: inherit;" fill="rgb(0, 0, 0)" stroke="rgb(204, 204, 204)" stroke-width="1px"></line></g><g transform="translate(0, 8)"><text x="0" y="0" dx="0em" dy="0.95em" style="text-anchor: middle; visibility: hidden; font-family: Roboto, sans-serif; font-size: 12px; font-weight: 200;" fill="rgb(255, 255, 255)" stroke="none" stroke-width="1px">-2k</text><text x="23.203125" y="0" dx="0em" dy="0.95em" style="text-anchor: middle; visibility: inherit; font-family: Roboto, sans-serif; font-size: 12px; font-weight: 200;" fill="rgb(255, 255, 255)" stroke="none" stroke-width="1px">0</text><text x="46.40625" y="0" dx="0em" dy="0.95em" style="text-anchor: middle; visibility: hidden; font-family: Roboto, sans-serif; font-size: 12px; font-weight: 200;" fill="rgb(255, 255, 255)" stroke="none" stroke-width="1px">2k</text><text x="69.609375" y="0" dx="0em" dy="0.95em" style="text-anchor: middle; visibility: inherit; font-family: Roboto, sans-serif; font-size: 12px; font-weight: 200;" fill="rgb(255, 255, 255)" stroke="none" stroke-width="1px">4k</text><text x="92.8125" y="0" dx="0em" dy="0.95em" style="text-anchor: middle; visibility: hidden; font-family: Roboto, sans-serif; font-size: 12px; font-weight: 200;" fill="rgb(255, 255, 255)" stroke="none" stroke-width="1px">6k</text><text x="116.015625" y="0" dx="0em" dy="0.95em" style="text-anchor: middle; visibility: inherit; font-family: Roboto, sans-serif; font-size: 12px; font-weight: 200;" fill="rgb(255, 255, 255)" stroke="none" stroke-width="1px">8k</text><text x="139.21875" y="0" dx="0em" dy="0.95em" style="text-anchor: middle; visibility: hidden; font-family: Roboto, sans-serif; font-size: 12px; font-weight: 200;" fill="rgb(255, 255, 255)" stroke="none" stroke-width="1px">10k</text><text x="162.421875" y="0" dx="0em" dy="0.95em" style="text-anchor: middle; visibility: inherit; font-family: Roboto, sans-serif; font-size: 12px; font-weight: 200;" fill="rgb(255, 255, 255)" stroke="none" stroke-width="1px">12k</text><text x="185.625" y="0" dx="0em" dy="0.95em" style="text-anchor: middle; visibility: hidden; font-family: Roboto, sans-serif; font-size: 12px; font-weight: 200;" fill="rgb(255, 255, 255)" stroke="none" stroke-width="1px">14k</text><text x="208.828125" y="0" dx="0em" dy="0.95em" style="text-anchor: middle; visibility: inherit; font-family: Roboto, sans-serif; font-size: 12px; font-weight: 200;" fill="rgb(255, 255, 255)" stroke="none" stroke-width="1px">16k</text><text x="232.03125" y="0" dx="0em" dy="0.95em" style="text-anchor: middle; visibility: hidden; font-family: Roboto, sans-serif; font-size: 12px; font-weight: 200;" fill="rgb(255, 255, 255)" stroke="none" stroke-width="1px">18k</text><text x="255.234375" y="0" dx="0em" dy="0.95em" style="text-anchor: middle; visibility: inherit; font-family: Roboto, sans-serif; font-size: 12px; font-weight: 200;" fill="rgb(255, 255, 255)" stroke="none" stroke-width="1px">20k</text><text x="278.4375" y="0" dx="0em" dy="0.95em" style="text-anchor: middle; visibility: hidden; font-family: Roboto, sans-serif; font-size: 12px; font-weight: 200;" fill="rgb(255, 255, 255)" stroke="none" stroke-width="1px">22k</text></g><line x1="0" y1="0" x2="278.4375" y2="0" fill="rgb(0, 0, 0)" stroke="rgb(204, 204, 204)" stroke-width="1px"></line></g></g></g></g></svg>