<svg viewBox="0 0 330 200" xmlns="http://www.w3.org/2000/svg"><g><g><g><g><g><line x1="51.5625" y1="177" x2="46.5625" y2="177" style="visibility: inherit;" fill="rgb(0, 0, 0)" stroke="rgb(204, 204, 204)" stroke-width="1px"></line><line x1="51.5625" y1="154.87500000000048" x2="46.5625" y2="154.87500000000048" style="visibility: inherit;" fill="rgb(0, 0, 0)" stroke="rgb(204, 204, 204)" stroke-width="1px"></line><line x1="51.5625" y1="132.75" x2="46.5625" y2="132.75" style="visibility: inherit;" fill="rgb(0, 0, 0)" stroke="rgb(204, 204, 204)" stroke-width="1px"></line><line x1="51.5625" y1="110.6250000000005" x2="46.5625" y2="110.6250000000005" style="visibility: inherit;" fill="rgb(0, 0, 0)" stroke="rgb(204, 204, 204)" stroke-width="1px"></line><line x1="51.5625" y1="88.5" x2="46.5625" y2="88.5" style="visibility: inherit;" fill="rgb(0, 0, 0)" stroke="rgb(204, 204, 204)" stroke-width="1px"></line><line x1="51.5625" y1="66.3750000000005" x2="46.5625" y2="66.3750000000005" style="visibility: inherit;" fill="rgb(0, 0, 0)" stroke="rgb(204, 204, 204)" stroke-width="1px"></line><line x1="51.5625" y1="44.25" x2="46.5625" y2="44.25" style="visibility: inherit;" fill="rgb(0, 0, 0)" stroke="rgb(204, 204, 204)" stroke-width="1px"></line><line x1="51.5625" y1="22.12500000000049" x2="46.5625" y2="22.12500000000049" style="visibility: inherit;" fill="rgb(0, 0, 0)" stroke="rgb(204, 204, 204)" stroke-width="1px"></line><line x1="51.5625" y1="0" x2="46.5625" y2="0" style="visibility: inherit;" fill="rgb(0, 0, 0)" stroke="rgb(204, 204, 204)" stroke-width="1px"></line></g><g transform="translate(41.5625, 0)"><text x="0" y="177" dx="0em" dy="0.3em" style="text-anchor: end; visibility: hidden; font-family: Roboto, sans-serif; font-size: 12px; font-weight: 200;" fill="rgb(255, 255, 255)" stroke="none" stroke-width="1px">2.08</text><text x="0" y="154.87500000000048" dx="0em" dy="0.3em" style="text-anchor: end; visibility: inherit; font-family: Roboto, sans-serif; font-size: 12px; font-weight: 200;" fill="rgb(255, 255, 255)" stroke="none" stroke-width="1px">2.09</text><text x="0" y="132.75" dx="0em" dy="0.3em" style="text-anchor: end; visibility: hidden; font-family: Roboto, sans-serif; font-size: 12px; font-weight: 200;" fill="rgb(255, 255, 255)" stroke="none" stroke-width="1px">2.1</text><text x="0" y="110.6250000000005" dx="0em" dy="0.3em" style="text-anchor: end; visibility: inherit; font-family: Roboto, sans-serif; font-size: 12px; font-weight: 200;" fill="rgb(255, 255, 255)" stroke="none" stroke-width="1px">2.11</text><text x="0" y="88.5" dx="0em" dy="0.3em" style="text-anchor: end; visibility: hidden; font-family: Roboto, sans-serif; font-size: 12px; font-weight: 200;" fill="rgb(255, 255, 255)" stroke="none" stroke-width="1px">2.12</text><text x="0" y="66.3750000000005" dx="0em" dy="0.3em" style="text-anchor: end; visibility: inherit; font-family: Roboto, sans-serif; font-size: 12px; font-weight: 200;" fill="rgb(255, 255, 255)" stroke="none" stroke-width="1px">2.13</text><text x="0" y="44.25" dx="0em" dy="0.3em" style="text-anchor: end; visibility: hidden; font-family: Roboto, sans-serif; font-size: 12px; font-weight: 200;" fill="rgb(255, 255, 255)" stroke="none" stroke-width="1px">2.14</text><text x="0" y="22.12500000000049" dx="0em" dy="0.3em" style="text-anchor: end; visibility: inherit; font-family: Roboto, sans-serif; font-size: 12px; font-weight: 200;" fill="rgb(255, 255, 255)" stroke="none" stroke-width="1px">2.15</text><text x="0" y="0" dx="0em" dy="0.3em" style="text-anchor: end; visibility: hidden; font-family: Roboto, sans-serif; font-size: 12px; font-weight: 200;" fill="rgb(255, 255, 255)" stroke="none" stroke-width="1px">2.16</text></g><line x1="51.5625" y1="0" x2="51.5625" y2="177" fill="rgb(0, 0, 0)" stroke="rgb(204, 204, 204)" stroke-width="1px"></line></g></g><g transform="translate(51, 0)" clip-path="url(#clip_0)"><clipPath id="clip_0"><rect width="278" height="177"></rect></clipPath><g><g><g><line x1="0" y1="0" x2="0" y2="177" fill="rgb(0, 0, 0)" stroke="rgb(189, 189, 189)" stroke-width="1px" opacity="0.25"></line><line x1="23.203125" y1="0" x2="23.203125" y2="177" fill="rgb(0, 0, 0)" stroke="rgb(189, 189, 189)" stroke-width="1px" opacity="0.25"></line><line x1="46.40625" y1="0" x2="46.40625" y2="177" fill="rgb(0, 0, 0)" stroke="rgb(189, 189, 189)" stroke-width="1px" opacity="0.25"></line><line x1="69.609375" y1="0" x2="69.609375" y2="177" fill="rgb(0, 0, 0)" stroke="rgb(189, 189, 189)" stroke-width="1px" opacity="0.25"></line><line x1="92.8125" y1="0" x2="92.8125" y2="177" fill="rgb(0, 0, 0)" stroke="rgb(189, 189, 189)" stroke-width="1px" opacity="0.25"></line><line x1="116.015625" y1="0" x2="116.015625" y2="177" fill="rgb(0, 0, 0)" stroke="rgb(189, 189, 189)" stroke-width="1px" opacity="0.25"></line><line x1="139.21875" y1="0" x2="139.21875" y2="177" fill="rgb(0, 0, 0)" stroke="rgb(189, 189, 189)" stroke-width="1px" opacity="0.25"></line><line x1="162.421875" y1="0" x2="162.421875" y2="177" fill="rgb(0, 0, 0)" stroke="rgb(189, 189, 189)" stroke-width="1px" opacity="0.25"></line><line x1="185.625" y1="0" x2="185.625" y2="177" fill="rgb(0, 0, 0)" stroke="rgb(189, 189, 189)" stroke-width="1px" opacity="0.25"></line><line x1="208.828125" y1="0" x2="208.828125" y2="177" fill="rgb(0, 0, 0)" stroke="rgb(189, 189, 189)" stroke-width="1px" opacity="0.25"></line><line x1="232.03125" y1="0" x2="232.03125" y2="177" fill="rgb(0, 0, 0)" stroke="rgb(189, 189, 189)" stroke-width="1px" opacity="0.25"></line><line x1="255.234375" y1="0" x2="255.234375" y2="177" fill="rgb(0, 0, 0)" stroke="rgb(189, 189, 189)" stroke-width="1px" opacity="0.25"></line><line x1="278.4375" y1="0" x2="278.4375" y2="177" fill="rgb(0, 0, 0)" stroke="rgb(189, 189, 189)" stroke-width="1px" opacity="0.25"></line></g><g><line x1="0" y1="177" x2="278.4375" y2="177" fill="rgb(0, 0, 0)" stroke="rgb(189, 189, 189)" stroke-width="1px" opacity="0.25"></line><line x1="0" y1="154.87500000000048" x2="278.4375" y2="154.87500000000048" fill="rgb(0, 0, 0)" stroke="rgb(189, 189, 189)" stroke-width="1px" opacity="0.25"></line><line x1="0" y1="132.75" x2="278.4375" y2="132.75" fill="rgb(0, 0, 0)" stroke="rgb(189, 189, 189)" stroke-width="1px" opacity="0.25"></line><line x1="0" y1="110.6250000000005" x2="278.4375" y2="110.6250000000005" fill="rgb(0, 0, 0)" stroke="rgb(189, 189, 189)" stroke-width="1px" opacity="0.25"></line><line x1="0" y1="88.5" x2="278.4375" y2="88.5" fill="rgb(0, 0, 0)" stroke="rgb(189, 189, 189)" stroke-width="1px" opacity="0.25"></line><line x1="0" y1="66.3750000000005" x2="278.4375" y2="66.3750000000005" fill="rgb(0, 0, 0)" stroke="rgb(189, 189, 189)" stroke-width="1px" opacity="0.25"></line><line x1="0" y1="44.25" x2="278.4375" y2="44.25" fill="rgb(0, 0, 0)" stroke="rgb(189, 189, 189)" stroke-width="1px" opacity="0.25"></line><line x1="0" y1="22.12500000000049" x2="278.4375" y2="22.12500000000049" fill="rgb(0, 0, 0)" stroke="rgb(189, 189, 189)" stroke-width="1px" opacity="0.25"></line><line x1="0" y1="0" x2="278.4375" y2="0" fill="rgb(0, 0, 0)" stroke="rgb(189, 189, 189)" stroke-width="1px" opacity="0.25"></line></g></g></g><g><g><line x1="0" y1="4778.999999999996" x2="278.4375" y2="4778.999999999996" fill="rgb(0, 0, 0)" stroke="rgb(153, 153, 153)" stroke-width="1.5px"></line></g></g><g><g><line x1="23.203125" y1="0" x2="23.203125" y2="177" fill="rgb(0, 0, 0)" stroke="rgb(153, 153, 153)" stroke-width="1.5px"></line></g></g><g><g><g><g><g><path stroke="rgb(255, 112, 67)" stroke-width="2px" d="M29.00390625,209.68572396592145L30.1640625,150.574019448917L31.32421875,110.66673100179793L32.484375,99.11075258579706L33.64453125,53.23828875416401L34.8046875,35.116913149936515L35.96484375000001,208.41551222298835L37.125,174.19143021248095L38.28515625,125.77588582711684L39.4453125,78.21486758589248L40.60546875,47.650232101728626L41.765625,53.86460544536254L42.92578125,21.855876367509417L44.0859375,18.767737087743665L45.24609375,26.201538611309235L46.40625,6.79587398903686L47.56640625,109.32503032819963L48.7265625,110.48677867390187L49.88671875,73.72609052513413L51.04687499999999,56.91388228105902L52.20703125,58.25168176098098L53.36718750000001,40.60571485476508L54.52734375,42.13233477984419L55.6875,21.493331293589378L56.84765625,13.68696059863763L58.0078125,33.193291101287365L59.16796875,120.40339400839288L60.328125,82.95803693822448L61.48828125,38.995786498129185L62.6484375,31.083930832044818L63.80859375,53.958252979290634L64.96875,27.325001962239355L66.12890625,5.550346339446727L67.2890625,60.54037002758639L68.44921875,43.562727199139644L69.609375,35.11520717573013L70.76953125,120.62686420403976L71.92968750000001,71.5170597371943L73.08984375,74.87461691819107L74.25,46.781498079931474L75.41015625,29.866124655298528L76.5703125,11.370567097400066L77.73046875,35.823642120164806L78.890625,24.29281918106528L80.05078125,18.940581702506574L81.2109375,19.516064157082333L82.37109375,119.98021959710837L83.53125,75.41955599443249L84.69140624999999,59.32749715597292L85.8515625,22.999484915403837L87.01171875,114.48375114140788L88.171875,57.19149460991823L89.33203125000001,38.48081354260325L90.4921875,61.57700288272136L91.65234375,45.48974468693747L92.8125,13.999054970654475L93.97265625,145.11835974593097L95.1328125,80.5746582635579L96.29296875,100.74984390070095L97.453125,72.64291295129085L98.61328125,49.8409909291143L99.7734375,30.382012598697564L100.93359375,68.01890601693691L102.09374999999999,62.81671479927889L103.25390625,23.59005934946149L104.4140625,53.19853653283295L105.57421875,148.5174684868543L106.73437500000001,143.77028076328537L107.89453125,123.65031590746392L109.0546875,103.2178664606019L110.21484375,45.408676266742916L111.375,75.27642652992785L112.53515625,70.19148744108894L113.6953125,43.39136918164892L114.85546875,20.0847440706344L116.015625,40.646816453138186L117.17578125,146.1681853060722L118.3359375,122.94677114038471L119.49609374999999,53.19354457586287L120.65625,41.96979986983158L121.81640625,70.52980806444646L122.9765625,82.8621769071494L124.13671875000001,91.44045768504616L125.296875,106.67050429776502L126.45703125,66.3557255541995L127.6171875,71.62927209590235L128.77734375,140.78632041963596L129.9375,92.76930869312652L131.09765625,74.61145899708005L132.2578125,36.86124585875841L133.41796875,68.04766988044354L134.578125,105.3509842830027L135.73828125,61.706714455910344L136.8984375,63.062884321587276L138.05859375,35.65211204932761L139.21875,26.076456095257925L140.37890625,103.30529853432137L141.5390625,68.01391780810897L142.69921875,65.57044265530882L143.85937500000003,33.748567902221275L145.01953125,-0.567816875473115L146.1796875,32.98907481306994L147.33984375,29.5519283930915L148.5,7.352602310208262L149.66015625,33.14658068849342L150.8203125,25.73596071740181L151.98046874999997,125.86457304680384L153.140625,74.20708911731299L154.30078125,106.89865132042408L155.4609375,78.2326783887658L156.62109375,50.22966097307896L157.78125,63.39708737440611L158.94140625,40.98965065424279L160.1015625,49.72618813958538L161.26171875000003,33.33212525634045L162.421875,10.559250396419362L163.58203125,100.85396649952463L164.7421875,76.06261455128025L165.90234375,81.09569513266968L167.0625,56.58652674833341L168.22265625,40.519650862689765L169.38281249999997,31.02384963397712L170.54296875,15.299205868032875L171.703125,69.15716734444307L172.86328125,51.35554112741408L174.0234375,24.52817853539633L175.18359375,124.55775351672997L176.34375,85.80809037297796L177.50390625,83.8828412080396L178.66406250000003,43.27588397172636L179.82421875,11.018183075830567L180.984375,11.172030450967393L182.14453125,-15.57470641012907L183.3046875,-35.78241125032857L184.46484375,5.022004847016115L185.625,-3.0394207452020705L186.78515624999997,80.14171448860859L187.9453125,28.2108210534707L189.10546875,11.607517517259561L190.265625,64.59477441111265L191.42578125,50.42490215658553L192.5859375,38.8185292932957L193.74609375,27.7311239274481L194.90625,16.34889478875126L196.06640625000003,16.2878184997611L197.2265625,46.96460813782043L198.38671875,163.44938460887388L199.546875,151.17288017213858L200.70703125,87.36836814844891L201.8671875,36.736016034867404L203.02734375,35.988451909892085L204.18749999999997,38.556375760955916L205.34765625,34.055132400466896L206.5078125,9.211366946383803L207.66796875,9.175996860793251L208.828125,53.61678805406739L209.98828125,163.5962644961827L211.1484375,95.83752187176617L212.30859375,62.79158525517002L213.46875000000003,35.69104903251232L214.62890625,27.414984043301878L215.7890625,7.4691576336989645L216.94921875,45.617220889041704L218.109375,33.027178436821956L219.26953125,51.13755878824398L220.4296875,35.613117653240906L221.58984374999997,114.79984557515954L222.75,111.69245417050475L223.91015625,83.43270797212107L225.0703125,96.16166850733319L226.23046875,48.00039980892905L227.390625,51.960627496746895L228.55078125,70.73107649118177L229.7109375,25.722903878870977L230.87109375000003,13.343706984152734L232.03125,31.62954677273604L233.19140625,116.57358577924873L234.3515625,61.71421424792923L235.51171875,38.677421046773624L236.671875,20.077662106443388L237.83203125,25.26485502486813L238.99218749999997,-2.7928695931114076L240.15234375,41.771936401482265L241.3125,24.084465828392347L242.47265625,9.423728994639719L243.6328125,23.37545560128164L244.79296875,107.26460493997818L245.953125,100.06608088848672L247.11328125,58.54969844840646L248.27343750000003,21.931876430647193L249.43359375,48.96371498688228L250.59375,39.240946715975916L251.75390625,12.480683866682455L252.9140625,13.343596639361179L254.07421875,8.974152053670142L255.234375,35.944242361352565" style="fill: none;" fill="none"></path></g></g></g></g><g opacity="0.2"><g><g><g><path stroke="rgb(255, 112, 67)" stroke-width="2px" d="M25.523437499999996,-35.02257084846461L26.683593750000004,97.43137443065667L27.84375,58.63630557060267L29.00390625,53.03846383094815L30.1640625,68.8012518882754L31.32421875,53.59867000579862L32.484375,82.26202511787439L33.64453125,-14.41468513011901L34.8046875,8.208782315254526L35.96484375000001,466.7916052937506L37.125,123.04155313968678L38.28515625,53.31065440177945L39.4453125,6.966517210007028L40.60546875,1.839206457138376L41.765625,63.18178260326411L42.92578125,-26.143672227859142L44.0859375,14.136312246322927L45.24609375,37.35110843181638L46.40625,-22.310849189757946L47.56640625,263.1131418943406L48.7265625,112.22936296463034L49.88671875,18.585784077644643L51.04687499999999,31.695769071579274L52.20703125,60.25837147235896L53.36718750000001,14.136839747429189L54.52734375,44.42226076126126L55.6875,-9.46514225006072L56.84765625,1.9774117469790742L58.0078125,62.45277607440974L59.16796875,251.2185194492341L60.328125,26.79000878334075L61.48828125,-26.947583913802745L62.6484375,19.21614789962798L63.80859375,88.26973521709466L64.96875,-12.62487387657134L66.12890625,-27.11163675785029L67.2890625,143.02540504932423L68.44921875,18.096263051033315L69.609375,22.443927168846425L70.76953125,248.8943495750428L71.92968750000001,-2.147646903991385L73.08984375,79.91095268726373L74.25,4.641819834709482L75.41015625,4.4930645227435395L76.5703125,-16.372769236564324L77.73046875,72.50325465202357L78.890625,6.996584773063974L80.05078125,10.912225484848337L81.2109375,20.379287838936147L82.37109375,270.6764527559281L83.53125,8.578560590744333L84.69140624999999,35.189408898353854L85.8515625,-31.49253344535792L88.171875,-28.746890187263133L89.33203125000001,10.414791941643076L90.4921875,96.22128689289117L91.65234375,21.358857393265065L92.8125,-33.23697960376704L95.1328125,-16.240893959998772L96.29296875,131.012622356415L97.453125,30.482516527176198L98.61328125,15.63810789585143L99.7734375,1.1935451030734345L100.93359375,124.47424614429494L102.09374999999999,55.013427972793856L103.25390625,-35.24992382526362L104.4140625,97.61125230789209L105.57421875,291.4958664178849L106.73437500000001,136.64949917793294L107.89453125,93.47036862373376L109.0546875,72.56919229030635L110.21484375,-41.305109024047496L111.375,120.0780519247057L112.53515625,62.564078807831066L113.6953125,3.1911917924884126L114.85546875,-14.875193595885916L116.015625,71.48992502689387L117.17578125,304.45023858547216L118.3359375,88.11464989185357L119.49609374999999,-51.436295270919445L120.65625,25.13418281078368L121.81640625,113.36982035636923L122.9765625,101.36073017120385L124.13671875000001,104.3078788518908L125.296875,129.51557421684285L126.45703125,5.883557438850717L127.6171875,79.53959190845514L128.77734375,244.52189290523538L129.9375,20.743791103363332L131.09765625,47.374684453010836L132.2578125,-19.764073848724053L133.41796875,114.82730591297171L134.578125,161.305955886841L135.73828125,-3.7596902847286895L136.8984375,65.09713912010218L138.05859375,-5.46404635906188L139.21875,11.712972164154348L140.37890625,219.14856219291698L141.5390625,15.076846718788442L142.69921875,61.90522992610957L143.85937500000003,-13.984244227409048L145.01953125,-52.04239404201472L146.1796875,83.32441234588647L147.33984375,24.396208763122853L148.5,-25.946386814117076L149.66015625,71.83754825592067L150.8203125,14.62003076076537L151.98046874999997,276.05749154090887L153.140625,-3.279136776923819L154.30078125,155.93599462509172L155.4609375,35.23371899127988L156.62109375,8.225134849548654L157.78125,83.1482269763949L158.94140625,7.378495573997812L160.1015625,62.83099436759974L161.26171875000003,8.741030931473093L162.421875,-23.60006189346278L163.58203125,236.29604065418255L164.7421875,38.87558662891416L165.90234375,88.64531600475335L167.0625,19.82277417182952L168.22265625,16.41933703422576L169.38281249999997,16.78014779090911L170.54296875,-8.287759780883475L171.703125,149.9441095590593L172.86328125,24.65310180187255L174.0234375,-15.7128653526303L175.18359375,274.60211598873144L176.34375,27.683595657348928L177.50390625,80.99496746063257L178.66406250000003,-17.634551882743523L179.82421875,-37.368368268012645L180.984375,11.40280151367217L182.14453125,-55.69481170177424L183.3046875,-66.09396851062739L184.46484375,66.22862899303462L185.625,-15.131559133529349L189.10546875,-13.297437787055655L190.265625,144.0756597518923L191.42578125,29.170093774795827L192.5859375,21.408969998359975L193.74609375,11.100015878677663L194.90625,-0.7244489192959502L196.06640625000003,16.196204066276845L197.2265625,92.97979259490991L198.38671875,338.1765493154526L199.546875,132.75812351703664L200.70703125,-8.338399887084647L201.8671875,-39.21251213550532L203.02734375,34.867105722427645L204.18749999999997,42.40826153755216L205.34765625,27.303267359733876L206.5078125,-28.054281234740856L207.66796875,9.12294173240693L208.828125,120.27797484397908L209.98828125,328.56547915935516L211.1484375,-5.8005920648571685L212.30859375,13.222680330276784L213.46875000000003,-4.9597553014752105L214.62890625,15.000886559486684L215.7890625,-22.449581980704906L216.94921875,102.83931577205682L218.109375,14.142114758491811L219.26953125,78.30312931537652L220.4296875,12.326455950737294L221.58984374999997,233.57993745803844L222.75,107.03136706352255L223.91015625,41.043088674545565L225.0703125,115.25510931015036L226.23046875,-24.241503238677623L227.390625,57.900969028473156L228.55078125,98.8867499828341L229.7109375,-41.7893550395962L230.87109375000003,-5.225088357925101L232.03125,59.05830645561244L233.19140625,243.9896442890168L234.3515625,-20.574843049049065L235.51171875,4.122231245041208L236.671875,-7.821976304053946L237.83203125,33.04564440250426L238.99218749999997,-44.87945652008021L240.15234375,108.6191453933718L241.3125,-2.446740031242056L242.47265625,-12.56737625598876L243.6328125,44.303045511246005L244.79296875,233.09832894802105L245.953125,89.26829481124902L247.11328125,-3.724875211715384L248.27343750000003,-32.99485659599269L249.43359375,89.5114728212359L250.59375,24.656794309616384L251.75390625,-27.659710407256725L252.9140625,14.637965798378286L254.07421875,2.419985175133066L255.234375,76.39937782287623" style="fill: none;" fill="none"></path></g></g></g></g></g></g><g transform="translate(51, 177)" clip-path="url(#clip_1)"><clipPath id="clip_1"><rect width="278" height="23"></rect></clipPath><g><g><line x1="0" y1="0" x2="0" y2="5" style="visibility: inherit;" fill="rgb(0, 0, 0)" stroke="rgb(204, 204, 204)" stroke-width="1px"></line><line x1="23.203125" y1="0" x2="23.203125" y2="5" style="visibility: inherit;" fill="rgb(0, 0, 0)" stroke="rgb(204, 204, 204)" stroke-width="1px"></line><line x1="46.40625" y1="0" x2="46.40625" y2="5" style="visibility: inherit;" fill="rgb(0, 0, 0)" stroke="rgb(204, 204, 204)" stroke-width="1px"></line><line x1="69.609375" y1="0" x2="69.609375" y2="5" style="visibility: inherit;" fill="rgb(0, 0, 0)" stroke="rgb(204, 204, 204)" stroke-width="1px"></line><line x1="92.8125" y1="0" x2="92.8125" y2="5" style="visibility: inherit;" fill="rgb(0, 0, 0)" stroke="rgb(204, 204, 204)" stroke-width="1px"></line><line x1="116.015625" y1="0" x2="116.015625" y2="5" style="visibility: inherit;" fill="rgb(0, 0, 0)" stroke="rgb(204, 204, 204)" stroke-width="1px"></line><line x1="139.21875" y1="0" x2="139.21875" y2="5" style="visibility: inherit;" fill="rgb(0, 0, 0)" stroke="rgb(204, 204, 204)" stroke-width="1px"></line><line x1="162.421875" y1="0" x2="162.421875" y2="5" style="visibility: inherit;" fill="rgb(0, 0, 0)" stroke="rgb(204, 204, 204)" stroke-width="1px"></line><line x1="185.625" y1="0" x2="185.625" y2="5" style="visibility: inherit;" fill="rgb(0, 0, 0)" stroke="rgb(204, 204, 204)" stroke-width="1px"></line><line x1="208.828125" y1="0" x2="208.828125" y2="5" style="visibility: inherit;" fill="rgb(0, 0, 0)" stroke="rgb(204, 204, 204)" stroke-width="1px"></line><line x1="232.03125" y1="0" x2="232.03125" y2="5" style="visibility: inherit;" fill="rgb(0, 0, 0)" stroke="rgb(204, 204, 204)" stroke-width="1px"></line><line x1="255.234375" y1="0" x2="255.234375" y2="5" style="visibility: inherit;" fill="rgb(0, 0, 0)" stroke="rgb(204, 204, 204)" stroke-width="1px"></line><line x1="278.4375" y1="0" x2="278.4375" y2="5" style="visibility: inherit;" fill="rgb(0, 0, 0)" stroke="rgb(204, 204, 204)" stroke-width="1px"></line></g><g transform="translate(0, 8)"><text x="0" y="0" dx="0em" dy="0.95em" style="text-anchor: middle; visibility: hidden; font-family: Roboto, sans-serif; font-size: 12px; font-weight: 200;" fill="rgb(255, 255, 255)" stroke="none" stroke-width="1px">-2k</text><text x="23.203125" y="0" dx="0em" dy="0.95em" style="text-anchor: middle; visibility: inherit; font-family: Roboto, sans-serif; font-size: 12px; font-weight: 200;" fill="rgb(255, 255, 255)" stroke="none" stroke-width="1px">0</text><text x="46.40625" y="0" dx="0em" dy="0.95em" style="text-anchor: middle; visibility: hidden; font-family: Roboto, sans-serif; font-size: 12px; font-weight: 200;" fill="rgb(255, 255, 255)" stroke="none" stroke-width="1px">2k</text><text x="69.609375" y="0" dx="0em" dy="0.95em" style="text-anchor: middle; visibility: inherit; font-family: Roboto, sans-serif; font-size: 12px; font-weight: 200;" fill="rgb(255, 255, 255)" stroke="none" stroke-width="1px">4k</text><text x="92.8125" y="0" dx="0em" dy="0.95em" style="text-anchor: middle; visibility: hidden; font-family: Roboto, sans-serif; font-size: 12px; font-weight: 200;" fill="rgb(255, 255, 255)" stroke="none" stroke-width="1px">6k</text><text x="116.015625" y="0" dx="0em" dy="0.95em" style="text-anchor: middle; visibility: inherit; font-family: Roboto, sans-serif; font-size: 12px; font-weight: 200;" fill="rgb(255, 255, 255)" stroke="none" stroke-width="1px">8k</text><text x="139.21875" y="0" dx="0em" dy="0.95em" style="text-anchor: middle; visibility: hidden; font-family: Roboto, sans-serif; font-size: 12px; font-weight: 200;" fill="rgb(255, 255, 255)" stroke="none" stroke-width="1px">10k</text><text x="162.421875" y="0" dx="0em" dy="0.95em" style="text-anchor: middle; visibility: inherit; font-family: Roboto, sans-serif; font-size: 12px; font-weight: 200;" fill="rgb(255, 255, 255)" stroke="none" stroke-width="1px">12k</text><text x="185.625" y="0" dx="0em" dy="0.95em" style="text-anchor: middle; visibility: hidden; font-family: Roboto, sans-serif; font-size: 12px; font-weight: 200;" fill="rgb(255, 255, 255)" stroke="none" stroke-width="1px">14k</text><text x="208.828125" y="0" dx="0em" dy="0.95em" style="text-anchor: middle; visibility: inherit; font-family: Roboto, sans-serif; font-size: 12px; font-weight: 200;" fill="rgb(255, 255, 255)" stroke="none" stroke-width="1px">16k</text><text x="232.03125" y="0" dx="0em" dy="0.95em" style="text-anchor: middle; visibility: hidden; font-family: Roboto, sans-serif; font-size: 12px; font-weight: 200;" fill="rgb(255, 255, 255)" stroke="none" stroke-width="1px">18k</text><text x="255.234375" y="0" dx="0em" dy="0.95em" style="text-anchor: middle; visibility: inherit; font-family: Roboto, sans-serif; font-size: 12px; font-weight: 200;" fill="rgb(255, 255, 255)" stroke="none" stroke-width="1px">20k</text><text x="278.4375" y="0" dx="0em" dy="0.95em" style="text-anchor: middle; visibility: hidden; font-family: Roboto, sans-serif; font-size: 12px; font-weight: 200;" fill="rgb(255, 255, 255)" stroke="none" stroke-width="1px">22k</text></g><line x1="0" y1="0" x2="278.4375" y2="0" fill="rgb(0, 0, 0)" stroke="rgb(204, 204, 204)" stroke-width="1px"></line></g></g></g></g></svg>