<svg viewBox="0 0 330 200" xmlns="http://www.w3.org/2000/svg"><g><g><g><g><g><line x1="51.5625" y1="177" x2="46.5625" y2="177" style="visibility: inherit;" fill="rgb(0, 0, 0)" stroke="rgb(204, 204, 204)" stroke-width="1px"></line><line x1="51.5625" y1="157.33333333333331" x2="46.5625" y2="157.33333333333331" style="visibility: inherit;" fill="rgb(0, 0, 0)" stroke="rgb(204, 204, 204)" stroke-width="1px"></line><line x1="51.5625" y1="137.6666666666667" x2="46.5625" y2="137.6666666666667" style="visibility: inherit;" fill="rgb(0, 0, 0)" stroke="rgb(204, 204, 204)" stroke-width="1px"></line><line x1="51.5625" y1="118.00000000000003" x2="46.5625" y2="118.00000000000003" style="visibility: inherit;" fill="rgb(0, 0, 0)" stroke="rgb(204, 204, 204)" stroke-width="1px"></line><line x1="51.5625" y1="98.33333333333334" x2="46.5625" y2="98.33333333333334" style="visibility: inherit;" fill="rgb(0, 0, 0)" stroke="rgb(204, 204, 204)" stroke-width="1px"></line><line x1="51.5625" y1="78.66666666666666" x2="46.5625" y2="78.66666666666666" style="visibility: inherit;" fill="rgb(0, 0, 0)" stroke="rgb(204, 204, 204)" stroke-width="1px"></line><line x1="51.5625" y1="58.999999999999964" x2="46.5625" y2="58.999999999999964" style="visibility: inherit;" fill="rgb(0, 0, 0)" stroke="rgb(204, 204, 204)" stroke-width="1px"></line><line x1="51.5625" y1="39.33333333333337" x2="46.5625" y2="39.33333333333337" style="visibility: inherit;" fill="rgb(0, 0, 0)" stroke="rgb(204, 204, 204)" stroke-width="1px"></line><line x1="51.5625" y1="19.666666666666696" x2="46.5625" y2="19.666666666666696" style="visibility: inherit;" fill="rgb(0, 0, 0)" stroke="rgb(204, 204, 204)" stroke-width="1px"></line><line x1="51.5625" y1="0" x2="46.5625" y2="0" style="visibility: inherit;" fill="rgb(0, 0, 0)" stroke="rgb(204, 204, 204)" stroke-width="1px"></line></g><g transform="translate(41.5625, 0)"><text x="0" y="177" dx="0em" dy="0.3em" style="text-anchor: end; visibility: hidden; font-family: Roboto, sans-serif; font-size: 12px; font-weight: 200;" fill="rgb(255, 255, 255)" stroke="none" stroke-width="1px">1.05</text><text x="0" y="157.33333333333331" dx="0em" dy="0.3em" style="text-anchor: end; visibility: inherit; font-family: Roboto, sans-serif; font-size: 12px; font-weight: 200;" fill="rgb(255, 255, 255)" stroke="none" stroke-width="1px">1.1</text><text x="0" y="137.6666666666667" dx="0em" dy="0.3em" style="text-anchor: end; visibility: hidden; font-family: Roboto, sans-serif; font-size: 12px; font-weight: 200;" fill="rgb(255, 255, 255)" stroke="none" stroke-width="1px">1.15</text><text x="0" y="118.00000000000003" dx="0em" dy="0.3em" style="text-anchor: end; visibility: inherit; font-family: Roboto, sans-serif; font-size: 12px; font-weight: 200;" fill="rgb(255, 255, 255)" stroke="none" stroke-width="1px">1.2</text><text x="0" y="98.33333333333334" dx="0em" dy="0.3em" style="text-anchor: end; visibility: hidden; font-family: Roboto, sans-serif; font-size: 12px; font-weight: 200;" fill="rgb(255, 255, 255)" stroke="none" stroke-width="1px">1.25</text><text x="0" y="78.66666666666666" dx="0em" dy="0.3em" style="text-anchor: end; visibility: inherit; font-family: Roboto, sans-serif; font-size: 12px; font-weight: 200;" fill="rgb(255, 255, 255)" stroke="none" stroke-width="1px">1.3</text><text x="0" y="58.999999999999964" dx="0em" dy="0.3em" style="text-anchor: end; visibility: hidden; font-family: Roboto, sans-serif; font-size: 12px; font-weight: 200;" fill="rgb(255, 255, 255)" stroke="none" stroke-width="1px">1.35</text><text x="0" y="39.33333333333337" dx="0em" dy="0.3em" style="text-anchor: end; visibility: inherit; font-family: Roboto, sans-serif; font-size: 12px; font-weight: 200;" fill="rgb(255, 255, 255)" stroke="none" stroke-width="1px">1.4</text><text x="0" y="19.666666666666696" dx="0em" dy="0.3em" style="text-anchor: end; visibility: hidden; font-family: Roboto, sans-serif; font-size: 12px; font-weight: 200;" fill="rgb(255, 255, 255)" stroke="none" stroke-width="1px">1.45</text><text x="0" y="0" dx="0em" dy="0.3em" style="text-anchor: end; visibility: hidden; font-family: Roboto, sans-serif; font-size: 12px; font-weight: 200;" fill="rgb(255, 255, 255)" stroke="none" stroke-width="1px">1.5</text></g><line x1="51.5625" y1="0" x2="51.5625" y2="177" fill="rgb(0, 0, 0)" stroke="rgb(204, 204, 204)" stroke-width="1px"></line></g></g><g transform="translate(51, 0)" clip-path="url(#clip_0)"><clipPath id="clip_0"><rect width="278" height="177"></rect></clipPath><g><g><g><line x1="0" y1="0" x2="0" y2="177" fill="rgb(0, 0, 0)" stroke="rgb(189, 189, 189)" stroke-width="1px" opacity="0.25"></line><line x1="23.203125" y1="0" x2="23.203125" y2="177" fill="rgb(0, 0, 0)" stroke="rgb(189, 189, 189)" stroke-width="1px" opacity="0.25"></line><line x1="46.40625" y1="0" x2="46.40625" y2="177" fill="rgb(0, 0, 0)" stroke="rgb(189, 189, 189)" stroke-width="1px" opacity="0.25"></line><line x1="69.609375" y1="0" x2="69.609375" y2="177" fill="rgb(0, 0, 0)" stroke="rgb(189, 189, 189)" stroke-width="1px" opacity="0.25"></line><line x1="92.8125" y1="0" x2="92.8125" y2="177" fill="rgb(0, 0, 0)" stroke="rgb(189, 189, 189)" stroke-width="1px" opacity="0.25"></line><line x1="116.015625" y1="0" x2="116.015625" y2="177" fill="rgb(0, 0, 0)" stroke="rgb(189, 189, 189)" stroke-width="1px" opacity="0.25"></line><line x1="139.21875" y1="0" x2="139.21875" y2="177" fill="rgb(0, 0, 0)" stroke="rgb(189, 189, 189)" stroke-width="1px" opacity="0.25"></line><line x1="162.421875" y1="0" x2="162.421875" y2="177" fill="rgb(0, 0, 0)" stroke="rgb(189, 189, 189)" stroke-width="1px" opacity="0.25"></line><line x1="185.625" y1="0" x2="185.625" y2="177" fill="rgb(0, 0, 0)" stroke="rgb(189, 189, 189)" stroke-width="1px" opacity="0.25"></line><line x1="208.828125" y1="0" x2="208.828125" y2="177" fill="rgb(0, 0, 0)" stroke="rgb(189, 189, 189)" stroke-width="1px" opacity="0.25"></line><line x1="232.03125" y1="0" x2="232.03125" y2="177" fill="rgb(0, 0, 0)" stroke="rgb(189, 189, 189)" stroke-width="1px" opacity="0.25"></line><line x1="255.234375" y1="0" x2="255.234375" y2="177" fill="rgb(0, 0, 0)" stroke="rgb(189, 189, 189)" stroke-width="1px" opacity="0.25"></line><line x1="278.4375" y1="0" x2="278.4375" y2="177" fill="rgb(0, 0, 0)" stroke="rgb(189, 189, 189)" stroke-width="1px" opacity="0.25"></line></g><g><line x1="0" y1="177" x2="278.4375" y2="177" fill="rgb(0, 0, 0)" stroke="rgb(189, 189, 189)" stroke-width="1px" opacity="0.25"></line><line x1="0" y1="157.33333333333331" x2="278.4375" y2="157.33333333333331" fill="rgb(0, 0, 0)" stroke="rgb(189, 189, 189)" stroke-width="1px" opacity="0.25"></line><line x1="0" y1="137.6666666666667" x2="278.4375" y2="137.6666666666667" fill="rgb(0, 0, 0)" stroke="rgb(189, 189, 189)" stroke-width="1px" opacity="0.25"></line><line x1="0" y1="118.00000000000003" x2="278.4375" y2="118.00000000000003" fill="rgb(0, 0, 0)" stroke="rgb(189, 189, 189)" stroke-width="1px" opacity="0.25"></line><line x1="0" y1="98.33333333333334" x2="278.4375" y2="98.33333333333334" fill="rgb(0, 0, 0)" stroke="rgb(189, 189, 189)" stroke-width="1px" opacity="0.25"></line><line x1="0" y1="78.66666666666666" x2="278.4375" y2="78.66666666666666" fill="rgb(0, 0, 0)" stroke="rgb(189, 189, 189)" stroke-width="1px" opacity="0.25"></line><line x1="0" y1="58.999999999999964" x2="278.4375" y2="58.999999999999964" fill="rgb(0, 0, 0)" stroke="rgb(189, 189, 189)" stroke-width="1px" opacity="0.25"></line><line x1="0" y1="39.33333333333337" x2="278.4375" y2="39.33333333333337" fill="rgb(0, 0, 0)" stroke="rgb(189, 189, 189)" stroke-width="1px" opacity="0.25"></line><line x1="0" y1="19.666666666666696" x2="278.4375" y2="19.666666666666696" fill="rgb(0, 0, 0)" stroke="rgb(189, 189, 189)" stroke-width="1px" opacity="0.25"></line><line x1="0" y1="0" x2="278.4375" y2="0" fill="rgb(0, 0, 0)" stroke="rgb(189, 189, 189)" stroke-width="1px" opacity="0.25"></line></g></g></g><g><g><line x1="0" y1="590" x2="278.4375" y2="590" fill="rgb(0, 0, 0)" stroke="rgb(153, 153, 153)" stroke-width="1.5px"></line></g></g><g><g><line x1="23.203125" y1="0" x2="23.203125" y2="177" fill="rgb(0, 0, 0)" stroke="rgb(153, 153, 153)" stroke-width="1.5px"></line></g></g><g><g><g><g><g><path stroke="rgb(255, 112, 67)" stroke-width="2px" d="M25.523437499999996,187.95993268489838L26.683593750000004,131.85755252838126L27.84375,107.1781934797764L29.00390625,95.01666620266876L30.1640625,86.76126953610547L31.32421875,82.21978363915056L32.484375,78.64425828674497L33.64453125,77.69951413871173L34.8046875,80.12500240788525L35.96484375000001,216.16366989059716L37.125,160.83420443708894L38.28515625,261.71537403477816L39.4453125,187.27863990148148L40.60546875,140.82864056090497L41.765625,112.03641674983051L42.92578125,95.23127420283932L44.0859375,86.20037309298476L45.24609375,79.76102129712568L46.40625,77.12653535276235L47.56640625,213.00665024209752L48.7265625,155.64857909622734L49.88671875,123.1228291271132L51.04687499999999,103.32210078930021L52.20703125,93.80986824397348L53.36718750000001,84.9794715698847L54.52734375,80.97892538875143L55.6875,77.28281296511716L56.84765625,75.47670113388062L58.0078125,74.22348384575935L59.16796875,212.2142237546059L60.328125,155.90410401032702L61.48828125,123.8690762100177L62.6484375,104.37627317553476L63.80859375,92.39106158899608L64.96875,85.15405858336229L66.12890625,81.92882753270642L67.2890625,79.44593176431069L68.44921875,78.32702993215149L69.609375,78.03867808260333L70.76953125,213.75213239315931L71.92968750000001,159.09708712087726L73.08984375,126.54008038049656L74.25,107.93641642728447L75.41015625,96.09185200408562L76.5703125,89.25675063175329L77.73046875,84.99999961544454L78.890625,81.81433559225428L80.05078125,79.42836436089499L81.2109375,78.22280529611298L82.37109375,214.00561533520707L83.53125,157.7691916751224L84.69140624999999,125.43768319247627L85.8515625,83.27134271115698L87.01171875,53.09544010746953L88.171875,34.80628127130264L89.33203125000001,23.97821685237871L90.4921875,17.427830977616953L91.65234375,28.59532818200976L92.8125,27.079413006719655L93.97265625,173.87030025523336L95.1328125,107.34869547804941L96.29296875,67.84299159916651L97.453125,44.17633023781999L98.61328125,30.469718100170837L99.7734375,22.23815480165111L100.93359375,16.916996554289838L102.09374999999999,13.964542020810429L103.25390625,11.897874992759753L104.4140625,10.63497419456941L105.57421875,163.840308558744L106.73437500000001,102.7767568261236L107.89453125,72.88730145081739L109.0546875,50.758001648892154L110.21484375,35.21412697047544L111.375,30.739349404636318L112.53515625,22.755052017964918L113.6953125,16.95926747786882L114.85546875,13.50222159664561L116.015625,11.265533104980406L117.17578125,163.82480454570717L118.3359375,101.39730194485185L119.49609374999999,63.816994702474325L120.65625,41.378868187858366L121.81640625,27.629294255610557L122.9765625,19.671574508688614L124.13671875000001,14.835630620842295L125.296875,11.731803952847919L126.45703125,11.144475781437727L127.6171875,10.159977819631752L128.77734375,162.61905019250133L129.9375,101.15425514042344L131.09765625,69.0829059691824L132.2578125,47.05832289923817L133.41796875,33.09102356793236L134.578125,23.422622245719563L135.73828125,17.9747680597527L136.8984375,14.765435761592183L138.05859375,12.228910390365886L139.21875,10.493218897081597L140.37890625,162.1272791216556L141.5390625,100.78797750412132L142.69921875,63.529404557180634L143.85937500000003,41.17259154107108L145.01953125,27.40507330131098L146.1796875,19.366703623324096L147.33984375,14.755413727237388L148.5,11.609082815810178L149.66015625,9.740039863843233L150.8203125,8.454390103812129L151.98046874999997,162.05158043018687L153.140625,100.46649468806405L154.30078125,64.7516057463508L155.4609375,42.44918681613726L156.62109375,28.544435605002214L157.78125,20.236057661727767L158.94140625,15.518992079946887L160.1015625,12.58979821224215L161.26171875000003,10.729632520790087L162.421875,9.529845641522748L163.58203125,162.68010500657712L164.7421875,100.81371301564462L165.90234375,63.757365509785565L167.0625,41.557467121830044L168.22265625,27.92541623450349L169.38281249999997,19.79384366872134L170.54296875,14.985646233174537L171.703125,12.067642902461662L172.86328125,10.262449678854962L174.0234375,9.50645007515555L175.18359375,163.15845361048744L176.34375,100.83681220230321L177.50390625,63.43097977489342L178.66406250000003,40.99854611943228L179.82421875,28.185047369738868L180.984375,19.862371322437436L182.14453125,15.263064565414744L183.3046875,12.23570688296629L184.46484375,10.508475127195908L185.625,9.175253762230708L186.78515624999997,161.18189767207232L187.9453125,99.77008920037063L189.10546875,62.70142551932719L190.265625,40.69812327627729L191.42578125,27.37394922974344L192.5859375,19.235514366642423L193.74609375,14.632849592377225L194.90625,11.83019473060537L196.06640625000003,10.010729435510806L197.2265625,9.093533557709417L198.38671875,163.3091710023421L199.546875,100.97868923419742L200.70703125,63.686012928132406L201.8671875,41.3482746905749L203.02734375,27.515697246392385L204.18749999999997,19.46642543808612L205.34765625,14.543046867465891L206.5078125,11.836837400366356L207.66796875,10.122184596083184L208.828125,9.070548598938162L209.98828125,162.96686171589675L211.1484375,102.05854955771596L212.30859375,65.37079467450998L213.46875000000003,43.19258610849824L214.62890625,29.494119169981726L215.7890625,20.726006477676734L216.94921875,15.285160173735683L218.109375,12.371006903903693L219.26953125,10.573056438281327L220.4296875,9.387979447075178L221.58984374999997,160.8353541329872L222.75,99.38901142490144L223.91015625,62.6008045447602L225.0703125,40.70075073477033L226.23046875,27.50647726835652L227.390625,19.7301112603059L228.55078125,14.805802046710852L229.7109375,11.87691168355223L230.87109375000003,9.993802446329209L232.03125,9.043821814578912L233.19140625,161.68269891913064L234.3515625,100.05008883898654L235.51171875,62.988692130398015L236.671875,41.05970843975821L237.83203125,27.824126150280737L238.99218749999997,19.75822087093426L240.15234375,14.559189216082665L241.3125,11.708369097581745L242.47265625,9.82718235739343L243.6328125,8.9304770220614L244.79296875,162.29258488750241L245.953125,100.3550647366193L247.11328125,62.96041464814425L248.27343750000003,41.010463571601385L249.43359375,27.773497940730977L250.59375,19.81447603799821L251.75390625,14.912012496578196L252.9140625,11.97884310026221L254.07421875,10.147276334400473L255.234375,9.092543212037574" style="fill: none;" fill="none"></path></g></g></g></g><g opacity="0.2"><g><g><g><path stroke="rgb(255, 112, 67)" stroke-width="2px" d="M24.36328125,372.0480306943258L25.523437499999996,77.50707387924196L26.683593750000004,77.999267578125L27.84375,78.15526723861696L29.00390625,79.13857618967693L30.1640625,75.34108400344849L31.32421875,75.72538614273073L32.484375,73.43110799789429L33.64453125,76.30620002746582L34.8046875,83.7265698115031L35.96484375000001,418.9878104130428L37.125,78.14110676447552L38.28515625,412.70773390928906L39.4453125,75.76936801274618L40.60546875,71.20824178059895L41.765625,68.86838754018149L42.92578125,70.03067175547284L44.0859375,72.65631437301636L45.24609375,70.10297457377116L46.40625,73.17504723866782L47.56640625,416.81937058766687L48.7265625,69.6133597691854L49.88671875,74.33484633763631L51.04687499999999,73.6212428410848L52.20703125,79.54158703486125L53.36718750000001,71.73391421635947L54.52734375,74.97811635335287L55.6875,71.73865000406902L56.84765625,72.76753505071004L58.0078125,72.34365860621136L59.16796875,419.2002878586452L60.328125,71.43893559773764L61.48828125,75.81653833389284L62.6484375,75.13707002003987L63.80859375,74.41324472427368L64.96875,74.29855426152547L66.12890625,77.09098100662233L67.2890625,75.72158813476564L68.44921875,76.64867719014485L69.609375,77.6061503092448L70.76953125,417.32231358687085L71.92968750000001,77.11451927820842L73.08984375,77.70457029342653L74.25,80.03092050552368L75.41015625,78.32500537236533L76.5703125,79.0040985743205L77.73046875,78.6148730913798L78.890625,77.0358395576477L80.05078125,75.84940751393636L81.2109375,76.41446669896443L82.37109375,417.6798303922018L83.53125,73.41455618540446L84.69140624999999,76.94042046864828L85.8515625,20.02183198928833L87.01171875,7.831586201985669L88.171875,7.372543017069501L89.33203125000001,7.736120223999023L90.4921875,7.602252165476489L91.65234375,45.346573988596596L92.8125,24.805540243784595L93.97265625,394.05663112799334L95.1328125,7.566288312276202L96.29296875,8.58443578084309L97.453125,8.676338195800781L98.61328125,9.909799893697107L99.7734375,9.890809853871668L100.93359375,8.935259183247881L102.09374999999999,9.535860220591236L103.25390625,8.797874450683594L104.4140625,8.740622997283943L105.57421875,393.64831010500586L106.73437500000001,11.181429227193208L107.89453125,28.053118387858074L109.0546875,17.564051946004238L110.21484375,11.898314952850342L111.375,24.027183055877693L112.53515625,10.778605937957757L113.6953125,8.265590667724602L114.85546875,8.316652774810784L116.015625,7.910500367482495L117.17578125,392.66371170679736L118.3359375,7.756048043568921L119.49609374999999,7.446533838907886L120.65625,7.721678415934253L121.81640625,7.004933357238776L122.9765625,7.73499488830567L124.13671875000001,7.581714789072668L125.296875,7.076063950856531L126.45703125,10.26348352432251L127.6171875,8.683230876922615L128.77734375,391.30765875180566L129.9375,8.957062562306714L131.09765625,20.975882212320972L132.2578125,14.021448294321692L133.41796875,12.140074570973718L134.578125,8.920020262400312L135.73828125,9.802986780802417L136.8984375,9.951437314351397L138.05859375,8.424122333526618L139.21875,7.889681657155359L140.37890625,389.5783694585165L141.5390625,8.779025077819831L142.69921875,7.641545136769617L143.85937500000003,7.637372016906738L145.01953125,6.753795941670727L146.1796875,7.309149106343579L147.33984375,7.838478883107501L148.5,6.889586448669434L149.66015625,6.936475435892737L150.8203125,6.525915463765454L151.98046874999997,392.44736591974896L153.140625,8.088866074879968L154.30078125,11.17927233378092L155.4609375,8.99555842081706L156.62109375,7.687308788299567L157.78125,7.773490746815997L158.94140625,8.44339370727539L160.1015625,8.19600741068523L161.26171875000003,7.939383983612054L162.421875,7.730165322621668L163.58203125,392.40549405415857L164.7421875,8.01412502924602L165.90234375,8.172844250996912L167.0625,8.257619539896655L168.22265625,7.477339903513599L169.38281249999997,7.59648482004801L170.54296875,7.773350079854321L171.703125,7.690637906392407L172.86328125,7.554659843444824L174.0234375,8.37245066960653L175.18359375,393.6364589134852L176.34375,7.354350090026862L177.50390625,7.322231133778882L178.66406250000003,7.34989563624065L179.82421875,8.964799245198565L180.984375,7.3783572514851805L182.14453125,8.364104429880774L183.3046875,7.694670359293628L184.46484375,7.917627493540442L185.625,7.175421714782721L186.78515624999997,389.1918635368348L187.9453125,7.6523764928181945L189.10546875,7.098429997762048L190.265625,7.693169911702466L191.42578125,7.387688159942633L192.5859375,7.027862071990961L193.74609375,7.728852430979419L194.90625,7.626212437947589L196.06640625000003,7.2815314928690675L197.2265625,7.717739741007489L198.38671875,394.63262716929114L199.546875,7.482966581980383L200.70703125,7.746998469034839L201.8671875,7.841667334238684L203.02734375,6.766831080118811L204.18749999999997,7.392517725626636L205.34765625,7.1579790115356445L206.5078125,7.7775231997172L207.66796875,7.550205389658612L208.828125,7.493094603220618L209.98828125,393.81133139133453L211.1484375,10.696081320444739L212.30859375,10.339162349700935L213.46875000000003,9.925273259480791L214.62890625,8.946418762207031L215.7890625,7.573837439219159L216.94921875,7.123890717824292L218.109375,7.999776999155689L219.26953125,7.876130739847827L220.4296875,7.610363960266113L221.58984374999997,388.0064161618551L222.75,7.219497362772632L223.91015625,7.418494224548346L225.0703125,7.850670019785565L226.23046875,7.715067068735754L227.390625,8.065562248229973L228.55078125,7.419338226318366L229.7109375,7.483576138814288L230.87109375000003,7.169138590494794L232.03125,7.618850866953528L233.19140625,390.6410145759583L234.3515625,7.601173718770337L235.51171875,7.396597067515057L236.671875,8.166232903798413L237.83203125,7.970752716064453L238.99218749999997,7.659362951914465L240.15234375,6.760641733805341L241.3125,7.432138919830316L242.47265625,7.005402247111005L243.6328125,7.585419019063318L244.79296875,392.3357466856639L245.953125,7.448784510294592L247.11328125,6.868439515431726L248.27343750000003,8.08553695678711L249.43359375,7.918049494425452L250.59375,7.875943183898932L251.75390625,7.558317184448236L252.9140625,7.5790890057881715L254.07421875,7.399926185607916L255.234375,7.510443528493237" style="fill: none;" fill="none"></path></g></g></g></g></g></g><g transform="translate(51, 177)" clip-path="url(#clip_1)"><clipPath id="clip_1"><rect width="278" height="23"></rect></clipPath><g><g><line x1="0" y1="0" x2="0" y2="5" style="visibility: inherit;" fill="rgb(0, 0, 0)" stroke="rgb(204, 204, 204)" stroke-width="1px"></line><line x1="23.203125" y1="0" x2="23.203125" y2="5" style="visibility: inherit;" fill="rgb(0, 0, 0)" stroke="rgb(204, 204, 204)" stroke-width="1px"></line><line x1="46.40625" y1="0" x2="46.40625" y2="5" style="visibility: inherit;" fill="rgb(0, 0, 0)" stroke="rgb(204, 204, 204)" stroke-width="1px"></line><line x1="69.609375" y1="0" x2="69.609375" y2="5" style="visibility: inherit;" fill="rgb(0, 0, 0)" stroke="rgb(204, 204, 204)" stroke-width="1px"></line><line x1="92.8125" y1="0" x2="92.8125" y2="5" style="visibility: inherit;" fill="rgb(0, 0, 0)" stroke="rgb(204, 204, 204)" stroke-width="1px"></line><line x1="116.015625" y1="0" x2="116.015625" y2="5" style="visibility: inherit;" fill="rgb(0, 0, 0)" stroke="rgb(204, 204, 204)" stroke-width="1px"></line><line x1="139.21875" y1="0" x2="139.21875" y2="5" style="visibility: inherit;" fill="rgb(0, 0, 0)" stroke="rgb(204, 204, 204)" stroke-width="1px"></line><line x1="162.421875" y1="0" x2="162.421875" y2="5" style="visibility: inherit;" fill="rgb(0, 0, 0)" stroke="rgb(204, 204, 204)" stroke-width="1px"></line><line x1="185.625" y1="0" x2="185.625" y2="5" style="visibility: inherit;" fill="rgb(0, 0, 0)" stroke="rgb(204, 204, 204)" stroke-width="1px"></line><line x1="208.828125" y1="0" x2="208.828125" y2="5" style="visibility: inherit;" fill="rgb(0, 0, 0)" stroke="rgb(204, 204, 204)" stroke-width="1px"></line><line x1="232.03125" y1="0" x2="232.03125" y2="5" style="visibility: inherit;" fill="rgb(0, 0, 0)" stroke="rgb(204, 204, 204)" stroke-width="1px"></line><line x1="255.234375" y1="0" x2="255.234375" y2="5" style="visibility: inherit;" fill="rgb(0, 0, 0)" stroke="rgb(204, 204, 204)" stroke-width="1px"></line><line x1="278.4375" y1="0" x2="278.4375" y2="5" style="visibility: inherit;" fill="rgb(0, 0, 0)" stroke="rgb(204, 204, 204)" stroke-width="1px"></line></g><g transform="translate(0, 8)"><text x="0" y="0" dx="0em" dy="0.95em" style="text-anchor: middle; visibility: hidden; font-family: Roboto, sans-serif; font-size: 12px; font-weight: 200;" fill="rgb(255, 255, 255)" stroke="none" stroke-width="1px">-2k</text><text x="23.203125" y="0" dx="0em" dy="0.95em" style="text-anchor: middle; visibility: inherit; font-family: Roboto, sans-serif; font-size: 12px; font-weight: 200;" fill="rgb(255, 255, 255)" stroke="none" stroke-width="1px">0</text><text x="46.40625" y="0" dx="0em" dy="0.95em" style="text-anchor: middle; visibility: hidden; font-family: Roboto, sans-serif; font-size: 12px; font-weight: 200;" fill="rgb(255, 255, 255)" stroke="none" stroke-width="1px">2k</text><text x="69.609375" y="0" dx="0em" dy="0.95em" style="text-anchor: middle; visibility: inherit; font-family: Roboto, sans-serif; font-size: 12px; font-weight: 200;" fill="rgb(255, 255, 255)" stroke="none" stroke-width="1px">4k</text><text x="92.8125" y="0" dx="0em" dy="0.95em" style="text-anchor: middle; visibility: hidden; font-family: Roboto, sans-serif; font-size: 12px; font-weight: 200;" fill="rgb(255, 255, 255)" stroke="none" stroke-width="1px">6k</text><text x="116.015625" y="0" dx="0em" dy="0.95em" style="text-anchor: middle; visibility: inherit; font-family: Roboto, sans-serif; font-size: 12px; font-weight: 200;" fill="rgb(255, 255, 255)" stroke="none" stroke-width="1px">8k</text><text x="139.21875" y="0" dx="0em" dy="0.95em" style="text-anchor: middle; visibility: hidden; font-family: Roboto, sans-serif; font-size: 12px; font-weight: 200;" fill="rgb(255, 255, 255)" stroke="none" stroke-width="1px">10k</text><text x="162.421875" y="0" dx="0em" dy="0.95em" style="text-anchor: middle; visibility: inherit; font-family: Roboto, sans-serif; font-size: 12px; font-weight: 200;" fill="rgb(255, 255, 255)" stroke="none" stroke-width="1px">12k</text><text x="185.625" y="0" dx="0em" dy="0.95em" style="text-anchor: middle; visibility: hidden; font-family: Roboto, sans-serif; font-size: 12px; font-weight: 200;" fill="rgb(255, 255, 255)" stroke="none" stroke-width="1px">14k</text><text x="208.828125" y="0" dx="0em" dy="0.95em" style="text-anchor: middle; visibility: inherit; font-family: Roboto, sans-serif; font-size: 12px; font-weight: 200;" fill="rgb(255, 255, 255)" stroke="none" stroke-width="1px">16k</text><text x="232.03125" y="0" dx="0em" dy="0.95em" style="text-anchor: middle; visibility: hidden; font-family: Roboto, sans-serif; font-size: 12px; font-weight: 200;" fill="rgb(255, 255, 255)" stroke="none" stroke-width="1px">18k</text><text x="255.234375" y="0" dx="0em" dy="0.95em" style="text-anchor: middle; visibility: inherit; font-family: Roboto, sans-serif; font-size: 12px; font-weight: 200;" fill="rgb(255, 255, 255)" stroke="none" stroke-width="1px">20k</text><text x="278.4375" y="0" dx="0em" dy="0.95em" style="text-anchor: middle; visibility: hidden; font-family: Roboto, sans-serif; font-size: 12px; font-weight: 200;" fill="rgb(255, 255, 255)" stroke="none" stroke-width="1px">22k</text></g><line x1="0" y1="0" x2="278.4375" y2="0" fill="rgb(0, 0, 0)" stroke="rgb(204, 204, 204)" stroke-width="1px"></line></g></g></g></g></svg>