<svg viewBox="0 0 330 200" xmlns="http://www.w3.org/2000/svg"><g><g><g><g><g><line x1="61.953125" y1="159.3" x2="56.953125" y2="159.3" style="visibility: inherit;" fill="rgb(0, 0, 0)" stroke="rgb(204, 204, 204)" stroke-width="1px"></line><line x1="61.953125" y1="141.6" x2="56.953125" y2="141.6" style="visibility: inherit;" fill="rgb(0, 0, 0)" stroke="rgb(204, 204, 204)" stroke-width="1px"></line><line x1="61.953125" y1="123.89999999999999" x2="56.953125" y2="123.89999999999999" style="visibility: inherit;" fill="rgb(0, 0, 0)" stroke="rgb(204, 204, 204)" stroke-width="1px"></line><line x1="61.953125" y1="106.20000000000002" x2="56.953125" y2="106.20000000000002" style="visibility: inherit;" fill="rgb(0, 0, 0)" stroke="rgb(204, 204, 204)" stroke-width="1px"></line><line x1="61.953125" y1="88.50000000000001" x2="56.953125" y2="88.50000000000001" style="visibility: inherit;" fill="rgb(0, 0, 0)" stroke="rgb(204, 204, 204)" stroke-width="1px"></line><line x1="61.953125" y1="70.8" x2="56.953125" y2="70.8" style="visibility: inherit;" fill="rgb(0, 0, 0)" stroke="rgb(204, 204, 204)" stroke-width="1px"></line><line x1="61.953125" y1="53.09999999999999" x2="56.953125" y2="53.09999999999999" style="visibility: inherit;" fill="rgb(0, 0, 0)" stroke="rgb(204, 204, 204)" stroke-width="1px"></line><line x1="61.953125" y1="35.400000000000034" x2="56.953125" y2="35.400000000000034" style="visibility: inherit;" fill="rgb(0, 0, 0)" stroke="rgb(204, 204, 204)" stroke-width="1px"></line><line x1="61.953125" y1="17.700000000000017" x2="56.953125" y2="17.700000000000017" style="visibility: inherit;" fill="rgb(0, 0, 0)" stroke="rgb(204, 204, 204)" stroke-width="1px"></line><line x1="61.953125" y1="0" x2="56.953125" y2="0" style="visibility: inherit;" fill="rgb(0, 0, 0)" stroke="rgb(204, 204, 204)" stroke-width="1px"></line></g><g transform="translate(51.953125, 0)"><text x="0" y="159.3" dx="0em" dy="0.3em" style="text-anchor: end; visibility: inherit; font-family: Roboto, sans-serif; font-size: 12px; font-weight: 200;" fill="rgb(255, 255, 255)" stroke="none" stroke-width="1px">0.04</text><text x="0" y="141.6" dx="0em" dy="0.3em" style="text-anchor: end; visibility: hidden; font-family: Roboto, sans-serif; font-size: 12px; font-weight: 200;" fill="rgb(255, 255, 255)" stroke="none" stroke-width="1px">0.045</text><text x="0" y="123.89999999999999" dx="0em" dy="0.3em" style="text-anchor: end; visibility: inherit; font-family: Roboto, sans-serif; font-size: 12px; font-weight: 200;" fill="rgb(255, 255, 255)" stroke="none" stroke-width="1px">0.05</text><text x="0" y="106.20000000000002" dx="0em" dy="0.3em" style="text-anchor: end; visibility: hidden; font-family: Roboto, sans-serif; font-size: 12px; font-weight: 200;" fill="rgb(255, 255, 255)" stroke="none" stroke-width="1px">0.055</text><text x="0" y="88.50000000000001" dx="0em" dy="0.3em" style="text-anchor: end; visibility: inherit; font-family: Roboto, sans-serif; font-size: 12px; font-weight: 200;" fill="rgb(255, 255, 255)" stroke="none" stroke-width="1px">0.06</text><text x="0" y="70.8" dx="0em" dy="0.3em" style="text-anchor: end; visibility: hidden; font-family: Roboto, sans-serif; font-size: 12px; font-weight: 200;" fill="rgb(255, 255, 255)" stroke="none" stroke-width="1px">0.065</text><text x="0" y="53.09999999999999" dx="0em" dy="0.3em" style="text-anchor: end; visibility: inherit; font-family: Roboto, sans-serif; font-size: 12px; font-weight: 200;" fill="rgb(255, 255, 255)" stroke="none" stroke-width="1px">0.07</text><text x="0" y="35.400000000000034" dx="0em" dy="0.3em" style="text-anchor: end; visibility: hidden; font-family: Roboto, sans-serif; font-size: 12px; font-weight: 200;" fill="rgb(255, 255, 255)" stroke="none" stroke-width="1px">0.075</text><text x="0" y="17.700000000000017" dx="0em" dy="0.3em" style="text-anchor: end; visibility: inherit; font-family: Roboto, sans-serif; font-size: 12px; font-weight: 200;" fill="rgb(255, 255, 255)" stroke="none" stroke-width="1px">0.08</text><text x="0" y="0" dx="0em" dy="0.3em" style="text-anchor: end; visibility: hidden; font-family: Roboto, sans-serif; font-size: 12px; font-weight: 200;" fill="rgb(255, 255, 255)" stroke="none" stroke-width="1px">0.085</text></g><line x1="61.953125" y1="0" x2="61.953125" y2="177" fill="rgb(0, 0, 0)" stroke="rgb(204, 204, 204)" stroke-width="1px"></line></g></g><g transform="translate(61, 0)" clip-path="url(#clip_0)"><clipPath id="clip_0"><rect width="268" height="176"></rect></clipPath><g><g><g><line x1="0" y1="0" x2="0" y2="177" fill="rgb(0, 0, 0)" stroke="rgb(189, 189, 189)" stroke-width="1px" opacity="0.25"></line><line x1="17.869791666666668" y1="0" x2="17.869791666666668" y2="177" fill="rgb(0, 0, 0)" stroke="rgb(189, 189, 189)" stroke-width="1px" opacity="0.25"></line><line x1="35.739583333333336" y1="0" x2="35.739583333333336" y2="177" fill="rgb(0, 0, 0)" stroke="rgb(189, 189, 189)" stroke-width="1px" opacity="0.25"></line><line x1="53.609375" y1="0" x2="53.609375" y2="177" fill="rgb(0, 0, 0)" stroke="rgb(189, 189, 189)" stroke-width="1px" opacity="0.25"></line><line x1="71.47916666666667" y1="0" x2="71.47916666666667" y2="177" fill="rgb(0, 0, 0)" stroke="rgb(189, 189, 189)" stroke-width="1px" opacity="0.25"></line><line x1="89.34895833333333" y1="0" x2="89.34895833333333" y2="177" fill="rgb(0, 0, 0)" stroke="rgb(189, 189, 189)" stroke-width="1px" opacity="0.25"></line><line x1="107.21875" y1="0" x2="107.21875" y2="177" fill="rgb(0, 0, 0)" stroke="rgb(189, 189, 189)" stroke-width="1px" opacity="0.25"></line><line x1="125.08854166666667" y1="0" x2="125.08854166666667" y2="177" fill="rgb(0, 0, 0)" stroke="rgb(189, 189, 189)" stroke-width="1px" opacity="0.25"></line><line x1="142.95833333333334" y1="0" x2="142.95833333333334" y2="177" fill="rgb(0, 0, 0)" stroke="rgb(189, 189, 189)" stroke-width="1px" opacity="0.25"></line><line x1="160.828125" y1="0" x2="160.828125" y2="177" fill="rgb(0, 0, 0)" stroke="rgb(189, 189, 189)" stroke-width="1px" opacity="0.25"></line><line x1="178.69791666666666" y1="0" x2="178.69791666666666" y2="177" fill="rgb(0, 0, 0)" stroke="rgb(189, 189, 189)" stroke-width="1px" opacity="0.25"></line><line x1="196.56770833333331" y1="0" x2="196.56770833333331" y2="177" fill="rgb(0, 0, 0)" stroke="rgb(189, 189, 189)" stroke-width="1px" opacity="0.25"></line><line x1="214.4375" y1="0" x2="214.4375" y2="177" fill="rgb(0, 0, 0)" stroke="rgb(189, 189, 189)" stroke-width="1px" opacity="0.25"></line><line x1="232.30729166666669" y1="0" x2="232.30729166666669" y2="177" fill="rgb(0, 0, 0)" stroke="rgb(189, 189, 189)" stroke-width="1px" opacity="0.25"></line><line x1="250.17708333333334" y1="0" x2="250.17708333333334" y2="177" fill="rgb(0, 0, 0)" stroke="rgb(189, 189, 189)" stroke-width="1px" opacity="0.25"></line><line x1="268.046875" y1="0" x2="268.046875" y2="177" fill="rgb(0, 0, 0)" stroke="rgb(189, 189, 189)" stroke-width="1px" opacity="0.25"></line></g><g><line x1="0" y1="159.3" x2="268.046875" y2="159.3" fill="rgb(0, 0, 0)" stroke="rgb(189, 189, 189)" stroke-width="1px" opacity="0.25"></line><line x1="0" y1="141.6" x2="268.046875" y2="141.6" fill="rgb(0, 0, 0)" stroke="rgb(189, 189, 189)" stroke-width="1px" opacity="0.25"></line><line x1="0" y1="123.89999999999999" x2="268.046875" y2="123.89999999999999" fill="rgb(0, 0, 0)" stroke="rgb(189, 189, 189)" stroke-width="1px" opacity="0.25"></line><line x1="0" y1="106.20000000000002" x2="268.046875" y2="106.20000000000002" fill="rgb(0, 0, 0)" stroke="rgb(189, 189, 189)" stroke-width="1px" opacity="0.25"></line><line x1="0" y1="88.50000000000001" x2="268.046875" y2="88.50000000000001" fill="rgb(0, 0, 0)" stroke="rgb(189, 189, 189)" stroke-width="1px" opacity="0.25"></line><line x1="0" y1="70.8" x2="268.046875" y2="70.8" fill="rgb(0, 0, 0)" stroke="rgb(189, 189, 189)" stroke-width="1px" opacity="0.25"></line><line x1="0" y1="53.09999999999999" x2="268.046875" y2="53.09999999999999" fill="rgb(0, 0, 0)" stroke="rgb(189, 189, 189)" stroke-width="1px" opacity="0.25"></line><line x1="0" y1="35.400000000000034" x2="268.046875" y2="35.400000000000034" fill="rgb(0, 0, 0)" stroke="rgb(189, 189, 189)" stroke-width="1px" opacity="0.25"></line><line x1="0" y1="17.700000000000017" x2="268.046875" y2="17.700000000000017" fill="rgb(0, 0, 0)" stroke="rgb(189, 189, 189)" stroke-width="1px" opacity="0.25"></line><line x1="0" y1="0" x2="268.046875" y2="0" fill="rgb(0, 0, 0)" stroke="rgb(189, 189, 189)" stroke-width="1px" opacity="0.25"></line></g></g></g><g><g><line x1="0" y1="300.90000000000003" x2="268.046875" y2="300.90000000000003" fill="rgb(0, 0, 0)" stroke="rgb(153, 153, 153)" stroke-width="1.5px"></line></g></g><g><g><line x1="17.869791666666668" y1="0" x2="17.869791666666668" y2="177" fill="rgb(0, 0, 0)" stroke="rgb(153, 153, 153)" stroke-width="1.5px"></line></g></g><g><g><g><g><g><path stroke="rgb(255, 112, 67)" stroke-width="2px" d="M28.59166666666667,179.60995682108634L29.48515625,168.52621789962305L30.378645833333334,157.40717755204628L31.272135416666668,146.26466786184173L32.165625,135.10669351733324L33.05911458333333,123.93860652983876L33.95260416666667,112.76395003982849L34.84609375,101.58505006235731L35.739583333333336,90.40341212067598L36.63307291666666,79.22003306089654L37.526562500000004,68.03554395817649L38.42005208333334,56.85034959189979L39.313541666666666,45.6647085192257L40.20703125,34.47879584166875L41.10052083333333,27.767300238487756L41.99401041666667,23.740505153977477L42.8875,21.324588991389017L43.78098958333333,19.875261793886676L44.674479166666664,19.005950667814673L45.567968750000006,18.484712265944346L46.46145833333333,18.172380719966892L47.35494791666667,17.985456559307487L48.2484375,17.873840119768325L49.14192708333333,17.807471609362988L50.03541666666667,17.768304605228465L50.92890625,17.745532354537442L51.82239583333333,17.732660255875345L52.715885416666666,17.725780998480648L53.609375,17.72257129597969L54.502864583333334,17.721637176562485L55.39635416666667,17.72211060708132L56.289843749999996,17.72350241771599L57.18333333333334,17.725498006530486L58.07682291666667,17.727929712407764L58.9703125,17.73068638865551L59.86380208333333,17.73370134725822L60.75729166666667,17.73692402538455L61.65078125,17.740345185380004L62.544270833333336,17.743948734629708L63.43776041666666,17.747725017564658L64.33125,17.75165769082137L65.22473958333333,17.755747498403945L66.11822916666667,17.76000543673696L67.01171875,17.764427553652897L67.90520833333333,17.76900092782922L68.79869791666667,17.77373890651676L69.6921875,17.77863894804363L70.58567708333332,17.783688977384795L71.47916666666667,17.788902849569443L72.37265625,17.794267777570823L73.26614583333333,17.799786639194917L74.15963541666667,17.805471711147536L75.05312500000001,17.81130925940797L75.94661458333333,17.817301593585732L76.84010416666668,17.823460649468878L77.73359375,17.829772488485805L78.62708333333333,17.836239297515792L79.52057291666667,17.842883488730543L80.4140625,17.849676309344748L81.30755208333333,17.85662160773136L82.20104166666665,17.863721692914144L83.09453125,17.870977950307342L83.98802083333334,17.878401761181763L84.88151041666666,17.885978854255434L85.775,17.893711216781494L86.66848958333333,17.90160004111169L87.56197916666666,17.90964604265713L88.45546875000001,17.917849650664472L89.34895833333333,17.92621112268169L90.24244791666666,17.934741163259723L91.13593750000001,17.943425095084937L92.02942708333333,17.95226466179111L92.92291666666667,17.96126090955863L93.81640625,17.97040391607362L94.70989583333333,17.979719378014085L95.60338541666667,17.989180513298344L96.496875,17.99880290274374L97.39036458333334,18.008585344818556L98.28385416666666,18.018537668625928L99.17734375,18.028634121561307L100.07083333333334,18.038890902128404L100.96432291666666,18.049307179407254L101.8578125,18.05987190482377L102.75130208333334,18.070599549277766L103.64479166666666,18.081477695264926L104.53828125,18.092519992326828L105.43177083333333,18.103724080166266L106.32526041666667,18.115088542605076L107.21875,18.126601979914092L108.11223958333333,18.138278652300098L109.00572916666667,18.150106015842955L109.89921874999999,18.162097644234763L110.79270833333334,18.174240581646586L111.68619791666667,18.18653760460321L112.57968749999999,18.199000929041517L113.47317708333334,18.21161678447953L114.36666666666667,18.224387458650046L115.26015625,18.23731432419287L116.15364583333334,18.250408754713977L117.04713541666666,18.263656474332624L117.940625,18.27705946754258L118.83411458333335,18.290618925040018L119.72760416666667,18.30433556124272L120.62109375,18.318209804801402L121.51458333333333,18.332241912906326L122.40807291666667,18.34643203987177L123.3015625,18.36078027828632L124.19505208333332,18.3752866837031L125.08854166666667,18.389951289453908L125.98203124999999,18.404774115537894L126.87552083333333,18.41975517395457L127.76901041666667,18.434883921881408L128.6625,18.450175133669337L129.55598958333334,18.465616573884446L130.44947916666666,18.481222001310787L131.34296875,18.496978571174488L132.23645833333333,18.512899676655483L133.12994791666665,18.52897225361746L134.0234375,18.545209563622926L134.91692708333332,18.561598463565147L135.81041666666667,18.578141617602103L136.70390625,18.594840624228695L137.59739583333334,18.61169644254185L138.49088541666669,18.628709647999635L139.384375,18.64589113589909L140.27786458333333,18.663215793352055L141.17135416666665,18.680700202691995L142.06484375,18.698354313319015L142.95833333333334,18.716152444806756L143.85182291666666,18.73411083896578L144.7453125,18.75222869086038L145.63880208333333,18.770494967506973L146.53229166666665,18.78891359913748L147.42578125,18.807508043935336L148.31927083333335,18.826250176722095L149.21276041666667,18.845144222434914L150.10625000000002,18.864203266058286L150.99973958333334,18.883414058538612L151.89322916666666,18.902779200465883L152.78671874999998,18.922300252194077L153.68020833333335,18.94198869995766L154.57369791666667,18.961819785430954L155.4671875,18.98181030368505L156.36067708333334,19.001959781740265L157.25416666666666,19.022267935808994L158.14765624999998,19.04273459561857L159.04114583333333,19.063349108983257L159.93463541666668,19.084126184635835L160.828125,19.105064097794006L161.72161458333335,19.12615126356611L162.61510416666667,19.147401831061448L163.50859375,19.16880318970133L164.4020833333333,19.19035832316069L165.29557291666669,19.21206902164451L166.1890625,19.233936359275773L167.08255208333333,19.255960980528236L167.97604166666667,19.278143272086172L168.86953125,19.300483465960163L169.76302083333331,19.322971151334354L170.6565104166667,19.34562118176358L171.55,19.368431919358617L172.44348958333333,19.391391831363695L173.33697916666665,19.414504548147583L174.23046875,19.437782797953673L175.12395833333332,19.461213117683684L176.01744791666667,19.484797979500748L176.91093750000002,19.508538866702853L177.80442708333334,19.532436669268662L178.69791666666666,19.55649192118553L179.59140625,19.58070494284579L180.48489583333333,19.605065376462658L181.37838541666665,19.62958810740836L182.27187500000002,19.65426096686202L183.16536458333334,19.6790977535753L184.05885416666666,19.704085646755022L184.95234374999998,19.72923805396946L185.84583333333333,19.7545419197154L186.73932291666665,19.77999996071291L187.6328125,19.805613806994163L188.52630208333335,19.831373886556253L189.41979166666667,19.857295556241752L190.31328125,19.883377480134044L191.20677083333334,19.909608306661077L192.10026041666666,19.93599177490165L192.99375,19.962530128303122L193.88723958333335,19.98923526295596L194.78072916666667,20.016093216470328L195.67421875,20.043106161434288L196.56770833333331,20.070264851378724L197.46119791666666,20.097584838466265L198.3546875,20.125064903972422L199.24817708333333,20.15269376664034L200.14166666666668,20.18047520773812L201.03515625,20.208422046048632L201.92864583333332,20.23652087279747L202.82213541666667,20.264774192742053L203.715625,20.293183508736824L204.60911458333334,20.321749722494452L205.50260416666669,20.350462825020422L206.39609375,20.379337910962253L207.28958333333333,20.408362937064243L208.18307291666665,20.437541227395105L209.0765625,20.466874776396022L209.97005208333334,20.496364780731742L210.86354166666666,20.52601195840104L211.75703125,20.555806190181183L212.65052083333333,20.58576250458267L213.54401041666665,20.615868818667597L214.4375,20.646138982717442L215.33098958333335,20.67654965683472L216.22447916666667,20.70712903716953L217.11796875000002,20.737862391345434L218.01145833333334,20.76874087993666L218.90494791666666,20.799780299331935L219.79843749999998,20.830969027320265L220.69192708333335,20.862321190619326L221.58541666666667,20.89382416521537L222.47890625,20.925470376700293L223.37239583333334,20.957286930495584L224.26588541666666,20.989247889765597L225.15937499999998,21.02135879245311L226.05286458333333,21.053633511346067L226.94635416666668,21.086059270072894L227.83984375,21.118638952832733L228.73333333333335,21.151374290145213L229.62682291666667,21.184266320322045L230.5203125,21.21730511632808L231.4138020833333,21.25050582198651L232.30729166666669,21.283856423546943L233.20078125,21.31736026278143L234.09427083333333,21.351008794730955L234.98776041666667,21.384817992464363L235.88125,21.41878688980085L236.77473958333331,21.452904357009807L237.6682291666667,21.487184816297066L238.56171875,21.521605270919906L239.45520833333333,21.556194122921077L240.34869791666665,21.590926213437715L241.2421875,21.625818097218517L242.13567708333332,21.660858607068473L243.02916666666667,21.696051592692648L243.92265625000002,21.73139936391407L244.81614583333334,21.766903306626606L245.70963541666666,21.802553702344497L246.603125,21.838365820020446L247.49661458333333,21.874327720981828L248.39010416666665,21.91044279204728L249.28359375000002,21.94671306530789L250.17708333333334,21.98313976001831" style="fill: none;" fill="none"></path></g></g></g></g><g opacity="0.2"><g><g><g><path stroke="rgb(255, 112, 67)" stroke-width="2px" d="M26.8046875,185.49599822759632L27.698177083333334,174.30959876775742L28.59166666666667,163.12319930791855L29.48515625,151.9367998480797L30.378645833333334,140.75040038824082L31.272135416666668,129.56400092840195L32.165625,118.37760146856309L33.05911458333333,107.19120200872422L33.95260416666667,96.00480254888535L34.84609375,84.81840308904648L35.739583333333336,73.6319772541523L36.63307291666666,62.445577794313444L37.526562500000004,51.259178334474576L38.42005208333334,40.07277887463571L39.313541666666666,28.886379414796842L40.20703125,17.700006330013288L41.10052083333333,17.700085455179227L41.99401041666667,17.700322830677045L42.8875,17.700718456506742L43.78098958333333,17.701272332668317L44.674479166666664,17.70198445916177L45.567968750000006,17.702854835987104L46.46145833333333,17.703883463144315L47.35494791666667,17.705070340633405L48.2484375,17.706415468454374L49.14192708333333,17.70791884660722L50.03541666666667,17.709554100036634L50.92890625,17.71137397885324L51.82239583333333,17.71335210800172L52.715885416666666,17.71546211242677L53.609375,17.71775674223901L54.502864583333334,17.720235997438444L55.39635416666667,17.72282075285913L56.289843749999996,17.725590133667005L57.18333333333334,17.728491389751447L58.07682291666667,17.73157727122308L58.9703125,17.734821403026594L59.86380208333333,17.738223785161985L60.75729166666667,17.74175804257394L61.65078125,17.74547692537309L62.544270833333336,17.749354058504117L63.43776041666666,17.753389441967023L64.33125,17.757556700706495L65.22473958333333,17.761882209777845L66.11822916666667,17.766392344236387L67.01171875,17.771060729026807L67.90520833333333,17.775860989093793L68.79869791666667,17.78084587454797L69.6921875,17.785989010334028L70.58567708333332,17.79126402139665L71.47916666666667,17.796723657846464L72.37265625,17.802315169572843L73.26614583333333,17.8080649316311L74.15963541666667,17.81399931907655L75.05312500000001,17.820065581798566L75.94661458333333,17.82629009485246L76.84010416666668,17.832699233293546L77.73359375,17.839240247011197L78.62708333333333,17.845939511060728L79.52057291666667,17.852849775552762L80.4140625,17.85986554026605L81.30755208333333,17.867039555311216L82.20104166666665,17.87437182068826L83.09453125,17.881862336397184L83.98802083333334,17.8895374774933L84.88151041666666,17.89734449386598L85.775,17.90530976057054L86.66848958333333,17.913433277606977L87.56197916666666,17.921715044975294L88.45546875000001,17.93015506267549L89.34895833333333,17.938753330707563L90.24244791666666,17.94753622412683L91.13593750000001,17.95645099282266L92.02942708333333,17.96552401185037L92.92291666666667,17.97475528120996L93.81640625,17.984118425846113L94.70989583333333,17.99369257092477L95.60338541666667,18.003372216224683L96.496875,18.013236486911786L97.39036458333334,18.02325900793077L98.28385416666666,18.033466154336942L99.17734375,18.04377880096437L100.07083333333334,18.054276072978986L100.96432291666666,18.064931595325483L101.8578125,18.075718992948545L102.75130208333334,18.0866910159588L103.64479166666666,18.09779491424562L104.53828125,18.10908343791963L105.43177083333333,18.12053021192552L106.32526041666667,18.132135236263288L107.21875,18.143872135877622L108.11223958333333,18.155793660879148L109.00572916666667,18.16784706115724L109.89921874999999,18.180085086822523L110.79270833333334,18.19245498776437L111.68619791666667,18.2049831390381L112.57968749999999,18.217695915699018L113.47317708333334,18.230540567636503L114.36666666666667,18.243543469905866L115.26015625,18.256704622507108L116.15364583333334,18.270050400495542L117.04713541666666,18.28352805376054L117.940625,18.29716395735742L118.83411458333335,18.310958111286176L119.72760416666667,18.32491051554681L120.62109375,18.339021170139326L121.51458333333333,18.35329007506372L122.40807291666667,18.36771723031999L123.3015625,18.38230263590814L124.19505208333332,18.39704629182817L125.08854166666667,18.411948198080076L125.98203124999999,18.42700835466386L126.87552083333333,18.442226761579526L127.76901041666667,18.457577043771757L128.6625,18.47311195135118L129.55598958333334,18.488778734207166L130.44947916666666,18.504630142450345L131.34296875,18.52061342597009L132.23645833333333,18.536781334877027L133.12994791666665,18.55308111906053L134.0234375,18.569565528631223L134.91692708333332,18.586181813478483L135.81041666666667,18.60295634865762L136.70390625,18.619889134168638L137.59739583333334,18.636980170011533L138.49088541666669,18.654229456186307L139.384375,18.671663367748273L140.27786458333333,18.68920277953149L141.17135416666665,18.706926816701902L142.06484375,18.724835479259504L142.95833333333334,18.742849642038358L143.85182291666666,18.761048430204404L144.7453125,18.77940546870233L145.63880208333333,18.79789438247682L146.53229166666665,18.81654154658319L147.42578125,18.835399711132062L148.31927083333335,18.85436337590219L149.21276041666667,18.873485291004194L150.10625000000002,18.89279183149339L150.99973958333334,18.912230247259153L151.89322916666666,18.931826913356794L152.78671874999998,18.951581829786313L153.68020833333335,18.971521371603025L154.57369791666667,18.99156641364099L155.4671875,19.011796081066144L156.36067708333334,19.03218399882318L157.25416666666666,19.05273016691209L158.14765624999998,19.073434585332883L159.04114583333333,19.09427087903024L159.93463541666668,19.11529179811479L160.828125,19.136470967531217L161.72161458333335,19.15778201222421L162.61510416666667,19.179277682304395L163.50859375,19.200905227661146L164.4020833333333,19.222691023349775L165.29557291666669,19.244635069370283L166.1890625,19.26673736572267L167.08255208333333,19.288997912406934L167.97604166666667,19.311416709423078L168.86953125,19.3339937567711L169.76302083333331,19.35670267939569L170.6565104166667,19.37959622740747L171.55,19.402648025751127L172.44348958333333,19.42583169937135L173.33697916666665,19.449173623323453L174.23046875,19.472700172662748L175.12395833333332,19.496358597278608L176.01744791666667,19.520175272226346L176.91093750000002,19.544150197505964L177.80442708333334,19.56828337311746L178.69791666666666,19.592574799060834L179.59140625,19.617024475336088L180.48489583333333,19.641606026887906L181.37838541666665,19.666372203826917L182.27187500000002,19.691270256042493L183.16536458333334,19.71635293364526L184.05885416666666,19.741567486524595L184.95234374999998,19.76696666479112L185.84583333333333,19.79249771833421L186.73932291666665,19.81818702220918L187.6328125,19.84403457641603L188.52630208333335,19.870014005899442L189.41979166666667,19.896178060770048L190.31328125,19.92250036597253L191.20677083333334,19.94895454645158L192.10026041666666,19.97556697726251L192.99375,20.002337658405317L193.88723958333335,20.029292964935316L194.78072916666667,20.05638014674188L195.67421875,20.083625578880323L196.56770833333331,20.11100288629533L197.46119791666666,20.13856481909753L198.3546875,20.16628500223161L199.24817708333333,20.194137060642255L200.14166666666668,20.22214736938478L201.03515625,20.250342303514493L201.92864583333332,20.278669112920774L202.82213541666667,20.307154172658933L203.715625,20.33579748272897L204.60911458333334,20.364599043130887L205.50260416666669,20.39353247880937L206.39609375,20.422650539875043L207.28958333333333,20.451900476217283L208.18307291666665,20.4813086628914L209.0765625,20.510875099897397L209.97005208333334,20.540599787235273L210.86354166666666,20.570482724905027L211.75703125,20.600497537851346L212.65052083333333,20.630696976184858L213.54401041666665,20.661028289794935L214.4375,20.691544228792203L215.33098958333335,20.722165668010724L216.22447916666667,20.75299810767175L217.11796875000002,20.783962422609342L218.01145833333334,20.8150586128235L218.90494791666666,20.846339428424848L219.79843749999998,20.877752119302762L220.69192708333335,20.90934943556787L221.58541666666667,20.94107862710954L222.47890625,20.972939693927778L223.37239583333334,21.00501176118852L224.26588541666666,21.037189328670514L225.15937499999998,21.069525146484388L226.05286458333333,21.102045589685453L226.94635416666668,21.134697908163083L227.83984375,21.167508476972593L228.73333333333335,21.20047729611398L229.62682291666667,21.233604365587247L230.5203125,21.26686331033708L231.4138020833333,21.300306880474103L232.30729166666669,21.333882325887693L233.20078125,21.36761602163316L234.09427083333333,21.401481592655195L234.98776041666667,21.43553178906442L235.88125,21.469740235805524L236.77473958333331,21.504080557823194L237.6682291666667,21.538605505228055L238.56171875,21.57323595285417L239.45520833333333,21.608077400922788L240.34869791666665,21.64302434921266L241.2421875,21.678155922889722L242.13567708333332,21.71341937184335L243.02916666666667,21.748841071128858L243.92265625000002,21.784421020746244L244.81614583333334,21.82015922069551L245.70963541666666,21.85602929592134L246.603125,21.89208399653436L247.49661458333333,21.928270572423948L248.39010416666665,21.964615398645414L249.28359375000002,22.00111847519876L250.17708333333334,22.037779802083982" style="fill: none;" fill="none"></path></g></g></g></g></g></g><g transform="translate(61, 177)" clip-path="url(#clip_1)"><clipPath id="clip_1"><rect width="268" height="22"></rect></clipPath><g><g><line x1="0" y1="0" x2="0" y2="5" style="visibility: inherit;" fill="rgb(0, 0, 0)" stroke="rgb(204, 204, 204)" stroke-width="1px"></line><line x1="17.869791666666668" y1="0" x2="17.869791666666668" y2="5" style="visibility: inherit;" fill="rgb(0, 0, 0)" stroke="rgb(204, 204, 204)" stroke-width="1px"></line><line x1="35.739583333333336" y1="0" x2="35.739583333333336" y2="5" style="visibility: inherit;" fill="rgb(0, 0, 0)" stroke="rgb(204, 204, 204)" stroke-width="1px"></line><line x1="53.609375" y1="0" x2="53.609375" y2="5" style="visibility: inherit;" fill="rgb(0, 0, 0)" stroke="rgb(204, 204, 204)" stroke-width="1px"></line><line x1="71.47916666666667" y1="0" x2="71.47916666666667" y2="5" style="visibility: inherit;" fill="rgb(0, 0, 0)" stroke="rgb(204, 204, 204)" stroke-width="1px"></line><line x1="89.34895833333333" y1="0" x2="89.34895833333333" y2="5" style="visibility: inherit;" fill="rgb(0, 0, 0)" stroke="rgb(204, 204, 204)" stroke-width="1px"></line><line x1="107.21875" y1="0" x2="107.21875" y2="5" style="visibility: inherit;" fill="rgb(0, 0, 0)" stroke="rgb(204, 204, 204)" stroke-width="1px"></line><line x1="125.08854166666667" y1="0" x2="125.08854166666667" y2="5" style="visibility: inherit;" fill="rgb(0, 0, 0)" stroke="rgb(204, 204, 204)" stroke-width="1px"></line><line x1="142.95833333333334" y1="0" x2="142.95833333333334" y2="5" style="visibility: inherit;" fill="rgb(0, 0, 0)" stroke="rgb(204, 204, 204)" stroke-width="1px"></line><line x1="160.828125" y1="0" x2="160.828125" y2="5" style="visibility: inherit;" fill="rgb(0, 0, 0)" stroke="rgb(204, 204, 204)" stroke-width="1px"></line><line x1="178.69791666666666" y1="0" x2="178.69791666666666" y2="5" style="visibility: inherit;" fill="rgb(0, 0, 0)" stroke="rgb(204, 204, 204)" stroke-width="1px"></line><line x1="196.56770833333331" y1="0" x2="196.56770833333331" y2="5" style="visibility: inherit;" fill="rgb(0, 0, 0)" stroke="rgb(204, 204, 204)" stroke-width="1px"></line><line x1="214.4375" y1="0" x2="214.4375" y2="5" style="visibility: inherit;" fill="rgb(0, 0, 0)" stroke="rgb(204, 204, 204)" stroke-width="1px"></line><line x1="232.30729166666669" y1="0" x2="232.30729166666669" y2="5" style="visibility: inherit;" fill="rgb(0, 0, 0)" stroke="rgb(204, 204, 204)" stroke-width="1px"></line><line x1="250.17708333333334" y1="0" x2="250.17708333333334" y2="5" style="visibility: inherit;" fill="rgb(0, 0, 0)" stroke="rgb(204, 204, 204)" stroke-width="1px"></line><line x1="268.046875" y1="0" x2="268.046875" y2="5" style="visibility: inherit;" fill="rgb(0, 0, 0)" stroke="rgb(204, 204, 204)" stroke-width="1px"></line></g><g transform="translate(0, 8)"><text x="0" y="0" dx="0em" dy="0.95em" style="text-anchor: middle; visibility: hidden; font-family: Roboto, sans-serif; font-size: 12px; font-weight: 200;" fill="rgb(255, 255, 255)" stroke="none" stroke-width="1px">-2k</text><text x="17.869791666666668" y="0" dx="0em" dy="0.95em" style="text-anchor: middle; visibility: inherit; font-family: Roboto, sans-serif; font-size: 12px; font-weight: 200;" fill="rgb(255, 255, 255)" stroke="none" stroke-width="1px">0</text><text x="35.739583333333336" y="0" dx="0em" dy="0.95em" style="text-anchor: middle; visibility: hidden; font-family: Roboto, sans-serif; font-size: 12px; font-weight: 200;" fill="rgb(255, 255, 255)" stroke="none" stroke-width="1px">2k</text><text x="53.609375" y="0" dx="0em" dy="0.95em" style="text-anchor: middle; visibility: inherit; font-family: Roboto, sans-serif; font-size: 12px; font-weight: 200;" fill="rgb(255, 255, 255)" stroke="none" stroke-width="1px">4k</text><text x="71.47916666666667" y="0" dx="0em" dy="0.95em" style="text-anchor: middle; visibility: hidden; font-family: Roboto, sans-serif; font-size: 12px; font-weight: 200;" fill="rgb(255, 255, 255)" stroke="none" stroke-width="1px">6k</text><text x="89.34895833333333" y="0" dx="0em" dy="0.95em" style="text-anchor: middle; visibility: inherit; font-family: Roboto, sans-serif; font-size: 12px; font-weight: 200;" fill="rgb(255, 255, 255)" stroke="none" stroke-width="1px">8k</text><text x="107.21875" y="0" dx="0em" dy="0.95em" style="text-anchor: middle; visibility: hidden; font-family: Roboto, sans-serif; font-size: 12px; font-weight: 200;" fill="rgb(255, 255, 255)" stroke="none" stroke-width="1px">10k</text><text x="125.08854166666667" y="0" dx="0em" dy="0.95em" style="text-anchor: middle; visibility: inherit; font-family: Roboto, sans-serif; font-size: 12px; font-weight: 200;" fill="rgb(255, 255, 255)" stroke="none" stroke-width="1px">12k</text><text x="142.95833333333334" y="0" dx="0em" dy="0.95em" style="text-anchor: middle; visibility: hidden; font-family: Roboto, sans-serif; font-size: 12px; font-weight: 200;" fill="rgb(255, 255, 255)" stroke="none" stroke-width="1px">14k</text><text x="160.828125" y="0" dx="0em" dy="0.95em" style="text-anchor: middle; visibility: inherit; font-family: Roboto, sans-serif; font-size: 12px; font-weight: 200;" fill="rgb(255, 255, 255)" stroke="none" stroke-width="1px">16k</text><text x="178.69791666666666" y="0" dx="0em" dy="0.95em" style="text-anchor: middle; visibility: hidden; font-family: Roboto, sans-serif; font-size: 12px; font-weight: 200;" fill="rgb(255, 255, 255)" stroke="none" stroke-width="1px">18k</text><text x="196.56770833333331" y="0" dx="0em" dy="0.95em" style="text-anchor: middle; visibility: inherit; font-family: Roboto, sans-serif; font-size: 12px; font-weight: 200;" fill="rgb(255, 255, 255)" stroke="none" stroke-width="1px">20k</text><text x="214.4375" y="0" dx="0em" dy="0.95em" style="text-anchor: middle; visibility: hidden; font-family: Roboto, sans-serif; font-size: 12px; font-weight: 200;" fill="rgb(255, 255, 255)" stroke="none" stroke-width="1px">22k</text><text x="232.30729166666669" y="0" dx="0em" dy="0.95em" style="text-anchor: middle; visibility: inherit; font-family: Roboto, sans-serif; font-size: 12px; font-weight: 200;" fill="rgb(255, 255, 255)" stroke="none" stroke-width="1px">24k</text><text x="250.17708333333334" y="0" dx="0em" dy="0.95em" style="text-anchor: middle; visibility: hidden; font-family: Roboto, sans-serif; font-size: 12px; font-weight: 200;" fill="rgb(255, 255, 255)" stroke="none" stroke-width="1px">26k</text><text x="268.046875" y="0" dx="0em" dy="0.95em" style="text-anchor: middle; visibility: hidden; font-family: Roboto, sans-serif; font-size: 12px; font-weight: 200;" fill="rgb(255, 255, 255)" stroke="none" stroke-width="1px">28k</text></g><line x1="0" y1="0" x2="268.046875" y2="0" fill="rgb(0, 0, 0)" stroke="rgb(204, 204, 204)" stroke-width="1px"></line></g></g></g></g></svg>