<svg viewBox="0 0 330 200" xmlns="http://www.w3.org/2000/svg"><g><g><g><g><g><line x1="41.171875" y1="177" x2="36.171875" y2="177" style="visibility: inherit;" fill="rgb(0, 0, 0)" stroke="rgb(204, 204, 204)" stroke-width="1px"></line><line x1="41.171875" y1="162.25" x2="36.171875" y2="162.25" style="visibility: inherit;" fill="rgb(0, 0, 0)" stroke="rgb(204, 204, 204)" stroke-width="1px"></line><line x1="41.171875" y1="147.5" x2="36.171875" y2="147.5" style="visibility: inherit;" fill="rgb(0, 0, 0)" stroke="rgb(204, 204, 204)" stroke-width="1px"></line><line x1="41.171875" y1="132.75" x2="36.171875" y2="132.75" style="visibility: inherit;" fill="rgb(0, 0, 0)" stroke="rgb(204, 204, 204)" stroke-width="1px"></line><line x1="41.171875" y1="118" x2="36.171875" y2="118" style="visibility: inherit;" fill="rgb(0, 0, 0)" stroke="rgb(204, 204, 204)" stroke-width="1px"></line><line x1="41.171875" y1="103.24999999999999" x2="36.171875" y2="103.24999999999999" style="visibility: inherit;" fill="rgb(0, 0, 0)" stroke="rgb(204, 204, 204)" stroke-width="1px"></line><line x1="41.171875" y1="88.5" x2="36.171875" y2="88.5" style="visibility: inherit;" fill="rgb(0, 0, 0)" stroke="rgb(204, 204, 204)" stroke-width="1px"></line><line x1="41.171875" y1="73.75" x2="36.171875" y2="73.75" style="visibility: inherit;" fill="rgb(0, 0, 0)" stroke="rgb(204, 204, 204)" stroke-width="1px"></line><line x1="41.171875" y1="58.999999999999986" x2="36.171875" y2="58.999999999999986" style="visibility: inherit;" fill="rgb(0, 0, 0)" stroke="rgb(204, 204, 204)" stroke-width="1px"></line><line x1="41.171875" y1="44.25" x2="36.171875" y2="44.25" style="visibility: inherit;" fill="rgb(0, 0, 0)" stroke="rgb(204, 204, 204)" stroke-width="1px"></line><line x1="41.171875" y1="29.499999999999993" x2="36.171875" y2="29.499999999999993" style="visibility: inherit;" fill="rgb(0, 0, 0)" stroke="rgb(204, 204, 204)" stroke-width="1px"></line><line x1="41.171875" y1="14.750000000000007" x2="36.171875" y2="14.750000000000007" style="visibility: inherit;" fill="rgb(0, 0, 0)" stroke="rgb(204, 204, 204)" stroke-width="1px"></line><line x1="41.171875" y1="0" x2="36.171875" y2="0" style="visibility: inherit;" fill="rgb(0, 0, 0)" stroke="rgb(204, 204, 204)" stroke-width="1px"></line></g><g transform="translate(31.171875, 0)"><text x="0" y="177" dx="0em" dy="0.3em" style="text-anchor: end; visibility: hidden; font-family: Roboto, sans-serif; font-size: 12px; font-weight: 200;" fill="rgb(255, 255, 255)" stroke="none" stroke-width="1px">0.1</text><text x="0" y="162.25" dx="0em" dy="0.3em" style="text-anchor: end; visibility: inherit; font-family: Roboto, sans-serif; font-size: 12px; font-weight: 200;" fill="rgb(255, 255, 255)" stroke="none" stroke-width="1px">0.2</text><text x="0" y="147.5" dx="0em" dy="0.3em" style="text-anchor: end; visibility: hidden; font-family: Roboto, sans-serif; font-size: 12px; font-weight: 200;" fill="rgb(255, 255, 255)" stroke="none" stroke-width="1px">0.3</text><text x="0" y="132.75" dx="0em" dy="0.3em" style="text-anchor: end; visibility: inherit; font-family: Roboto, sans-serif; font-size: 12px; font-weight: 200;" fill="rgb(255, 255, 255)" stroke="none" stroke-width="1px">0.4</text><text x="0" y="118" dx="0em" dy="0.3em" style="text-anchor: end; visibility: hidden; font-family: Roboto, sans-serif; font-size: 12px; font-weight: 200;" fill="rgb(255, 255, 255)" stroke="none" stroke-width="1px">0.5</text><text x="0" y="103.24999999999999" dx="0em" dy="0.3em" style="text-anchor: end; visibility: inherit; font-family: Roboto, sans-serif; font-size: 12px; font-weight: 200;" fill="rgb(255, 255, 255)" stroke="none" stroke-width="1px">0.6</text><text x="0" y="88.5" dx="0em" dy="0.3em" style="text-anchor: end; visibility: hidden; font-family: Roboto, sans-serif; font-size: 12px; font-weight: 200;" fill="rgb(255, 255, 255)" stroke="none" stroke-width="1px">0.7</text><text x="0" y="73.75" dx="0em" dy="0.3em" style="text-anchor: end; visibility: inherit; font-family: Roboto, sans-serif; font-size: 12px; font-weight: 200;" fill="rgb(255, 255, 255)" stroke="none" stroke-width="1px">0.8</text><text x="0" y="58.999999999999986" dx="0em" dy="0.3em" style="text-anchor: end; visibility: hidden; font-family: Roboto, sans-serif; font-size: 12px; font-weight: 200;" fill="rgb(255, 255, 255)" stroke="none" stroke-width="1px">0.9</text><text x="0" y="44.25" dx="0em" dy="0.3em" style="text-anchor: end; visibility: inherit; font-family: Roboto, sans-serif; font-size: 12px; font-weight: 200;" fill="rgb(255, 255, 255)" stroke="none" stroke-width="1px">1</text><text x="0" y="29.499999999999993" dx="0em" dy="0.3em" style="text-anchor: end; visibility: hidden; font-family: Roboto, sans-serif; font-size: 12px; font-weight: 200;" fill="rgb(255, 255, 255)" stroke="none" stroke-width="1px">1.1</text><text x="0" y="14.750000000000007" dx="0em" dy="0.3em" style="text-anchor: end; visibility: inherit; font-family: Roboto, sans-serif; font-size: 12px; font-weight: 200;" fill="rgb(255, 255, 255)" stroke="none" stroke-width="1px">1.2</text><text x="0" y="0" dx="0em" dy="0.3em" style="text-anchor: end; visibility: hidden; font-family: Roboto, sans-serif; font-size: 12px; font-weight: 200;" fill="rgb(255, 255, 255)" stroke="none" stroke-width="1px">1.3</text></g><line x1="41.171875" y1="0" x2="41.171875" y2="177" fill="rgb(0, 0, 0)" stroke="rgb(204, 204, 204)" stroke-width="1px"></line></g></g><g transform="translate(41, 0)" clip-path="url(#clip_0)"><clipPath id="clip_0"><rect width="288" height="176"></rect></clipPath><g><g><g><line x1="0" y1="0" x2="0" y2="177" fill="rgb(0, 0, 0)" stroke="rgb(189, 189, 189)" stroke-width="1px" opacity="0.25"></line><line x1="19.255208333333332" y1="0" x2="19.255208333333332" y2="177" fill="rgb(0, 0, 0)" stroke="rgb(189, 189, 189)" stroke-width="1px" opacity="0.25"></line><line x1="38.510416666666664" y1="0" x2="38.510416666666664" y2="177" fill="rgb(0, 0, 0)" stroke="rgb(189, 189, 189)" stroke-width="1px" opacity="0.25"></line><line x1="57.765625" y1="0" x2="57.765625" y2="177" fill="rgb(0, 0, 0)" stroke="rgb(189, 189, 189)" stroke-width="1px" opacity="0.25"></line><line x1="77.02083333333333" y1="0" x2="77.02083333333333" y2="177" fill="rgb(0, 0, 0)" stroke="rgb(189, 189, 189)" stroke-width="1px" opacity="0.25"></line><line x1="96.27604166666666" y1="0" x2="96.27604166666666" y2="177" fill="rgb(0, 0, 0)" stroke="rgb(189, 189, 189)" stroke-width="1px" opacity="0.25"></line><line x1="115.53125" y1="0" x2="115.53125" y2="177" fill="rgb(0, 0, 0)" stroke="rgb(189, 189, 189)" stroke-width="1px" opacity="0.25"></line><line x1="134.78645833333334" y1="0" x2="134.78645833333334" y2="177" fill="rgb(0, 0, 0)" stroke="rgb(189, 189, 189)" stroke-width="1px" opacity="0.25"></line><line x1="154.04166666666666" y1="0" x2="154.04166666666666" y2="177" fill="rgb(0, 0, 0)" stroke="rgb(189, 189, 189)" stroke-width="1px" opacity="0.25"></line><line x1="173.296875" y1="0" x2="173.296875" y2="177" fill="rgb(0, 0, 0)" stroke="rgb(189, 189, 189)" stroke-width="1px" opacity="0.25"></line><line x1="192.55208333333331" y1="0" x2="192.55208333333331" y2="177" fill="rgb(0, 0, 0)" stroke="rgb(189, 189, 189)" stroke-width="1px" opacity="0.25"></line><line x1="211.80729166666666" y1="0" x2="211.80729166666666" y2="177" fill="rgb(0, 0, 0)" stroke="rgb(189, 189, 189)" stroke-width="1px" opacity="0.25"></line><line x1="231.0625" y1="0" x2="231.0625" y2="177" fill="rgb(0, 0, 0)" stroke="rgb(189, 189, 189)" stroke-width="1px" opacity="0.25"></line><line x1="250.31770833333334" y1="0" x2="250.31770833333334" y2="177" fill="rgb(0, 0, 0)" stroke="rgb(189, 189, 189)" stroke-width="1px" opacity="0.25"></line><line x1="269.5729166666667" y1="0" x2="269.5729166666667" y2="177" fill="rgb(0, 0, 0)" stroke="rgb(189, 189, 189)" stroke-width="1px" opacity="0.25"></line><line x1="288.828125" y1="0" x2="288.828125" y2="177" fill="rgb(0, 0, 0)" stroke="rgb(189, 189, 189)" stroke-width="1px" opacity="0.25"></line></g><g><line x1="0" y1="177" x2="288.828125" y2="177" fill="rgb(0, 0, 0)" stroke="rgb(189, 189, 189)" stroke-width="1px" opacity="0.25"></line><line x1="0" y1="162.25" x2="288.828125" y2="162.25" fill="rgb(0, 0, 0)" stroke="rgb(189, 189, 189)" stroke-width="1px" opacity="0.25"></line><line x1="0" y1="147.5" x2="288.828125" y2="147.5" fill="rgb(0, 0, 0)" stroke="rgb(189, 189, 189)" stroke-width="1px" opacity="0.25"></line><line x1="0" y1="132.75" x2="288.828125" y2="132.75" fill="rgb(0, 0, 0)" stroke="rgb(189, 189, 189)" stroke-width="1px" opacity="0.25"></line><line x1="0" y1="118" x2="288.828125" y2="118" fill="rgb(0, 0, 0)" stroke="rgb(189, 189, 189)" stroke-width="1px" opacity="0.25"></line><line x1="0" y1="103.24999999999999" x2="288.828125" y2="103.24999999999999" fill="rgb(0, 0, 0)" stroke="rgb(189, 189, 189)" stroke-width="1px" opacity="0.25"></line><line x1="0" y1="88.5" x2="288.828125" y2="88.5" fill="rgb(0, 0, 0)" stroke="rgb(189, 189, 189)" stroke-width="1px" opacity="0.25"></line><line x1="0" y1="73.75" x2="288.828125" y2="73.75" fill="rgb(0, 0, 0)" stroke="rgb(189, 189, 189)" stroke-width="1px" opacity="0.25"></line><line x1="0" y1="58.999999999999986" x2="288.828125" y2="58.999999999999986" fill="rgb(0, 0, 0)" stroke="rgb(189, 189, 189)" stroke-width="1px" opacity="0.25"></line><line x1="0" y1="44.25" x2="288.828125" y2="44.25" fill="rgb(0, 0, 0)" stroke="rgb(189, 189, 189)" stroke-width="1px" opacity="0.25"></line><line x1="0" y1="29.499999999999993" x2="288.828125" y2="29.499999999999993" fill="rgb(0, 0, 0)" stroke="rgb(189, 189, 189)" stroke-width="1px" opacity="0.25"></line><line x1="0" y1="14.750000000000007" x2="288.828125" y2="14.750000000000007" fill="rgb(0, 0, 0)" stroke="rgb(189, 189, 189)" stroke-width="1px" opacity="0.25"></line><line x1="0" y1="0" x2="288.828125" y2="0" fill="rgb(0, 0, 0)" stroke="rgb(189, 189, 189)" stroke-width="1px" opacity="0.25"></line></g></g></g><g><g><line x1="0" y1="191.75" x2="288.828125" y2="191.75" fill="rgb(0, 0, 0)" stroke="rgb(153, 153, 153)" stroke-width="1.5px"></line></g></g><g><g><line x1="19.255208333333332" y1="0" x2="19.255208333333332" y2="177" fill="rgb(0, 0, 0)" stroke="rgb(153, 153, 153)" stroke-width="1.5px"></line></g></g><g><g><g><g><g><path stroke="rgb(255, 112, 67)" stroke-width="2px" d="M20.21796875,17.6297973394394L21.180729166666666,42.38560558483003L22.14348958333333,67.24403410176839L23.10625,76.86708828839748L24.069010416666664,94.24222878115941L25.031770833333333,97.07613613649754L25.994531249999998,97.68739506342403L26.957291666666666,102.06881555563908L27.92005208333333,102.56222251553544L28.8828125,100.9984818241034L29.845572916666665,110.59045277200485L30.808333333333334,111.97191290977209L31.77109375,114.7829725156034L32.73385416666667,123.9056220321991L33.696614583333336,117.20489149448622L34.659375,120.02480658759389L35.622135416666666,123.72318450944182L36.584895833333334,128.4713561541826L37.54765625,127.77757526217758L38.510416666666664,131.80002928719614L39.47317708333333,127.35507809343744L40.4359375,125.33602527772186L41.39869791666667,120.57179225466484L42.36145833333333,124.887309734119L43.32421875,124.51278275112519L44.28697916666666,125.10857199650005L45.24973958333334,115.67181281211955L46.2125,110.30716527256094L47.17526041666667,124.16474591126023L48.13802083333333,126.56387648829131L49.100781250000004,131.92998357573637L50.063541666666666,132.31266883056915L51.026302083333334,128.48564504612415L51.989062499999996,126.49774826451161L52.951822916666664,133.72110941837477L53.91458333333333,136.22968557579082L54.87734375,136.23559573357642L55.84010416666666,133.04840894985088L56.80286458333333,133.6235582510404L57.765625,143.38047555676638L58.72838541666667,140.19429438211205L59.69114583333333,140.39887264319776L60.65390625,127.20593378728283L61.61666666666667,128.84073449869854L62.579427083333336,136.3434487034723L63.5421875,125.94051764243599L64.50494791666667,124.92003353135199L65.46770833333333,130.3983640296283L66.43046875,132.95605512402062L67.39322916666667,136.37502681580926L68.35598958333333,134.04596679428727L69.31875,135.53994017851494L70.28151041666668,138.89370393760876L71.24427083333333,142.0381096840407L72.20703125,136.72553584220702L73.16979166666667,139.17768169786245L74.13255208333332,149.00524347332768L75.0953125,146.9182965833402L76.05807291666666,147.6620730685268L77.02083333333333,148.77850801510067L77.98359375000001,149.07588111020596L78.94635416666667,145.62582706604874L79.90911458333333,146.39369784113453L80.871875,148.76400947759564L81.83463541666667,141.45205469244723L82.79739583333334,146.0626879830003L83.76015625,143.22181032293085L84.72291666666666,145.2179202627721L85.68567708333335,147.27479585358995L86.6484375,128.4539410492748L87.61119791666667,131.66926647549687L88.57395833333332,140.52642388538015L89.53671875,140.52809819814857L90.49947916666667,140.2903698518115L91.46223958333333,145.16979130114544L92.425,147.14229967597382L93.38776041666667,142.6242193186477L94.35052083333333,146.28617351080152L95.31328125,148.3024096299718L96.27604166666666,148.99381113109055L97.23880208333334,146.69999539290106L98.20156250000001,151.47064644953153L99.16432291666666,151.87135646260106L100.12708333333333,148.7983282298823L101.08984375,143.6281543726313L102.05260416666667,144.6539009484403L103.01536458333334,150.82160310880855L103.97812499999999,154.4737874951155L104.94088541666667,156.43939886606879L105.90364583333333,157.31558266947954L106.86640625,161.6596818010228L107.82916666666667,157.35049275995596L108.79192708333333,159.49807092810454L109.7546875,155.28915954986084L110.71744791666667,155.5854011944465L111.68020833333333,157.2986368430574L112.64296875000001,153.12704994040246L113.60572916666666,151.30856916759916L114.56848958333333,150.71124283942288L115.53125,148.80656019134943L116.49401041666667,144.21501342823282L117.45677083333334,145.7689517818104L118.41953124999999,144.4907440413362L119.38229166666666,147.38060828264514L120.34505208333334,149.34221212992642L121.3078125,146.445350211439L122.27057291666667,146.8718619832858L123.23333333333333,141.98683293995052L124.19609375,143.4261287709283L125.15885416666667,149.54427051008983L126.12161458333333,151.93817911721018L127.084375,153.78258594975918L128.04713541666666,154.97387991014747L129.00989583333333,153.0581577280976L129.97265625,135.82737141012058L130.93541666666667,140.77546319460217L131.89817708333334,149.97599126753417L132.8609375,151.57845013652567L133.82369791666667,153.4603973049779L134.78645833333334,152.63347193711158L135.74921874999998,151.5951176709721L136.71197916666665,152.08076825301583L137.67473958333335,151.17530958390674L138.6375,154.92485596857335L139.60026041666666,157.01769002450624L140.56302083333335,155.2194359908886L141.52578125,157.17397978665753L142.48854166666666,149.71124480821086L143.45130208333333,153.5688580432975L144.4140625,152.44957137462163L145.37682291666667,148.58824765894806L146.33958333333334,152.15633137949703L147.30234375,152.57315853791474L148.26510416666665,149.67258391712332L149.22786458333334,154.09131041129962L150.190625,154.3404170451196L151.15338541666665,156.08917558357905L152.11614583333332,156.87412803569907L153.07890625000002,153.0303576123683L154.04166666666666,152.55891476464083L155.00442708333333,154.28662040169127L155.96718750000002,153.89948928555899L156.92994791666666,145.61049631953867L157.89270833333333,144.1387443168201L158.85546875,145.85950187583197L159.81822916666667,147.56446053826468L160.78098958333334,151.2585228666285L161.74375,149.90160886553642L162.70651041666667,157.1807754254801L163.66927083333334,158.2458907316007L164.63203124999998,155.9626108199285L165.59479166666668,150.4072416120724L166.55755208333332,151.80586853587366L167.5203125,154.33276162125907L168.48307291666669,156.80525697814372L169.44583333333333,151.81916236607398L170.40859375,138.28070123033623L171.3713541666667,144.93197751663268L172.33411458333333,154.21922628356302L173.296875,153.7853275017338L174.25963541666667,156.97632950403673L175.22239583333334,147.7052134803437L176.18515625,154.7444837529363L177.14791666666665,154.0276692473234L178.11067708333334,157.6901266642416L179.0734375,158.23659562277822L180.03619791666665,159.06649100904482L180.99895833333335,155.2640915222455L181.96171875,157.7671774183207L182.92447916666666,160.23181254592498L183.88723958333335,158.59630094127036L184.85,159.84300919268236L185.81276041666666,157.58968999918525L186.77552083333333,155.50211753211155L187.73828125,153.8868678078755L188.70104166666667,157.9868541458669L189.6638020833333,161.52650532122985L190.6265625,162.4445788353475L191.58932291666667,165.04280331669997L192.55208333333331,162.33486156129095L193.51484375,158.64769642033133L194.47760416666668,158.7048134742853L195.44036458333332,155.5017557882474L196.40312500000002,154.58488287587204L197.36588541666666,150.06606059705754L198.32864583333333,153.9695343937608L199.29140625,153.9422243694146L200.25416666666666,158.31657205877778L201.21692708333333,156.89521993314074L202.1796875,159.42116753527432L203.14244791666667,157.87779146891182L204.10520833333334,161.55366174257603L205.06796874999998,161.9660379670668L206.03072916666667,156.78834077016165L206.99348958333334,162.94722047922403L207.95624999999998,158.30679911063547L208.91901041666668,161.44880318454761L209.88177083333335,159.3511832553855L210.84453125,159.41199178986022L211.80729166666666,155.87472109491986L212.77005208333335,158.57173274752714L213.7328125,153.27059959052335L214.69557291666666,153.66343725727995L215.65833333333333,155.98519045714735L216.62109375,153.68272787692666L217.58385416666667,153.31234159089635L218.54661458333334,148.0551768184752L219.509375,152.50012746697965L220.47213541666665,152.67548682240428L221.43489583333334,155.07637494175304L222.39765625,161.5143882356207L223.36041666666665,154.90182076824428L224.32317708333332,134.60457799990607L225.28593750000002,147.86297747587938L226.24869791666666,149.49837279972897L227.21145833333333,153.62546746228617L228.17421875000002,151.6902808624177L229.13697916666666,160.5459449948471L230.09973958333333,161.0124325282336L231.0625,159.42015153032307L232.02526041666667,162.26660560883144L232.98802083333334,160.94415036330852L233.95078125,159.3992879360332L234.91354166666667,156.75478291925276L235.87630208333334,147.9085006679087L236.83906249999998,148.92199334889585L237.80182291666668,143.7882622742053L238.76458333333332,147.0909909822581L239.72734375,145.74789775121437L240.69010416666669,152.5494684708609L241.65286458333333,149.40083152845463L242.615625,157.49118519601203L243.5783854166667,160.35053151713L244.54114583333333,157.44427835861555L245.50390625,160.94059409451313L246.46666666666667,161.72731206567184L247.42942708333334,163.39537951499878L248.3921875,158.46942591756974L249.35494791666665,159.64532946104046L250.31770833333334,161.00227303239248L251.28046875,154.03980159123267L252.24322916666665,159.39607480382637L253.20598958333335,158.23639827201197L254.16875,156.04311078327555L255.13151041666666,154.9312900098423L256.0942708333333,160.69046570612545L257.05703125,156.5683948740575L258.01979166666666,150.7295546499022L258.9825520833333,158.55490471524763L259.9453125,158.72999118329744L260.90807291666664,161.12995772696533L261.87083333333334,163.77563286505338L262.83359375000003,159.39635864306806L263.7963541666667,153.83238886838745L264.7591145833333,154.9206943037843L265.721875,156.2521661920986L266.68463541666665,160.30650218150862L267.64739583333335,157.77555925739912L268.61015625,158.7022776311225L269.5729166666667,159.77631386253753" style="fill: none;" fill="none"></path></g><g><path stroke="rgb(0, 119, 187)" stroke-width="2px" d="M19.255208333333332,39.704206466674805L28.8828125,-569.1608243882656L96.27604166666666,-28.786304992888898L105.90364583333333,3.873476810223385L115.53125,-63.98638543131196L144.4140625,-14.2826986121526L154.04166666666666,14.240096060324154L163.66927083333334,29.76726778492882L173.296875,47.6503897846766L182.92447916666666,54.9508625011322L192.55208333333331,49.49392080979032L202.1796875,34.878575574845904L211.80729166666666,58.12651920976551L221.43489583333334,64.08582496806358L231.0625,80.53700934123526L240.69010416666669,76.83303485947009L250.31770833333334,24.974691791465915L259.9453125,12.694112835829229L269.5729166666667,28.168249469779933" style="fill: none;" fill="none"></path></g></g></g></g><g opacity="0.2"><g><g><g><path stroke="rgb(255, 112, 67)" stroke-width="2px" d="M20.21796875,17.6297973394394L21.180729166666666,57.239090532064424L22.14348958333333,91.10812547802925L23.10625,88.18380001187325L24.069010416666664,116.92721220850943L25.031770833333333,100.99645021557808L25.994531249999998,98.56150510907173L26.957291666666666,108.4569686949253L27.92005208333333,103.2899019420147L28.8828125,98.676509141922L29.845572916666665,124.89141072332858L30.808333333333334,114.03658527135848L31.77109375,118.9903833270073L32.73385416666667,137.5717240869999L33.696614583333336,107.16167214512825L34.659375,124.25269040465355L35.622135416666666,129.26918636262417L36.584895833333334,135.59240806102753L37.54765625,126.73700961470604L38.510416666666664,137.8333426564932L39.47317708333333,120.68789507448673L40.4359375,122.30751249194144L41.39869791666667,113.42553678154945L42.36145833333333,131.36053483188152L43.32421875,123.95099493861197L44.28697916666666,126.00225332379341L45.24973958333334,101.51669818162918L46.2125,102.26020219922064L47.17526041666667,144.9511041045189L48.13802083333333,130.16257102787495L49.100781250000004,139.97914242744446L50.063541666666666,132.8866966366768L51.026302083333334,122.74510982632637L51.989062499999996,123.51590323448181L52.951822916666664,144.55615083873272L53.91458333333333,139.99254974722862L54.87734375,136.24446097016335L55.84010416666666,128.26762880384922L56.80286458333333,134.4862821996212L57.765625,158.01585148274899L58.72838541666667,135.4150226265192L59.69114583333333,140.70574003458023L60.65390625,107.41652551293372L61.61666666666667,131.29293556511402L62.579427083333336,147.5975200086832L63.5421875,110.33612105250359L64.50494791666667,123.38930736482143L65.46770833333333,138.6158597767353L66.43046875,136.79259176552296L67.39322916666667,141.50348435342312L68.35598958333333,130.5523767620325L69.31875,137.78090025484562L70.28151041666668,143.92434957623482L71.24427083333333,146.75471830368042L72.20703125,128.7566750794649L73.16979166666667,142.85590048134327L74.13255208333332,163.7465861365199L75.0953125,143.78787624835968L76.05807291666666,148.7777377963066L77.02083333333333,150.45316043496132L77.98359375000001,149.52194075286388L78.94635416666667,140.45074599981308L79.90911458333333,147.5455040037632L80.871875,152.31947693228722L81.83463541666667,130.48412251472473L82.79739583333334,152.97863791882992L83.76015625,138.96049383282661L84.72291666666666,148.212085172534L85.68567708333335,150.36010923981667L86.6484375,100.22265884280205L87.61119791666667,136.49225461483002L88.57395833333332,153.81216000020504L89.53671875,140.53060966730118L90.49947916666667,139.9337773323059L91.46223958333333,152.4889234751463L92.425,150.1010622382164L93.38776041666667,135.84709878265858L94.35052083333333,151.7791047990322L95.31328125,151.32676380872726L96.27604166666666,150.03091338276863L97.23880208333334,143.25927178561687L98.20156250000001,158.62662303447723L99.16432291666666,152.4724214822054L100.12708333333333,144.18878588080406L101.08984375,135.8728935867548L102.05260416666667,146.19252081215382L103.01536458333334,160.07315634936094L103.97812499999999,159.9520640745759L104.94088541666667,159.3878159224987L105.90364583333333,158.62985837459564L106.86640625,168.17583049833775L107.82916666666667,150.88670919835567L108.79192708333333,162.71943818032742L109.7546875,148.9757924824953L110.71744791666667,156.02976366132498L111.68020833333333,159.86849031597376L112.64296875000001,146.86966958642006L113.60572916666666,148.58084800839424L114.56848958333333,149.81525334715843L115.53125,145.94953621923923L116.49401041666667,137.3276932835579L117.45677083333334,148.0998593121767L118.41953124999999,142.57343243062496L119.38229166666666,151.7154046446085L120.34505208333334,152.2846179008484L121.3078125,142.1000573337078L122.27057291666667,147.51162964105606L123.23333333333333,134.65928937494755L124.19609375,145.58507251739502L125.15885416666667,158.7214831188321L126.12161458333333,155.52904202789068L127.084375,156.54919619858265L128.04713541666666,156.76082085072994L129.00989583333333,150.1845744550228L129.97265625,109.98119193315506L130.93541666666667,148.19760087132454L131.89817708333334,163.77678337693214L132.8609375,153.98213844001293L133.82369791666667,156.2833180576563L134.78645833333334,151.39308388531208L135.74921874999998,150.03758627176285L136.71197916666665,152.80924412608147L137.67473958333335,149.8171215802431L138.6375,160.54917554557323L139.60026041666666,160.1569411084056L140.56302083333335,152.5220549404621L141.52578125,160.10579548031092L142.48854166666666,138.5171423405409L143.45130208333333,159.35527789592743L144.4140625,150.77064137160778L145.37682291666667,142.79626208543777L146.33958333333334,157.50845696032047L147.30234375,153.1983992755413L148.26510416666665,145.32172198593616L149.22786458333334,160.71940015256405L150.190625,154.7140769958496L151.15338541666665,158.71231339126825L152.11614583333332,158.0515567138791L153.07890625000002,147.26470197737217L154.04166666666666,151.85175049304962L155.00442708333333,156.8781788572669L155.96718750000002,153.31879261136055L156.92994791666666,133.1770068705082L157.89270833333333,141.93111631274223L158.85546875,148.44063821434975L159.81822916666667,150.12189853191376L160.78098958333334,156.79961635917425L161.74375,147.86623786389828L162.70651041666667,168.09952526539564L163.66927083333334,159.8435636907816L164.63203124999998,152.53769095242023L165.59479166666668,142.0741878002882L166.55755208333332,153.90380892157555L167.5203125,158.1231012493372L168.48307291666669,160.51400001347065L169.44583333333333,144.34002044796944L170.40859375,117.97300952672957L171.3713541666667,154.90889194607735L172.33411458333333,168.15009943395853L173.296875,153.13447932898998L174.25963541666667,161.7628325074911L175.22239583333334,133.7985394448042L176.18515625,165.30338916182518L177.14791666666665,152.952447488904L178.11067708333334,163.18381278961897L179.0734375,159.05629906058311L180.03619791666665,160.3113340884447L180.99895833333335,149.56049229204655L181.96171875,161.52180626243353L182.92447916666666,163.9287652373314L183.88723958333335,156.1430335342884L184.85,161.71307156980038L185.81276041666666,154.20971120893955L186.77552083333333,152.370758831501L187.73828125,151.46399322152138L188.70104166666667,164.13683365285397L189.6638020833333,166.8359820842743L190.6265625,163.821689106524L191.58932291666667,168.9401400387287L192.55208333333331,158.27294892817736L193.51484375,153.11694870889187L194.47760416666668,158.7904890552163L195.44036458333332,150.69716925919056L196.40312500000002,153.20957350730896L197.36588541666666,143.28782717883587L198.32864583333333,159.8247450888157L199.29140625,153.90125933289528L200.25416666666666,164.87809359282255L201.21692708333333,154.76319174468517L202.1796875,163.21008893847466L203.14244791666667,155.56272736936808L204.10520833333334,167.06746715307236L205.06796874999998,162.58460230380297L206.03072916666667,149.02179497480392L206.99348958333334,172.1855400428176L207.95624999999998,151.3461670577526L208.91901041666668,166.16180929541588L209.88177083333335,156.20475336164236L210.84453125,159.50320459157228L211.80729166666666,150.5688150525093L212.77005208333335,162.61725022643805L213.7328125,145.31889985501766L214.69557291666666,154.25269375741482L215.65833333333333,159.46782025694847L216.62109375,150.2290340065956L217.58385416666667,152.75676216185093L218.54661458333334,140.16942965984344L219.509375,159.16755343973637L220.47213541666665,152.93852585554123L221.43489583333334,158.67770712077618L222.39765625,171.17140817642212L223.36041666666665,144.98296956717968L224.32317708333332,104.15871384739876L225.28593750000002,167.75057668983936L226.24869791666666,151.9514657855034L227.21145833333333,159.81610945612192L228.17421875000002,148.787500962615L229.13697916666666,173.82944119349122L230.09973958333333,161.71216382831335L231.0625,157.03173003345728L232.02526041666667,166.53628672659397L232.98802083333334,158.9604674950242L233.95078125,157.08199429512024L234.91354166666667,152.78802539408207L235.87630208333334,134.6390772908926L236.83906249999998,150.4422323703766L237.80182291666668,136.08766566216946L238.76458333333332,152.04508404433727L239.72734375,143.73325790464878L240.69010416666669,162.75182455033064L241.65286458333333,144.67787611484528L242.615625,169.62671569734812L243.5783854166667,164.63955099880695L244.54114583333333,153.0848986208439L245.50390625,166.1850676983595L246.46666666666667,162.90738902240992L247.42942708333334,165.89748068898916L248.3921875,151.0804955214262L249.35494791666665,161.40918477624655L250.31770833333334,163.0376883894205L251.28046875,143.59609442949295L252.24322916666665,167.4304846227169L253.20598958333335,156.49688347429037L254.16875,152.7531795501709L255.13151041666666,153.26355884969234L256.0942708333333,169.32922925055027L257.05703125,150.38528862595558L258.01979166666666,141.9712943136692L258.9825520833333,170.2929298132658L259.9453125,158.99262088537216L260.90807291666664,164.72990754246712L261.87083333333334,167.74414557218552L262.83359375000003,152.82744731009007L263.7963541666667,145.48643420636654L264.7591145833333,156.55315245687962L265.721875,158.24937402457L266.68463541666665,166.38800616562366L267.64739583333335,153.9791448712349L268.61015625,160.0923551917076L269.5729166666667,161.38736820966005" style="fill: none;" fill="none"></path></g><g><path stroke="rgb(0, 119, 187)" stroke-width="2px" d="M19.255208333333332,39.704206466674805L28.8828125,-934.4798429012299L38.510416666666664,-179.5543713569641L48.13802083333333,16.119508922100074L57.765625,32.2162051796913L67.39322916666667,49.86939015984535L77.02083333333333,-20.60358834266664L96.27604166666666,-22.001941025257125L105.90364583333333,52.36944648623466L115.53125,-165.1606948375702L125.15885416666667,57.73221614956856L134.78645833333334,4.7852509021759095L144.4140625,-24.90622144937514L154.04166666666666,56.9907605946064L163.66927083333334,53.04707440733909L173.296875,74.46750524640083L182.92447916666666,65.89971798658371L192.55208333333331,41.309339582920074L202.1796875,12.956893622875214L211.80729166666666,92.99715968966484L221.43489583333334,73.02458751201628L231.0625,105.21346110105515L240.69010416666669,71.27711701393127L250.31770833333334,-52.8124542236328L259.9453125,-5.726703226566301L269.5729166666667,51.379414826631546" style="fill: none;" fill="none"></path></g></g></g></g></g></g><g transform="translate(41, 177)" clip-path="url(#clip_1)"><clipPath id="clip_1"><rect width="288" height="22"></rect></clipPath><g><g><line x1="0" y1="0" x2="0" y2="5" style="visibility: inherit;" fill="rgb(0, 0, 0)" stroke="rgb(204, 204, 204)" stroke-width="1px"></line><line x1="19.255208333333332" y1="0" x2="19.255208333333332" y2="5" style="visibility: inherit;" fill="rgb(0, 0, 0)" stroke="rgb(204, 204, 204)" stroke-width="1px"></line><line x1="38.510416666666664" y1="0" x2="38.510416666666664" y2="5" style="visibility: inherit;" fill="rgb(0, 0, 0)" stroke="rgb(204, 204, 204)" stroke-width="1px"></line><line x1="57.765625" y1="0" x2="57.765625" y2="5" style="visibility: inherit;" fill="rgb(0, 0, 0)" stroke="rgb(204, 204, 204)" stroke-width="1px"></line><line x1="77.02083333333333" y1="0" x2="77.02083333333333" y2="5" style="visibility: inherit;" fill="rgb(0, 0, 0)" stroke="rgb(204, 204, 204)" stroke-width="1px"></line><line x1="96.27604166666666" y1="0" x2="96.27604166666666" y2="5" style="visibility: inherit;" fill="rgb(0, 0, 0)" stroke="rgb(204, 204, 204)" stroke-width="1px"></line><line x1="115.53125" y1="0" x2="115.53125" y2="5" style="visibility: inherit;" fill="rgb(0, 0, 0)" stroke="rgb(204, 204, 204)" stroke-width="1px"></line><line x1="134.78645833333334" y1="0" x2="134.78645833333334" y2="5" style="visibility: inherit;" fill="rgb(0, 0, 0)" stroke="rgb(204, 204, 204)" stroke-width="1px"></line><line x1="154.04166666666666" y1="0" x2="154.04166666666666" y2="5" style="visibility: inherit;" fill="rgb(0, 0, 0)" stroke="rgb(204, 204, 204)" stroke-width="1px"></line><line x1="173.296875" y1="0" x2="173.296875" y2="5" style="visibility: inherit;" fill="rgb(0, 0, 0)" stroke="rgb(204, 204, 204)" stroke-width="1px"></line><line x1="192.55208333333331" y1="0" x2="192.55208333333331" y2="5" style="visibility: inherit;" fill="rgb(0, 0, 0)" stroke="rgb(204, 204, 204)" stroke-width="1px"></line><line x1="211.80729166666666" y1="0" x2="211.80729166666666" y2="5" style="visibility: inherit;" fill="rgb(0, 0, 0)" stroke="rgb(204, 204, 204)" stroke-width="1px"></line><line x1="231.0625" y1="0" x2="231.0625" y2="5" style="visibility: inherit;" fill="rgb(0, 0, 0)" stroke="rgb(204, 204, 204)" stroke-width="1px"></line><line x1="250.31770833333334" y1="0" x2="250.31770833333334" y2="5" style="visibility: inherit;" fill="rgb(0, 0, 0)" stroke="rgb(204, 204, 204)" stroke-width="1px"></line><line x1="269.5729166666667" y1="0" x2="269.5729166666667" y2="5" style="visibility: inherit;" fill="rgb(0, 0, 0)" stroke="rgb(204, 204, 204)" stroke-width="1px"></line><line x1="288.828125" y1="0" x2="288.828125" y2="5" style="visibility: inherit;" fill="rgb(0, 0, 0)" stroke="rgb(204, 204, 204)" stroke-width="1px"></line></g><g transform="translate(0, 8)"><text x="0" y="0" dx="0em" dy="0.95em" style="text-anchor: middle; visibility: hidden; font-family: Roboto, sans-serif; font-size: 12px; font-weight: 200;" fill="rgb(255, 255, 255)" stroke="none" stroke-width="1px">-2k</text><text x="19.255208333333332" y="0" dx="0em" dy="0.95em" style="text-anchor: middle; visibility: inherit; font-family: Roboto, sans-serif; font-size: 12px; font-weight: 200;" fill="rgb(255, 255, 255)" stroke="none" stroke-width="1px">0</text><text x="38.510416666666664" y="0" dx="0em" dy="0.95em" style="text-anchor: middle; visibility: hidden; font-family: Roboto, sans-serif; font-size: 12px; font-weight: 200;" fill="rgb(255, 255, 255)" stroke="none" stroke-width="1px">2k</text><text x="57.765625" y="0" dx="0em" dy="0.95em" style="text-anchor: middle; visibility: inherit; font-family: Roboto, sans-serif; font-size: 12px; font-weight: 200;" fill="rgb(255, 255, 255)" stroke="none" stroke-width="1px">4k</text><text x="77.02083333333333" y="0" dx="0em" dy="0.95em" style="text-anchor: middle; visibility: hidden; font-family: Roboto, sans-serif; font-size: 12px; font-weight: 200;" fill="rgb(255, 255, 255)" stroke="none" stroke-width="1px">6k</text><text x="96.27604166666666" y="0" dx="0em" dy="0.95em" style="text-anchor: middle; visibility: inherit; font-family: Roboto, sans-serif; font-size: 12px; font-weight: 200;" fill="rgb(255, 255, 255)" stroke="none" stroke-width="1px">8k</text><text x="115.53125" y="0" dx="0em" dy="0.95em" style="text-anchor: middle; visibility: hidden; font-family: Roboto, sans-serif; font-size: 12px; font-weight: 200;" fill="rgb(255, 255, 255)" stroke="none" stroke-width="1px">10k</text><text x="134.78645833333334" y="0" dx="0em" dy="0.95em" style="text-anchor: middle; visibility: inherit; font-family: Roboto, sans-serif; font-size: 12px; font-weight: 200;" fill="rgb(255, 255, 255)" stroke="none" stroke-width="1px">12k</text><text x="154.04166666666666" y="0" dx="0em" dy="0.95em" style="text-anchor: middle; visibility: hidden; font-family: Roboto, sans-serif; font-size: 12px; font-weight: 200;" fill="rgb(255, 255, 255)" stroke="none" stroke-width="1px">14k</text><text x="173.296875" y="0" dx="0em" dy="0.95em" style="text-anchor: middle; visibility: inherit; font-family: Roboto, sans-serif; font-size: 12px; font-weight: 200;" fill="rgb(255, 255, 255)" stroke="none" stroke-width="1px">16k</text><text x="192.55208333333331" y="0" dx="0em" dy="0.95em" style="text-anchor: middle; visibility: hidden; font-family: Roboto, sans-serif; font-size: 12px; font-weight: 200;" fill="rgb(255, 255, 255)" stroke="none" stroke-width="1px">18k</text><text x="211.80729166666666" y="0" dx="0em" dy="0.95em" style="text-anchor: middle; visibility: inherit; font-family: Roboto, sans-serif; font-size: 12px; font-weight: 200;" fill="rgb(255, 255, 255)" stroke="none" stroke-width="1px">20k</text><text x="231.0625" y="0" dx="0em" dy="0.95em" style="text-anchor: middle; visibility: hidden; font-family: Roboto, sans-serif; font-size: 12px; font-weight: 200;" fill="rgb(255, 255, 255)" stroke="none" stroke-width="1px">22k</text><text x="250.31770833333334" y="0" dx="0em" dy="0.95em" style="text-anchor: middle; visibility: inherit; font-family: Roboto, sans-serif; font-size: 12px; font-weight: 200;" fill="rgb(255, 255, 255)" stroke="none" stroke-width="1px">24k</text><text x="269.5729166666667" y="0" dx="0em" dy="0.95em" style="text-anchor: middle; visibility: hidden; font-family: Roboto, sans-serif; font-size: 12px; font-weight: 200;" fill="rgb(255, 255, 255)" stroke="none" stroke-width="1px">26k</text><text x="288.828125" y="0" dx="0em" dy="0.95em" style="text-anchor: middle; visibility: hidden; font-family: Roboto, sans-serif; font-size: 12px; font-weight: 200;" fill="rgb(255, 255, 255)" stroke="none" stroke-width="1px">28k</text></g><line x1="0" y1="0" x2="288.828125" y2="0" fill="rgb(0, 0, 0)" stroke="rgb(204, 204, 204)" stroke-width="1px"></line></g></g></g></g></svg>