<svg viewBox="0 0 330 200" xmlns="http://www.w3.org/2000/svg"><g><g><g><g><g><line x1="61.953125" y1="177" x2="56.953125" y2="177" style="visibility: inherit;" fill="rgb(0, 0, 0)" stroke="rgb(204, 204, 204)" stroke-width="1px"></line><line x1="61.953125" y1="165.2" x2="56.953125" y2="165.2" style="visibility: inherit;" fill="rgb(0, 0, 0)" stroke="rgb(204, 204, 204)" stroke-width="1px"></line><line x1="61.953125" y1="153.4" x2="56.953125" y2="153.4" style="visibility: inherit;" fill="rgb(0, 0, 0)" stroke="rgb(204, 204, 204)" stroke-width="1px"></line><line x1="61.953125" y1="141.6" x2="56.953125" y2="141.6" style="visibility: inherit;" fill="rgb(0, 0, 0)" stroke="rgb(204, 204, 204)" stroke-width="1px"></line><line x1="61.953125" y1="129.8" x2="56.953125" y2="129.8" style="visibility: inherit;" fill="rgb(0, 0, 0)" stroke="rgb(204, 204, 204)" stroke-width="1px"></line><line x1="61.953125" y1="118.00000000000001" x2="56.953125" y2="118.00000000000001" style="visibility: inherit;" fill="rgb(0, 0, 0)" stroke="rgb(204, 204, 204)" stroke-width="1px"></line><line x1="61.953125" y1="106.20000000000002" x2="56.953125" y2="106.20000000000002" style="visibility: inherit;" fill="rgb(0, 0, 0)" stroke="rgb(204, 204, 204)" stroke-width="1px"></line><line x1="61.953125" y1="94.4" x2="56.953125" y2="94.4" style="visibility: inherit;" fill="rgb(0, 0, 0)" stroke="rgb(204, 204, 204)" stroke-width="1px"></line><line x1="61.953125" y1="82.60000000000002" x2="56.953125" y2="82.60000000000002" style="visibility: inherit;" fill="rgb(0, 0, 0)" stroke="rgb(204, 204, 204)" stroke-width="1px"></line><line x1="61.953125" y1="70.80000000000003" x2="56.953125" y2="70.80000000000003" style="visibility: inherit;" fill="rgb(0, 0, 0)" stroke="rgb(204, 204, 204)" stroke-width="1px"></line><line x1="61.953125" y1="59.00000000000001" x2="56.953125" y2="59.00000000000001" style="visibility: inherit;" fill="rgb(0, 0, 0)" stroke="rgb(204, 204, 204)" stroke-width="1px"></line><line x1="61.953125" y1="47.19999999999999" x2="56.953125" y2="47.19999999999999" style="visibility: inherit;" fill="rgb(0, 0, 0)" stroke="rgb(204, 204, 204)" stroke-width="1px"></line><line x1="61.953125" y1="35.400000000000034" x2="56.953125" y2="35.400000000000034" style="visibility: inherit;" fill="rgb(0, 0, 0)" stroke="rgb(204, 204, 204)" stroke-width="1px"></line><line x1="61.953125" y1="23.600000000000016" x2="56.953125" y2="23.600000000000016" style="visibility: inherit;" fill="rgb(0, 0, 0)" stroke="rgb(204, 204, 204)" stroke-width="1px"></line><line x1="61.953125" y1="11.800000000000017" x2="56.953125" y2="11.800000000000017" style="visibility: inherit;" fill="rgb(0, 0, 0)" stroke="rgb(204, 204, 204)" stroke-width="1px"></line><line x1="61.953125" y1="0" x2="56.953125" y2="0" style="visibility: inherit;" fill="rgb(0, 0, 0)" stroke="rgb(204, 204, 204)" stroke-width="1px"></line></g><g transform="translate(51.953125, 0)"><text x="0" y="177" dx="0em" dy="0.3em" style="text-anchor: end; visibility: hidden; font-family: Roboto, sans-serif; font-size: 12px; font-weight: 200;" fill="rgb(255, 255, 255)" stroke="none" stroke-width="1px">0.028</text><text x="0" y="165.2" dx="0em" dy="0.3em" style="text-anchor: end; visibility: inherit; font-family: Roboto, sans-serif; font-size: 12px; font-weight: 200;" fill="rgb(255, 255, 255)" stroke="none" stroke-width="1px">0.03</text><text x="0" y="153.4" dx="0em" dy="0.3em" style="text-anchor: end; visibility: hidden; font-family: Roboto, sans-serif; font-size: 12px; font-weight: 200;" fill="rgb(255, 255, 255)" stroke="none" stroke-width="1px">0.032</text><text x="0" y="141.6" dx="0em" dy="0.3em" style="text-anchor: end; visibility: inherit; font-family: Roboto, sans-serif; font-size: 12px; font-weight: 200;" fill="rgb(255, 255, 255)" stroke="none" stroke-width="1px">0.034</text><text x="0" y="129.8" dx="0em" dy="0.3em" style="text-anchor: end; visibility: hidden; font-family: Roboto, sans-serif; font-size: 12px; font-weight: 200;" fill="rgb(255, 255, 255)" stroke="none" stroke-width="1px">0.036</text><text x="0" y="118.00000000000001" dx="0em" dy="0.3em" style="text-anchor: end; visibility: inherit; font-family: Roboto, sans-serif; font-size: 12px; font-weight: 200;" fill="rgb(255, 255, 255)" stroke="none" stroke-width="1px">0.038</text><text x="0" y="106.20000000000002" dx="0em" dy="0.3em" style="text-anchor: end; visibility: hidden; font-family: Roboto, sans-serif; font-size: 12px; font-weight: 200;" fill="rgb(255, 255, 255)" stroke="none" stroke-width="1px">0.04</text><text x="0" y="94.4" dx="0em" dy="0.3em" style="text-anchor: end; visibility: inherit; font-family: Roboto, sans-serif; font-size: 12px; font-weight: 200;" fill="rgb(255, 255, 255)" stroke="none" stroke-width="1px">0.042</text><text x="0" y="82.60000000000002" dx="0em" dy="0.3em" style="text-anchor: end; visibility: hidden; font-family: Roboto, sans-serif; font-size: 12px; font-weight: 200;" fill="rgb(255, 255, 255)" stroke="none" stroke-width="1px">0.044</text><text x="0" y="70.80000000000003" dx="0em" dy="0.3em" style="text-anchor: end; visibility: inherit; font-family: Roboto, sans-serif; font-size: 12px; font-weight: 200;" fill="rgb(255, 255, 255)" stroke="none" stroke-width="1px">0.046</text><text x="0" y="59.00000000000001" dx="0em" dy="0.3em" style="text-anchor: end; visibility: hidden; font-family: Roboto, sans-serif; font-size: 12px; font-weight: 200;" fill="rgb(255, 255, 255)" stroke="none" stroke-width="1px">0.048</text><text x="0" y="47.19999999999999" dx="0em" dy="0.3em" style="text-anchor: end; visibility: inherit; font-family: Roboto, sans-serif; font-size: 12px; font-weight: 200;" fill="rgb(255, 255, 255)" stroke="none" stroke-width="1px">0.05</text><text x="0" y="35.400000000000034" dx="0em" dy="0.3em" style="text-anchor: end; visibility: hidden; font-family: Roboto, sans-serif; font-size: 12px; font-weight: 200;" fill="rgb(255, 255, 255)" stroke="none" stroke-width="1px">0.052</text><text x="0" y="23.600000000000016" dx="0em" dy="0.3em" style="text-anchor: end; visibility: inherit; font-family: Roboto, sans-serif; font-size: 12px; font-weight: 200;" fill="rgb(255, 255, 255)" stroke="none" stroke-width="1px">0.054</text><text x="0" y="11.800000000000017" dx="0em" dy="0.3em" style="text-anchor: end; visibility: hidden; font-family: Roboto, sans-serif; font-size: 12px; font-weight: 200;" fill="rgb(255, 255, 255)" stroke="none" stroke-width="1px">0.056</text><text x="0" y="0" dx="0em" dy="0.3em" style="text-anchor: end; visibility: hidden; font-family: Roboto, sans-serif; font-size: 12px; font-weight: 200;" fill="rgb(255, 255, 255)" stroke="none" stroke-width="1px">0.058</text></g><line x1="61.953125" y1="0" x2="61.953125" y2="177" fill="rgb(0, 0, 0)" stroke="rgb(204, 204, 204)" stroke-width="1px"></line></g></g><g transform="translate(61, 0)" clip-path="url(#clip_0)"><clipPath id="clip_0"><rect width="268" height="176"></rect></clipPath><g><g><g><line x1="0" y1="0" x2="0" y2="177" fill="rgb(0, 0, 0)" stroke="rgb(189, 189, 189)" stroke-width="1px" opacity="0.25"></line><line x1="17.869791666666668" y1="0" x2="17.869791666666668" y2="177" fill="rgb(0, 0, 0)" stroke="rgb(189, 189, 189)" stroke-width="1px" opacity="0.25"></line><line x1="35.739583333333336" y1="0" x2="35.739583333333336" y2="177" fill="rgb(0, 0, 0)" stroke="rgb(189, 189, 189)" stroke-width="1px" opacity="0.25"></line><line x1="53.609375" y1="0" x2="53.609375" y2="177" fill="rgb(0, 0, 0)" stroke="rgb(189, 189, 189)" stroke-width="1px" opacity="0.25"></line><line x1="71.47916666666667" y1="0" x2="71.47916666666667" y2="177" fill="rgb(0, 0, 0)" stroke="rgb(189, 189, 189)" stroke-width="1px" opacity="0.25"></line><line x1="89.34895833333333" y1="0" x2="89.34895833333333" y2="177" fill="rgb(0, 0, 0)" stroke="rgb(189, 189, 189)" stroke-width="1px" opacity="0.25"></line><line x1="107.21875" y1="0" x2="107.21875" y2="177" fill="rgb(0, 0, 0)" stroke="rgb(189, 189, 189)" stroke-width="1px" opacity="0.25"></line><line x1="125.08854166666667" y1="0" x2="125.08854166666667" y2="177" fill="rgb(0, 0, 0)" stroke="rgb(189, 189, 189)" stroke-width="1px" opacity="0.25"></line><line x1="142.95833333333334" y1="0" x2="142.95833333333334" y2="177" fill="rgb(0, 0, 0)" stroke="rgb(189, 189, 189)" stroke-width="1px" opacity="0.25"></line><line x1="160.828125" y1="0" x2="160.828125" y2="177" fill="rgb(0, 0, 0)" stroke="rgb(189, 189, 189)" stroke-width="1px" opacity="0.25"></line><line x1="178.69791666666666" y1="0" x2="178.69791666666666" y2="177" fill="rgb(0, 0, 0)" stroke="rgb(189, 189, 189)" stroke-width="1px" opacity="0.25"></line><line x1="196.56770833333331" y1="0" x2="196.56770833333331" y2="177" fill="rgb(0, 0, 0)" stroke="rgb(189, 189, 189)" stroke-width="1px" opacity="0.25"></line><line x1="214.4375" y1="0" x2="214.4375" y2="177" fill="rgb(0, 0, 0)" stroke="rgb(189, 189, 189)" stroke-width="1px" opacity="0.25"></line><line x1="232.30729166666669" y1="0" x2="232.30729166666669" y2="177" fill="rgb(0, 0, 0)" stroke="rgb(189, 189, 189)" stroke-width="1px" opacity="0.25"></line><line x1="250.17708333333334" y1="0" x2="250.17708333333334" y2="177" fill="rgb(0, 0, 0)" stroke="rgb(189, 189, 189)" stroke-width="1px" opacity="0.25"></line><line x1="268.046875" y1="0" x2="268.046875" y2="177" fill="rgb(0, 0, 0)" stroke="rgb(189, 189, 189)" stroke-width="1px" opacity="0.25"></line></g><g><line x1="0" y1="177" x2="268.046875" y2="177" fill="rgb(0, 0, 0)" stroke="rgb(189, 189, 189)" stroke-width="1px" opacity="0.25"></line><line x1="0" y1="165.2" x2="268.046875" y2="165.2" fill="rgb(0, 0, 0)" stroke="rgb(189, 189, 189)" stroke-width="1px" opacity="0.25"></line><line x1="0" y1="153.4" x2="268.046875" y2="153.4" fill="rgb(0, 0, 0)" stroke="rgb(189, 189, 189)" stroke-width="1px" opacity="0.25"></line><line x1="0" y1="141.6" x2="268.046875" y2="141.6" fill="rgb(0, 0, 0)" stroke="rgb(189, 189, 189)" stroke-width="1px" opacity="0.25"></line><line x1="0" y1="129.8" x2="268.046875" y2="129.8" fill="rgb(0, 0, 0)" stroke="rgb(189, 189, 189)" stroke-width="1px" opacity="0.25"></line><line x1="0" y1="118.00000000000001" x2="268.046875" y2="118.00000000000001" fill="rgb(0, 0, 0)" stroke="rgb(189, 189, 189)" stroke-width="1px" opacity="0.25"></line><line x1="0" y1="106.20000000000002" x2="268.046875" y2="106.20000000000002" fill="rgb(0, 0, 0)" stroke="rgb(189, 189, 189)" stroke-width="1px" opacity="0.25"></line><line x1="0" y1="94.4" x2="268.046875" y2="94.4" fill="rgb(0, 0, 0)" stroke="rgb(189, 189, 189)" stroke-width="1px" opacity="0.25"></line><line x1="0" y1="82.60000000000002" x2="268.046875" y2="82.60000000000002" fill="rgb(0, 0, 0)" stroke="rgb(189, 189, 189)" stroke-width="1px" opacity="0.25"></line><line x1="0" y1="70.80000000000003" x2="268.046875" y2="70.80000000000003" fill="rgb(0, 0, 0)" stroke="rgb(189, 189, 189)" stroke-width="1px" opacity="0.25"></line><line x1="0" y1="59.00000000000001" x2="268.046875" y2="59.00000000000001" fill="rgb(0, 0, 0)" stroke="rgb(189, 189, 189)" stroke-width="1px" opacity="0.25"></line><line x1="0" y1="47.19999999999999" x2="268.046875" y2="47.19999999999999" fill="rgb(0, 0, 0)" stroke="rgb(189, 189, 189)" stroke-width="1px" opacity="0.25"></line><line x1="0" y1="35.400000000000034" x2="268.046875" y2="35.400000000000034" fill="rgb(0, 0, 0)" stroke="rgb(189, 189, 189)" stroke-width="1px" opacity="0.25"></line><line x1="0" y1="23.600000000000016" x2="268.046875" y2="23.600000000000016" fill="rgb(0, 0, 0)" stroke="rgb(189, 189, 189)" stroke-width="1px" opacity="0.25"></line><line x1="0" y1="11.800000000000017" x2="268.046875" y2="11.800000000000017" fill="rgb(0, 0, 0)" stroke="rgb(189, 189, 189)" stroke-width="1px" opacity="0.25"></line><line x1="0" y1="0" x2="268.046875" y2="0" fill="rgb(0, 0, 0)" stroke="rgb(189, 189, 189)" stroke-width="1px" opacity="0.25"></line></g></g></g><g><g><line x1="0" y1="342.2" x2="268.046875" y2="342.2" fill="rgb(0, 0, 0)" stroke="rgb(153, 153, 153)" stroke-width="1.5px"></line></g></g><g><g><line x1="17.869791666666668" y1="0" x2="17.869791666666668" y2="177" fill="rgb(0, 0, 0)" stroke="rgb(153, 153, 153)" stroke-width="1.5px"></line></g></g><g><g><g><g><g><path stroke="rgb(255, 112, 67)" stroke-width="2px" d="M18.763281250000002,174.99105089604853L19.656770833333333,174.97186029590665L20.550260416666664,174.8902414424991L21.44375,174.73903922227706L22.337239583333332,174.52976586702053L23.230729166666666,174.1940717158605L24.12421875,173.7337376653891L25.017708333333335,173.02231457241382L25.911197916666666,172.302118243871L26.8046875,171.56475233821246L27.698177083333334,170.64400075351347L28.59166666666667,169.42859544774726L29.48515625,168.36366573334843L30.378645833333334,167.30451191822274L31.272135416666668,166.18127747469774L32.165625,165.04146538475374L33.05911458333333,163.7370826360472L33.95260416666667,162.3768647742716L34.84609375,161.0165927951L35.739583333333336,159.09527907893397L36.63307291666666,157.33654682678159L37.526562500000004,155.71280157574188L38.42005208333334,154.13285138283484L39.313541666666666,152.33518644444567L40.20703125,150.45095578628803L41.10052083333333,148.42821271843863L41.99401041666667,146.49542609180332L42.8875,144.50713855192782L43.78098958333333,142.8056291805741L44.674479166666664,141.23628972925837L45.567968750000006,139.76803789784657L46.46145833333333,138.08098604395346L47.35494791666667,136.4503742328333L48.2484375,134.972709801242L49.14192708333333,133.61849022232764L50.03541666666667,132.2008180062176L50.92890625,130.7851642890701L51.82239583333333,129.27985081137138L52.715885416666666,128.01412880055793L53.609375,126.79520696496554L54.502864583333334,125.58330035646269L55.39635416666667,124.4654451140717L56.289843749999996,123.32051726599984L57.18333333333334,122.22727041356968L58.07682291666667,121.22950158533934L58.9703125,120.14962740424981L59.86380208333333,118.87607779190373L60.75729166666667,117.48015115785701L61.65078125,116.18489125922429L62.544270833333336,114.98784443946765L63.43776041666666,113.89107276207922L64.33125,112.74373489621969L65.22473958333333,111.69063549520604L66.11822916666667,110.72144768882904L67.01171875,109.79668124347342L67.90520833333333,108.9064097978434L68.79869791666667,108.06593582974422L69.6921875,107.2613186940344L70.58567708333332,106.36769538431115L71.47916666666667,105.50134087269747L72.37265625,104.57330385127804L73.26614583333333,103.422585726256L74.15963541666667,102.34448549656558L75.05312500000001,101.40869541948135L75.94661458333333,100.5144648837155L76.84010416666668,99.6786839763585L77.73359375,98.6522727060475L78.62708333333333,97.6252652065848L79.52057291666667,96.68519261103242L80.4140625,95.52336721671443L81.30755208333333,94.47396278293624L82.20104166666665,93.35670689172562L83.09453125,92.45709258453256L83.98802083333334,91.52858205995686L84.88151041666666,90.64445143438415L85.775,89.43204600392005L86.66848958333333,88.44207423674L87.56197916666666,87.7081187578853L88.45546875000001,86.72043669777014L89.34895833333333,85.84044485900937L90.24244791666666,85.039784433926L91.13593750000001,84.4528417470961L92.02942708333333,83.92282913702186L92.92291666666667,83.44632507191572L93.81640625,82.88772214428468L94.70989583333333,82.43485730752876L95.60338541666667,81.8416001061531L96.496875,81.13544659256527L97.39036458333334,80.5735140278315L98.28385416666666,80.05473585810515L99.17734375,79.5066209595576L100.07083333333334,78.9649229074225L100.96432291666666,78.3495410921994L101.8578125,77.79624928372044L102.75130208333334,77.08891320310197L103.64479166666666,76.38585909534785L104.53828125,75.75502190070924L105.43177083333333,75.14893802331433L106.32526041666667,74.21045215801327L107.21875,73.13263385102704L108.11223958333333,72.24793436768981L109.00572916666667,71.46063484813769L109.89921874999999,70.73865919629337L110.79270833333334,70.02245187830685L111.68619791666667,69.26517567558147L112.57968749999999,68.38630343868171L113.47317708333334,67.73118416186475L114.36666666666667,67.23686755011266L115.26015625,66.83443448608986L116.15364583333334,66.40667884031457L117.04713541666666,65.98587590026571L117.940625,65.52525099139042L118.83411458333335,65.0876189578809L119.72760416666667,64.62904670174349L120.62109375,64.21431776365891L121.51458333333333,63.72037701178347L122.40807291666667,63.31285049419852L123.3015625,63.00601911962777L124.19505208333332,62.685464550380374L125.08854166666667,62.36786787946491L125.98203124999999,61.879737711187985L126.87552083333333,61.45033353223609L127.76901041666667,60.860532369936756L128.6625,60.35125863833741L129.55598958333334,59.735128123065905L130.44947916666666,59.08205863624875L131.34296875,57.946211800516025L132.23645833333333,56.955957301581115L133.12994791666665,56.197672633006704L134.0234375,55.49179593066844L134.91692708333332,54.79284399831577L135.81041666666667,54.10964316060712L136.70390625,53.491526763025334L137.59739583333334,53.146020936002415L138.49088541666669,52.88221327962287L139.384375,52.70000651062612L140.27786458333333,52.254954370147516L141.17135416666665,51.900718361310076L142.06484375,51.55689052234409L142.95833333333334,51.13790537291952L143.85182291666666,50.76844195231311L144.7453125,50.19910550418206L145.63880208333333,49.816156340257606L146.53229166666665,49.397770029673765L147.42578125,48.66587702653992L148.31927083333335,48.04870960129613L149.21276041666667,47.59409688599893L150.10625000000002,47.28016658716195L150.99973958333334,47.04161667759892L151.89322916666666,46.74102765164186L152.78671874999998,46.43490038896448L153.68020833333335,46.12048288217094L154.57369791666667,45.833989714568304L155.4671875,45.497381593576335L156.36067708333334,45.303443529481434L157.25416666666666,44.95164815561458L158.14765624999998,44.54609006510071L159.04114583333333,44.125110421573496L159.93463541666668,43.72132323503221L160.828125,43.358174044607445L161.72161458333335,43.022009990643504L162.61510416666667,42.81332216860711L163.50859375,42.62294550539172L164.4020833333333,42.50732162953089L165.29557291666669,42.308973283533284L166.1890625,42.16790593800782L167.08255208333333,41.62942116223479L167.97604166666667,40.93699160553637L168.86953125,40.40853434287087L169.76302083333331,40.0402572112237L170.6565104166667,39.70425173264468L171.55,39.43286004913882L172.44348958333333,39.12276431353711L173.33697916666665,38.9402059628476L174.23046875,38.70189914071016L175.12395833333332,38.481521843453976L176.01744791666667,38.35671564732837L176.91093750000002,38.2901400720766L177.80442708333334,38.18409883831091L178.69791666666666,38.12410506399958L179.59140625,37.99878527875241L180.48489583333333,37.82401878211197L181.37838541666665,37.54592752083124L182.27187500000002,37.05823779954898L183.16536458333334,36.64631200822823L184.05885416666666,36.39433868999861L184.95234374999998,36.162640446875L185.84583333333333,35.88546016958566L186.73932291666665,35.3293726441098L187.6328125,34.85781375627713L188.52630208333335,34.48175689495205L189.41979166666667,34.24992464015842L190.31328125,33.835786210477124L191.20677083333334,33.51467504202114L192.10026041666666,33.250945150248896L192.99375,33.072776465053956L193.88723958333335,32.99048318054412L194.78072916666667,32.92378759018262L195.67421875,32.66127026934434L196.56770833333331,32.38114224469069L197.46119791666666,31.988402708741443L198.3546875,31.123072124941583L199.24817708333333,30.19661654557192L200.14166666666668,29.421241195949328L201.03515625,28.978601825208905L201.92864583333332,28.08733155725689L202.82213541666667,27.414610273827893L203.715625,26.98494532417642L204.60911458333334,26.728218939968293L205.50260416666669,26.356632861535772L206.39609375,26.119271642590146L207.28958333333333,25.954321822300326L208.18307291666665,25.506831949219L209.0765625,24.968714626589346L209.97005208333334,23.942386341070524L210.86354166666666,23.247569704041123L211.75703125,22.76636854528503L212.65052083333333,22.398267725223995L213.54401041666665,22.256980775067053L214.4375,22.167127010982526L215.33098958333335,22.1058912788399L216.22447916666667,21.96713112560318L217.11796875000002,20.65589641670828L218.01145833333334,19.278547769429988L218.90494791666666,18.362419434572892L219.79843749999998,17.730012676826515L220.69192708333335,17.314804047174103L221.58541666666667,16.997569684879096L222.47890625,16.444035764155462L223.37239583333334,15.893881621132929L224.26588541666666,15.551990693909303L225.15937499999998,15.117190947593691L226.05286458333333,14.69344513324588L226.94635416666668,14.426256284163525L227.83984375,14.27228177967435L228.73333333333335,14.200979537861137L229.62682291666667,14.18323691195048L230.5203125,14.176116802130883L231.4138020833333,14.12680493344947L232.30729166666669,14.061725779474253L233.20078125,14.00355637198716L234.09427083333333,14.07269552902003L234.98776041666667,13.91597927424679L235.88125,13.821958313067995L236.77473958333331,13.84195427160279L237.6682291666667,13.945701872472862L238.56171875,13.98285896370705L239.45520833333333,14.061235377728327L240.34869791666665,14.007833807193848L241.2421875,13.151959220483072L242.13567708333332,12.382376639791843L243.02916666666667,11.786764893977953L243.92265625000002,11.313655312090603L244.81614583333334,10.952739234703479L245.70963541666666,10.647208943329872L246.603125,10.468233860947262L247.49661458333333,10.287112948547337L248.39010416666665,10.170897135287854L249.28359375000002,10.20116427370929L250.17708333333334,10.266931531602328" style="fill: none;" fill="none"></path></g><g><path stroke="rgb(0, 119, 187)" stroke-width="2px" d="M17.869791666666668,174.98013821691274L26.8046875,172.15243007317184L35.739583333333336,164.01138853941643L44.674479166666664,152.45783324970265L53.609375,140.52962846472644L62.544270833333336,129.05672553996413L71.47916666666667,118.82311382226739L80.4140625,108.63094806326848L89.34895833333333,98.88485862741139L98.28385416666666,90.9915995942153L107.21875,83.16984174068644L116.15364583333334,76.1912641372024L125.08854166666667,70.45844449321193L134.0234375,64.041507297317L142.95833333333334,58.62615559590241L151.89322916666666,53.690173882545274L160.828125,49.337639942194855L169.76302083333331,45.394638655821446L178.69791666666666,42.450653977446905L187.6328125,39.129872100330516L196.56770833333331,36.25845992866048L205.50260416666669,32.07423883863936L214.4375,28.057124832413695L223.37239583333334,22.85954767944959L232.30729166666669,19.297431416633575L241.2421875,16.314046130903225L250.17708333333334,13.933181206028772" style="fill: none;" fill="none"></path></g></g></g></g><g opacity="0.2"><g><g><g><path stroke="rgb(255, 112, 67)" stroke-width="2px" d="M18.763281250000002,174.99105089604853L19.656770833333333,174.96034593582155L20.550260416666664,174.81188734322788L21.44375,174.5612254112959L22.337239583333332,174.25653857439755L23.230729166666666,173.72968585491182L24.12421875,173.07545260787012L25.017708333333335,171.9850528731942L25.911197916666666,171.23996855020522L26.8046875,170.46984990388154L27.698177083333334,169.27122452557086L28.59166666666667,167.61210167109965L29.48515625,166.7697483420372L30.378645833333334,165.71785618811845L31.272135416666668,164.49774612933396L32.165625,163.33255113363265L33.05911458333333,161.78106048405172L33.95260416666667,160.33688334077598L34.84609375,158.97639205008747L35.739583333333336,156.21348412036897L36.63307291666666,154.6985449016094L37.526562500000004,153.27723712921144L38.42005208333334,151.76295728683473L39.313541666666666,149.63871033191683L40.20703125,147.62462319135665L41.10052083333333,145.3941067427397L41.99401041666667,143.59625109732153L42.8875,141.52471029460432L43.78098958333333,140.25336669087412L44.674479166666664,138.8822814196348L45.567968750000006,137.56566063761713L46.46145833333333,135.55040859878065L47.35494791666667,134.00445671081545L48.2484375,132.75621325969695L49.14192708333333,131.58716091215612L50.03541666666667,130.07430971860887L50.92890625,128.66168373525142L51.82239583333333,127.02188060879708L52.715885416666666,126.11554579138758L53.609375,124.96682421565056L54.502864583333334,123.76544044613838L55.39635416666667,122.78866225183012L56.289843749999996,121.60312549471855L57.18333333333334,120.58740013539793L58.07682291666667,119.73284834325315L58.9703125,118.5298161327839L59.86380208333333,116.96575337350369L60.75729166666667,115.38626120686531L61.65078125,114.24200141131878L62.544270833333336,113.19227420985699L63.43776041666666,112.24591524600983L64.33125,111.02272809743882L65.22473958333333,110.11098639369011L66.11822916666667,109.26766597926617L67.01171875,108.40953157544136L67.90520833333333,107.5710026293993L68.79869791666667,106.8052248775959L69.6921875,106.05439299046994L70.58567708333332,105.02726041972637L71.47916666666667,104.20180910527706L72.37265625,103.18124831914903L73.26614583333333,101.696508538723L74.15963541666667,100.72733515203L75.05312500000001,100.00501030385495L75.94661458333333,99.17311908006668L76.84010416666668,98.42501261532307L77.73359375,97.11265580058098L78.62708333333333,96.08475395739079L79.52057291666667,95.27508371770382L80.4140625,93.78062912523747L81.30755208333333,92.89985613226892L82.20104166666665,91.68082305490971L83.09453125,91.10767112374307L83.98802083333334,90.13581627309324L84.88151041666666,89.3182554960251L85.775,87.61343785822393L86.66848958333333,86.95711658596993L87.56197916666666,86.60718553960324L88.45546875000001,85.23891360759735L89.34895833333333,84.52045710086823L90.24244791666666,83.83879379630089L91.13593750000001,83.57242771685124L92.02942708333333,83.12781022191048L92.92291666666667,82.73156897425652L93.81640625,82.04981775283815L94.70989583333333,81.75556005239487L95.60338541666667,80.95171430408955L96.496875,80.07621632218361L97.39036458333334,79.73061518073082L98.28385416666666,79.27656860351563L99.17734375,78.6844486117363L100.07083333333334,78.15237582921984L100.96432291666666,77.42646836936476L101.8578125,76.96631157100201L102.75130208333334,76.0279090821743L103.64479166666666,75.33127793371678L104.53828125,74.8087661087513L105.43177083333333,74.23981220722199L106.32526041666667,72.80272336006166L107.21875,71.51590639054776L108.11223958333333,70.92088514268399L109.00572916666667,70.27968556880953L109.89921874999999,69.65569571852684L110.79270833333334,68.94814090132715L111.68619791666667,68.12926137149336L112.57968749999999,67.06799508333208L113.47317708333334,66.74850524663925L114.36666666666667,66.49539263248445L115.26015625,66.23078489005567L116.15364583333334,65.76504537165165L117.04713541666666,65.35467149019243L117.940625,64.83431362807751L118.83411458333335,64.43117090761662L119.72760416666667,63.94118831753731L120.62109375,63.592224356532114L121.51458333333333,62.97946588397028L122.40807291666667,62.701560717821124L123.3015625,62.54577205777169L124.19505208333332,62.20463269650938L125.08854166666667,61.89147287309171L125.98203124999999,61.14754245877268L126.87552083333333,60.80622726380827L127.76901041666667,59.975830626487756L128.6625,59.58734804093839L129.55598958333334,58.8109323501587L130.44947916666666,58.10245440602304L131.34296875,56.242441546916986L132.23645833333333,55.47057555317881L133.12994791666665,55.0602456301451L134.0234375,54.43298087716105L134.91692708333332,53.74441609978677L135.81041666666667,53.08484190404416L136.70390625,52.5643521666527L137.59739583333334,52.62776219546796L138.49088541666669,52.486501795053506L139.384375,52.42669635713103L140.27786458333333,51.587376159429574L141.17135416666665,51.36936434805395L142.06484375,51.04114876389506L142.95833333333334,50.509427648782754L143.85182291666666,50.21424682140351L144.7453125,49.3451008319855L145.63880208333333,49.24173259437085L146.53229166666665,48.770190563797975L147.42578125,47.56803752183915L148.31927083333335,47.122958463430415L149.21276041666667,46.91217781305315L150.10625000000002,46.8092711389065L150.99973958333334,46.68379181325438L151.89322916666666,46.29014411270621L152.78671874999998,45.9757094949484L153.68020833333335,45.64885662198068L154.57369791666667,45.40424996316435L155.4671875,44.99246941208841L156.36067708333334,45.01253643333914L157.25416666666666,44.42395509481432L158.14765624999998,43.937752929329896L159.04114583333333,43.49364095628263L159.93463541666668,43.11564245522025L160.828125,42.813450258970285L161.72161458333335,42.51776390969755L162.61510416666667,42.500290435552614L163.50859375,42.33738051056864L164.4020833333333,42.333885815739656L165.29557291666669,42.01145076453688L166.1890625,41.95630491971971L167.08255208333333,40.82169399857522L167.97604166666667,39.89834727048876L168.86953125,39.61584844887258L169.76302083333331,39.48784151375295L170.6565104166667,39.20024351477625L171.55,39.02577252388002L172.44348958333333,38.657620710134516L173.33697916666665,38.66636843681338L174.23046875,38.3444389075041L175.12395833333332,38.150955897569666L176.01744791666667,38.169506353139894L176.91093750000002,38.19027670919897L177.80442708333334,38.02503698766233L178.69791666666666,38.03411440253259L179.59140625,37.810805600881594L180.48489583333333,37.56186903715135L181.37838541666665,37.128790628910075L182.27187500000002,36.32670321762564L183.16536458333334,36.02842332124711L184.05885416666666,36.01637871265413L184.95234374999998,35.815093082189584L185.84583333333333,35.469689753651636L186.73932291666665,34.495241355896006L187.6328125,34.15047542452814L188.52630208333335,33.917671602964425L189.41979166666667,33.90217625796797L190.31328125,33.214578565955186L191.20677083333334,33.03300828933717L192.10026041666666,32.85535031259062L192.99375,32.80552343726159L193.88723958333335,32.86704325377942L194.78072916666667,32.823744204640406L195.67421875,32.26749428808691L196.56770833333331,31.960950207710283L197.46119791666666,31.3992934048176L198.3546875,29.82507624924184L199.24817708333333,28.806933176517497L200.14166666666668,28.258178171515485L201.03515625,28.314642769098292L201.92864583333332,26.750426155328768L202.82213541666667,26.40552834868433L203.715625,26.34044789969923L204.60911458333334,26.34312936365606L205.50260416666669,25.799253743886958L206.39609375,25.76322981417181L207.28958333333333,25.706897091865557L208.18307291666665,24.835597139596956L209.0765625,24.161538642644903L209.97005208333334,22.402893912792223L210.86354166666666,22.205344748497026L211.75703125,22.04456680715085L212.65052083333333,21.846116495132463L213.54401041666665,22.045050349831598L214.4375,22.032346364855787L215.33098958333335,22.014037680625925L216.22447916666667,21.75899089574815L217.11796875000002,18.68904435336592L218.01145833333334,17.21252479851247L218.90494791666666,16.988226932287233L219.79843749999998,16.78140254020693L220.69192708333335,16.691991102695486L221.58541666666667,16.521718141436594L222.47890625,15.613734883070002L223.37239583333334,15.06865040659906L224.26588541666666,15.039154303073893L225.15937499999998,14.464991328120247L226.05286458333333,14.057826411724106L226.94635416666668,14.025473010540031L227.83984375,14.041320022940646L228.73333333333335,14.09402617514135L229.62682291666667,14.156622973084472L230.5203125,14.165436637401596L231.4138020833333,14.052837130427383L232.30729166666669,13.964107048511515L233.20078125,13.916302260756503L234.09427083333333,14.176404264569305L234.98776041666667,13.680904892086993L235.88125,13.680926871299759L236.77473958333331,13.87194820940496L237.6682291666667,14.101323273777972L238.56171875,14.038594600558303L239.45520833333333,14.178799998760233L240.34869791666665,13.927731451392189L241.2421875,11.868147340416918L242.13567708333332,11.228002768754981L243.02916666666667,10.893347275257126L243.92265625000002,10.603990939259539L244.81614583333334,10.411365118622802L245.70963541666666,10.188913506269465L246.603125,10.199771237373374L247.49661458333333,10.015431579947482L248.39010416666665,9.996573415398608L249.28359375000002,10.246564981341377L250.17708333333334,10.365582418441788" style="fill: none;" fill="none"></path></g><g><path stroke="rgb(0, 119, 187)" stroke-width="2px" d="M17.869791666666668,174.98013821691274L26.8046875,170.4558051869273L35.739583333333336,156.19598866701125L44.674479166666664,138.87085222899915L53.609375,124.95616429746153L62.544270833333336,113.18557054996492L71.47916666666667,104.18888532817364L80.4140625,93.77067254185677L89.34895833333333,84.51126978993418L98.28385416666666,79.27102984189987L107.21875,71.50814772844315L116.15364583333334,65.76137484312059L125.08854166666667,61.87793367803099L134.0234375,54.4286729514599L142.95833333333334,50.50949358642104L151.89322916666666,46.28968254923823L160.828125,42.81068087816241L169.76302083333331,39.48113785386087L178.69791666666666,38.0351254463196L187.6328125,34.14900281727315L196.56770833333331,31.951499146223078L205.50260416666669,25.798044887185117L214.4375,22.03153313398363L223.37239583333334,15.063243520259872L232.30729166666669,13.954282340407381L241.2421875,11.838980925083183L250.17708333333334,10.361889910697952" style="fill: none;" fill="none"></path></g></g></g></g></g></g><g transform="translate(61, 177)" clip-path="url(#clip_1)"><clipPath id="clip_1"><rect width="268" height="22"></rect></clipPath><g><g><line x1="0" y1="0" x2="0" y2="5" style="visibility: inherit;" fill="rgb(0, 0, 0)" stroke="rgb(204, 204, 204)" stroke-width="1px"></line><line x1="17.869791666666668" y1="0" x2="17.869791666666668" y2="5" style="visibility: inherit;" fill="rgb(0, 0, 0)" stroke="rgb(204, 204, 204)" stroke-width="1px"></line><line x1="35.739583333333336" y1="0" x2="35.739583333333336" y2="5" style="visibility: inherit;" fill="rgb(0, 0, 0)" stroke="rgb(204, 204, 204)" stroke-width="1px"></line><line x1="53.609375" y1="0" x2="53.609375" y2="5" style="visibility: inherit;" fill="rgb(0, 0, 0)" stroke="rgb(204, 204, 204)" stroke-width="1px"></line><line x1="71.47916666666667" y1="0" x2="71.47916666666667" y2="5" style="visibility: inherit;" fill="rgb(0, 0, 0)" stroke="rgb(204, 204, 204)" stroke-width="1px"></line><line x1="89.34895833333333" y1="0" x2="89.34895833333333" y2="5" style="visibility: inherit;" fill="rgb(0, 0, 0)" stroke="rgb(204, 204, 204)" stroke-width="1px"></line><line x1="107.21875" y1="0" x2="107.21875" y2="5" style="visibility: inherit;" fill="rgb(0, 0, 0)" stroke="rgb(204, 204, 204)" stroke-width="1px"></line><line x1="125.08854166666667" y1="0" x2="125.08854166666667" y2="5" style="visibility: inherit;" fill="rgb(0, 0, 0)" stroke="rgb(204, 204, 204)" stroke-width="1px"></line><line x1="142.95833333333334" y1="0" x2="142.95833333333334" y2="5" style="visibility: inherit;" fill="rgb(0, 0, 0)" stroke="rgb(204, 204, 204)" stroke-width="1px"></line><line x1="160.828125" y1="0" x2="160.828125" y2="5" style="visibility: inherit;" fill="rgb(0, 0, 0)" stroke="rgb(204, 204, 204)" stroke-width="1px"></line><line x1="178.69791666666666" y1="0" x2="178.69791666666666" y2="5" style="visibility: inherit;" fill="rgb(0, 0, 0)" stroke="rgb(204, 204, 204)" stroke-width="1px"></line><line x1="196.56770833333331" y1="0" x2="196.56770833333331" y2="5" style="visibility: inherit;" fill="rgb(0, 0, 0)" stroke="rgb(204, 204, 204)" stroke-width="1px"></line><line x1="214.4375" y1="0" x2="214.4375" y2="5" style="visibility: inherit;" fill="rgb(0, 0, 0)" stroke="rgb(204, 204, 204)" stroke-width="1px"></line><line x1="232.30729166666669" y1="0" x2="232.30729166666669" y2="5" style="visibility: inherit;" fill="rgb(0, 0, 0)" stroke="rgb(204, 204, 204)" stroke-width="1px"></line><line x1="250.17708333333334" y1="0" x2="250.17708333333334" y2="5" style="visibility: inherit;" fill="rgb(0, 0, 0)" stroke="rgb(204, 204, 204)" stroke-width="1px"></line><line x1="268.046875" y1="0" x2="268.046875" y2="5" style="visibility: inherit;" fill="rgb(0, 0, 0)" stroke="rgb(204, 204, 204)" stroke-width="1px"></line></g><g transform="translate(0, 8)"><text x="0" y="0" dx="0em" dy="0.95em" style="text-anchor: middle; visibility: hidden; font-family: Roboto, sans-serif; font-size: 12px; font-weight: 200;" fill="rgb(255, 255, 255)" stroke="none" stroke-width="1px">-2k</text><text x="17.869791666666668" y="0" dx="0em" dy="0.95em" style="text-anchor: middle; visibility: inherit; font-family: Roboto, sans-serif; font-size: 12px; font-weight: 200;" fill="rgb(255, 255, 255)" stroke="none" stroke-width="1px">0</text><text x="35.739583333333336" y="0" dx="0em" dy="0.95em" style="text-anchor: middle; visibility: hidden; font-family: Roboto, sans-serif; font-size: 12px; font-weight: 200;" fill="rgb(255, 255, 255)" stroke="none" stroke-width="1px">2k</text><text x="53.609375" y="0" dx="0em" dy="0.95em" style="text-anchor: middle; visibility: inherit; font-family: Roboto, sans-serif; font-size: 12px; font-weight: 200;" fill="rgb(255, 255, 255)" stroke="none" stroke-width="1px">4k</text><text x="71.47916666666667" y="0" dx="0em" dy="0.95em" style="text-anchor: middle; visibility: hidden; font-family: Roboto, sans-serif; font-size: 12px; font-weight: 200;" fill="rgb(255, 255, 255)" stroke="none" stroke-width="1px">6k</text><text x="89.34895833333333" y="0" dx="0em" dy="0.95em" style="text-anchor: middle; visibility: inherit; font-family: Roboto, sans-serif; font-size: 12px; font-weight: 200;" fill="rgb(255, 255, 255)" stroke="none" stroke-width="1px">8k</text><text x="107.21875" y="0" dx="0em" dy="0.95em" style="text-anchor: middle; visibility: hidden; font-family: Roboto, sans-serif; font-size: 12px; font-weight: 200;" fill="rgb(255, 255, 255)" stroke="none" stroke-width="1px">10k</text><text x="125.08854166666667" y="0" dx="0em" dy="0.95em" style="text-anchor: middle; visibility: inherit; font-family: Roboto, sans-serif; font-size: 12px; font-weight: 200;" fill="rgb(255, 255, 255)" stroke="none" stroke-width="1px">12k</text><text x="142.95833333333334" y="0" dx="0em" dy="0.95em" style="text-anchor: middle; visibility: hidden; font-family: Roboto, sans-serif; font-size: 12px; font-weight: 200;" fill="rgb(255, 255, 255)" stroke="none" stroke-width="1px">14k</text><text x="160.828125" y="0" dx="0em" dy="0.95em" style="text-anchor: middle; visibility: inherit; font-family: Roboto, sans-serif; font-size: 12px; font-weight: 200;" fill="rgb(255, 255, 255)" stroke="none" stroke-width="1px">16k</text><text x="178.69791666666666" y="0" dx="0em" dy="0.95em" style="text-anchor: middle; visibility: hidden; font-family: Roboto, sans-serif; font-size: 12px; font-weight: 200;" fill="rgb(255, 255, 255)" stroke="none" stroke-width="1px">18k</text><text x="196.56770833333331" y="0" dx="0em" dy="0.95em" style="text-anchor: middle; visibility: inherit; font-family: Roboto, sans-serif; font-size: 12px; font-weight: 200;" fill="rgb(255, 255, 255)" stroke="none" stroke-width="1px">20k</text><text x="214.4375" y="0" dx="0em" dy="0.95em" style="text-anchor: middle; visibility: hidden; font-family: Roboto, sans-serif; font-size: 12px; font-weight: 200;" fill="rgb(255, 255, 255)" stroke="none" stroke-width="1px">22k</text><text x="232.30729166666669" y="0" dx="0em" dy="0.95em" style="text-anchor: middle; visibility: inherit; font-family: Roboto, sans-serif; font-size: 12px; font-weight: 200;" fill="rgb(255, 255, 255)" stroke="none" stroke-width="1px">24k</text><text x="250.17708333333334" y="0" dx="0em" dy="0.95em" style="text-anchor: middle; visibility: hidden; font-family: Roboto, sans-serif; font-size: 12px; font-weight: 200;" fill="rgb(255, 255, 255)" stroke="none" stroke-width="1px">26k</text><text x="268.046875" y="0" dx="0em" dy="0.95em" style="text-anchor: middle; visibility: hidden; font-family: Roboto, sans-serif; font-size: 12px; font-weight: 200;" fill="rgb(255, 255, 255)" stroke="none" stroke-width="1px">28k</text></g><line x1="0" y1="0" x2="268.046875" y2="0" fill="rgb(0, 0, 0)" stroke="rgb(204, 204, 204)" stroke-width="1px"></line></g></g></g></g></svg>