<svg viewBox="0 0 330 200" xmlns="http://www.w3.org/2000/svg"><g><g><g><g><g><line x1="41.171875" y1="177" x2="36.171875" y2="177" style="visibility: inherit;" fill="rgb(0, 0, 0)" stroke="rgb(204, 204, 204)" stroke-width="1px"></line><line x1="41.171875" y1="160.9090909090909" x2="36.171875" y2="160.9090909090909" style="visibility: inherit;" fill="rgb(0, 0, 0)" stroke="rgb(204, 204, 204)" stroke-width="1px"></line><line x1="41.171875" y1="144.8181818181818" x2="36.171875" y2="144.8181818181818" style="visibility: inherit;" fill="rgb(0, 0, 0)" stroke="rgb(204, 204, 204)" stroke-width="1px"></line><line x1="41.171875" y1="128.72727272727272" x2="36.171875" y2="128.72727272727272" style="visibility: inherit;" fill="rgb(0, 0, 0)" stroke="rgb(204, 204, 204)" stroke-width="1px"></line><line x1="41.171875" y1="112.63636363636361" x2="36.171875" y2="112.63636363636361" style="visibility: inherit;" fill="rgb(0, 0, 0)" stroke="rgb(204, 204, 204)" stroke-width="1px"></line><line x1="41.171875" y1="96.54545454545453" x2="36.171875" y2="96.54545454545453" style="visibility: inherit;" fill="rgb(0, 0, 0)" stroke="rgb(204, 204, 204)" stroke-width="1px"></line><line x1="41.171875" y1="80.45454545454544" x2="36.171875" y2="80.45454545454544" style="visibility: inherit;" fill="rgb(0, 0, 0)" stroke="rgb(204, 204, 204)" stroke-width="1px"></line><line x1="41.171875" y1="64.36363636363635" x2="36.171875" y2="64.36363636363635" style="visibility: inherit;" fill="rgb(0, 0, 0)" stroke="rgb(204, 204, 204)" stroke-width="1px"></line><line x1="41.171875" y1="48.27272727272725" x2="36.171875" y2="48.27272727272725" style="visibility: inherit;" fill="rgb(0, 0, 0)" stroke="rgb(204, 204, 204)" stroke-width="1px"></line><line x1="41.171875" y1="32.18181818181815" x2="36.171875" y2="32.18181818181815" style="visibility: inherit;" fill="rgb(0, 0, 0)" stroke="rgb(204, 204, 204)" stroke-width="1px"></line><line x1="41.171875" y1="16.090909090909076" x2="36.171875" y2="16.090909090909076" style="visibility: inherit;" fill="rgb(0, 0, 0)" stroke="rgb(204, 204, 204)" stroke-width="1px"></line><line x1="41.171875" y1="0" x2="36.171875" y2="0" style="visibility: inherit;" fill="rgb(0, 0, 0)" stroke="rgb(204, 204, 204)" stroke-width="1px"></line></g><g transform="translate(31.171875, 0)"><text x="0" y="177" dx="0em" dy="0.3em" style="text-anchor: end; visibility: hidden; font-family: Roboto, sans-serif; font-size: 12px; font-weight: 200;" fill="rgb(255, 255, 255)" stroke="none" stroke-width="1px">0.1</text><text x="0" y="160.9090909090909" dx="0em" dy="0.3em" style="text-anchor: end; visibility: inherit; font-family: Roboto, sans-serif; font-size: 12px; font-weight: 200;" fill="rgb(255, 255, 255)" stroke="none" stroke-width="1px">0.2</text><text x="0" y="144.8181818181818" dx="0em" dy="0.3em" style="text-anchor: end; visibility: hidden; font-family: Roboto, sans-serif; font-size: 12px; font-weight: 200;" fill="rgb(255, 255, 255)" stroke="none" stroke-width="1px">0.3</text><text x="0" y="128.72727272727272" dx="0em" dy="0.3em" style="text-anchor: end; visibility: inherit; font-family: Roboto, sans-serif; font-size: 12px; font-weight: 200;" fill="rgb(255, 255, 255)" stroke="none" stroke-width="1px">0.4</text><text x="0" y="112.63636363636361" dx="0em" dy="0.3em" style="text-anchor: end; visibility: hidden; font-family: Roboto, sans-serif; font-size: 12px; font-weight: 200;" fill="rgb(255, 255, 255)" stroke="none" stroke-width="1px">0.5</text><text x="0" y="96.54545454545453" dx="0em" dy="0.3em" style="text-anchor: end; visibility: inherit; font-family: Roboto, sans-serif; font-size: 12px; font-weight: 200;" fill="rgb(255, 255, 255)" stroke="none" stroke-width="1px">0.6</text><text x="0" y="80.45454545454544" dx="0em" dy="0.3em" style="text-anchor: end; visibility: hidden; font-family: Roboto, sans-serif; font-size: 12px; font-weight: 200;" fill="rgb(255, 255, 255)" stroke="none" stroke-width="1px">0.7</text><text x="0" y="64.36363636363635" dx="0em" dy="0.3em" style="text-anchor: end; visibility: inherit; font-family: Roboto, sans-serif; font-size: 12px; font-weight: 200;" fill="rgb(255, 255, 255)" stroke="none" stroke-width="1px">0.8</text><text x="0" y="48.27272727272725" dx="0em" dy="0.3em" style="text-anchor: end; visibility: hidden; font-family: Roboto, sans-serif; font-size: 12px; font-weight: 200;" fill="rgb(255, 255, 255)" stroke="none" stroke-width="1px">0.9</text><text x="0" y="32.18181818181815" dx="0em" dy="0.3em" style="text-anchor: end; visibility: inherit; font-family: Roboto, sans-serif; font-size: 12px; font-weight: 200;" fill="rgb(255, 255, 255)" stroke="none" stroke-width="1px">1</text><text x="0" y="16.090909090909076" dx="0em" dy="0.3em" style="text-anchor: end; visibility: hidden; font-family: Roboto, sans-serif; font-size: 12px; font-weight: 200;" fill="rgb(255, 255, 255)" stroke="none" stroke-width="1px">1.1</text><text x="0" y="0" dx="0em" dy="0.3em" style="text-anchor: end; visibility: hidden; font-family: Roboto, sans-serif; font-size: 12px; font-weight: 200;" fill="rgb(255, 255, 255)" stroke="none" stroke-width="1px">1.2</text></g><line x1="41.171875" y1="0" x2="41.171875" y2="177" fill="rgb(0, 0, 0)" stroke="rgb(204, 204, 204)" stroke-width="1px"></line></g></g><g transform="translate(41, 0)" clip-path="url(#clip_0)"><clipPath id="clip_0"><rect width="288" height="176"></rect></clipPath><g><g><g><line x1="0" y1="0" x2="0" y2="177" fill="rgb(0, 0, 0)" stroke="rgb(189, 189, 189)" stroke-width="1px" opacity="0.25"></line><line x1="19.255208333333332" y1="0" x2="19.255208333333332" y2="177" fill="rgb(0, 0, 0)" stroke="rgb(189, 189, 189)" stroke-width="1px" opacity="0.25"></line><line x1="38.510416666666664" y1="0" x2="38.510416666666664" y2="177" fill="rgb(0, 0, 0)" stroke="rgb(189, 189, 189)" stroke-width="1px" opacity="0.25"></line><line x1="57.765625" y1="0" x2="57.765625" y2="177" fill="rgb(0, 0, 0)" stroke="rgb(189, 189, 189)" stroke-width="1px" opacity="0.25"></line><line x1="77.02083333333333" y1="0" x2="77.02083333333333" y2="177" fill="rgb(0, 0, 0)" stroke="rgb(189, 189, 189)" stroke-width="1px" opacity="0.25"></line><line x1="96.27604166666666" y1="0" x2="96.27604166666666" y2="177" fill="rgb(0, 0, 0)" stroke="rgb(189, 189, 189)" stroke-width="1px" opacity="0.25"></line><line x1="115.53125" y1="0" x2="115.53125" y2="177" fill="rgb(0, 0, 0)" stroke="rgb(189, 189, 189)" stroke-width="1px" opacity="0.25"></line><line x1="134.78645833333334" y1="0" x2="134.78645833333334" y2="177" fill="rgb(0, 0, 0)" stroke="rgb(189, 189, 189)" stroke-width="1px" opacity="0.25"></line><line x1="154.04166666666666" y1="0" x2="154.04166666666666" y2="177" fill="rgb(0, 0, 0)" stroke="rgb(189, 189, 189)" stroke-width="1px" opacity="0.25"></line><line x1="173.296875" y1="0" x2="173.296875" y2="177" fill="rgb(0, 0, 0)" stroke="rgb(189, 189, 189)" stroke-width="1px" opacity="0.25"></line><line x1="192.55208333333331" y1="0" x2="192.55208333333331" y2="177" fill="rgb(0, 0, 0)" stroke="rgb(189, 189, 189)" stroke-width="1px" opacity="0.25"></line><line x1="211.80729166666666" y1="0" x2="211.80729166666666" y2="177" fill="rgb(0, 0, 0)" stroke="rgb(189, 189, 189)" stroke-width="1px" opacity="0.25"></line><line x1="231.0625" y1="0" x2="231.0625" y2="177" fill="rgb(0, 0, 0)" stroke="rgb(189, 189, 189)" stroke-width="1px" opacity="0.25"></line><line x1="250.31770833333334" y1="0" x2="250.31770833333334" y2="177" fill="rgb(0, 0, 0)" stroke="rgb(189, 189, 189)" stroke-width="1px" opacity="0.25"></line><line x1="269.5729166666667" y1="0" x2="269.5729166666667" y2="177" fill="rgb(0, 0, 0)" stroke="rgb(189, 189, 189)" stroke-width="1px" opacity="0.25"></line><line x1="288.828125" y1="0" x2="288.828125" y2="177" fill="rgb(0, 0, 0)" stroke="rgb(189, 189, 189)" stroke-width="1px" opacity="0.25"></line></g><g><line x1="0" y1="177" x2="288.828125" y2="177" fill="rgb(0, 0, 0)" stroke="rgb(189, 189, 189)" stroke-width="1px" opacity="0.25"></line><line x1="0" y1="160.9090909090909" x2="288.828125" y2="160.9090909090909" fill="rgb(0, 0, 0)" stroke="rgb(189, 189, 189)" stroke-width="1px" opacity="0.25"></line><line x1="0" y1="144.8181818181818" x2="288.828125" y2="144.8181818181818" fill="rgb(0, 0, 0)" stroke="rgb(189, 189, 189)" stroke-width="1px" opacity="0.25"></line><line x1="0" y1="128.72727272727272" x2="288.828125" y2="128.72727272727272" fill="rgb(0, 0, 0)" stroke="rgb(189, 189, 189)" stroke-width="1px" opacity="0.25"></line><line x1="0" y1="112.63636363636361" x2="288.828125" y2="112.63636363636361" fill="rgb(0, 0, 0)" stroke="rgb(189, 189, 189)" stroke-width="1px" opacity="0.25"></line><line x1="0" y1="96.54545454545453" x2="288.828125" y2="96.54545454545453" fill="rgb(0, 0, 0)" stroke="rgb(189, 189, 189)" stroke-width="1px" opacity="0.25"></line><line x1="0" y1="80.45454545454544" x2="288.828125" y2="80.45454545454544" fill="rgb(0, 0, 0)" stroke="rgb(189, 189, 189)" stroke-width="1px" opacity="0.25"></line><line x1="0" y1="64.36363636363635" x2="288.828125" y2="64.36363636363635" fill="rgb(0, 0, 0)" stroke="rgb(189, 189, 189)" stroke-width="1px" opacity="0.25"></line><line x1="0" y1="48.27272727272725" x2="288.828125" y2="48.27272727272725" fill="rgb(0, 0, 0)" stroke="rgb(189, 189, 189)" stroke-width="1px" opacity="0.25"></line><line x1="0" y1="32.18181818181815" x2="288.828125" y2="32.18181818181815" fill="rgb(0, 0, 0)" stroke="rgb(189, 189, 189)" stroke-width="1px" opacity="0.25"></line><line x1="0" y1="16.090909090909076" x2="288.828125" y2="16.090909090909076" fill="rgb(0, 0, 0)" stroke="rgb(189, 189, 189)" stroke-width="1px" opacity="0.25"></line><line x1="0" y1="0" x2="288.828125" y2="0" fill="rgb(0, 0, 0)" stroke="rgb(189, 189, 189)" stroke-width="1px" opacity="0.25"></line></g></g></g><g><g><line x1="0" y1="193.09090909090907" x2="288.828125" y2="193.09090909090907" fill="rgb(0, 0, 0)" stroke="rgb(153, 153, 153)" stroke-width="1.5px"></line></g></g><g><g><line x1="19.255208333333332" y1="0" x2="19.255208333333332" y2="177" fill="rgb(0, 0, 0)" stroke="rgb(153, 153, 153)" stroke-width="1.5px"></line></g></g><g><g><g><g><g><path stroke="rgb(255, 112, 67)" stroke-width="2px" d="M20.21796875,11.158482183109632L21.180729166666666,37.87175562029534L22.14348958333333,64.46388216496395L23.10625,74.6595937375796L24.069010416666664,93.32852674106657L25.031770833333333,96.20987859720883L25.994531249999998,96.99147690408324L26.957291666666666,101.75724874798661L27.92005208333333,102.39824018840939L28.8828125,100.94916548521658L29.845572916666665,111.40586993478612L30.808333333333334,112.84993403646624L31.77109375,115.77596038653319L32.73385416666667,125.38292465093627L33.696614583333336,118.3533640632364L34.659375,121.32997525466304L35.622135416666666,125.22915801378917L36.584895833333334,130.28661941285733L37.54765625,129.4327937256818L38.510416666666664,133.7082702551771L39.47317708333333,128.7715122610805L40.4359375,126.94089343067388L41.39869791666667,121.70456752379198L42.36145833333333,126.6871346798896L43.32421875,126.34394635383202L44.28697916666666,127.07149769623136L45.24973958333334,116.92645977678328L46.2125,111.41732820089788L47.17526041666667,126.23988055396045L48.13802083333333,129.11200311134428L49.100781250000004,134.87099783833517L50.063541666666666,135.30433818915768L51.026302083333334,131.15997455780402L51.989062499999996,128.99824540539706L52.951822916666664,136.7378966968214L53.91458333333333,139.241553994397L54.87734375,139.41388353195288L55.84010416666666,135.923274257742L56.80286458333333,136.74666502705722L57.765625,147.09790838657872L58.72838541666667,143.8768530830047L59.69114583333333,144.22957912368472L60.65390625,129.80439026595528L61.61666666666667,131.78543521625804L62.579427083333336,139.77744152753257L63.5421875,128.59454281298062L64.50494791666667,127.39846957529814L65.46770833333333,133.3860111220889L66.43046875,136.13426573402865L67.39322916666667,139.65307564987458L68.35598958333333,137.26535453686364L69.31875,139.00792941894915L70.28151041666668,142.63133580897414L71.24427083333333,146.13341259174052L72.20703125,140.54576033642675L73.16979166666667,143.22816527605085L74.13255208333332,153.65622787038015L75.0953125,151.47927607620534L76.05807291666666,152.17151800435926L77.02083333333333,153.4264837948104L77.98359375000001,153.65820585773113L78.94635416666667,149.77858317220364L79.90911458333333,150.6372039705871L80.871875,153.30935245044634L81.83463541666667,145.40522343145912L82.79739583333334,150.63349520320142L83.76015625,147.63789345063887L84.72291666666666,149.9020511440902L85.68567708333335,152.0654069480959L86.6484375,131.81988585902502L87.61119791666667,135.27967362731465L88.57395833333332,144.93284360193528L89.53671875,145.04497908887888L90.49947916666667,144.8435800903027L91.46223958333333,150.06663380732772L92.425,152.07853544374868L93.38776041666667,147.27532977994258L94.35052083333333,151.23319768499013L95.31328125,153.49993415610217L96.27604166666666,154.22877396957358L97.23880208333334,151.88959496670367L98.20156250000001,156.91490179733117L99.16432291666666,157.24077975576165L100.12708333333333,154.05097610846187L101.08984375,148.5527143121011L102.05260416666667,149.74801103224925L103.01536458333334,156.28602566256106L103.97812499999999,160.15873334476828L104.94088541666667,162.2267817499227L105.90364583333333,163.19397678733878L106.86640625,167.89675475758378L107.82916666666667,163.19349309727426L108.79192708333333,165.44905938136233L109.7546875,160.96966980137833L110.71744791666667,161.334472036699L111.68020833333333,163.2013167066864L112.64296875000001,158.97099705153383L113.60572916666666,157.22722384265901L114.56848958333333,156.52169110463439L115.53125,154.35760438385344L116.49401041666667,149.26253315284583L117.45677083333334,151.1240334929239L118.41953124999999,149.85287097060313L119.38229166666666,152.88579328092658L120.34505208333334,154.9705824047652L121.3078125,151.85223327058875L122.27057291666667,152.2067336937306L123.23333333333333,147.17443290247533L124.19609375,148.61332297749638L125.15885416666667,155.13685994294585L126.12161458333333,157.68066276659766L127.084375,159.70864692658304L128.04713541666666,160.98897541037002L129.00989583333333,159.07892566116223L129.97265625,140.1517245168617L130.93541666666667,145.55042242758077L131.89817708333334,155.49584426082188L132.8609375,157.37356159338472L133.82369791666667,159.38287685770356L134.78645833333334,158.701654022956L135.74921874999998,157.46612371998836L136.71197916666665,158.12990160312214L137.67473958333335,157.30676541696113L138.6375,161.19285390901095L139.60026041666666,163.55826803413456L140.56302083333335,161.8005240874083L141.52578125,163.72854928364808L142.48854166666666,155.6649960919375L143.45130208333333,159.81108175020705L144.4140625,158.50467952019204L145.37682291666667,154.63023989156622L146.33958333333334,158.31719451726192L147.30234375,158.8860287099469L148.26510416666665,155.8805370749304L149.22786458333334,160.510239889589L150.190625,160.97378666585348L151.15338541666665,162.72241901551718L152.11614583333332,163.49060529965993L153.07890625000002,159.50379941977545L154.04166666666666,159.08697543430998L155.00442708333333,160.99004560859387L155.96718750000002,160.41657208402873L156.92994791666666,151.31164121898692L157.89270833333333,149.78286459608483L158.85546875,151.82337309349649L159.81822916666667,153.6894178150566L160.78098958333334,157.77137864688953L161.74375,156.30964180320996L162.70651041666667,163.97300037817277L163.66927083333334,165.08325637461775L164.63203124999998,162.7781343502903L165.59479166666668,156.76793652271218L166.55755208333332,158.2926628364459L167.5203125,160.95528818101607L168.48307291666669,163.73704966211326L169.44583333333333,158.3434930255977L170.40859375,143.74309388356124L171.3713541666667,150.87460880340439L172.33411458333333,160.78415327964822L173.296875,160.3140695944074L174.25963541666667,163.831170587112L175.22239583333334,153.96951256188828L176.18515625,161.47318362860454L177.14791666666665,160.81676784556254L178.11067708333334,164.64298381231728L179.0734375,165.25149822671173L180.03619791666665,166.14563773481876L180.99895833333335,162.1811309730449L181.96171875,164.9103534418335L182.92447916666666,167.43335795282178L183.88723958333335,165.74058501648219L184.85,167.19411461028207L185.81276041666666,164.9114419867777L186.77552083333333,162.5744809885026L187.73828125,160.74342872647375L188.70104166666667,165.10496899291994L189.6638020833333,168.87029519073332L190.6265625,169.91370204379007L191.58932291666667,172.6435112016788L192.55208333333331,169.75102202042285L193.51484375,165.87076176371778L194.47760416666668,165.93172046099613L195.44036458333332,162.4740276467256L196.40312500000002,161.44100988803112L197.36588541666666,156.63364320986696L198.32864583333333,160.72246557253357L199.29140625,160.76068532984652L200.25416666666666,165.45464907111534L201.21692708333333,163.8544533308202L202.1796875,166.63053798574964L203.14244791666667,165.00175734698036L204.10520833333334,168.9945880823416L205.06796874999998,169.40719023283995L206.03072916666667,163.829959625712L206.99348958333334,170.48958785706327L207.95624999999998,165.50319920188147L208.91901041666668,168.86440710493952L209.88177083333335,166.52837302736765L210.84453125,166.95332874329284L211.80729166666666,163.0985362584945L212.77005208333335,165.94294701062074L213.7328125,160.16613955414658L214.69557291666666,160.58465954513986L215.65833333333333,163.0904388272589L216.62109375,160.72823250771697L217.58385416666667,160.413914488279L218.54661458333334,154.79801441277996L219.509375,159.54397722347503L220.47213541666665,159.81717399732804L221.43489583333334,162.37206755320696L222.39765625,169.2135307310089L223.36041666666665,162.20710471488513L224.32317708333332,140.34936766374776L225.28593750000002,154.49722990503926L226.24869791666666,156.3232682792822L227.21145833333333,160.72852339925154L228.17421875000002,158.76203995856352L229.13697916666666,168.21394715907346L230.09973958333333,168.7356717165079L231.0625,167.0855554566244L232.02526041666667,170.0513406990878L232.98802083333334,168.7399627511503L233.95078125,167.18883195678114L234.91354166666667,164.22453984713388L235.87630208333334,154.77220457903587L236.83906249999998,155.9566134914661L237.80182291666668,150.39023448854115L238.76458333333332,153.93374504507872L239.72734375,152.6185598029192L240.69010416666669,159.8374870700644L241.65286458333333,156.47670337131387L242.615625,165.10648826321602L243.5783854166667,168.22092784598038L244.54114583333333,165.24402493818252L245.50390625,168.8915982389559L246.46666666666667,169.701875819863L247.42942708333334,171.43608696759355L248.3921875,166.10546776300492L249.35494791666665,167.44538678966003L250.31770833333334,168.8723640077019L251.28046875,161.52979438066345L252.24322916666665,167.26749177204397L253.20598958333335,165.95268706608636L254.16875,163.600599791471L255.13151041666666,162.43072234199818L256.0942708333333,168.64341272802253L257.05703125,164.2877237302618L258.01979166666666,158.02571369804105L258.9825520833333,166.31910069182177L259.9453125,166.47327308944207L260.90807291666664,169.11299353133808L261.87083333333334,171.9071636574934L262.83359375000003,167.14908975011747L263.7963541666667,161.4542983770983L264.7591145833333,162.61393203739027L265.721875,163.86912236129191L266.68463541666665,168.31009126016465L267.64739583333335,165.5611987305764L268.61015625,166.63212119949904L269.5729166666667,167.74551161828015" style="fill: none;" fill="none"></path></g><g><path stroke="rgb(0, 119, 187)" stroke-width="2px" d="M19.255208333333332,34.67474045536733L28.8828125,-630.2846481434326L144.4140625,-23.23835385781392L154.04166666666666,8.021122311627487L163.66927083333334,25.09041977928321L173.296875,44.766587403169474L182.92447916666666,52.815900602256214L192.55208333333331,46.906222183963536L202.1796875,31.075367044049568L211.80729166666666,56.53427727064948L221.43489583333334,63.14415403496757L231.0625,81.18398400182151L240.69010416666669,77.2822648553415L250.31770833333334,20.833553515172902L259.9453125,7.6140498066683L269.5729166666667,24.54132786280856" style="fill: none;" fill="none"></path></g></g></g></g><g opacity="0.2"><g><g><g><path stroke="rgb(255, 112, 67)" stroke-width="2px" d="M20.21796875,11.158482183109632L21.180729166666666,53.89971968260677L22.14348958333333,89.99232364784585L23.10625,86.64975054697555L24.069010416666664,117.70268567041916L25.031770833333333,100.19582550092176L25.994531249999998,98.10917498848654L26.957291666666666,108.70578984780744L27.92005208333333,103.34357805685562L28.8828125,98.79745843193747L29.845572916666665,126.99608506939627L30.808333333333334,115.008171655915L31.77109375,120.15544592792337L32.73385416666667,139.7745500044389L33.696614583333336,107.81728616627777L34.659375,125.79279270497234L35.622135416666666,131.07628214901143L36.584895833333334,137.8715274225582L37.54765625,128.15218526666814L38.510416666666664,140.12109425393015L39.47317708333333,121.36664601347663L40.4359375,124.19502542235635L41.39869791666667,113.85018204558978L42.36145833333333,134.16092639077792L43.32421875,125.82916630398141L44.28697916666666,128.16282160715622L45.24973958333334,101.70892885598266L46.2125,103.1536392948844L47.17526041666667,148.47369542988864L48.13802083333333,133.42018536004153L49.100781250000004,143.50948801907626L50.063541666666666,135.9543486291712L51.026302083333334,124.94342960552734L51.989062499999996,125.75565183162689L52.951822916666664,148.34737330133265L53.91458333333333,142.99703987620094L54.87734375,139.67237783562052L55.84010416666666,130.6873603788289L56.80286458333333,137.98175117644396L57.765625,162.62477339126846L58.72838541666667,139.04527013410222L59.69114583333333,144.7586681842804L60.65390625,108.16660698977383L61.61666666666667,134.7570026408542L62.579427083333336,151.76545099236748L63.5421875,111.82019474289633L64.50494791666667,125.60435971888629L65.46770833333333,142.3673234419389L66.43046875,140.25664765184575L67.39322916666667,144.93129052357241L68.35598958333333,133.68377286737615L69.31875,141.62179174206474L70.28151041666668,148.0664453939958L71.24427083333333,151.38652776588094L72.20703125,132.16428195346484L73.16979166666667,147.25177268548444L74.13255208333332,169.2983217618682L75.0953125,148.21384838494387L76.05807291666666,153.20988089658997L77.02083333333333,155.30893248048696L77.98359375000001,154.0057889521122L78.94635416666667,143.95914914391258L79.90911458333333,151.92513516816226L80.871875,157.3175751702352L81.83463541666667,133.54902990297836L82.79739583333334,158.47590286081487L83.76015625,143.14449082179502L84.72291666666666,153.29828768426722L85.68567708333335,155.3104406541044L86.6484375,101.45160422541876L87.61119791666667,140.4693552797491L88.57395833333332,159.41259856386617L89.53671875,145.21318231929433L90.49947916666667,144.54148159243843L91.46223958333333,157.90121438286522L92.425,155.0963878983801L93.38776041666667,140.07052128423345L94.35052083333333,157.16999954256144L95.31328125,156.90003886277026L96.27604166666666,155.32203368978068L97.23880208333334,148.3808264623989L98.20156250000001,164.45286204327238L99.16432291666666,157.72959669340742L100.12708333333333,149.2662706375122L101.08984375,140.30532161755994L102.05260416666667,151.5409561124715L103.01536458333334,166.09304760802877L103.97812499999999,165.9677948680791L104.94088541666667,165.3288543576544L105.90364583333333,164.64476934346285L106.86640625,174.9509217129512L107.82916666666667,156.13860060680997L108.79192708333333,168.83240880749443L109.7546875,154.25058543140238L110.71744791666667,161.88167538968L111.68020833333333,166.0015837116675L112.64296875000001,152.625517568805L113.60572916666666,154.61156402934682L114.56848958333333,155.46339199759743L115.53125,151.11147430268198L116.49401041666667,141.6199263063344L117.45677083333334,153.916284003041L118.41953124999999,147.946127187122L119.38229166666666,157.43517674641177L120.34505208333334,158.09776609052312L121.3078125,147.17470956932414L122.27057291666667,152.73848432844335L123.23333333333333,139.62598171559245L124.19609375,150.77165809002787L125.15885416666667,164.92216539112005L126.12161458333333,161.49636700207537L127.084375,162.75062316656113L128.04713541666666,162.9094681360505L129.00989583333333,156.21385103735057L129.97265625,111.76092280041085L130.93541666666667,153.6484692936594L131.89817708333334,170.41397701068357L132.8609375,160.19013759222898L133.82369791666667,162.39684975418177L134.78645833333334,157.67981977083465L135.74921874999998,155.6128282655369L136.71197916666665,159.1255684278228L137.67473958333335,156.0720611377196L138.6375,167.0219866470857L139.60026041666666,167.10638922181997L140.56302083333335,159.16390816731885L141.52578125,166.6205870780078L142.48854166666666,143.56966630437157L143.45130208333333,166.0302102376114L144.4140625,156.5450761751695L145.37682291666667,148.81858044862747L146.33958333333334,163.8476264558055L147.30234375,159.73927999897435L148.26510416666665,151.37229962240565L149.22786458333334,167.45479411157694L150.190625,161.66910683025014L151.15338541666665,165.34536754001272L152.11614583333332,164.64288472587413L153.07890625000002,153.5235905999487L154.04166666666666,158.46173945611173L155.00442708333333,163.84465087001973L155.96718750000002,159.55636179718104L156.92994791666666,137.65424492142418L157.89270833333333,147.48969966173172L158.85546875,154.884135839614L159.81822916666667,156.48848489739677L160.78098958333334,163.89431989463893L161.74375,154.1170365376906L162.70651041666667,175.46803824061698L163.66927083333334,166.74864036928523L164.63203124999998,159.32045131379908L165.59479166666668,147.752639781345L166.55755208333332,160.57975230704653L167.5203125,164.9492261978713L168.48307291666669,167.90969188375905L169.44583333333333,150.25315807082436L170.40859375,121.84249517050655L171.3713541666667,161.5718811831691L172.33411458333333,175.64846999401396L173.296875,159.60894406654617L174.25963541666667,169.10682207616892L175.22239583333334,139.17702552405268L176.18515625,172.72869022867897L177.14791666666665,159.83214417099953L178.11067708333334,170.38230776244944L179.0734375,166.16426984830335L180.03619791666665,167.48684699697927L180.99895833333335,156.23437083038417L181.96171875,169.0041871450164L182.92447916666666,171.21786471930417L183.88723958333335,163.2014256119728L184.85,169.37440900098193L185.81276041666666,161.48743305152112L186.77552083333333,159.0690394910899L187.73828125,157.99685033343056L188.70104166666667,171.6472793925892L189.6638020833333,174.51828448745337L190.6265625,171.4788123233752L191.58932291666667,176.73822493851185L192.55208333333331,165.41228824853897L193.51484375,160.0503713786602L194.47760416666668,166.02315850691363L195.44036458333332,157.28748842531985L196.40312500000002,159.89148324998942L197.36588541666666,149.42259319262072L198.32864583333333,166.85569911653346L199.29140625,160.818014965816L200.25416666666666,172.4955946830186L201.21692708333333,161.45415972037748L202.1796875,170.79466496814382L203.14244791666667,162.55858638882637L204.10520833333334,174.98383418538353L205.06796874999998,170.02609345858747L206.03072916666667,155.4641137150201L206.99348958333334,180.47903020409018L207.95624999999998,158.02361621910876L208.91901041666668,173.90621895952657L209.88177083333335,163.02432191100988L210.84453125,167.59076231718063L211.80729166666666,157.316347531297L212.77005208333335,170.20956313881007L213.7328125,151.50092836943537L214.69557291666666,161.21243953162974L215.65833333333333,166.84910775043747L216.62109375,157.18492302840406L217.58385416666667,159.94243745912206L218.54661458333334,146.37416429953143L219.509375,166.66292143951762L220.47213541666665,160.22696915810758L221.43489583333334,166.20440788702533L222.39765625,179.4757254977118L223.36041666666665,151.6974656906995L224.32317708333332,107.56276208704168L225.28593750000002,175.71902326697654L226.24869791666666,159.06232584064657L227.21145833333333,167.3364060792056L228.17421875000002,155.81231479753149L229.13697916666666,182.39180795983836L230.09973958333333,169.51825855265963L231.0625,164.61038106679916L232.02526041666667,174.50001856278288L232.98802083333334,166.7728958292441L233.95078125,164.8621357652274L234.91354166666667,159.77810168266296L235.87630208333334,140.5937016768889L236.83906249999998,157.73322686011142L237.80182291666668,142.04066598415375L238.76458333333332,159.24901087988508L239.72734375,150.64578193967992L240.69010416666669,170.6658779707822L241.65286458333333,151.4355278231881L242.615625,178.05116560106927L243.5783854166667,172.89258722012693L244.54114583333333,160.77867057648572L245.50390625,174.36295819011602L246.46666666666667,170.91729219122365L247.42942708333334,174.0374036891894L248.3921875,158.10953895612195L249.35494791666665,169.45526532964274L250.31770833333334,171.01282983476466L251.28046875,150.5159399401058L252.24322916666665,175.87403785911474L253.20598958333335,163.98048000714996L254.16875,160.07246887954798L255.13151041666666,160.67590616778895L256.0942708333333,177.96244830705902L257.05703125,157.75419023362073L258.01979166666666,148.63269864970988L258.9825520833333,178.75918118249288L259.9453125,166.70453168587252L260.90807291666664,173.07257419418204L261.87083333333334,176.09841884672642L262.83359375000003,160.01197888905352L263.7963541666667,152.91211131756955L264.7591145833333,164.35338252782822L265.721875,165.7519078471444L266.68463541666665,174.97154460847378L267.64739583333335,161.43785993619397L268.61015625,168.23850490288302L269.5729166666667,169.41559724645182" style="fill: none;" fill="none"></path></g><g><path stroke="rgb(0, 119, 187)" stroke-width="2px" d="M19.255208333333332,34.67474045536733L28.8828125,-1029.2602813027124L38.510416666666664,-205.61326360702515L48.13802083333333,8.035560542886898L57.765625,25.89521345225246L67.39322916666667,45.45961566404861L77.02083333333333,-31.185968984257112L96.27604166666666,-32.251406127756304L105.90364583333333,49.05430552092464L115.53125,-187.9605829498985L125.15885416666667,55.24462691220368L134.78645833333334,-2.312303976579153L144.4140625,-34.620193004608154L154.04166666666666,54.87359222498806L163.66927083333334,50.68232738971708L173.296875,74.27251254428515L182.92447916666666,64.88782668113707L192.55208333333331,38.0426048365506L202.1796875,7.33053133704444L211.80729166666666,94.72124638340689L221.43489583333334,73.05875168063422L231.0625,108.24337278712878L240.69010416666669,71.42973235520446L250.31770833333334,-63.839112281799316L259.9453125,-12.215149380943995L269.5729166666667,49.93220163475381" style="fill: none;" fill="none"></path></g></g></g></g></g></g><g transform="translate(41, 177)" clip-path="url(#clip_1)"><clipPath id="clip_1"><rect width="288" height="22"></rect></clipPath><g><g><line x1="0" y1="0" x2="0" y2="5" style="visibility: inherit;" fill="rgb(0, 0, 0)" stroke="rgb(204, 204, 204)" stroke-width="1px"></line><line x1="19.255208333333332" y1="0" x2="19.255208333333332" y2="5" style="visibility: inherit;" fill="rgb(0, 0, 0)" stroke="rgb(204, 204, 204)" stroke-width="1px"></line><line x1="38.510416666666664" y1="0" x2="38.510416666666664" y2="5" style="visibility: inherit;" fill="rgb(0, 0, 0)" stroke="rgb(204, 204, 204)" stroke-width="1px"></line><line x1="57.765625" y1="0" x2="57.765625" y2="5" style="visibility: inherit;" fill="rgb(0, 0, 0)" stroke="rgb(204, 204, 204)" stroke-width="1px"></line><line x1="77.02083333333333" y1="0" x2="77.02083333333333" y2="5" style="visibility: inherit;" fill="rgb(0, 0, 0)" stroke="rgb(204, 204, 204)" stroke-width="1px"></line><line x1="96.27604166666666" y1="0" x2="96.27604166666666" y2="5" style="visibility: inherit;" fill="rgb(0, 0, 0)" stroke="rgb(204, 204, 204)" stroke-width="1px"></line><line x1="115.53125" y1="0" x2="115.53125" y2="5" style="visibility: inherit;" fill="rgb(0, 0, 0)" stroke="rgb(204, 204, 204)" stroke-width="1px"></line><line x1="134.78645833333334" y1="0" x2="134.78645833333334" y2="5" style="visibility: inherit;" fill="rgb(0, 0, 0)" stroke="rgb(204, 204, 204)" stroke-width="1px"></line><line x1="154.04166666666666" y1="0" x2="154.04166666666666" y2="5" style="visibility: inherit;" fill="rgb(0, 0, 0)" stroke="rgb(204, 204, 204)" stroke-width="1px"></line><line x1="173.296875" y1="0" x2="173.296875" y2="5" style="visibility: inherit;" fill="rgb(0, 0, 0)" stroke="rgb(204, 204, 204)" stroke-width="1px"></line><line x1="192.55208333333331" y1="0" x2="192.55208333333331" y2="5" style="visibility: inherit;" fill="rgb(0, 0, 0)" stroke="rgb(204, 204, 204)" stroke-width="1px"></line><line x1="211.80729166666666" y1="0" x2="211.80729166666666" y2="5" style="visibility: inherit;" fill="rgb(0, 0, 0)" stroke="rgb(204, 204, 204)" stroke-width="1px"></line><line x1="231.0625" y1="0" x2="231.0625" y2="5" style="visibility: inherit;" fill="rgb(0, 0, 0)" stroke="rgb(204, 204, 204)" stroke-width="1px"></line><line x1="250.31770833333334" y1="0" x2="250.31770833333334" y2="5" style="visibility: inherit;" fill="rgb(0, 0, 0)" stroke="rgb(204, 204, 204)" stroke-width="1px"></line><line x1="269.5729166666667" y1="0" x2="269.5729166666667" y2="5" style="visibility: inherit;" fill="rgb(0, 0, 0)" stroke="rgb(204, 204, 204)" stroke-width="1px"></line><line x1="288.828125" y1="0" x2="288.828125" y2="5" style="visibility: inherit;" fill="rgb(0, 0, 0)" stroke="rgb(204, 204, 204)" stroke-width="1px"></line></g><g transform="translate(0, 8)"><text x="0" y="0" dx="0em" dy="0.95em" style="text-anchor: middle; visibility: hidden; font-family: Roboto, sans-serif; font-size: 12px; font-weight: 200;" fill="rgb(255, 255, 255)" stroke="none" stroke-width="1px">-2k</text><text x="19.255208333333332" y="0" dx="0em" dy="0.95em" style="text-anchor: middle; visibility: inherit; font-family: Roboto, sans-serif; font-size: 12px; font-weight: 200;" fill="rgb(255, 255, 255)" stroke="none" stroke-width="1px">0</text><text x="38.510416666666664" y="0" dx="0em" dy="0.95em" style="text-anchor: middle; visibility: hidden; font-family: Roboto, sans-serif; font-size: 12px; font-weight: 200;" fill="rgb(255, 255, 255)" stroke="none" stroke-width="1px">2k</text><text x="57.765625" y="0" dx="0em" dy="0.95em" style="text-anchor: middle; visibility: inherit; font-family: Roboto, sans-serif; font-size: 12px; font-weight: 200;" fill="rgb(255, 255, 255)" stroke="none" stroke-width="1px">4k</text><text x="77.02083333333333" y="0" dx="0em" dy="0.95em" style="text-anchor: middle; visibility: hidden; font-family: Roboto, sans-serif; font-size: 12px; font-weight: 200;" fill="rgb(255, 255, 255)" stroke="none" stroke-width="1px">6k</text><text x="96.27604166666666" y="0" dx="0em" dy="0.95em" style="text-anchor: middle; visibility: inherit; font-family: Roboto, sans-serif; font-size: 12px; font-weight: 200;" fill="rgb(255, 255, 255)" stroke="none" stroke-width="1px">8k</text><text x="115.53125" y="0" dx="0em" dy="0.95em" style="text-anchor: middle; visibility: hidden; font-family: Roboto, sans-serif; font-size: 12px; font-weight: 200;" fill="rgb(255, 255, 255)" stroke="none" stroke-width="1px">10k</text><text x="134.78645833333334" y="0" dx="0em" dy="0.95em" style="text-anchor: middle; visibility: inherit; font-family: Roboto, sans-serif; font-size: 12px; font-weight: 200;" fill="rgb(255, 255, 255)" stroke="none" stroke-width="1px">12k</text><text x="154.04166666666666" y="0" dx="0em" dy="0.95em" style="text-anchor: middle; visibility: hidden; font-family: Roboto, sans-serif; font-size: 12px; font-weight: 200;" fill="rgb(255, 255, 255)" stroke="none" stroke-width="1px">14k</text><text x="173.296875" y="0" dx="0em" dy="0.95em" style="text-anchor: middle; visibility: inherit; font-family: Roboto, sans-serif; font-size: 12px; font-weight: 200;" fill="rgb(255, 255, 255)" stroke="none" stroke-width="1px">16k</text><text x="192.55208333333331" y="0" dx="0em" dy="0.95em" style="text-anchor: middle; visibility: hidden; font-family: Roboto, sans-serif; font-size: 12px; font-weight: 200;" fill="rgb(255, 255, 255)" stroke="none" stroke-width="1px">18k</text><text x="211.80729166666666" y="0" dx="0em" dy="0.95em" style="text-anchor: middle; visibility: inherit; font-family: Roboto, sans-serif; font-size: 12px; font-weight: 200;" fill="rgb(255, 255, 255)" stroke="none" stroke-width="1px">20k</text><text x="231.0625" y="0" dx="0em" dy="0.95em" style="text-anchor: middle; visibility: hidden; font-family: Roboto, sans-serif; font-size: 12px; font-weight: 200;" fill="rgb(255, 255, 255)" stroke="none" stroke-width="1px">22k</text><text x="250.31770833333334" y="0" dx="0em" dy="0.95em" style="text-anchor: middle; visibility: inherit; font-family: Roboto, sans-serif; font-size: 12px; font-weight: 200;" fill="rgb(255, 255, 255)" stroke="none" stroke-width="1px">24k</text><text x="269.5729166666667" y="0" dx="0em" dy="0.95em" style="text-anchor: middle; visibility: hidden; font-family: Roboto, sans-serif; font-size: 12px; font-weight: 200;" fill="rgb(255, 255, 255)" stroke="none" stroke-width="1px">26k</text><text x="288.828125" y="0" dx="0em" dy="0.95em" style="text-anchor: middle; visibility: hidden; font-family: Roboto, sans-serif; font-size: 12px; font-weight: 200;" fill="rgb(255, 255, 255)" stroke="none" stroke-width="1px">28k</text></g><line x1="0" y1="0" x2="288.828125" y2="0" fill="rgb(0, 0, 0)" stroke="rgb(204, 204, 204)" stroke-width="1px"></line></g></g></g></g></svg>