<svg viewBox="0 0 330 200" xmlns="http://www.w3.org/2000/svg"><g><g><g><g><g><line x1="61.953125" y1="177" x2="56.953125" y2="177" style="visibility: inherit;" fill="rgb(0, 0, 0)" stroke="rgb(204, 204, 204)" stroke-width="1px"></line><line x1="61.953125" y1="159.3" x2="56.953125" y2="159.3" style="visibility: inherit;" fill="rgb(0, 0, 0)" stroke="rgb(204, 204, 204)" stroke-width="1px"></line><line x1="61.953125" y1="141.6" x2="56.953125" y2="141.6" style="visibility: inherit;" fill="rgb(0, 0, 0)" stroke="rgb(204, 204, 204)" stroke-width="1px"></line><line x1="61.953125" y1="123.89999999999999" x2="56.953125" y2="123.89999999999999" style="visibility: inherit;" fill="rgb(0, 0, 0)" stroke="rgb(204, 204, 204)" stroke-width="1px"></line><line x1="61.953125" y1="106.2" x2="56.953125" y2="106.2" style="visibility: inherit;" fill="rgb(0, 0, 0)" stroke="rgb(204, 204, 204)" stroke-width="1px"></line><line x1="61.953125" y1="88.5" x2="56.953125" y2="88.5" style="visibility: inherit;" fill="rgb(0, 0, 0)" stroke="rgb(204, 204, 204)" stroke-width="1px"></line><line x1="61.953125" y1="70.8" x2="56.953125" y2="70.8" style="visibility: inherit;" fill="rgb(0, 0, 0)" stroke="rgb(204, 204, 204)" stroke-width="1px"></line><line x1="61.953125" y1="53.10000000000001" x2="56.953125" y2="53.10000000000001" style="visibility: inherit;" fill="rgb(0, 0, 0)" stroke="rgb(204, 204, 204)" stroke-width="1px"></line><line x1="61.953125" y1="35.39999999999999" x2="56.953125" y2="35.39999999999999" style="visibility: inherit;" fill="rgb(0, 0, 0)" stroke="rgb(204, 204, 204)" stroke-width="1px"></line><line x1="61.953125" y1="17.700000000000017" x2="56.953125" y2="17.700000000000017" style="visibility: inherit;" fill="rgb(0, 0, 0)" stroke="rgb(204, 204, 204)" stroke-width="1px"></line><line x1="61.953125" y1="0" x2="56.953125" y2="0" style="visibility: inherit;" fill="rgb(0, 0, 0)" stroke="rgb(204, 204, 204)" stroke-width="1px"></line></g><g transform="translate(51.953125, 0)"><text x="0" y="177" dx="0em" dy="0.3em" style="text-anchor: end; visibility: hidden; font-family: Roboto, sans-serif; font-size: 12px; font-weight: 200;" fill="rgb(255, 255, 255)" stroke="none" stroke-width="1px">2e-3</text><text x="0" y="159.3" dx="0em" dy="0.3em" style="text-anchor: end; visibility: inherit; font-family: Roboto, sans-serif; font-size: 12px; font-weight: 200;" fill="rgb(255, 255, 255)" stroke="none" stroke-width="1px">3e-3</text><text x="0" y="141.6" dx="0em" dy="0.3em" style="text-anchor: end; visibility: hidden; font-family: Roboto, sans-serif; font-size: 12px; font-weight: 200;" fill="rgb(255, 255, 255)" stroke="none" stroke-width="1px">4e-3</text><text x="0" y="123.89999999999999" dx="0em" dy="0.3em" style="text-anchor: end; visibility: inherit; font-family: Roboto, sans-serif; font-size: 12px; font-weight: 200;" fill="rgb(255, 255, 255)" stroke="none" stroke-width="1px">5e-3</text><text x="0" y="106.2" dx="0em" dy="0.3em" style="text-anchor: end; visibility: hidden; font-family: Roboto, sans-serif; font-size: 12px; font-weight: 200;" fill="rgb(255, 255, 255)" stroke="none" stroke-width="1px">6e-3</text><text x="0" y="88.5" dx="0em" dy="0.3em" style="text-anchor: end; visibility: inherit; font-family: Roboto, sans-serif; font-size: 12px; font-weight: 200;" fill="rgb(255, 255, 255)" stroke="none" stroke-width="1px">7e-3</text><text x="0" y="70.8" dx="0em" dy="0.3em" style="text-anchor: end; visibility: hidden; font-family: Roboto, sans-serif; font-size: 12px; font-weight: 200;" fill="rgb(255, 255, 255)" stroke="none" stroke-width="1px">8e-3</text><text x="0" y="53.10000000000001" dx="0em" dy="0.3em" style="text-anchor: end; visibility: inherit; font-family: Roboto, sans-serif; font-size: 12px; font-weight: 200;" fill="rgb(255, 255, 255)" stroke="none" stroke-width="1px">9e-3</text><text x="0" y="35.39999999999999" dx="0em" dy="0.3em" style="text-anchor: end; visibility: hidden; font-family: Roboto, sans-serif; font-size: 12px; font-weight: 200;" fill="rgb(255, 255, 255)" stroke="none" stroke-width="1px">0.01</text><text x="0" y="17.700000000000017" dx="0em" dy="0.3em" style="text-anchor: end; visibility: inherit; font-family: Roboto, sans-serif; font-size: 12px; font-weight: 200;" fill="rgb(255, 255, 255)" stroke="none" stroke-width="1px">0.011</text><text x="0" y="0" dx="0em" dy="0.3em" style="text-anchor: end; visibility: hidden; font-family: Roboto, sans-serif; font-size: 12px; font-weight: 200;" fill="rgb(255, 255, 255)" stroke="none" stroke-width="1px">0.012</text></g><line x1="61.953125" y1="0" x2="61.953125" y2="177" fill="rgb(0, 0, 0)" stroke="rgb(204, 204, 204)" stroke-width="1px"></line></g></g><g transform="translate(61, 0)" clip-path="url(#clip_0)"><clipPath id="clip_0"><rect width="268" height="176"></rect></clipPath><g><g><g><line x1="0" y1="0" x2="0" y2="177" fill="rgb(0, 0, 0)" stroke="rgb(189, 189, 189)" stroke-width="1px" opacity="0.25"></line><line x1="17.869791666666668" y1="0" x2="17.869791666666668" y2="177" fill="rgb(0, 0, 0)" stroke="rgb(189, 189, 189)" stroke-width="1px" opacity="0.25"></line><line x1="35.739583333333336" y1="0" x2="35.739583333333336" y2="177" fill="rgb(0, 0, 0)" stroke="rgb(189, 189, 189)" stroke-width="1px" opacity="0.25"></line><line x1="53.609375" y1="0" x2="53.609375" y2="177" fill="rgb(0, 0, 0)" stroke="rgb(189, 189, 189)" stroke-width="1px" opacity="0.25"></line><line x1="71.47916666666667" y1="0" x2="71.47916666666667" y2="177" fill="rgb(0, 0, 0)" stroke="rgb(189, 189, 189)" stroke-width="1px" opacity="0.25"></line><line x1="89.34895833333333" y1="0" x2="89.34895833333333" y2="177" fill="rgb(0, 0, 0)" stroke="rgb(189, 189, 189)" stroke-width="1px" opacity="0.25"></line><line x1="107.21875" y1="0" x2="107.21875" y2="177" fill="rgb(0, 0, 0)" stroke="rgb(189, 189, 189)" stroke-width="1px" opacity="0.25"></line><line x1="125.08854166666667" y1="0" x2="125.08854166666667" y2="177" fill="rgb(0, 0, 0)" stroke="rgb(189, 189, 189)" stroke-width="1px" opacity="0.25"></line><line x1="142.95833333333334" y1="0" x2="142.95833333333334" y2="177" fill="rgb(0, 0, 0)" stroke="rgb(189, 189, 189)" stroke-width="1px" opacity="0.25"></line><line x1="160.828125" y1="0" x2="160.828125" y2="177" fill="rgb(0, 0, 0)" stroke="rgb(189, 189, 189)" stroke-width="1px" opacity="0.25"></line><line x1="178.69791666666666" y1="0" x2="178.69791666666666" y2="177" fill="rgb(0, 0, 0)" stroke="rgb(189, 189, 189)" stroke-width="1px" opacity="0.25"></line><line x1="196.56770833333331" y1="0" x2="196.56770833333331" y2="177" fill="rgb(0, 0, 0)" stroke="rgb(189, 189, 189)" stroke-width="1px" opacity="0.25"></line><line x1="214.4375" y1="0" x2="214.4375" y2="177" fill="rgb(0, 0, 0)" stroke="rgb(189, 189, 189)" stroke-width="1px" opacity="0.25"></line><line x1="232.30729166666669" y1="0" x2="232.30729166666669" y2="177" fill="rgb(0, 0, 0)" stroke="rgb(189, 189, 189)" stroke-width="1px" opacity="0.25"></line><line x1="250.17708333333334" y1="0" x2="250.17708333333334" y2="177" fill="rgb(0, 0, 0)" stroke="rgb(189, 189, 189)" stroke-width="1px" opacity="0.25"></line><line x1="268.046875" y1="0" x2="268.046875" y2="177" fill="rgb(0, 0, 0)" stroke="rgb(189, 189, 189)" stroke-width="1px" opacity="0.25"></line></g><g><line x1="0" y1="177" x2="268.046875" y2="177" fill="rgb(0, 0, 0)" stroke="rgb(189, 189, 189)" stroke-width="1px" opacity="0.25"></line><line x1="0" y1="159.3" x2="268.046875" y2="159.3" fill="rgb(0, 0, 0)" stroke="rgb(189, 189, 189)" stroke-width="1px" opacity="0.25"></line><line x1="0" y1="141.6" x2="268.046875" y2="141.6" fill="rgb(0, 0, 0)" stroke="rgb(189, 189, 189)" stroke-width="1px" opacity="0.25"></line><line x1="0" y1="123.89999999999999" x2="268.046875" y2="123.89999999999999" fill="rgb(0, 0, 0)" stroke="rgb(189, 189, 189)" stroke-width="1px" opacity="0.25"></line><line x1="0" y1="106.2" x2="268.046875" y2="106.2" fill="rgb(0, 0, 0)" stroke="rgb(189, 189, 189)" stroke-width="1px" opacity="0.25"></line><line x1="0" y1="88.5" x2="268.046875" y2="88.5" fill="rgb(0, 0, 0)" stroke="rgb(189, 189, 189)" stroke-width="1px" opacity="0.25"></line><line x1="0" y1="70.8" x2="268.046875" y2="70.8" fill="rgb(0, 0, 0)" stroke="rgb(189, 189, 189)" stroke-width="1px" opacity="0.25"></line><line x1="0" y1="53.10000000000001" x2="268.046875" y2="53.10000000000001" fill="rgb(0, 0, 0)" stroke="rgb(189, 189, 189)" stroke-width="1px" opacity="0.25"></line><line x1="0" y1="35.39999999999999" x2="268.046875" y2="35.39999999999999" fill="rgb(0, 0, 0)" stroke="rgb(189, 189, 189)" stroke-width="1px" opacity="0.25"></line><line x1="0" y1="17.700000000000017" x2="268.046875" y2="17.700000000000017" fill="rgb(0, 0, 0)" stroke="rgb(189, 189, 189)" stroke-width="1px" opacity="0.25"></line><line x1="0" y1="0" x2="268.046875" y2="0" fill="rgb(0, 0, 0)" stroke="rgb(189, 189, 189)" stroke-width="1px" opacity="0.25"></line></g></g></g><g><g><line x1="0" y1="212.4" x2="268.046875" y2="212.4" fill="rgb(0, 0, 0)" stroke="rgb(153, 153, 153)" stroke-width="1.5px"></line></g></g><g><g><line x1="17.869791666666668" y1="0" x2="17.869791666666668" y2="177" fill="rgb(0, 0, 0)" stroke="rgb(153, 153, 153)" stroke-width="1.5px"></line></g></g><g><g><g><g><g><path stroke="rgb(255, 112, 67)" stroke-width="2px" d="M22.337239583333332,-11.659941643677081L23.230729166666666,12.467177345745169L24.12421875,1.2236953579406444L25.017708333333335,4.893637664446576L25.911197916666666,-4.246234203362391L28.59166666666667,-16.149423189742684L29.48515625,2.509823589762231L30.378645833333334,43.639236945361674L31.272135416666668,16.172681005340507L32.165625,30.554792467743454L33.05911458333333,49.36337346068439L33.95260416666667,66.90383349990891L34.84609375,81.65191392926151L35.739583333333336,99.80789529760338L36.63307291666666,114.73330683757345L37.526562500000004,78.68624018172942L38.42005208333334,87.7138507291682L39.313541666666666,62.88656541520957L40.20703125,61.34694540825479L41.10052083333333,58.879177833675854L41.99401041666667,48.220881498979836L42.8875,16.432130299115222L43.78098958333333,53.965656675463684L44.674479166666664,30.635832108868566L45.567968750000006,45.48411171028254L46.46145833333333,48.800128598607074L47.35494791666667,50.32916413730046L48.2484375,54.00477668347273L49.14192708333333,73.50925309542185L50.03541666666667,103.38892150455315L50.92890625,89.38866269646498L51.82239583333333,95.40917781015642L52.715885416666666,77.65130595256585L53.609375,113.50141179020572L54.502864583333334,89.11137362881544L55.39635416666667,78.2144389273778L56.289843749999996,85.26716938189985L57.18333333333334,66.80810689113027L58.07682291666667,91.00645737769297L58.9703125,76.01336986789232L59.86380208333333,88.94394484698955L60.75729166666667,91.90191767305926L61.65078125,100.40266027113803L62.544270833333336,127.20140392115623L63.43776041666666,113.6538719236546L64.33125,104.68943820650908L65.22473958333333,111.7256351998901L66.11822916666667,106.73339596324372L67.01171875,86.64045248646195L67.90520833333333,88.50423723276715L68.79869791666667,123.24619841563751L69.6921875,114.69111250691329L70.58567708333332,130.47843833537655L71.47916666666667,129.0034879833266L72.37265625,141.98295298105842L73.26614583333333,158.18737781468133L74.15963541666667,159.11781488931538L75.05312500000001,152.4263475473306L75.94661458333333,147.12874599892382L76.84010416666668,127.80216954841303L77.73359375,119.49224896010213L78.62708333333333,113.04912095741302L79.52057291666667,124.72507518724126L80.4140625,96.71505176005077L81.30755208333333,105.12575004072374L82.20104166666665,109.48786160526507L83.09453125,100.05280634628434L83.98802083333334,96.46467121000111L84.88151041666666,110.11172415408504L85.775,129.14074489775606L86.66848958333333,118.29370879994813L87.56197916666666,124.56463662887803L88.45546875000001,120.13482750478501L89.34895833333333,125.57066844179103L90.24244791666666,110.02463867067617L91.13593750000001,131.47984239622548L92.02942708333333,145.3086070653921L92.92291666666667,128.85309899506723L93.81640625,114.91675974135252L94.70989583333333,107.88211600366027L95.60338541666667,130.60457794544274L96.496875,144.98733251781567L97.39036458333334,155.0613245012093L98.28385416666666,155.3682912682282L99.17734375,160.99903564146382L100.07083333333334,162.88023466447723L100.96432291666666,174.32341646342564L101.8578125,163.6468501320576L102.75130208333334,161.1895627236274L103.64479166666666,163.53399167788965L104.53828125,130.17115707804527L105.43177083333333,105.58690561628201L106.32526041666667,114.33182437271391L107.21875,127.05287780888683L108.11223958333333,139.17909727880541L109.00572916666667,123.24853708216062L109.89921874999999,111.85744452681251L110.79270833333334,127.16843439783817L111.68619791666667,135.50602847745216L112.57968749999999,133.53752098536611L113.47317708333334,147.68911970797848L114.36666666666667,116.52176770862144L115.26015625,132.16672275600553L116.15364583333334,150.03788016319407L117.04713541666666,158.75103441658698L117.940625,158.383432608891L118.83411458333335,161.81539633269517L119.72760416666667,143.4098938598955L120.62109375,158.9519747437L121.51458333333333,160.34791978156326L122.40807291666667,171.6374093839497L123.3015625,158.30398494207682L124.19505208333332,164.074692828529L125.08854166666667,140.73095207755145L125.98203124999999,153.50121930543705L126.87552083333333,140.05197928192692L127.76901041666667,123.71139265637085L128.6625,147.7150151760309L129.55598958333334,140.5078882755893L130.44947916666666,120.02846216139541L131.34296875,145.8985056568822L132.23645833333333,140.33192109016423L133.12994791666665,149.45102062738147L134.0234375,160.95836807443175L134.91692708333332,125.88472891750021L135.81041666666667,150.53945067991813L136.70390625,139.8412963759601L137.59739583333334,123.41291534880995L138.49088541666669,145.18427775810778L139.384375,124.63351970231903L140.27786458333333,143.47015288012548L141.17135416666665,154.226666970997L142.06484375,132.55436974462802L142.95833333333334,123.08880945323071L143.85182291666666,122.18414294796085L144.7453125,140.51866247759398L145.63880208333333,148.53075733397088L146.53229166666665,141.34109615065861L147.42578125,125.57163704114087L148.31927083333335,126.7532986463721L149.21276041666667,122.38885920400118L150.10625000000002,121.2921120584291L150.99973958333334,152.53824061723242L151.89322916666666,159.12557981265599L152.78671874999998,139.61368571491846L153.68020833333335,135.03429256377703L154.57369791666667,136.00918912051966L155.4671875,147.35749370535524L156.36067708333334,138.6449838893432L157.25416666666666,134.6603299499642L158.14765624999998,117.30585436112233L159.04114583333333,132.255196360493L159.93463541666668,157.88650796161625L160.828125,158.61717398581823L161.72161458333335,155.66475033293915L162.61510416666667,128.5392818600282L163.50859375,148.41897440428107L164.4020833333333,134.9539532166694L165.29557291666669,154.16011160869743L166.1890625,153.2229875895193L167.08255208333333,156.0706006650812L167.97604166666667,137.95564726514738L168.86953125,139.69676390512657L169.76302083333331,159.02730671826077L170.6565104166667,149.97905036054894L171.55,140.50997876058722L172.44348958333333,122.13594594765131L173.33697916666665,129.24069087367312L174.23046875,137.54141703180107L175.12395833333332,150.43135267365952L176.01744791666667,161.37807438243317L176.91093750000002,156.97181779112748L177.80442708333334,168.7977966740956L178.69791666666666,162.19864260391773L179.59140625,146.94341291017162L180.48489583333333,147.6162920601775L181.37838541666665,144.42980416149555L182.27187500000002,149.50008585419152L183.16536458333334,137.28747840130862L184.05885416666666,156.689888471392L184.95234374999998,149.90348888264728L185.84583333333333,159.32081016072115L186.73932291666665,166.44827031429693L187.6328125,165.6074070729231L188.52630208333335,160.69626357413324L189.41979166666667,163.28490703653986L190.31328125,168.62624505058943L191.20677083333334,161.76129570973524L192.10026041666666,169.05892375095254L192.99375,161.24560488214235L193.88723958333335,168.8001938685038L194.78072916666667,174.24957274514486L195.67421875,135.58903223778634L196.56770833333331,135.98418936196464L197.46119791666666,147.91864374600945L198.3546875,149.82731919801594L199.24817708333333,153.7101381714127L200.14166666666668,159.01092678636203L201.03515625,143.88602359700138L201.92864583333332,136.68831635464988L202.82213541666667,125.59572720929839L203.715625,138.2229519348881L204.60911458333334,129.98458436185368L205.50260416666669,138.167739799048L206.39609375,158.88041312053085L207.28958333333333,136.5740465709822L208.18307291666665,106.59824640746456L209.0765625,142.9557221608157L209.97005208333334,141.41785933222144L210.86354166666666,154.17566358332795L211.75703125,139.71005704855898L212.65052083333333,163.78434580417186L213.54401041666665,162.79701472343035L214.4375,153.50573380065575L215.33098958333335,169.02744474390963L216.22447916666667,155.0006746708144L217.11796875000002,144.17537330873543L218.01145833333334,157.03900834031543L218.90494791666666,137.99042491217043L219.79843749999998,131.22165811329833L220.69192708333335,128.72116171341986L221.58541666666667,136.21416924184174L222.47890625,121.37409596598512L223.37239583333334,145.131058586166L224.26588541666666,138.00642982707956L225.15937499999998,160.87691801953488L226.05286458333333,162.68138256232842L226.94635416666668,142.19184750041907L227.83984375,160.97867544540938L228.73333333333335,166.46811633906768L229.62682291666667,175.9261555061609L230.5203125,171.20141668108823L231.4138020833333,165.0666946062459L232.30729166666669,171.12758117815187L233.20078125,143.48805904165107L234.09427083333333,154.8867513421935L234.98776041666667,160.82420852668653L235.88125,156.64132475025994L236.77473958333331,151.84937908101108L237.6682291666667,159.24332957497552L238.56171875,143.6092734910924L239.45520833333333,131.53429825233692L240.34869791666665,158.46399648250505L241.2421875,165.08295027531008L242.13567708333332,165.01851543876123L243.02916666666667,176.9276787653869L243.92265625000002,176.22235142180654L244.81614583333334,136.055749612089L245.70963541666666,140.00925180459677L246.603125,162.251793116113L247.49661458333333,160.80888950237957L248.39010416666665,159.82258036253947L249.28359375000002,153.1364938243812L250.17708333333334,159.3505678856871" style="fill: none;" fill="none"></path></g><g><path stroke="rgb(0, 119, 187)" stroke-width="2px" d="M26.8046875,-15.449227585829764L35.739583333333336,28.833289698420156L44.674479166666664,62.83397213534373L53.609375,83.98579661134092L62.544270833333336,96.24798588474415L71.47916666666667,103.74171695843785L80.4140625,106.19157166549874L89.34895833333333,112.93862543378292L98.28385416666666,115.59745421016399L107.21875,113.69231061366115L116.15364583333334,117.2933817865292L125.08854166666667,115.15295005130527L134.0234375,119.17001040053613L142.95833333333334,119.60931069323286L151.89322916666666,120.05437905278278L160.828125,114.70846360574319L169.76302083333331,117.17092588606897L178.69791666666666,121.23385510490179L187.6328125,118.74898664965038L196.56770833333331,116.63704677960305L205.50260416666669,117.21906560067308L214.4375,119.03165403806214L223.37239583333334,119.33564408311574L232.30729166666669,116.37807462936428L241.2421875,105.80439276610643L250.17708333333334,107.84348543124756" style="fill: none;" fill="none"></path></g></g></g></g><g opacity="0.2"><g><g><g><path stroke="rgb(255, 112, 67)" stroke-width="2px" d="M21.44375,-4.100053647905596L22.337239583333332,30.200458520650876L23.230729166666666,45.84366867095233L24.12421875,-14.85466378033162L25.017708333333335,10.244448778778326L25.911197916666666,-17.72576987966896L28.59166666666667,-0.3459436655044634L29.48515625,30.437768080830587L30.378645833333334,105.25278017632662L31.272135416666668,-24.994866999238738L32.165625,52.117816282063735L33.05911458333333,77.56828578896821L33.95260416666667,93.21007003784179L34.84609375,103.77178785167634L35.739583333333336,127.04020782150327L36.63307291666666,137.12060560248793L37.526562500000004,24.616826342046274L38.42005208333334,101.25508831590413L39.313541666666666,25.645931547135127L40.20703125,59.037526340782655L41.10052083333333,55.177536995708955L41.99401041666667,32.23346426859499L42.8875,-31.25094769746066L43.78098958333333,110.26591166630386L44.674479166666664,-4.3588918469846325L45.567968750000006,67.75652618855239L46.46145833333333,53.774153271317495L47.35494791666667,52.62271726280452L48.2484375,59.51819523945452L49.14192708333333,102.76596687510609L50.03541666666667,148.20842334777117L50.92890625,68.38827470093966L51.82239583333333,104.43995042480528L52.715885416666666,51.01449826508762L53.609375,167.27657042685897L54.502864583333334,52.5263164356351L55.39635416666667,61.86903688833119L56.289843749999996,95.84626505859195L57.18333333333334,39.119513162970556L58.07682291666667,127.30398310124873L58.9703125,53.52373860552908L59.86380208333333,108.3398073144257L60.75729166666667,96.33887691199779L61.65078125,113.15377416796981L62.544270833333336,167.399519395642L63.43776041666666,93.3325739275664L64.33125,91.24278763085603L65.22473958333333,122.27993068993091L66.11822916666667,99.2450371082872L67.01171875,56.50103727132083L67.90520833333333,91.29991435222327L68.79869791666667,175.35914018992335L69.6921875,101.85848364382981L70.58567708333332,154.15942707806826L71.47916666666667,126.7910624552518L72.37265625,161.45215047765524L73.26614583333333,182.49401506511495L74.15963541666667,160.51347050126643L75.05312500000001,142.3891465343535L75.94661458333333,139.18234367631376L76.84010416666668,98.81230487264692L77.73359375,107.02736807763576L78.62708333333333,103.38442895337938L79.52057291666667,142.23900653198362L80.4140625,54.70001661926509L81.30755208333333,117.74179746173321L82.20104166666665,116.03102895207702L83.09453125,85.90022345781327L83.98802083333334,91.08246850557624L84.88151041666666,130.58230357021094L85.775,157.68427601326258L86.66848958333333,102.02315465323626L87.56197916666666,133.97102837227285L88.45546875000001,113.49011381864547L89.34895833333333,133.72442984730006L90.24244791666666,86.70559401400388L91.13593750000001,163.6626479845494L92.02942708333333,166.05175406914205L92.92291666666667,104.16983688957988L93.81640625,94.01225086078047L94.70989583333333,97.3301503971219L95.60338541666667,164.68827085811645L96.496875,166.56146437637508L97.39036458333334,170.1723124762997L98.28385416666666,155.82874141875655L99.17734375,169.44515220131726L100.07083333333334,165.70203319899738L100.96432291666666,191.48818916184828L101.8578125,147.63200063500554L102.75130208333334,157.50363161098213L103.64479166666666,167.05063510928304L104.53828125,80.12690517827869L105.43177083333333,68.71052842363716L106.32526041666667,127.44920250736176L107.21875,146.13445796314628L108.11223958333333,157.3684264836833L109.00572916666667,99.35269678719341L109.89921874999999,94.77080569379031L110.79270833333334,150.13491920437664L111.68619791666667,148.01241959687323L112.57968749999999,130.58475974723697L113.47317708333334,168.91651779189706L114.36666666666667,69.77073970958591L115.26015625,155.6341553270817L116.15364583333334,176.84461627397687L117.04713541666666,171.82076579667628L117.940625,157.8320298973471L118.83411458333335,166.96334191840143L119.72760416666667,115.80164015069603L120.62109375,182.26509606940672L121.51458333333333,162.44183733835817L122.40807291666667,188.57164378752933L123.3015625,138.30384827926756L124.19505208333332,172.7307546582073L125.08854166666667,105.71534095108508L125.98203124999999,172.6566201472655L126.87552083333333,119.87811924666165L127.76901041666667,99.20051271803676L128.6625,183.720448955521L129.55598958333334,129.69719792492688L130.44947916666666,89.30932299010455L131.34296875,184.7035709001124L132.23645833333333,131.98204424008728L133.12994791666665,163.12966993320734L134.0234375,178.2193892450072L134.91692708333332,73.27427018210292L135.81041666666667,187.52153332354501L136.70390625,123.79406492002308L137.59739583333334,98.77034380808472L138.49088541666669,177.84132137205452L139.384375,93.80738261863588L140.27786458333333,171.72510264683515L141.17135416666665,170.36143810730428L142.06484375,100.04592390507459L142.95833333333334,108.89046901613473L143.85182291666666,120.82714319005608L144.7453125,168.0204417720437L145.63880208333333,160.54889961853624L146.53229166666665,130.55660437569023L147.42578125,101.91744837686419L148.31927083333335,128.525791054219L149.21276041666667,115.84220004044472L150.10625000000002,119.64699134007095L150.99973958333334,199.40743345543743L151.89322916666666,169.00658860579134L152.78671874999998,110.34584456831216L153.68020833333335,128.16520283706487L154.57369791666667,137.47153395563365L155.4671875,164.3799505826086L156.36067708333334,125.57621916532516L157.25416666666666,128.6833490408957L158.14765624999998,91.27414097785949L159.04114583333333,154.679209359549L159.93463541666668,196.33347536330112L160.828125,159.7131730221212L161.72161458333335,151.23611485362053L162.61510416666667,87.85107915066183L163.50859375,178.2385132206604L164.4020833333333,114.75642143525182L165.29557291666669,182.9693491967395L166.1890625,151.8173015607521L167.08255208333333,160.34202027842403L167.97604166666667,110.7832171652466L168.86953125,142.30843886509538L169.76302083333331,188.0231209379621L170.6565104166667,136.40666582398117L171.55,126.30637136064469L172.44348958333333,94.5748967282474L173.33697916666665,139.8978082627058L174.23046875,149.99250626899303L175.12395833333332,169.7662561364472L176.01744791666667,177.79815694559366L176.91093750000002,150.36243290416897L177.80442708333334,186.53676499854774L178.69791666666666,152.2999114986509L179.59140625,124.06056836955248L180.48489583333333,148.6256107851863L181.37838541666665,139.65007231347263L182.27187500000002,157.1055083932355L183.16536458333334,118.96856722198426L184.05885416666666,185.7935035765171L184.95234374999998,139.7238894995302L185.84583333333333,173.44679207783193L186.73932291666665,177.1394605446607L187.6328125,164.34611221086234L188.52630208333335,153.32954832594842L189.41979166666667,167.1678722301498L190.31328125,176.63825207166374L191.20677083333334,151.46387169845403L192.10026041666666,180.00536581277848L192.99375,149.52562657892705L193.88723958333335,180.132077348046L194.78072916666667,182.42364106010646L195.67421875,77.59822147674859L196.56770833333331,136.57692504823208L197.46119791666666,165.82032532207668L198.3546875,152.69033237602562L199.24817708333333,159.53436663150788L200.14166666666668,166.96210970878602L201.03515625,121.19866881296038L201.92864583333332,125.8917554911226L202.82213541666667,108.95684349127113L203.715625,157.1637890232727L204.60911458333334,117.62703300230204L205.50260416666669,150.44247295483947L206.39609375,189.9494231027551L207.28958333333333,103.11449674665927L208.18307291666665,61.634546162188066L209.0765625,197.4919357908424L209.97005208333334,139.11106508933008L210.86354166666666,173.3123699599877L211.75703125,118.01164724640547L212.65052083333333,199.89577893759125L213.54401041666665,161.31601810231805L214.4375,139.5688124164939L215.33098958333335,192.31001115879045L216.22447916666667,133.96051956117154L217.11796875000002,127.937421265617L218.01145833333334,176.33446088768542L218.90494791666666,109.41754976995288L219.79843749999998,121.06850791499018L220.69192708333335,124.97041711360215L221.58541666666667,147.45368053447456L222.47890625,99.11398605220019L223.37239583333334,180.76650251643733L224.26588541666666,127.31948668844997L225.15937499999998,195.18265030821786L226.05286458333333,165.38807937651873L226.94635416666668,111.45754490755498L227.83984375,189.15891736289487L228.73333333333335,174.70227767955512L229.62682291666667,190.11321425680072L230.5203125,164.11430844347925L231.4138020833333,155.86461149398238L232.30729166666669,180.21891103601084L233.20078125,102.02877583689987L234.09427083333333,171.98478979300708L234.98776041666667,169.73039430342615L235.88125,150.36699908562005L236.77473958333331,144.66146057713777L237.6682291666667,170.3342553159222L238.56171875,120.15818936526775L239.45520833333333,113.42183539420365L240.34869791666665,198.85854382775725L241.2421875,175.0113809645176L242.13567708333332,164.92186318393797L243.02916666666667,194.79142375532538L243.92265625000002,175.16436040643603L244.81614583333334,75.80584689751268L245.70963541666666,145.93950509335846L246.603125,195.61560508338735L247.49661458333333,158.64453408177943L248.39010416666665,158.3431166527793L249.28359375000002,143.10736401714385L250.17708333333334,168.67167897764594" style="fill: none;" fill="none"></path></g><g><path stroke="rgb(0, 119, 187)" stroke-width="2px" d="M17.869791666666668,-105.65609967559573L26.8046875,38.6748956680298L35.739583333333336,71.34450629130006L44.674479166666664,102.8187746811658L53.609375,111.60161864720284L62.544270833333336,113.21100803799926L71.47916666666667,114.45787229351698L80.4140625,109.76348334699868L89.34895833333333,122.88921919427811L98.28385416666666,119.54550507254898L107.21875,110.85187473110854L116.15364583333334,122.67539167553186L125.08854166666667,111.94929132945835L134.0234375,125.18773108497261L142.95833333333334,120.26774475127458L151.89322916666666,120.72166769541799L160.828125,106.69185264743864L169.76302083333331,120.86399408765136L178.69791666666666,127.3276299867779L187.6328125,115.02191109359264L196.56770833333331,113.46925279833376L205.50260416666669,118.09207468070089L214.4375,121.75050090774893L223.37239583333334,119.79162554964422L232.30729166666669,111.94174146987497L241.2421875,89.94391506314277L250.17708333333334,110.90211921148001" style="fill: none;" fill="none"></path></g></g></g></g></g></g><g transform="translate(61, 177)" clip-path="url(#clip_1)"><clipPath id="clip_1"><rect width="268" height="22"></rect></clipPath><g><g><line x1="0" y1="0" x2="0" y2="5" style="visibility: inherit;" fill="rgb(0, 0, 0)" stroke="rgb(204, 204, 204)" stroke-width="1px"></line><line x1="17.869791666666668" y1="0" x2="17.869791666666668" y2="5" style="visibility: inherit;" fill="rgb(0, 0, 0)" stroke="rgb(204, 204, 204)" stroke-width="1px"></line><line x1="35.739583333333336" y1="0" x2="35.739583333333336" y2="5" style="visibility: inherit;" fill="rgb(0, 0, 0)" stroke="rgb(204, 204, 204)" stroke-width="1px"></line><line x1="53.609375" y1="0" x2="53.609375" y2="5" style="visibility: inherit;" fill="rgb(0, 0, 0)" stroke="rgb(204, 204, 204)" stroke-width="1px"></line><line x1="71.47916666666667" y1="0" x2="71.47916666666667" y2="5" style="visibility: inherit;" fill="rgb(0, 0, 0)" stroke="rgb(204, 204, 204)" stroke-width="1px"></line><line x1="89.34895833333333" y1="0" x2="89.34895833333333" y2="5" style="visibility: inherit;" fill="rgb(0, 0, 0)" stroke="rgb(204, 204, 204)" stroke-width="1px"></line><line x1="107.21875" y1="0" x2="107.21875" y2="5" style="visibility: inherit;" fill="rgb(0, 0, 0)" stroke="rgb(204, 204, 204)" stroke-width="1px"></line><line x1="125.08854166666667" y1="0" x2="125.08854166666667" y2="5" style="visibility: inherit;" fill="rgb(0, 0, 0)" stroke="rgb(204, 204, 204)" stroke-width="1px"></line><line x1="142.95833333333334" y1="0" x2="142.95833333333334" y2="5" style="visibility: inherit;" fill="rgb(0, 0, 0)" stroke="rgb(204, 204, 204)" stroke-width="1px"></line><line x1="160.828125" y1="0" x2="160.828125" y2="5" style="visibility: inherit;" fill="rgb(0, 0, 0)" stroke="rgb(204, 204, 204)" stroke-width="1px"></line><line x1="178.69791666666666" y1="0" x2="178.69791666666666" y2="5" style="visibility: inherit;" fill="rgb(0, 0, 0)" stroke="rgb(204, 204, 204)" stroke-width="1px"></line><line x1="196.56770833333331" y1="0" x2="196.56770833333331" y2="5" style="visibility: inherit;" fill="rgb(0, 0, 0)" stroke="rgb(204, 204, 204)" stroke-width="1px"></line><line x1="214.4375" y1="0" x2="214.4375" y2="5" style="visibility: inherit;" fill="rgb(0, 0, 0)" stroke="rgb(204, 204, 204)" stroke-width="1px"></line><line x1="232.30729166666669" y1="0" x2="232.30729166666669" y2="5" style="visibility: inherit;" fill="rgb(0, 0, 0)" stroke="rgb(204, 204, 204)" stroke-width="1px"></line><line x1="250.17708333333334" y1="0" x2="250.17708333333334" y2="5" style="visibility: inherit;" fill="rgb(0, 0, 0)" stroke="rgb(204, 204, 204)" stroke-width="1px"></line><line x1="268.046875" y1="0" x2="268.046875" y2="5" style="visibility: inherit;" fill="rgb(0, 0, 0)" stroke="rgb(204, 204, 204)" stroke-width="1px"></line></g><g transform="translate(0, 8)"><text x="0" y="0" dx="0em" dy="0.95em" style="text-anchor: middle; visibility: hidden; font-family: Roboto, sans-serif; font-size: 12px; font-weight: 200;" fill="rgb(255, 255, 255)" stroke="none" stroke-width="1px">-2k</text><text x="17.869791666666668" y="0" dx="0em" dy="0.95em" style="text-anchor: middle; visibility: inherit; font-family: Roboto, sans-serif; font-size: 12px; font-weight: 200;" fill="rgb(255, 255, 255)" stroke="none" stroke-width="1px">0</text><text x="35.739583333333336" y="0" dx="0em" dy="0.95em" style="text-anchor: middle; visibility: hidden; font-family: Roboto, sans-serif; font-size: 12px; font-weight: 200;" fill="rgb(255, 255, 255)" stroke="none" stroke-width="1px">2k</text><text x="53.609375" y="0" dx="0em" dy="0.95em" style="text-anchor: middle; visibility: inherit; font-family: Roboto, sans-serif; font-size: 12px; font-weight: 200;" fill="rgb(255, 255, 255)" stroke="none" stroke-width="1px">4k</text><text x="71.47916666666667" y="0" dx="0em" dy="0.95em" style="text-anchor: middle; visibility: hidden; font-family: Roboto, sans-serif; font-size: 12px; font-weight: 200;" fill="rgb(255, 255, 255)" stroke="none" stroke-width="1px">6k</text><text x="89.34895833333333" y="0" dx="0em" dy="0.95em" style="text-anchor: middle; visibility: inherit; font-family: Roboto, sans-serif; font-size: 12px; font-weight: 200;" fill="rgb(255, 255, 255)" stroke="none" stroke-width="1px">8k</text><text x="107.21875" y="0" dx="0em" dy="0.95em" style="text-anchor: middle; visibility: hidden; font-family: Roboto, sans-serif; font-size: 12px; font-weight: 200;" fill="rgb(255, 255, 255)" stroke="none" stroke-width="1px">10k</text><text x="125.08854166666667" y="0" dx="0em" dy="0.95em" style="text-anchor: middle; visibility: inherit; font-family: Roboto, sans-serif; font-size: 12px; font-weight: 200;" fill="rgb(255, 255, 255)" stroke="none" stroke-width="1px">12k</text><text x="142.95833333333334" y="0" dx="0em" dy="0.95em" style="text-anchor: middle; visibility: hidden; font-family: Roboto, sans-serif; font-size: 12px; font-weight: 200;" fill="rgb(255, 255, 255)" stroke="none" stroke-width="1px">14k</text><text x="160.828125" y="0" dx="0em" dy="0.95em" style="text-anchor: middle; visibility: inherit; font-family: Roboto, sans-serif; font-size: 12px; font-weight: 200;" fill="rgb(255, 255, 255)" stroke="none" stroke-width="1px">16k</text><text x="178.69791666666666" y="0" dx="0em" dy="0.95em" style="text-anchor: middle; visibility: hidden; font-family: Roboto, sans-serif; font-size: 12px; font-weight: 200;" fill="rgb(255, 255, 255)" stroke="none" stroke-width="1px">18k</text><text x="196.56770833333331" y="0" dx="0em" dy="0.95em" style="text-anchor: middle; visibility: inherit; font-family: Roboto, sans-serif; font-size: 12px; font-weight: 200;" fill="rgb(255, 255, 255)" stroke="none" stroke-width="1px">20k</text><text x="214.4375" y="0" dx="0em" dy="0.95em" style="text-anchor: middle; visibility: hidden; font-family: Roboto, sans-serif; font-size: 12px; font-weight: 200;" fill="rgb(255, 255, 255)" stroke="none" stroke-width="1px">22k</text><text x="232.30729166666669" y="0" dx="0em" dy="0.95em" style="text-anchor: middle; visibility: inherit; font-family: Roboto, sans-serif; font-size: 12px; font-weight: 200;" fill="rgb(255, 255, 255)" stroke="none" stroke-width="1px">24k</text><text x="250.17708333333334" y="0" dx="0em" dy="0.95em" style="text-anchor: middle; visibility: hidden; font-family: Roboto, sans-serif; font-size: 12px; font-weight: 200;" fill="rgb(255, 255, 255)" stroke="none" stroke-width="1px">26k</text><text x="268.046875" y="0" dx="0em" dy="0.95em" style="text-anchor: middle; visibility: hidden; font-family: Roboto, sans-serif; font-size: 12px; font-weight: 200;" fill="rgb(255, 255, 255)" stroke="none" stroke-width="1px">28k</text></g><line x1="0" y1="0" x2="268.046875" y2="0" fill="rgb(0, 0, 0)" stroke="rgb(204, 204, 204)" stroke-width="1px"></line></g></g></g></g></svg>