<svg viewBox="0 0 330 200" xmlns="http://www.w3.org/2000/svg"><g><g><g><g><g><line x1="51.5625" y1="177" x2="46.5625" y2="177" style="visibility: inherit;" fill="rgb(0, 0, 0)" stroke="rgb(204, 204, 204)" stroke-width="1px"></line><line x1="51.5625" y1="162.25" x2="46.5625" y2="162.25" style="visibility: inherit;" fill="rgb(0, 0, 0)" stroke="rgb(204, 204, 204)" stroke-width="1px"></line><line x1="51.5625" y1="147.49999999999997" x2="46.5625" y2="147.49999999999997" style="visibility: inherit;" fill="rgb(0, 0, 0)" stroke="rgb(204, 204, 204)" stroke-width="1px"></line><line x1="51.5625" y1="132.74999999999997" x2="46.5625" y2="132.74999999999997" style="visibility: inherit;" fill="rgb(0, 0, 0)" stroke="rgb(204, 204, 204)" stroke-width="1px"></line><line x1="51.5625" y1="117.99999999999993" x2="46.5625" y2="117.99999999999993" style="visibility: inherit;" fill="rgb(0, 0, 0)" stroke="rgb(204, 204, 204)" stroke-width="1px"></line><line x1="51.5625" y1="103.2500000000001" x2="46.5625" y2="103.2500000000001" style="visibility: inherit;" fill="rgb(0, 0, 0)" stroke="rgb(204, 204, 204)" stroke-width="1px"></line><line x1="51.5625" y1="88.50000000000009" x2="46.5625" y2="88.50000000000009" style="visibility: inherit;" fill="rgb(0, 0, 0)" stroke="rgb(204, 204, 204)" stroke-width="1px"></line><line x1="51.5625" y1="73.75000000000007" x2="46.5625" y2="73.75000000000007" style="visibility: inherit;" fill="rgb(0, 0, 0)" stroke="rgb(204, 204, 204)" stroke-width="1px"></line><line x1="51.5625" y1="59.00000000000004" x2="46.5625" y2="59.00000000000004" style="visibility: inherit;" fill="rgb(0, 0, 0)" stroke="rgb(204, 204, 204)" stroke-width="1px"></line><line x1="51.5625" y1="44.25000000000004" x2="46.5625" y2="44.25000000000004" style="visibility: inherit;" fill="rgb(0, 0, 0)" stroke="rgb(204, 204, 204)" stroke-width="1px"></line><line x1="51.5625" y1="29.500000000000032" x2="46.5625" y2="29.500000000000032" style="visibility: inherit;" fill="rgb(0, 0, 0)" stroke="rgb(204, 204, 204)" stroke-width="1px"></line><line x1="51.5625" y1="14.750000000000007" x2="46.5625" y2="14.750000000000007" style="visibility: inherit;" fill="rgb(0, 0, 0)" stroke="rgb(204, 204, 204)" stroke-width="1px"></line><line x1="51.5625" y1="0" x2="46.5625" y2="0" style="visibility: inherit;" fill="rgb(0, 0, 0)" stroke="rgb(204, 204, 204)" stroke-width="1px"></line></g><g transform="translate(41.5625, 0)"><text x="0" y="177" dx="0em" dy="0.3em" style="text-anchor: end; visibility: hidden; font-family: Roboto, sans-serif; font-size: 12px; font-weight: 200;" fill="rgb(255, 255, 255)" stroke="none" stroke-width="1px">1.28</text><text x="0" y="162.25" dx="0em" dy="0.3em" style="text-anchor: end; visibility: inherit; font-family: Roboto, sans-serif; font-size: 12px; font-weight: 200;" fill="rgb(255, 255, 255)" stroke="none" stroke-width="1px">1.3</text><text x="0" y="147.49999999999997" dx="0em" dy="0.3em" style="text-anchor: end; visibility: hidden; font-family: Roboto, sans-serif; font-size: 12px; font-weight: 200;" fill="rgb(255, 255, 255)" stroke="none" stroke-width="1px">1.32</text><text x="0" y="132.74999999999997" dx="0em" dy="0.3em" style="text-anchor: end; visibility: inherit; font-family: Roboto, sans-serif; font-size: 12px; font-weight: 200;" fill="rgb(255, 255, 255)" stroke="none" stroke-width="1px">1.34</text><text x="0" y="117.99999999999993" dx="0em" dy="0.3em" style="text-anchor: end; visibility: hidden; font-family: Roboto, sans-serif; font-size: 12px; font-weight: 200;" fill="rgb(255, 255, 255)" stroke="none" stroke-width="1px">1.36</text><text x="0" y="103.2500000000001" dx="0em" dy="0.3em" style="text-anchor: end; visibility: inherit; font-family: Roboto, sans-serif; font-size: 12px; font-weight: 200;" fill="rgb(255, 255, 255)" stroke="none" stroke-width="1px">1.38</text><text x="0" y="88.50000000000009" dx="0em" dy="0.3em" style="text-anchor: end; visibility: hidden; font-family: Roboto, sans-serif; font-size: 12px; font-weight: 200;" fill="rgb(255, 255, 255)" stroke="none" stroke-width="1px">1.4</text><text x="0" y="73.75000000000007" dx="0em" dy="0.3em" style="text-anchor: end; visibility: inherit; font-family: Roboto, sans-serif; font-size: 12px; font-weight: 200;" fill="rgb(255, 255, 255)" stroke="none" stroke-width="1px">1.42</text><text x="0" y="59.00000000000004" dx="0em" dy="0.3em" style="text-anchor: end; visibility: hidden; font-family: Roboto, sans-serif; font-size: 12px; font-weight: 200;" fill="rgb(255, 255, 255)" stroke="none" stroke-width="1px">1.44</text><text x="0" y="44.25000000000004" dx="0em" dy="0.3em" style="text-anchor: end; visibility: inherit; font-family: Roboto, sans-serif; font-size: 12px; font-weight: 200;" fill="rgb(255, 255, 255)" stroke="none" stroke-width="1px">1.46</text><text x="0" y="29.500000000000032" dx="0em" dy="0.3em" style="text-anchor: end; visibility: hidden; font-family: Roboto, sans-serif; font-size: 12px; font-weight: 200;" fill="rgb(255, 255, 255)" stroke="none" stroke-width="1px">1.48</text><text x="0" y="14.750000000000007" dx="0em" dy="0.3em" style="text-anchor: end; visibility: inherit; font-family: Roboto, sans-serif; font-size: 12px; font-weight: 200;" fill="rgb(255, 255, 255)" stroke="none" stroke-width="1px">1.5</text><text x="0" y="0" dx="0em" dy="0.3em" style="text-anchor: end; visibility: hidden; font-family: Roboto, sans-serif; font-size: 12px; font-weight: 200;" fill="rgb(255, 255, 255)" stroke="none" stroke-width="1px">1.52</text></g><line x1="51.5625" y1="0" x2="51.5625" y2="177" fill="rgb(0, 0, 0)" stroke="rgb(204, 204, 204)" stroke-width="1px"></line></g></g><g transform="translate(51, 0)" clip-path="url(#clip_0)"><clipPath id="clip_0"><rect width="278" height="176"></rect></clipPath><g><g><g><line x1="0" y1="0" x2="0" y2="177" fill="rgb(0, 0, 0)" stroke="rgb(189, 189, 189)" stroke-width="1px" opacity="0.25"></line><line x1="18.5625" y1="0" x2="18.5625" y2="177" fill="rgb(0, 0, 0)" stroke="rgb(189, 189, 189)" stroke-width="1px" opacity="0.25"></line><line x1="37.125" y1="0" x2="37.125" y2="177" fill="rgb(0, 0, 0)" stroke="rgb(189, 189, 189)" stroke-width="1px" opacity="0.25"></line><line x1="55.6875" y1="0" x2="55.6875" y2="177" fill="rgb(0, 0, 0)" stroke="rgb(189, 189, 189)" stroke-width="1px" opacity="0.25"></line><line x1="74.25" y1="0" x2="74.25" y2="177" fill="rgb(0, 0, 0)" stroke="rgb(189, 189, 189)" stroke-width="1px" opacity="0.25"></line><line x1="92.8125" y1="0" x2="92.8125" y2="177" fill="rgb(0, 0, 0)" stroke="rgb(189, 189, 189)" stroke-width="1px" opacity="0.25"></line><line x1="111.375" y1="0" x2="111.375" y2="177" fill="rgb(0, 0, 0)" stroke="rgb(189, 189, 189)" stroke-width="1px" opacity="0.25"></line><line x1="129.9375" y1="0" x2="129.9375" y2="177" fill="rgb(0, 0, 0)" stroke="rgb(189, 189, 189)" stroke-width="1px" opacity="0.25"></line><line x1="148.5" y1="0" x2="148.5" y2="177" fill="rgb(0, 0, 0)" stroke="rgb(189, 189, 189)" stroke-width="1px" opacity="0.25"></line><line x1="167.0625" y1="0" x2="167.0625" y2="177" fill="rgb(0, 0, 0)" stroke="rgb(189, 189, 189)" stroke-width="1px" opacity="0.25"></line><line x1="185.625" y1="0" x2="185.625" y2="177" fill="rgb(0, 0, 0)" stroke="rgb(189, 189, 189)" stroke-width="1px" opacity="0.25"></line><line x1="204.18749999999997" y1="0" x2="204.18749999999997" y2="177" fill="rgb(0, 0, 0)" stroke="rgb(189, 189, 189)" stroke-width="1px" opacity="0.25"></line><line x1="222.75" y1="0" x2="222.75" y2="177" fill="rgb(0, 0, 0)" stroke="rgb(189, 189, 189)" stroke-width="1px" opacity="0.25"></line><line x1="241.3125" y1="0" x2="241.3125" y2="177" fill="rgb(0, 0, 0)" stroke="rgb(189, 189, 189)" stroke-width="1px" opacity="0.25"></line><line x1="259.875" y1="0" x2="259.875" y2="177" fill="rgb(0, 0, 0)" stroke="rgb(189, 189, 189)" stroke-width="1px" opacity="0.25"></line><line x1="278.4375" y1="0" x2="278.4375" y2="177" fill="rgb(0, 0, 0)" stroke="rgb(189, 189, 189)" stroke-width="1px" opacity="0.25"></line></g><g><line x1="0" y1="177" x2="278.4375" y2="177" fill="rgb(0, 0, 0)" stroke="rgb(189, 189, 189)" stroke-width="1px" opacity="0.25"></line><line x1="0" y1="162.25" x2="278.4375" y2="162.25" fill="rgb(0, 0, 0)" stroke="rgb(189, 189, 189)" stroke-width="1px" opacity="0.25"></line><line x1="0" y1="147.49999999999997" x2="278.4375" y2="147.49999999999997" fill="rgb(0, 0, 0)" stroke="rgb(189, 189, 189)" stroke-width="1px" opacity="0.25"></line><line x1="0" y1="132.74999999999997" x2="278.4375" y2="132.74999999999997" fill="rgb(0, 0, 0)" stroke="rgb(189, 189, 189)" stroke-width="1px" opacity="0.25"></line><line x1="0" y1="117.99999999999993" x2="278.4375" y2="117.99999999999993" fill="rgb(0, 0, 0)" stroke="rgb(189, 189, 189)" stroke-width="1px" opacity="0.25"></line><line x1="0" y1="103.2500000000001" x2="278.4375" y2="103.2500000000001" fill="rgb(0, 0, 0)" stroke="rgb(189, 189, 189)" stroke-width="1px" opacity="0.25"></line><line x1="0" y1="88.50000000000009" x2="278.4375" y2="88.50000000000009" fill="rgb(0, 0, 0)" stroke="rgb(189, 189, 189)" stroke-width="1px" opacity="0.25"></line><line x1="0" y1="73.75000000000007" x2="278.4375" y2="73.75000000000007" fill="rgb(0, 0, 0)" stroke="rgb(189, 189, 189)" stroke-width="1px" opacity="0.25"></line><line x1="0" y1="59.00000000000004" x2="278.4375" y2="59.00000000000004" fill="rgb(0, 0, 0)" stroke="rgb(189, 189, 189)" stroke-width="1px" opacity="0.25"></line><line x1="0" y1="44.25000000000004" x2="278.4375" y2="44.25000000000004" fill="rgb(0, 0, 0)" stroke="rgb(189, 189, 189)" stroke-width="1px" opacity="0.25"></line><line x1="0" y1="29.500000000000032" x2="278.4375" y2="29.500000000000032" fill="rgb(0, 0, 0)" stroke="rgb(189, 189, 189)" stroke-width="1px" opacity="0.25"></line><line x1="0" y1="14.750000000000007" x2="278.4375" y2="14.750000000000007" fill="rgb(0, 0, 0)" stroke="rgb(189, 189, 189)" stroke-width="1px" opacity="0.25"></line><line x1="0" y1="0" x2="278.4375" y2="0" fill="rgb(0, 0, 0)" stroke="rgb(189, 189, 189)" stroke-width="1px" opacity="0.25"></line></g></g></g><g><g><line x1="0" y1="1121" x2="278.4375" y2="1121" fill="rgb(0, 0, 0)" stroke="rgb(153, 153, 153)" stroke-width="1.5px"></line></g></g><g><g><line x1="18.5625" y1="0" x2="18.5625" y2="177" fill="rgb(0, 0, 0)" stroke="rgb(153, 153, 153)" stroke-width="1.5px"></line></g></g><g><g><g><g><g><path stroke="rgb(255, 112, 67)" stroke-width="2px" d="M20.41875,182.7336009629071L21.346874999999997,93.44529470193133L22.275000000000002,236.35852061968075L23.203125,136.84765958825304L24.13125,82.28869661941282L25.059375,51.51036559997999L25.9875,33.569120682971125L26.915625,22.637306670006847L27.84375,16.450986913159966L28.771875,167.27616662911825L29.700000000000003,102.90225889903941L30.628125,64.590081849822L31.55625,42.02379291384587L32.484375,28.096856697694086L33.4125,19.0034684717521L34.340625,15.078843614041773L35.268750000000004,20.794005527023497L36.196875,16.720012590265423L37.125,17.249478508532082L38.053124999999994,168.77330943769758L38.98125,104.08389925188446L39.909375000000004,64.7238454414818L40.8375,41.261374974309355L41.765625,27.26414424175981L42.693749999999994,19.200373043031682L43.621875,13.970150237338988L44.550000000000004,11.096192696141369L45.478125,30.757390196538196L46.40625,23.353622215601764L47.334375,174.06591644118512L48.2625,108.51544582231647L49.190625,69.90453766616825L50.11875,53.47052593133742L51.04687499999999,34.70551353085822L51.975,23.212049636242803L52.903125,16.86249769155459L53.83125,13.231132257950573L54.759375,11.054845011733693L55.6875,9.287720198952881L56.615625,164.34778059969852L57.54375,102.41811111241867L58.471875,64.40857098596688L59.400000000000006,41.40440100090947L60.328125,28.128028615866324L61.25625,21.764894213609846L62.184374999999996,29.383096889740862L63.1125,20.88338508353625L64.040625,17.260420430528008L64.96875,14.419141738884743L65.896875,168.35846410425054L66.825,104.89379972339003L67.753125,66.93977268999336L68.68125,43.210469463237224L69.609375,28.937298785896957L70.53750000000001,20.91605435088067L71.465625,17.56596275731711L72.39375,14.79314120152427L73.32187499999999,18.692615601652133L74.25,14.579062708159217L75.17812500000001,167.14566885706625L76.10624999999999,103.63183428810039L77.034375,65.74733468273828L77.9625,42.30700526463699L78.890625,30.36810957090684L79.81875000000001,28.124810139516498L80.74687499999999,24.17075951110099L81.675,18.497438211505354L82.603125,16.142750632324663L83.53125,13.591063196396027L84.45937500000001,167.6956475466104L85.38749999999999,104.04337317285604L86.315625,65.98163315378216L87.24375,44.98008199168804L88.171875,32.397824833593056L89.10000000000001,23.701858967424084L90.02812499999999,17.957165175605077L90.95625,13.561901911454367L91.884375,11.183043661330299L92.8125,9.810026158460499L93.740625,166.8023086247258L94.66875,103.22768873318503L95.596875,64.70803934541016L96.525,41.72260381106545L97.453125,28.484304316782968L98.38125,19.60093081470965L99.309375,14.469071295718262L100.2375,11.19020849875213L101.165625,9.882267203400213L102.09374999999999,8.363326386493265L103.021875,164.09534957163444L103.95,101.59858995767179L104.878125,63.71788488681153L105.80625,41.00036353382487L106.73437500000001,27.228058424669562L107.6625,23.637174658225774L108.590625,19.97785957589549L109.51875,16.92680439910175L110.446875,13.045106324916452L111.375,12.370752950528479L112.303125,168.0869156718368L113.23125,106.97711104155275L114.159375,67.94348679781373L115.0875,42.827009360792744L116.015625,28.715416574956514L116.94375,18.78091765909288L117.871875,13.282731279545317L118.80000000000001,10.390276637562138L119.72812499999999,8.80834184103497L120.65625,7.55024114855108L121.584375,162.76427032713883L122.5125,100.4334698090839L123.44062500000001,63.0500408631497L124.36874999999999,40.07352751624183L125.296875,26.853628195116467L126.225,18.898408220284846L127.153125,16.549178985401134L128.08125,13.480228464391296L129.009375,11.903663707129015L129.9375,12.042161627025493L130.865625,168.23872044289763L131.79375,104.39893280628127L132.721875,70.21959137417562L133.65,49.00787803827338L134.578125,34.50999365626939L135.50625,26.655088963384504L136.434375,20.759242500230716L137.3625,16.18326077781018L138.290625,13.727129184734077L139.21875,13.565028979498862L140.146875,169.6697260225526L141.07500000000002,105.59271035699317L142.003125,67.2099065906302L142.93125,46.1669341639576L143.85937500000003,31.835774798148762L144.7875,24.07285193142531L145.715625,20.94270624838616L146.64374999999998,14.713543546929005L147.571875,19.210549195250366L148.5,14.120831751609114L149.428125,166.80899507032888L150.35625000000002,102.77797931568064L151.284375,68.78316997370852L152.21249999999998,44.33549787331658L153.140625,29.566458402449147L154.06875,20.641277419551713L154.996875,14.722410814180682L155.925,11.536930451521165L156.853125,13.188173705177707L157.78125,11.481103166244822L158.709375,167.18754995125673L159.63750000000002,102.94571561967223L160.565625,65.43747119519045L161.49374999999998,45.23183152921759L162.421875,31.68982142119269L163.35,21.515203225068117L164.278125,16.279894797475308L165.20625,12.540031152052313L166.134375,10.166840027023978L167.0625,9.747744625955626L167.99062500000002,164.06139103540778L168.91875000000002,101.83043069821001L169.84687499999998,65.64061123836879L170.77499999999998,42.97257556145695L171.703125,34.623484835775606L172.63125,24.821823516936348L173.559375,18.045587014824843L174.4875,14.021306700510065L175.415625,12.018048707844228L176.34375,10.553398361326083L177.27187500000002,166.3056523028141L178.20000000000002,102.62567846912889L179.12812499999998,64.69554658495646L180.05624999999998,41.70519113399537L180.984375,28.33340074931348L181.9125,21.77656859347078L182.840625,16.83923252933541L183.76875,12.903134182174918L184.696875,10.843627807545559L185.625,9.260722754626252L186.55312500000002,164.20536857737832L187.48125,101.75114670928556L188.40937499999998,63.72617926321159L189.3375,45.36165529562061L190.265625,31.909191477734012L191.19375,22.168699686788486L192.121875,15.897269383110421L193.05,12.867672905348337L193.978125,10.363811913146076L194.90625,8.786238493331304L195.83437500000002,163.01390361893652L196.7625,100.10181710784721L197.69062499999998,62.90478402176545L198.61875,40.28261803268814L199.546875,27.21160499262477L200.475,18.889076662109332L201.40312500000002,13.339116330174225L202.33125,10.887675640122671L203.259375,9.619125483713495L204.18749999999997,7.950236319471483L205.115625,162.70475230155532L206.04375,100.22333196126317L206.97187499999998,63.07492897106936L207.9,40.269533927403344L208.828125,26.69995580623296L209.75625,18.375482550321486L210.68437500000002,14.004937905704036L211.6125,11.207902752539484L212.540625,9.322549559581928L213.46875000000003,8.112142144387096L214.396875,162.2999784938962L215.325,100.31543087914415L216.25312499999998,62.956710791318585L217.18125,39.979760393934775L218.109375,26.761814347170052L219.0375,18.612942595042146L219.96562500000002,13.450268470500308L220.89375,10.119227172883948L221.82187499999998,8.418535019131074L222.75,8.00284699509834L223.678125,163.09498429244925L224.60625,100.40176703897824L225.534375,62.94992469768356L226.4625,40.55295078170673L227.390625,27.478988362624502L228.31875,19.023694296642567L229.24687500000002,14.453331911542545L230.175,11.802794172751L231.10312499999998,9.869033142558951L232.03125,8.651560237784558L232.959375,163.3945898001072L233.8875,100.89075149206381L234.815625,65.38096085255187L235.74375,42.058942073970215L236.671875,35.565847035878484L237.60000000000002,29.034981320281844L238.52812500000002,23.137559074151493L239.45624999999998,18.062213670008184L240.38437499999998,15.054142505403012L241.3125,13.531196397826534L242.240625,168.65100754635654L243.16875,104.8618420203752L244.096875,67.96962193490424L245.025,44.800000881203005L245.953125,29.28913887444013L246.88125000000002,20.130532980578387L247.80937500000002,14.395321274171655L248.73749999999998,11.68798345587869L249.66562499999998,9.909691108836128L250.59375,8.6369551024279L251.521875,163.19638348826422L252.45,101.24225319152262L253.378125,63.53038754895441L254.30625,41.322807376594L255.234375,29.102283921844123L256.1625,22.303836135271883L257.090625,16.137234585406535L258.01875,13.738759551597989L258.94687500000003,11.456938763948305L259.875,10.136974227721742" style="fill: none;" fill="none"></path></g></g></g></g><g opacity="0.2"><g><g><g><path stroke="rgb(255, 112, 67)" stroke-width="2px" d="M19.490625,475.668290168047L20.41875,6.972787439823157L21.346874999999997,7.728520691394819L22.275000000000002,404.424474298954L23.203125,6.926279425621052L24.13125,6.8140096068382325L25.059375,7.4968597888946595L25.9875,7.410613358020789L26.915625,6.515004396438612L27.84375,7.2650230526924195L28.771875,392.1459629237652L29.700000000000003,6.691717267036451L30.628125,7.246912181377424L31.55625,8.218569219112409L32.484375,7.222822964191443L33.4125,5.3697994947433605L34.340625,9.19356709718705L35.268750000000004,29.365297317504897L36.196875,10.609643816947944L37.125,18.0436289906502L38.053124999999994,396.05074590444565L38.98125,7.051912605762488L39.909375000000004,5.684541821479817L40.8375,6.0679472088813915L41.765625,6.26839762926103L42.693749999999994,7.104750633239759L43.621875,6.124829411506659L44.550000000000004,6.785260796546942L45.478125,60.24916833639146L46.40625,12.247974336147328L47.334375,400.1343078017235L48.2625,10.189752936363227L49.190625,11.988180041313191L50.11875,28.819509506225593L51.04687499999999,6.557995736598982L51.975,5.971854090690619L52.903125,7.338169872760786L53.83125,7.784084141254431L54.759375,7.790414154529578L55.6875,6.637032985687262L56.615625,396.9378708899021L57.54375,9.523606956005109L58.471875,7.39426082372666L59.400000000000006,6.898146033287055L60.328125,8.213470041751869L61.25625,12.220192611217511L62.184374999999996,40.81040090322495L63.1125,8.133817374706275L64.040625,11.825973451137562L64.96875,10.15722370147707L65.896875,399.2674476504326L66.825,9.696803152561195L67.753125,10.008732140064259L68.68125,7.61651462316515L69.609375,7.527542769908918L70.53750000000001,8.884187698364265L71.465625,12.540825366973884L72.39375,10.633908867836006L73.32187499999999,24.541827201843276L74.25,8.408733367919934L75.17812500000001,395.9955780804158L76.10624999999999,8.361082434654255L77.034375,8.920585274696357L77.9625,7.146511137485524L78.890625,12.459766030311604L79.81875000000001,24.759860992431648L80.74687499999999,18.239683568477638L81.675,9.987456262111671L82.603125,12.610719263553626L83.53125,9.763532042503364L84.45937500000001,398.8525240719319L85.38749999999999,8.564961612224598L86.315625,8.889023125171674L87.24375,13.477755248546613L88.171875,13.524439096450818L89.10000000000001,10.657910168170936L90.02812499999999,9.340124487876912L90.95625,6.969007015228291L91.884375,7.614756286144263L92.8125,7.750499904155751L93.740625,402.2907323241234L94.66875,7.865758895874043L95.596875,6.928565263748182L96.525,7.2444505095481935L97.453125,8.626855075359357L98.38125,6.275870561599751L99.309375,6.771282017230994L100.2375,6.271914303302784L101.165625,7.920355260372181L102.09374999999999,6.084915161132832L103.021875,397.69338434934616L103.95,7.8534505367279115L104.878125,6.896827280521399L105.80625,6.9240815043449535L106.73437500000001,6.56960076093675L107.6625,18.250849008560195L108.590625,14.488886952400215L109.51875,12.350221633911145L110.446875,7.222559213638312L111.375,11.35922288894654L112.303125,401.66115975379944L113.23125,15.312404096126569L114.159375,9.393050432205213L115.0875,5.15229320526125L116.015625,7.548027396202094L116.94375,3.8791692852974133L117.871875,5.035451710224171L118.80000000000001,6.051594674587263L119.72812499999999,6.435439646244069L120.65625,5.663090109825148L121.584375,395.58531409502035L122.5125,6.937269032001509L123.44062500000001,6.974897444248206L124.36874999999999,5.60875749588014L125.296875,7.023779213428511L126.225,6.965578258037587L127.153125,13.025335133075721L128.08125,8.876802682876594L129.009375,9.538816571235664L129.9375,12.249908506870277L130.865625,402.53355866670614L131.79375,8.639251351356519L132.721875,18.950579226017013L133.65,17.190308034420028L134.578125,12.763167083263404L135.50625,14.87273192405702L136.434375,11.915472805500038L137.3625,9.319288194179554L138.290625,10.042931795120252L139.21875,13.32187867164613L140.146875,403.8267715871334L141.07500000000002,9.477186858654035L142.003125,9.635700941085828L142.93125,14.602475523948689L143.85937500000003,10.339035749435432L144.7875,12.428467631340034L145.715625,16.247487723827383L146.64374999999998,5.3697994947433605L147.571875,25.956057667732253L148.5,6.486255586147322L149.428125,395.8412400484085L150.35625000000002,6.731455683708197L151.284375,17.7909559607506L152.21249999999998,7.663989722728749L153.140625,7.412899196147938L154.06875,7.253505945205702L154.996875,5.8441109061241345L155.925,6.758709907531752L156.853125,15.665038585662854L157.78125,8.920497357845326L158.709375,400.74722012877464L159.63750000000002,6.582964122295386L160.565625,9.175104558467872L161.49374999999998,14.923372030258191L162.421875,11.376806259155293L163.35,6.2532759308815065L164.278125,8.42693215608598L165.20625,6.930235683918019L166.134375,6.607053339481367L167.0625,9.119101524353047L167.99062500000002,395.5318606495857L168.91875000000002,8.48399019241335L169.84687499999998,11.355882048606885L170.77499999999998,8.970522046089185L171.703125,22.09984874725344L172.63125,10.119331538677223L173.559375,7.881232261657728L174.4875,7.984886229038252L175.415625,9.013161718845375L176.34375,8.356422841548927L177.27187500000002,399.934033215046L178.20000000000002,7.105717718601233L179.12812499999998,7.800348758697529L180.05624999999998,7.21965795755387L180.984375,8.275715172290809L181.9125,11.941320359706886L182.840625,9.433228433132191L183.76875,6.998986661434187L184.696875,7.754368245601667L185.625,6.886365175247206L186.55312500000002,396.62233731150627L187.48125,8.069813907146466L188.40937499999998,6.688728094100958L189.3375,17.81486934423448L190.265625,11.730495750904103L191.19375,7.557962000370045L192.121875,6.490123927593237L193.05,8.323278188705457L193.978125,6.608020424842841L194.90625,6.4198783636093335L195.83437500000002,394.35540130734444L196.7625,5.7336873412132325L197.69062499999998,7.109234392642988L198.61875,6.349369049072279L199.546875,7.605085432529463L200.475,6.405284166336073L201.40312500000002,5.014175832271582L202.33125,7.210514605045332L203.259375,7.716300249099738L204.18749999999997,5.446902573108693L205.115625,394.83652627468115L206.04375,6.501201450824744L206.97187499999998,7.352324485778815L207.9,6.061441361904164L208.828125,6.345588624477393L209.75625,5.888772666454321L210.68437500000002,7.44912093877793L211.6125,7.012350022792822L212.540625,6.494519770145436L213.46875000000003,6.296531021595007L214.396875,393.5817330181599L215.325,7.338609457015997L216.25312499999998,6.91863065958025L217.18125,5.514334797859205L218.109375,6.934895277023329L219.0375,6.389634966850287L219.96562500000002,5.706257283687598L220.89375,5.1226652264595165L221.82187499999998,5.867496788501753L222.75,7.379314959049238L223.678125,395.7331902384758L224.60625,6.361941158771521L225.534375,6.772161185741438L226.4625,6.957489907741553L227.390625,7.868044734001173L228.31875,6.3407531976700025L229.24687500000002,7.597788333892842L230.175,7.826987564563771L231.10312499999998,6.968391597270979L232.03125,6.82535088062287L232.959375,395.5091341435909L233.8875,7.1349940299987855L234.815625,12.116274893283856L235.74375,7.075913906097418L236.671875,25.8262044787407L237.60000000000002,19.23868274688723L238.52812500000002,14.291425704956067L239.45624999999998,10.449195563793202L240.38437499999998,10.54203575849535L241.3125,11.246777236461659L242.240625,401.33072426915174L243.16875,9.178093731403363L244.096875,12.631291806697853L245.025,10.045569300651563L245.953125,6.022845864295973L246.88125000000002,6.39262413978578L247.80937500000002,5.792503714561469L248.73749999999998,7.626976728439344L249.66562499999998,7.242252588272114L250.59375,6.7278510928154125L251.521875,395.03552606701857L252.45,8.311057746410377L253.378125,6.962589085102095L254.30625,8.011437118053443L255.234375,10.77149873971941L256.1625,12.106164455413825L257.090625,6.887332260608679L258.01875,10.141047000885022L258.94687500000003,8.034207582473767L259.875,8.157027423381813" style="fill: none;" fill="none"></path></g></g></g></g></g></g><g transform="translate(51, 177)" clip-path="url(#clip_1)"><clipPath id="clip_1"><rect width="278" height="22"></rect></clipPath><g><g><line x1="0" y1="0" x2="0" y2="5" style="visibility: inherit;" fill="rgb(0, 0, 0)" stroke="rgb(204, 204, 204)" stroke-width="1px"></line><line x1="18.5625" y1="0" x2="18.5625" y2="5" style="visibility: inherit;" fill="rgb(0, 0, 0)" stroke="rgb(204, 204, 204)" stroke-width="1px"></line><line x1="37.125" y1="0" x2="37.125" y2="5" style="visibility: inherit;" fill="rgb(0, 0, 0)" stroke="rgb(204, 204, 204)" stroke-width="1px"></line><line x1="55.6875" y1="0" x2="55.6875" y2="5" style="visibility: inherit;" fill="rgb(0, 0, 0)" stroke="rgb(204, 204, 204)" stroke-width="1px"></line><line x1="74.25" y1="0" x2="74.25" y2="5" style="visibility: inherit;" fill="rgb(0, 0, 0)" stroke="rgb(204, 204, 204)" stroke-width="1px"></line><line x1="92.8125" y1="0" x2="92.8125" y2="5" style="visibility: inherit;" fill="rgb(0, 0, 0)" stroke="rgb(204, 204, 204)" stroke-width="1px"></line><line x1="111.375" y1="0" x2="111.375" y2="5" style="visibility: inherit;" fill="rgb(0, 0, 0)" stroke="rgb(204, 204, 204)" stroke-width="1px"></line><line x1="129.9375" y1="0" x2="129.9375" y2="5" style="visibility: inherit;" fill="rgb(0, 0, 0)" stroke="rgb(204, 204, 204)" stroke-width="1px"></line><line x1="148.5" y1="0" x2="148.5" y2="5" style="visibility: inherit;" fill="rgb(0, 0, 0)" stroke="rgb(204, 204, 204)" stroke-width="1px"></line><line x1="167.0625" y1="0" x2="167.0625" y2="5" style="visibility: inherit;" fill="rgb(0, 0, 0)" stroke="rgb(204, 204, 204)" stroke-width="1px"></line><line x1="185.625" y1="0" x2="185.625" y2="5" style="visibility: inherit;" fill="rgb(0, 0, 0)" stroke="rgb(204, 204, 204)" stroke-width="1px"></line><line x1="204.18749999999997" y1="0" x2="204.18749999999997" y2="5" style="visibility: inherit;" fill="rgb(0, 0, 0)" stroke="rgb(204, 204, 204)" stroke-width="1px"></line><line x1="222.75" y1="0" x2="222.75" y2="5" style="visibility: inherit;" fill="rgb(0, 0, 0)" stroke="rgb(204, 204, 204)" stroke-width="1px"></line><line x1="241.3125" y1="0" x2="241.3125" y2="5" style="visibility: inherit;" fill="rgb(0, 0, 0)" stroke="rgb(204, 204, 204)" stroke-width="1px"></line><line x1="259.875" y1="0" x2="259.875" y2="5" style="visibility: inherit;" fill="rgb(0, 0, 0)" stroke="rgb(204, 204, 204)" stroke-width="1px"></line><line x1="278.4375" y1="0" x2="278.4375" y2="5" style="visibility: inherit;" fill="rgb(0, 0, 0)" stroke="rgb(204, 204, 204)" stroke-width="1px"></line></g><g transform="translate(0, 8)"><text x="0" y="0" dx="0em" dy="0.95em" style="text-anchor: middle; visibility: hidden; font-family: Roboto, sans-serif; font-size: 12px; font-weight: 200;" fill="rgb(255, 255, 255)" stroke="none" stroke-width="1px">-2k</text><text x="18.5625" y="0" dx="0em" dy="0.95em" style="text-anchor: middle; visibility: inherit; font-family: Roboto, sans-serif; font-size: 12px; font-weight: 200;" fill="rgb(255, 255, 255)" stroke="none" stroke-width="1px">0</text><text x="37.125" y="0" dx="0em" dy="0.95em" style="text-anchor: middle; visibility: hidden; font-family: Roboto, sans-serif; font-size: 12px; font-weight: 200;" fill="rgb(255, 255, 255)" stroke="none" stroke-width="1px">2k</text><text x="55.6875" y="0" dx="0em" dy="0.95em" style="text-anchor: middle; visibility: inherit; font-family: Roboto, sans-serif; font-size: 12px; font-weight: 200;" fill="rgb(255, 255, 255)" stroke="none" stroke-width="1px">4k</text><text x="74.25" y="0" dx="0em" dy="0.95em" style="text-anchor: middle; visibility: hidden; font-family: Roboto, sans-serif; font-size: 12px; font-weight: 200;" fill="rgb(255, 255, 255)" stroke="none" stroke-width="1px">6k</text><text x="92.8125" y="0" dx="0em" dy="0.95em" style="text-anchor: middle; visibility: inherit; font-family: Roboto, sans-serif; font-size: 12px; font-weight: 200;" fill="rgb(255, 255, 255)" stroke="none" stroke-width="1px">8k</text><text x="111.375" y="0" dx="0em" dy="0.95em" style="text-anchor: middle; visibility: hidden; font-family: Roboto, sans-serif; font-size: 12px; font-weight: 200;" fill="rgb(255, 255, 255)" stroke="none" stroke-width="1px">10k</text><text x="129.9375" y="0" dx="0em" dy="0.95em" style="text-anchor: middle; visibility: inherit; font-family: Roboto, sans-serif; font-size: 12px; font-weight: 200;" fill="rgb(255, 255, 255)" stroke="none" stroke-width="1px">12k</text><text x="148.5" y="0" dx="0em" dy="0.95em" style="text-anchor: middle; visibility: hidden; font-family: Roboto, sans-serif; font-size: 12px; font-weight: 200;" fill="rgb(255, 255, 255)" stroke="none" stroke-width="1px">14k</text><text x="167.0625" y="0" dx="0em" dy="0.95em" style="text-anchor: middle; visibility: inherit; font-family: Roboto, sans-serif; font-size: 12px; font-weight: 200;" fill="rgb(255, 255, 255)" stroke="none" stroke-width="1px">16k</text><text x="185.625" y="0" dx="0em" dy="0.95em" style="text-anchor: middle; visibility: hidden; font-family: Roboto, sans-serif; font-size: 12px; font-weight: 200;" fill="rgb(255, 255, 255)" stroke="none" stroke-width="1px">18k</text><text x="204.18749999999997" y="0" dx="0em" dy="0.95em" style="text-anchor: middle; visibility: inherit; font-family: Roboto, sans-serif; font-size: 12px; font-weight: 200;" fill="rgb(255, 255, 255)" stroke="none" stroke-width="1px">20k</text><text x="222.75" y="0" dx="0em" dy="0.95em" style="text-anchor: middle; visibility: hidden; font-family: Roboto, sans-serif; font-size: 12px; font-weight: 200;" fill="rgb(255, 255, 255)" stroke="none" stroke-width="1px">22k</text><text x="241.3125" y="0" dx="0em" dy="0.95em" style="text-anchor: middle; visibility: inherit; font-family: Roboto, sans-serif; font-size: 12px; font-weight: 200;" fill="rgb(255, 255, 255)" stroke="none" stroke-width="1px">24k</text><text x="259.875" y="0" dx="0em" dy="0.95em" style="text-anchor: middle; visibility: hidden; font-family: Roboto, sans-serif; font-size: 12px; font-weight: 200;" fill="rgb(255, 255, 255)" stroke="none" stroke-width="1px">26k</text><text x="278.4375" y="0" dx="0em" dy="0.95em" style="text-anchor: middle; visibility: hidden; font-family: Roboto, sans-serif; font-size: 12px; font-weight: 200;" fill="rgb(255, 255, 255)" stroke="none" stroke-width="1px">28k</text></g><line x1="0" y1="0" x2="278.4375" y2="0" fill="rgb(0, 0, 0)" stroke="rgb(204, 204, 204)" stroke-width="1px"></line></g></g></g></g></svg>