<svg viewBox="0 0 330 200" xmlns="http://www.w3.org/2000/svg"><g><g><g><g><g><line x1="41.171875" y1="177" x2="36.171875" y2="177" style="visibility: inherit;" fill="rgb(0, 0, 0)" stroke="rgb(204, 204, 204)" stroke-width="1px"></line><line x1="41.171875" y1="159.3" x2="36.171875" y2="159.3" style="visibility: inherit;" fill="rgb(0, 0, 0)" stroke="rgb(204, 204, 204)" stroke-width="1px"></line><line x1="41.171875" y1="141.6" x2="36.171875" y2="141.6" style="visibility: inherit;" fill="rgb(0, 0, 0)" stroke="rgb(204, 204, 204)" stroke-width="1px"></line><line x1="41.171875" y1="123.89999999999999" x2="36.171875" y2="123.89999999999999" style="visibility: inherit;" fill="rgb(0, 0, 0)" stroke="rgb(204, 204, 204)" stroke-width="1px"></line><line x1="41.171875" y1="106.2" x2="36.171875" y2="106.2" style="visibility: inherit;" fill="rgb(0, 0, 0)" stroke="rgb(204, 204, 204)" stroke-width="1px"></line><line x1="41.171875" y1="88.5" x2="36.171875" y2="88.5" style="visibility: inherit;" fill="rgb(0, 0, 0)" stroke="rgb(204, 204, 204)" stroke-width="1px"></line><line x1="41.171875" y1="70.8" x2="36.171875" y2="70.8" style="visibility: inherit;" fill="rgb(0, 0, 0)" stroke="rgb(204, 204, 204)" stroke-width="1px"></line><line x1="41.171875" y1="53.09999999999999" x2="36.171875" y2="53.09999999999999" style="visibility: inherit;" fill="rgb(0, 0, 0)" stroke="rgb(204, 204, 204)" stroke-width="1px"></line><line x1="41.171875" y1="35.39999999999999" x2="36.171875" y2="35.39999999999999" style="visibility: inherit;" fill="rgb(0, 0, 0)" stroke="rgb(204, 204, 204)" stroke-width="1px"></line><line x1="41.171875" y1="17.699999999999996" x2="36.171875" y2="17.699999999999996" style="visibility: inherit;" fill="rgb(0, 0, 0)" stroke="rgb(204, 204, 204)" stroke-width="1px"></line><line x1="41.171875" y1="0" x2="36.171875" y2="0" style="visibility: inherit;" fill="rgb(0, 0, 0)" stroke="rgb(204, 204, 204)" stroke-width="1px"></line></g><g transform="translate(31.171875, 0)"><text x="0" y="177" dx="0em" dy="0.3em" style="text-anchor: end; visibility: hidden; font-family: Roboto, sans-serif; font-size: 12px; font-weight: 200;" fill="rgb(255, 255, 255)" stroke="none" stroke-width="1px">0.1</text><text x="0" y="159.3" dx="0em" dy="0.3em" style="text-anchor: end; visibility: inherit; font-family: Roboto, sans-serif; font-size: 12px; font-weight: 200;" fill="rgb(255, 255, 255)" stroke="none" stroke-width="1px">0.2</text><text x="0" y="141.6" dx="0em" dy="0.3em" style="text-anchor: end; visibility: hidden; font-family: Roboto, sans-serif; font-size: 12px; font-weight: 200;" fill="rgb(255, 255, 255)" stroke="none" stroke-width="1px">0.3</text><text x="0" y="123.89999999999999" dx="0em" dy="0.3em" style="text-anchor: end; visibility: inherit; font-family: Roboto, sans-serif; font-size: 12px; font-weight: 200;" fill="rgb(255, 255, 255)" stroke="none" stroke-width="1px">0.4</text><text x="0" y="106.2" dx="0em" dy="0.3em" style="text-anchor: end; visibility: hidden; font-family: Roboto, sans-serif; font-size: 12px; font-weight: 200;" fill="rgb(255, 255, 255)" stroke="none" stroke-width="1px">0.5</text><text x="0" y="88.5" dx="0em" dy="0.3em" style="text-anchor: end; visibility: inherit; font-family: Roboto, sans-serif; font-size: 12px; font-weight: 200;" fill="rgb(255, 255, 255)" stroke="none" stroke-width="1px">0.6</text><text x="0" y="70.8" dx="0em" dy="0.3em" style="text-anchor: end; visibility: hidden; font-family: Roboto, sans-serif; font-size: 12px; font-weight: 200;" fill="rgb(255, 255, 255)" stroke="none" stroke-width="1px">0.7</text><text x="0" y="53.09999999999999" dx="0em" dy="0.3em" style="text-anchor: end; visibility: inherit; font-family: Roboto, sans-serif; font-size: 12px; font-weight: 200;" fill="rgb(255, 255, 255)" stroke="none" stroke-width="1px">0.8</text><text x="0" y="35.39999999999999" dx="0em" dy="0.3em" style="text-anchor: end; visibility: hidden; font-family: Roboto, sans-serif; font-size: 12px; font-weight: 200;" fill="rgb(255, 255, 255)" stroke="none" stroke-width="1px">0.9</text><text x="0" y="17.699999999999996" dx="0em" dy="0.3em" style="text-anchor: end; visibility: inherit; font-family: Roboto, sans-serif; font-size: 12px; font-weight: 200;" fill="rgb(255, 255, 255)" stroke="none" stroke-width="1px">1</text><text x="0" y="0" dx="0em" dy="0.3em" style="text-anchor: end; visibility: hidden; font-family: Roboto, sans-serif; font-size: 12px; font-weight: 200;" fill="rgb(255, 255, 255)" stroke="none" stroke-width="1px">1.1</text></g><line x1="41.171875" y1="0" x2="41.171875" y2="177" fill="rgb(0, 0, 0)" stroke="rgb(204, 204, 204)" stroke-width="1px"></line></g></g><g transform="translate(41, 0)" clip-path="url(#clip_0)"><clipPath id="clip_0"><rect width="288" height="177"></rect></clipPath><g><g><g><line x1="0" y1="0" x2="0" y2="177" fill="rgb(0, 0, 0)" stroke="rgb(189, 189, 189)" stroke-width="1px" opacity="0.25"></line><line x1="24.069010416666664" y1="0" x2="24.069010416666664" y2="177" fill="rgb(0, 0, 0)" stroke="rgb(189, 189, 189)" stroke-width="1px" opacity="0.25"></line><line x1="48.13802083333333" y1="0" x2="48.13802083333333" y2="177" fill="rgb(0, 0, 0)" stroke="rgb(189, 189, 189)" stroke-width="1px" opacity="0.25"></line><line x1="72.20703125" y1="0" x2="72.20703125" y2="177" fill="rgb(0, 0, 0)" stroke="rgb(189, 189, 189)" stroke-width="1px" opacity="0.25"></line><line x1="96.27604166666666" y1="0" x2="96.27604166666666" y2="177" fill="rgb(0, 0, 0)" stroke="rgb(189, 189, 189)" stroke-width="1px" opacity="0.25"></line><line x1="120.34505208333334" y1="0" x2="120.34505208333334" y2="177" fill="rgb(0, 0, 0)" stroke="rgb(189, 189, 189)" stroke-width="1px" opacity="0.25"></line><line x1="144.4140625" y1="0" x2="144.4140625" y2="177" fill="rgb(0, 0, 0)" stroke="rgb(189, 189, 189)" stroke-width="1px" opacity="0.25"></line><line x1="168.48307291666669" y1="0" x2="168.48307291666669" y2="177" fill="rgb(0, 0, 0)" stroke="rgb(189, 189, 189)" stroke-width="1px" opacity="0.25"></line><line x1="192.55208333333331" y1="0" x2="192.55208333333331" y2="177" fill="rgb(0, 0, 0)" stroke="rgb(189, 189, 189)" stroke-width="1px" opacity="0.25"></line><line x1="216.62109375" y1="0" x2="216.62109375" y2="177" fill="rgb(0, 0, 0)" stroke="rgb(189, 189, 189)" stroke-width="1px" opacity="0.25"></line><line x1="240.69010416666669" y1="0" x2="240.69010416666669" y2="177" fill="rgb(0, 0, 0)" stroke="rgb(189, 189, 189)" stroke-width="1px" opacity="0.25"></line><line x1="264.7591145833333" y1="0" x2="264.7591145833333" y2="177" fill="rgb(0, 0, 0)" stroke="rgb(189, 189, 189)" stroke-width="1px" opacity="0.25"></line><line x1="288.828125" y1="0" x2="288.828125" y2="177" fill="rgb(0, 0, 0)" stroke="rgb(189, 189, 189)" stroke-width="1px" opacity="0.25"></line></g><g><line x1="0" y1="177" x2="288.828125" y2="177" fill="rgb(0, 0, 0)" stroke="rgb(189, 189, 189)" stroke-width="1px" opacity="0.25"></line><line x1="0" y1="159.3" x2="288.828125" y2="159.3" fill="rgb(0, 0, 0)" stroke="rgb(189, 189, 189)" stroke-width="1px" opacity="0.25"></line><line x1="0" y1="141.6" x2="288.828125" y2="141.6" fill="rgb(0, 0, 0)" stroke="rgb(189, 189, 189)" stroke-width="1px" opacity="0.25"></line><line x1="0" y1="123.89999999999999" x2="288.828125" y2="123.89999999999999" fill="rgb(0, 0, 0)" stroke="rgb(189, 189, 189)" stroke-width="1px" opacity="0.25"></line><line x1="0" y1="106.2" x2="288.828125" y2="106.2" fill="rgb(0, 0, 0)" stroke="rgb(189, 189, 189)" stroke-width="1px" opacity="0.25"></line><line x1="0" y1="88.5" x2="288.828125" y2="88.5" fill="rgb(0, 0, 0)" stroke="rgb(189, 189, 189)" stroke-width="1px" opacity="0.25"></line><line x1="0" y1="70.8" x2="288.828125" y2="70.8" fill="rgb(0, 0, 0)" stroke="rgb(189, 189, 189)" stroke-width="1px" opacity="0.25"></line><line x1="0" y1="53.09999999999999" x2="288.828125" y2="53.09999999999999" fill="rgb(0, 0, 0)" stroke="rgb(189, 189, 189)" stroke-width="1px" opacity="0.25"></line><line x1="0" y1="35.39999999999999" x2="288.828125" y2="35.39999999999999" fill="rgb(0, 0, 0)" stroke="rgb(189, 189, 189)" stroke-width="1px" opacity="0.25"></line><line x1="0" y1="17.699999999999996" x2="288.828125" y2="17.699999999999996" fill="rgb(0, 0, 0)" stroke="rgb(189, 189, 189)" stroke-width="1px" opacity="0.25"></line><line x1="0" y1="0" x2="288.828125" y2="0" fill="rgb(0, 0, 0)" stroke="rgb(189, 189, 189)" stroke-width="1px" opacity="0.25"></line></g></g></g><g><g><line x1="0" y1="194.70000000000002" x2="288.828125" y2="194.70000000000002" fill="rgb(0, 0, 0)" stroke="rgb(153, 153, 153)" stroke-width="1.5px"></line></g></g><g><g><line x1="24.069010416666664" y1="0" x2="24.069010416666664" y2="177" fill="rgb(0, 0, 0)" stroke="rgb(153, 153, 153)" stroke-width="1.5px"></line></g></g><g><g><g><g><g><path stroke="rgb(255, 112, 67)" stroke-width="2px" d="M25.2724609375,-11.213348436355576L26.475911458333332,19.172943976521488L27.679361979166668,30.039040189373246L28.8828125,55.38747645506965L30.086263020833336,73.0398600583851L31.289713541666668,86.157942646585L32.4931640625,86.45416661437697L33.696614583333336,99.31377377980081L34.900065104166664,114.49170246239827L36.103515625,114.3678741525427L37.306966145833336,116.92246385753873L38.510416666666664,123.13043053233072L39.7138671875,120.53926394139796L40.917317708333336,119.56392408283509L42.12076822916667,117.0723523178594L43.32421875,112.77522353465872L44.527669270833336,108.39835616161504L45.731119791666664,113.16690584427153L46.9345703125,121.71493928926624L48.13802083333333,126.81616372519545L49.341471354166664,130.6161914295687L50.544921875,125.86208384531402L51.748372395833336,130.86616883425313L52.951822916666664,136.3496022445266L54.1552734375,132.94112427975853L55.358723958333336,131.81900763278648L56.562174479166664,134.99043461764626L57.765625,135.27673105824766L58.969075520833336,137.43448157676397L60.17252604166667,125.36903194701803L61.3759765625,133.2393704179697L62.579427083333336,134.89251840180904L63.782877604166664,134.7776168939246L64.986328125,135.60773624395136L66.18977864583333,130.55346191905534L67.39322916666667,134.56939466435946L68.5966796875,126.73361251535098L69.80013020833333,129.21936906654022L71.00358072916666,130.66748561036385L72.20703125,140.419709441417L73.41048177083333,144.6228865689095L74.61393229166667,140.5864623161237L75.8173828125,140.62353307320237L77.02083333333333,143.41038561579325L78.22428385416666,141.58071691682832L79.427734375,141.06764012387708L80.63118489583333,139.24641025423935L81.83463541666667,141.64065509539216L83.0380859375,150.74875608874532L84.24153645833334,143.10452000250106L85.44498697916667,131.02202727043542L86.6484375,135.83652624157824L87.85188802083333,136.08019792716402L89.05533854166667,146.94607374955777L90.2587890625,144.0139863412932L91.46223958333333,139.74384973057082L92.66569010416667,146.8318392420306L93.869140625,136.77679633286425L95.07259114583333,146.59769923083164L96.27604166666666,126.34111754531865L97.4794921875,137.47915395638503L98.68294270833333,142.34648896063072L99.88639322916667,137.6041831231397L101.08984375,142.34729971505894L102.29329427083334,148.14170989881572L103.49674479166667,140.7605844634212L104.7001953125,134.69457108839967L105.90364583333333,143.67908261337652L107.10709635416667,143.5715262825416L108.310546875,140.1930427441076L109.51399739583333,148.22002559119915L110.71744791666667,143.24709347495113L111.9208984375,144.4927557850401L113.12434895833333,147.72795599845173L114.32779947916666,146.47329296438173L115.53125,144.2054423366086L116.73470052083333,148.95646844232658L117.93815104166667,143.3631555123602L119.1416015625,152.5675113656208L120.34505208333334,156.71726104844123L121.54850260416667,159.16226271407908L122.751953125,155.70440683017435L123.95540364583333,155.9715418460981L125.15885416666667,157.3686947895894L126.3623046875,153.12760244332608L127.56575520833333,153.62758108569895L128.76920572916669,155.2591445886714L129.97265625,153.81129908106465L131.17610677083334,150.70027319396578L132.37955729166666,137.31004995468282L133.5830078125,143.48231521942034L134.78645833333334,148.53808171449788L135.98990885416666,138.2768943053406L137.193359375,144.03088992368706L138.39680989583334,150.02961953479962L139.60026041666666,151.78107262133906L140.8037109375,146.7179239110908L142.00716145833331,148.9693979976631L143.21061197916666,156.1150150321756L144.4140625,151.78183346407616L145.61751302083334,152.84183902869822L146.82096354166666,145.45827680903793L148.0244140625,143.69085323141886L149.22786458333334,151.07367885188384L150.43131510416669,153.28618157432155L151.634765625,151.6213867624144L152.83821614583334,151.3759333753312L154.04166666666666,156.34049099348331L155.2451171875,157.9719940689942L156.44856770833331,148.36135340617543L157.65201822916666,146.15808284095792L158.85546875,151.0884940541498L160.05891927083334,150.02821203450634L161.26236979166666,142.6324642967002L162.4658203125,147.53621624415018L163.66927083333334,147.80964941564142L164.87272135416666,154.55804459204043L166.076171875,147.87416544407463L167.27962239583334,151.22459155708466L168.48307291666669,155.1201604437227L169.6865234375,154.98522752591342L170.88997395833334,155.25205663960202L172.09342447916666,155.71576475453986L173.296875,146.7767665633715L174.50032552083331,151.8810890513156L175.70377604166666,154.76107115611399L176.9072265625,152.98791636148076L178.11067708333334,155.94493653725968L179.31412760416666,145.9891339728319L180.517578125,153.0195326905896L181.72102864583334,154.66577780732214L182.92447916666666,154.6384407835525L184.1279296875,151.91556121333375L185.33138020833334,159.28909104599913L186.53483072916669,148.2464597841165L187.73828125,144.80826426148784L188.94173177083334,147.31425874471887L190.14518229166666,153.6140094330324L191.3486328125,159.49151125016292L192.55208333333331,158.226736672297L193.75553385416666,157.6556369993537L194.958984375,154.9648566611677L196.16243489583334,156.34506498861728L197.36588541666666,147.2538735025431L198.5693359375,155.7253597815815L199.77278645833334,157.48378449201485L200.97623697916666,151.73385349702775L202.1796875,151.70044677014315L203.38313802083334,149.05064408394793L204.58658854166669,146.72567702062784L205.7900390625,152.96338564472114L206.99348958333334,157.93573722312877L208.19694010416666,160.95818958205004L209.400390625,163.271199270022L210.60384114583331,160.01426183696515L211.80729166666666,151.5278168577905L213.0107421875,153.14158191317054L214.21419270833334,156.80189009209712L215.41764322916666,155.18981874287272L216.62109375,146.11343224704353L217.82454427083334,145.98262975609356L219.02799479166666,152.74307983396082L220.2314453125,154.82605897234458L221.43489583333334,154.65515726594077L222.63834635416669,158.45662449948756L223.841796875,152.08418257208328L225.04524739583334,152.5063680945138L226.24869791666666,153.50445505489705L227.4521484375,150.1330596048224L228.65559895833331,151.43851588479208L229.85904947916666,156.0746535129042L231.0625,158.66088215987037L232.26595052083334,159.88419293928234L233.46940104166666,160.51200292925887L234.6728515625,160.3886062694839L235.87630208333334,159.75785310108967L237.07975260416666,158.7670452108354L238.283203125,155.5944853300077L239.48665364583334,151.59847911323442L240.69010416666669,154.3601537580808L241.8935546875,155.5284952351761L243.09700520833334,157.44962706025316L244.30045572916666,160.3481681266777L245.50390625,162.09264901276543L246.70735677083331,149.2090725052125L247.91080729166666,142.54088338779013L249.1142578125,149.26935507873654L250.31770833333334,153.55553572070576L251.52115885416666,157.15837056334004L252.724609375,159.47611790117733L253.92805989583334,159.7723945737905L255.13151041666666,148.72599414831558L256.3349609375,151.4961262622247L257.53841145833337,154.4061781977874L258.7418619791667,155.84400101275813L259.9453125,153.48746939046126L261.1487630208333,158.22835314478246L262.3522135416667,155.46010915640454L263.5556640625,154.2156164467541L264.7591145833333,151.2928162872915" style="fill: none;" fill="none"></path></g><g><path stroke="rgb(0, 119, 187)" stroke-width="2px" d="M24.069010416666664,15.89953322410583L36.103515625,-752.2982441961766L96.27604166666666,-24.858358724862185L108.310546875,6.840866749329147L120.34505208333334,18.722089901127557L132.37955729166666,42.24321978567067L144.4140625,60.30804710933707L156.44856770833331,61.21943454747222L168.48307291666669,65.5759821736956L180.517578125,46.22425457421498L192.55208333333331,59.591580849213855L204.58658854166669,-11.268371444031683L216.62109375,-22.864599976436278L228.65559895833331,13.51383106178291L240.69010416666669,35.36789805328922L252.724609375,25.911766811465352L264.7591145833333,-7.595589062979644" style="fill: none;" fill="none"></path></g></g></g></g><g opacity="0.2"><g><g><g><path stroke="rgb(255, 112, 67)" stroke-width="2px" d="M25.2724609375,-11.213348436355576L26.475911458333332,37.40471942424774L27.679361979166668,40.47049255371093L28.8828125,85.1972375035286L30.086263020833336,96.08681209087372L31.289713541666668,104.30497337579727L32.4931640625,86.87777162790299L33.696614583333336,118.06320447921753L34.900065104166664,136.8761991083622L36.103515625,114.18400354385376L37.306966145833336,120.73117847442627L38.510416666666664,132.40859706401824L39.7138671875,116.66097466349602L40.917317708333336,118.10282508730889L42.12076822916667,113.33792341947556L43.32421875,106.3325610280037L44.527669270833336,101.83490724563599L45.731119791666664,120.31851963400841L46.9345703125,134.5356872498989L48.13802083333333,134.46753410696982L49.341471354166664,136.3160245835781L50.544921875,118.73107890486718L51.748372395833336,138.37219752073287L52.951822916666664,144.57468740344046L54.1552734375,127.82843155860901L55.358723958333336,130.13583744764327L56.562174479166664,139.7475669801235L57.765625,135.7061752796173L58.969075520833336,140.67110536694526L60.17252604166667,107.27086417078972L61.3759765625,145.04487551450728L62.579427083333336,137.37224004864692L63.782877604166664,134.60526464581488L64.986328125,136.85291520953177L66.18977864583333,122.97205064892769L67.39322916666667,140.59329367876052L68.5966796875,114.97993941307068L69.80013020833333,132.94800387024878L71.00358072916666,132.8396604180336L72.20703125,155.048045155406L73.41048177083333,150.92765225172042L74.61393229166667,134.53182594180106L75.8173828125,140.67913920879363L77.02083333333333,147.5906644284725L78.22428385416666,138.83621386885642L79.427734375,140.29802493453025L80.63118489583333,136.51456544995307L81.83463541666667,145.232022356987L83.0380859375,164.4109075784683L84.24153645833334,131.6381658732891L85.44498697916667,112.89828817248345L86.6484375,143.05827469825743L87.85188802083333,136.4457054555416L89.05533854166667,163.24488748311995L90.2587890625,139.6158552289009L91.46223958333333,133.33864481449126L92.66569010416667,157.4638235092163L93.869140625,121.69423196911812L95.07259114583333,161.3290535777807L96.27604166666666,95.9562450170517L97.4794921875,154.18620857298373L98.68294270833333,149.64749146699904L99.88639322916667,130.4907243669033L101.08984375,149.4619746029377L102.29329427083334,156.83332517445086L103.49674479166667,129.68889631032943L104.7001953125,125.59555102586747L105.90364583333333,157.1558499008417L107.10709635416667,143.4101917862892L108.310546875,135.12531743645667L109.51399739583333,160.26049986183642L110.71744791666667,135.78769530057906L111.9208984375,146.36124925017356L113.12434895833333,152.58075631856917L114.32779947916666,144.59129841327666L115.53125,140.80366639494895L116.73470052083333,156.0830076009035L117.93815104166667,134.97318611741065L119.1416015625,166.37404514551162L120.34505208333334,162.94188557267188L121.54850260416667,162.82976521253585L122.751953125,150.51762300431727L123.95540364583333,156.37224436998366L125.15885416666667,159.46442420482634L126.3623046875,146.7659639239311L127.56575520833333,154.37754904925822L128.76920572916669,157.7064898431301L129.97265625,151.63953081965445L131.17610677083334,146.03373436331748L132.37955729166666,117.22471509575844L133.5830078125,152.7407131165266L134.78645833333334,156.1217314571142L135.98990885416666,122.88511319160462L137.193359375,152.66188335120677L138.39680989583334,159.02771395146846L139.60026041666666,154.4082522511482L140.8037109375,139.12320084571837L142.00716145833331,152.3466091275215L143.21061197916666,166.8334405839443L144.4140625,145.28206111192702L145.61751302083334,154.43184737563132L146.82096354166666,134.3829334795475L148.0244140625,141.03971786499022L149.22786458333334,162.14791728258132L150.43131510416669,156.60493565797805L151.634765625,149.12419454455375L152.83821614583334,151.00775329470633L154.04166666666666,163.7873274207115L155.2451171875,160.4192486822605L156.44856770833331,133.94539241194724L157.65201822916666,142.85317699313163L158.85546875,158.4841108739376L160.05891927083334,148.4377890050411L161.26236979166666,131.538842689991L162.4658203125,154.89184416532515L163.66927083333334,148.21979917287825L164.87272135416666,164.6806373566389L166.076171875,137.848346722126L167.27962239583334,156.25023072659968L168.48307291666669,160.96351377367972L169.6865234375,154.78282814919947L170.88997395833334,155.65230031013488L172.09342447916666,156.41132692694663L173.296875,133.36826927661895L174.50032552083331,159.53757278323172L175.70377604166666,159.08104431331157L176.9072265625,150.32818416953086L178.11067708333334,160.3804668009281L179.31412760416666,131.05543012619017L180.517578125,163.5651307672262L181.72102864583334,157.1351454824209L182.92447916666666,154.5974352478981L184.1279296875,147.8312418580055L185.33138020833334,170.3493857949972L186.53483072916669,131.68251289129256L187.73828125,139.65097097754477L188.94173177083334,151.07325046956538L190.14518229166666,163.06363546550273L191.3486328125,168.30776397585868L192.55208333333331,156.3295748054981L193.75553385416666,156.79898748993872L194.958984375,150.9286861538887L196.16243489583334,158.41537747979163L197.36588541666666,133.61708627343177L198.5693359375,168.43258920013903L199.77278645833334,160.12142155766486L200.97623697916666,143.1089570045471L202.1796875,151.65033667981623L203.38313802083334,145.07594005465506L204.58658854166669,143.23822642564772L205.7900390625,162.31994858086108L206.99348958333334,165.3942645907402L208.19694010416666,165.4918681204319L209.400390625,166.74071380198L210.60384114583331,155.12885568737983L211.80729166666666,138.79814938902854L213.0107421875,155.5622294962406L214.21419270833334,162.29235236048697L215.41764322916666,152.7717117190361L216.62109375,132.4988525032997L217.82454427083334,145.78642601966857L219.02799479166666,162.88375495076178L220.2314453125,157.95052767992019L221.43489583333334,154.39880470633506L222.63834635416669,164.15882534980773L223.841796875,142.52551968097686L225.04524739583334,153.1396463781595L226.24869791666666,155.00158549547194L227.4521484375,145.07596642971038L228.65559895833331,153.39670030474662L229.85904947916666,163.0288599550724L231.0625,162.54022513031958L232.26595052083334,161.71915910840033L233.46940104166666,161.45371791422366L234.6728515625,160.20351127982138L235.87630208333334,158.81172334849833L237.07975260416666,157.28083337545394L238.283203125,150.83564550876616L239.48665364583334,145.60446978807448L240.69010416666669,158.50266572535037L241.8935546875,157.281007450819L243.09700520833334,160.33132479786872L244.30045572916666,164.69597972631453L245.50390625,164.709370341897L246.70735677083331,129.88370774388312L247.91080729166666,132.53859971165656L249.1142578125,159.36206261515616L250.31770833333334,159.98480668365954L251.52115885416666,162.56262282729148L252.724609375,162.95273890793322L253.92805989583334,160.21680958271025L255.13151041666666,132.15639351010321L256.3349609375,155.6513244330883L257.53841145833337,158.77125610113143L258.7418619791667,158.00073523521422L259.9453125,149.95267195701598L261.1487630208333,165.33967877626418L262.3522135416667,151.30774317383765L263.5556640625,152.34887738227843L264.7591145833333,146.9086160480976" style="fill: none;" fill="none"></path></g><g><path stroke="rgb(0, 119, 187)" stroke-width="2px" d="M24.069010416666664,15.89953322410583L36.103515625,-1213.216910648346L60.17252604166667,-93.5781307697296L72.20703125,54.39775611162185L84.24153645833334,-6.271485972404465L96.27604166666666,56.764147174358364L108.310546875,53.058641803264614L120.34505208333334,36.244586241245266L132.37955729166666,77.16935641765595L144.4140625,87.24144144058228L156.44856770833331,62.581555974483486L168.48307291666669,72.09657872915268L180.517578125,17.234575223922725L192.55208333333331,79.62685747146607L204.58658854166669,-117.50832395553587L216.62109375,-40.25403563976286L228.65559895833331,68.07224113941193L240.69010416666669,68.14566929340363L252.724609375,11.728434276580806L264.7591145833333,-57.854785251617415" style="fill: none;" fill="none"></path></g></g></g></g></g></g><g transform="translate(41, 177)" clip-path="url(#clip_1)"><clipPath id="clip_1"><rect width="288" height="23"></rect></clipPath><g><g><line x1="0" y1="0" x2="0" y2="5" style="visibility: inherit;" fill="rgb(0, 0, 0)" stroke="rgb(204, 204, 204)" stroke-width="1px"></line><line x1="24.069010416666664" y1="0" x2="24.069010416666664" y2="5" style="visibility: inherit;" fill="rgb(0, 0, 0)" stroke="rgb(204, 204, 204)" stroke-width="1px"></line><line x1="48.13802083333333" y1="0" x2="48.13802083333333" y2="5" style="visibility: inherit;" fill="rgb(0, 0, 0)" stroke="rgb(204, 204, 204)" stroke-width="1px"></line><line x1="72.20703125" y1="0" x2="72.20703125" y2="5" style="visibility: inherit;" fill="rgb(0, 0, 0)" stroke="rgb(204, 204, 204)" stroke-width="1px"></line><line x1="96.27604166666666" y1="0" x2="96.27604166666666" y2="5" style="visibility: inherit;" fill="rgb(0, 0, 0)" stroke="rgb(204, 204, 204)" stroke-width="1px"></line><line x1="120.34505208333334" y1="0" x2="120.34505208333334" y2="5" style="visibility: inherit;" fill="rgb(0, 0, 0)" stroke="rgb(204, 204, 204)" stroke-width="1px"></line><line x1="144.4140625" y1="0" x2="144.4140625" y2="5" style="visibility: inherit;" fill="rgb(0, 0, 0)" stroke="rgb(204, 204, 204)" stroke-width="1px"></line><line x1="168.48307291666669" y1="0" x2="168.48307291666669" y2="5" style="visibility: inherit;" fill="rgb(0, 0, 0)" stroke="rgb(204, 204, 204)" stroke-width="1px"></line><line x1="192.55208333333331" y1="0" x2="192.55208333333331" y2="5" style="visibility: inherit;" fill="rgb(0, 0, 0)" stroke="rgb(204, 204, 204)" stroke-width="1px"></line><line x1="216.62109375" y1="0" x2="216.62109375" y2="5" style="visibility: inherit;" fill="rgb(0, 0, 0)" stroke="rgb(204, 204, 204)" stroke-width="1px"></line><line x1="240.69010416666669" y1="0" x2="240.69010416666669" y2="5" style="visibility: inherit;" fill="rgb(0, 0, 0)" stroke="rgb(204, 204, 204)" stroke-width="1px"></line><line x1="264.7591145833333" y1="0" x2="264.7591145833333" y2="5" style="visibility: inherit;" fill="rgb(0, 0, 0)" stroke="rgb(204, 204, 204)" stroke-width="1px"></line><line x1="288.828125" y1="0" x2="288.828125" y2="5" style="visibility: inherit;" fill="rgb(0, 0, 0)" stroke="rgb(204, 204, 204)" stroke-width="1px"></line></g><g transform="translate(0, 8)"><text x="0" y="0" dx="0em" dy="0.95em" style="text-anchor: middle; visibility: hidden; font-family: Roboto, sans-serif; font-size: 12px; font-weight: 200;" fill="rgb(255, 255, 255)" stroke="none" stroke-width="1px">-2k</text><text x="24.069010416666664" y="0" dx="0em" dy="0.95em" style="text-anchor: middle; visibility: inherit; font-family: Roboto, sans-serif; font-size: 12px; font-weight: 200;" fill="rgb(255, 255, 255)" stroke="none" stroke-width="1px">0</text><text x="48.13802083333333" y="0" dx="0em" dy="0.95em" style="text-anchor: middle; visibility: hidden; font-family: Roboto, sans-serif; font-size: 12px; font-weight: 200;" fill="rgb(255, 255, 255)" stroke="none" stroke-width="1px">2k</text><text x="72.20703125" y="0" dx="0em" dy="0.95em" style="text-anchor: middle; visibility: inherit; font-family: Roboto, sans-serif; font-size: 12px; font-weight: 200;" fill="rgb(255, 255, 255)" stroke="none" stroke-width="1px">4k</text><text x="96.27604166666666" y="0" dx="0em" dy="0.95em" style="text-anchor: middle; visibility: hidden; font-family: Roboto, sans-serif; font-size: 12px; font-weight: 200;" fill="rgb(255, 255, 255)" stroke="none" stroke-width="1px">6k</text><text x="120.34505208333334" y="0" dx="0em" dy="0.95em" style="text-anchor: middle; visibility: inherit; font-family: Roboto, sans-serif; font-size: 12px; font-weight: 200;" fill="rgb(255, 255, 255)" stroke="none" stroke-width="1px">8k</text><text x="144.4140625" y="0" dx="0em" dy="0.95em" style="text-anchor: middle; visibility: hidden; font-family: Roboto, sans-serif; font-size: 12px; font-weight: 200;" fill="rgb(255, 255, 255)" stroke="none" stroke-width="1px">10k</text><text x="168.48307291666669" y="0" dx="0em" dy="0.95em" style="text-anchor: middle; visibility: inherit; font-family: Roboto, sans-serif; font-size: 12px; font-weight: 200;" fill="rgb(255, 255, 255)" stroke="none" stroke-width="1px">12k</text><text x="192.55208333333331" y="0" dx="0em" dy="0.95em" style="text-anchor: middle; visibility: hidden; font-family: Roboto, sans-serif; font-size: 12px; font-weight: 200;" fill="rgb(255, 255, 255)" stroke="none" stroke-width="1px">14k</text><text x="216.62109375" y="0" dx="0em" dy="0.95em" style="text-anchor: middle; visibility: inherit; font-family: Roboto, sans-serif; font-size: 12px; font-weight: 200;" fill="rgb(255, 255, 255)" stroke="none" stroke-width="1px">16k</text><text x="240.69010416666669" y="0" dx="0em" dy="0.95em" style="text-anchor: middle; visibility: hidden; font-family: Roboto, sans-serif; font-size: 12px; font-weight: 200;" fill="rgb(255, 255, 255)" stroke="none" stroke-width="1px">18k</text><text x="264.7591145833333" y="0" dx="0em" dy="0.95em" style="text-anchor: middle; visibility: inherit; font-family: Roboto, sans-serif; font-size: 12px; font-weight: 200;" fill="rgb(255, 255, 255)" stroke="none" stroke-width="1px">20k</text><text x="288.828125" y="0" dx="0em" dy="0.95em" style="text-anchor: middle; visibility: hidden; font-family: Roboto, sans-serif; font-size: 12px; font-weight: 200;" fill="rgb(255, 255, 255)" stroke="none" stroke-width="1px">22k</text></g><line x1="0" y1="0" x2="288.828125" y2="0" fill="rgb(0, 0, 0)" stroke="rgb(204, 204, 204)" stroke-width="1px"></line></g></g></g></g></svg>