<svg viewBox="0 0 330 200" xmlns="http://www.w3.org/2000/svg"><g><g><g><g><g><line x1="72.34375" y1="177" x2="67.34375" y2="177" style="visibility: inherit;" fill="rgb(0, 0, 0)" stroke="rgb(204, 204, 204)" stroke-width="1px"></line><line x1="72.34375" y1="162.25" x2="67.34375" y2="162.25" style="visibility: inherit;" fill="rgb(0, 0, 0)" stroke="rgb(204, 204, 204)" stroke-width="1px"></line><line x1="72.34375" y1="147.5" x2="67.34375" y2="147.5" style="visibility: inherit;" fill="rgb(0, 0, 0)" stroke="rgb(204, 204, 204)" stroke-width="1px"></line><line x1="72.34375" y1="132.75" x2="67.34375" y2="132.75" style="visibility: inherit;" fill="rgb(0, 0, 0)" stroke="rgb(204, 204, 204)" stroke-width="1px"></line><line x1="72.34375" y1="118.00000000000001" x2="67.34375" y2="118.00000000000001" style="visibility: inherit;" fill="rgb(0, 0, 0)" stroke="rgb(204, 204, 204)" stroke-width="1px"></line><line x1="72.34375" y1="103.24999999999999" x2="67.34375" y2="103.24999999999999" style="visibility: inherit;" fill="rgb(0, 0, 0)" stroke="rgb(204, 204, 204)" stroke-width="1px"></line><line x1="72.34375" y1="88.5" x2="67.34375" y2="88.5" style="visibility: inherit;" fill="rgb(0, 0, 0)" stroke="rgb(204, 204, 204)" stroke-width="1px"></line><line x1="72.34375" y1="73.75000000000001" x2="67.34375" y2="73.75000000000001" style="visibility: inherit;" fill="rgb(0, 0, 0)" stroke="rgb(204, 204, 204)" stroke-width="1px"></line><line x1="72.34375" y1="59.00000000000001" x2="67.34375" y2="59.00000000000001" style="visibility: inherit;" fill="rgb(0, 0, 0)" stroke="rgb(204, 204, 204)" stroke-width="1px"></line><line x1="72.34375" y1="44.25000000000002" x2="67.34375" y2="44.25000000000002" style="visibility: inherit;" fill="rgb(0, 0, 0)" stroke="rgb(204, 204, 204)" stroke-width="1px"></line><line x1="72.34375" y1="29.499999999999993" x2="67.34375" y2="29.499999999999993" style="visibility: inherit;" fill="rgb(0, 0, 0)" stroke="rgb(204, 204, 204)" stroke-width="1px"></line><line x1="72.34375" y1="14.750000000000007" x2="67.34375" y2="14.750000000000007" style="visibility: inherit;" fill="rgb(0, 0, 0)" stroke="rgb(204, 204, 204)" stroke-width="1px"></line><line x1="72.34375" y1="0" x2="67.34375" y2="0" style="visibility: inherit;" fill="rgb(0, 0, 0)" stroke="rgb(204, 204, 204)" stroke-width="1px"></line></g><g transform="translate(62.34375, 0)"><text x="0" y="177" dx="0em" dy="0.3em" style="text-anchor: end; visibility: hidden; font-family: Roboto, sans-serif; font-size: 12px; font-weight: 200;" fill="rgb(255, 255, 255)" stroke="none" stroke-width="1px">1e-3</text><text x="0" y="162.25" dx="0em" dy="0.3em" style="text-anchor: end; visibility: inherit; font-family: Roboto, sans-serif; font-size: 12px; font-weight: 200;" fill="rgb(255, 255, 255)" stroke="none" stroke-width="1px">1.5e-3</text><text x="0" y="147.5" dx="0em" dy="0.3em" style="text-anchor: end; visibility: hidden; font-family: Roboto, sans-serif; font-size: 12px; font-weight: 200;" fill="rgb(255, 255, 255)" stroke="none" stroke-width="1px">2e-3</text><text x="0" y="132.75" dx="0em" dy="0.3em" style="text-anchor: end; visibility: inherit; font-family: Roboto, sans-serif; font-size: 12px; font-weight: 200;" fill="rgb(255, 255, 255)" stroke="none" stroke-width="1px">2.5e-3</text><text x="0" y="118.00000000000001" dx="0em" dy="0.3em" style="text-anchor: end; visibility: hidden; font-family: Roboto, sans-serif; font-size: 12px; font-weight: 200;" fill="rgb(255, 255, 255)" stroke="none" stroke-width="1px">3e-3</text><text x="0" y="103.24999999999999" dx="0em" dy="0.3em" style="text-anchor: end; visibility: inherit; font-family: Roboto, sans-serif; font-size: 12px; font-weight: 200;" fill="rgb(255, 255, 255)" stroke="none" stroke-width="1px">3.5e-3</text><text x="0" y="88.5" dx="0em" dy="0.3em" style="text-anchor: end; visibility: hidden; font-family: Roboto, sans-serif; font-size: 12px; font-weight: 200;" fill="rgb(255, 255, 255)" stroke="none" stroke-width="1px">4e-3</text><text x="0" y="73.75000000000001" dx="0em" dy="0.3em" style="text-anchor: end; visibility: inherit; font-family: Roboto, sans-serif; font-size: 12px; font-weight: 200;" fill="rgb(255, 255, 255)" stroke="none" stroke-width="1px">4.5e-3</text><text x="0" y="59.00000000000001" dx="0em" dy="0.3em" style="text-anchor: end; visibility: hidden; font-family: Roboto, sans-serif; font-size: 12px; font-weight: 200;" fill="rgb(255, 255, 255)" stroke="none" stroke-width="1px">5e-3</text><text x="0" y="44.25000000000002" dx="0em" dy="0.3em" style="text-anchor: end; visibility: inherit; font-family: Roboto, sans-serif; font-size: 12px; font-weight: 200;" fill="rgb(255, 255, 255)" stroke="none" stroke-width="1px">5.5e-3</text><text x="0" y="29.499999999999993" dx="0em" dy="0.3em" style="text-anchor: end; visibility: hidden; font-family: Roboto, sans-serif; font-size: 12px; font-weight: 200;" fill="rgb(255, 255, 255)" stroke="none" stroke-width="1px">6e-3</text><text x="0" y="14.750000000000007" dx="0em" dy="0.3em" style="text-anchor: end; visibility: inherit; font-family: Roboto, sans-serif; font-size: 12px; font-weight: 200;" fill="rgb(255, 255, 255)" stroke="none" stroke-width="1px">6.5e-3</text><text x="0" y="0" dx="0em" dy="0.3em" style="text-anchor: end; visibility: hidden; font-family: Roboto, sans-serif; font-size: 12px; font-weight: 200;" fill="rgb(255, 255, 255)" stroke="none" stroke-width="1px">7e-3</text></g><line x1="72.34375" y1="0" x2="72.34375" y2="177" fill="rgb(0, 0, 0)" stroke="rgb(204, 204, 204)" stroke-width="1px"></line></g></g><g transform="translate(72, 0)" clip-path="url(#clip_0)"><clipPath id="clip_0"><rect width="257" height="177"></rect></clipPath><g><g><g><line x1="0" y1="0" x2="0" y2="177" fill="rgb(0, 0, 0)" stroke="rgb(189, 189, 189)" stroke-width="1px" opacity="0.25"></line><line x1="21.471354166666664" y1="0" x2="21.471354166666664" y2="177" fill="rgb(0, 0, 0)" stroke="rgb(189, 189, 189)" stroke-width="1px" opacity="0.25"></line><line x1="42.94270833333333" y1="0" x2="42.94270833333333" y2="177" fill="rgb(0, 0, 0)" stroke="rgb(189, 189, 189)" stroke-width="1px" opacity="0.25"></line><line x1="64.4140625" y1="0" x2="64.4140625" y2="177" fill="rgb(0, 0, 0)" stroke="rgb(189, 189, 189)" stroke-width="1px" opacity="0.25"></line><line x1="85.88541666666666" y1="0" x2="85.88541666666666" y2="177" fill="rgb(0, 0, 0)" stroke="rgb(189, 189, 189)" stroke-width="1px" opacity="0.25"></line><line x1="107.35677083333334" y1="0" x2="107.35677083333334" y2="177" fill="rgb(0, 0, 0)" stroke="rgb(189, 189, 189)" stroke-width="1px" opacity="0.25"></line><line x1="128.828125" y1="0" x2="128.828125" y2="177" fill="rgb(0, 0, 0)" stroke="rgb(189, 189, 189)" stroke-width="1px" opacity="0.25"></line><line x1="150.29947916666669" y1="0" x2="150.29947916666669" y2="177" fill="rgb(0, 0, 0)" stroke="rgb(189, 189, 189)" stroke-width="1px" opacity="0.25"></line><line x1="171.77083333333331" y1="0" x2="171.77083333333331" y2="177" fill="rgb(0, 0, 0)" stroke="rgb(189, 189, 189)" stroke-width="1px" opacity="0.25"></line><line x1="193.2421875" y1="0" x2="193.2421875" y2="177" fill="rgb(0, 0, 0)" stroke="rgb(189, 189, 189)" stroke-width="1px" opacity="0.25"></line><line x1="214.71354166666669" y1="0" x2="214.71354166666669" y2="177" fill="rgb(0, 0, 0)" stroke="rgb(189, 189, 189)" stroke-width="1px" opacity="0.25"></line><line x1="236.18489583333331" y1="0" x2="236.18489583333331" y2="177" fill="rgb(0, 0, 0)" stroke="rgb(189, 189, 189)" stroke-width="1px" opacity="0.25"></line><line x1="257.65625" y1="0" x2="257.65625" y2="177" fill="rgb(0, 0, 0)" stroke="rgb(189, 189, 189)" stroke-width="1px" opacity="0.25"></line></g><g><line x1="0" y1="177" x2="257.65625" y2="177" fill="rgb(0, 0, 0)" stroke="rgb(189, 189, 189)" stroke-width="1px" opacity="0.25"></line><line x1="0" y1="162.25" x2="257.65625" y2="162.25" fill="rgb(0, 0, 0)" stroke="rgb(189, 189, 189)" stroke-width="1px" opacity="0.25"></line><line x1="0" y1="147.5" x2="257.65625" y2="147.5" fill="rgb(0, 0, 0)" stroke="rgb(189, 189, 189)" stroke-width="1px" opacity="0.25"></line><line x1="0" y1="132.75" x2="257.65625" y2="132.75" fill="rgb(0, 0, 0)" stroke="rgb(189, 189, 189)" stroke-width="1px" opacity="0.25"></line><line x1="0" y1="118.00000000000001" x2="257.65625" y2="118.00000000000001" fill="rgb(0, 0, 0)" stroke="rgb(189, 189, 189)" stroke-width="1px" opacity="0.25"></line><line x1="0" y1="103.24999999999999" x2="257.65625" y2="103.24999999999999" fill="rgb(0, 0, 0)" stroke="rgb(189, 189, 189)" stroke-width="1px" opacity="0.25"></line><line x1="0" y1="88.5" x2="257.65625" y2="88.5" fill="rgb(0, 0, 0)" stroke="rgb(189, 189, 189)" stroke-width="1px" opacity="0.25"></line><line x1="0" y1="73.75000000000001" x2="257.65625" y2="73.75000000000001" fill="rgb(0, 0, 0)" stroke="rgb(189, 189, 189)" stroke-width="1px" opacity="0.25"></line><line x1="0" y1="59.00000000000001" x2="257.65625" y2="59.00000000000001" fill="rgb(0, 0, 0)" stroke="rgb(189, 189, 189)" stroke-width="1px" opacity="0.25"></line><line x1="0" y1="44.25000000000002" x2="257.65625" y2="44.25000000000002" fill="rgb(0, 0, 0)" stroke="rgb(189, 189, 189)" stroke-width="1px" opacity="0.25"></line><line x1="0" y1="29.499999999999993" x2="257.65625" y2="29.499999999999993" fill="rgb(0, 0, 0)" stroke="rgb(189, 189, 189)" stroke-width="1px" opacity="0.25"></line><line x1="0" y1="14.750000000000007" x2="257.65625" y2="14.750000000000007" fill="rgb(0, 0, 0)" stroke="rgb(189, 189, 189)" stroke-width="1px" opacity="0.25"></line><line x1="0" y1="0" x2="257.65625" y2="0" fill="rgb(0, 0, 0)" stroke="rgb(189, 189, 189)" stroke-width="1px" opacity="0.25"></line></g></g></g><g><g><line x1="0" y1="206.5" x2="257.65625" y2="206.5" fill="rgb(0, 0, 0)" stroke="rgb(153, 153, 153)" stroke-width="1.5px"></line></g></g><g><g><line x1="21.471354166666664" y1="0" x2="21.471354166666664" y2="177" fill="rgb(0, 0, 0)" stroke="rgb(153, 153, 153)" stroke-width="1.5px"></line></g></g><g><g><g><g><g><path stroke="rgb(255, 112, 67)" stroke-width="2px" d="M27.912760416666668,-11.554832244812367L28.986328125,5.83835384338574L30.059895833333332,27.119167347178813L31.133463541666668,33.724600777638784L32.20703125,51.95429181332079L33.280598958333336,46.854845606214425L34.354166666666664,48.003691895001104L35.427734375,51.07309814253324L36.501302083333336,40.82301322355216L37.57486979166667,40.122344654677335L38.6484375,31.579598841758322L39.722005208333336,23.590293390739063L40.795572916666664,13.348501823785494L41.869140625,49.43719584989243L42.94270833333333,58.918653232806136L44.016276041666664,51.44383135222893L45.08984375,71.99403120160159L46.163411458333336,74.66978531294258L47.236979166666664,74.086155724502L48.310546875,39.78711538660064L49.384114583333336,82.07523662203768L50.457682291666664,107.55102767129875L51.53125,114.69730888439169L52.604817708333336,97.68945716627157L53.67838541666667,68.00194305298547L54.751953125,90.26276078491337L55.825520833333336,95.1932429116385L56.899088541666664,66.51002770063286L57.97265625,63.67607652187089L59.04622395833333,68.55501847556951L60.119791666666664,62.71427110498825L61.193359375,71.10879712406742L62.266927083333336,85.3854116845748L63.340494791666664,65.15313053979725L64.4140625,88.00111350627752L65.48763020833333,97.26263484780941L66.56119791666667,119.69628205347018L67.634765625,129.43610259917244L68.70833333333333,123.18240818475245L69.78190104166666,122.75798446662519L70.85546875,127.42611891940913L71.92903645833333,130.2198590941472L73.00260416666667,139.27434771552856L74.076171875,152.6970012384311L75.14973958333334,104.36727901867638L76.22330729166667,128.48144130425888L77.296875,110.4284487143661L78.37044270833333,104.20382309595188L79.44401041666667,130.91883616030447L80.517578125,135.56030809249413L81.59114583333333,129.53086206348567L82.66471354166667,113.60144225899116L83.73828125,73.01816991950757L84.81184895833333,84.7001971072605L85.88541666666666,115.53790631561287L86.958984375,113.58198525708197L88.03255208333333,103.19910401151327L89.10611979166667,57.505720731143164L90.1796875,88.77570265287122L91.25325520833334,103.94779676424844L92.32682291666667,91.72168336944208L93.400390625,119.56371376130095L94.47395833333333,135.1838993107564L95.54752604166667,135.24047297911568L96.62109375,126.0838643121822L97.69466145833333,127.05302948925512L98.76822916666667,104.86110797106396L99.841796875,109.46884366321069L100.91536458333333,116.79861427477005L101.98893229166666,110.88553065586689L103.0625,133.2604599207482L104.13606770833333,131.11988049357183L105.20963541666667,99.13647402887969L106.283203125,126.98374363278853L107.35677083333334,131.9388463780016L108.43033854166667,129.90391692353668L109.50390625,134.43639183764685L110.57747395833333,142.13789944782872L111.65104166666667,146.4525525318311L112.724609375,140.58824218194044L113.79817708333333,153.75693505018418L114.87174479166667,154.83472202761152L115.9453125,134.9403280499171L117.01888020833333,133.98922089979592L118.09244791666666,-13.573374106016482L119.166015625,49.79703792384163L120.23958333333333,90.8542284141162L121.31315104166667,62.22299069509974L122.38671875,105.93697566223784L123.46028645833334,131.05717061401245L124.53385416666667,136.98768105024598L125.607421875,130.79638492525817L126.68098958333333,122.3060463236195L127.75455729166667,136.42474945806995L128.828125,121.02235099813959L129.90169270833334,108.50812197263016L130.97526041666666,135.88371625712497L132.048828125,131.2148091102897L133.12239583333334,147.357613425084L134.19596354166669,144.75690646469772L135.26953125,146.3362348105769L136.34309895833334,143.5823730398721L137.41666666666666,149.39819547408112L138.490234375,145.87638737521047L139.56380208333331,92.25178921378537L140.63736979166666,111.69312346075108L141.7109375,134.6221592791401L142.78450520833334,145.61324270956354L143.85807291666666,112.2396312260189L144.931640625,118.04873205444565L146.00520833333334,131.1187736351198L147.07877604166666,150.91027839628046L148.15234375,115.2395133057069L149.22591145833334,139.6925138688136L150.29947916666669,151.06667675710014L151.373046875,158.76012404027608L152.44661458333334,155.21566787425743L153.52018229166666,154.0787854366098L154.59375,139.20749712832833L155.66731770833331,146.8804048523564L156.74088541666666,153.7366726221671L157.814453125,159.83067243696183L158.88802083333334,161.90991819795778L159.96158854166666,154.03479421151764L161.03515625,159.6671957989072L162.10872395833334,141.29438683618815L163.18229166666666,131.90933693933314L164.255859375,119.20691290043487L165.32942708333334,140.3923763121229L166.40299479166669,102.21232026130328L167.4765625,90.67761709726078L168.55013020833334,108.10882882139815L169.62369791666666,126.7826904933109L170.697265625,147.70971213471987L171.77083333333331,157.41118185727802L172.84440104166666,149.042158925587L173.91796875,145.97344986069444L174.99153645833334,134.55290049109308L176.06510416666666,122.14247578855422L177.138671875,139.75577781167516L178.21223958333334,149.14133095334108L179.28580729166666,144.54052057245454L180.359375,152.46227929203408L181.43294270833334,132.84714480613886L182.50651041666669,120.65874469354881L183.580078125,136.2028248400249L184.65364583333334,151.46645860188502L185.72721354166666,142.14920521043717L186.80078125,155.5644323044299L187.87434895833331,151.29807166536324L188.94791666666666,112.76208639609621L190.021484375,116.00702261309506L191.09505208333334,140.4000548150729L192.16861979166666,139.34548011096365L193.2421875,144.46317732865091L194.31575520833334,160.02461180586428L195.38932291666666,141.03203038833328L196.462890625,143.31321976460092L197.53645833333334,154.98766343427195L198.61002604166669,165.42775751785186L199.68359375,164.09577331120965L200.75716145833334,146.562172034682L201.83072916666666,140.23268885943367L202.904296875,137.58589647208495L203.97786458333331,149.1153861146113L205.05143229166666,160.2028923493812L206.125,163.66863415313895L207.19856770833334,161.09545491422347L208.27213541666666,161.45468756651957L209.345703125,139.3984765699272L210.41927083333334,154.61213321835635L211.49283854166666,152.26172318034375L212.56640625,159.7590888722122L213.63997395833334,144.59408857313576L214.71354166666669,157.51109710417856L215.787109375,148.26896678221325L216.86067708333334,144.87693436778844L217.93424479166666,157.0990409195036L219.0078125,153.09067527738873L220.08138020833331,141.61050488077203L221.15494791666666,142.9849656739688L222.228515625,152.4663542823929L223.30208333333334,155.48562660802534L224.37565104166666,163.04684766040225L225.44921875,164.10772989038216L226.52278645833334,157.30995810348443L227.59635416666666,133.06358151216003L228.669921875,121.0532996290397L229.74348958333334,134.6269060246108L230.81705729166669,130.77143211197603L231.890625,143.59787734058048L232.96419270833334,154.95881254814742L234.03776041666666,151.8356277426641L235.111328125,152.33084383956705L236.18489583333331,144.35839772397048" style="fill: none;" fill="none"></path></g><g><path stroke="rgb(0, 119, 187)" stroke-width="2px" d="M42.94270833333333,-16.280347644940598L53.67838541666667,38.88417869913121L64.4140625,60.56680704588246L75.14973958333334,82.44973329655919L85.88541666666666,95.99318440108723L96.62109375,101.66071096782717L107.35677083333334,111.32725435458022L118.09244791666666,109.96450970438697L128.828125,112.5854397568281L139.56380208333331,118.08419603103552L150.29947916666669,116.54206442178L161.03515625,122.10244752829223L171.77083333333331,124.22505194231209L182.50651041666669,127.87617100798572L193.2421875,130.68085617629288L203.97786458333331,131.75548028465275L214.71354166666669,129.8677862484187L225.44921875,129.9458450525448L236.18489583333331,127.52984544933639" style="fill: none;" fill="none"></path></g></g></g></g><g opacity="0.2"><g><g><g><path stroke="rgb(255, 112, 67)" stroke-width="2px" d="M24.692057291666668,-73.74067729711528L25.765625,0.48045921698212624L26.839192708333336,-8.187194442376507L27.912760416666668,51.409399747848504L28.986328125,30.710888240486383L30.059895833333332,58.146797731518745L31.133463541666668,43.466332048177726L32.20703125,79.02325844019651L33.280598958333336,39.251927897334106L34.354166666666664,49.72070935741067L35.427734375,55.667185369879014L36.501302083333336,25.46796682849528L37.57486979166667,39.07216541096569L38.6484375,18.771505128592267L39.722005208333336,11.609716020524509L40.795572916666664,-2.011585136875497L41.869140625,103.5647391397506L42.94270833333333,73.13997266441584L44.016276041666664,40.232008468359716L45.08984375,102.81865476258099L46.163411458333336,78.68336365185678L47.236979166666664,73.21071825549006L48.310546875,-11.661201337352407L49.384114583333336,145.5072381356731L50.457682291666664,145.76464905962348L51.53125,125.41671973280609L52.604817708333336,72.17769525572658L53.67838541666667,23.47068829089403L54.751953125,123.65398000087589L55.825520833333336,102.58896512072533L56.899088541666664,23.485208308324225L57.97265625,59.42514995671808L59.04622395833333,75.87343119643629L60.119791666666664,53.95315019972622L61.193359375,83.70058602280915L62.266927083333336,106.80033339280637L63.340494791666664,34.80470893532038L64.4140625,122.27308787964284L65.48763020833333,111.15491684153677L66.56119791666667,153.346752834972L67.634765625,144.0458334106952L68.70833333333333,113.801866565831L69.78190104166666,122.1213488895446L70.85546875,134.42832059785724L71.92903645833333,134.41046935599297L73.00260416666667,152.8560806470923L74.076171875,172.83098152233288L75.14973958333334,31.872695690020933L76.22330729166667,164.65268473234028L77.296875,83.34895982965827L78.37044270833333,94.86688466835767L79.44401041666667,170.99135575676337L80.517578125,142.52251599077135L81.59114583333333,120.4866930199787L82.66471354166667,89.70731255225837L83.73828125,12.143261410295963L84.81184895833333,102.22323788888752L85.88541666666666,161.79447012813762L86.958984375,110.64810366928579L88.03255208333333,87.6247821431607L89.10611979166667,-11.034354189410806L90.1796875,135.6806755354628L91.25325520833334,126.70593793131412L92.32682291666667,73.38251327723265L93.400390625,161.32675934908912L94.47395833333333,158.61417763493955L95.54752604166667,135.32533348165452L96.62109375,112.348951311782L97.69466145833333,128.50677725486457L98.76822916666667,71.5732256937772L99.841796875,116.3804472014308L100.91536458333333,127.79327019210906L101.98893229166666,102.01590522751212L103.0625,166.82285381807014L104.13606770833333,127.9090113528073L105.20963541666667,51.16136433184147L106.283203125,168.7546480386518L107.35677083333334,139.37150049582124L108.43033854166667,126.85152274183929L109.50390625,141.23510420881212L110.57747395833333,153.69016086310148L111.65104166666667,152.92453215783462L112.724609375,131.7917766571045L113.79817708333333,173.50997435254976L114.87174479166667,156.45140249375254L115.9453125,105.09873708337545L117.01888020833333,132.5625601746142L118.09244791666666,-234.9172666147351L119.166015625,144.85265596862882L120.23958333333333,152.440014149528L121.31315104166667,19.276134116575136L122.38671875,171.50795311294496L123.46028645833334,168.73746304167435L124.53385416666667,145.88344670459628L125.607421875,121.50944073777646L126.68098958333333,109.57053842116149L127.75455729166667,157.60280415974557L128.828125,97.91875330824405L129.90169270833334,89.73677843436599L130.97526041666666,176.94710768386722L132.048828125,124.21144839003682L133.12239583333334,171.57181989727542L134.19596354166669,140.85584602411836L135.26953125,148.7052273293957L136.34309895833334,139.45158038381487L137.41666666666666,158.12192912539467L138.490234375,140.59367522690445L139.56380208333331,11.81489197164774L140.63736979166666,140.85512483119965L141.7109375,169.01571300672367L142.78450520833334,162.09986785519868L143.85807291666666,62.179214000701904L144.931640625,126.76238329708576L146.00520833333334,150.72383600613102L147.07877604166666,180.59753553802148L148.15234375,61.73336566984654L149.22591145833334,176.37201471347362L150.29947916666669,168.12792108953L151.373046875,170.30029496503994L152.44661458333334,149.89898362522945L153.52018229166666,152.3734617801383L154.59375,116.90056466590613L155.66731770833331,158.3897664383985L156.74088541666666,164.02107427688316L157.814453125,168.97167215915397L158.88802083333334,165.02878683945164L159.96158854166666,142.22210823185742L161.03515625,168.11579817999154L162.10872395833334,113.73517339210957L163.18229166666666,117.83176209405066L164.255859375,100.15327684208751L165.32942708333334,172.17057142965496L166.40299479166669,44.94223618507387L167.4765625,73.375562351197L168.55013020833334,134.25564640760422L169.62369791666666,154.79348300118L170.697265625,179.10024459683336L171.77083333333331,171.9633864411153L172.84440104166666,136.48862452805042L173.91796875,141.3703862633556L174.99153645833334,117.42207643669099L176.06510416666666,103.526838734746L177.138671875,166.1757308463566L178.21223958333334,163.2196606658399L179.28580729166666,137.63930500112474L180.359375,164.34491737140343L181.43294270833334,103.42444307729602L182.50651041666669,102.3761445246637L183.580078125,159.51894505973905L184.65364583333334,174.3619092446752L185.72721354166666,128.17332512326539L186.80078125,175.68727294541895L187.87434895833331,144.89853070676327L188.94791666666666,54.95810849219561L190.021484375,120.87442693859339L191.09505208333334,176.98960311803967L192.16861979166666,137.76361805479974L193.2421875,152.13972315518185L194.31575520833334,183.36676352168433L195.38932291666666,112.54315826203674L196.462890625,146.73500382900238L197.53645833333334,172.4993289387785L198.61002604166669,181.0878986432217L199.68359375,162.09779700124636L200.75716145833334,120.26177011989058L201.83072916666666,130.73846409656107L202.904296875,133.6157078910619L203.97786458333331,166.4096205784008L205.05143229166666,176.83415170153603L206.125,168.86724685877562L207.19856770833334,157.23568605585024L208.27213541666666,161.99353654496372L209.345703125,106.31416007503867L210.41927083333334,177.43261819100007L211.49283854166666,148.7361081233248L212.56640625,171.00513741001487L213.63997395833334,121.84658812452108L214.71354166666669,176.88660990074277L215.787109375,134.40577129926533L216.86067708333334,139.7888857461512L217.93424479166666,175.43220074707642L219.0078125,147.07812681421638L220.08138020833331,124.39024928584696L221.15494791666666,145.04665686376393L222.228515625,166.6884371950291L223.30208333333334,160.014535096474L224.37565104166666,174.3886792389676L225.44921875,165.69905323535204L226.52278645833334,147.11330042313784L227.59635416666666,96.69401662517339L228.669921875,103.03787680435926L229.74348958333334,154.9873156179674L230.81705729166669,124.98822124302389L231.890625,162.83754518348724L232.96419270833334,172.00021535949782L234.03776041666666,147.1508505344391L235.111328125,153.07366798492149L236.18489583333331,132.39972855057567" style="fill: none;" fill="none"></path></g><g><path stroke="rgb(0, 119, 187)" stroke-width="2px" d="M21.471354166666664,-271.96773546189064L32.20703125,4.120972385630018L42.94270833333333,63.526319950819016L53.67838541666667,103.75766167975964L64.4140625,88.87564661540091L75.14973958333334,112.72169815469535L85.88541666666666,115.36053617578L96.62109375,109.92401911038905L107.35677083333334,125.58352822065353L118.09244791666666,107.9409927185625L128.828125,116.4930631928146L139.56380208333331,126.30240645352751L150.29947916666669,114.23390233516693L161.03515625,130.43212881870568L171.77083333333331,127.40646352153273L182.50651041666669,133.3502745544538L193.2421875,134.88669707998633L203.97786458333331,133.3671436002478L214.71354166666669,127.03653276525439L225.44921875,130.06292612385005L236.18489583333331,123.9059785436839" style="fill: none;" fill="none"></path></g></g></g></g></g></g><g transform="translate(72, 177)" clip-path="url(#clip_1)"><clipPath id="clip_1"><rect width="257" height="23"></rect></clipPath><g><g><line x1="0" y1="0" x2="0" y2="5" style="visibility: inherit;" fill="rgb(0, 0, 0)" stroke="rgb(204, 204, 204)" stroke-width="1px"></line><line x1="21.471354166666664" y1="0" x2="21.471354166666664" y2="5" style="visibility: inherit;" fill="rgb(0, 0, 0)" stroke="rgb(204, 204, 204)" stroke-width="1px"></line><line x1="42.94270833333333" y1="0" x2="42.94270833333333" y2="5" style="visibility: inherit;" fill="rgb(0, 0, 0)" stroke="rgb(204, 204, 204)" stroke-width="1px"></line><line x1="64.4140625" y1="0" x2="64.4140625" y2="5" style="visibility: inherit;" fill="rgb(0, 0, 0)" stroke="rgb(204, 204, 204)" stroke-width="1px"></line><line x1="85.88541666666666" y1="0" x2="85.88541666666666" y2="5" style="visibility: inherit;" fill="rgb(0, 0, 0)" stroke="rgb(204, 204, 204)" stroke-width="1px"></line><line x1="107.35677083333334" y1="0" x2="107.35677083333334" y2="5" style="visibility: inherit;" fill="rgb(0, 0, 0)" stroke="rgb(204, 204, 204)" stroke-width="1px"></line><line x1="128.828125" y1="0" x2="128.828125" y2="5" style="visibility: inherit;" fill="rgb(0, 0, 0)" stroke="rgb(204, 204, 204)" stroke-width="1px"></line><line x1="150.29947916666669" y1="0" x2="150.29947916666669" y2="5" style="visibility: inherit;" fill="rgb(0, 0, 0)" stroke="rgb(204, 204, 204)" stroke-width="1px"></line><line x1="171.77083333333331" y1="0" x2="171.77083333333331" y2="5" style="visibility: inherit;" fill="rgb(0, 0, 0)" stroke="rgb(204, 204, 204)" stroke-width="1px"></line><line x1="193.2421875" y1="0" x2="193.2421875" y2="5" style="visibility: inherit;" fill="rgb(0, 0, 0)" stroke="rgb(204, 204, 204)" stroke-width="1px"></line><line x1="214.71354166666669" y1="0" x2="214.71354166666669" y2="5" style="visibility: inherit;" fill="rgb(0, 0, 0)" stroke="rgb(204, 204, 204)" stroke-width="1px"></line><line x1="236.18489583333331" y1="0" x2="236.18489583333331" y2="5" style="visibility: inherit;" fill="rgb(0, 0, 0)" stroke="rgb(204, 204, 204)" stroke-width="1px"></line><line x1="257.65625" y1="0" x2="257.65625" y2="5" style="visibility: inherit;" fill="rgb(0, 0, 0)" stroke="rgb(204, 204, 204)" stroke-width="1px"></line></g><g transform="translate(0, 8)"><text x="0" y="0" dx="0em" dy="0.95em" style="text-anchor: middle; visibility: hidden; font-family: Roboto, sans-serif; font-size: 12px; font-weight: 200;" fill="rgb(255, 255, 255)" stroke="none" stroke-width="1px">-2k</text><text x="21.471354166666664" y="0" dx="0em" dy="0.95em" style="text-anchor: middle; visibility: inherit; font-family: Roboto, sans-serif; font-size: 12px; font-weight: 200;" fill="rgb(255, 255, 255)" stroke="none" stroke-width="1px">0</text><text x="42.94270833333333" y="0" dx="0em" dy="0.95em" style="text-anchor: middle; visibility: hidden; font-family: Roboto, sans-serif; font-size: 12px; font-weight: 200;" fill="rgb(255, 255, 255)" stroke="none" stroke-width="1px">2k</text><text x="64.4140625" y="0" dx="0em" dy="0.95em" style="text-anchor: middle; visibility: inherit; font-family: Roboto, sans-serif; font-size: 12px; font-weight: 200;" fill="rgb(255, 255, 255)" stroke="none" stroke-width="1px">4k</text><text x="85.88541666666666" y="0" dx="0em" dy="0.95em" style="text-anchor: middle; visibility: hidden; font-family: Roboto, sans-serif; font-size: 12px; font-weight: 200;" fill="rgb(255, 255, 255)" stroke="none" stroke-width="1px">6k</text><text x="107.35677083333334" y="0" dx="0em" dy="0.95em" style="text-anchor: middle; visibility: inherit; font-family: Roboto, sans-serif; font-size: 12px; font-weight: 200;" fill="rgb(255, 255, 255)" stroke="none" stroke-width="1px">8k</text><text x="128.828125" y="0" dx="0em" dy="0.95em" style="text-anchor: middle; visibility: hidden; font-family: Roboto, sans-serif; font-size: 12px; font-weight: 200;" fill="rgb(255, 255, 255)" stroke="none" stroke-width="1px">10k</text><text x="150.29947916666669" y="0" dx="0em" dy="0.95em" style="text-anchor: middle; visibility: inherit; font-family: Roboto, sans-serif; font-size: 12px; font-weight: 200;" fill="rgb(255, 255, 255)" stroke="none" stroke-width="1px">12k</text><text x="171.77083333333331" y="0" dx="0em" dy="0.95em" style="text-anchor: middle; visibility: hidden; font-family: Roboto, sans-serif; font-size: 12px; font-weight: 200;" fill="rgb(255, 255, 255)" stroke="none" stroke-width="1px">14k</text><text x="193.2421875" y="0" dx="0em" dy="0.95em" style="text-anchor: middle; visibility: inherit; font-family: Roboto, sans-serif; font-size: 12px; font-weight: 200;" fill="rgb(255, 255, 255)" stroke="none" stroke-width="1px">16k</text><text x="214.71354166666669" y="0" dx="0em" dy="0.95em" style="text-anchor: middle; visibility: hidden; font-family: Roboto, sans-serif; font-size: 12px; font-weight: 200;" fill="rgb(255, 255, 255)" stroke="none" stroke-width="1px">18k</text><text x="236.18489583333331" y="0" dx="0em" dy="0.95em" style="text-anchor: middle; visibility: inherit; font-family: Roboto, sans-serif; font-size: 12px; font-weight: 200;" fill="rgb(255, 255, 255)" stroke="none" stroke-width="1px">20k</text><text x="257.65625" y="0" dx="0em" dy="0.95em" style="text-anchor: middle; visibility: hidden; font-family: Roboto, sans-serif; font-size: 12px; font-weight: 200;" fill="rgb(255, 255, 255)" stroke="none" stroke-width="1px">22k</text></g><line x1="0" y1="0" x2="257.65625" y2="0" fill="rgb(0, 0, 0)" stroke="rgb(204, 204, 204)" stroke-width="1px"></line></g></g></g></g></svg>