<svg viewBox="0 0 330 200" xmlns="http://www.w3.org/2000/svg"><g><g><g><g><g><line x1="41.171875" y1="177" x2="36.171875" y2="177" style="visibility: inherit;" fill="rgb(0, 0, 0)" stroke="rgb(204, 204, 204)" stroke-width="1px"></line><line x1="41.171875" y1="159.3" x2="36.171875" y2="159.3" style="visibility: inherit;" fill="rgb(0, 0, 0)" stroke="rgb(204, 204, 204)" stroke-width="1px"></line><line x1="41.171875" y1="141.6" x2="36.171875" y2="141.6" style="visibility: inherit;" fill="rgb(0, 0, 0)" stroke="rgb(204, 204, 204)" stroke-width="1px"></line><line x1="41.171875" y1="123.89999999999999" x2="36.171875" y2="123.89999999999999" style="visibility: inherit;" fill="rgb(0, 0, 0)" stroke="rgb(204, 204, 204)" stroke-width="1px"></line><line x1="41.171875" y1="106.2" x2="36.171875" y2="106.2" style="visibility: inherit;" fill="rgb(0, 0, 0)" stroke="rgb(204, 204, 204)" stroke-width="1px"></line><line x1="41.171875" y1="88.5" x2="36.171875" y2="88.5" style="visibility: inherit;" fill="rgb(0, 0, 0)" stroke="rgb(204, 204, 204)" stroke-width="1px"></line><line x1="41.171875" y1="70.8" x2="36.171875" y2="70.8" style="visibility: inherit;" fill="rgb(0, 0, 0)" stroke="rgb(204, 204, 204)" stroke-width="1px"></line><line x1="41.171875" y1="53.09999999999999" x2="36.171875" y2="53.09999999999999" style="visibility: inherit;" fill="rgb(0, 0, 0)" stroke="rgb(204, 204, 204)" stroke-width="1px"></line><line x1="41.171875" y1="35.39999999999999" x2="36.171875" y2="35.39999999999999" style="visibility: inherit;" fill="rgb(0, 0, 0)" stroke="rgb(204, 204, 204)" stroke-width="1px"></line><line x1="41.171875" y1="17.699999999999996" x2="36.171875" y2="17.699999999999996" style="visibility: inherit;" fill="rgb(0, 0, 0)" stroke="rgb(204, 204, 204)" stroke-width="1px"></line><line x1="41.171875" y1="0" x2="36.171875" y2="0" style="visibility: inherit;" fill="rgb(0, 0, 0)" stroke="rgb(204, 204, 204)" stroke-width="1px"></line></g><g transform="translate(31.171875, 0)"><text x="0" y="177" dx="0em" dy="0.3em" style="text-anchor: end; visibility: hidden; font-family: Roboto, sans-serif; font-size: 12px; font-weight: 200;" fill="rgb(255, 255, 255)" stroke="none" stroke-width="1px">0.1</text><text x="0" y="159.3" dx="0em" dy="0.3em" style="text-anchor: end; visibility: inherit; font-family: Roboto, sans-serif; font-size: 12px; font-weight: 200;" fill="rgb(255, 255, 255)" stroke="none" stroke-width="1px">0.2</text><text x="0" y="141.6" dx="0em" dy="0.3em" style="text-anchor: end; visibility: hidden; font-family: Roboto, sans-serif; font-size: 12px; font-weight: 200;" fill="rgb(255, 255, 255)" stroke="none" stroke-width="1px">0.3</text><text x="0" y="123.89999999999999" dx="0em" dy="0.3em" style="text-anchor: end; visibility: inherit; font-family: Roboto, sans-serif; font-size: 12px; font-weight: 200;" fill="rgb(255, 255, 255)" stroke="none" stroke-width="1px">0.4</text><text x="0" y="106.2" dx="0em" dy="0.3em" style="text-anchor: end; visibility: hidden; font-family: Roboto, sans-serif; font-size: 12px; font-weight: 200;" fill="rgb(255, 255, 255)" stroke="none" stroke-width="1px">0.5</text><text x="0" y="88.5" dx="0em" dy="0.3em" style="text-anchor: end; visibility: inherit; font-family: Roboto, sans-serif; font-size: 12px; font-weight: 200;" fill="rgb(255, 255, 255)" stroke="none" stroke-width="1px">0.6</text><text x="0" y="70.8" dx="0em" dy="0.3em" style="text-anchor: end; visibility: hidden; font-family: Roboto, sans-serif; font-size: 12px; font-weight: 200;" fill="rgb(255, 255, 255)" stroke="none" stroke-width="1px">0.7</text><text x="0" y="53.09999999999999" dx="0em" dy="0.3em" style="text-anchor: end; visibility: inherit; font-family: Roboto, sans-serif; font-size: 12px; font-weight: 200;" fill="rgb(255, 255, 255)" stroke="none" stroke-width="1px">0.8</text><text x="0" y="35.39999999999999" dx="0em" dy="0.3em" style="text-anchor: end; visibility: hidden; font-family: Roboto, sans-serif; font-size: 12px; font-weight: 200;" fill="rgb(255, 255, 255)" stroke="none" stroke-width="1px">0.9</text><text x="0" y="17.699999999999996" dx="0em" dy="0.3em" style="text-anchor: end; visibility: inherit; font-family: Roboto, sans-serif; font-size: 12px; font-weight: 200;" fill="rgb(255, 255, 255)" stroke="none" stroke-width="1px">1</text><text x="0" y="0" dx="0em" dy="0.3em" style="text-anchor: end; visibility: hidden; font-family: Roboto, sans-serif; font-size: 12px; font-weight: 200;" fill="rgb(255, 255, 255)" stroke="none" stroke-width="1px">1.1</text></g><line x1="41.171875" y1="0" x2="41.171875" y2="177" fill="rgb(0, 0, 0)" stroke="rgb(204, 204, 204)" stroke-width="1px"></line></g></g><g transform="translate(41, 0)" clip-path="url(#clip_0)"><clipPath id="clip_0"><rect width="288" height="177"></rect></clipPath><g><g><g><line x1="0" y1="0" x2="0" y2="177" fill="rgb(0, 0, 0)" stroke="rgb(189, 189, 189)" stroke-width="1px" opacity="0.25"></line><line x1="24.069010416666664" y1="0" x2="24.069010416666664" y2="177" fill="rgb(0, 0, 0)" stroke="rgb(189, 189, 189)" stroke-width="1px" opacity="0.25"></line><line x1="48.13802083333333" y1="0" x2="48.13802083333333" y2="177" fill="rgb(0, 0, 0)" stroke="rgb(189, 189, 189)" stroke-width="1px" opacity="0.25"></line><line x1="72.20703125" y1="0" x2="72.20703125" y2="177" fill="rgb(0, 0, 0)" stroke="rgb(189, 189, 189)" stroke-width="1px" opacity="0.25"></line><line x1="96.27604166666666" y1="0" x2="96.27604166666666" y2="177" fill="rgb(0, 0, 0)" stroke="rgb(189, 189, 189)" stroke-width="1px" opacity="0.25"></line><line x1="120.34505208333334" y1="0" x2="120.34505208333334" y2="177" fill="rgb(0, 0, 0)" stroke="rgb(189, 189, 189)" stroke-width="1px" opacity="0.25"></line><line x1="144.4140625" y1="0" x2="144.4140625" y2="177" fill="rgb(0, 0, 0)" stroke="rgb(189, 189, 189)" stroke-width="1px" opacity="0.25"></line><line x1="168.48307291666669" y1="0" x2="168.48307291666669" y2="177" fill="rgb(0, 0, 0)" stroke="rgb(189, 189, 189)" stroke-width="1px" opacity="0.25"></line><line x1="192.55208333333331" y1="0" x2="192.55208333333331" y2="177" fill="rgb(0, 0, 0)" stroke="rgb(189, 189, 189)" stroke-width="1px" opacity="0.25"></line><line x1="216.62109375" y1="0" x2="216.62109375" y2="177" fill="rgb(0, 0, 0)" stroke="rgb(189, 189, 189)" stroke-width="1px" opacity="0.25"></line><line x1="240.69010416666669" y1="0" x2="240.69010416666669" y2="177" fill="rgb(0, 0, 0)" stroke="rgb(189, 189, 189)" stroke-width="1px" opacity="0.25"></line><line x1="264.7591145833333" y1="0" x2="264.7591145833333" y2="177" fill="rgb(0, 0, 0)" stroke="rgb(189, 189, 189)" stroke-width="1px" opacity="0.25"></line><line x1="288.828125" y1="0" x2="288.828125" y2="177" fill="rgb(0, 0, 0)" stroke="rgb(189, 189, 189)" stroke-width="1px" opacity="0.25"></line></g><g><line x1="0" y1="177" x2="288.828125" y2="177" fill="rgb(0, 0, 0)" stroke="rgb(189, 189, 189)" stroke-width="1px" opacity="0.25"></line><line x1="0" y1="159.3" x2="288.828125" y2="159.3" fill="rgb(0, 0, 0)" stroke="rgb(189, 189, 189)" stroke-width="1px" opacity="0.25"></line><line x1="0" y1="141.6" x2="288.828125" y2="141.6" fill="rgb(0, 0, 0)" stroke="rgb(189, 189, 189)" stroke-width="1px" opacity="0.25"></line><line x1="0" y1="123.89999999999999" x2="288.828125" y2="123.89999999999999" fill="rgb(0, 0, 0)" stroke="rgb(189, 189, 189)" stroke-width="1px" opacity="0.25"></line><line x1="0" y1="106.2" x2="288.828125" y2="106.2" fill="rgb(0, 0, 0)" stroke="rgb(189, 189, 189)" stroke-width="1px" opacity="0.25"></line><line x1="0" y1="88.5" x2="288.828125" y2="88.5" fill="rgb(0, 0, 0)" stroke="rgb(189, 189, 189)" stroke-width="1px" opacity="0.25"></line><line x1="0" y1="70.8" x2="288.828125" y2="70.8" fill="rgb(0, 0, 0)" stroke="rgb(189, 189, 189)" stroke-width="1px" opacity="0.25"></line><line x1="0" y1="53.09999999999999" x2="288.828125" y2="53.09999999999999" fill="rgb(0, 0, 0)" stroke="rgb(189, 189, 189)" stroke-width="1px" opacity="0.25"></line><line x1="0" y1="35.39999999999999" x2="288.828125" y2="35.39999999999999" fill="rgb(0, 0, 0)" stroke="rgb(189, 189, 189)" stroke-width="1px" opacity="0.25"></line><line x1="0" y1="17.699999999999996" x2="288.828125" y2="17.699999999999996" fill="rgb(0, 0, 0)" stroke="rgb(189, 189, 189)" stroke-width="1px" opacity="0.25"></line><line x1="0" y1="0" x2="288.828125" y2="0" fill="rgb(0, 0, 0)" stroke="rgb(189, 189, 189)" stroke-width="1px" opacity="0.25"></line></g></g></g><g><g><line x1="0" y1="194.70000000000002" x2="288.828125" y2="194.70000000000002" fill="rgb(0, 0, 0)" stroke="rgb(153, 153, 153)" stroke-width="1.5px"></line></g></g><g><g><line x1="24.069010416666664" y1="0" x2="24.069010416666664" y2="177" fill="rgb(0, 0, 0)" stroke="rgb(153, 153, 153)" stroke-width="1.5px"></line></g></g><g><g><g><g><g><path stroke="rgb(255, 112, 67)" stroke-width="2px" d="M25.2724609375,-2.2419050216674647L26.475911458333332,27.11539098322391L27.679361979166668,37.34979923866232L28.8828125,62.216868976766555L30.086263020833336,79.64960645269305L31.289713541666668,92.50122975049544L32.4931640625,92.70126602194502L33.696614583333336,105.44407493182622L34.900065104166664,120.59806072729533L36.103515625,120.38186331071275L37.306966145833336,122.98860669840018L38.510416666666664,129.2128637302039L39.7138671875,126.62885415504219L40.917317708333336,125.74199648313969L42.12076822916667,123.28404212751163L43.32421875,119.0711768095657L44.527669270833336,114.77487430391669L45.731119791666664,119.64124513856187L46.9345703125,128.00962539288642L48.13802083333333,133.0960435554002L49.341471354166664,136.9779854344265L50.544921875,132.14117773299984L51.748372395833336,137.17509408235682L52.951822916666664,142.70642528816492L54.1552734375,139.54976987254327L55.358723958333336,138.21929798987958L56.562174479166664,141.2816700405903L57.765625,141.57269550236478L58.969075520833336,143.8792261615672L60.17252604166667,132.03405689486786L61.3759765625,139.80932343077623L62.579427083333336,141.46995747712518L63.782877604166664,141.56131045913182L64.986328125,142.44140829995868L66.18977864583333,137.39324003813303L67.39322916666667,141.4809199346975L68.5966796875,133.63204307788249L69.80013020833333,136.06846011728913L71.00358072916666,137.67375687629522L72.20703125,147.32337372800504L73.41048177083333,151.5078609029285L74.61393229166667,147.3726996950177L75.8173828125,147.3868688852749L77.02083333333333,150.24645163413723L78.22428385416666,148.44964210132065L79.427734375,147.9376093788978L80.63118489583333,146.12705801265835L81.83463541666667,148.49417460051964L83.0380859375,157.54998508637107L84.24153645833334,150.22216989001643L85.44498697916667,138.02186783666065L86.6484375,142.96993597338835L87.85188802083333,143.28672917360265L89.05533854166667,154.02253968999437L90.2587890625,151.0907111423334L91.46223958333333,146.88550487381778L92.66569010416667,154.09667552723192L93.869140625,144.30931355961252L95.07259114583333,154.08287248139513L96.27604166666666,133.66333681300145L97.4794921875,144.8377580806906L98.68294270833333,149.79155554445364L99.88639322916667,145.3510266117559L101.08984375,149.93241697265546L102.29329427083334,155.65921542950775L103.49674479166667,148.37596773331344L104.7001953125,142.16464990392316L105.90364583333333,151.0755418647229L107.10709635416667,150.98530670934315L108.310546875,147.68252156813975L109.51399739583333,155.725909837723L110.71744791666667,150.90515659847273L111.9208984375,152.1397657000924L113.12434895833333,155.34959187411695L114.32779947916666,154.1460007554497L115.53125,151.75927941836153L116.73470052083333,156.54047536633752L117.93815104166667,151.15569751609766L119.1416015625,160.21575533717515L120.34505208333334,164.35741942029978L121.54850260416667,166.83354635656943L122.751953125,163.36949079287692L123.95540364583333,163.6094849518099L125.15885416666667,165.00015962667217L126.3623046875,160.8101301094708L127.56575520833333,161.24611908083065L128.76920572916669,162.88576373866144L129.97265625,161.5690644038376L131.17610677083334,158.47809552744965L132.37955729166666,145.9894147300478L133.5830078125,151.79584582828022L134.78645833333334,156.61972609747968L135.98990885416666,146.54320612185907L137.193359375,152.0481557156665L138.39680989583334,157.91093958532946L139.60026041666666,159.64103525827014L140.8037109375,154.63089157789756L142.00716145833331,156.94570269852764L143.21061197916666,164.0212153492563L144.4140625,159.79460039008816L145.61751302083334,160.94356529753898L146.82096354166666,153.41320572877822L148.0244140625,151.68821806541024L149.22786458333334,158.99087208289467L150.43131510416669,161.23453732477762L151.634765625,159.57912013499222L152.83821614583334,159.3652432106035L154.04166666666666,164.3188911987601L155.2451171875,165.99064417441238L156.44856770833331,156.72038508987157L157.65201822916666,154.4157578607543L158.85546875,159.22131960631273L160.05891927083334,158.1085171630434L161.26236979166666,150.92530766787837L162.4658203125,155.8033223894996L163.66927083333334,156.008179094062L164.87272135416666,162.65402989904032L166.076171875,156.1976752169129L167.27962239583334,159.41434870762805L168.48307291666669,163.25379181148517L169.6865234375,163.08441010738557L170.88997395833334,163.3832799698421L172.09342447916666,163.861686574549L173.296875,155.0195453018728L174.50032552083331,160.09179613177676L175.70377604166666,162.9467084645313L176.9072265625,161.15814888591063L178.11067708333334,164.1183245772987L179.31412760416666,154.22352815120632L180.517578125,161.23197687416803L181.72102864583334,162.9964060994955L182.92447916666666,163.0371394749267L184.1279296875,160.40142729138034L185.33138020833334,167.65880482527433L186.53483072916669,156.85490733345043L187.73828125,153.49356289362723L188.94173177083334,155.9046511558045L190.14518229166666,162.10251818223887L191.3486328125,167.86750591948086L192.55208333333331,166.5555264112619L193.75553385416666,166.04777186735078L194.958984375,163.3877296413398L196.16243489583334,164.85011879476406L197.36588541666666,155.84836597843469L198.5693359375,164.2260836476296L199.77278645833334,165.94279620016871L200.97623697916666,160.23314043739592L202.1796875,160.16729587113355L203.38313802083334,157.64983791467841L204.58658854166669,155.410560227378L205.7900390625,161.56481204923617L206.99348958333334,166.45433225510493L208.19694010416666,169.54158412562595L209.400390625,171.78007397023907L210.60384114583331,168.55421810011907L211.80729166666666,160.30428212559727L213.0107421875,161.90382913635077L214.21419270833334,165.42687195352258L215.41764322916666,163.84061181909766L216.62109375,154.74865700702028L217.82454427083334,154.53800667345615L219.02799479166666,161.42388596427497L220.2314453125,163.5011459356073L221.43489583333334,163.27025089535258L222.63834635416669,167.02076958223068L223.841796875,160.667895396971L225.04524739583334,161.20845907832583L226.24869791666666,162.2543618303859L227.4521484375,158.90979694141888L228.65559895833331,160.1551487482425L229.85904947916666,164.7357209215663L231.0625,167.31782436192643L232.26595052083334,168.57098845017322L233.46940104166666,169.21038568718652L234.6728515625,169.22990267576827L235.87630208333334,168.51606885732446L237.07975260416666,167.54513239825508L238.283203125,164.34044903376542L239.48665364583334,160.4489553013971L240.69010416666669,163.1413788151461L241.8935546875,164.3709637541603L243.09700520833334,166.31778945321028L244.30045572916666,169.15198814925066L245.50390625,170.93077428851433L246.70735677083331,158.12473944731897L247.91080729166666,151.45747180407253L249.1142578125,158.14051410809162L250.31770833333334,162.41557021173838L251.52115885416666,165.97954959889054L252.724609375,168.29683712136628L253.92805989583334,168.64156212694573L255.13151041666666,157.7482082312532L256.3349609375,160.59818238289523L257.53841145833337,163.4328773025952L258.7418619791667,164.9017720630337L259.9453125,162.48041605297144L261.1487630208333,167.1651648559774L262.3522135416667,164.42719782344133L263.5556640625,163.18883793205993L264.7591145833333,160.32097369105205" style="fill: none;" fill="none"></path></g><g><path stroke="rgb(0, 119, 187)" stroke-width="2px" d="M24.069010416666664,23.786919665336605L36.103515625,-745.3863787382842L96.27604166666666,-17.776509218697054L108.310546875,14.140763723543742L120.34505208333334,26.188153551538083L132.37955729166666,49.914047214066976L144.4140625,68.13565064790863L156.44856770833331,69.18940028638897L168.48307291666669,73.7073191027667L180.517578125,54.465413744209776L192.55208333333331,67.9465105561551L204.58658854166669,-2.8043102351671254L216.62109375,-14.299920948657014L228.65559895833331,22.182580950768063L240.69010416666669,44.1597542383968L252.724609375,34.80043966055951L264.7591145833333,1.4022896075797373" style="fill: none;" fill="none"></path></g></g></g></g><g opacity="0.2"><g><g><g><path stroke="rgb(255, 112, 67)" stroke-width="2px" d="M25.2724609375,-2.2419050216674647L26.475911458333332,44.72976858615875L27.679361979166668,47.174831163883205L28.8828125,91.46054298877716L30.086263020833336,102.40978850126267L31.289713541666668,110.27965135574341L32.4931640625,92.98732109069825L33.696614583333336,124.02321265339852L34.900065104166664,142.94724626541137L36.103515625,120.06083534359932L37.306966145833336,126.87507880926132L38.510416666666664,138.51537714600562L39.7138671875,122.7612770318985L40.917317708333336,124.41344742178917L42.12076822916667,119.59999982714653L43.32421875,112.75485007166863L44.527669270833336,108.33223859667778L45.731119791666664,126.93956581950188L46.9345703125,140.5609209358692L48.13802083333333,140.7252058804035L49.341471354166664,142.80068535804747L50.544921875,124.88612533807755L51.748372395833336,144.7258692204952L52.951822916666664,151.00335657298564L54.1552734375,134.81480918526648L55.358723958333336,136.22359583973883L56.562174479166664,145.87522028088569L57.765625,142.00923324823378L58.969075520833336,147.33902002573012L60.17252604166667,114.26630954146385L61.3759765625,151.47222065627574L62.579427083333336,143.960908216238L63.782877604166664,141.69833992123603L64.986328125,143.7615549981594L66.18977864583333,129.82098786234855L67.39322916666667,147.612439674139L68.5966796875,121.85872791409493L69.80013020833333,139.72308565378188L71.00358072916666,140.08170200586318L72.20703125,161.7977989733219L73.41048177083333,157.78459165692328L74.61393229166667,141.16995788812636L75.8173828125,147.40812267065047L77.02083333333333,154.5358257561922L78.22428385416666,145.7544278025627L79.427734375,147.1695602953434L80.63118489583333,143.41123096346854L81.83463541666667,152.04484948217868L83.0380859375,171.13370081484317L84.24153645833334,139.23044709563254L85.44498697916667,119.7214147567749L86.6484375,150.3920381784439L87.85188802083333,143.76191897392272L89.05533854166667,170.12625546455382L90.2587890625,146.69296832084655L91.46223958333333,140.57769547104834L92.66569010416667,164.913431507349L93.869140625,129.6282706081867L95.07259114583333,168.74321086406707L96.27604166666666,103.03403331041336L97.4794921875,161.5993899822235L98.68294270833333,157.222251740098L99.88639322916667,138.69023321270942L101.08984375,156.8045025140047L102.29329427083334,164.24941311478614L103.49674479166667,137.45109618902205L104.7001953125,132.8476731598377L105.90364583333333,164.4418798059225L107.10709635416667,150.84995397627353L108.310546875,142.72834385633467L109.51399739583333,167.79099224209784L110.71744791666667,143.6740267395973L111.9208984375,153.99167935252188L113.12434895833333,160.16433113515376L114.32779947916666,152.34061407744883L115.53125,148.17919741272925L116.73470052083333,163.71226928830146L117.93815104166667,143.0785307407379L119.1416015625,173.80584206879138L120.34505208333334,170.5699155449867L121.54850260416667,170.54773676097392L122.751953125,158.1734074473381L123.95540364583333,163.96947619020938L125.15885416666667,167.0861716389656L126.3623046875,154.5250858336687L127.56575520833333,161.9001025378704L128.76920572916669,165.3452307254076L129.97265625,159.59401540160178L131.17610677083334,153.84164221286773L132.37955729166666,127.25639353394509L133.5830078125,160.50549247562884L134.78645833333334,163.85554650127887L135.98990885416666,131.42842615842818L137.193359375,160.3055801063776L138.39680989583334,166.7051153898239L139.60026041666666,162.2361787676811L140.8037109375,147.1156760573387L142.00716145833331,160.41791937947272L143.21061197916666,174.63448432534932L144.4140625,153.4546779513359L145.61751302083334,162.66701265871524L146.82096354166666,142.11766637563704L148.0244140625,149.10073657035826L149.22786458333334,169.9448531091213L150.43131510416669,164.60003518760203L151.634765625,157.09599435031413L152.83821614583334,159.04442782402037L154.04166666666666,171.74936318099498L155.2451171875,168.4982736378908L156.44856770833331,142.81499646306037L157.65201822916666,150.9588170170784L158.85546875,166.42966222465037L160.05891927083334,156.43931349813937L161.26236979166666,140.15049342513083L162.4658203125,163.12034447193145L163.66927083333334,156.3154641509056L164.87272135416666,172.62280610650777L166.076171875,146.51314319372176L167.27962239583334,164.23935894370078L168.48307291666669,169.01295646727084L169.6865234375,162.83033755123614L170.88997395833334,163.8315847635269L172.09342447916666,164.57929648160933L173.296875,141.7563333928585L174.50032552083331,167.70017237663268L175.70377604166666,167.2290769636631L176.9072265625,158.4753095179796L178.11067708333334,168.55858811438083L179.31412760416666,139.38133351206778L180.517578125,171.74464995861052L181.72102864583334,165.64304993748664L182.92447916666666,163.09823953807353L184.1279296875,156.44785901606082L185.33138020833334,178.54487112611534L186.53483072916669,140.64906109571456L187.73828125,148.45154623389243L188.94173177083334,159.52128354907035L190.14518229166666,171.39931872189044L191.3486328125,176.51498752534388L192.55208333333331,164.5875571489334L193.75553385416666,165.2861400514841L194.958984375,159.39766630232333L196.16243489583334,167.04370252490043L197.36588541666666,142.34573675394057L198.5693359375,176.792660151422L199.77278645833334,168.51786502897738L200.97623697916666,151.66865679323672L202.1796875,160.06852902173995L203.38313802083334,153.87365097999572L204.58658854166669,152.05164369642733L205.7900390625,170.79618978202342L206.99348958333334,173.7886125639081L208.19694010416666,174.17246193140744L209.400390625,175.13780873715876L210.60384114583331,163.71543429493903L211.80729166666666,147.92937816381453L213.0107421875,164.30314965248107L214.21419270833334,170.71143617928027L215.41764322916666,161.46122161746024L216.62109375,141.11072478890418L217.82454427083334,154.22203117311L219.02799479166666,171.75270490050315L220.2314453125,166.61703589260577L221.43489583333334,162.92390833497046L222.63834635416669,172.64654761254786L223.841796875,151.1385841190815L225.04524739583334,162.019304600358L226.24869791666666,163.82321595847606L227.4521484375,153.89294960796832L228.65559895833331,162.02317645847796L229.85904947916666,171.60657918155192L231.0625,171.19097952246665L232.26595052083334,170.45073458254336L233.46940104166666,170.16948154270648L234.6728515625,169.25917815864085L235.87630208333334,167.4453181296587L237.07975260416666,166.08872770965098L238.283203125,159.53342398703097L239.48665364583334,154.6117147028446L240.69010416666669,167.18001408576964L241.8935546875,166.21534116268157L243.09700520833334,169.23802800178527L244.30045572916666,173.4032861933112L245.50390625,173.5989534974098L246.70735677083331,138.91568718552588L247.91080729166666,141.45657033920287L249.1142578125,168.16507756412028L250.31770833333334,168.82815436720847L251.52115885416666,171.32551867961882L252.724609375,171.77276840507983L253.92805989583334,169.15864963531493L255.13151041666666,141.40817738771437L256.3349609375,164.87314361035823L257.53841145833337,167.6849196821451L258.7418619791667,167.10511420369147L259.9453125,158.84838203787803L261.1487630208333,174.1922880604863L262.3522135416667,160.3202472746372L263.5556640625,161.33129809498786L264.7591145833333,156.01917732954024" style="fill: none;" fill="none"></path></g><g><path stroke="rgb(0, 119, 187)" stroke-width="2px" d="M24.069010416666664,23.786919665336605L36.103515625,-1206.8903577804565L60.17252604166667,-87.06404070854185L72.20703125,61.3483638882637L84.24153645833334,0.8358951330184897L96.27604166666666,64.12101520299912L108.310546875,60.67645407915115L120.34505208333334,43.955713462829586L132.37955729166666,85.14423419237137L144.4140625,95.3027871966362L156.44856770833331,70.76429028511048L168.48307291666669,80.46944553852082L180.517578125,25.640252602100368L192.55208333333331,88.1523092508316L204.58658854166669,-108.88064246177672L216.62109375,-31.538472461700422L228.65559895833331,76.89707089662552L240.69010416666669,77.12216616868973L252.724609375,20.762323272228237L264.7591145833333,-48.6931038379669" style="fill: none;" fill="none"></path></g></g></g></g></g></g><g transform="translate(41, 177)" clip-path="url(#clip_1)"><clipPath id="clip_1"><rect width="288" height="23"></rect></clipPath><g><g><line x1="0" y1="0" x2="0" y2="5" style="visibility: inherit;" fill="rgb(0, 0, 0)" stroke="rgb(204, 204, 204)" stroke-width="1px"></line><line x1="24.069010416666664" y1="0" x2="24.069010416666664" y2="5" style="visibility: inherit;" fill="rgb(0, 0, 0)" stroke="rgb(204, 204, 204)" stroke-width="1px"></line><line x1="48.13802083333333" y1="0" x2="48.13802083333333" y2="5" style="visibility: inherit;" fill="rgb(0, 0, 0)" stroke="rgb(204, 204, 204)" stroke-width="1px"></line><line x1="72.20703125" y1="0" x2="72.20703125" y2="5" style="visibility: inherit;" fill="rgb(0, 0, 0)" stroke="rgb(204, 204, 204)" stroke-width="1px"></line><line x1="96.27604166666666" y1="0" x2="96.27604166666666" y2="5" style="visibility: inherit;" fill="rgb(0, 0, 0)" stroke="rgb(204, 204, 204)" stroke-width="1px"></line><line x1="120.34505208333334" y1="0" x2="120.34505208333334" y2="5" style="visibility: inherit;" fill="rgb(0, 0, 0)" stroke="rgb(204, 204, 204)" stroke-width="1px"></line><line x1="144.4140625" y1="0" x2="144.4140625" y2="5" style="visibility: inherit;" fill="rgb(0, 0, 0)" stroke="rgb(204, 204, 204)" stroke-width="1px"></line><line x1="168.48307291666669" y1="0" x2="168.48307291666669" y2="5" style="visibility: inherit;" fill="rgb(0, 0, 0)" stroke="rgb(204, 204, 204)" stroke-width="1px"></line><line x1="192.55208333333331" y1="0" x2="192.55208333333331" y2="5" style="visibility: inherit;" fill="rgb(0, 0, 0)" stroke="rgb(204, 204, 204)" stroke-width="1px"></line><line x1="216.62109375" y1="0" x2="216.62109375" y2="5" style="visibility: inherit;" fill="rgb(0, 0, 0)" stroke="rgb(204, 204, 204)" stroke-width="1px"></line><line x1="240.69010416666669" y1="0" x2="240.69010416666669" y2="5" style="visibility: inherit;" fill="rgb(0, 0, 0)" stroke="rgb(204, 204, 204)" stroke-width="1px"></line><line x1="264.7591145833333" y1="0" x2="264.7591145833333" y2="5" style="visibility: inherit;" fill="rgb(0, 0, 0)" stroke="rgb(204, 204, 204)" stroke-width="1px"></line><line x1="288.828125" y1="0" x2="288.828125" y2="5" style="visibility: inherit;" fill="rgb(0, 0, 0)" stroke="rgb(204, 204, 204)" stroke-width="1px"></line></g><g transform="translate(0, 8)"><text x="0" y="0" dx="0em" dy="0.95em" style="text-anchor: middle; visibility: hidden; font-family: Roboto, sans-serif; font-size: 12px; font-weight: 200;" fill="rgb(255, 255, 255)" stroke="none" stroke-width="1px">-2k</text><text x="24.069010416666664" y="0" dx="0em" dy="0.95em" style="text-anchor: middle; visibility: inherit; font-family: Roboto, sans-serif; font-size: 12px; font-weight: 200;" fill="rgb(255, 255, 255)" stroke="none" stroke-width="1px">0</text><text x="48.13802083333333" y="0" dx="0em" dy="0.95em" style="text-anchor: middle; visibility: hidden; font-family: Roboto, sans-serif; font-size: 12px; font-weight: 200;" fill="rgb(255, 255, 255)" stroke="none" stroke-width="1px">2k</text><text x="72.20703125" y="0" dx="0em" dy="0.95em" style="text-anchor: middle; visibility: inherit; font-family: Roboto, sans-serif; font-size: 12px; font-weight: 200;" fill="rgb(255, 255, 255)" stroke="none" stroke-width="1px">4k</text><text x="96.27604166666666" y="0" dx="0em" dy="0.95em" style="text-anchor: middle; visibility: hidden; font-family: Roboto, sans-serif; font-size: 12px; font-weight: 200;" fill="rgb(255, 255, 255)" stroke="none" stroke-width="1px">6k</text><text x="120.34505208333334" y="0" dx="0em" dy="0.95em" style="text-anchor: middle; visibility: inherit; font-family: Roboto, sans-serif; font-size: 12px; font-weight: 200;" fill="rgb(255, 255, 255)" stroke="none" stroke-width="1px">8k</text><text x="144.4140625" y="0" dx="0em" dy="0.95em" style="text-anchor: middle; visibility: hidden; font-family: Roboto, sans-serif; font-size: 12px; font-weight: 200;" fill="rgb(255, 255, 255)" stroke="none" stroke-width="1px">10k</text><text x="168.48307291666669" y="0" dx="0em" dy="0.95em" style="text-anchor: middle; visibility: inherit; font-family: Roboto, sans-serif; font-size: 12px; font-weight: 200;" fill="rgb(255, 255, 255)" stroke="none" stroke-width="1px">12k</text><text x="192.55208333333331" y="0" dx="0em" dy="0.95em" style="text-anchor: middle; visibility: hidden; font-family: Roboto, sans-serif; font-size: 12px; font-weight: 200;" fill="rgb(255, 255, 255)" stroke="none" stroke-width="1px">14k</text><text x="216.62109375" y="0" dx="0em" dy="0.95em" style="text-anchor: middle; visibility: inherit; font-family: Roboto, sans-serif; font-size: 12px; font-weight: 200;" fill="rgb(255, 255, 255)" stroke="none" stroke-width="1px">16k</text><text x="240.69010416666669" y="0" dx="0em" dy="0.95em" style="text-anchor: middle; visibility: hidden; font-family: Roboto, sans-serif; font-size: 12px; font-weight: 200;" fill="rgb(255, 255, 255)" stroke="none" stroke-width="1px">18k</text><text x="264.7591145833333" y="0" dx="0em" dy="0.95em" style="text-anchor: middle; visibility: inherit; font-family: Roboto, sans-serif; font-size: 12px; font-weight: 200;" fill="rgb(255, 255, 255)" stroke="none" stroke-width="1px">20k</text><text x="288.828125" y="0" dx="0em" dy="0.95em" style="text-anchor: middle; visibility: hidden; font-family: Roboto, sans-serif; font-size: 12px; font-weight: 200;" fill="rgb(255, 255, 255)" stroke="none" stroke-width="1px">22k</text></g><line x1="0" y1="0" x2="288.828125" y2="0" fill="rgb(0, 0, 0)" stroke="rgb(204, 204, 204)" stroke-width="1px"></line></g></g></g></g></svg>