<svg viewBox="0 0 330 200" xmlns="http://www.w3.org/2000/svg"><g><g><g><g><g><line x1="61.953125" y1="177" x2="56.953125" y2="177" style="visibility: inherit;" fill="rgb(0, 0, 0)" stroke="rgb(204, 204, 204)" stroke-width="1px"></line><line x1="61.953125" y1="162.25" x2="56.953125" y2="162.25" style="visibility: inherit;" fill="rgb(0, 0, 0)" stroke="rgb(204, 204, 204)" stroke-width="1px"></line><line x1="61.953125" y1="147.5" x2="56.953125" y2="147.5" style="visibility: inherit;" fill="rgb(0, 0, 0)" stroke="rgb(204, 204, 204)" stroke-width="1px"></line><line x1="61.953125" y1="132.75" x2="56.953125" y2="132.75" style="visibility: inherit;" fill="rgb(0, 0, 0)" stroke="rgb(204, 204, 204)" stroke-width="1px"></line><line x1="61.953125" y1="117.99999999999997" x2="56.953125" y2="117.99999999999997" style="visibility: inherit;" fill="rgb(0, 0, 0)" stroke="rgb(204, 204, 204)" stroke-width="1px"></line><line x1="61.953125" y1="103.25000000000003" x2="56.953125" y2="103.25000000000003" style="visibility: inherit;" fill="rgb(0, 0, 0)" stroke="rgb(204, 204, 204)" stroke-width="1px"></line><line x1="61.953125" y1="88.5" x2="56.953125" y2="88.5" style="visibility: inherit;" fill="rgb(0, 0, 0)" stroke="rgb(204, 204, 204)" stroke-width="1px"></line><line x1="61.953125" y1="73.75" x2="56.953125" y2="73.75" style="visibility: inherit;" fill="rgb(0, 0, 0)" stroke="rgb(204, 204, 204)" stroke-width="1px"></line><line x1="61.953125" y1="58.999999999999986" x2="56.953125" y2="58.999999999999986" style="visibility: inherit;" fill="rgb(0, 0, 0)" stroke="rgb(204, 204, 204)" stroke-width="1px"></line><line x1="61.953125" y1="44.25000000000004" x2="56.953125" y2="44.25000000000004" style="visibility: inherit;" fill="rgb(0, 0, 0)" stroke="rgb(204, 204, 204)" stroke-width="1px"></line><line x1="61.953125" y1="29.500000000000014" x2="56.953125" y2="29.500000000000014" style="visibility: inherit;" fill="rgb(0, 0, 0)" stroke="rgb(204, 204, 204)" stroke-width="1px"></line><line x1="61.953125" y1="14.750000000000007" x2="56.953125" y2="14.750000000000007" style="visibility: inherit;" fill="rgb(0, 0, 0)" stroke="rgb(204, 204, 204)" stroke-width="1px"></line><line x1="61.953125" y1="0" x2="56.953125" y2="0" style="visibility: inherit;" fill="rgb(0, 0, 0)" stroke="rgb(204, 204, 204)" stroke-width="1px"></line></g><g transform="translate(51.953125, 0)"><text x="0" y="177" dx="0em" dy="0.3em" style="text-anchor: end; visibility: hidden; font-family: Roboto, sans-serif; font-size: 12px; font-weight: 200;" fill="rgb(255, 255, 255)" stroke="none" stroke-width="1px">0.026</text><text x="0" y="162.25" dx="0em" dy="0.3em" style="text-anchor: end; visibility: inherit; font-family: Roboto, sans-serif; font-size: 12px; font-weight: 200;" fill="rgb(255, 255, 255)" stroke="none" stroke-width="1px">0.028</text><text x="0" y="147.5" dx="0em" dy="0.3em" style="text-anchor: end; visibility: hidden; font-family: Roboto, sans-serif; font-size: 12px; font-weight: 200;" fill="rgb(255, 255, 255)" stroke="none" stroke-width="1px">0.03</text><text x="0" y="132.75" dx="0em" dy="0.3em" style="text-anchor: end; visibility: inherit; font-family: Roboto, sans-serif; font-size: 12px; font-weight: 200;" fill="rgb(255, 255, 255)" stroke="none" stroke-width="1px">0.032</text><text x="0" y="117.99999999999997" dx="0em" dy="0.3em" style="text-anchor: end; visibility: hidden; font-family: Roboto, sans-serif; font-size: 12px; font-weight: 200;" fill="rgb(255, 255, 255)" stroke="none" stroke-width="1px">0.034</text><text x="0" y="103.25000000000003" dx="0em" dy="0.3em" style="text-anchor: end; visibility: inherit; font-family: Roboto, sans-serif; font-size: 12px; font-weight: 200;" fill="rgb(255, 255, 255)" stroke="none" stroke-width="1px">0.036</text><text x="0" y="88.5" dx="0em" dy="0.3em" style="text-anchor: end; visibility: hidden; font-family: Roboto, sans-serif; font-size: 12px; font-weight: 200;" fill="rgb(255, 255, 255)" stroke="none" stroke-width="1px">0.038</text><text x="0" y="73.75" dx="0em" dy="0.3em" style="text-anchor: end; visibility: inherit; font-family: Roboto, sans-serif; font-size: 12px; font-weight: 200;" fill="rgb(255, 255, 255)" stroke="none" stroke-width="1px">0.04</text><text x="0" y="58.999999999999986" dx="0em" dy="0.3em" style="text-anchor: end; visibility: hidden; font-family: Roboto, sans-serif; font-size: 12px; font-weight: 200;" fill="rgb(255, 255, 255)" stroke="none" stroke-width="1px">0.042</text><text x="0" y="44.25000000000004" dx="0em" dy="0.3em" style="text-anchor: end; visibility: inherit; font-family: Roboto, sans-serif; font-size: 12px; font-weight: 200;" fill="rgb(255, 255, 255)" stroke="none" stroke-width="1px">0.044</text><text x="0" y="29.500000000000014" dx="0em" dy="0.3em" style="text-anchor: end; visibility: hidden; font-family: Roboto, sans-serif; font-size: 12px; font-weight: 200;" fill="rgb(255, 255, 255)" stroke="none" stroke-width="1px">0.046</text><text x="0" y="14.750000000000007" dx="0em" dy="0.3em" style="text-anchor: end; visibility: inherit; font-family: Roboto, sans-serif; font-size: 12px; font-weight: 200;" fill="rgb(255, 255, 255)" stroke="none" stroke-width="1px">0.048</text><text x="0" y="0" dx="0em" dy="0.3em" style="text-anchor: end; visibility: hidden; font-family: Roboto, sans-serif; font-size: 12px; font-weight: 200;" fill="rgb(255, 255, 255)" stroke="none" stroke-width="1px">0.05</text></g><line x1="61.953125" y1="0" x2="61.953125" y2="177" fill="rgb(0, 0, 0)" stroke="rgb(204, 204, 204)" stroke-width="1px"></line></g></g><g transform="translate(61, 0)" clip-path="url(#clip_0)"><clipPath id="clip_0"><rect width="268" height="177"></rect></clipPath><g><g><g><line x1="0" y1="0" x2="0" y2="177" fill="rgb(0, 0, 0)" stroke="rgb(189, 189, 189)" stroke-width="1px" opacity="0.25"></line><line x1="22.337239583333332" y1="0" x2="22.337239583333332" y2="177" fill="rgb(0, 0, 0)" stroke="rgb(189, 189, 189)" stroke-width="1px" opacity="0.25"></line><line x1="44.674479166666664" y1="0" x2="44.674479166666664" y2="177" fill="rgb(0, 0, 0)" stroke="rgb(189, 189, 189)" stroke-width="1px" opacity="0.25"></line><line x1="67.01171875" y1="0" x2="67.01171875" y2="177" fill="rgb(0, 0, 0)" stroke="rgb(189, 189, 189)" stroke-width="1px" opacity="0.25"></line><line x1="89.34895833333333" y1="0" x2="89.34895833333333" y2="177" fill="rgb(0, 0, 0)" stroke="rgb(189, 189, 189)" stroke-width="1px" opacity="0.25"></line><line x1="111.68619791666667" y1="0" x2="111.68619791666667" y2="177" fill="rgb(0, 0, 0)" stroke="rgb(189, 189, 189)" stroke-width="1px" opacity="0.25"></line><line x1="134.0234375" y1="0" x2="134.0234375" y2="177" fill="rgb(0, 0, 0)" stroke="rgb(189, 189, 189)" stroke-width="1px" opacity="0.25"></line><line x1="156.36067708333334" y1="0" x2="156.36067708333334" y2="177" fill="rgb(0, 0, 0)" stroke="rgb(189, 189, 189)" stroke-width="1px" opacity="0.25"></line><line x1="178.69791666666666" y1="0" x2="178.69791666666666" y2="177" fill="rgb(0, 0, 0)" stroke="rgb(189, 189, 189)" stroke-width="1px" opacity="0.25"></line><line x1="201.03515625" y1="0" x2="201.03515625" y2="177" fill="rgb(0, 0, 0)" stroke="rgb(189, 189, 189)" stroke-width="1px" opacity="0.25"></line><line x1="223.37239583333334" y1="0" x2="223.37239583333334" y2="177" fill="rgb(0, 0, 0)" stroke="rgb(189, 189, 189)" stroke-width="1px" opacity="0.25"></line><line x1="245.70963541666666" y1="0" x2="245.70963541666666" y2="177" fill="rgb(0, 0, 0)" stroke="rgb(189, 189, 189)" stroke-width="1px" opacity="0.25"></line><line x1="268.046875" y1="0" x2="268.046875" y2="177" fill="rgb(0, 0, 0)" stroke="rgb(189, 189, 189)" stroke-width="1px" opacity="0.25"></line></g><g><line x1="0" y1="177" x2="268.046875" y2="177" fill="rgb(0, 0, 0)" stroke="rgb(189, 189, 189)" stroke-width="1px" opacity="0.25"></line><line x1="0" y1="162.25" x2="268.046875" y2="162.25" fill="rgb(0, 0, 0)" stroke="rgb(189, 189, 189)" stroke-width="1px" opacity="0.25"></line><line x1="0" y1="147.5" x2="268.046875" y2="147.5" fill="rgb(0, 0, 0)" stroke="rgb(189, 189, 189)" stroke-width="1px" opacity="0.25"></line><line x1="0" y1="132.75" x2="268.046875" y2="132.75" fill="rgb(0, 0, 0)" stroke="rgb(189, 189, 189)" stroke-width="1px" opacity="0.25"></line><line x1="0" y1="117.99999999999997" x2="268.046875" y2="117.99999999999997" fill="rgb(0, 0, 0)" stroke="rgb(189, 189, 189)" stroke-width="1px" opacity="0.25"></line><line x1="0" y1="103.25000000000003" x2="268.046875" y2="103.25000000000003" fill="rgb(0, 0, 0)" stroke="rgb(189, 189, 189)" stroke-width="1px" opacity="0.25"></line><line x1="0" y1="88.5" x2="268.046875" y2="88.5" fill="rgb(0, 0, 0)" stroke="rgb(189, 189, 189)" stroke-width="1px" opacity="0.25"></line><line x1="0" y1="73.75" x2="268.046875" y2="73.75" fill="rgb(0, 0, 0)" stroke="rgb(189, 189, 189)" stroke-width="1px" opacity="0.25"></line><line x1="0" y1="58.999999999999986" x2="268.046875" y2="58.999999999999986" fill="rgb(0, 0, 0)" stroke="rgb(189, 189, 189)" stroke-width="1px" opacity="0.25"></line><line x1="0" y1="44.25000000000004" x2="268.046875" y2="44.25000000000004" fill="rgb(0, 0, 0)" stroke="rgb(189, 189, 189)" stroke-width="1px" opacity="0.25"></line><line x1="0" y1="29.500000000000014" x2="268.046875" y2="29.500000000000014" fill="rgb(0, 0, 0)" stroke="rgb(189, 189, 189)" stroke-width="1px" opacity="0.25"></line><line x1="0" y1="14.750000000000007" x2="268.046875" y2="14.750000000000007" fill="rgb(0, 0, 0)" stroke="rgb(189, 189, 189)" stroke-width="1px" opacity="0.25"></line><line x1="0" y1="0" x2="268.046875" y2="0" fill="rgb(0, 0, 0)" stroke="rgb(189, 189, 189)" stroke-width="1px" opacity="0.25"></line></g></g></g><g><g><line x1="0" y1="368.74999999999994" x2="268.046875" y2="368.74999999999994" fill="rgb(0, 0, 0)" stroke="rgb(153, 153, 153)" stroke-width="1.5px"></line></g></g><g><g><line x1="22.337239583333332" y1="0" x2="22.337239583333332" y2="177" fill="rgb(0, 0, 0)" stroke="rgb(153, 153, 153)" stroke-width="1.5px"></line></g></g><g><g><g><g><g><path stroke="rgb(255, 112, 67)" stroke-width="2px" d="M23.4541015625,159.73671185784042L24.570963541666664,159.70581217552532L25.687825520833336,159.58175420266937L26.8046875,159.4448216499158L27.921549479166668,159.23648729208162L29.038411458333336,158.960038625827L30.1552734375,158.61963864608728L31.272135416666668,158.16607617990041L32.388997395833336,157.51233801328186L33.505859375,156.80357268942922L34.62272135416667,155.9053531961285L35.739583333333336,154.93936746072572L36.8564453125,153.87376833677527L37.973307291666664,152.74954717209417L39.090169270833336,151.52399814696244L40.20703125,150.14872890081097L41.32389322916667,148.7892896761535L42.44075520833333,147.27382925657258L43.5576171875,145.73723313708635L44.674479166666664,143.98377092843836L45.791341145833336,142.43940045758896L46.908203125,140.747632947483L48.025065104166664,138.83572882276377L49.14192708333333,136.9858732911037L50.2587890625,135.06801841342667L51.37565104166667,133.17746543365365L52.492513020833336,131.3524712106709L53.609375,129.3687898170154L54.726236979166664,127.42155145639222L55.843098958333336,125.66513295256134L56.9599609375,124.06125222647329L58.07682291666667,122.51670552421034L59.19368489583333,121.09354406879446L60.310546875,119.71966300864239L61.427408854166664,118.24555193011584L62.544270833333336,116.7162591485871L63.6611328125,115.16326444491433L64.77799479166667,113.64984270901601L65.89485677083333,112.158758082472L67.01171875,110.72206695244353L68.12858072916666,109.18540033941785L69.24544270833334,107.69110563024684L70.3623046875,106.21034330906313L71.47916666666667,104.74331610941414L72.59602864583333,103.4803098203033L73.712890625,102.26974525362388L74.82975260416667,101.12633996190407L75.94661458333333,99.9930637656301L77.0634765625,98.81618101617006L78.18033854166667,97.71446949522984L79.29720052083333,96.5946375058912L80.4140625,95.54247595231362L81.53092447916666,94.05195664531111L82.64778645833334,92.79260330597103L83.7646484375,91.62140834748398L84.88151041666666,90.42334585439909L85.99837239583334,89.2731223496896L87.115234375,88.26555346656437L88.23209635416667,87.31774079178919L89.34895833333333,86.39804515913211L90.4658203125,85.37099324122117L91.58268229166667,84.36404861483008L92.69954427083333,83.21339069290774L93.81640625,82.13449137499227L94.93326822916667,81.1586614599245L96.05013020833333,80.1369970232497L97.1669921875,79.230850611046L98.28385416666666,78.39325673068471L99.40071614583334,77.65734710058511L100.517578125,76.79242673671806L101.63444010416666,75.86658434216122L102.75130208333334,75.07381330367288L103.8681640625,74.38244668654418L104.98502604166667,73.6072335646261L106.10188802083333,72.95746931467706L107.21875,72.31664112379707L108.33561197916667,71.59474131417609L109.45247395833333,70.9016093206545L110.5693359375,69.95223968280199L111.68619791666667,69.0503361615708L112.80305989583333,68.26215868700571L113.919921875,67.38739526575223L115.03678385416666,66.59290722045553L116.15364583333334,65.78416343649181L117.2705078125,65.12257794213265L118.38736979166666,64.49664720697383L119.50423177083334,63.89050484480371L120.62109375,63.39964770246689L121.73795572916667,62.801721374506606L122.85481770833333,62.12810236532385L123.9716796875,61.52859070640147L125.08854166666667,60.926233202167424L126.20540364583333,60.389567446677745L127.322265625,59.838006105702426L128.43912760416669,59.222361568618595L129.55598958333334,58.62961109668541L130.6728515625,57.96893329882938L131.78971354166666,57.45246517040916L132.90657552083334,56.84382085429779L134.0234375,56.25417155431002L135.14029947916666,55.67608410809216L136.25716145833331,54.94873849865068L137.3740234375,54.34777276704474L138.49088541666669,53.65254882418968L139.60774739583334,53.00425907787001L140.724609375,52.21873627344556L141.84147135416666,51.59149106585852L142.95833333333334,50.59209919717236L144.0751953125,49.795497360803665L145.19205729166666,49.019014591263506L146.30891927083331,48.38189587252545L147.42578125,47.85171552900795L148.54264322916669,47.29228655638887L149.65950520833334,46.7799602606451L150.7763671875,46.400033081087805L151.89322916666666,45.989847120352586L153.01009114583331,45.31466834199906L154.126953125,44.75214595319323L155.24381510416669,44.21192923022208L156.36067708333334,43.70702017148075L157.4775390625,43.21903174400177L158.59440104166666,42.770109349667095L159.71126302083334,42.44189558129253L160.828125,42.12404868126357L161.94498697916666,41.542143522920895L163.06184895833331,40.872631422712026L164.1787109375,39.99095310392002L165.29557291666669,39.33968674166213L166.41243489583334,38.76651044799812L167.529296875,38.27298118092976L168.64615885416666,37.94188370357973L169.76302083333331,37.45187976241722L170.8798828125,36.995527942661134L171.99674479166669,36.53881683181745L173.11360677083334,36.13661838609588L174.23046875,35.81815228187208L175.34733072916666,35.41477540328007L176.46419270833334,34.991453739666355L177.5810546875,34.4477966965219L178.69791666666666,33.98934255784634L179.81477864583331,33.4421893998735L180.931640625,32.92862373112161L182.04850260416669,32.35951414715366L183.16536458333334,31.735538585550252L184.2822265625,31.239212576190617L185.39908854166666,30.630806735837425L186.51595052083331,30.102886275460687L187.6328125,29.4740511572423L188.74967447916669,28.863451732460458L189.86653645833334,28.34012752965919L190.9833984375,27.931490517829857L192.10026041666666,27.566895247802137L193.21712239583334,27.196250736001147L194.333984375,26.947434025575536L195.45084635416666,26.71896388534892L196.56770833333331,26.49848167839165L197.6845703125,26.279638214364727L198.80143229166669,25.900769273015904L199.91829427083334,25.088954703255318L201.03515625,24.458110920336154L202.15201822916666,23.89471551283976L203.26888020833331,23.416681672661213L204.3857421875,23.08471606554314L205.50260416666669,22.665843480120436L206.61946614583334,22.17867198633575L207.736328125,21.696391764565824L208.85319010416666,21.14733923273358L209.97005208333334,20.737353898865422L211.0869140625,20.28113152848629L212.20377604166666,19.903128720920975L213.32063802083331,19.446490408540775L214.4375,18.751946174538727L215.55436197916669,18.15133055057321L216.67122395833334,17.57871890816806L217.7880859375,17.13801479192801L218.90494791666666,16.796313410116582L220.02180989583331,16.555928027697423L221.138671875,16.02002722684625L222.25553385416669,15.456605509901514L223.37239583333334,15.112826894810503L224.4892578125,14.871557829434117L225.60611979166666,14.649011956247385L226.72298177083334,14.274416426773513L227.83984375,13.847109673890877L228.95670572916666,13.4862913927277L230.07356770833331,13.10419804548268L231.1904296875,12.626763756245655L232.30729166666669,12.335500724715148L233.42415364583334,12.064177234531714L234.541015625,11.818092913664138L235.65787760416666,11.498839617512662L236.77473958333331,11.183511703158635L237.8916015625,10.859373577800548L239.00846354166669,10.605854537109826L240.12532552083334,10.275008154523555L241.2421875,9.76946171230803L242.35904947916666,9.26818905685383L243.47591145833334,8.787415711069356L244.5927734375,8.408067658832227L245.70963541666666,8.112169413441752" style="fill: none;" fill="none"></path></g><g><path stroke="rgb(0, 119, 187)" stroke-width="2px" d="M22.337239583333332,159.72572225145996L33.505859375,157.23637893679552L44.674479166666664,149.1277131128448L55.843098958333336,137.1275166284142L67.01171875,124.73170940885754L78.18033854166667,112.69921131388162L89.34895833333333,101.29991870790545L100.517578125,90.79765977992301L111.68619791666667,81.45718266574853L122.85481770833333,73.26577155716252L134.0234375,66.07838707987024L145.19205729166666,58.77199780389631L156.36067708333334,52.43356303366961L167.529296875,46.46772442190103L178.69791666666666,41.19640298348094L189.86653645833334,35.73663265085191L201.03515625,30.843109008398038L212.20377604166666,26.238440889356642L223.37239583333334,21.581050881142556L234.541015625,17.527332587639673L245.70963541666666,13.581059244023255" style="fill: none;" fill="none"></path></g></g></g></g><g opacity="0.2"><g><g><g><path stroke="rgb(255, 112, 67)" stroke-width="2px" d="M23.4541015625,159.73671185784042L24.570963541666664,159.6872723661363L25.687825520833336,159.46265854872763L26.8046875,159.28378896787763L27.921549479166668,158.96448595449328L29.038411458333336,158.57761059887707L30.1552734375,158.13286122865975L31.272135416666668,157.50477775000036L32.388997395833336,156.54820119962096L33.505859375,155.75113878585398L34.62272135416667,154.56617074087262L35.739583333333336,153.4956457093358L36.8564453125,152.27884901687503L37.973307291666664,151.06541789136827L39.090169270833336,149.68711519613862L40.20703125,148.08679497800767L41.32389322916667,146.75070610828698L42.44075520833333,145.00102340243757L43.5576171875,143.43257304280996L44.674479166666664,141.35373788885772L45.791341145833336,140.12292944826186L46.908203125,138.2100373506546L48.025065104166664,135.96791038289666L49.14192708333333,134.2111119069159L50.2587890625,132.19124972820282L51.37565104166667,130.34164402633905L52.492513020833336,128.61498454585671L53.609375,126.39327077195048L54.726236979166664,124.50069570913911L55.843098958333336,123.0305061675608L56.9599609375,121.65543166920544L58.07682291666667,120.19988577812909L59.19368489583333,118.9588020555675L60.310546875,117.65884151682258L61.427408854166664,116.03438537567854L62.544270833333336,114.42232001572849L63.6611328125,112.8337724134326L64.77799479166667,111.37971011921765L65.89485677083333,109.92213115096092L67.01171875,108.56703026220202L68.12858072916666,106.88040042296052L69.24544270833334,105.44966356828809L70.3623046875,103.9891998283565L71.47916666666667,102.54277531057596L72.59602864583333,101.58580038696527L73.712890625,100.45389840379357L74.82975260416667,99.41123202443123L75.94661458333333,98.29314947128297L77.0634765625,97.05085689201951L78.18033854166667,96.06190221384169L79.29720052083333,94.91488952189684L80.4140625,93.96423362195492L81.53092447916666,91.81617768481375L82.64778645833334,90.90357329696417L83.7646484375,89.86461590975523L84.88151041666666,88.6262521147728L85.99837239583334,87.54778709262611L87.115234375,86.75420014187694L88.23209635416667,85.89602177962661L89.34895833333333,85.01850171014668L90.4658203125,83.83041536435485L91.58268229166667,82.85363167524338L92.69954427083333,81.48740381002426L93.81640625,80.51614239811897L94.93326822916667,79.69491658732295L96.05013020833333,78.60450036823751L97.1669921875,77.87163099274039L98.28385416666666,77.13686591014266L99.40071614583334,76.5534826554358L100.517578125,75.4950461909175L101.63444010416666,74.47782075032592L102.75130208333334,73.88465674594045L103.8681640625,73.34539676085116L104.98502604166667,72.44441388174891L106.10188802083333,71.98282293975353L107.21875,71.35539883747698L108.33561197916667,70.51189159974457L109.45247395833333,69.86191133037211L110.5693359375,68.5281852260232L111.68619791666667,67.69748087972403L112.80305989583333,67.07989247515798L113.919921875,66.07525013387203L115.03678385416666,65.4011751525104L116.15364583333334,64.57104776054621L117.2705078125,64.13019970059396L118.38736979166666,63.55775110423567L119.50423177083334,62.9812913015485L120.62109375,62.663361988961704L121.73795572916667,61.90483188256622L122.85481770833333,61.11767385154964L123.9716796875,60.62932321801783L125.08854166666667,60.02269694581629L126.20540364583333,59.58456881344319L127.322265625,59.01066409423948L128.43912760416669,58.29889476299288L129.55598958333334,57.74048538878562L130.6728515625,56.97791660204532L131.78971354166666,56.677762977778926L132.90657552083334,55.93085438013078L134.0234375,55.369697604328415L135.14029947916666,54.808952938765295L136.25716145833331,53.8577200844884L137.3740234375,53.44632416963579L138.49088541666669,52.609712909907124L139.60774739583334,52.03182445839048L140.724609375,51.040452066808946L141.84147135416666,50.650623254478L142.95833333333334,49.093011394143126L144.0751953125,48.60059460625053L145.19205729166666,47.85429043695333L146.30891927083331,47.42621779441835L147.42578125,47.05644501373174L148.54264322916669,46.453143097460284L149.65950520833334,46.01147081702948L150.7763671875,45.83014231175185L151.89322916666666,45.37456817924978L153.01009114583331,44.30190017446878L154.126953125,43.9083623699844L155.24381510416669,43.401604145765326L156.36067708333334,42.949656583368785L157.4775390625,42.487049102783224L158.59440104166666,42.096725758165135L159.71126302083334,41.94957492873075L160.828125,41.647278331220164L161.94498697916666,40.669285785406835L163.06184895833331,39.868363272398724L164.1787109375,38.668435625731966L165.29557291666669,38.362787198275335L166.41243489583334,37.906746007502086L167.529296875,37.532687280327096L168.64615885416666,37.445237487554564L169.76302083333331,36.71687385067345L170.8798828125,36.31100021302702L171.99674479166669,35.853750165551915L173.11360677083334,35.53332071751357L174.23046875,35.34045312553645L175.34733072916666,34.80971008539201L176.46419270833334,34.35647124424578L177.5810546875,33.632311131805196L178.69791666666666,33.30166134983302L179.81477864583331,32.6214596629143L180.931640625,32.15827522799374L182.04850260416669,31.505849771201618L183.16536458333334,30.799575243145235L184.2822265625,30.494723562151215L185.39908854166666,29.71819797530771L186.51595052083331,29.311005584895625L187.6328125,28.53079847991468L188.74967447916669,27.947552595287583L189.86653645833334,27.555141225457213L190.9833984375,27.318535000085845L192.10026041666666,27.020002342760577L193.21712239583334,26.64028396829964L194.333984375,26.574208959937103L195.45084635416666,26.376258675009034L196.56770833333331,26.1677583679557L197.6845703125,25.951373018324396L198.80143229166669,25.33246586099269L199.91829427083334,23.87123284861447L201.03515625,23.511845245957396L202.15201822916666,23.049622401595137L203.26888020833331,22.699630912393356L204.3857421875,22.586767654865994L205.50260416666669,22.037534601986433L206.61946614583334,21.447914745658657L207.736328125,20.972971431911017L208.85319010416666,20.323760434985182L209.97005208333334,20.122375898063208L211.0869140625,19.596797972917578L212.20377604166666,19.336124509572997L213.32063802083331,18.761532939970515L214.4375,17.710129823535706L215.55436197916669,17.250407114625L216.67122395833334,16.719801444560304L217.7880859375,16.476958617568037L218.90494791666666,16.283761337399504L220.02180989583331,16.195349954068675L221.138671875,15.216176025569451L222.25553385416669,14.611472934484508L223.37239583333334,14.597158972173949L224.4892578125,14.509654231369508L225.60611979166666,14.315193146467228L226.72298177083334,13.712523132562657L227.83984375,13.206149544566882L228.95670572916666,12.945063970983055L230.07356770833331,12.531058024615076L231.1904296875,11.910612322390099L232.30729166666669,11.898606177419436L233.42415364583334,11.657191999256623L234.541015625,11.448966432362814L235.65787760416666,11.019959673285504L236.77473958333331,10.710519831627634L237.8916015625,10.373166389763382L239.00846354166669,10.225575976073761L240.12532552083334,9.778738580644157L241.2421875,9.011142048984793L242.35904947916666,8.51628007367256L243.47591145833334,8.066255692392614L244.5927734375,7.839045580476542L245.70963541666666,7.668322045356062" style="fill: none;" fill="none"></path></g><g><path stroke="rgb(0, 119, 187)" stroke-width="2px" d="M22.337239583333332,159.72572225145996L33.505859375,155.74277294799685L44.674479166666664,141.3433939218521L55.843098958333336,123.01528556272388L67.01171875,108.54774350300431L78.18033854166667,96.05393474921584L89.34895833333333,84.99874789267778L100.517578125,75.48526544123888L111.68619791666667,67.68179321661592L122.85481770833333,61.10248072072866L134.0234375,55.3624994121492L145.19205729166666,47.85217493772508L156.36067708333334,42.94660696759821L167.529296875,37.5306542031467L178.69791666666666,33.29561706632377L189.86653645833334,27.550827804952867L201.03515625,23.504894319921757L212.20377604166666,19.33260783553126L223.37239583333334,14.595675375312586L234.541015625,11.447125673294094L245.70963541666666,7.661865651607527" style="fill: none;" fill="none"></path></g></g></g></g></g></g><g transform="translate(61, 177)" clip-path="url(#clip_1)"><clipPath id="clip_1"><rect width="268" height="23"></rect></clipPath><g><g><line x1="0" y1="0" x2="0" y2="5" style="visibility: inherit;" fill="rgb(0, 0, 0)" stroke="rgb(204, 204, 204)" stroke-width="1px"></line><line x1="22.337239583333332" y1="0" x2="22.337239583333332" y2="5" style="visibility: inherit;" fill="rgb(0, 0, 0)" stroke="rgb(204, 204, 204)" stroke-width="1px"></line><line x1="44.674479166666664" y1="0" x2="44.674479166666664" y2="5" style="visibility: inherit;" fill="rgb(0, 0, 0)" stroke="rgb(204, 204, 204)" stroke-width="1px"></line><line x1="67.01171875" y1="0" x2="67.01171875" y2="5" style="visibility: inherit;" fill="rgb(0, 0, 0)" stroke="rgb(204, 204, 204)" stroke-width="1px"></line><line x1="89.34895833333333" y1="0" x2="89.34895833333333" y2="5" style="visibility: inherit;" fill="rgb(0, 0, 0)" stroke="rgb(204, 204, 204)" stroke-width="1px"></line><line x1="111.68619791666667" y1="0" x2="111.68619791666667" y2="5" style="visibility: inherit;" fill="rgb(0, 0, 0)" stroke="rgb(204, 204, 204)" stroke-width="1px"></line><line x1="134.0234375" y1="0" x2="134.0234375" y2="5" style="visibility: inherit;" fill="rgb(0, 0, 0)" stroke="rgb(204, 204, 204)" stroke-width="1px"></line><line x1="156.36067708333334" y1="0" x2="156.36067708333334" y2="5" style="visibility: inherit;" fill="rgb(0, 0, 0)" stroke="rgb(204, 204, 204)" stroke-width="1px"></line><line x1="178.69791666666666" y1="0" x2="178.69791666666666" y2="5" style="visibility: inherit;" fill="rgb(0, 0, 0)" stroke="rgb(204, 204, 204)" stroke-width="1px"></line><line x1="201.03515625" y1="0" x2="201.03515625" y2="5" style="visibility: inherit;" fill="rgb(0, 0, 0)" stroke="rgb(204, 204, 204)" stroke-width="1px"></line><line x1="223.37239583333334" y1="0" x2="223.37239583333334" y2="5" style="visibility: inherit;" fill="rgb(0, 0, 0)" stroke="rgb(204, 204, 204)" stroke-width="1px"></line><line x1="245.70963541666666" y1="0" x2="245.70963541666666" y2="5" style="visibility: inherit;" fill="rgb(0, 0, 0)" stroke="rgb(204, 204, 204)" stroke-width="1px"></line><line x1="268.046875" y1="0" x2="268.046875" y2="5" style="visibility: inherit;" fill="rgb(0, 0, 0)" stroke="rgb(204, 204, 204)" stroke-width="1px"></line></g><g transform="translate(0, 8)"><text x="0" y="0" dx="0em" dy="0.95em" style="text-anchor: middle; visibility: hidden; font-family: Roboto, sans-serif; font-size: 12px; font-weight: 200;" fill="rgb(255, 255, 255)" stroke="none" stroke-width="1px">-2k</text><text x="22.337239583333332" y="0" dx="0em" dy="0.95em" style="text-anchor: middle; visibility: inherit; font-family: Roboto, sans-serif; font-size: 12px; font-weight: 200;" fill="rgb(255, 255, 255)" stroke="none" stroke-width="1px">0</text><text x="44.674479166666664" y="0" dx="0em" dy="0.95em" style="text-anchor: middle; visibility: hidden; font-family: Roboto, sans-serif; font-size: 12px; font-weight: 200;" fill="rgb(255, 255, 255)" stroke="none" stroke-width="1px">2k</text><text x="67.01171875" y="0" dx="0em" dy="0.95em" style="text-anchor: middle; visibility: inherit; font-family: Roboto, sans-serif; font-size: 12px; font-weight: 200;" fill="rgb(255, 255, 255)" stroke="none" stroke-width="1px">4k</text><text x="89.34895833333333" y="0" dx="0em" dy="0.95em" style="text-anchor: middle; visibility: hidden; font-family: Roboto, sans-serif; font-size: 12px; font-weight: 200;" fill="rgb(255, 255, 255)" stroke="none" stroke-width="1px">6k</text><text x="111.68619791666667" y="0" dx="0em" dy="0.95em" style="text-anchor: middle; visibility: inherit; font-family: Roboto, sans-serif; font-size: 12px; font-weight: 200;" fill="rgb(255, 255, 255)" stroke="none" stroke-width="1px">8k</text><text x="134.0234375" y="0" dx="0em" dy="0.95em" style="text-anchor: middle; visibility: hidden; font-family: Roboto, sans-serif; font-size: 12px; font-weight: 200;" fill="rgb(255, 255, 255)" stroke="none" stroke-width="1px">10k</text><text x="156.36067708333334" y="0" dx="0em" dy="0.95em" style="text-anchor: middle; visibility: inherit; font-family: Roboto, sans-serif; font-size: 12px; font-weight: 200;" fill="rgb(255, 255, 255)" stroke="none" stroke-width="1px">12k</text><text x="178.69791666666666" y="0" dx="0em" dy="0.95em" style="text-anchor: middle; visibility: hidden; font-family: Roboto, sans-serif; font-size: 12px; font-weight: 200;" fill="rgb(255, 255, 255)" stroke="none" stroke-width="1px">14k</text><text x="201.03515625" y="0" dx="0em" dy="0.95em" style="text-anchor: middle; visibility: inherit; font-family: Roboto, sans-serif; font-size: 12px; font-weight: 200;" fill="rgb(255, 255, 255)" stroke="none" stroke-width="1px">16k</text><text x="223.37239583333334" y="0" dx="0em" dy="0.95em" style="text-anchor: middle; visibility: hidden; font-family: Roboto, sans-serif; font-size: 12px; font-weight: 200;" fill="rgb(255, 255, 255)" stroke="none" stroke-width="1px">18k</text><text x="245.70963541666666" y="0" dx="0em" dy="0.95em" style="text-anchor: middle; visibility: inherit; font-family: Roboto, sans-serif; font-size: 12px; font-weight: 200;" fill="rgb(255, 255, 255)" stroke="none" stroke-width="1px">20k</text><text x="268.046875" y="0" dx="0em" dy="0.95em" style="text-anchor: middle; visibility: hidden; font-family: Roboto, sans-serif; font-size: 12px; font-weight: 200;" fill="rgb(255, 255, 255)" stroke="none" stroke-width="1px">22k</text></g><line x1="0" y1="0" x2="268.046875" y2="0" fill="rgb(0, 0, 0)" stroke="rgb(204, 204, 204)" stroke-width="1px"></line></g></g></g></g></svg>