<svg viewBox="0 0 330 200" xmlns="http://www.w3.org/2000/svg"><g><g><g><g><g><line x1="51.5625" y1="177" x2="46.5625" y2="177" style="visibility: inherit;" fill="rgb(0, 0, 0)" stroke="rgb(204, 204, 204)" stroke-width="1px"></line><line x1="51.5625" y1="160.9090909090909" x2="46.5625" y2="160.9090909090909" style="visibility: inherit;" fill="rgb(0, 0, 0)" stroke="rgb(204, 204, 204)" stroke-width="1px"></line><line x1="51.5625" y1="144.81818181818178" x2="46.5625" y2="144.81818181818178" style="visibility: inherit;" fill="rgb(0, 0, 0)" stroke="rgb(204, 204, 204)" stroke-width="1px"></line><line x1="51.5625" y1="128.72727272727278" x2="46.5625" y2="128.72727272727278" style="visibility: inherit;" fill="rgb(0, 0, 0)" stroke="rgb(204, 204, 204)" stroke-width="1px"></line><line x1="51.5625" y1="112.63636363636365" x2="46.5625" y2="112.63636363636365" style="visibility: inherit;" fill="rgb(0, 0, 0)" stroke="rgb(204, 204, 204)" stroke-width="1px"></line><line x1="51.5625" y1="96.54545454545453" x2="46.5625" y2="96.54545454545453" style="visibility: inherit;" fill="rgb(0, 0, 0)" stroke="rgb(204, 204, 204)" stroke-width="1px"></line><line x1="51.5625" y1="80.45454545454544" x2="46.5625" y2="80.45454545454544" style="visibility: inherit;" fill="rgb(0, 0, 0)" stroke="rgb(204, 204, 204)" stroke-width="1px"></line><line x1="51.5625" y1="64.36363636363635" x2="46.5625" y2="64.36363636363635" style="visibility: inherit;" fill="rgb(0, 0, 0)" stroke="rgb(204, 204, 204)" stroke-width="1px"></line><line x1="51.5625" y1="48.27272727272731" x2="46.5625" y2="48.27272727272731" style="visibility: inherit;" fill="rgb(0, 0, 0)" stroke="rgb(204, 204, 204)" stroke-width="1px"></line><line x1="51.5625" y1="32.181818181818215" x2="46.5625" y2="32.181818181818215" style="visibility: inherit;" fill="rgb(0, 0, 0)" stroke="rgb(204, 204, 204)" stroke-width="1px"></line><line x1="51.5625" y1="16.090909090909097" x2="46.5625" y2="16.090909090909097" style="visibility: inherit;" fill="rgb(0, 0, 0)" stroke="rgb(204, 204, 204)" stroke-width="1px"></line><line x1="51.5625" y1="0" x2="46.5625" y2="0" style="visibility: inherit;" fill="rgb(0, 0, 0)" stroke="rgb(204, 204, 204)" stroke-width="1px"></line></g><g transform="translate(41.5625, 0)"><text x="0" y="177" dx="0em" dy="0.3em" style="text-anchor: end; visibility: hidden; font-family: Roboto, sans-serif; font-size: 12px; font-weight: 200;" fill="rgb(255, 255, 255)" stroke="none" stroke-width="1px">1</text><text x="0" y="160.9090909090909" dx="0em" dy="0.3em" style="text-anchor: end; visibility: inherit; font-family: Roboto, sans-serif; font-size: 12px; font-weight: 200;" fill="rgb(255, 255, 255)" stroke="none" stroke-width="1px">1.05</text><text x="0" y="144.81818181818178" dx="0em" dy="0.3em" style="text-anchor: end; visibility: hidden; font-family: Roboto, sans-serif; font-size: 12px; font-weight: 200;" fill="rgb(255, 255, 255)" stroke="none" stroke-width="1px">1.1</text><text x="0" y="128.72727272727278" dx="0em" dy="0.3em" style="text-anchor: end; visibility: inherit; font-family: Roboto, sans-serif; font-size: 12px; font-weight: 200;" fill="rgb(255, 255, 255)" stroke="none" stroke-width="1px">1.15</text><text x="0" y="112.63636363636365" dx="0em" dy="0.3em" style="text-anchor: end; visibility: hidden; font-family: Roboto, sans-serif; font-size: 12px; font-weight: 200;" fill="rgb(255, 255, 255)" stroke="none" stroke-width="1px">1.2</text><text x="0" y="96.54545454545453" dx="0em" dy="0.3em" style="text-anchor: end; visibility: inherit; font-family: Roboto, sans-serif; font-size: 12px; font-weight: 200;" fill="rgb(255, 255, 255)" stroke="none" stroke-width="1px">1.25</text><text x="0" y="80.45454545454544" dx="0em" dy="0.3em" style="text-anchor: end; visibility: hidden; font-family: Roboto, sans-serif; font-size: 12px; font-weight: 200;" fill="rgb(255, 255, 255)" stroke="none" stroke-width="1px">1.3</text><text x="0" y="64.36363636363635" dx="0em" dy="0.3em" style="text-anchor: end; visibility: inherit; font-family: Roboto, sans-serif; font-size: 12px; font-weight: 200;" fill="rgb(255, 255, 255)" stroke="none" stroke-width="1px">1.35</text><text x="0" y="48.27272727272731" dx="0em" dy="0.3em" style="text-anchor: end; visibility: hidden; font-family: Roboto, sans-serif; font-size: 12px; font-weight: 200;" fill="rgb(255, 255, 255)" stroke="none" stroke-width="1px">1.4</text><text x="0" y="32.181818181818215" dx="0em" dy="0.3em" style="text-anchor: end; visibility: inherit; font-family: Roboto, sans-serif; font-size: 12px; font-weight: 200;" fill="rgb(255, 255, 255)" stroke="none" stroke-width="1px">1.45</text><text x="0" y="16.090909090909097" dx="0em" dy="0.3em" style="text-anchor: end; visibility: hidden; font-family: Roboto, sans-serif; font-size: 12px; font-weight: 200;" fill="rgb(255, 255, 255)" stroke="none" stroke-width="1px">1.5</text><text x="0" y="0" dx="0em" dy="0.3em" style="text-anchor: end; visibility: hidden; font-family: Roboto, sans-serif; font-size: 12px; font-weight: 200;" fill="rgb(255, 255, 255)" stroke="none" stroke-width="1px">1.55</text></g><line x1="51.5625" y1="0" x2="51.5625" y2="177" fill="rgb(0, 0, 0)" stroke="rgb(204, 204, 204)" stroke-width="1px"></line></g></g><g transform="translate(51, 0)" clip-path="url(#clip_0)"><clipPath id="clip_0"><rect width="278" height="177"></rect></clipPath><g><g><g><line x1="0" y1="0" x2="0" y2="177" fill="rgb(0, 0, 0)" stroke="rgb(189, 189, 189)" stroke-width="1px" opacity="0.25"></line><line x1="23.203125" y1="0" x2="23.203125" y2="177" fill="rgb(0, 0, 0)" stroke="rgb(189, 189, 189)" stroke-width="1px" opacity="0.25"></line><line x1="46.40625" y1="0" x2="46.40625" y2="177" fill="rgb(0, 0, 0)" stroke="rgb(189, 189, 189)" stroke-width="1px" opacity="0.25"></line><line x1="69.609375" y1="0" x2="69.609375" y2="177" fill="rgb(0, 0, 0)" stroke="rgb(189, 189, 189)" stroke-width="1px" opacity="0.25"></line><line x1="92.8125" y1="0" x2="92.8125" y2="177" fill="rgb(0, 0, 0)" stroke="rgb(189, 189, 189)" stroke-width="1px" opacity="0.25"></line><line x1="116.015625" y1="0" x2="116.015625" y2="177" fill="rgb(0, 0, 0)" stroke="rgb(189, 189, 189)" stroke-width="1px" opacity="0.25"></line><line x1="139.21875" y1="0" x2="139.21875" y2="177" fill="rgb(0, 0, 0)" stroke="rgb(189, 189, 189)" stroke-width="1px" opacity="0.25"></line><line x1="162.421875" y1="0" x2="162.421875" y2="177" fill="rgb(0, 0, 0)" stroke="rgb(189, 189, 189)" stroke-width="1px" opacity="0.25"></line><line x1="185.625" y1="0" x2="185.625" y2="177" fill="rgb(0, 0, 0)" stroke="rgb(189, 189, 189)" stroke-width="1px" opacity="0.25"></line><line x1="208.828125" y1="0" x2="208.828125" y2="177" fill="rgb(0, 0, 0)" stroke="rgb(189, 189, 189)" stroke-width="1px" opacity="0.25"></line><line x1="232.03125" y1="0" x2="232.03125" y2="177" fill="rgb(0, 0, 0)" stroke="rgb(189, 189, 189)" stroke-width="1px" opacity="0.25"></line><line x1="255.234375" y1="0" x2="255.234375" y2="177" fill="rgb(0, 0, 0)" stroke="rgb(189, 189, 189)" stroke-width="1px" opacity="0.25"></line><line x1="278.4375" y1="0" x2="278.4375" y2="177" fill="rgb(0, 0, 0)" stroke="rgb(189, 189, 189)" stroke-width="1px" opacity="0.25"></line></g><g><line x1="0" y1="177" x2="278.4375" y2="177" fill="rgb(0, 0, 0)" stroke="rgb(189, 189, 189)" stroke-width="1px" opacity="0.25"></line><line x1="0" y1="160.9090909090909" x2="278.4375" y2="160.9090909090909" fill="rgb(0, 0, 0)" stroke="rgb(189, 189, 189)" stroke-width="1px" opacity="0.25"></line><line x1="0" y1="144.81818181818178" x2="278.4375" y2="144.81818181818178" fill="rgb(0, 0, 0)" stroke="rgb(189, 189, 189)" stroke-width="1px" opacity="0.25"></line><line x1="0" y1="128.72727272727278" x2="278.4375" y2="128.72727272727278" fill="rgb(0, 0, 0)" stroke="rgb(189, 189, 189)" stroke-width="1px" opacity="0.25"></line><line x1="0" y1="112.63636363636365" x2="278.4375" y2="112.63636363636365" fill="rgb(0, 0, 0)" stroke="rgb(189, 189, 189)" stroke-width="1px" opacity="0.25"></line><line x1="0" y1="96.54545454545453" x2="278.4375" y2="96.54545454545453" fill="rgb(0, 0, 0)" stroke="rgb(189, 189, 189)" stroke-width="1px" opacity="0.25"></line><line x1="0" y1="80.45454545454544" x2="278.4375" y2="80.45454545454544" fill="rgb(0, 0, 0)" stroke="rgb(189, 189, 189)" stroke-width="1px" opacity="0.25"></line><line x1="0" y1="64.36363636363635" x2="278.4375" y2="64.36363636363635" fill="rgb(0, 0, 0)" stroke="rgb(189, 189, 189)" stroke-width="1px" opacity="0.25"></line><line x1="0" y1="48.27272727272731" x2="278.4375" y2="48.27272727272731" fill="rgb(0, 0, 0)" stroke="rgb(189, 189, 189)" stroke-width="1px" opacity="0.25"></line><line x1="0" y1="32.181818181818215" x2="278.4375" y2="32.181818181818215" fill="rgb(0, 0, 0)" stroke="rgb(189, 189, 189)" stroke-width="1px" opacity="0.25"></line><line x1="0" y1="16.090909090909097" x2="278.4375" y2="16.090909090909097" fill="rgb(0, 0, 0)" stroke="rgb(189, 189, 189)" stroke-width="1px" opacity="0.25"></line><line x1="0" y1="0" x2="278.4375" y2="0" fill="rgb(0, 0, 0)" stroke="rgb(189, 189, 189)" stroke-width="1px" opacity="0.25"></line></g></g></g><g><g><line x1="0" y1="498.81818181818187" x2="278.4375" y2="498.81818181818187" fill="rgb(0, 0, 0)" stroke="rgb(153, 153, 153)" stroke-width="1.5px"></line></g></g><g><g><line x1="23.203125" y1="0" x2="23.203125" y2="177" fill="rgb(0, 0, 0)" stroke="rgb(153, 153, 153)" stroke-width="1.5px"></line></g></g><g><g><g><g><g><path stroke="rgb(255, 112, 67)" stroke-width="2px" d="M24.36328125,315.44891862435776L25.523437499999996,163.13806937228549L26.683593750000004,120.42238401658905L27.84375,162.74662370676984L29.00390625,237.4152227252765L30.1640625,168.92212138473025L31.32421875,128.76606312896948L32.484375,104.26430918720969L33.64453125,90.68554212908748L34.8046875,82.63943981309016L35.96484375000001,195.39177134722198L37.125,145.84366784256164L38.28515625,116.32756070179578L39.4453125,99.02069000040501L40.60546875,88.95295050918455L41.765625,82.24927797460413L42.92578125,79.08222174728593L44.0859375,75.56272674261685L45.24609375,74.08960827958963L46.40625,73.67312784781367L47.56640625,189.83440573301598L48.7265625,142.3868955713842L49.88671875,114.0602910159764L51.04687499999999,96.05666718310367L52.20703125,85.02042072404512L53.36718750000001,81.37940535604415L54.52734375,77.58323079015355L55.6875,75.82730609737699L56.84765625,73.98975076604049L58.0078125,73.63067630589586L59.16796875,189.93398822364856L60.328125,142.87124628521045L61.48828125,114.11589280885691L62.6484375,97.34495957253839L63.80859375,86.44559518714227L64.96875,81.75116405544219L66.12890625,79.2579729241446L67.2890625,76.39176766732254L68.44921875,74.97766523438901L69.609375,72.8316968356296L70.76953125,187.09746857196274L71.92968750000001,132.42261027003144L73.08984375,99.39885331942595L74.25,78.75516025190639L75.41015625,66.70313842367264L76.5703125,59.75796520015498L77.73046875,55.46013306488401L78.890625,52.865029458512154L80.05078125,51.63732747636579L81.2109375,50.190655270708774L82.37109375,192.1410252813388L83.53125,119.68958930841295L84.69140624999999,76.20925955948131L85.8515625,50.25736032328598L87.01171875,34.4975633677565L88.171875,24.995280442580796L89.33203125000001,19.299665245000547L90.4921875,16.038743363641352L91.65234375,14.065555727213347L92.8125,12.93234463350481L93.97265625,144.22273297851126L95.1328125,90.73080534566074L96.29296875,58.81875111358506L97.453125,39.69220429044867L98.61328125,28.17541116541128L99.7734375,21.43194123979068L100.93359375,16.97473834949861L102.09374999999999,14.442746004722041L103.25390625,12.78705249341385L104.4140625,12.09695527728717L105.57421875,144.41363836176808L106.73437500000001,90.9568642276654L107.89453125,59.70892402518563L109.0546875,40.59151527604005L110.21484375,28.72443523110363L111.375,21.739933379734435L112.53515625,17.3216893917156L113.6953125,14.880454420524133L114.85546875,13.225015074244949L116.015625,12.375492640655162L117.17578125,143.88604374102735L118.3359375,90.65649694371858L119.49609374999999,58.40493831626673L120.65625,39.20908462866493L121.81640625,27.789568694346478L122.9765625,20.95794637588189L124.13671875000001,16.7410582647881L125.296875,14.237058762028909L126.45703125,12.953148100401368L127.6171875,11.904710792946792L128.77734375,143.08551483684928L129.9375,89.97012040543315L131.09765625,58.22501338872332L132.2578125,39.243305606670354L133.41796875,27.881902813548326L134.578125,20.91326358296542L135.73828125,20.852312540010296L136.8984375,17.860615498637717L138.05859375,15.256659940967271L139.21875,13.639641328127986L140.37890625,143.83254954154867L141.5390625,90.74803901059589L142.69921875,58.897700983705725L143.85937500000003,39.79041381004986L145.01953125,28.399930024449898L146.1796875,21.52739880016467L147.33984375,17.284921852480934L148.5,14.645260431823228L149.66015625,13.265972881047732L150.8203125,12.45276372615948L151.98046874999997,143.81803264337722L153.140625,90.55324949963388L154.30078125,58.75510824137298L155.4609375,39.634729290304975L156.62109375,28.081800004963565L157.78125,21.43223058919307L158.94140625,17.233084427845593L160.1015625,14.87137902557053L161.26171875000003,13.12550200363248L162.421875,12.34306907368938L163.58203125,144.6599397555512L164.7421875,91.20385363562941L165.90234375,59.13472888226094L167.0625,39.90497798209985L168.22265625,28.60050160415694L169.38281249999997,21.512900956113185L170.54296875,17.30872488693919L171.703125,14.80156473216237L172.86328125,13.093818176261456L174.0234375,12.705501540855442L175.18359375,143.8193586169544L176.34375,90.68879380273542L177.50390625,58.803564790663316L178.66406250000003,39.68587002979351L179.82421875,28.24066529929254L180.984375,21.180235364684034L182.14453125,16.878697703379608L183.3046875,14.397597497760193L184.46484375,14.353208548732658L185.625,14.764427952115582L186.78515624999997,147.73624619644303L187.9453125,104.6835266984677L189.10546875,80.68670881124477L190.265625,59.50482341574189L191.42578125,45.14402675097213L192.5859375,33.75443515458713L193.74609375,26.809747673202132L194.90625,26.090697760387627L196.06640625000003,26.233772144807894L197.2265625,23.0694580320352L198.38671875,153.78943547054948L199.546875,102.6766644374311L200.70703125,71.3346290578278L201.8671875,50.74328524789026L203.02734375,40.74327459125567L204.18749999999997,31.75149675936993L205.34765625,29.008682604294673L206.5078125,24.528467875842537L207.66796875,21.87208885081074L208.828125,22.717119641413465L209.98828125,152.78152111120718L211.1484375,98.65398487200775L212.30859375,68.76534135572192L213.46875000000003,48.25259427252296L214.62890625,36.30073113238362L215.7890625,28.766554377811108L216.94921875,24.866573771872694L218.109375,22.06987303232198L219.26953125,20.896642374496874L220.4296875,19.920797300474916L221.58984374999997,150.99514687893108L222.75,97.50234845617173L223.91015625,65.85951471584835L225.0703125,46.627396645782035L226.23046875,35.55343165229744L227.390625,29.294515937317996L228.55078125,25.061062523844324L229.7109375,22.13518959394084L230.87109375000003,20.48760598964085L232.03125,20.155259530507696L233.19140625,154.37537539267512L234.3515625,108.20964732977677L235.51171875,78.14895441279755L236.671875,51.52173620982894L237.83203125,35.49990591990038L238.99218749999997,25.861948057444508L240.15234375,20.15820259661823L241.3125,16.79058525287287L242.47265625,14.954743815852822L243.6328125,13.651783403880504L244.79296875,145.2712004070065L245.953125,91.58675347854005L247.11328125,59.93481449321313L248.27343750000003,41.68181505007604L249.43359375,30.32871556077956L250.59375,31.789438961711827L251.75390625,25.666627705446153L252.9140625,24.117631007534L254.07421875,25.70467797530341L255.234375,21.424432782551932" style="fill: none;" fill="none"></path></g></g></g></g><g opacity="0.2"><g><g><g><path stroke="rgb(255, 112, 67)" stroke-width="2px" d="M24.36328125,315.44891862435776L25.523437499999996,71.75155982104215L26.683593750000004,79.41532607512042L27.84375,212.51992958242244L29.00390625,334.90254560383886L30.1640625,74.17150471427225L31.32421875,71.3422573262995L32.484375,68.54051672328602L33.64453125,70.65949825807053L34.8046875,70.69191559878263L35.96484375000001,363.49761329997665L37.125,71.79115117679945L38.28515625,72.1497752016241L39.4453125,73.0942899097096L40.60546875,73.8631755221974L41.765625,72.19849712198432L42.92578125,74.33297759836371L44.0859375,70.28437783501367L45.24609375,71.88015499981968L46.40625,73.04844526811081L47.56640625,364.06995200027114L48.7265625,71.21719160946934L49.88671875,71.57094344225797L51.04687499999999,69.0514447038824L52.20703125,68.46612947637385L53.36718750000001,75.91789783130994L54.52734375,71.88897865468806L55.6875,73.19342175397007L56.84765625,71.23341946168381L58.0078125,73.09206481413409L59.16796875,364.3889175328341L60.328125,72.27714274146341L61.48828125,70.98286602713846L62.6484375,72.18856091932818L63.80859375,70.0965490774675L64.96875,74.70951747894287L66.12890625,75.51818626577204L67.2890625,72.09245980869642L68.44921875,72.85651159286499L69.609375,69.61274424466221L70.76953125,358.4961259473454L71.92968750000001,50.41032288291238L73.08984375,49.86321791735563L74.25,47.78962065956811L75.41015625,48.6251056844538L76.5703125,49.34020536596126L77.73046875,49.01338486237961L78.890625,48.97237404910001L80.05078125,49.795774503187715L81.2109375,48.02064696225254L82.37109375,405.06658029556274L83.53125,11.01243534955113L84.69140624999999,10.988764936273759L85.8515625,11.329511469060733L87.01171875,10.857867934487105L88.171875,10.741856054826224L89.33203125000001,10.756242448633378L90.4921875,11.147360541603785L91.65234375,11.105774272571932L92.8125,11.232527992942133L93.97265625,341.1583154960112L95.1328125,10.492913896387284L96.29296875,10.950669765472432L97.453125,11.002384055744539L98.61328125,10.900221477855354L99.7734375,11.316736351359992L100.93359375,10.288934014060297L102.09374999999999,10.644757487557174L103.25390625,10.303512226451545L104.4140625,11.061809453097272L105.57421875,342.8886629884893L106.73437500000001,10.771703026511469L107.89453125,12.837013721466084L109.0546875,11.915402152321558L110.21484375,10.923815163699079L111.375,11.263180602680574L112.53515625,10.69432340968741L113.6953125,11.21860196373681L114.85546875,10.741856054826224L116.015625,11.10120899027045L117.17578125,341.1518703915856L118.3359375,10.812176747755583L119.49609374999999,10.027600375088785L120.65625,10.415304097262311L121.81640625,10.660294792868891L122.9765625,10.710512898185053L124.13671875000001,10.41572609814732L125.296875,10.481059507890189L126.45703125,11.027282107960115L127.6171875,10.332054831764937L128.77734375,339.856720902703L129.9375,10.297028758309127L131.09765625,10.607352863658576L132.2578125,10.770743933590982L133.41796875,10.839798623865311L134.578125,10.460304737091084L135.73828125,20.76088597557763L136.8984375,13.373069936578935L138.05859375,11.35072660446169L139.21875,11.214113408868974L140.37890625,339.12191186167973L141.5390625,11.121273214166825L142.69921875,11.12219394337049L143.85937500000003,11.129483049566105L145.01953125,11.314204346049934L146.1796875,11.21860196373681L147.33984375,10.921206430955374L148.5,10.685768300836747L149.66015625,11.197041554884489L150.8203125,11.232949993827143L151.98046874999997,340.86593601920384L153.140625,10.656074784018793L154.30078125,11.057896353981734L155.4609375,10.954160863702958L156.62109375,10.752406076951468L157.78125,11.457876465537348L158.94140625,10.934365185824323L160.1015625,11.328820922157984L161.26171875000003,10.506686470725336L162.421875,11.169419678774762L163.58203125,343.13524577834386L164.7421875,11.019724455746744L165.90234375,11.031041752208381L167.0625,11.060351631858149L168.22265625,11.64378703724256L169.38281249999997,10.881499984047652L170.54296875,11.002460783178165L171.703125,11.040824499997232L172.86328125,10.532198342410016L174.0234375,12.123026587746363L175.18359375,340.49014423110265L176.34375,10.992946581407034L177.50390625,10.97572127255528L178.66406250000003,11.009327888488789L179.82421875,11.07285820354117L180.984375,10.589590462771344L182.14453125,10.426391211423013L183.3046875,10.675947189331074L184.46484375,14.286625125191431L185.625,15.381257057189961L186.78515624999997,347.19397356293416L187.9453125,40.1044474515048L189.10546875,44.6914819804105L190.265625,27.731995322487574L191.42578125,23.602831753817487L192.5859375,16.670047760009787L193.74609375,16.392716451124723L194.90625,25.01212289116601L196.06640625000003,26.448383721438336L197.2265625,18.322986862876213L198.38671875,349.8694016283208L199.546875,26.00750788775358L200.70703125,24.32157598842276L201.8671875,19.856269532983966L203.02734375,25.74325860630384L204.18749999999997,18.263830011541202L205.34765625,24.89446137168191L206.5078125,17.8081457831643L207.66796875,17.88752031326296L208.828125,23.984665827317677L209.98828125,347.8781233158979L211.1484375,17.462680513208575L212.30859375,23.93237608129329L213.46875000000003,17.48347364772452L214.62890625,18.37293642217464L215.7890625,17.465289245952277L216.94921875,19.016602862964998L218.109375,17.874821922995842L219.26953125,19.136796387759137L220.4296875,18.45702968944205L221.58984374999997,347.60667124661535L222.75,17.2631508220326L223.91015625,18.39526410536333L225.0703125,17.77921954068272L226.23046875,18.94248416207055L227.390625,19.906142364848762L228.55078125,18.710882403633814L229.7109375,17.746380199085603L230.87109375000003,18.01623058319094L232.03125,19.65673984180799L233.19140625,355.7055491859263L234.3515625,38.96105523542925L235.51171875,33.057915037328556L236.671875,11.580908905376106L237.83203125,11.467160485007563L238.99218749999997,11.40501126376066L240.15234375,11.602584405378874L241.3125,11.739159237254768L242.47265625,12.200981660322721L243.6328125,11.697342785921979L244.79296875,342.7003259116953L245.953125,11.060083085840409L247.11328125,12.456906015222733L248.27343750000003,14.302315885370438L249.43359375,13.299066326834955L250.59375,33.98052406311037L251.75390625,16.48241082104771L252.9140625,21.79413596066563L254.07421875,28.08524842695757L255.234375,15.004064993424857" style="fill: none;" fill="none"></path></g></g></g></g></g></g><g transform="translate(51, 177)" clip-path="url(#clip_1)"><clipPath id="clip_1"><rect width="278" height="23"></rect></clipPath><g><g><line x1="0" y1="0" x2="0" y2="5" style="visibility: inherit;" fill="rgb(0, 0, 0)" stroke="rgb(204, 204, 204)" stroke-width="1px"></line><line x1="23.203125" y1="0" x2="23.203125" y2="5" style="visibility: inherit;" fill="rgb(0, 0, 0)" stroke="rgb(204, 204, 204)" stroke-width="1px"></line><line x1="46.40625" y1="0" x2="46.40625" y2="5" style="visibility: inherit;" fill="rgb(0, 0, 0)" stroke="rgb(204, 204, 204)" stroke-width="1px"></line><line x1="69.609375" y1="0" x2="69.609375" y2="5" style="visibility: inherit;" fill="rgb(0, 0, 0)" stroke="rgb(204, 204, 204)" stroke-width="1px"></line><line x1="92.8125" y1="0" x2="92.8125" y2="5" style="visibility: inherit;" fill="rgb(0, 0, 0)" stroke="rgb(204, 204, 204)" stroke-width="1px"></line><line x1="116.015625" y1="0" x2="116.015625" y2="5" style="visibility: inherit;" fill="rgb(0, 0, 0)" stroke="rgb(204, 204, 204)" stroke-width="1px"></line><line x1="139.21875" y1="0" x2="139.21875" y2="5" style="visibility: inherit;" fill="rgb(0, 0, 0)" stroke="rgb(204, 204, 204)" stroke-width="1px"></line><line x1="162.421875" y1="0" x2="162.421875" y2="5" style="visibility: inherit;" fill="rgb(0, 0, 0)" stroke="rgb(204, 204, 204)" stroke-width="1px"></line><line x1="185.625" y1="0" x2="185.625" y2="5" style="visibility: inherit;" fill="rgb(0, 0, 0)" stroke="rgb(204, 204, 204)" stroke-width="1px"></line><line x1="208.828125" y1="0" x2="208.828125" y2="5" style="visibility: inherit;" fill="rgb(0, 0, 0)" stroke="rgb(204, 204, 204)" stroke-width="1px"></line><line x1="232.03125" y1="0" x2="232.03125" y2="5" style="visibility: inherit;" fill="rgb(0, 0, 0)" stroke="rgb(204, 204, 204)" stroke-width="1px"></line><line x1="255.234375" y1="0" x2="255.234375" y2="5" style="visibility: inherit;" fill="rgb(0, 0, 0)" stroke="rgb(204, 204, 204)" stroke-width="1px"></line><line x1="278.4375" y1="0" x2="278.4375" y2="5" style="visibility: inherit;" fill="rgb(0, 0, 0)" stroke="rgb(204, 204, 204)" stroke-width="1px"></line></g><g transform="translate(0, 8)"><text x="0" y="0" dx="0em" dy="0.95em" style="text-anchor: middle; visibility: hidden; font-family: Roboto, sans-serif; font-size: 12px; font-weight: 200;" fill="rgb(255, 255, 255)" stroke="none" stroke-width="1px">-2k</text><text x="23.203125" y="0" dx="0em" dy="0.95em" style="text-anchor: middle; visibility: inherit; font-family: Roboto, sans-serif; font-size: 12px; font-weight: 200;" fill="rgb(255, 255, 255)" stroke="none" stroke-width="1px">0</text><text x="46.40625" y="0" dx="0em" dy="0.95em" style="text-anchor: middle; visibility: hidden; font-family: Roboto, sans-serif; font-size: 12px; font-weight: 200;" fill="rgb(255, 255, 255)" stroke="none" stroke-width="1px">2k</text><text x="69.609375" y="0" dx="0em" dy="0.95em" style="text-anchor: middle; visibility: inherit; font-family: Roboto, sans-serif; font-size: 12px; font-weight: 200;" fill="rgb(255, 255, 255)" stroke="none" stroke-width="1px">4k</text><text x="92.8125" y="0" dx="0em" dy="0.95em" style="text-anchor: middle; visibility: hidden; font-family: Roboto, sans-serif; font-size: 12px; font-weight: 200;" fill="rgb(255, 255, 255)" stroke="none" stroke-width="1px">6k</text><text x="116.015625" y="0" dx="0em" dy="0.95em" style="text-anchor: middle; visibility: inherit; font-family: Roboto, sans-serif; font-size: 12px; font-weight: 200;" fill="rgb(255, 255, 255)" stroke="none" stroke-width="1px">8k</text><text x="139.21875" y="0" dx="0em" dy="0.95em" style="text-anchor: middle; visibility: hidden; font-family: Roboto, sans-serif; font-size: 12px; font-weight: 200;" fill="rgb(255, 255, 255)" stroke="none" stroke-width="1px">10k</text><text x="162.421875" y="0" dx="0em" dy="0.95em" style="text-anchor: middle; visibility: inherit; font-family: Roboto, sans-serif; font-size: 12px; font-weight: 200;" fill="rgb(255, 255, 255)" stroke="none" stroke-width="1px">12k</text><text x="185.625" y="0" dx="0em" dy="0.95em" style="text-anchor: middle; visibility: hidden; font-family: Roboto, sans-serif; font-size: 12px; font-weight: 200;" fill="rgb(255, 255, 255)" stroke="none" stroke-width="1px">14k</text><text x="208.828125" y="0" dx="0em" dy="0.95em" style="text-anchor: middle; visibility: inherit; font-family: Roboto, sans-serif; font-size: 12px; font-weight: 200;" fill="rgb(255, 255, 255)" stroke="none" stroke-width="1px">16k</text><text x="232.03125" y="0" dx="0em" dy="0.95em" style="text-anchor: middle; visibility: hidden; font-family: Roboto, sans-serif; font-size: 12px; font-weight: 200;" fill="rgb(255, 255, 255)" stroke="none" stroke-width="1px">18k</text><text x="255.234375" y="0" dx="0em" dy="0.95em" style="text-anchor: middle; visibility: inherit; font-family: Roboto, sans-serif; font-size: 12px; font-weight: 200;" fill="rgb(255, 255, 255)" stroke="none" stroke-width="1px">20k</text><text x="278.4375" y="0" dx="0em" dy="0.95em" style="text-anchor: middle; visibility: hidden; font-family: Roboto, sans-serif; font-size: 12px; font-weight: 200;" fill="rgb(255, 255, 255)" stroke="none" stroke-width="1px">22k</text></g><line x1="0" y1="0" x2="278.4375" y2="0" fill="rgb(0, 0, 0)" stroke="rgb(204, 204, 204)" stroke-width="1px"></line></g></g></g></g></svg>