<svg viewBox="0 0 330 200" xmlns="http://www.w3.org/2000/svg"><g><g><g><g><g><line x1="61.953125" y1="177" x2="56.953125" y2="177" style="visibility: inherit;" fill="rgb(0, 0, 0)" stroke="rgb(204, 204, 204)" stroke-width="1px"></line><line x1="61.953125" y1="159.3" x2="56.953125" y2="159.3" style="visibility: inherit;" fill="rgb(0, 0, 0)" stroke="rgb(204, 204, 204)" stroke-width="1px"></line><line x1="61.953125" y1="141.6" x2="56.953125" y2="141.6" style="visibility: inherit;" fill="rgb(0, 0, 0)" stroke="rgb(204, 204, 204)" stroke-width="1px"></line><line x1="61.953125" y1="123.89999999999999" x2="56.953125" y2="123.89999999999999" style="visibility: inherit;" fill="rgb(0, 0, 0)" stroke="rgb(204, 204, 204)" stroke-width="1px"></line><line x1="61.953125" y1="106.20000000000002" x2="56.953125" y2="106.20000000000002" style="visibility: inherit;" fill="rgb(0, 0, 0)" stroke="rgb(204, 204, 204)" stroke-width="1px"></line><line x1="61.953125" y1="88.49999999999999" x2="56.953125" y2="88.49999999999999" style="visibility: inherit;" fill="rgb(0, 0, 0)" stroke="rgb(204, 204, 204)" stroke-width="1px"></line><line x1="61.953125" y1="70.8" x2="56.953125" y2="70.8" style="visibility: inherit;" fill="rgb(0, 0, 0)" stroke="rgb(204, 204, 204)" stroke-width="1px"></line><line x1="61.953125" y1="53.09999999999999" x2="56.953125" y2="53.09999999999999" style="visibility: inherit;" fill="rgb(0, 0, 0)" stroke="rgb(204, 204, 204)" stroke-width="1px"></line><line x1="61.953125" y1="35.39999999999997" x2="56.953125" y2="35.39999999999997" style="visibility: inherit;" fill="rgb(0, 0, 0)" stroke="rgb(204, 204, 204)" stroke-width="1px"></line><line x1="61.953125" y1="17.699999999999957" x2="56.953125" y2="17.699999999999957" style="visibility: inherit;" fill="rgb(0, 0, 0)" stroke="rgb(204, 204, 204)" stroke-width="1px"></line><line x1="61.953125" y1="0" x2="56.953125" y2="0" style="visibility: inherit;" fill="rgb(0, 0, 0)" stroke="rgb(204, 204, 204)" stroke-width="1px"></line></g><g transform="translate(51.953125, 0)"><text x="0" y="177" dx="0em" dy="0.3em" style="text-anchor: end; visibility: hidden; font-family: Roboto, sans-serif; font-size: 12px; font-weight: 200;" fill="rgb(255, 255, 255)" stroke="none" stroke-width="1px">5e-3</text><text x="0" y="159.3" dx="0em" dy="0.3em" style="text-anchor: end; visibility: inherit; font-family: Roboto, sans-serif; font-size: 12px; font-weight: 200;" fill="rgb(255, 255, 255)" stroke="none" stroke-width="1px">6e-3</text><text x="0" y="141.6" dx="0em" dy="0.3em" style="text-anchor: end; visibility: hidden; font-family: Roboto, sans-serif; font-size: 12px; font-weight: 200;" fill="rgb(255, 255, 255)" stroke="none" stroke-width="1px">7e-3</text><text x="0" y="123.89999999999999" dx="0em" dy="0.3em" style="text-anchor: end; visibility: inherit; font-family: Roboto, sans-serif; font-size: 12px; font-weight: 200;" fill="rgb(255, 255, 255)" stroke="none" stroke-width="1px">8e-3</text><text x="0" y="106.20000000000002" dx="0em" dy="0.3em" style="text-anchor: end; visibility: hidden; font-family: Roboto, sans-serif; font-size: 12px; font-weight: 200;" fill="rgb(255, 255, 255)" stroke="none" stroke-width="1px">9e-3</text><text x="0" y="88.49999999999999" dx="0em" dy="0.3em" style="text-anchor: end; visibility: inherit; font-family: Roboto, sans-serif; font-size: 12px; font-weight: 200;" fill="rgb(255, 255, 255)" stroke="none" stroke-width="1px">0.01</text><text x="0" y="70.8" dx="0em" dy="0.3em" style="text-anchor: end; visibility: hidden; font-family: Roboto, sans-serif; font-size: 12px; font-weight: 200;" fill="rgb(255, 255, 255)" stroke="none" stroke-width="1px">0.011</text><text x="0" y="53.09999999999999" dx="0em" dy="0.3em" style="text-anchor: end; visibility: inherit; font-family: Roboto, sans-serif; font-size: 12px; font-weight: 200;" fill="rgb(255, 255, 255)" stroke="none" stroke-width="1px">0.012</text><text x="0" y="35.39999999999997" dx="0em" dy="0.3em" style="text-anchor: end; visibility: hidden; font-family: Roboto, sans-serif; font-size: 12px; font-weight: 200;" fill="rgb(255, 255, 255)" stroke="none" stroke-width="1px">0.013</text><text x="0" y="17.699999999999957" dx="0em" dy="0.3em" style="text-anchor: end; visibility: inherit; font-family: Roboto, sans-serif; font-size: 12px; font-weight: 200;" fill="rgb(255, 255, 255)" stroke="none" stroke-width="1px">0.014</text><text x="0" y="0" dx="0em" dy="0.3em" style="text-anchor: end; visibility: hidden; font-family: Roboto, sans-serif; font-size: 12px; font-weight: 200;" fill="rgb(255, 255, 255)" stroke="none" stroke-width="1px">0.015</text></g><line x1="61.953125" y1="0" x2="61.953125" y2="177" fill="rgb(0, 0, 0)" stroke="rgb(204, 204, 204)" stroke-width="1px"></line></g></g><g transform="translate(61, 0)" clip-path="url(#clip_0)"><clipPath id="clip_0"><rect width="268" height="177"></rect></clipPath><g><g><g><line x1="0" y1="0" x2="0" y2="177" fill="rgb(0, 0, 0)" stroke="rgb(189, 189, 189)" stroke-width="1px" opacity="0.25"></line><line x1="26.8046875" y1="0" x2="26.8046875" y2="177" fill="rgb(0, 0, 0)" stroke="rgb(189, 189, 189)" stroke-width="1px" opacity="0.25"></line><line x1="53.609375" y1="0" x2="53.609375" y2="177" fill="rgb(0, 0, 0)" stroke="rgb(189, 189, 189)" stroke-width="1px" opacity="0.25"></line><line x1="80.4140625" y1="0" x2="80.4140625" y2="177" fill="rgb(0, 0, 0)" stroke="rgb(189, 189, 189)" stroke-width="1px" opacity="0.25"></line><line x1="107.21875" y1="0" x2="107.21875" y2="177" fill="rgb(0, 0, 0)" stroke="rgb(189, 189, 189)" stroke-width="1px" opacity="0.25"></line><line x1="134.0234375" y1="0" x2="134.0234375" y2="177" fill="rgb(0, 0, 0)" stroke="rgb(189, 189, 189)" stroke-width="1px" opacity="0.25"></line><line x1="160.828125" y1="0" x2="160.828125" y2="177" fill="rgb(0, 0, 0)" stroke="rgb(189, 189, 189)" stroke-width="1px" opacity="0.25"></line><line x1="187.6328125" y1="0" x2="187.6328125" y2="177" fill="rgb(0, 0, 0)" stroke="rgb(189, 189, 189)" stroke-width="1px" opacity="0.25"></line><line x1="214.4375" y1="0" x2="214.4375" y2="177" fill="rgb(0, 0, 0)" stroke="rgb(189, 189, 189)" stroke-width="1px" opacity="0.25"></line><line x1="241.2421875" y1="0" x2="241.2421875" y2="177" fill="rgb(0, 0, 0)" stroke="rgb(189, 189, 189)" stroke-width="1px" opacity="0.25"></line><line x1="268.046875" y1="0" x2="268.046875" y2="177" fill="rgb(0, 0, 0)" stroke="rgb(189, 189, 189)" stroke-width="1px" opacity="0.25"></line></g><g><line x1="0" y1="177" x2="268.046875" y2="177" fill="rgb(0, 0, 0)" stroke="rgb(189, 189, 189)" stroke-width="1px" opacity="0.25"></line><line x1="0" y1="159.3" x2="268.046875" y2="159.3" fill="rgb(0, 0, 0)" stroke="rgb(189, 189, 189)" stroke-width="1px" opacity="0.25"></line><line x1="0" y1="141.6" x2="268.046875" y2="141.6" fill="rgb(0, 0, 0)" stroke="rgb(189, 189, 189)" stroke-width="1px" opacity="0.25"></line><line x1="0" y1="123.89999999999999" x2="268.046875" y2="123.89999999999999" fill="rgb(0, 0, 0)" stroke="rgb(189, 189, 189)" stroke-width="1px" opacity="0.25"></line><line x1="0" y1="106.20000000000002" x2="268.046875" y2="106.20000000000002" fill="rgb(0, 0, 0)" stroke="rgb(189, 189, 189)" stroke-width="1px" opacity="0.25"></line><line x1="0" y1="88.49999999999999" x2="268.046875" y2="88.49999999999999" fill="rgb(0, 0, 0)" stroke="rgb(189, 189, 189)" stroke-width="1px" opacity="0.25"></line><line x1="0" y1="70.8" x2="268.046875" y2="70.8" fill="rgb(0, 0, 0)" stroke="rgb(189, 189, 189)" stroke-width="1px" opacity="0.25"></line><line x1="0" y1="53.09999999999999" x2="268.046875" y2="53.09999999999999" fill="rgb(0, 0, 0)" stroke="rgb(189, 189, 189)" stroke-width="1px" opacity="0.25"></line><line x1="0" y1="35.39999999999997" x2="268.046875" y2="35.39999999999997" fill="rgb(0, 0, 0)" stroke="rgb(189, 189, 189)" stroke-width="1px" opacity="0.25"></line><line x1="0" y1="17.699999999999957" x2="268.046875" y2="17.699999999999957" fill="rgb(0, 0, 0)" stroke="rgb(189, 189, 189)" stroke-width="1px" opacity="0.25"></line><line x1="0" y1="0" x2="268.046875" y2="0" fill="rgb(0, 0, 0)" stroke="rgb(189, 189, 189)" stroke-width="1px" opacity="0.25"></line></g></g></g><g><g><line x1="0" y1="265.5" x2="268.046875" y2="265.5" fill="rgb(0, 0, 0)" stroke="rgb(153, 153, 153)" stroke-width="1.5px"></line></g></g><g><g><line x1="26.8046875" y1="0" x2="26.8046875" y2="177" fill="rgb(0, 0, 0)" stroke="rgb(153, 153, 153)" stroke-width="1.5px"></line></g></g><g><g><g><g><g><path stroke="rgb(255, 112, 67)" stroke-width="2px" d="M34.84609375,-31.648756827322778L37.526562500000004,17.518789478974856L40.20703125,31.762005569347373L42.8875,14.664021440014388L45.567968750000006,-6.539441538594441L48.2484375,19.430470594146335L50.92890625,58.27731770575289L53.609375,42.33462220614083L56.289843749999996,44.541438304557154L58.9703125,42.37824883913339L61.65078125,42.63113050647648L64.33125,50.3052227278896L67.01171875,47.13252305370303L69.6921875,65.40805682040404L72.37265625,98.62589793878266L75.05312500000001,85.42210133145913L77.73359375,60.80924600178295L80.4140625,66.51833525424627L83.09453125,69.71021766549396L85.775,119.51113128508435L88.45546875000001,130.9201353322039L91.13593750000001,124.59331943205908L93.81640625,118.88145852036659L96.496875,104.21222961265187L99.17734375,129.48995213262265L101.8578125,129.33202613163735L104.53828125,126.52797116298186L107.21875,132.08668989543233L109.89921874999999,135.5752979091686L112.57968749999999,149.59723821548L115.26015625,150.9153334353997L117.940625,110.3491267341366L120.62109375,140.5278866511234L123.3015625,77.61830707402908L125.98203124999999,73.62338629581937L128.6625,40.87941377651618L131.34296875,89.99517345220164L134.0234375,56.436324265683226L136.70390625,16.63723074706214L139.384375,65.97033568423876L142.06484375,57.56891672190969L144.7453125,92.30543028868185L147.42578125,128.0109052385665L150.10625000000002,106.88043858579798L152.78671874999998,143.03407177931953L155.4671875,135.13078069732853L158.14765624999998,120.62026362427156L160.828125,136.46038324954844L163.50859375,144.42747834819093L166.1890625,123.62341743998157L168.86953125,95.01934042891291L171.55,84.38917779665326L174.23046875,106.05786236446151L176.91093750000002,109.4211564396099L179.59140625,139.6741999579603L182.27187500000002,152.24723371301073L184.95234374999998,163.20754675602393L187.6328125,122.75057874193872L190.31328125,158.49212582042074L192.99375,123.52690174210161L195.67421875,88.16193515675084L198.3546875,107.28183188135526L201.03515625,142.55542097297385L203.715625,115.74149596576132L206.39609375,145.1754611015871L209.0765625,155.16760275769562L211.75703125,103.10521594737963L214.4375,122.92386095035073L217.11796875000002,159.07593487833736L219.79843749999998,147.26847863873718L222.47890625,165.18120424035715L225.15937499999998,165.8008513299139L227.83984375,178.606384643764L230.5203125,186.5349613261078L233.20078125,154.6883027974876L235.88125,159.2377564191289L238.56171875,154.60466376048132L241.2421875,148.88479064018608" style="fill: none;" fill="none"></path></g><g><path stroke="rgb(0, 119, 187)" stroke-width="2px" d="M26.8046875,-44.638143226504326L53.609375,62.44157293997703L80.4140625,94.42714330774486L107.21875,117.29720629239455L134.0234375,140.0659100329652L160.828125,155.14519860810265L187.6328125,167.30774151110805L214.4375,171.8040463693357L241.2421875,172.68911035673065" style="fill: none;" fill="none"></path></g></g></g></g><g opacity="0.2"><g><g><g><path stroke="rgb(255, 112, 67)" stroke-width="2px" d="M32.165625,-96.1175696253777L34.84609375,37.13016591221094L37.526562500000004,75.33982393518089L40.20703125,50.35794849693773L42.8875,-8.988645885139704L45.567968750000006,-36.86073285341263L48.2484375,57.294851794838884L50.92890625,115.56887158378959L53.609375,18.66157741472125L56.289843749999996,47.8316467925906L58.9703125,39.14523662254212L61.65078125,43.0096273049712L64.33125,61.80132671445606L67.01171875,42.37720293179152L69.6921875,92.8084681481123L72.37265625,148.43860293924809L75.05312500000001,65.61975886300205L77.73359375,23.893712528049946L80.4140625,75.08144729956983L83.09453125,74.49786623194812L85.775,194.21086299419403L88.45546875000001,148.03341615200043L91.13593750000001,115.10317052900791L93.81640625,110.31370775029063L96.496875,82.20844880864023L99.17734375,167.40647123381495L101.8578125,129.09513737261295L104.53828125,122.32189129292965L107.21875,140.4247649218887L109.89921874999999,140.80820877291262L112.57968749999999,170.6301458850503L115.26015625,152.89247610792518L117.940625,49.499819587916114L120.62109375,185.79602522961795L123.3015625,-16.74606066942215L125.98203124999999,67.63100519031285L128.6625,-8.236544698476791L131.34296875,163.66881269216537L134.0234375,6.098050598055124L136.70390625,-43.06140945106745L139.384375,139.9699930306524L142.06484375,44.96678828448055L144.7453125,144.4102006237954L147.42578125,181.56911765411496L150.10625000000002,75.1847386099398L152.78671874999998,197.26452156621963L155.4671875,123.27584407478571L158.14765624999998,98.85448801517487L160.828125,160.22056268714368L163.50859375,156.378120996058L166.1890625,92.41732607781887L168.86953125,52.113224912434795L171.55,68.44393384829162L174.23046875,138.5608892161399L176.91093750000002,114.4660975523293L179.59140625,185.05376523546875L182.27187500000002,171.10678434558213L184.95234374999998,179.6480163205415L187.6328125,62.065126720815876L190.31328125,212.10444643814117L192.99375,71.07906562462448L195.67421875,35.114485278725624L198.3546875,135.9616769682616L201.03515625,195.4658046104014L203.715625,75.52060845494269L206.39609375,189.32640880532563L209.0765625,170.15581524185836L211.75703125,25.0116357319057L214.4375,152.6518284548074L217.11796875000002,213.30404577031732L219.79843749999998,129.55729427933693L222.47890625,192.0502926427871L225.15937499999998,166.73032196424901L227.83984375,197.81468461453915L230.5203125,198.4278263496235L233.20078125,106.91831500455737L235.88125,166.06193685159087L238.56171875,147.65502477250993L241.2421875,140.30498095974326" style="fill: none;" fill="none"></path></g><g><path stroke="rgb(0, 119, 187)" stroke-width="2px" d="M26.8046875,-44.638143226504326L53.609375,126.68940263986588L80.4140625,125.13329086080194L107.21875,144.1924003623426L134.0234375,169.79272963665426L160.828125,176.00528325140476L187.6328125,184.7003724630922L214.4375,178.35970201715827L241.2421875,173.9944078233093" style="fill: none;" fill="none"></path></g></g></g></g></g></g><g transform="translate(61, 177)" clip-path="url(#clip_1)"><clipPath id="clip_1"><rect width="268" height="23"></rect></clipPath><g><g><line x1="0" y1="0" x2="0" y2="5" style="visibility: inherit;" fill="rgb(0, 0, 0)" stroke="rgb(204, 204, 204)" stroke-width="1px"></line><line x1="26.8046875" y1="0" x2="26.8046875" y2="5" style="visibility: inherit;" fill="rgb(0, 0, 0)" stroke="rgb(204, 204, 204)" stroke-width="1px"></line><line x1="53.609375" y1="0" x2="53.609375" y2="5" style="visibility: inherit;" fill="rgb(0, 0, 0)" stroke="rgb(204, 204, 204)" stroke-width="1px"></line><line x1="80.4140625" y1="0" x2="80.4140625" y2="5" style="visibility: inherit;" fill="rgb(0, 0, 0)" stroke="rgb(204, 204, 204)" stroke-width="1px"></line><line x1="107.21875" y1="0" x2="107.21875" y2="5" style="visibility: inherit;" fill="rgb(0, 0, 0)" stroke="rgb(204, 204, 204)" stroke-width="1px"></line><line x1="134.0234375" y1="0" x2="134.0234375" y2="5" style="visibility: inherit;" fill="rgb(0, 0, 0)" stroke="rgb(204, 204, 204)" stroke-width="1px"></line><line x1="160.828125" y1="0" x2="160.828125" y2="5" style="visibility: inherit;" fill="rgb(0, 0, 0)" stroke="rgb(204, 204, 204)" stroke-width="1px"></line><line x1="187.6328125" y1="0" x2="187.6328125" y2="5" style="visibility: inherit;" fill="rgb(0, 0, 0)" stroke="rgb(204, 204, 204)" stroke-width="1px"></line><line x1="214.4375" y1="0" x2="214.4375" y2="5" style="visibility: inherit;" fill="rgb(0, 0, 0)" stroke="rgb(204, 204, 204)" stroke-width="1px"></line><line x1="241.2421875" y1="0" x2="241.2421875" y2="5" style="visibility: inherit;" fill="rgb(0, 0, 0)" stroke="rgb(204, 204, 204)" stroke-width="1px"></line><line x1="268.046875" y1="0" x2="268.046875" y2="5" style="visibility: inherit;" fill="rgb(0, 0, 0)" stroke="rgb(204, 204, 204)" stroke-width="1px"></line></g><g transform="translate(0, 8)"><text x="0" y="0" dx="0em" dy="0.95em" style="text-anchor: middle; visibility: hidden; font-family: Roboto, sans-serif; font-size: 12px; font-weight: 200;" fill="rgb(255, 255, 255)" stroke="none" stroke-width="1px">-1k</text><text x="26.8046875" y="0" dx="0em" dy="0.95em" style="text-anchor: middle; visibility: inherit; font-family: Roboto, sans-serif; font-size: 12px; font-weight: 200;" fill="rgb(255, 255, 255)" stroke="none" stroke-width="1px">0</text><text x="53.609375" y="0" dx="0em" dy="0.95em" style="text-anchor: middle; visibility: inherit; font-family: Roboto, sans-serif; font-size: 12px; font-weight: 200;" fill="rgb(255, 255, 255)" stroke="none" stroke-width="1px">1k</text><text x="80.4140625" y="0" dx="0em" dy="0.95em" style="text-anchor: middle; visibility: inherit; font-family: Roboto, sans-serif; font-size: 12px; font-weight: 200;" fill="rgb(255, 255, 255)" stroke="none" stroke-width="1px">2k</text><text x="107.21875" y="0" dx="0em" dy="0.95em" style="text-anchor: middle; visibility: inherit; font-family: Roboto, sans-serif; font-size: 12px; font-weight: 200;" fill="rgb(255, 255, 255)" stroke="none" stroke-width="1px">3k</text><text x="134.0234375" y="0" dx="0em" dy="0.95em" style="text-anchor: middle; visibility: inherit; font-family: Roboto, sans-serif; font-size: 12px; font-weight: 200;" fill="rgb(255, 255, 255)" stroke="none" stroke-width="1px">4k</text><text x="160.828125" y="0" dx="0em" dy="0.95em" style="text-anchor: middle; visibility: inherit; font-family: Roboto, sans-serif; font-size: 12px; font-weight: 200;" fill="rgb(255, 255, 255)" stroke="none" stroke-width="1px">5k</text><text x="187.6328125" y="0" dx="0em" dy="0.95em" style="text-anchor: middle; visibility: inherit; font-family: Roboto, sans-serif; font-size: 12px; font-weight: 200;" fill="rgb(255, 255, 255)" stroke="none" stroke-width="1px">6k</text><text x="214.4375" y="0" dx="0em" dy="0.95em" style="text-anchor: middle; visibility: inherit; font-family: Roboto, sans-serif; font-size: 12px; font-weight: 200;" fill="rgb(255, 255, 255)" stroke="none" stroke-width="1px">7k</text><text x="241.2421875" y="0" dx="0em" dy="0.95em" style="text-anchor: middle; visibility: inherit; font-family: Roboto, sans-serif; font-size: 12px; font-weight: 200;" fill="rgb(255, 255, 255)" stroke="none" stroke-width="1px">8k</text><text x="268.046875" y="0" dx="0em" dy="0.95em" style="text-anchor: middle; visibility: hidden; font-family: Roboto, sans-serif; font-size: 12px; font-weight: 200;" fill="rgb(255, 255, 255)" stroke="none" stroke-width="1px">9k</text></g><line x1="0" y1="0" x2="268.046875" y2="0" fill="rgb(0, 0, 0)" stroke="rgb(204, 204, 204)" stroke-width="1px"></line></g></g></g></g></svg>