<svg viewBox="0 0 330 200" xmlns="http://www.w3.org/2000/svg"><g><g><g><g><g><line x1="61.953125" y1="177" x2="56.953125" y2="177" style="visibility: inherit;" fill="rgb(0, 0, 0)" stroke="rgb(204, 204, 204)" stroke-width="1px"></line><line x1="61.953125" y1="162.25" x2="56.953125" y2="162.25" style="visibility: inherit;" fill="rgb(0, 0, 0)" stroke="rgb(204, 204, 204)" stroke-width="1px"></line><line x1="61.953125" y1="147.5" x2="56.953125" y2="147.5" style="visibility: inherit;" fill="rgb(0, 0, 0)" stroke="rgb(204, 204, 204)" stroke-width="1px"></line><line x1="61.953125" y1="132.75" x2="56.953125" y2="132.75" style="visibility: inherit;" fill="rgb(0, 0, 0)" stroke="rgb(204, 204, 204)" stroke-width="1px"></line><line x1="61.953125" y1="118.00000000000001" x2="56.953125" y2="118.00000000000001" style="visibility: inherit;" fill="rgb(0, 0, 0)" stroke="rgb(204, 204, 204)" stroke-width="1px"></line><line x1="61.953125" y1="103.25" x2="56.953125" y2="103.25" style="visibility: inherit;" fill="rgb(0, 0, 0)" stroke="rgb(204, 204, 204)" stroke-width="1px"></line><line x1="61.953125" y1="88.5" x2="56.953125" y2="88.5" style="visibility: inherit;" fill="rgb(0, 0, 0)" stroke="rgb(204, 204, 204)" stroke-width="1px"></line><line x1="61.953125" y1="73.75000000000001" x2="56.953125" y2="73.75000000000001" style="visibility: inherit;" fill="rgb(0, 0, 0)" stroke="rgb(204, 204, 204)" stroke-width="1px"></line><line x1="61.953125" y1="59.00000000000001" x2="56.953125" y2="59.00000000000001" style="visibility: inherit;" fill="rgb(0, 0, 0)" stroke="rgb(204, 204, 204)" stroke-width="1px"></line><line x1="61.953125" y1="44.25" x2="56.953125" y2="44.25" style="visibility: inherit;" fill="rgb(0, 0, 0)" stroke="rgb(204, 204, 204)" stroke-width="1px"></line><line x1="61.953125" y1="29.500000000000032" x2="56.953125" y2="29.500000000000032" style="visibility: inherit;" fill="rgb(0, 0, 0)" stroke="rgb(204, 204, 204)" stroke-width="1px"></line><line x1="61.953125" y1="14.750000000000007" x2="56.953125" y2="14.750000000000007" style="visibility: inherit;" fill="rgb(0, 0, 0)" stroke="rgb(204, 204, 204)" stroke-width="1px"></line><line x1="61.953125" y1="0" x2="56.953125" y2="0" style="visibility: inherit;" fill="rgb(0, 0, 0)" stroke="rgb(204, 204, 204)" stroke-width="1px"></line></g><g transform="translate(51.953125, 0)"><text x="0" y="177" dx="0em" dy="0.3em" style="text-anchor: end; visibility: hidden; font-family: Roboto, sans-serif; font-size: 12px; font-weight: 200;" fill="rgb(255, 255, 255)" stroke="none" stroke-width="1px">0.025</text><text x="0" y="162.25" dx="0em" dy="0.3em" style="text-anchor: end; visibility: inherit; font-family: Roboto, sans-serif; font-size: 12px; font-weight: 200;" fill="rgb(255, 255, 255)" stroke="none" stroke-width="1px">0.03</text><text x="0" y="147.5" dx="0em" dy="0.3em" style="text-anchor: end; visibility: hidden; font-family: Roboto, sans-serif; font-size: 12px; font-weight: 200;" fill="rgb(255, 255, 255)" stroke="none" stroke-width="1px">0.035</text><text x="0" y="132.75" dx="0em" dy="0.3em" style="text-anchor: end; visibility: inherit; font-family: Roboto, sans-serif; font-size: 12px; font-weight: 200;" fill="rgb(255, 255, 255)" stroke="none" stroke-width="1px">0.04</text><text x="0" y="118.00000000000001" dx="0em" dy="0.3em" style="text-anchor: end; visibility: hidden; font-family: Roboto, sans-serif; font-size: 12px; font-weight: 200;" fill="rgb(255, 255, 255)" stroke="none" stroke-width="1px">0.045</text><text x="0" y="103.25" dx="0em" dy="0.3em" style="text-anchor: end; visibility: inherit; font-family: Roboto, sans-serif; font-size: 12px; font-weight: 200;" fill="rgb(255, 255, 255)" stroke="none" stroke-width="1px">0.05</text><text x="0" y="88.5" dx="0em" dy="0.3em" style="text-anchor: end; visibility: hidden; font-family: Roboto, sans-serif; font-size: 12px; font-weight: 200;" fill="rgb(255, 255, 255)" stroke="none" stroke-width="1px">0.055</text><text x="0" y="73.75000000000001" dx="0em" dy="0.3em" style="text-anchor: end; visibility: inherit; font-family: Roboto, sans-serif; font-size: 12px; font-weight: 200;" fill="rgb(255, 255, 255)" stroke="none" stroke-width="1px">0.06</text><text x="0" y="59.00000000000001" dx="0em" dy="0.3em" style="text-anchor: end; visibility: hidden; font-family: Roboto, sans-serif; font-size: 12px; font-weight: 200;" fill="rgb(255, 255, 255)" stroke="none" stroke-width="1px">0.065</text><text x="0" y="44.25" dx="0em" dy="0.3em" style="text-anchor: end; visibility: inherit; font-family: Roboto, sans-serif; font-size: 12px; font-weight: 200;" fill="rgb(255, 255, 255)" stroke="none" stroke-width="1px">0.07</text><text x="0" y="29.500000000000032" dx="0em" dy="0.3em" style="text-anchor: end; visibility: hidden; font-family: Roboto, sans-serif; font-size: 12px; font-weight: 200;" fill="rgb(255, 255, 255)" stroke="none" stroke-width="1px">0.075</text><text x="0" y="14.750000000000007" dx="0em" dy="0.3em" style="text-anchor: end; visibility: inherit; font-family: Roboto, sans-serif; font-size: 12px; font-weight: 200;" fill="rgb(255, 255, 255)" stroke="none" stroke-width="1px">0.08</text><text x="0" y="0" dx="0em" dy="0.3em" style="text-anchor: end; visibility: hidden; font-family: Roboto, sans-serif; font-size: 12px; font-weight: 200;" fill="rgb(255, 255, 255)" stroke="none" stroke-width="1px">0.085</text></g><line x1="61.953125" y1="0" x2="61.953125" y2="177" fill="rgb(0, 0, 0)" stroke="rgb(204, 204, 204)" stroke-width="1px"></line></g></g><g transform="translate(61, 0)" clip-path="url(#clip_0)"><clipPath id="clip_0"><rect width="268" height="177"></rect></clipPath><g><g><g><line x1="0" y1="0" x2="0" y2="177" fill="rgb(0, 0, 0)" stroke="rgb(189, 189, 189)" stroke-width="1px" opacity="0.25"></line><line x1="24.367897727272727" y1="0" x2="24.367897727272727" y2="177" fill="rgb(0, 0, 0)" stroke="rgb(189, 189, 189)" stroke-width="1px" opacity="0.25"></line><line x1="48.73579545454545" y1="0" x2="48.73579545454545" y2="177" fill="rgb(0, 0, 0)" stroke="rgb(189, 189, 189)" stroke-width="1px" opacity="0.25"></line><line x1="73.10369318181817" y1="0" x2="73.10369318181817" y2="177" fill="rgb(0, 0, 0)" stroke="rgb(189, 189, 189)" stroke-width="1px" opacity="0.25"></line><line x1="97.4715909090909" y1="0" x2="97.4715909090909" y2="177" fill="rgb(0, 0, 0)" stroke="rgb(189, 189, 189)" stroke-width="1px" opacity="0.25"></line><line x1="121.83948863636363" y1="0" x2="121.83948863636363" y2="177" fill="rgb(0, 0, 0)" stroke="rgb(189, 189, 189)" stroke-width="1px" opacity="0.25"></line><line x1="146.20738636363635" y1="0" x2="146.20738636363635" y2="177" fill="rgb(0, 0, 0)" stroke="rgb(189, 189, 189)" stroke-width="1px" opacity="0.25"></line><line x1="170.5752840909091" y1="0" x2="170.5752840909091" y2="177" fill="rgb(0, 0, 0)" stroke="rgb(189, 189, 189)" stroke-width="1px" opacity="0.25"></line><line x1="194.9431818181818" y1="0" x2="194.9431818181818" y2="177" fill="rgb(0, 0, 0)" stroke="rgb(189, 189, 189)" stroke-width="1px" opacity="0.25"></line><line x1="219.31107954545456" y1="0" x2="219.31107954545456" y2="177" fill="rgb(0, 0, 0)" stroke="rgb(189, 189, 189)" stroke-width="1px" opacity="0.25"></line><line x1="243.67897727272725" y1="0" x2="243.67897727272725" y2="177" fill="rgb(0, 0, 0)" stroke="rgb(189, 189, 189)" stroke-width="1px" opacity="0.25"></line><line x1="268.046875" y1="0" x2="268.046875" y2="177" fill="rgb(0, 0, 0)" stroke="rgb(189, 189, 189)" stroke-width="1px" opacity="0.25"></line></g><g><line x1="0" y1="177" x2="268.046875" y2="177" fill="rgb(0, 0, 0)" stroke="rgb(189, 189, 189)" stroke-width="1px" opacity="0.25"></line><line x1="0" y1="162.25" x2="268.046875" y2="162.25" fill="rgb(0, 0, 0)" stroke="rgb(189, 189, 189)" stroke-width="1px" opacity="0.25"></line><line x1="0" y1="147.5" x2="268.046875" y2="147.5" fill="rgb(0, 0, 0)" stroke="rgb(189, 189, 189)" stroke-width="1px" opacity="0.25"></line><line x1="0" y1="132.75" x2="268.046875" y2="132.75" fill="rgb(0, 0, 0)" stroke="rgb(189, 189, 189)" stroke-width="1px" opacity="0.25"></line><line x1="0" y1="118.00000000000001" x2="268.046875" y2="118.00000000000001" fill="rgb(0, 0, 0)" stroke="rgb(189, 189, 189)" stroke-width="1px" opacity="0.25"></line><line x1="0" y1="103.25" x2="268.046875" y2="103.25" fill="rgb(0, 0, 0)" stroke="rgb(189, 189, 189)" stroke-width="1px" opacity="0.25"></line><line x1="0" y1="88.5" x2="268.046875" y2="88.5" fill="rgb(0, 0, 0)" stroke="rgb(189, 189, 189)" stroke-width="1px" opacity="0.25"></line><line x1="0" y1="73.75000000000001" x2="268.046875" y2="73.75000000000001" fill="rgb(0, 0, 0)" stroke="rgb(189, 189, 189)" stroke-width="1px" opacity="0.25"></line><line x1="0" y1="59.00000000000001" x2="268.046875" y2="59.00000000000001" fill="rgb(0, 0, 0)" stroke="rgb(189, 189, 189)" stroke-width="1px" opacity="0.25"></line><line x1="0" y1="44.25" x2="268.046875" y2="44.25" fill="rgb(0, 0, 0)" stroke="rgb(189, 189, 189)" stroke-width="1px" opacity="0.25"></line><line x1="0" y1="29.500000000000032" x2="268.046875" y2="29.500000000000032" fill="rgb(0, 0, 0)" stroke="rgb(189, 189, 189)" stroke-width="1px" opacity="0.25"></line><line x1="0" y1="14.750000000000007" x2="268.046875" y2="14.750000000000007" fill="rgb(0, 0, 0)" stroke="rgb(189, 189, 189)" stroke-width="1px" opacity="0.25"></line><line x1="0" y1="0" x2="268.046875" y2="0" fill="rgb(0, 0, 0)" stroke="rgb(189, 189, 189)" stroke-width="1px" opacity="0.25"></line></g></g></g><g><g><line x1="0" y1="250.74999999999997" x2="268.046875" y2="250.74999999999997" fill="rgb(0, 0, 0)" stroke="rgb(153, 153, 153)" stroke-width="1.5px"></line></g></g><g><g><line x1="24.367897727272727" y1="0" x2="24.367897727272727" y2="177" fill="rgb(0, 0, 0)" stroke="rgb(153, 153, 153)" stroke-width="1.5px"></line></g></g><g><g><g><g><g><path stroke="rgb(255, 112, 67)" stroke-width="2px" d="M35.33345170454545,177.03089170171518L36.551846590909086,167.99590331040517L37.77024147727273,158.86762444852118L38.98863636363636,149.67496401757197L40.20703125,140.43851491635252L41.42542613636363,131.17264796003857L42.64382102272727,121.88722321820144L43.86221590909091,112.58891126444435L45.08061079545455,103.28217210819895L46.29900568181818,93.96995836652373L47.51740056818182,84.65420838529775L48.73579545454545,75.33617676722999L49.95419034090909,66.01669421741379L51.17258522727273,56.69628663181375L52.39098011363637,47.37529132658315L53.609375,38.053923766021406L54.82776988636364,28.732329868057295L56.046164772727266,23.139416865406474L57.26455965909091,19.783754294981232L58.48295454545454,17.770490826157513L59.70134943181818,16.56271816157222L60.91974431818181,15.838292223178897L62.13813920454545,15.403926888286959L63.356534090909086,15.143650599972425L64.57492897727272,14.987880466089575L65.79332386363636,14.894866766473607L67.01171875,14.839559674469147L68.23011363636363,14.806920504357054L69.44850852272728,14.787943628781191L70.6669034090909,14.77721687989614L71.88529829545455,14.771484165400533L73.10369318181817,14.768809413316411L74.32208806818183,14.768030980468737L75.54048295454545,14.768425505901103L76.7588778409091,14.769585348096665L77.97727272727272,14.771248338775406L79.19566761363637,14.773274760339806L80.4140625,14.775571990546272L81.63245738636364,14.778084456048521L82.85085227272727,14.780770021153796L84.06924715909092,14.783620987816688L85.28764204545455,14.786623945524758L86.50603693181819,14.789770847970548L87.72443181818181,14.793048075684467L88.94282670454547,14.796456248669964L90.1612215909091,14.800004530614137L91.37961647727272,14.80368962804408L92.59801136363636,14.807500773191018L93.81640625,14.811449088763974L95.03480113636364,14.815532456703036L96.25319602272727,14.819740814487337L97.4715909090909,14.824085707974547L98.68998579545455,14.828556481309018L99.90838068181819,14.833155532662424L101.12677556818181,14.837893092622936L102.34517045454545,14.842757716173312L103.5635653409091,14.847751327988115L104.78196022727273,14.852883874557406L106.00035511363636,14.858143740404847L107.21875,14.863532747929835L108.43714488636364,14.869069573942111L109.65553977272728,14.87473025778728L110.8739346590909,14.880518006442795L112.09232954545453,14.886434744095109L113.31072443181819,14.892481625256135L114.52911931818181,14.898668134318127L115.74751420454545,14.904982378546205L116.96590909090908,14.911426013984592L118.18430397727273,14.918000034259753L119.40269886363636,14.924705035547614L120.62109375,14.931541375553728L121.83948863636363,14.938509268901417L123.05788352272728,14.945617636049771L124.2762784090909,14.952854245904128L125.49467329545455,14.960220551492592L126.71306818181817,14.967717424632202L127.93146306818183,14.97533659672801L129.14985795454544,14.983099481678412L130.3682528409091,14.990983761081964L131.58664772727272,14.99900241895311L132.80504261363637,15.007154454015472L134.0234375,15.01544805718828L135.24183238636363,15.023861767967754L136.46022727272725,15.032409085107005L137.6786221590909,15.041089316172712L138.89701704545456,15.049893254019802L140.1154119318182,15.058832957731472L141.3338068181818,15.067898079387454L142.55220170454547,15.077099993605689L143.7705965909091,15.0864367334719L144.98899147727272,15.095907118837566L146.20738636363635,15.105501649928401L147.42578125,15.115232210250099L148.64417613636365,15.125088346535806L149.86257102272728,15.135081370195635L151.0809659090909,15.145200484705505L152.29936079545456,15.155448003836009L153.5177556818182,15.16583410753461L154.7361505681818,15.176347320399618L155.95454545454544,15.186989548875037L157.17294034090907,15.19776193682739L158.39133522727275,15.208673962261647L159.60973011363637,15.219713728610522L160.828125,15.23088288961882L162.04651988636363,15.242182437533351L163.26491477272728,15.253612967702269L164.4833096590909,15.265174837334504L165.70170454545453,15.276868260755275L166.92009943181816,15.288693366559817L168.13849431818184,15.300650231905273L169.35688920454547,15.312738903085915L170.5752840909091,15.32495940787826L171.79367897727272,15.337311762948238L173.01207386363637,15.349795978295468L174.23046875,15.36240326823451L175.44886363636363,15.37514594472446L176.66725852272725,15.38801381157039L177.88565340909093,15.401018334425668L179.10404829545456,15.414148809312076L180.3224431818182,15.427416397212903L181.5408380681818,15.440810211347891L182.75923295454544,15.454341303019119L183.9776278409091,15.467998719637624L185.19602272727272,15.481784681335094L186.41441761363635,15.495700520190587L187.6328125,15.509747035451545L188.85120738636365,15.52392470666637L190.06960227272728,15.538242613249249L191.2879971590909,15.552679827793396L192.50639204545453,15.567250168910004L193.7247869318182,15.581961927765848L194.9431818181818,15.596793704005627L196.16157670454544,15.611759032471483L197.3799715909091,15.626857242383666L198.59836647727275,15.642079139589152L199.81676136363637,15.657427999281223L201.03515625,15.672923369946117L202.25355113636363,15.68854181393508L203.47194602272725,15.704286852029112L204.6903409090909,15.720169388381912L205.90873579545456,15.73617838211552L207.1271306818182,15.752316000388253L208.3455255681818,15.768583543495057L209.56392045454547,15.784990583298045L210.7823153409091,15.801516487859136L212.00071022727272,15.818175253070878L213.21910511363635,15.834966484783568L214.4375,15.851889946507503L215.65589488636365,15.868945496348811L216.87428977272728,15.886124257486047L218.0926846590909,15.903438487196539L219.31107954545456,15.92088674816168L220.5294744318182,15.938459386305093L221.7478693181818,15.9561681925512L222.96626420454544,15.974002658084439L224.18465909090907,15.991965269300586L225.40305397727275,16.01005751803709L226.62144886363637,16.028280299396478L227.83984375,16.046634150440205L229.05823863636363,16.06511939340516L230.27663352272728,16.083736221633472L231.4950284090909,16.1024759594453L232.71342329545453,16.121350984802987L233.93181818181816,16.140359932798855L235.15021306818184,16.159493192803087L236.36860795454547,16.178753790122993L237.5870028409091,16.19815233162806L238.80539772727272,16.217677598069745L240.02379261363637,16.237331649583957L241.2421875,16.257115722252383L242.46058238636363,16.277030557723883L243.67897727272725,16.297076600987943L244.89737215909093,16.317254119038168L246.11576704545456,16.337554480385563L247.3341619318182,16.35799008950697L248.5525568181818,16.37855080571834L249.77095170454544,16.399248127979416L250.9893465909091,16.420071372295865L252.20774147727272,16.441031711641227L253.42613636363635,16.46211826642951L254.64453125,16.48333330059409" style="fill: none;" fill="none"></path></g></g></g></g><g opacity="0.2"><g><g><g><path stroke="rgb(255, 112, 67)" stroke-width="2px" d="M32.89666193181818,182.54599717259407L34.11505681818181,173.22399762272835L35.33345170454545,163.90199807286263L36.551846590909086,154.5799985229969L37.77024147727273,145.25799897313118L38.98863636363636,135.93599942326546L40.20703125,126.61399987339973L41.42542613636363,117.29200032353401L42.64382102272727,107.97000077366829L43.86221590909091,98.64800122380257L45.08061079545455,89.32600167393684L46.29900568181818,80.00400212407112L47.51740056818182,70.6820025742054L48.73579545454545,61.359981045126936L49.95419034090909,52.037981495261214L51.17258522727273,42.71598194539549L52.39098011363637,33.39398239552977L53.609375,24.071982845664046L54.82776988636364,14.75000527501109L56.046164772727266,14.750071212649372L57.26455965909091,14.75026902556422L58.48295454545454,14.750598713755634L59.70134943181818,14.751060277223614L60.91974431818181,14.751653715968159L62.13813920454545,14.75237902998927L63.356534090909086,14.753236219286945L64.57492897727272,14.754225283861187L65.79332386363636,14.755346223711994L67.01171875,14.756599038839367L68.23011363636363,14.757961750030537L69.44850852272728,14.759478315711041L70.6669034090909,14.76112675666811L71.88529829545455,14.762885093688977L73.10369318181817,14.764797285199178L74.32208806818183,14.766863331198712L75.54048295454545,14.769017294049275L76.7588778409091,14.771325111389173L77.97727272727272,14.773742824792889L79.19566761363637,14.776314392685917L80.4140625,14.77901783585551L81.63245738636364,14.78185315430167L82.85085227272727,14.784798368811627L84.06924715909092,14.787897437810917L85.28764204545455,14.791128382086773L86.50603693181819,14.794491201639195L87.72443181818181,14.797963917255414L88.94282670454547,14.80156850814822L90.1612215909091,14.805326953530338L91.37961647727272,14.809217274189022L92.59801136363636,14.813217490911503L93.81640625,14.817371562123318L95.03480113636364,14.821657508611699L96.25319602272727,14.826053351163877L97.4715909090909,14.830603048205388L98.68998579545455,14.835262641310718L99.90838068181819,14.840054109692593L101.12677556818181,14.844999432563801L102.34517045454545,14.850054651498807L103.5635653409091,14.8552417457104L104.78196022727273,14.860582694411304L106.00035511363636,14.866033539176007L107.21875,14.871616259217275L108.43714488636364,14.877374812960644L109.65553977272728,14.883221283555043L110.8739346590909,14.88919962942603L112.09232954545453,14.89530985057356L113.31072443181819,14.901551946997655L114.52911931818181,14.907947897911084L115.74751420454545,14.914453744888332L116.96590909090908,14.921091467142125L118.18430397727273,14.927861064672483L119.40269886363636,14.934762537479427L120.62109375,14.941795885562916L121.83948863636363,14.94896110892297L123.05788352272728,14.956280186772359L124.2762784090909,14.963709160685566L125.49467329545455,14.971270009875317L126.71306818181817,14.978962734341634L127.93146306818183,14.98676535487177L129.14985795454544,14.994743809103985L130.3682528409091,15.002810180187252L131.58664772727272,15.011030405759831L132.80504261363637,15.019382506608975L134.0234375,15.027888461947454L135.24183238636363,15.036482334136982L136.46022727272725,15.045230060815824L137.6786221590909,15.054109662771252L138.89701704545456,15.063099160790456L140.1154119318182,15.072242513299015L141.3338068181818,15.08149576187135L142.55220170454547,15.09090286493304L143.7705965909091,15.100441843271275L144.98899147727272,15.110112696886075L146.20738636363635,15.119893446564694L147.42578125,15.129828050732625L148.64417613636365,15.139872550964375L149.86257102272728,15.150070905685437L151.0809659090909,15.160379156470318L152.29936079545456,15.170819282531765L153.5177556818182,15.181413263082524L154.7361505681818,15.192117139697102L155.95454545454544,15.202952891588223L157.17294034090907,15.213920518755932L158.39133522727275,15.225042000412953L159.60973011363637,15.236273378133793L160.828125,15.247636631131199L162.04651988636363,15.259131759405149L163.26491477272728,15.270758762955685L164.4833096590909,15.282517641782787L165.70170454545453,15.294408395886434L166.92009943181816,15.306431025266667L168.13849431818184,15.318585529923466L169.35688920454547,15.330871909856809L170.5752840909091,15.343290165066739L171.79367897727272,15.355840295553234L173.01207386363637,15.368522301316274L174.23046875,15.381314203143132L175.44886363636363,15.394259959459324L176.66725852272725,15.407315611839314L177.88565340909093,15.420525118708637L179.10404829545456,15.433844521641758L180.3224431818182,15.447317779064191L181.5408380681818,15.460900932550443L182.75923295454544,15.474637940526028L183.9776278409091,15.488484844565411L185.19602272727272,15.50246362388136L186.41441761363635,15.516574278473874L187.6328125,15.530816808342953L188.85120738636365,15.545191213488598L190.06960227272728,15.559719473123577L191.2879971590909,15.574335649609585L192.50639204545453,15.589105680584927L193.7247869318182,15.604029566049602L194.9431818181818,15.619041368365307L196.16157670454544,15.634207025170346L197.3799715909091,15.64950455725195L198.59836647727275,15.664911985397351L199.81676136363637,15.68045128881934L201.03515625,15.696166425943387L202.25355113636363,15.711969479918507L203.47194602272725,15.72790440917017L204.6903409090909,15.743993192911168L205.90873579545456,15.760191872715962L207.1271306818182,15.776522427797344L208.3455255681818,15.79298485815527L209.56392045454547,15.80960114300253L210.7823153409091,15.82630534470084L212.00071022727272,15.843163400888463L213.21910511363635,15.86015333235265L214.4375,15.877275139093426L215.65589488636365,15.894528821110745L216.87428977272728,15.911892399191883L218.0926846590909,15.929409831762333L219.31107954545456,15.94705913960935L220.5294744318182,15.964818343520184L221.7478693181818,15.982731401920331L222.96626420454544,16.0007543563843L224.18465909090907,16.018909186124827L225.40305397727275,16.037195891141906L226.62144886363637,16.055614471435568L227.83984375,16.074164927005793L229.05823863636363,16.09284725785257L230.27663352272728,16.111661463975928L231.4950284090909,16.130585566163084L232.71342329545453,16.14966352283957L233.93181818181816,16.16887335479261L235.15021306818184,16.188193082809462L236.36860795454547,16.20764468610288L237.5870028409091,16.227250143885634L238.80539772727272,16.246965497732184L240.02379261363637,16.2668127268553L241.2421875,16.28679183125498L242.46058238636363,16.306902810931227L243.67897727272725,16.32714566588404L244.89737215909093,16.347520396113417L246.11576704545456,16.368005022406592L247.3341619318182,16.3886435031891L248.5525568181818,16.409391880035425L249.77095170454544,16.430294111371065L250.9893465909091,16.451306238770506L252.20774147727272,16.472472220659277L253.42613636363635,16.493748098611846L254.64453125,16.515155851840998" style="fill: none;" fill="none"></path></g></g></g></g></g></g><g transform="translate(61, 177)" clip-path="url(#clip_1)"><clipPath id="clip_1"><rect width="268" height="23"></rect></clipPath><g><g><line x1="0" y1="0" x2="0" y2="5" style="visibility: inherit;" fill="rgb(0, 0, 0)" stroke="rgb(204, 204, 204)" stroke-width="1px"></line><line x1="24.367897727272727" y1="0" x2="24.367897727272727" y2="5" style="visibility: inherit;" fill="rgb(0, 0, 0)" stroke="rgb(204, 204, 204)" stroke-width="1px"></line><line x1="48.73579545454545" y1="0" x2="48.73579545454545" y2="5" style="visibility: inherit;" fill="rgb(0, 0, 0)" stroke="rgb(204, 204, 204)" stroke-width="1px"></line><line x1="73.10369318181817" y1="0" x2="73.10369318181817" y2="5" style="visibility: inherit;" fill="rgb(0, 0, 0)" stroke="rgb(204, 204, 204)" stroke-width="1px"></line><line x1="97.4715909090909" y1="0" x2="97.4715909090909" y2="5" style="visibility: inherit;" fill="rgb(0, 0, 0)" stroke="rgb(204, 204, 204)" stroke-width="1px"></line><line x1="121.83948863636363" y1="0" x2="121.83948863636363" y2="5" style="visibility: inherit;" fill="rgb(0, 0, 0)" stroke="rgb(204, 204, 204)" stroke-width="1px"></line><line x1="146.20738636363635" y1="0" x2="146.20738636363635" y2="5" style="visibility: inherit;" fill="rgb(0, 0, 0)" stroke="rgb(204, 204, 204)" stroke-width="1px"></line><line x1="170.5752840909091" y1="0" x2="170.5752840909091" y2="5" style="visibility: inherit;" fill="rgb(0, 0, 0)" stroke="rgb(204, 204, 204)" stroke-width="1px"></line><line x1="194.9431818181818" y1="0" x2="194.9431818181818" y2="5" style="visibility: inherit;" fill="rgb(0, 0, 0)" stroke="rgb(204, 204, 204)" stroke-width="1px"></line><line x1="219.31107954545456" y1="0" x2="219.31107954545456" y2="5" style="visibility: inherit;" fill="rgb(0, 0, 0)" stroke="rgb(204, 204, 204)" stroke-width="1px"></line><line x1="243.67897727272725" y1="0" x2="243.67897727272725" y2="5" style="visibility: inherit;" fill="rgb(0, 0, 0)" stroke="rgb(204, 204, 204)" stroke-width="1px"></line><line x1="268.046875" y1="0" x2="268.046875" y2="5" style="visibility: inherit;" fill="rgb(0, 0, 0)" stroke="rgb(204, 204, 204)" stroke-width="1px"></line></g><g transform="translate(0, 8)"><text x="0" y="0" dx="0em" dy="0.95em" style="text-anchor: middle; visibility: hidden; font-family: Roboto, sans-serif; font-size: 12px; font-weight: 200;" fill="rgb(255, 255, 255)" stroke="none" stroke-width="1px">-2k</text><text x="24.367897727272727" y="0" dx="0em" dy="0.95em" style="text-anchor: middle; visibility: inherit; font-family: Roboto, sans-serif; font-size: 12px; font-weight: 200;" fill="rgb(255, 255, 255)" stroke="none" stroke-width="1px">0</text><text x="48.73579545454545" y="0" dx="0em" dy="0.95em" style="text-anchor: middle; visibility: hidden; font-family: Roboto, sans-serif; font-size: 12px; font-weight: 200;" fill="rgb(255, 255, 255)" stroke="none" stroke-width="1px">2k</text><text x="73.10369318181817" y="0" dx="0em" dy="0.95em" style="text-anchor: middle; visibility: inherit; font-family: Roboto, sans-serif; font-size: 12px; font-weight: 200;" fill="rgb(255, 255, 255)" stroke="none" stroke-width="1px">4k</text><text x="97.4715909090909" y="0" dx="0em" dy="0.95em" style="text-anchor: middle; visibility: hidden; font-family: Roboto, sans-serif; font-size: 12px; font-weight: 200;" fill="rgb(255, 255, 255)" stroke="none" stroke-width="1px">6k</text><text x="121.83948863636363" y="0" dx="0em" dy="0.95em" style="text-anchor: middle; visibility: inherit; font-family: Roboto, sans-serif; font-size: 12px; font-weight: 200;" fill="rgb(255, 255, 255)" stroke="none" stroke-width="1px">8k</text><text x="146.20738636363635" y="0" dx="0em" dy="0.95em" style="text-anchor: middle; visibility: hidden; font-family: Roboto, sans-serif; font-size: 12px; font-weight: 200;" fill="rgb(255, 255, 255)" stroke="none" stroke-width="1px">10k</text><text x="170.5752840909091" y="0" dx="0em" dy="0.95em" style="text-anchor: middle; visibility: inherit; font-family: Roboto, sans-serif; font-size: 12px; font-weight: 200;" fill="rgb(255, 255, 255)" stroke="none" stroke-width="1px">12k</text><text x="194.9431818181818" y="0" dx="0em" dy="0.95em" style="text-anchor: middle; visibility: hidden; font-family: Roboto, sans-serif; font-size: 12px; font-weight: 200;" fill="rgb(255, 255, 255)" stroke="none" stroke-width="1px">14k</text><text x="219.31107954545456" y="0" dx="0em" dy="0.95em" style="text-anchor: middle; visibility: inherit; font-family: Roboto, sans-serif; font-size: 12px; font-weight: 200;" fill="rgb(255, 255, 255)" stroke="none" stroke-width="1px">16k</text><text x="243.67897727272725" y="0" dx="0em" dy="0.95em" style="text-anchor: middle; visibility: hidden; font-family: Roboto, sans-serif; font-size: 12px; font-weight: 200;" fill="rgb(255, 255, 255)" stroke="none" stroke-width="1px">18k</text><text x="268.046875" y="0" dx="0em" dy="0.95em" style="text-anchor: middle; visibility: hidden; font-family: Roboto, sans-serif; font-size: 12px; font-weight: 200;" fill="rgb(255, 255, 255)" stroke="none" stroke-width="1px">20k</text></g><line x1="0" y1="0" x2="268.046875" y2="0" fill="rgb(0, 0, 0)" stroke="rgb(204, 204, 204)" stroke-width="1px"></line></g></g></g></g></svg>