<svg viewBox="0 0 330 200" xmlns="http://www.w3.org/2000/svg"><g><g><g><g><g><line x1="41.171875" y1="177" x2="36.171875" y2="177" style="visibility: inherit;" fill="rgb(0, 0, 0)" stroke="rgb(204, 204, 204)" stroke-width="1px"></line><line x1="41.171875" y1="162.25" x2="36.171875" y2="162.25" style="visibility: inherit;" fill="rgb(0, 0, 0)" stroke="rgb(204, 204, 204)" stroke-width="1px"></line><line x1="41.171875" y1="147.5" x2="36.171875" y2="147.5" style="visibility: inherit;" fill="rgb(0, 0, 0)" stroke="rgb(204, 204, 204)" stroke-width="1px"></line><line x1="41.171875" y1="132.75" x2="36.171875" y2="132.75" style="visibility: inherit;" fill="rgb(0, 0, 0)" stroke="rgb(204, 204, 204)" stroke-width="1px"></line><line x1="41.171875" y1="118" x2="36.171875" y2="118" style="visibility: inherit;" fill="rgb(0, 0, 0)" stroke="rgb(204, 204, 204)" stroke-width="1px"></line><line x1="41.171875" y1="103.24999999999999" x2="36.171875" y2="103.24999999999999" style="visibility: inherit;" fill="rgb(0, 0, 0)" stroke="rgb(204, 204, 204)" stroke-width="1px"></line><line x1="41.171875" y1="88.5" x2="36.171875" y2="88.5" style="visibility: inherit;" fill="rgb(0, 0, 0)" stroke="rgb(204, 204, 204)" stroke-width="1px"></line><line x1="41.171875" y1="73.75" x2="36.171875" y2="73.75" style="visibility: inherit;" fill="rgb(0, 0, 0)" stroke="rgb(204, 204, 204)" stroke-width="1px"></line><line x1="41.171875" y1="58.999999999999986" x2="36.171875" y2="58.999999999999986" style="visibility: inherit;" fill="rgb(0, 0, 0)" stroke="rgb(204, 204, 204)" stroke-width="1px"></line><line x1="41.171875" y1="44.25" x2="36.171875" y2="44.25" style="visibility: inherit;" fill="rgb(0, 0, 0)" stroke="rgb(204, 204, 204)" stroke-width="1px"></line><line x1="41.171875" y1="29.499999999999993" x2="36.171875" y2="29.499999999999993" style="visibility: inherit;" fill="rgb(0, 0, 0)" stroke="rgb(204, 204, 204)" stroke-width="1px"></line><line x1="41.171875" y1="14.750000000000007" x2="36.171875" y2="14.750000000000007" style="visibility: inherit;" fill="rgb(0, 0, 0)" stroke="rgb(204, 204, 204)" stroke-width="1px"></line><line x1="41.171875" y1="0" x2="36.171875" y2="0" style="visibility: inherit;" fill="rgb(0, 0, 0)" stroke="rgb(204, 204, 204)" stroke-width="1px"></line></g><g transform="translate(31.171875, 0)"><text x="0" y="177" dx="0em" dy="0.3em" style="text-anchor: end; visibility: hidden; font-family: Roboto, sans-serif; font-size: 12px; font-weight: 200;" fill="rgb(255, 255, 255)" stroke="none" stroke-width="1px">0.1</text><text x="0" y="162.25" dx="0em" dy="0.3em" style="text-anchor: end; visibility: inherit; font-family: Roboto, sans-serif; font-size: 12px; font-weight: 200;" fill="rgb(255, 255, 255)" stroke="none" stroke-width="1px">0.2</text><text x="0" y="147.5" dx="0em" dy="0.3em" style="text-anchor: end; visibility: hidden; font-family: Roboto, sans-serif; font-size: 12px; font-weight: 200;" fill="rgb(255, 255, 255)" stroke="none" stroke-width="1px">0.3</text><text x="0" y="132.75" dx="0em" dy="0.3em" style="text-anchor: end; visibility: inherit; font-family: Roboto, sans-serif; font-size: 12px; font-weight: 200;" fill="rgb(255, 255, 255)" stroke="none" stroke-width="1px">0.4</text><text x="0" y="118" dx="0em" dy="0.3em" style="text-anchor: end; visibility: hidden; font-family: Roboto, sans-serif; font-size: 12px; font-weight: 200;" fill="rgb(255, 255, 255)" stroke="none" stroke-width="1px">0.5</text><text x="0" y="103.24999999999999" dx="0em" dy="0.3em" style="text-anchor: end; visibility: inherit; font-family: Roboto, sans-serif; font-size: 12px; font-weight: 200;" fill="rgb(255, 255, 255)" stroke="none" stroke-width="1px">0.6</text><text x="0" y="88.5" dx="0em" dy="0.3em" style="text-anchor: end; visibility: hidden; font-family: Roboto, sans-serif; font-size: 12px; font-weight: 200;" fill="rgb(255, 255, 255)" stroke="none" stroke-width="1px">0.7</text><text x="0" y="73.75" dx="0em" dy="0.3em" style="text-anchor: end; visibility: inherit; font-family: Roboto, sans-serif; font-size: 12px; font-weight: 200;" fill="rgb(255, 255, 255)" stroke="none" stroke-width="1px">0.8</text><text x="0" y="58.999999999999986" dx="0em" dy="0.3em" style="text-anchor: end; visibility: hidden; font-family: Roboto, sans-serif; font-size: 12px; font-weight: 200;" fill="rgb(255, 255, 255)" stroke="none" stroke-width="1px">0.9</text><text x="0" y="44.25" dx="0em" dy="0.3em" style="text-anchor: end; visibility: inherit; font-family: Roboto, sans-serif; font-size: 12px; font-weight: 200;" fill="rgb(255, 255, 255)" stroke="none" stroke-width="1px">1</text><text x="0" y="29.499999999999993" dx="0em" dy="0.3em" style="text-anchor: end; visibility: hidden; font-family: Roboto, sans-serif; font-size: 12px; font-weight: 200;" fill="rgb(255, 255, 255)" stroke="none" stroke-width="1px">1.1</text><text x="0" y="14.750000000000007" dx="0em" dy="0.3em" style="text-anchor: end; visibility: inherit; font-family: Roboto, sans-serif; font-size: 12px; font-weight: 200;" fill="rgb(255, 255, 255)" stroke="none" stroke-width="1px">1.2</text><text x="0" y="0" dx="0em" dy="0.3em" style="text-anchor: end; visibility: hidden; font-family: Roboto, sans-serif; font-size: 12px; font-weight: 200;" fill="rgb(255, 255, 255)" stroke="none" stroke-width="1px">1.3</text></g><line x1="41.171875" y1="0" x2="41.171875" y2="177" fill="rgb(0, 0, 0)" stroke="rgb(204, 204, 204)" stroke-width="1px"></line></g></g><g transform="translate(41, 0)" clip-path="url(#clip_0)"><clipPath id="clip_0"><rect width="288" height="177"></rect></clipPath><g><g><g><line x1="0" y1="0" x2="0" y2="177" fill="rgb(0, 0, 0)" stroke="rgb(189, 189, 189)" stroke-width="1px" opacity="0.25"></line><line x1="26.257102272727273" y1="0" x2="26.257102272727273" y2="177" fill="rgb(0, 0, 0)" stroke="rgb(189, 189, 189)" stroke-width="1px" opacity="0.25"></line><line x1="52.51420454545455" y1="0" x2="52.51420454545455" y2="177" fill="rgb(0, 0, 0)" stroke="rgb(189, 189, 189)" stroke-width="1px" opacity="0.25"></line><line x1="78.77130681818181" y1="0" x2="78.77130681818181" y2="177" fill="rgb(0, 0, 0)" stroke="rgb(189, 189, 189)" stroke-width="1px" opacity="0.25"></line><line x1="105.0284090909091" y1="0" x2="105.0284090909091" y2="177" fill="rgb(0, 0, 0)" stroke="rgb(189, 189, 189)" stroke-width="1px" opacity="0.25"></line><line x1="131.28551136363635" y1="0" x2="131.28551136363635" y2="177" fill="rgb(0, 0, 0)" stroke="rgb(189, 189, 189)" stroke-width="1px" opacity="0.25"></line><line x1="157.54261363636363" y1="0" x2="157.54261363636363" y2="177" fill="rgb(0, 0, 0)" stroke="rgb(189, 189, 189)" stroke-width="1px" opacity="0.25"></line><line x1="183.7997159090909" y1="0" x2="183.7997159090909" y2="177" fill="rgb(0, 0, 0)" stroke="rgb(189, 189, 189)" stroke-width="1px" opacity="0.25"></line><line x1="210.0568181818182" y1="0" x2="210.0568181818182" y2="177" fill="rgb(0, 0, 0)" stroke="rgb(189, 189, 189)" stroke-width="1px" opacity="0.25"></line><line x1="236.31392045454547" y1="0" x2="236.31392045454547" y2="177" fill="rgb(0, 0, 0)" stroke="rgb(189, 189, 189)" stroke-width="1px" opacity="0.25"></line><line x1="262.5710227272727" y1="0" x2="262.5710227272727" y2="177" fill="rgb(0, 0, 0)" stroke="rgb(189, 189, 189)" stroke-width="1px" opacity="0.25"></line><line x1="288.828125" y1="0" x2="288.828125" y2="177" fill="rgb(0, 0, 0)" stroke="rgb(189, 189, 189)" stroke-width="1px" opacity="0.25"></line></g><g><line x1="0" y1="177" x2="288.828125" y2="177" fill="rgb(0, 0, 0)" stroke="rgb(189, 189, 189)" stroke-width="1px" opacity="0.25"></line><line x1="0" y1="162.25" x2="288.828125" y2="162.25" fill="rgb(0, 0, 0)" stroke="rgb(189, 189, 189)" stroke-width="1px" opacity="0.25"></line><line x1="0" y1="147.5" x2="288.828125" y2="147.5" fill="rgb(0, 0, 0)" stroke="rgb(189, 189, 189)" stroke-width="1px" opacity="0.25"></line><line x1="0" y1="132.75" x2="288.828125" y2="132.75" fill="rgb(0, 0, 0)" stroke="rgb(189, 189, 189)" stroke-width="1px" opacity="0.25"></line><line x1="0" y1="118" x2="288.828125" y2="118" fill="rgb(0, 0, 0)" stroke="rgb(189, 189, 189)" stroke-width="1px" opacity="0.25"></line><line x1="0" y1="103.24999999999999" x2="288.828125" y2="103.24999999999999" fill="rgb(0, 0, 0)" stroke="rgb(189, 189, 189)" stroke-width="1px" opacity="0.25"></line><line x1="0" y1="88.5" x2="288.828125" y2="88.5" fill="rgb(0, 0, 0)" stroke="rgb(189, 189, 189)" stroke-width="1px" opacity="0.25"></line><line x1="0" y1="73.75" x2="288.828125" y2="73.75" fill="rgb(0, 0, 0)" stroke="rgb(189, 189, 189)" stroke-width="1px" opacity="0.25"></line><line x1="0" y1="58.999999999999986" x2="288.828125" y2="58.999999999999986" fill="rgb(0, 0, 0)" stroke="rgb(189, 189, 189)" stroke-width="1px" opacity="0.25"></line><line x1="0" y1="44.25" x2="288.828125" y2="44.25" fill="rgb(0, 0, 0)" stroke="rgb(189, 189, 189)" stroke-width="1px" opacity="0.25"></line><line x1="0" y1="29.499999999999993" x2="288.828125" y2="29.499999999999993" fill="rgb(0, 0, 0)" stroke="rgb(189, 189, 189)" stroke-width="1px" opacity="0.25"></line><line x1="0" y1="14.750000000000007" x2="288.828125" y2="14.750000000000007" fill="rgb(0, 0, 0)" stroke="rgb(189, 189, 189)" stroke-width="1px" opacity="0.25"></line><line x1="0" y1="0" x2="288.828125" y2="0" fill="rgb(0, 0, 0)" stroke="rgb(189, 189, 189)" stroke-width="1px" opacity="0.25"></line></g></g></g><g><g><line x1="0" y1="191.75" x2="288.828125" y2="191.75" fill="rgb(0, 0, 0)" stroke="rgb(153, 153, 153)" stroke-width="1.5px"></line></g></g><g><g><line x1="26.257102272727273" y1="0" x2="26.257102272727273" y2="177" fill="rgb(0, 0, 0)" stroke="rgb(153, 153, 153)" stroke-width="1.5px"></line></g></g><g><g><g><g><g><path stroke="rgb(255, 112, 67)" stroke-width="2px" d="M27.569957386363637,33.85321694612503L28.8828125,53.48500582575797L30.195667613636363,82.16840328853958L31.508522727272727,86.83663578451994L32.821377840909086,91.60707302140247L34.13423295454545,100.2957150428831L35.44708806818182,94.70331143112192L36.75994318181818,96.79532641445955L38.07279829545454,95.3414368183425L39.38565340909091,108.31657690711108L40.69850852272727,100.08631815366675L42.01136363636363,103.19470623719985L43.32421875,105.37403948087527L44.63707386363636,105.89434245170351L45.94992897727273,103.31936571958195L47.26278409090909,105.9713755045392L48.57563920454545,107.66655130338384L49.88849431818182,95.32781080112038L51.20134943181818,100.09071088163404L52.51420454545455,105.44102059134033L53.827059659090914,112.12996051530152L55.13991477272727,104.65754459434369L56.45276988636364,109.53134542503129L57.765625,113.32588377199487L59.07848011363637,119.70039025021146L60.39133522727273,89.36788228901058L61.704190340909086,77.89756625978511L63.01704545454545,82.94910176120715L64.32990056818181,86.18593648441501L65.64275568181817,94.61244732086402L66.95561079545455,100.39486241714106L68.2684659090909,101.68162376616787L69.58132102272727,106.07157515349549L70.89417613636364,109.86375544721534L72.20703125,106.95919250176868L73.51988636363636,105.74972674032195L74.83274147727273,118.65784272660277L76.14559659090908,127.2335775044673L77.45845170454545,119.84580303853579L78.77130681818181,113.82123146220863L80.08416193181819,112.2607923481157L81.39701704545455,116.33313254512366L82.7098721590909,122.36047940426464L84.02272727272727,128.44997798890105L85.33558238636364,131.65508316484764L86.6484375,128.90714155732945L87.96129261363637,128.79869564830466L89.27414772727272,125.83374352126141L90.5870028409091,128.29874019547935L91.89985795454545,127.81628863646971L93.21271306818183,116.15968405380787L94.52556818181819,125.4311317573754L95.83842329545455,125.54653865520784L97.1512784090909,128.89012106910477L98.46413352272727,124.96717566641995L99.77698863636364,122.0395927214184L101.08984375,122.80410613319646L102.40269886363636,132.77876533688067L103.71555397727272,129.69749253762313L105.0284090909091,134.82943233116023L106.34126420454545,141.30653678335898L107.65411931818183,140.15947357391207L108.96697443181817,137.36217896684934L110.27982954545455,125.00012536373683L111.5926846590909,127.04584983901351L112.90553977272728,126.88434597799879L114.21839488636364,132.23514979451718L115.53125,130.8417061708559L116.84410511363636,136.24916419042287L118.15696022727273,139.6885647276231L119.4698153409091,140.45858243699004L120.78267045454545,148.97339154240564L122.09552556818181,151.73302005801844L123.40838068181817,152.32548944994357L124.72123579545455,149.66162508633462L126.0340909090909,149.626109378974L127.34694602272728,144.879717586899L128.65980113636363,143.6506691148664L129.97265625,136.54102666799935L131.28551136363635,145.6961098499579L132.59836647727272,144.29284503385324L133.9112215909091,140.7020989795023L135.22407670454547,138.9650700056251L136.5369318181818,140.31379886053182L137.8497869318182,133.00331011165486L139.16264204545453,131.71744505613626L140.4754971590909,138.97847549348822L141.78835227272728,144.44471870797724L143.10120738636365,145.09341571890025L144.4140625,139.2814082870645L145.72691761363635,138.95430646358506L147.03977272727272,143.11953177463158L148.3526278409091,138.3227305854031L149.66548295454547,139.78149845866375L150.9783380681818,140.41647891204366L152.29119318181816,144.37601886392122L153.60404829545456,143.26140340686132L154.9169034090909,140.93452056360417L156.22975852272728,140.09780753917798L157.54261363636363,141.68574262420717L158.85546875,134.2437315032505L160.16832386363637,135.76981206212182L161.48117897727272,136.18487063928686L162.7940340909091,141.13680145671515L164.10688920454547,140.67349871117202L165.4197443181818,139.0027013845344L166.7325994318182,144.44186604780555L168.04545454545453,141.49394964434265L169.3583096590909,147.41135336314176L170.67116477272728,147.93967318150123L171.98401988636363,150.65642585523557L173.296875,149.55664165119907L174.60973011363635,148.84574946344244L175.92258522727275,140.70894148099632L177.2354403409091,145.74591364352827L178.54829545454544,151.40502310031013L179.8611505681818,152.87126777013154L181.1740056818182,153.23159038686762L182.48686079545456,156.9916348556519L183.7997159090909,155.95596495865826L185.11257102272725,154.32135120391277L186.42542613636365,152.0147739789452L187.73828125,153.25697695562636L189.05113636363637,154.6471011480653L190.36399147727272,152.69742220884345L191.6768465909091,148.40533755568137L192.98970170454547,146.82685285417716L194.3025568181818,145.88565070395757L195.6154119318182,148.21088290789777L196.92826704545453,150.38289948450955L198.2411221590909,152.067730105802L199.55397727272728,155.87760825269496L200.86683238636363,155.02543018050835L202.1796875,155.13469937615304L203.49254261363637,157.52323070271436L204.80539772727272,154.83733073534742L206.1182528409091,153.98152048982487L207.43110795454544,154.67754778323953L208.74396306818184,153.3830564561986L210.0568181818182,153.0972506727876L211.36967329545453,155.3015662477077L212.6825284090909,155.94072515938646L213.99538352272728,153.57266484006624L215.30823863636365,154.32178005757558L216.62109375,160.478705657617L217.93394886363635,158.76301803475366L219.24680397727272,159.1792793887004L220.5596590909091,156.6796054850307L221.87251420454547,155.2223001486234L223.1853693181818,152.32625664866998L224.49822443181816,156.70675454197544L225.81107954545456,159.60438127612008L227.1239346590909,162.9546868341859L228.43678977272728,161.69925060794924L229.74964488636363,158.63799657777653L231.0625,153.324932744239L232.37535511363637,150.99393383272542L233.68821022727272,152.5916726446632L235.0010653409091,156.31924308875102L236.31392045454547,160.28387194597065L237.6267755681818,158.0190640552243L238.9396306818182,156.4022752382398L240.25248579545453,159.84954368698837L241.5653409090909,161.3181975402131L242.87819602272728,160.07285354242887L244.19105113636363,158.4648216051231L245.50390625,161.57329741015255L246.81676136363635,160.38624918397795L248.12961647727275,157.93401916585285L249.4424715909091,156.7991020188446L250.75532670454544,154.97208876047821L252.0681818181818,158.74511867543632L253.3810369318182,156.24714017975674L254.69389204545456,156.20496914129464L256.0067471590909,146.12622602189188L257.31960227272725,152.65675696971775L258.6324573863636,154.63233643914916L259.9453125,151.70293108311688L261.2581676136364,154.53131127469177L262.5710227272727,148.51850894160532L263.8838778409091,149.46476217548528L265.19673295454544,152.5846409555702L266.5095880681818,157.76480547824076L267.8224431818182,161.51878270053012L269.1352982954545,160.5436851653048L270.44815340909093,159.29995095864467L271.76100852272725,153.82652070007046L273.0738636363636,153.55781536031554L274.38671875,157.34134037929053" style="fill: none;" fill="none"></path></g><g><path stroke="rgb(0, 119, 187)" stroke-width="2px" d="M26.257102272727273,51.870219439268105L39.38565340909091,-380.6988919787109L157.54261363636363,-17.954748167558762L170.67116477272728,16.55085168812138L183.7997159090909,15.793268867770406L196.92826704545453,27.891692280168378L210.0568181818182,19.181967439870036L223.1853693181818,25.605803971431502L236.31392045454547,26.165409972129563L249.4424715909091,14.862440648349756L262.5710227272727,14.570144212338793L275.6995738636364,32.05959291557852" style="fill: none;" fill="none"></path></g></g></g></g><g opacity="0.2"><g><g><g><path stroke="rgb(255, 112, 67)" stroke-width="2px" d="M27.569957386363637,33.85321694612503L28.8828125,65.26407915353775L30.195667613636363,109.7044648528099L31.508522727272727,92.32647719979286L32.821377840909086,97.83535587787628L34.13423295454545,112.31523486971855L35.44708806818182,86.70608478784561L36.75994318181818,99.84550434350967L38.07279829545454,93.19723206758498L39.38565340909091,127.58314776420593L40.69850852272727,87.81557786464691L42.01136363636363,107.8403726518154L43.32421875,108.63592344522475L44.63707386363636,106.67377758026122L45.94992897727273,99.45992740988731L47.26278409090909,109.94751977920532L48.57563920454545,110.2085976600647L49.88849431818182,76.82283285260199L51.20134943181818,107.23433542251587L52.51420454545455,113.46599611639977L53.827059659090914,122.1630035638809L55.13991477272727,93.44916659593581L56.45276988636364,116.84195044636726L57.765625,119.01764634251593L59.07848011363637,129.2621046602726L60.39133522727273,43.86924970149994L61.704190340909086,60.69212156534194L63.01704545454545,90.52639725804329L64.32990056818181,91.04118558764458L65.64275568181817,107.25220891833304L66.95561079545455,109.06848314404488L68.2684659090909,103.61176553368567L69.58132102272727,112.65650171041489L70.89417613636364,115.55202561616898L72.20703125,102.60234820842743L73.51988636363636,103.93552812933922L74.83274147727273,138.02001650631428L76.14559659090908,140.09717959165573L77.45845170454545,108.7641413807869L78.77130681818181,104.78437411785124L80.08416193181819,109.92013368010521L81.39701704545455,122.44164283573626L82.7098721590909,131.40149968862534L84.02272727272727,137.5842258632183L85.33558238636364,136.46274092793465L86.6484375,124.78522914648056L87.96129261363637,128.63602678477764L89.27414772727272,121.386315330863L90.5870028409091,131.9962352067232L91.89985795454545,127.09261129796505L93.21271306818183,98.67477717995642L94.52556818181819,139.33830331265926L95.83842329545455,125.71964900195599L97.1512784090909,133.9054946899414L98.46413352272727,119.08275756239891L99.77698863636364,117.64821830391884L101.08984375,123.95087625086306L102.40269886363636,147.7407541424036L103.71555397727272,125.07558333873749L105.0284090909091,142.5273420214653L106.34126420454545,151.02219346165657L107.65411931818183,138.43887875974178L108.96697443181817,133.16623705625534L110.27982954545455,106.4570449590683L111.5926846590909,130.11443655192852L112.90553977272728,126.64209018647671L114.21839488636364,140.26135551929474L115.53125,128.75154073536396L116.84410511363636,144.3603512197733L118.15696022727273,144.84766553342342L119.4698153409091,141.61360900104046L120.78267045454545,161.7456052005291L122.09552556818181,155.8724628314376L123.40838068181817,153.2141935378313L124.72123579545455,145.6658285409212L126.0340909090909,149.57283581793308L127.34694602272728,137.76012989878654L128.65980113636363,141.80709640681744L129.97265625,125.87656299769878L131.28551136363635,159.42873462289572L132.59836647727272,142.1879478096962L133.9112215909091,135.31597989797592L135.22407670454547,136.35952654480934L136.5369318181818,142.33689214289188L137.8497869318182,122.03757698833941L139.16264204545453,129.78864747285843L140.4754971590909,149.8700211495161L141.78835227272728,152.64408352971077L143.10120738636365,146.0664612352848L144.4140625,130.56339713931084L145.72691761363635,138.4636537283659L147.03977272727272,149.3673697412014L148.3526278409091,131.1275288015604L149.66548295454547,141.9696502685547L150.9783380681818,141.3689495921135L152.29119318181816,150.31532879173756L153.60404829545456,141.58948022127151L154.9169034090909,137.44419629871845L156.22975852272728,138.84273800253868L157.54261363636363,144.06764525175095L158.85546875,123.08071482181549L160.16832386363637,138.05893290042877L161.48117897727272,136.80745850503445L162.7940340909091,148.5646976828575L164.10688920454547,139.97854459285736L165.4197443181818,136.49650539457798L166.7325994318182,152.6006130427122L168.04545454545453,137.07207503914833L169.3583096590909,156.28745894134045L170.67116477272728,148.73215290904045L171.98401988636363,154.7315548658371L173.296875,147.90696534514427L174.60973011363635,147.77941118180752L175.92258522727275,128.50372950732708L177.2354403409091,153.30137188732624L178.54829545454544,159.89368728548288L179.8611505681818,155.07063477486372L181.1740056818182,153.77207431197166L182.48686079545456,162.63170155882835L183.7997159090909,154.40246011316776L185.11257102272725,151.8694305717945L186.42542613636365,148.5549081414938L187.73828125,155.1202814206481L189.05113636363637,156.7322874367237L190.36399147727272,149.77290380001068L191.6768465909091,141.96721057593822L192.98970170454547,144.4591258019209L194.3025568181818,144.47384747862816L195.6154119318182,151.69873121380806L196.92826704545453,153.64092434942722L198.2411221590909,154.5949760377407L199.55397727272728,161.59242547303438L200.86683238636363,153.74716307222843L202.1796875,155.29860316962004L203.49254261363637,161.10602769255638L204.80539772727272,150.808480784297L206.1182528409091,152.69780512154102L207.43110795454544,155.7215887233615L208.74396306818184,151.4413194656372L210.0568181818182,152.66854199767113L211.36967329545453,158.60803961008787L212.6825284090909,156.89946352690458L213.99538352272728,150.0205743610859L215.30823863636365,155.4454528838396L216.62109375,169.71409405767918L217.93394886363635,156.18948660045862L219.24680397727272,159.8036714196205L220.5596590909091,152.93009462952614L221.87251420454547,153.03634214401245L223.1853693181818,147.98219139873981L224.49822443181816,163.2775013819337L225.81107954545456,163.95082137733698L227.1239346590909,167.98014517128468L228.43678977272728,159.81609626859426L229.74964488636363,154.04611553251743L231.0625,145.35533699393272L232.37535511363637,147.49743546545506L233.68821022727272,154.9882808625698L235.0010653409091,161.9105987548828L236.31392045454547,166.23081523180008L237.6267755681818,154.62185221910477L238.9396306818182,153.97709201276302L240.25248579545453,165.02044636011124L241.5653409090909,163.52117832005024L242.87819602272728,158.20483754575253L244.19105113636363,156.0527736991644L245.50390625,166.23601111769676L246.81676136363635,158.60567684471607L248.12961647727275,154.2556741386652L249.4424715909091,155.09672629833221L250.75532670454544,152.23156887292862L252.0681818181818,164.4046635478735L253.3810369318182,152.50017243623734L254.69389204545456,156.14171258360147L256.0067471590909,131.00811134278774L257.31960227272725,162.4525533914566L258.6324573863636,157.59570564329624L259.9453125,147.30882304906845L261.2581676136364,158.77388156205416L262.5710227272727,139.4993054419756L263.8838778409091,150.8841420263052L265.19673295454544,157.2644591256976L266.5095880681818,165.5350522622466L267.8224431818182,167.14974853396416L269.1352982954545,159.0810388624668L270.44815340909093,157.43434964865446L271.76100852272725,145.61637531220913L273.0738636363636,153.1547573506832L274.38671875,163.016627907753" style="fill: none;" fill="none"></path></g><g><path stroke="rgb(0, 119, 187)" stroke-width="2px" d="M26.257102272727273,51.870219439268105L39.38565340909091,-640.2403588294983L91.89985795454545,-132.85054874420166L105.0284090909091,2.119840562343604L118.15696022727273,-0.8246178627014291L131.28551136363635,75.18416824936867L144.4140625,-102.9502387046814L157.54261363636363,23.205659866333008L170.67116477272728,68.12147352099419L183.7997159090909,14.659368276596082L196.92826704545453,46.015625327825546L210.0568181818182,6.127618134021772L223.1853693181818,35.23702818155288L236.31392045454547,27.004582166671767L249.4424715909091,-2.089143514633192L262.5710227272727,14.131744086742401L275.6995738636364,58.29216736555098" style="fill: none;" fill="none"></path></g></g></g></g></g></g><g transform="translate(41, 177)" clip-path="url(#clip_1)"><clipPath id="clip_1"><rect width="288" height="23"></rect></clipPath><g><g><line x1="0" y1="0" x2="0" y2="5" style="visibility: inherit;" fill="rgb(0, 0, 0)" stroke="rgb(204, 204, 204)" stroke-width="1px"></line><line x1="26.257102272727273" y1="0" x2="26.257102272727273" y2="5" style="visibility: inherit;" fill="rgb(0, 0, 0)" stroke="rgb(204, 204, 204)" stroke-width="1px"></line><line x1="52.51420454545455" y1="0" x2="52.51420454545455" y2="5" style="visibility: inherit;" fill="rgb(0, 0, 0)" stroke="rgb(204, 204, 204)" stroke-width="1px"></line><line x1="78.77130681818181" y1="0" x2="78.77130681818181" y2="5" style="visibility: inherit;" fill="rgb(0, 0, 0)" stroke="rgb(204, 204, 204)" stroke-width="1px"></line><line x1="105.0284090909091" y1="0" x2="105.0284090909091" y2="5" style="visibility: inherit;" fill="rgb(0, 0, 0)" stroke="rgb(204, 204, 204)" stroke-width="1px"></line><line x1="131.28551136363635" y1="0" x2="131.28551136363635" y2="5" style="visibility: inherit;" fill="rgb(0, 0, 0)" stroke="rgb(204, 204, 204)" stroke-width="1px"></line><line x1="157.54261363636363" y1="0" x2="157.54261363636363" y2="5" style="visibility: inherit;" fill="rgb(0, 0, 0)" stroke="rgb(204, 204, 204)" stroke-width="1px"></line><line x1="183.7997159090909" y1="0" x2="183.7997159090909" y2="5" style="visibility: inherit;" fill="rgb(0, 0, 0)" stroke="rgb(204, 204, 204)" stroke-width="1px"></line><line x1="210.0568181818182" y1="0" x2="210.0568181818182" y2="5" style="visibility: inherit;" fill="rgb(0, 0, 0)" stroke="rgb(204, 204, 204)" stroke-width="1px"></line><line x1="236.31392045454547" y1="0" x2="236.31392045454547" y2="5" style="visibility: inherit;" fill="rgb(0, 0, 0)" stroke="rgb(204, 204, 204)" stroke-width="1px"></line><line x1="262.5710227272727" y1="0" x2="262.5710227272727" y2="5" style="visibility: inherit;" fill="rgb(0, 0, 0)" stroke="rgb(204, 204, 204)" stroke-width="1px"></line><line x1="288.828125" y1="0" x2="288.828125" y2="5" style="visibility: inherit;" fill="rgb(0, 0, 0)" stroke="rgb(204, 204, 204)" stroke-width="1px"></line></g><g transform="translate(0, 8)"><text x="0" y="0" dx="0em" dy="0.95em" style="text-anchor: middle; visibility: hidden; font-family: Roboto, sans-serif; font-size: 12px; font-weight: 200;" fill="rgb(255, 255, 255)" stroke="none" stroke-width="1px">-2k</text><text x="26.257102272727273" y="0" dx="0em" dy="0.95em" style="text-anchor: middle; visibility: inherit; font-family: Roboto, sans-serif; font-size: 12px; font-weight: 200;" fill="rgb(255, 255, 255)" stroke="none" stroke-width="1px">0</text><text x="52.51420454545455" y="0" dx="0em" dy="0.95em" style="text-anchor: middle; visibility: inherit; font-family: Roboto, sans-serif; font-size: 12px; font-weight: 200;" fill="rgb(255, 255, 255)" stroke="none" stroke-width="1px">2k</text><text x="78.77130681818181" y="0" dx="0em" dy="0.95em" style="text-anchor: middle; visibility: inherit; font-family: Roboto, sans-serif; font-size: 12px; font-weight: 200;" fill="rgb(255, 255, 255)" stroke="none" stroke-width="1px">4k</text><text x="105.0284090909091" y="0" dx="0em" dy="0.95em" style="text-anchor: middle; visibility: inherit; font-family: Roboto, sans-serif; font-size: 12px; font-weight: 200;" fill="rgb(255, 255, 255)" stroke="none" stroke-width="1px">6k</text><text x="131.28551136363635" y="0" dx="0em" dy="0.95em" style="text-anchor: middle; visibility: inherit; font-family: Roboto, sans-serif; font-size: 12px; font-weight: 200;" fill="rgb(255, 255, 255)" stroke="none" stroke-width="1px">8k</text><text x="157.54261363636363" y="0" dx="0em" dy="0.95em" style="text-anchor: middle; visibility: inherit; font-family: Roboto, sans-serif; font-size: 12px; font-weight: 200;" fill="rgb(255, 255, 255)" stroke="none" stroke-width="1px">10k</text><text x="183.7997159090909" y="0" dx="0em" dy="0.95em" style="text-anchor: middle; visibility: inherit; font-family: Roboto, sans-serif; font-size: 12px; font-weight: 200;" fill="rgb(255, 255, 255)" stroke="none" stroke-width="1px">12k</text><text x="210.0568181818182" y="0" dx="0em" dy="0.95em" style="text-anchor: middle; visibility: inherit; font-family: Roboto, sans-serif; font-size: 12px; font-weight: 200;" fill="rgb(255, 255, 255)" stroke="none" stroke-width="1px">14k</text><text x="236.31392045454547" y="0" dx="0em" dy="0.95em" style="text-anchor: middle; visibility: inherit; font-family: Roboto, sans-serif; font-size: 12px; font-weight: 200;" fill="rgb(255, 255, 255)" stroke="none" stroke-width="1px">16k</text><text x="262.5710227272727" y="0" dx="0em" dy="0.95em" style="text-anchor: middle; visibility: inherit; font-family: Roboto, sans-serif; font-size: 12px; font-weight: 200;" fill="rgb(255, 255, 255)" stroke="none" stroke-width="1px">18k</text><text x="288.828125" y="0" dx="0em" dy="0.95em" style="text-anchor: middle; visibility: hidden; font-family: Roboto, sans-serif; font-size: 12px; font-weight: 200;" fill="rgb(255, 255, 255)" stroke="none" stroke-width="1px">20k</text></g><line x1="0" y1="0" x2="288.828125" y2="0" fill="rgb(0, 0, 0)" stroke="rgb(204, 204, 204)" stroke-width="1px"></line></g></g></g></g></svg>