<svg viewBox="0 0 330 200" xmlns="http://www.w3.org/2000/svg"><g><g><g><g><g><line x1="61.953125" y1="177" x2="56.953125" y2="177" style="visibility: inherit;" fill="rgb(0, 0, 0)" stroke="rgb(204, 204, 204)" stroke-width="1px"></line><line x1="61.953125" y1="164.35714285714286" x2="56.953125" y2="164.35714285714286" style="visibility: inherit;" fill="rgb(0, 0, 0)" stroke="rgb(204, 204, 204)" stroke-width="1px"></line><line x1="61.953125" y1="151.71428571428572" x2="56.953125" y2="151.71428571428572" style="visibility: inherit;" fill="rgb(0, 0, 0)" stroke="rgb(204, 204, 204)" stroke-width="1px"></line><line x1="61.953125" y1="139.07142857142858" x2="56.953125" y2="139.07142857142858" style="visibility: inherit;" fill="rgb(0, 0, 0)" stroke="rgb(204, 204, 204)" stroke-width="1px"></line><line x1="61.953125" y1="126.42857142857143" x2="56.953125" y2="126.42857142857143" style="visibility: inherit;" fill="rgb(0, 0, 0)" stroke="rgb(204, 204, 204)" stroke-width="1px"></line><line x1="61.953125" y1="113.78571428571429" x2="56.953125" y2="113.78571428571429" style="visibility: inherit;" fill="rgb(0, 0, 0)" stroke="rgb(204, 204, 204)" stroke-width="1px"></line><line x1="61.953125" y1="101.14285714285718" x2="56.953125" y2="101.14285714285718" style="visibility: inherit;" fill="rgb(0, 0, 0)" stroke="rgb(204, 204, 204)" stroke-width="1px"></line><line x1="61.953125" y1="88.5" x2="56.953125" y2="88.5" style="visibility: inherit;" fill="rgb(0, 0, 0)" stroke="rgb(204, 204, 204)" stroke-width="1px"></line><line x1="61.953125" y1="75.85714285714286" x2="56.953125" y2="75.85714285714286" style="visibility: inherit;" fill="rgb(0, 0, 0)" stroke="rgb(204, 204, 204)" stroke-width="1px"></line><line x1="61.953125" y1="63.21428571428572" x2="56.953125" y2="63.21428571428572" style="visibility: inherit;" fill="rgb(0, 0, 0)" stroke="rgb(204, 204, 204)" stroke-width="1px"></line><line x1="61.953125" y1="50.571428571428605" x2="56.953125" y2="50.571428571428605" style="visibility: inherit;" fill="rgb(0, 0, 0)" stroke="rgb(204, 204, 204)" stroke-width="1px"></line><line x1="61.953125" y1="37.92857142857145" x2="56.953125" y2="37.92857142857145" style="visibility: inherit;" fill="rgb(0, 0, 0)" stroke="rgb(204, 204, 204)" stroke-width="1px"></line><line x1="61.953125" y1="25.285714285714313" x2="56.953125" y2="25.285714285714313" style="visibility: inherit;" fill="rgb(0, 0, 0)" stroke="rgb(204, 204, 204)" stroke-width="1px"></line><line x1="61.953125" y1="12.642857142857157" x2="56.953125" y2="12.642857142857157" style="visibility: inherit;" fill="rgb(0, 0, 0)" stroke="rgb(204, 204, 204)" stroke-width="1px"></line><line x1="61.953125" y1="0" x2="56.953125" y2="0" style="visibility: inherit;" fill="rgb(0, 0, 0)" stroke="rgb(204, 204, 204)" stroke-width="1px"></line></g><g transform="translate(51.953125, 0)"><text x="0" y="177" dx="0em" dy="0.3em" style="text-anchor: end; visibility: hidden; font-family: Roboto, sans-serif; font-size: 12px; font-weight: 200;" fill="rgb(255, 255, 255)" stroke="none" stroke-width="1px">3e-3</text><text x="0" y="164.35714285714286" dx="0em" dy="0.3em" style="text-anchor: end; visibility: inherit; font-family: Roboto, sans-serif; font-size: 12px; font-weight: 200;" fill="rgb(255, 255, 255)" stroke="none" stroke-width="1px">4e-3</text><text x="0" y="151.71428571428572" dx="0em" dy="0.3em" style="text-anchor: end; visibility: hidden; font-family: Roboto, sans-serif; font-size: 12px; font-weight: 200;" fill="rgb(255, 255, 255)" stroke="none" stroke-width="1px">5e-3</text><text x="0" y="139.07142857142858" dx="0em" dy="0.3em" style="text-anchor: end; visibility: inherit; font-family: Roboto, sans-serif; font-size: 12px; font-weight: 200;" fill="rgb(255, 255, 255)" stroke="none" stroke-width="1px">6e-3</text><text x="0" y="126.42857142857143" dx="0em" dy="0.3em" style="text-anchor: end; visibility: hidden; font-family: Roboto, sans-serif; font-size: 12px; font-weight: 200;" fill="rgb(255, 255, 255)" stroke="none" stroke-width="1px">7e-3</text><text x="0" y="113.78571428571429" dx="0em" dy="0.3em" style="text-anchor: end; visibility: inherit; font-family: Roboto, sans-serif; font-size: 12px; font-weight: 200;" fill="rgb(255, 255, 255)" stroke="none" stroke-width="1px">8e-3</text><text x="0" y="101.14285714285718" dx="0em" dy="0.3em" style="text-anchor: end; visibility: hidden; font-family: Roboto, sans-serif; font-size: 12px; font-weight: 200;" fill="rgb(255, 255, 255)" stroke="none" stroke-width="1px">9e-3</text><text x="0" y="88.5" dx="0em" dy="0.3em" style="text-anchor: end; visibility: inherit; font-family: Roboto, sans-serif; font-size: 12px; font-weight: 200;" fill="rgb(255, 255, 255)" stroke="none" stroke-width="1px">0.01</text><text x="0" y="75.85714285714286" dx="0em" dy="0.3em" style="text-anchor: end; visibility: hidden; font-family: Roboto, sans-serif; font-size: 12px; font-weight: 200;" fill="rgb(255, 255, 255)" stroke="none" stroke-width="1px">0.011</text><text x="0" y="63.21428571428572" dx="0em" dy="0.3em" style="text-anchor: end; visibility: inherit; font-family: Roboto, sans-serif; font-size: 12px; font-weight: 200;" fill="rgb(255, 255, 255)" stroke="none" stroke-width="1px">0.012</text><text x="0" y="50.571428571428605" dx="0em" dy="0.3em" style="text-anchor: end; visibility: hidden; font-family: Roboto, sans-serif; font-size: 12px; font-weight: 200;" fill="rgb(255, 255, 255)" stroke="none" stroke-width="1px">0.013</text><text x="0" y="37.92857142857145" dx="0em" dy="0.3em" style="text-anchor: end; visibility: inherit; font-family: Roboto, sans-serif; font-size: 12px; font-weight: 200;" fill="rgb(255, 255, 255)" stroke="none" stroke-width="1px">0.014</text><text x="0" y="25.285714285714313" dx="0em" dy="0.3em" style="text-anchor: end; visibility: hidden; font-family: Roboto, sans-serif; font-size: 12px; font-weight: 200;" fill="rgb(255, 255, 255)" stroke="none" stroke-width="1px">0.015</text><text x="0" y="12.642857142857157" dx="0em" dy="0.3em" style="text-anchor: end; visibility: inherit; font-family: Roboto, sans-serif; font-size: 12px; font-weight: 200;" fill="rgb(255, 255, 255)" stroke="none" stroke-width="1px">0.016</text><text x="0" y="0" dx="0em" dy="0.3em" style="text-anchor: end; visibility: hidden; font-family: Roboto, sans-serif; font-size: 12px; font-weight: 200;" fill="rgb(255, 255, 255)" stroke="none" stroke-width="1px">0.017</text></g><line x1="61.953125" y1="0" x2="61.953125" y2="177" fill="rgb(0, 0, 0)" stroke="rgb(204, 204, 204)" stroke-width="1px"></line></g></g><g transform="translate(61, 0)" clip-path="url(#clip_0)"><clipPath id="clip_0"><rect width="268" height="177"></rect></clipPath><g><g><g><line x1="0" y1="0" x2="0" y2="177" fill="rgb(0, 0, 0)" stroke="rgb(189, 189, 189)" stroke-width="1px" opacity="0.25"></line><line x1="24.367897727272727" y1="0" x2="24.367897727272727" y2="177" fill="rgb(0, 0, 0)" stroke="rgb(189, 189, 189)" stroke-width="1px" opacity="0.25"></line><line x1="48.73579545454545" y1="0" x2="48.73579545454545" y2="177" fill="rgb(0, 0, 0)" stroke="rgb(189, 189, 189)" stroke-width="1px" opacity="0.25"></line><line x1="73.10369318181817" y1="0" x2="73.10369318181817" y2="177" fill="rgb(0, 0, 0)" stroke="rgb(189, 189, 189)" stroke-width="1px" opacity="0.25"></line><line x1="97.4715909090909" y1="0" x2="97.4715909090909" y2="177" fill="rgb(0, 0, 0)" stroke="rgb(189, 189, 189)" stroke-width="1px" opacity="0.25"></line><line x1="121.83948863636363" y1="0" x2="121.83948863636363" y2="177" fill="rgb(0, 0, 0)" stroke="rgb(189, 189, 189)" stroke-width="1px" opacity="0.25"></line><line x1="146.20738636363635" y1="0" x2="146.20738636363635" y2="177" fill="rgb(0, 0, 0)" stroke="rgb(189, 189, 189)" stroke-width="1px" opacity="0.25"></line><line x1="170.5752840909091" y1="0" x2="170.5752840909091" y2="177" fill="rgb(0, 0, 0)" stroke="rgb(189, 189, 189)" stroke-width="1px" opacity="0.25"></line><line x1="194.9431818181818" y1="0" x2="194.9431818181818" y2="177" fill="rgb(0, 0, 0)" stroke="rgb(189, 189, 189)" stroke-width="1px" opacity="0.25"></line><line x1="219.31107954545456" y1="0" x2="219.31107954545456" y2="177" fill="rgb(0, 0, 0)" stroke="rgb(189, 189, 189)" stroke-width="1px" opacity="0.25"></line><line x1="243.67897727272725" y1="0" x2="243.67897727272725" y2="177" fill="rgb(0, 0, 0)" stroke="rgb(189, 189, 189)" stroke-width="1px" opacity="0.25"></line><line x1="268.046875" y1="0" x2="268.046875" y2="177" fill="rgb(0, 0, 0)" stroke="rgb(189, 189, 189)" stroke-width="1px" opacity="0.25"></line></g><g><line x1="0" y1="177" x2="268.046875" y2="177" fill="rgb(0, 0, 0)" stroke="rgb(189, 189, 189)" stroke-width="1px" opacity="0.25"></line><line x1="0" y1="164.35714285714286" x2="268.046875" y2="164.35714285714286" fill="rgb(0, 0, 0)" stroke="rgb(189, 189, 189)" stroke-width="1px" opacity="0.25"></line><line x1="0" y1="151.71428571428572" x2="268.046875" y2="151.71428571428572" fill="rgb(0, 0, 0)" stroke="rgb(189, 189, 189)" stroke-width="1px" opacity="0.25"></line><line x1="0" y1="139.07142857142858" x2="268.046875" y2="139.07142857142858" fill="rgb(0, 0, 0)" stroke="rgb(189, 189, 189)" stroke-width="1px" opacity="0.25"></line><line x1="0" y1="126.42857142857143" x2="268.046875" y2="126.42857142857143" fill="rgb(0, 0, 0)" stroke="rgb(189, 189, 189)" stroke-width="1px" opacity="0.25"></line><line x1="0" y1="113.78571428571429" x2="268.046875" y2="113.78571428571429" fill="rgb(0, 0, 0)" stroke="rgb(189, 189, 189)" stroke-width="1px" opacity="0.25"></line><line x1="0" y1="101.14285714285718" x2="268.046875" y2="101.14285714285718" fill="rgb(0, 0, 0)" stroke="rgb(189, 189, 189)" stroke-width="1px" opacity="0.25"></line><line x1="0" y1="88.5" x2="268.046875" y2="88.5" fill="rgb(0, 0, 0)" stroke="rgb(189, 189, 189)" stroke-width="1px" opacity="0.25"></line><line x1="0" y1="75.85714285714286" x2="268.046875" y2="75.85714285714286" fill="rgb(0, 0, 0)" stroke="rgb(189, 189, 189)" stroke-width="1px" opacity="0.25"></line><line x1="0" y1="63.21428571428572" x2="268.046875" y2="63.21428571428572" fill="rgb(0, 0, 0)" stroke="rgb(189, 189, 189)" stroke-width="1px" opacity="0.25"></line><line x1="0" y1="50.571428571428605" x2="268.046875" y2="50.571428571428605" fill="rgb(0, 0, 0)" stroke="rgb(189, 189, 189)" stroke-width="1px" opacity="0.25"></line><line x1="0" y1="37.92857142857145" x2="268.046875" y2="37.92857142857145" fill="rgb(0, 0, 0)" stroke="rgb(189, 189, 189)" stroke-width="1px" opacity="0.25"></line><line x1="0" y1="25.285714285714313" x2="268.046875" y2="25.285714285714313" fill="rgb(0, 0, 0)" stroke="rgb(189, 189, 189)" stroke-width="1px" opacity="0.25"></line><line x1="0" y1="12.642857142857157" x2="268.046875" y2="12.642857142857157" fill="rgb(0, 0, 0)" stroke="rgb(189, 189, 189)" stroke-width="1px" opacity="0.25"></line><line x1="0" y1="0" x2="268.046875" y2="0" fill="rgb(0, 0, 0)" stroke="rgb(189, 189, 189)" stroke-width="1px" opacity="0.25"></line></g></g></g><g><g><line x1="0" y1="214.92857142857142" x2="268.046875" y2="214.92857142857142" fill="rgb(0, 0, 0)" stroke="rgb(153, 153, 153)" stroke-width="1.5px"></line></g></g><g><g><line x1="24.367897727272727" y1="0" x2="24.367897727272727" y2="177" fill="rgb(0, 0, 0)" stroke="rgb(153, 153, 153)" stroke-width="1.5px"></line></g></g><g><g><g><g><g><path stroke="rgb(255, 112, 67)" stroke-width="2px" d="M29.24147727272727,-30.13403491580959L30.459872159090907,1.6737522762928307L31.678267045454543,34.461574377517174L32.89666193181818,52.31069121822548L34.11505681818181,55.004239263020445L35.33345170454545,44.14498379673527L36.551846590909086,50.420202063676946L37.77024147727273,50.05660832528618L38.98863636363636,58.38226039103574L40.20703125,54.62389719707514L41.42542613636363,49.614224655729636L42.64382102272727,58.08245996858043L43.86221590909091,69.51646665055206L45.08061079545455,64.1183766340474L46.29900568181818,47.32821206693917L47.51740056818182,35.15459086761563L48.73579545454545,68.24964101523327L49.95419034090909,84.69739941595769L51.17258522727273,36.67040214153804L52.39098011363637,65.24524620124853L53.609375,77.69247085554451L54.82776988636364,85.57911043645363L56.046164772727266,5.6228510924344155L57.26455965909091,-13.259440546545136L58.48295454545454,5.750017711362592L59.70134943181818,12.009132884967324L60.91974431818181,15.81020110993917L62.13813920454545,34.074324959897815L63.356534090909086,18.558838551711975L64.57492897727272,32.151720303613175L65.79332386363636,35.22354384612507L67.01171875,61.54886896541157L68.23011363636363,69.28635239080839L69.44850852272728,90.75087868184931L70.6669034090909,110.03744234256004L71.88529829545455,111.68775110338618L73.10369318181817,104.7426288792988L74.32208806818183,28.41063006559912L75.54048295454545,58.686561846937465L76.7588778409091,87.786830281306L77.97727272727272,108.80108184875132L79.19566761363637,109.79462596045975L80.4140625,119.00318763259803L81.63245738636364,98.7486485164814L82.85085227272727,105.07341748128489L84.06924715909092,105.74522739973386L85.28764204545455,106.4588654976179L86.50603693181819,100.64196275927608L87.72443181818181,119.87408669303284L88.94282670454547,128.4241771281536L90.1612215909091,135.06091113381086L91.37961647727272,113.12548930426266L92.59801136363636,83.3004291614001L93.81640625,89.39794725389054L95.03480113636364,118.85596026233696L96.25319602272727,91.43404618140664L97.4715909090909,99.18069861800049L98.68998579545455,111.15398726158435L99.90838068181819,130.40443757244694L101.12677556818181,113.34846877113496L102.34517045454545,111.47702812990002L103.5635653409091,113.97106692195638L104.78196022727273,98.37531222020293L106.00035511363636,124.48042118106822L107.21875,97.77279383721674L108.43714488636364,115.32560094007772L109.65553977272728,115.22611503806492L110.8739346590909,111.76509636367857L112.09232954545453,133.2317520445615L113.31072443181819,145.32207394210107L114.52911931818181,144.34522224055723L115.74751420454545,139.49886628068683L116.96590909090908,145.74957165508644L118.18430397727273,142.82430824571358L119.40269886363636,141.52655959685748L120.62109375,136.3780794686894L121.83948863636363,146.42095481351225L123.05788352272728,134.98389719253478L124.2762784090909,119.70477490129633L125.49467329545455,122.73912507350354L126.71306818181817,131.7349064855795L127.93146306818183,118.46899998710113L129.14985795454544,118.78508183630781L130.3682528409091,139.91151007155847L131.58664772727272,138.3563467938831L132.80504261363637,122.28833309117312L134.0234375,103.39457615645742L135.24183238636363,109.41825388235631L136.46022727272725,124.81524095389628L137.6786221590909,136.46403789513766L138.89701704545456,135.07565888109312L140.1154119318182,147.97609687013076L141.3338068181818,144.64138680569917L142.55220170454547,129.12395013239396L143.7705965909091,127.28087621070648L144.98899147727272,46.627029038296385L146.20738636363635,51.26515110073634L147.42578125,61.537348459803226L148.64417613636365,98.8202225625091L149.86257102272728,111.9094669921442L151.0809659090909,121.16296390729471L152.29936079545456,119.04338504119538L153.5177556818182,117.87180170391863L154.7361505681818,138.91416992248088L155.95454545454544,121.39146259981135L157.17294034090907,129.9294732054678L158.39133522727275,136.53949358066706L159.60973011363637,130.34864155863482L160.828125,118.56627409535078L162.04651988636363,111.57555018867085L163.26491477272728,91.03035715693679L164.4833096590909,112.07555643709314L165.70170454545453,139.65857105335397L166.92009943181816,133.67811522944965L168.13849431818184,134.0852905383701L169.35688920454547,141.1531027681867L170.5752840909091,141.09955666951348L171.79367897727272,140.8203512600014L173.01207386363637,141.36442465172618L174.23046875,144.99013377554064L175.44886363636363,145.1844793920329L176.66725852272725,155.4493037588024L177.88565340909093,161.74579845538196L179.10404829545456,137.46101556160042L180.3224431818182,133.29634147707134L181.5408380681818,132.1350655345104L182.75923295454544,139.65898318016846L183.9776278409091,141.40960004742251L185.19602272727272,159.1079545346389L186.41441761363635,162.38149783785792L187.6328125,149.66795499127215L188.85120738636365,153.8018087493588L190.06960227272728,134.43702382960888L191.2879971590909,137.33364808491962L192.50639204545453,126.64530027212815L193.7247869318182,124.13783441791773L194.9431818181818,140.01317169989338L196.16157670454544,134.68220969881443L197.3799715909091,145.88367325561032L198.59836647727275,130.42367385687783L199.81676136363637,144.45229395088253L201.03515625,158.8174483807997L202.25355113636363,148.62608001625804L203.47194602272725,153.40204448250694L204.6903409090909,152.28032001223679L205.90873579545456,137.8331576040307L207.1271306818182,142.5902908145865L208.3455255681818,146.9283748348599L209.56392045454547,154.0042980430196L210.7823153409091,165.1937175739445L212.00071022727272,173.3533981844503L213.21910511363635,168.10473740214135L214.4375,164.10596743230153L215.65589488636365,165.93924951651599L216.87428977272728,161.95716242827888L218.0926846590909,156.04192322715298L219.31107954545456,156.518204231087L220.5294744318182,159.93600358713232L221.7478693181818,160.44406744330266L222.96626420454544,167.25554123849653L224.18465909090907,166.31224679122386L225.40305397727275,145.5658063053575L226.62144886363637,143.68449329204992L227.83984375,160.49527042232322L229.05823863636363,155.84652197561653L230.27663352272728,160.3808980991065L231.4950284090909,160.74072083111182L232.71342329545453,161.14170848572172L233.93181818181816,161.17865268265132L235.15021306818184,150.48186249136876L236.36860795454547,153.31020219875205L237.5870028409091,121.13814972598196L238.80539772727272,147.42188293657082L240.02379261363637,147.74248324692218L241.2421875,116.79457390778387L242.46058238636363,135.33569597394285L243.67897727272725,111.85257116627449L244.89737215909093,120.72460749485859L246.11576704545456,133.34496403734292L247.3341619318182,147.3670270082698L248.5525568181818,163.7532626834739L249.77095170454544,153.12151355588523L250.9893465909091,147.63216769742849L252.20774147727272,134.42083290992903L253.42613636363635,152.16901684777108L254.64453125,154.89732030381745" style="fill: none;" fill="none"></path></g><g><path stroke="rgb(0, 119, 187)" stroke-width="2px" d="M24.367897727272727,-8.116534617330323L36.551846590909086,33.25348291153621L48.73579545454545,65.5795775369983L60.91974431818181,78.74572401534488L73.10369318181817,88.99952750151942L85.28764204545455,97.07895345926092L97.4715909090909,105.17207224027791L109.65553977272728,110.88426185027983L121.83948863636363,115.93447161287185L134.0234375,116.7922856396085L146.20738636363635,119.42027794857098L158.39133522727275,118.76925141478064L170.5752840909091,119.71669679614095L182.75923295454544,117.23098529225769L194.9431818181818,110.37117381263691L207.1271306818182,112.7984869963397L219.31107954545456,114.2468454003794L231.4950284090909,115.22085412354988L243.67897727272725,116.62660770906437L255.86292613636365,116.03534267587307" style="fill: none;" fill="none"></path></g></g></g></g><g opacity="0.2"><g><g><g><path stroke="rgb(255, 112, 67)" stroke-width="2px" d="M26.8046875,-60.72419639570369L28.023082386363633,35.708316163825145L29.24147727272727,-51.05015579504623L30.459872159090907,43.20199923430171L31.678267045454543,79.81893595946687L32.89666193181818,77.83521388630783L34.11505681818181,58.93145817039269L35.33345170454545,28.12969128574645L36.551846590909086,59.73816985104766L37.77024147727273,49.51451548614674L38.98863636363636,70.82543065877898L40.20703125,48.9986241140536L41.42542613636363,42.10953031373876L42.64382102272727,70.77485884513175L43.86221590909091,86.65941252612643L45.08061079545455,56.02352590007442L46.29900568181818,22.147228237241528L47.51740056818182,16.89601359729257L48.73579545454545,117.8891912179866L49.95419034090909,109.36813498288393L51.17258522727273,-35.368513421288554L52.39098011363637,108.10694813036494L53.609375,96.36316038774594L54.82776988636364,97.40901375295861L56.046164772727266,-114.31119694667198L57.26455965909091,-41.58282969040527L58.48295454545454,34.264175914227984L59.70134943181818,21.397799879844715L60.91974431818181,21.511801346604315L62.13813920454545,61.47050467825362L63.356534090909086,-4.714387973504379L64.57492897727272,52.54104130874788L65.79332386363636,39.83127893986448L67.01171875,101.03685551296388L68.23011363636363,80.89257732938444L69.44850852272728,122.94766778631936L70.6669034090909,138.96728765458934L71.88529829545455,114.16321423543351L73.10369318181817,94.32494556637748L74.32208806818183,-86.08736800189526L75.54048295454545,104.10045948252082L76.7588778409091,131.43723291185287L77.97727272727272,140.32245919081782L79.19566761363637,111.28494212776423L80.4140625,132.81603013936964L81.63245738636364,68.3668398442013L82.85085227272727,114.56057092813509L84.06924715909092,106.75294227738466L85.28764204545455,107.52932264442956L86.50603693181819,91.91660865183388L87.72443181818181,148.72227259352803L88.94282670454547,141.24931278079748L90.1612215909091,145.01601214227932L91.37961647727272,80.22235655997481L92.59801136363636,38.56283894713437L93.81640625,98.54422439262271L95.03480113636364,163.04297977499664L96.25319602272727,50.301175060016774L97.4715909090909,110.80067727289031L98.68998579545455,129.11392022695927L99.90838068181819,159.28011303873998L101.12677556818181,87.76451556916749L102.34517045454545,108.6698671680476L103.5635653409091,117.71212511004083L104.78196022727273,74.98168016757285L106.00035511363636,163.6380846223661L107.21875,57.711352821439505L108.43714488636364,141.65481159436916L109.65553977272728,115.07688618504577L110.8739346590909,106.57356835209899L112.09232954545453,165.4317355658859L113.31072443181819,163.45755678841044L114.52911931818181,142.8799446882414L115.74751420454545,132.22933234088123L116.96590909090908,155.12562971668584L118.18430397727273,138.43641313165426L119.40269886363636,139.5799366235733L120.62109375,128.65535927643734L121.83948863636363,161.48526783074652L123.05788352272728,117.82831076106856L124.2762784090909,96.78609146443861L125.49467329545455,127.29065033181439L126.71306818181817,145.22857860369342L127.93146306818183,98.5701402393835L129.14985795454544,119.25920461011785L130.3682528409091,171.60115242443447L131.58664772727272,136.02360187737006L132.80504261363637,98.18631253710817L134.0234375,75.0539407543838L135.24183238636363,118.45377047120462L136.46022727272725,147.91072156120626L137.6786221590909,153.9372333069997L138.89701704545456,132.9930903600263L140.1154119318182,167.32675385368722L141.3338068181818,139.63932170905173L142.55220170454547,105.84779512243612L143.7705965909091,124.51626532817525L144.98899147727272,-74.35374172031875L146.20738636363635,58.222334194396225L147.42578125,76.94564449840358L148.64417613636365,154.74453371656793L149.86257102272728,131.5433336365968L151.0809659090909,135.04320928002045L152.29936079545456,115.8640167420464L153.5177556818182,116.11442669800351L154.7361505681818,170.4777222503243L155.95454545454544,95.10740161580699L157.17294034090907,142.73648911395244L158.39133522727275,146.45452414346593L159.60973011363637,121.06236352558648L160.828125,100.8927229004247L162.04651988636363,101.08946432865093L163.26491477272728,60.21256760933569L164.4833096590909,143.64335535732764L165.70170454545453,181.03309297774518L166.92009943181816,124.70743149359312L168.13849431818184,134.69605350175075L169.35688920454547,151.7548211129116L170.5752840909091,141.01923752150367L171.79367897727272,140.40154314573323L173.01207386363637,142.1805347393134L174.23046875,150.42869746126235L175.44886363636363,145.47599781677127L176.66725852272725,170.8465403089566L177.88565340909093,171.19054050025133L179.10404829545456,101.0338412209281L180.3224431818182,127.04933035027769L181.5408380681818,130.39315162066904L182.75923295454544,150.94485964865555L183.9776278409091,144.0355253483036L185.19602272727272,185.65548626546348L186.41441761363635,167.2918127926865L187.6328125,130.5976407213935L188.85120738636365,160.0025893864887L190.06960227272728,105.38984644998398L191.2879971590909,141.67858446788577L192.50639204545453,110.61277855294092L193.7247869318182,120.37663563660215L194.9431818181818,163.82617762285685L196.16157670454544,126.68576669719603L197.3799715909091,162.6858685908041L198.59836647727275,107.23367475877916L199.81676136363637,165.4952240918896L201.03515625,180.36518002567547L202.25355113636363,133.33902746944557L203.47194602272725,160.56599118188024L204.6903409090909,150.59773330683154L205.90873579545456,116.16241399172162L207.1271306818182,149.7259906304202L208.3455255681818,153.43550086527L209.56392045454547,164.61818285525908L210.7823153409091,181.9778468703319L212.00071022727272,185.592919100209L213.21910511363635,160.2317462286779L214.4375,158.10781247754184L215.65589488636365,168.68917264283766L216.87428977272728,155.98403179592322L218.0926846590909,147.1690644254642L219.31107954545456,157.232625736988L220.5294744318182,165.06270262120026L221.7478693181818,161.20616322755814L222.96626420454544,177.47275193128735L224.18465909090907,164.89730512031485L225.40305397727275,114.44614557655795L226.62144886363637,140.86252377208857L227.83984375,185.71143611773317L229.05823863636363,148.87339930555652L230.27663352272728,167.18246228434145L231.4950284090909,161.28045492911977L232.71342329545453,161.74318996763657L233.93181818181816,161.23406897804568L235.15021306818184,134.436677204445L236.36860795454547,157.55271175982696L237.5870028409091,72.8800710168268L238.80539772727272,186.84748275245406L240.02379261363637,148.22338371244925L241.2421875,70.3727098990764L242.46058238636363,163.14737907318133L243.67897727272725,76.62788395477193L244.89737215909093,134.0326619877347L246.11576704545456,152.2754988510694L247.3341619318182,168.40012146466015L248.5525568181818,188.33261619628007L249.77095170454544,137.17388986450223L250.9893465909091,139.39814890974336L252.20774147727272,114.6038307286799L253.42613636363635,178.7912927545341L254.64453125,158.98977548788702" style="fill: none;" fill="none"></path></g><g><path stroke="rgb(0, 119, 187)" stroke-width="2px" d="M24.367897727272727,-8.116534617330323L36.551846590909086,58.075493428856134L48.73579545454545,96.61262837744187L60.91974431818181,94.22911227388042L73.10369318181817,102.38689333306893L85.28764204545455,108.25570815216219L97.4715909090909,116.74536158703268L109.65553977272728,119.21268913868283L121.83948863636363,123.38255005995077L134.0234375,118.0660394962345L146.20738636363635,123.33843071519266L158.39133522727275,117.79625447174269L170.5752840909091,121.13477129462575L182.75923295454544,113.50728780403733L194.9431818181818,100.08952004409264L207.1271306818182,116.43774484257614L219.31107954545456,116.41877010970245L231.4950284090909,116.68161990759629L243.67897727272725,118.73502393492632L255.86292613636365,115.14849917005216" style="fill: none;" fill="none"></path></g></g></g></g></g></g><g transform="translate(61, 177)" clip-path="url(#clip_1)"><clipPath id="clip_1"><rect width="268" height="23"></rect></clipPath><g><g><line x1="0" y1="0" x2="0" y2="5" style="visibility: inherit;" fill="rgb(0, 0, 0)" stroke="rgb(204, 204, 204)" stroke-width="1px"></line><line x1="24.367897727272727" y1="0" x2="24.367897727272727" y2="5" style="visibility: inherit;" fill="rgb(0, 0, 0)" stroke="rgb(204, 204, 204)" stroke-width="1px"></line><line x1="48.73579545454545" y1="0" x2="48.73579545454545" y2="5" style="visibility: inherit;" fill="rgb(0, 0, 0)" stroke="rgb(204, 204, 204)" stroke-width="1px"></line><line x1="73.10369318181817" y1="0" x2="73.10369318181817" y2="5" style="visibility: inherit;" fill="rgb(0, 0, 0)" stroke="rgb(204, 204, 204)" stroke-width="1px"></line><line x1="97.4715909090909" y1="0" x2="97.4715909090909" y2="5" style="visibility: inherit;" fill="rgb(0, 0, 0)" stroke="rgb(204, 204, 204)" stroke-width="1px"></line><line x1="121.83948863636363" y1="0" x2="121.83948863636363" y2="5" style="visibility: inherit;" fill="rgb(0, 0, 0)" stroke="rgb(204, 204, 204)" stroke-width="1px"></line><line x1="146.20738636363635" y1="0" x2="146.20738636363635" y2="5" style="visibility: inherit;" fill="rgb(0, 0, 0)" stroke="rgb(204, 204, 204)" stroke-width="1px"></line><line x1="170.5752840909091" y1="0" x2="170.5752840909091" y2="5" style="visibility: inherit;" fill="rgb(0, 0, 0)" stroke="rgb(204, 204, 204)" stroke-width="1px"></line><line x1="194.9431818181818" y1="0" x2="194.9431818181818" y2="5" style="visibility: inherit;" fill="rgb(0, 0, 0)" stroke="rgb(204, 204, 204)" stroke-width="1px"></line><line x1="219.31107954545456" y1="0" x2="219.31107954545456" y2="5" style="visibility: inherit;" fill="rgb(0, 0, 0)" stroke="rgb(204, 204, 204)" stroke-width="1px"></line><line x1="243.67897727272725" y1="0" x2="243.67897727272725" y2="5" style="visibility: inherit;" fill="rgb(0, 0, 0)" stroke="rgb(204, 204, 204)" stroke-width="1px"></line><line x1="268.046875" y1="0" x2="268.046875" y2="5" style="visibility: inherit;" fill="rgb(0, 0, 0)" stroke="rgb(204, 204, 204)" stroke-width="1px"></line></g><g transform="translate(0, 8)"><text x="0" y="0" dx="0em" dy="0.95em" style="text-anchor: middle; visibility: hidden; font-family: Roboto, sans-serif; font-size: 12px; font-weight: 200;" fill="rgb(255, 255, 255)" stroke="none" stroke-width="1px">-2k</text><text x="24.367897727272727" y="0" dx="0em" dy="0.95em" style="text-anchor: middle; visibility: inherit; font-family: Roboto, sans-serif; font-size: 12px; font-weight: 200;" fill="rgb(255, 255, 255)" stroke="none" stroke-width="1px">0</text><text x="48.73579545454545" y="0" dx="0em" dy="0.95em" style="text-anchor: middle; visibility: hidden; font-family: Roboto, sans-serif; font-size: 12px; font-weight: 200;" fill="rgb(255, 255, 255)" stroke="none" stroke-width="1px">2k</text><text x="73.10369318181817" y="0" dx="0em" dy="0.95em" style="text-anchor: middle; visibility: inherit; font-family: Roboto, sans-serif; font-size: 12px; font-weight: 200;" fill="rgb(255, 255, 255)" stroke="none" stroke-width="1px">4k</text><text x="97.4715909090909" y="0" dx="0em" dy="0.95em" style="text-anchor: middle; visibility: hidden; font-family: Roboto, sans-serif; font-size: 12px; font-weight: 200;" fill="rgb(255, 255, 255)" stroke="none" stroke-width="1px">6k</text><text x="121.83948863636363" y="0" dx="0em" dy="0.95em" style="text-anchor: middle; visibility: inherit; font-family: Roboto, sans-serif; font-size: 12px; font-weight: 200;" fill="rgb(255, 255, 255)" stroke="none" stroke-width="1px">8k</text><text x="146.20738636363635" y="0" dx="0em" dy="0.95em" style="text-anchor: middle; visibility: hidden; font-family: Roboto, sans-serif; font-size: 12px; font-weight: 200;" fill="rgb(255, 255, 255)" stroke="none" stroke-width="1px">10k</text><text x="170.5752840909091" y="0" dx="0em" dy="0.95em" style="text-anchor: middle; visibility: inherit; font-family: Roboto, sans-serif; font-size: 12px; font-weight: 200;" fill="rgb(255, 255, 255)" stroke="none" stroke-width="1px">12k</text><text x="194.9431818181818" y="0" dx="0em" dy="0.95em" style="text-anchor: middle; visibility: hidden; font-family: Roboto, sans-serif; font-size: 12px; font-weight: 200;" fill="rgb(255, 255, 255)" stroke="none" stroke-width="1px">14k</text><text x="219.31107954545456" y="0" dx="0em" dy="0.95em" style="text-anchor: middle; visibility: inherit; font-family: Roboto, sans-serif; font-size: 12px; font-weight: 200;" fill="rgb(255, 255, 255)" stroke="none" stroke-width="1px">16k</text><text x="243.67897727272725" y="0" dx="0em" dy="0.95em" style="text-anchor: middle; visibility: hidden; font-family: Roboto, sans-serif; font-size: 12px; font-weight: 200;" fill="rgb(255, 255, 255)" stroke="none" stroke-width="1px">18k</text><text x="268.046875" y="0" dx="0em" dy="0.95em" style="text-anchor: middle; visibility: hidden; font-family: Roboto, sans-serif; font-size: 12px; font-weight: 200;" fill="rgb(255, 255, 255)" stroke="none" stroke-width="1px">20k</text></g><line x1="0" y1="0" x2="268.046875" y2="0" fill="rgb(0, 0, 0)" stroke="rgb(204, 204, 204)" stroke-width="1px"></line></g></g></g></g></svg>