<svg viewBox="0 0 330 200" xmlns="http://www.w3.org/2000/svg"><g><g><g><g><g><line x1="61.953125" y1="177" x2="56.953125" y2="177" style="visibility: inherit;" fill="rgb(0, 0, 0)" stroke="rgb(204, 204, 204)" stroke-width="1px"></line><line x1="61.953125" y1="154.87500000000003" x2="56.953125" y2="154.87500000000003" style="visibility: inherit;" fill="rgb(0, 0, 0)" stroke="rgb(204, 204, 204)" stroke-width="1px"></line><line x1="61.953125" y1="132.75" x2="56.953125" y2="132.75" style="visibility: inherit;" fill="rgb(0, 0, 0)" stroke="rgb(204, 204, 204)" stroke-width="1px"></line><line x1="61.953125" y1="110.625" x2="56.953125" y2="110.625" style="visibility: inherit;" fill="rgb(0, 0, 0)" stroke="rgb(204, 204, 204)" stroke-width="1px"></line><line x1="61.953125" y1="88.50000000000001" x2="56.953125" y2="88.50000000000001" style="visibility: inherit;" fill="rgb(0, 0, 0)" stroke="rgb(204, 204, 204)" stroke-width="1px"></line><line x1="61.953125" y1="66.375" x2="56.953125" y2="66.375" style="visibility: inherit;" fill="rgb(0, 0, 0)" stroke="rgb(204, 204, 204)" stroke-width="1px"></line><line x1="61.953125" y1="44.25" x2="56.953125" y2="44.25" style="visibility: inherit;" fill="rgb(0, 0, 0)" stroke="rgb(204, 204, 204)" stroke-width="1px"></line><line x1="61.953125" y1="22.12500000000002" x2="56.953125" y2="22.12500000000002" style="visibility: inherit;" fill="rgb(0, 0, 0)" stroke="rgb(204, 204, 204)" stroke-width="1px"></line><line x1="61.953125" y1="0" x2="56.953125" y2="0" style="visibility: inherit;" fill="rgb(0, 0, 0)" stroke="rgb(204, 204, 204)" stroke-width="1px"></line></g><g transform="translate(51.953125, 0)"><text x="0" y="177" dx="0em" dy="0.3em" style="text-anchor: end; visibility: hidden; font-family: Roboto, sans-serif; font-size: 12px; font-weight: 200;" fill="rgb(255, 255, 255)" stroke="none" stroke-width="1px">0.025</text><text x="0" y="154.87500000000003" dx="0em" dy="0.3em" style="text-anchor: end; visibility: inherit; font-family: Roboto, sans-serif; font-size: 12px; font-weight: 200;" fill="rgb(255, 255, 255)" stroke="none" stroke-width="1px">0.03</text><text x="0" y="132.75" dx="0em" dy="0.3em" style="text-anchor: end; visibility: hidden; font-family: Roboto, sans-serif; font-size: 12px; font-weight: 200;" fill="rgb(255, 255, 255)" stroke="none" stroke-width="1px">0.035</text><text x="0" y="110.625" dx="0em" dy="0.3em" style="text-anchor: end; visibility: inherit; font-family: Roboto, sans-serif; font-size: 12px; font-weight: 200;" fill="rgb(255, 255, 255)" stroke="none" stroke-width="1px">0.04</text><text x="0" y="88.50000000000001" dx="0em" dy="0.3em" style="text-anchor: end; visibility: hidden; font-family: Roboto, sans-serif; font-size: 12px; font-weight: 200;" fill="rgb(255, 255, 255)" stroke="none" stroke-width="1px">0.045</text><text x="0" y="66.375" dx="0em" dy="0.3em" style="text-anchor: end; visibility: inherit; font-family: Roboto, sans-serif; font-size: 12px; font-weight: 200;" fill="rgb(255, 255, 255)" stroke="none" stroke-width="1px">0.05</text><text x="0" y="44.25" dx="0em" dy="0.3em" style="text-anchor: end; visibility: hidden; font-family: Roboto, sans-serif; font-size: 12px; font-weight: 200;" fill="rgb(255, 255, 255)" stroke="none" stroke-width="1px">0.055</text><text x="0" y="22.12500000000002" dx="0em" dy="0.3em" style="text-anchor: end; visibility: inherit; font-family: Roboto, sans-serif; font-size: 12px; font-weight: 200;" fill="rgb(255, 255, 255)" stroke="none" stroke-width="1px">0.06</text><text x="0" y="0" dx="0em" dy="0.3em" style="text-anchor: end; visibility: hidden; font-family: Roboto, sans-serif; font-size: 12px; font-weight: 200;" fill="rgb(255, 255, 255)" stroke="none" stroke-width="1px">0.065</text></g><line x1="61.953125" y1="0" x2="61.953125" y2="177" fill="rgb(0, 0, 0)" stroke="rgb(204, 204, 204)" stroke-width="1px"></line></g></g><g transform="translate(61, 0)" clip-path="url(#clip_0)"><clipPath id="clip_0"><rect width="268" height="177"></rect></clipPath><g><g><g><line x1="0" y1="0" x2="0" y2="177" fill="rgb(0, 0, 0)" stroke="rgb(189, 189, 189)" stroke-width="1px" opacity="0.25"></line><line x1="24.367897727272727" y1="0" x2="24.367897727272727" y2="177" fill="rgb(0, 0, 0)" stroke="rgb(189, 189, 189)" stroke-width="1px" opacity="0.25"></line><line x1="48.73579545454545" y1="0" x2="48.73579545454545" y2="177" fill="rgb(0, 0, 0)" stroke="rgb(189, 189, 189)" stroke-width="1px" opacity="0.25"></line><line x1="73.10369318181817" y1="0" x2="73.10369318181817" y2="177" fill="rgb(0, 0, 0)" stroke="rgb(189, 189, 189)" stroke-width="1px" opacity="0.25"></line><line x1="97.4715909090909" y1="0" x2="97.4715909090909" y2="177" fill="rgb(0, 0, 0)" stroke="rgb(189, 189, 189)" stroke-width="1px" opacity="0.25"></line><line x1="121.83948863636363" y1="0" x2="121.83948863636363" y2="177" fill="rgb(0, 0, 0)" stroke="rgb(189, 189, 189)" stroke-width="1px" opacity="0.25"></line><line x1="146.20738636363635" y1="0" x2="146.20738636363635" y2="177" fill="rgb(0, 0, 0)" stroke="rgb(189, 189, 189)" stroke-width="1px" opacity="0.25"></line><line x1="170.5752840909091" y1="0" x2="170.5752840909091" y2="177" fill="rgb(0, 0, 0)" stroke="rgb(189, 189, 189)" stroke-width="1px" opacity="0.25"></line><line x1="194.9431818181818" y1="0" x2="194.9431818181818" y2="177" fill="rgb(0, 0, 0)" stroke="rgb(189, 189, 189)" stroke-width="1px" opacity="0.25"></line><line x1="219.31107954545456" y1="0" x2="219.31107954545456" y2="177" fill="rgb(0, 0, 0)" stroke="rgb(189, 189, 189)" stroke-width="1px" opacity="0.25"></line><line x1="243.67897727272725" y1="0" x2="243.67897727272725" y2="177" fill="rgb(0, 0, 0)" stroke="rgb(189, 189, 189)" stroke-width="1px" opacity="0.25"></line><line x1="268.046875" y1="0" x2="268.046875" y2="177" fill="rgb(0, 0, 0)" stroke="rgb(189, 189, 189)" stroke-width="1px" opacity="0.25"></line></g><g><line x1="0" y1="177" x2="268.046875" y2="177" fill="rgb(0, 0, 0)" stroke="rgb(189, 189, 189)" stroke-width="1px" opacity="0.25"></line><line x1="0" y1="154.87500000000003" x2="268.046875" y2="154.87500000000003" fill="rgb(0, 0, 0)" stroke="rgb(189, 189, 189)" stroke-width="1px" opacity="0.25"></line><line x1="0" y1="132.75" x2="268.046875" y2="132.75" fill="rgb(0, 0, 0)" stroke="rgb(189, 189, 189)" stroke-width="1px" opacity="0.25"></line><line x1="0" y1="110.625" x2="268.046875" y2="110.625" fill="rgb(0, 0, 0)" stroke="rgb(189, 189, 189)" stroke-width="1px" opacity="0.25"></line><line x1="0" y1="88.50000000000001" x2="268.046875" y2="88.50000000000001" fill="rgb(0, 0, 0)" stroke="rgb(189, 189, 189)" stroke-width="1px" opacity="0.25"></line><line x1="0" y1="66.375" x2="268.046875" y2="66.375" fill="rgb(0, 0, 0)" stroke="rgb(189, 189, 189)" stroke-width="1px" opacity="0.25"></line><line x1="0" y1="44.25" x2="268.046875" y2="44.25" fill="rgb(0, 0, 0)" stroke="rgb(189, 189, 189)" stroke-width="1px" opacity="0.25"></line><line x1="0" y1="22.12500000000002" x2="268.046875" y2="22.12500000000002" fill="rgb(0, 0, 0)" stroke="rgb(189, 189, 189)" stroke-width="1px" opacity="0.25"></line><line x1="0" y1="0" x2="268.046875" y2="0" fill="rgb(0, 0, 0)" stroke="rgb(189, 189, 189)" stroke-width="1px" opacity="0.25"></line></g></g></g><g><g><line x1="0" y1="287.625" x2="268.046875" y2="287.625" fill="rgb(0, 0, 0)" stroke="rgb(153, 153, 153)" stroke-width="1.5px"></line></g></g><g><g><line x1="24.367897727272727" y1="0" x2="24.367897727272727" y2="177" fill="rgb(0, 0, 0)" stroke="rgb(153, 153, 153)" stroke-width="1.5px"></line></g></g><g><g><g><g><g><path stroke="rgb(255, 112, 67)" stroke-width="2px" d="M25.586292613636363,162.21398574113846L26.8046875,162.17499496112578L28.023082386363633,162.10994724967347L29.24147727272727,162.00217228997775L30.459872159090907,161.81501260965592L31.678267045454543,161.5423281965222L32.89666193181818,161.17949052876637L34.11505681818181,160.68708594313927L35.33345170454545,160.0746830435941L36.551846590909086,159.46542341049616L37.77024147727273,158.79719101642237L38.98863636363636,158.0886013618166L40.20703125,157.41611364752478L41.42542613636363,156.63644378208332L42.64382102272727,155.70788248547848L43.86221590909091,154.82413946038082L45.08061079545455,153.82634433485833L46.29900568181818,152.79829968791367L47.51740056818182,151.59396989187076L48.73579545454545,150.39621542540448L49.95419034090909,149.1992950274941L51.17258522727273,147.7178488519593L52.39098011363637,146.33826865909566L53.609375,145.00867377324136L54.82776988636364,143.69818834082164L56.046164772727266,140.3118288903132L57.26455965909091,137.8330252095679L58.48295454545454,136.2443918187774L59.70134943181818,135.16700563367044L60.91974431818181,134.31387282248198L62.13813920454545,133.53747779165474L63.356534090909086,132.7658220483738L64.57492897727272,131.9336042247504L65.79332386363636,131.0718011604567L67.01171875,130.13538232605129L68.23011363636363,129.25865902837114L69.44850852272728,128.2999356766973L70.6669034090909,127.37726965832441L71.88529829545455,126.38846185456596L73.10369318181817,125.40807708013662L74.32208806818183,124.3582959354958L75.54048295454545,123.27397845222272L76.7588778409091,121.99604408426171L77.97727272727272,120.937990759029L79.19566761363637,120.02932634595368L80.4140625,119.16221355428854L81.63245738636364,118.14164404883476L82.85085227272727,117.17797342128077L84.06924715909092,116.2961941581042L85.28764204545455,115.49204796081557L86.50603693181819,114.60260632649096L87.72443181818181,113.68044996866335L88.94282670454547,112.78837516223483L90.1612215909091,111.89227995911203L91.37961647727272,110.97874533020772L92.59801136363636,110.1577350430683L93.81640625,109.26509181308704L95.03480113636364,108.40145293711385L96.25319602272727,107.57936963044853L97.4715909090909,106.84981893213539L98.68998579545455,105.97734188265771L99.90838068181819,105.02704791413046L101.12677556818181,104.12706465385135L102.34517045454545,103.22618481583461L103.5635653409091,102.24090754280725L104.78196022727273,101.14143451923273L106.00035511363636,100.15797052606428L107.21875,99.14025357708026L108.43714488636364,98.08621257152967L109.65553977272728,97.12187108461148L110.8739346590909,96.21117787101322L112.09232954545453,95.40633255713253L113.31072443181819,94.52657969279925L114.52911931818181,93.63883375068808L115.74751420454545,92.80791068488543L116.96590909090908,92.03005819716564L118.18430397727273,91.1087198761017L119.40269886363636,90.22841122787659L120.62109375,89.45720627928651L121.83948863636363,88.6722592593722L123.05788352272728,87.80684550145224L124.2762784090909,86.96176640712594L125.49467329545455,86.06564072831496L126.71306818181817,85.23118660488144L127.93146306818183,84.54805149816522L129.14985795454544,83.7622863333407L130.3682528409091,83.02145879453317L131.58664772727272,82.29356889567313L132.80504261363637,81.60157717103684L134.0234375,80.89025620272709L135.24183238636363,79.95852637529943L136.46022727272725,79.12581431115017L137.6786221590909,78.05076249089446L138.89701704545456,77.1740595066345L140.1154119318182,76.2721865841029L141.3338068181818,75.32093072046506L142.55220170454547,74.48351879930298L143.7705965909091,73.51512332568052L144.98899147727272,72.726738544163L146.20738636363635,71.84246781281047L147.42578125,70.83053423947938L148.64417613636365,69.95684097401411L149.86257102272728,69.13198235298462L151.0809659090909,68.147223059328L152.29936079545456,67.28393294304111L153.5177556818182,66.1677462437123L154.7361505681818,65.14629648645935L155.95454545454544,64.33510599744447L157.17294034090907,63.74633342750147L158.39133522727275,63.20440252111722L159.60973011363637,62.70058594635947L160.828125,62.29016486848489L162.04651988636363,61.89890216764866L163.26491477272728,61.526427195829484L164.4833096590909,61.111729655481795L165.70170454545453,60.709526997099786L166.92009943181816,60.32163921969561L168.13849431818184,59.72835954712287L169.35688920454547,58.92752368561304L170.5752840909091,58.177785604070884L171.79367897727272,57.44005902640299L173.01207386363637,56.797394660307646L174.23046875,56.28316489588839L175.44886363636363,55.89212586421741L176.66725852272725,55.47154511772976L177.88565340909093,54.85349993415707L179.10404829545456,54.156637577760414L180.3224431818182,53.05173350486051L181.5408380681818,52.08093482174212L182.75923295454544,51.08110992412407L183.9776278409091,50.350236460868366L185.19602272727272,49.759330500843426L186.41441761363635,49.20872795115846L187.6328125,48.62134150732123L188.85120738636365,48.1009994451318L190.06960227272728,47.69549244964801L191.2879971590909,47.160948297826565L192.50639204545453,46.77817448910958L193.7247869318182,46.454463350396665L194.9431818181818,46.00505141325077L196.16157670454544,45.4115845093565L197.3799715909091,44.74973835077506L198.59836647727275,44.09874437318221L199.81676136363637,43.613956070339526L201.03515625,43.21836093151321L202.25355113636363,42.5983149831519L203.47194602272725,42.03516716957243L204.6903409090909,41.64735709548087L205.90873579545456,41.39230500412042L207.1271306818182,41.1648829057935L208.3455255681818,40.9909177243783L209.56392045454547,40.80148565590822L210.7823153409091,40.638551217737444L212.00071022727272,40.43865315313498L213.21910511363635,40.00617650267695L214.4375,39.511359081370934L215.65589488636365,38.90139672202068L216.87428977272728,38.423483571661684L218.0926846590909,37.893821422012564L219.31107954545456,37.47966286763663L220.5294744318182,37.08945456281373L221.7478693181818,36.675445108920755L222.96626420454544,36.338828064090265L224.18465909090907,36.01597436492815L225.40305397727275,35.66148640200603L226.62144886363637,35.33096965840525L227.83984375,35.088151706403885L229.05823863636363,34.63562013545418L230.27663352272728,34.170739068620115L231.4950284090909,33.49562412889759L232.71342329545453,33.02046345556955L233.93181818181816,32.56745026192178L235.15021306818184,31.912900730556903L236.36860795454547,31.239197547487436L237.5870028409091,30.621403627247833L238.80539772727272,30.048859195501336L240.02379261363637,29.23315310871051L241.2421875,28.54267240998416L242.46058238636363,28.06282219700379L243.67897727272725,27.657437572850977L244.89737215909093,27.118153396233417L246.11576704545456,26.63521161853343L247.3341619318182,25.96855360525292L248.5525568181818,25.334803275808365L249.77095170454544,24.858719314661425L250.9893465909091,24.371306358591816L252.20774147727272,23.905989878664084L253.42613636363635,23.51804245012383L254.64453125,23.131975577756055" style="fill: none;" fill="none"></path></g><g><path stroke="rgb(0, 119, 187)" stroke-width="2px" d="M24.367897727272727,162.21073831245303L36.551846590909086,159.9256333981175L48.73579545454545,154.14062487573497L60.91974431818181,144.4378859266461L73.10369318181817,135.54343515186136L85.28764204545455,126.61927273147037L97.4715909090909,118.03150542216298L109.65553977272728,108.93278122282516L121.83948863636363,100.26762876012367L134.0234375,92.03483820259817L146.20738636363635,83.3950066764046L158.39133522727275,74.97446575276602L170.5752840909091,67.79062727152703L182.75923295454544,60.50071818538921L194.9431818181818,54.41986332270306L207.1271306818182,48.979691945655055L219.31107954545456,44.12957296704057L231.4950284090909,39.4683740411831L243.67897727272725,34.499371323542654L255.86292613636365,29.56211786814957" style="fill: none;" fill="none"></path></g></g></g></g><g opacity="0.2"><g><g><g><path stroke="rgb(255, 112, 67)" stroke-width="2px" d="M25.586292613636363,162.21398574113846L26.8046875,162.15160049311817L28.023082386363633,162.04750144667923L29.24147727272727,161.87542893737555L30.459872159090907,161.57065693102777L31.678267045454543,161.16510748676956L32.89666193181818,160.66062685847282L34.11505681818181,159.96915533021092L35.33345170454545,159.17150771990418L36.551846590909086,158.5607438609004L37.77024147727273,157.80090324394405L38.98863636363636,157.02957299351692L40.20703125,156.40957786515355L41.42542613636363,155.46846643835306L42.64382102272727,154.31613202951849L43.86221590909091,153.49914820678532L45.08061079545455,152.3300738800317L46.29900568181818,151.25649373792112L47.51740056818182,149.78765866532922L48.73579545454545,148.5996932052076L49.95419034090909,147.40398007258773L51.17258522727273,145.49572833627462L52.39098011363637,144.26892560720444L53.609375,143.01429719477892L54.82776988636364,141.73246950656176L56.046164772727266,135.23230415582657L57.26455965909091,134.11482603102922L58.48295454545454,133.8614441715181L59.70134943181818,133.55092734843493L60.91974431818181,133.0341740772128L62.13813920454545,132.37288550287485L63.356534090909086,131.60833858698606L64.57492897727272,130.68527758866549L65.79332386363636,129.7790966257453L67.01171875,128.73075411468744L68.23011363636363,127.9435741044581L69.44850852272728,126.86185066401958L70.6669034090909,125.99327063933015L71.88529829545455,124.90525015443563L73.10369318181817,123.9374999217689L74.32208806818183,122.78362422063947L75.54048295454545,121.64750222861767L76.7588778409091,120.0791425332427L77.97727272727272,119.35091077163815L79.19566761363637,118.6663297265768L80.4140625,117.86154436692595L81.63245738636364,116.61078979074955L82.85085227272727,115.73246748000383L84.06924715909092,114.97352526336908L85.28764204545455,114.28582866489887L86.50603693181819,113.26844387501478L87.72443181818181,112.29721543192863L88.94282670454547,111.45026295259595L90.1612215909091,110.54813715443015L91.37961647727272,109.60844338685274L92.59801136363636,108.92621961236L93.81640625,107.92612696811557L95.03480113636364,107.1059946231544L96.25319602272727,106.34624467045069L97.4715909090909,105.75549288466573L98.68998579545455,104.66862630844116L99.90838068181819,103.60160696133971L101.12677556818181,102.77708976343274L102.34517045454545,101.87486505880952L103.5635653409091,100.76299163326621L104.78196022727273,99.49222498387098L106.00035511363636,98.68277453631163L107.21875,97.61367815360427L108.43714488636364,96.50515106320381L109.65553977272728,95.67535885423422L110.8739346590909,94.84513805061579L112.09232954545453,94.19906458631158L113.31072443181819,93.20695039629936L114.52911931818181,92.30721483752131L115.74751420454545,91.5615260861814L116.96590909090908,90.86327946558595L118.18430397727273,89.72671239450574L119.40269886363636,88.90794825553894L120.62109375,88.30039885640144L121.83948863636363,87.49483872950077L123.05788352272728,86.50872486457229L124.2762784090909,85.69414776563644L125.49467329545455,84.7214522100985L126.71306818181817,83.97950541973114L127.93146306818183,83.5233488380909L129.14985795454544,82.58363858610392L130.3682528409091,81.91021748632193L131.58664772727272,81.20173404738307L132.80504261363637,80.56358958408237L134.0234375,79.8232747502625L135.24183238636363,78.5609316341579L136.46022727272725,77.87674621492624L137.6786221590909,76.43818476051092L138.89701704545456,75.85900503024459L140.1154119318182,74.91937720030546L141.3338068181818,73.8940469250083L142.55220170454547,73.22740091755986L143.7705965909091,72.06253011524677L144.98899147727272,71.54416137188673L146.20738636363635,70.51606171578169L147.42578125,69.31263387948275L148.64417613636365,68.64630107581615L149.86257102272728,67.89469442144036L151.0809659090909,66.67008411884308L152.29936079545456,65.98899776861072L153.5177556818182,64.49346619471908L154.7361505681818,63.61412185057998L155.95454545454544,63.118320263922215L157.17294034090907,62.86317457258701L158.39133522727275,62.39150616154075L159.60973011363637,61.944861084222794L160.828125,61.67453325167298L162.04651988636363,61.31200811639428L163.26491477272728,60.96771473810077L164.4833096590909,60.48968334496021L165.70170454545453,60.10622300952673L166.92009943181816,59.739807553589344L168.13849431818184,58.8384400382638L169.35688920454547,57.72626989334822L170.5752840909091,57.05317848175764L171.79367897727272,56.33346915990114L173.01207386363637,55.83339811116457L174.23046875,55.51182024925947L175.44886363636363,55.30556731671095L176.66725852272725,54.84067399799824L177.88565340909093,53.92643215879798L179.10404829545456,53.111344043165445L180.3224431818182,51.39437739551067L181.5408380681818,50.62473679706454L182.75923295454544,49.58137257769704L183.9776278409091,49.253926265984774L185.19602272727272,48.872971560806036L186.41441761363635,48.38282412663102L187.6328125,47.74026184156537L188.85120738636365,47.32048635184765L190.06960227272728,47.08723195642233L191.2879971590909,46.35913207009435L192.50639204545453,46.20401377603412L193.7247869318182,45.96889664232731L194.9431818181818,45.33093350753188L196.16157670454544,44.5213841535151L197.3799715909091,43.75696911290288L198.59836647727275,43.12225340679288L199.81676136363637,42.886773616075516L201.03515625,42.624968223273754L202.25355113636363,41.66824606060982L203.47194602272725,41.19044544920325L204.6903409090909,41.06564198434353L205.90873579545456,41.009726867079735L207.1271306818182,40.823749758303165L208.3455255681818,40.72996995225549L209.56392045454547,40.517337553203106L210.7823153409091,40.39414956048131L212.00071022727272,40.13880605623126L213.21910511363635,39.35746152698994L214.4375,38.76913294941187L215.65589488636365,37.98645318299532L216.87428977272728,37.70661384612322L218.0926846590909,37.09932819753885L219.31107954545456,36.85842503607273L220.5294744318182,36.504142105579376L221.7478693181818,36.054430928081274L222.96626420454544,35.83390249684453L224.18465909090907,35.531693816185L225.40305397727275,35.12975445762277L226.62144886363637,34.835194543004036L227.83984375,34.72392477840185L229.05823863636363,33.95682277902961L230.27663352272728,33.47341746836901L231.4950284090909,32.48295171931386L232.71342329545453,32.30772244557738L233.93181818181816,31.88793047145009L235.15021306818184,30.93107643350959L236.36860795454547,30.228642772883177L237.5870028409091,29.6947127468884L238.80539772727272,29.190042547881603L240.02379261363637,28.009593978524208L241.2421875,27.506951361894608L242.46058238636363,27.343046877533197L243.67897727272725,27.049360636621714L244.89737215909093,26.309227131307125L246.11576704545456,25.910798951983452L247.3341619318182,24.968566585332155L248.5525568181818,24.384177781641483L249.77095170454544,24.144593372941017L250.9893465909091,23.640186924487352L252.20774147727272,23.20801515877247L253.42613636363635,22.936121307313442L254.64453125,22.552875269204378" style="fill: none;" fill="none"></path></g><g><path stroke="rgb(0, 119, 187)" stroke-width="2px" d="M24.367897727272727,162.21073831245303L36.551846590909086,158.55457044951618L48.73579545454545,148.58701669424772L60.91974431818181,133.02746492251754L73.10369318181817,123.93084022030234L85.28764204545455,114.2739434055984L97.4715909090909,105.75086076557636L109.65553977272728,95.66675399243832L121.83948863636363,87.48821199685335L134.0234375,79.81010370701551L146.20738636363635,70.51362202316523L158.39133522727275,62.38947857916355L170.5752840909091,57.038326028734446L182.75923295454544,49.58013624697924L194.9431818181818,45.30572884529829L207.1271306818182,40.823271710425615L219.31107954545456,36.85644690692425L231.4950284090909,32.47775913029909L243.67897727272725,27.04662422463298L255.86292613636365,22.15668896958232" style="fill: none;" fill="none"></path></g></g></g></g></g></g><g transform="translate(61, 177)" clip-path="url(#clip_1)"><clipPath id="clip_1"><rect width="268" height="23"></rect></clipPath><g><g><line x1="0" y1="0" x2="0" y2="5" style="visibility: inherit;" fill="rgb(0, 0, 0)" stroke="rgb(204, 204, 204)" stroke-width="1px"></line><line x1="24.367897727272727" y1="0" x2="24.367897727272727" y2="5" style="visibility: inherit;" fill="rgb(0, 0, 0)" stroke="rgb(204, 204, 204)" stroke-width="1px"></line><line x1="48.73579545454545" y1="0" x2="48.73579545454545" y2="5" style="visibility: inherit;" fill="rgb(0, 0, 0)" stroke="rgb(204, 204, 204)" stroke-width="1px"></line><line x1="73.10369318181817" y1="0" x2="73.10369318181817" y2="5" style="visibility: inherit;" fill="rgb(0, 0, 0)" stroke="rgb(204, 204, 204)" stroke-width="1px"></line><line x1="97.4715909090909" y1="0" x2="97.4715909090909" y2="5" style="visibility: inherit;" fill="rgb(0, 0, 0)" stroke="rgb(204, 204, 204)" stroke-width="1px"></line><line x1="121.83948863636363" y1="0" x2="121.83948863636363" y2="5" style="visibility: inherit;" fill="rgb(0, 0, 0)" stroke="rgb(204, 204, 204)" stroke-width="1px"></line><line x1="146.20738636363635" y1="0" x2="146.20738636363635" y2="5" style="visibility: inherit;" fill="rgb(0, 0, 0)" stroke="rgb(204, 204, 204)" stroke-width="1px"></line><line x1="170.5752840909091" y1="0" x2="170.5752840909091" y2="5" style="visibility: inherit;" fill="rgb(0, 0, 0)" stroke="rgb(204, 204, 204)" stroke-width="1px"></line><line x1="194.9431818181818" y1="0" x2="194.9431818181818" y2="5" style="visibility: inherit;" fill="rgb(0, 0, 0)" stroke="rgb(204, 204, 204)" stroke-width="1px"></line><line x1="219.31107954545456" y1="0" x2="219.31107954545456" y2="5" style="visibility: inherit;" fill="rgb(0, 0, 0)" stroke="rgb(204, 204, 204)" stroke-width="1px"></line><line x1="243.67897727272725" y1="0" x2="243.67897727272725" y2="5" style="visibility: inherit;" fill="rgb(0, 0, 0)" stroke="rgb(204, 204, 204)" stroke-width="1px"></line><line x1="268.046875" y1="0" x2="268.046875" y2="5" style="visibility: inherit;" fill="rgb(0, 0, 0)" stroke="rgb(204, 204, 204)" stroke-width="1px"></line></g><g transform="translate(0, 8)"><text x="0" y="0" dx="0em" dy="0.95em" style="text-anchor: middle; visibility: hidden; font-family: Roboto, sans-serif; font-size: 12px; font-weight: 200;" fill="rgb(255, 255, 255)" stroke="none" stroke-width="1px">-2k</text><text x="24.367897727272727" y="0" dx="0em" dy="0.95em" style="text-anchor: middle; visibility: inherit; font-family: Roboto, sans-serif; font-size: 12px; font-weight: 200;" fill="rgb(255, 255, 255)" stroke="none" stroke-width="1px">0</text><text x="48.73579545454545" y="0" dx="0em" dy="0.95em" style="text-anchor: middle; visibility: hidden; font-family: Roboto, sans-serif; font-size: 12px; font-weight: 200;" fill="rgb(255, 255, 255)" stroke="none" stroke-width="1px">2k</text><text x="73.10369318181817" y="0" dx="0em" dy="0.95em" style="text-anchor: middle; visibility: inherit; font-family: Roboto, sans-serif; font-size: 12px; font-weight: 200;" fill="rgb(255, 255, 255)" stroke="none" stroke-width="1px">4k</text><text x="97.4715909090909" y="0" dx="0em" dy="0.95em" style="text-anchor: middle; visibility: hidden; font-family: Roboto, sans-serif; font-size: 12px; font-weight: 200;" fill="rgb(255, 255, 255)" stroke="none" stroke-width="1px">6k</text><text x="121.83948863636363" y="0" dx="0em" dy="0.95em" style="text-anchor: middle; visibility: inherit; font-family: Roboto, sans-serif; font-size: 12px; font-weight: 200;" fill="rgb(255, 255, 255)" stroke="none" stroke-width="1px">8k</text><text x="146.20738636363635" y="0" dx="0em" dy="0.95em" style="text-anchor: middle; visibility: hidden; font-family: Roboto, sans-serif; font-size: 12px; font-weight: 200;" fill="rgb(255, 255, 255)" stroke="none" stroke-width="1px">10k</text><text x="170.5752840909091" y="0" dx="0em" dy="0.95em" style="text-anchor: middle; visibility: inherit; font-family: Roboto, sans-serif; font-size: 12px; font-weight: 200;" fill="rgb(255, 255, 255)" stroke="none" stroke-width="1px">12k</text><text x="194.9431818181818" y="0" dx="0em" dy="0.95em" style="text-anchor: middle; visibility: hidden; font-family: Roboto, sans-serif; font-size: 12px; font-weight: 200;" fill="rgb(255, 255, 255)" stroke="none" stroke-width="1px">14k</text><text x="219.31107954545456" y="0" dx="0em" dy="0.95em" style="text-anchor: middle; visibility: inherit; font-family: Roboto, sans-serif; font-size: 12px; font-weight: 200;" fill="rgb(255, 255, 255)" stroke="none" stroke-width="1px">16k</text><text x="243.67897727272725" y="0" dx="0em" dy="0.95em" style="text-anchor: middle; visibility: hidden; font-family: Roboto, sans-serif; font-size: 12px; font-weight: 200;" fill="rgb(255, 255, 255)" stroke="none" stroke-width="1px">18k</text><text x="268.046875" y="0" dx="0em" dy="0.95em" style="text-anchor: middle; visibility: hidden; font-family: Roboto, sans-serif; font-size: 12px; font-weight: 200;" fill="rgb(255, 255, 255)" stroke="none" stroke-width="1px">20k</text></g><line x1="0" y1="0" x2="268.046875" y2="0" fill="rgb(0, 0, 0)" stroke="rgb(204, 204, 204)" stroke-width="1px"></line></g></g></g></g></svg>