<svg viewBox="0 0 330 200" xmlns="http://www.w3.org/2000/svg"><g><g><g><g><g><line x1="41.171875" y1="177" x2="36.171875" y2="177" style="visibility: inherit;" fill="rgb(0, 0, 0)" stroke="rgb(204, 204, 204)" stroke-width="1px"></line><line x1="41.171875" y1="162.25" x2="36.171875" y2="162.25" style="visibility: inherit;" fill="rgb(0, 0, 0)" stroke="rgb(204, 204, 204)" stroke-width="1px"></line><line x1="41.171875" y1="147.5" x2="36.171875" y2="147.5" style="visibility: inherit;" fill="rgb(0, 0, 0)" stroke="rgb(204, 204, 204)" stroke-width="1px"></line><line x1="41.171875" y1="132.75" x2="36.171875" y2="132.75" style="visibility: inherit;" fill="rgb(0, 0, 0)" stroke="rgb(204, 204, 204)" stroke-width="1px"></line><line x1="41.171875" y1="118.00000000000001" x2="36.171875" y2="118.00000000000001" style="visibility: inherit;" fill="rgb(0, 0, 0)" stroke="rgb(204, 204, 204)" stroke-width="1px"></line><line x1="41.171875" y1="103.25" x2="36.171875" y2="103.25" style="visibility: inherit;" fill="rgb(0, 0, 0)" stroke="rgb(204, 204, 204)" stroke-width="1px"></line><line x1="41.171875" y1="88.49999999999999" x2="36.171875" y2="88.49999999999999" style="visibility: inherit;" fill="rgb(0, 0, 0)" stroke="rgb(204, 204, 204)" stroke-width="1px"></line><line x1="41.171875" y1="73.75" x2="36.171875" y2="73.75" style="visibility: inherit;" fill="rgb(0, 0, 0)" stroke="rgb(204, 204, 204)" stroke-width="1px"></line><line x1="41.171875" y1="58.999999999999986" x2="36.171875" y2="58.999999999999986" style="visibility: inherit;" fill="rgb(0, 0, 0)" stroke="rgb(204, 204, 204)" stroke-width="1px"></line><line x1="41.171875" y1="44.24999999999998" x2="36.171875" y2="44.24999999999998" style="visibility: inherit;" fill="rgb(0, 0, 0)" stroke="rgb(204, 204, 204)" stroke-width="1px"></line><line x1="41.171875" y1="29.499999999999993" x2="36.171875" y2="29.499999999999993" style="visibility: inherit;" fill="rgb(0, 0, 0)" stroke="rgb(204, 204, 204)" stroke-width="1px"></line><line x1="41.171875" y1="14.749999999999988" x2="36.171875" y2="14.749999999999988" style="visibility: inherit;" fill="rgb(0, 0, 0)" stroke="rgb(204, 204, 204)" stroke-width="1px"></line><line x1="41.171875" y1="0" x2="36.171875" y2="0" style="visibility: inherit;" fill="rgb(0, 0, 0)" stroke="rgb(204, 204, 204)" stroke-width="1px"></line></g><g transform="translate(31.171875, 0)"><text x="0" y="177" dx="0em" dy="0.3em" style="text-anchor: end; visibility: hidden; font-family: Roboto, sans-serif; font-size: 12px; font-weight: 200;" fill="rgb(255, 255, 255)" stroke="none" stroke-width="1px">0.2</text><text x="0" y="162.25" dx="0em" dy="0.3em" style="text-anchor: end; visibility: inherit; font-family: Roboto, sans-serif; font-size: 12px; font-weight: 200;" fill="rgb(255, 255, 255)" stroke="none" stroke-width="1px">0.3</text><text x="0" y="147.5" dx="0em" dy="0.3em" style="text-anchor: end; visibility: hidden; font-family: Roboto, sans-serif; font-size: 12px; font-weight: 200;" fill="rgb(255, 255, 255)" stroke="none" stroke-width="1px">0.4</text><text x="0" y="132.75" dx="0em" dy="0.3em" style="text-anchor: end; visibility: inherit; font-family: Roboto, sans-serif; font-size: 12px; font-weight: 200;" fill="rgb(255, 255, 255)" stroke="none" stroke-width="1px">0.5</text><text x="0" y="118.00000000000001" dx="0em" dy="0.3em" style="text-anchor: end; visibility: hidden; font-family: Roboto, sans-serif; font-size: 12px; font-weight: 200;" fill="rgb(255, 255, 255)" stroke="none" stroke-width="1px">0.6</text><text x="0" y="103.25" dx="0em" dy="0.3em" style="text-anchor: end; visibility: inherit; font-family: Roboto, sans-serif; font-size: 12px; font-weight: 200;" fill="rgb(255, 255, 255)" stroke="none" stroke-width="1px">0.7</text><text x="0" y="88.49999999999999" dx="0em" dy="0.3em" style="text-anchor: end; visibility: hidden; font-family: Roboto, sans-serif; font-size: 12px; font-weight: 200;" fill="rgb(255, 255, 255)" stroke="none" stroke-width="1px">0.8</text><text x="0" y="73.75" dx="0em" dy="0.3em" style="text-anchor: end; visibility: inherit; font-family: Roboto, sans-serif; font-size: 12px; font-weight: 200;" fill="rgb(255, 255, 255)" stroke="none" stroke-width="1px">0.9</text><text x="0" y="58.999999999999986" dx="0em" dy="0.3em" style="text-anchor: end; visibility: hidden; font-family: Roboto, sans-serif; font-size: 12px; font-weight: 200;" fill="rgb(255, 255, 255)" stroke="none" stroke-width="1px">1</text><text x="0" y="44.24999999999998" dx="0em" dy="0.3em" style="text-anchor: end; visibility: inherit; font-family: Roboto, sans-serif; font-size: 12px; font-weight: 200;" fill="rgb(255, 255, 255)" stroke="none" stroke-width="1px">1.1</text><text x="0" y="29.499999999999993" dx="0em" dy="0.3em" style="text-anchor: end; visibility: hidden; font-family: Roboto, sans-serif; font-size: 12px; font-weight: 200;" fill="rgb(255, 255, 255)" stroke="none" stroke-width="1px">1.2</text><text x="0" y="14.749999999999988" dx="0em" dy="0.3em" style="text-anchor: end; visibility: inherit; font-family: Roboto, sans-serif; font-size: 12px; font-weight: 200;" fill="rgb(255, 255, 255)" stroke="none" stroke-width="1px">1.3</text><text x="0" y="0" dx="0em" dy="0.3em" style="text-anchor: end; visibility: hidden; font-family: Roboto, sans-serif; font-size: 12px; font-weight: 200;" fill="rgb(255, 255, 255)" stroke="none" stroke-width="1px">1.4</text></g><line x1="41.171875" y1="0" x2="41.171875" y2="177" fill="rgb(0, 0, 0)" stroke="rgb(204, 204, 204)" stroke-width="1px"></line></g></g><g transform="translate(41, 0)" clip-path="url(#clip_0)"><clipPath id="clip_0"><rect width="288" height="177"></rect></clipPath><g><g><g><line x1="0" y1="0" x2="0" y2="177" fill="rgb(0, 0, 0)" stroke="rgb(189, 189, 189)" stroke-width="1px" opacity="0.25"></line><line x1="26.257102272727273" y1="0" x2="26.257102272727273" y2="177" fill="rgb(0, 0, 0)" stroke="rgb(189, 189, 189)" stroke-width="1px" opacity="0.25"></line><line x1="52.51420454545455" y1="0" x2="52.51420454545455" y2="177" fill="rgb(0, 0, 0)" stroke="rgb(189, 189, 189)" stroke-width="1px" opacity="0.25"></line><line x1="78.77130681818181" y1="0" x2="78.77130681818181" y2="177" fill="rgb(0, 0, 0)" stroke="rgb(189, 189, 189)" stroke-width="1px" opacity="0.25"></line><line x1="105.0284090909091" y1="0" x2="105.0284090909091" y2="177" fill="rgb(0, 0, 0)" stroke="rgb(189, 189, 189)" stroke-width="1px" opacity="0.25"></line><line x1="131.28551136363635" y1="0" x2="131.28551136363635" y2="177" fill="rgb(0, 0, 0)" stroke="rgb(189, 189, 189)" stroke-width="1px" opacity="0.25"></line><line x1="157.54261363636363" y1="0" x2="157.54261363636363" y2="177" fill="rgb(0, 0, 0)" stroke="rgb(189, 189, 189)" stroke-width="1px" opacity="0.25"></line><line x1="183.7997159090909" y1="0" x2="183.7997159090909" y2="177" fill="rgb(0, 0, 0)" stroke="rgb(189, 189, 189)" stroke-width="1px" opacity="0.25"></line><line x1="210.0568181818182" y1="0" x2="210.0568181818182" y2="177" fill="rgb(0, 0, 0)" stroke="rgb(189, 189, 189)" stroke-width="1px" opacity="0.25"></line><line x1="236.31392045454547" y1="0" x2="236.31392045454547" y2="177" fill="rgb(0, 0, 0)" stroke="rgb(189, 189, 189)" stroke-width="1px" opacity="0.25"></line><line x1="262.5710227272727" y1="0" x2="262.5710227272727" y2="177" fill="rgb(0, 0, 0)" stroke="rgb(189, 189, 189)" stroke-width="1px" opacity="0.25"></line><line x1="288.828125" y1="0" x2="288.828125" y2="177" fill="rgb(0, 0, 0)" stroke="rgb(189, 189, 189)" stroke-width="1px" opacity="0.25"></line></g><g><line x1="0" y1="177" x2="288.828125" y2="177" fill="rgb(0, 0, 0)" stroke="rgb(189, 189, 189)" stroke-width="1px" opacity="0.25"></line><line x1="0" y1="162.25" x2="288.828125" y2="162.25" fill="rgb(0, 0, 0)" stroke="rgb(189, 189, 189)" stroke-width="1px" opacity="0.25"></line><line x1="0" y1="147.5" x2="288.828125" y2="147.5" fill="rgb(0, 0, 0)" stroke="rgb(189, 189, 189)" stroke-width="1px" opacity="0.25"></line><line x1="0" y1="132.75" x2="288.828125" y2="132.75" fill="rgb(0, 0, 0)" stroke="rgb(189, 189, 189)" stroke-width="1px" opacity="0.25"></line><line x1="0" y1="118.00000000000001" x2="288.828125" y2="118.00000000000001" fill="rgb(0, 0, 0)" stroke="rgb(189, 189, 189)" stroke-width="1px" opacity="0.25"></line><line x1="0" y1="103.25" x2="288.828125" y2="103.25" fill="rgb(0, 0, 0)" stroke="rgb(189, 189, 189)" stroke-width="1px" opacity="0.25"></line><line x1="0" y1="88.49999999999999" x2="288.828125" y2="88.49999999999999" fill="rgb(0, 0, 0)" stroke="rgb(189, 189, 189)" stroke-width="1px" opacity="0.25"></line><line x1="0" y1="73.75" x2="288.828125" y2="73.75" fill="rgb(0, 0, 0)" stroke="rgb(189, 189, 189)" stroke-width="1px" opacity="0.25"></line><line x1="0" y1="58.999999999999986" x2="288.828125" y2="58.999999999999986" fill="rgb(0, 0, 0)" stroke="rgb(189, 189, 189)" stroke-width="1px" opacity="0.25"></line><line x1="0" y1="44.24999999999998" x2="288.828125" y2="44.24999999999998" fill="rgb(0, 0, 0)" stroke="rgb(189, 189, 189)" stroke-width="1px" opacity="0.25"></line><line x1="0" y1="29.499999999999993" x2="288.828125" y2="29.499999999999993" fill="rgb(0, 0, 0)" stroke="rgb(189, 189, 189)" stroke-width="1px" opacity="0.25"></line><line x1="0" y1="14.749999999999988" x2="288.828125" y2="14.749999999999988" fill="rgb(0, 0, 0)" stroke="rgb(189, 189, 189)" stroke-width="1px" opacity="0.25"></line><line x1="0" y1="0" x2="288.828125" y2="0" fill="rgb(0, 0, 0)" stroke="rgb(189, 189, 189)" stroke-width="1px" opacity="0.25"></line></g></g></g><g><g><line x1="0" y1="206.5" x2="288.828125" y2="206.5" fill="rgb(0, 0, 0)" stroke="rgb(153, 153, 153)" stroke-width="1.5px"></line></g></g><g><g><line x1="26.257102272727273" y1="0" x2="26.257102272727273" y2="177" fill="rgb(0, 0, 0)" stroke="rgb(153, 153, 153)" stroke-width="1.5px"></line></g></g><g><g><g><g><g><path stroke="rgb(255, 112, 67)" stroke-width="2px" d="M27.569957386363637,41.15454965829847L28.8828125,60.81775782257318L30.195667613636363,90.08300896627563L31.508522727272727,94.54014397018098L32.821377840909086,99.67543468371522L34.13423295454545,108.73751078914974L35.44708806818182,103.34125582713583L36.75994318181818,105.44828120613874L38.07279829545454,103.84728831100082L39.38565340909091,116.8753292712892L40.69850852272727,108.61855447368676L42.01136363636363,111.8004508954593L43.32421875,113.91352145581966L44.63707386363636,114.34939026712811L45.94992897727273,111.8422575196265L47.26278409090909,114.59820443388402L48.57563920454545,116.19714413309926L49.88849431818182,103.62824994131952L51.20134943181818,108.20898153944688L52.51420454545455,113.90547595591366L53.827059659090914,120.74640623090522L55.13991477272727,112.66429299155233L56.45276988636364,117.82547979557914L57.765625,121.72091526837819L59.07848011363637,128.1437497891321L60.39133522727273,96.7655411451231L61.704190340909086,84.99230376047822L63.01704545454545,90.2126605809057L64.32990056818181,93.48660518758209L65.64275568181817,101.92902731396295L66.95561079545455,107.89864454475386L68.2684659090909,108.97866984741862L69.58132102272727,113.4994646475023L70.89417613636364,117.2987554664359L72.20703125,114.67010784368584L73.51988636363636,113.52168978591897L74.83274147727273,126.64826754313262L76.14559659090908,135.4182564320862L77.45845170454545,128.01677330887588L78.77130681818181,121.87849741685179L80.08416193181819,119.39252333148283L81.39701704545455,123.78193970118969L82.7098721590909,130.10619298756941L84.02272727272727,136.40559099509667L85.33558238636364,139.59199677973936L86.6484375,136.92258457566513L87.96129261363637,136.54381845130226L89.27414772727272,133.62053578926734L90.5870028409091,136.06397513651333L91.89985795454545,135.56304514469386L93.21271306818183,123.80892947943279L94.52556818181819,133.27401254556116L95.83842329545455,133.45943552244657L97.1512784090909,136.85057513707608L98.46413352272727,132.64126347776227L99.77698863636364,129.33835788533545L101.08984375,130.14425390938214L102.40269886363636,140.433799713728L103.71555397727272,137.0052012502412L105.0284090909091,142.203200954155L106.34126420454545,148.79091135141624L107.65411931818183,147.83676098273617L108.96697443181817,144.81048155716906L110.27982954545455,132.39656433398625L111.5926846590909,134.43854266962472L112.90553977272728,134.05844006276763L114.21839488636364,139.68102162681006L115.53125,137.94206501008262L116.84410511363636,143.5191710410189L118.15696022727273,146.92526559338995L119.4698153409091,147.62454707208886L120.78267045454545,156.3629719304062L122.09552556818181,159.23433087986808L123.40838068181817,159.7858107013828L124.72123579545455,157.03770804544249L126.0340909090909,157.049189592242L127.34694602272728,152.2379590242146L128.65980113636363,150.96442632490627L129.97265625,143.7690114594354L131.28551136363635,153.01509605150545L132.59836647727272,151.44955263913346L133.9112215909091,147.65238033163948L135.22407670454547,145.92088107722046L136.5369318181818,147.3467462686124L137.8497869318182,139.85871708556547L139.16264204545453,138.55034638741336L140.4754971590909,146.0331582742853L141.78835227272728,151.4569935988142L143.10120738636365,151.89516332094394L144.4140625,145.83902038541152L145.72691761363635,145.55113699082563L147.03977272727272,149.8682361366989L148.3526278409091,145.17150390879164L149.66548295454547,146.58484986267L150.9783380681818,147.34027395749993L152.29119318181816,151.2292011446053L153.60404829545456,149.90563493766155L154.9169034090909,147.52497057794193L156.22975852272728,145.72101579116978L157.54261363636363,147.33358628754138L158.85546875,139.97768511297892L160.16832386363637,141.90960994912737L161.48117897727272,142.4498812112424L162.7940340909091,147.4769431563147L164.10688920454547,146.96013440560864L165.4197443181818,145.23846322817545L166.7325994318182,150.88907361342277L168.04545454545453,147.70968610831358L169.3583096590909,153.70707616679823L170.67116477272728,154.2944477288303L171.98401988636363,156.92217987110482L173.296875,155.67125321823517L174.60973011363635,154.86575974463318L175.92258522727275,146.47684150599773L177.2354403409091,151.74551859297358L178.54829545454544,157.71302369712592L179.8611505681818,159.09656729387524L181.1740056818182,159.44186366848518L182.48686079545456,163.25767128617983L183.7997159090909,162.1963861879791L185.11257102272725,160.53392439467225L186.42542613636365,158.2122718416602L187.73828125,159.47963367241329L189.05113636363637,160.85899067722383L190.36399147727272,159.01504739405289L191.6768465909091,154.77582070399268L192.98970170454547,152.89078542094794L194.3025568181818,151.86416551173548L195.6154119318182,154.1434888881494L196.92826704545453,156.36995845687684L198.2411221590909,158.05085053832707L199.55397727272728,162.04751251215563L200.86683238636363,161.21517204686896L202.1796875,161.15653714206752L203.49254261363637,163.57595072190128L204.80539772727272,160.65061272382835L206.1182528409091,159.81077907800733L207.43110795454544,160.3693505187038L208.74396306818184,159.03481523151422L210.0568181818182,158.91924062940612L211.36967329545453,161.04158032282075L212.6825284090909,161.7893609365456L213.99538352272728,159.21923366550402L215.30823863636365,160.11585645892498L216.62109375,166.42718907605575L217.93394886363635,164.57193352228978L219.24680397727272,165.0251419749652L220.5596590909091,162.49945437948674L221.87251420454547,160.86509735608558L223.1853693181818,158.01697273388183L224.49822443181816,162.44228348335432L225.81107954545456,165.41614741802695L227.1239346590909,168.89156487119484L228.43678977272728,167.72466288526232L229.74964488636363,164.58775846671685L231.0625,159.21154695458188L232.37535511363637,156.88160484258518L233.68821022727272,158.41695541873088L235.0010653409091,162.05785948475904L236.31392045454547,166.0142394568962L237.6267755681818,163.77629934349312L238.9396306818182,162.15163692592773L240.25248579545453,165.66715220069403L241.5653409090909,167.1140395430059L242.87819602272728,165.61483665867632L244.19105113636363,163.97384003140917L245.50390625,167.27034784161086L246.81676136363635,166.01397971989533L248.12961647727275,163.5991545717825L249.4424715909091,162.44593264465982L250.75532670454544,160.60775892618568L252.0681818181818,164.3661185066895L253.3810369318182,161.72152638798931L254.69389204545456,161.6898953698038L256.0067471590909,151.21521886479607L257.31960227272725,158.03330834085793L258.6324573863636,159.98543868288428L259.9453125,156.67195699110647L261.2581676136364,159.70065669712434L262.5710227272727,153.40037123857147L263.8838778409091,154.43215472995166L265.19673295454544,157.68317225276783L266.5095880681818,163.0047056150398L267.8224431818182,166.92872985732325L269.1352982954545,165.81372478921276L270.44815340909093,164.48970252465642L271.76100852272725,158.84663087243698L273.0738636363636,158.7720565087489L274.38671875,162.5745427421863" style="fill: none;" fill="none"></path></g><g><path stroke="rgb(0, 119, 187)" stroke-width="2px" d="M26.257102272727273,59.837539881467805L39.38565340909091,-372.32513193413615L118.15696022727273,-55.00071192376267L131.28551136363635,0.436213080626377L144.4140625,-38.47653516752261L157.54261363636363,-11.126676840477565L170.67116477272728,23.090640574179833L183.7997159090909,22.104643041571993L196.92826704545453,33.93107307356243L210.0568181818182,24.938626818160404L223.1853693181818,31.209441597553887L236.31392045454547,31.62427099911439L249.4424715909091,20.177292609612948L262.5710227272727,19.735767367891054L275.6995738636364,37.05374662341346" style="fill: none;" fill="none"></path></g></g></g></g><g opacity="0.2"><g><g><g><path stroke="rgb(255, 112, 67)" stroke-width="2px" d="M27.569957386363637,41.15454965829847L28.8828125,72.615682721138L30.195667613636363,118.17765006422997L31.508522727272727,99.78173473477364L32.821377840909086,106.38007023930548L34.13423295454545,121.27362439036371L35.44708806818182,95.6245248913765L36.75994318181818,108.52034443616867L38.07279829545454,101.48613476753235L39.38565340909091,136.22045175731182L40.69850852272727,96.30828061699866L42.01136363636363,116.55597978830338L43.32421875,117.07622775435448L44.63707386363636,115.00233957171439L45.94992897727273,108.08450543880461L47.26278409090909,118.73018109798431L48.57563920454545,118.59487706422806L49.88849431818182,84.7780998945236L51.20134943181818,115.07938110828398L52.51420454545455,122.44969689846039L53.827059659090914,131.0074264705181L55.13991477272727,100.54138907790184L56.45276988636364,125.56715810298918L57.765625,127.5640223324299L59.07848011363637,137.77795591950417L60.39133522727273,49.698361992835984L61.704190340909086,67.33247780799864L63.01704545454545,98.04318779706955L64.32990056818181,98.39751908183098L65.64275568181817,114.59265583753584L66.95561079545455,116.85306841135025L68.2684659090909,110.59870758652686L69.58132102272727,120.28065630793573L70.89417613636364,122.99769142270088L72.20703125,110.72713652253152L73.51988636363636,111.79906272888182L74.83274147727273,146.33813397586346L76.14559659090908,148.57323968410492L77.45845170454545,116.91454866528511L78.77130681818181,112.67108359932901L80.08416193181819,115.66356220841406L81.39701704545455,130.3660642504692L82.7098721590909,139.59257291257381L84.02272727272727,145.85468800365925L85.33558238636364,144.3716054558754L86.6484375,132.91846626996994L87.96129261363637,135.9756692647934L89.27414772727272,129.2356117963791L90.5870028409091,139.7291341573L91.89985795454545,134.8116501569748L93.21271306818183,106.17775598168375L94.52556818181819,147.4716371446848L95.83842329545455,133.7375699877739L97.1512784090909,141.93728455901146L98.46413352272727,126.32729598879816L99.77698863636364,124.38399949669837L101.08984375,131.35309794545174L102.40269886363636,155.86811842024326L103.71555397727272,131.86230355501175L105.0284090909091,150.00020051002502L106.34126420454545,158.6724769473076L107.65411931818183,146.4055354297161L108.96697443181817,140.27106241881847L110.27982954545455,113.77568849921225L111.5926846590909,137.50151017308235L112.90553977272728,133.48828615248203L114.21839488636364,148.1148939728737L115.53125,135.33363008499146L116.84410511363636,151.88483008742332L118.15696022727273,152.03440742194653L119.4698153409091,148.6734692901373L120.78267045454545,169.47060921788216L122.09552556818181,163.54136930406094L123.40838068181817,160.61303043365479L124.72123579545455,152.91555406153202L126.0340909090909,157.06641191244125L127.34694602272728,145.0211131721735L128.65980113636363,149.05412727594376L129.97265625,132.97588916122913L131.28551136363635,166.88422293961048L132.59836647727272,149.10123752057552L133.9112215909091,141.95662187039852L135.22407670454547,143.32363219559193L136.5369318181818,149.4855440557003L137.8497869318182,128.6266733109951L139.16264204545453,136.58779034018517L140.4754971590909,157.25737610459328L141.78835227272728,159.59274658560753L143.10120738636365,152.55241790413857L144.4140625,136.75480598211288L145.72691761363635,145.11931189894676L147.03977272727272,156.3438848555088L148.3526278409091,138.12640556693077L149.66548295454547,148.70486879348755L150.9783380681818,148.4734100997448L152.29119318181816,157.0625919252634L153.60404829545456,147.9202856272459L154.9169034090909,143.9539740383625L156.22975852272728,143.0150836110115L157.54261363636363,149.75244203209877L158.85546875,128.94383335113525L160.16832386363637,144.80749720335007L161.48117897727272,143.26028810441494L162.7940340909091,155.0175360739231L164.10688920454547,146.1849212795496L165.4197443181818,142.65595646202564L166.7325994318182,159.36498919129372L168.04545454545453,142.94060485064983L169.3583096590909,162.70316125452518L170.67116477272728,155.17550507187843L171.98401988636363,160.86377808451653L173.296875,153.7948632389307L174.60973011363635,153.65751953423023L175.92258522727275,133.8934641480446L177.2354403409091,159.6485342234373L178.54829545454544,166.66428135335445L179.8611505681818,161.17188268899918L181.1740056818182,159.95980823040009L182.48686079545456,168.98138271272182L183.7997159090909,160.60445854067802L185.11257102272725,158.0402317047119L186.42542613636365,154.72979301214218L187.73828125,161.38067641854286L189.05113636363637,162.92802618443966L190.36399147727272,156.24913246929646L191.6768465909091,148.4169806689024L192.98970170454547,150.0632324963808L194.3025568181818,150.3242356479168L195.6154119318182,157.56247395277023L196.92826704545453,159.709662809968L198.2411221590909,160.57218866050243L199.55397727272728,168.04250547289848L200.86683238636363,159.96666134893894L202.1796875,161.06858478486538L203.49254261363637,167.20507109165192L204.80539772727272,156.2626057267189L206.1182528409091,158.55102860927582L207.43110795454544,161.20720767974854L208.74396306818184,157.03301230072975L210.0568181818182,158.74587872624397L211.36967329545453,164.2250898629427L212.6825284090909,162.9110318571329L213.99538352272728,155.36404275894165L215.30823863636365,161.46079064905643L216.62109375,175.8941880017519L217.93394886363635,161.78905019164085L219.24680397727272,165.70495465397835L220.5596590909091,158.710922986269L221.87251420454547,158.4135618209839L223.1853693181818,153.7447858005762L224.49822443181816,169.08024960756302L225.81107954545456,169.87694332003593L227.1239346590909,174.1046910509467L228.43678977272728,165.9743099063635L229.74964488636363,159.88240183889866L231.0625,151.14722968637943L232.37535511363637,153.3866916745901L233.68821022727272,160.71998128294945L235.0010653409091,167.51921558380127L236.31392045454547,171.948809415102L237.6267755681818,160.41938917338848L238.9396306818182,159.71464329957962L240.25248579545453,170.9404251128435L241.5653409090909,169.28437055647373L242.87819602272728,163.36603233218193L244.19105113636363,161.51234509050846L245.50390625,172.21510955691338L246.81676136363635,164.12942753732204L248.12961647727275,159.9769168496132L249.4424715909091,160.71609975397587L250.75532670454544,157.8504983484745L252.0681818181818,170.00365787744522L253.3810369318182,157.754638209939L254.69389204545456,161.64244884252548L256.0067471590909,135.50320410728455L257.31960227272725,168.2604425549507L258.6324573863636,162.9136341959238L259.9453125,151.7017344534397L261.2581676136364,164.2437062561512L262.5710227272727,143.94994305074215L263.8838778409091,155.97982996702194L265.19673295454544,162.55969853699207L266.5095880681818,170.98700565844774L267.8224431818182,172.81476622074842L269.1352982954545,164.141217187047L270.44815340909093,162.50366912782192L271.76100852272725,150.38202339410782L273.0738636363636,158.66019496321678L274.38671875,168.27827209234238" style="fill: none;" fill="none"></path></g><g><path stroke="rgb(0, 119, 187)" stroke-width="2px" d="M26.257102272727273,59.837539881467805L39.38565340909091,-631.6227350234985L91.89985795454545,-125.12345230579376L105.0284090909091,9.661889612674694L118.15696022727273,6.410073876380914L131.28551136363635,82.19490939378737L144.4140625,-96.25743126869202L157.54261363636363,29.65004944801329L170.67116477272728,74.23040756583212L183.7997159090909,20.628866195678704L196.92826704545453,51.64754891395567L210.0568181818182,11.460527718067162L223.1853693181818,40.61124110221862L236.31392045454547,32.24633955955505L249.4424715909091,3.0097314119338794L262.5710227272727,19.073546767234788L275.6995738636364,63.02913257479666" style="fill: none;" fill="none"></path></g></g></g></g></g><g><g><span fill="rgb(0, 0, 0)" stroke="none" stroke-width="1px">Alt + Scroll to Zoom</span></g></g></g><g transform="translate(41, 177)" clip-path="url(#clip_1)"><clipPath id="clip_1"><rect width="288" height="23"></rect></clipPath><g><g><line x1="0" y1="0" x2="0" y2="5" style="visibility: inherit;" fill="rgb(0, 0, 0)" stroke="rgb(204, 204, 204)" stroke-width="1px"></line><line x1="26.257102272727273" y1="0" x2="26.257102272727273" y2="5" style="visibility: inherit;" fill="rgb(0, 0, 0)" stroke="rgb(204, 204, 204)" stroke-width="1px"></line><line x1="52.51420454545455" y1="0" x2="52.51420454545455" y2="5" style="visibility: inherit;" fill="rgb(0, 0, 0)" stroke="rgb(204, 204, 204)" stroke-width="1px"></line><line x1="78.77130681818181" y1="0" x2="78.77130681818181" y2="5" style="visibility: inherit;" fill="rgb(0, 0, 0)" stroke="rgb(204, 204, 204)" stroke-width="1px"></line><line x1="105.0284090909091" y1="0" x2="105.0284090909091" y2="5" style="visibility: inherit;" fill="rgb(0, 0, 0)" stroke="rgb(204, 204, 204)" stroke-width="1px"></line><line x1="131.28551136363635" y1="0" x2="131.28551136363635" y2="5" style="visibility: inherit;" fill="rgb(0, 0, 0)" stroke="rgb(204, 204, 204)" stroke-width="1px"></line><line x1="157.54261363636363" y1="0" x2="157.54261363636363" y2="5" style="visibility: inherit;" fill="rgb(0, 0, 0)" stroke="rgb(204, 204, 204)" stroke-width="1px"></line><line x1="183.7997159090909" y1="0" x2="183.7997159090909" y2="5" style="visibility: inherit;" fill="rgb(0, 0, 0)" stroke="rgb(204, 204, 204)" stroke-width="1px"></line><line x1="210.0568181818182" y1="0" x2="210.0568181818182" y2="5" style="visibility: inherit;" fill="rgb(0, 0, 0)" stroke="rgb(204, 204, 204)" stroke-width="1px"></line><line x1="236.31392045454547" y1="0" x2="236.31392045454547" y2="5" style="visibility: inherit;" fill="rgb(0, 0, 0)" stroke="rgb(204, 204, 204)" stroke-width="1px"></line><line x1="262.5710227272727" y1="0" x2="262.5710227272727" y2="5" style="visibility: inherit;" fill="rgb(0, 0, 0)" stroke="rgb(204, 204, 204)" stroke-width="1px"></line><line x1="288.828125" y1="0" x2="288.828125" y2="5" style="visibility: inherit;" fill="rgb(0, 0, 0)" stroke="rgb(204, 204, 204)" stroke-width="1px"></line></g><g transform="translate(0, 8)"><text x="0" y="0" dx="0em" dy="0.95em" style="text-anchor: middle; visibility: hidden; font-family: Roboto, sans-serif; font-size: 12px; font-weight: 200;" fill="rgb(255, 255, 255)" stroke="none" stroke-width="1px">-2k</text><text x="26.257102272727273" y="0" dx="0em" dy="0.95em" style="text-anchor: middle; visibility: inherit; font-family: Roboto, sans-serif; font-size: 12px; font-weight: 200;" fill="rgb(255, 255, 255)" stroke="none" stroke-width="1px">0</text><text x="52.51420454545455" y="0" dx="0em" dy="0.95em" style="text-anchor: middle; visibility: inherit; font-family: Roboto, sans-serif; font-size: 12px; font-weight: 200;" fill="rgb(255, 255, 255)" stroke="none" stroke-width="1px">2k</text><text x="78.77130681818181" y="0" dx="0em" dy="0.95em" style="text-anchor: middle; visibility: inherit; font-family: Roboto, sans-serif; font-size: 12px; font-weight: 200;" fill="rgb(255, 255, 255)" stroke="none" stroke-width="1px">4k</text><text x="105.0284090909091" y="0" dx="0em" dy="0.95em" style="text-anchor: middle; visibility: inherit; font-family: Roboto, sans-serif; font-size: 12px; font-weight: 200;" fill="rgb(255, 255, 255)" stroke="none" stroke-width="1px">6k</text><text x="131.28551136363635" y="0" dx="0em" dy="0.95em" style="text-anchor: middle; visibility: inherit; font-family: Roboto, sans-serif; font-size: 12px; font-weight: 200;" fill="rgb(255, 255, 255)" stroke="none" stroke-width="1px">8k</text><text x="157.54261363636363" y="0" dx="0em" dy="0.95em" style="text-anchor: middle; visibility: inherit; font-family: Roboto, sans-serif; font-size: 12px; font-weight: 200;" fill="rgb(255, 255, 255)" stroke="none" stroke-width="1px">10k</text><text x="183.7997159090909" y="0" dx="0em" dy="0.95em" style="text-anchor: middle; visibility: inherit; font-family: Roboto, sans-serif; font-size: 12px; font-weight: 200;" fill="rgb(255, 255, 255)" stroke="none" stroke-width="1px">12k</text><text x="210.0568181818182" y="0" dx="0em" dy="0.95em" style="text-anchor: middle; visibility: inherit; font-family: Roboto, sans-serif; font-size: 12px; font-weight: 200;" fill="rgb(255, 255, 255)" stroke="none" stroke-width="1px">14k</text><text x="236.31392045454547" y="0" dx="0em" dy="0.95em" style="text-anchor: middle; visibility: inherit; font-family: Roboto, sans-serif; font-size: 12px; font-weight: 200;" fill="rgb(255, 255, 255)" stroke="none" stroke-width="1px">16k</text><text x="262.5710227272727" y="0" dx="0em" dy="0.95em" style="text-anchor: middle; visibility: inherit; font-family: Roboto, sans-serif; font-size: 12px; font-weight: 200;" fill="rgb(255, 255, 255)" stroke="none" stroke-width="1px">18k</text><text x="288.828125" y="0" dx="0em" dy="0.95em" style="text-anchor: middle; visibility: hidden; font-family: Roboto, sans-serif; font-size: 12px; font-weight: 200;" fill="rgb(255, 255, 255)" stroke="none" stroke-width="1px">20k</text></g><line x1="0" y1="0" x2="288.828125" y2="0" fill="rgb(0, 0, 0)" stroke="rgb(204, 204, 204)" stroke-width="1px"></line></g></g></g></g></svg>