<svg viewBox="0 0 330 200" xmlns="http://www.w3.org/2000/svg"><g><g><g><g><g><line x1="51.5625" y1="177" x2="46.5625" y2="177" style="visibility: inherit;" fill="rgb(0, 0, 0)" stroke="rgb(204, 204, 204)" stroke-width="1px"></line><line x1="51.5625" y1="162.25" x2="46.5625" y2="162.25" style="visibility: inherit;" fill="rgb(0, 0, 0)" stroke="rgb(204, 204, 204)" stroke-width="1px"></line><line x1="51.5625" y1="147.5" x2="46.5625" y2="147.5" style="visibility: inherit;" fill="rgb(0, 0, 0)" stroke="rgb(204, 204, 204)" stroke-width="1px"></line><line x1="51.5625" y1="132.74999999999997" x2="46.5625" y2="132.74999999999997" style="visibility: inherit;" fill="rgb(0, 0, 0)" stroke="rgb(204, 204, 204)" stroke-width="1px"></line><line x1="51.5625" y1="118.00000000000001" x2="46.5625" y2="118.00000000000001" style="visibility: inherit;" fill="rgb(0, 0, 0)" stroke="rgb(204, 204, 204)" stroke-width="1px"></line><line x1="51.5625" y1="103.25" x2="46.5625" y2="103.25" style="visibility: inherit;" fill="rgb(0, 0, 0)" stroke="rgb(204, 204, 204)" stroke-width="1px"></line><line x1="51.5625" y1="88.5" x2="46.5625" y2="88.5" style="visibility: inherit;" fill="rgb(0, 0, 0)" stroke="rgb(204, 204, 204)" stroke-width="1px"></line><line x1="51.5625" y1="73.75" x2="46.5625" y2="73.75" style="visibility: inherit;" fill="rgb(0, 0, 0)" stroke="rgb(204, 204, 204)" stroke-width="1px"></line><line x1="51.5625" y1="58.999999999999986" x2="46.5625" y2="58.999999999999986" style="visibility: inherit;" fill="rgb(0, 0, 0)" stroke="rgb(204, 204, 204)" stroke-width="1px"></line><line x1="51.5625" y1="44.25000000000004" x2="46.5625" y2="44.25000000000004" style="visibility: inherit;" fill="rgb(0, 0, 0)" stroke="rgb(204, 204, 204)" stroke-width="1px"></line><line x1="51.5625" y1="29.500000000000014" x2="46.5625" y2="29.500000000000014" style="visibility: inherit;" fill="rgb(0, 0, 0)" stroke="rgb(204, 204, 204)" stroke-width="1px"></line><line x1="51.5625" y1="14.750000000000007" x2="46.5625" y2="14.750000000000007" style="visibility: inherit;" fill="rgb(0, 0, 0)" stroke="rgb(204, 204, 204)" stroke-width="1px"></line><line x1="51.5625" y1="0" x2="46.5625" y2="0" style="visibility: inherit;" fill="rgb(0, 0, 0)" stroke="rgb(204, 204, 204)" stroke-width="1px"></line></g><g transform="translate(41.5625, 0)"><text x="0" y="177" dx="0em" dy="0.3em" style="text-anchor: end; visibility: hidden; font-family: Roboto, sans-serif; font-size: 12px; font-weight: 200;" fill="rgb(255, 255, 255)" stroke="none" stroke-width="1px">0.95</text><text x="0" y="162.25" dx="0em" dy="0.3em" style="text-anchor: end; visibility: inherit; font-family: Roboto, sans-serif; font-size: 12px; font-weight: 200;" fill="rgb(255, 255, 255)" stroke="none" stroke-width="1px">1</text><text x="0" y="147.5" dx="0em" dy="0.3em" style="text-anchor: end; visibility: hidden; font-family: Roboto, sans-serif; font-size: 12px; font-weight: 200;" fill="rgb(255, 255, 255)" stroke="none" stroke-width="1px">1.05</text><text x="0" y="132.74999999999997" dx="0em" dy="0.3em" style="text-anchor: end; visibility: inherit; font-family: Roboto, sans-serif; font-size: 12px; font-weight: 200;" fill="rgb(255, 255, 255)" stroke="none" stroke-width="1px">1.1</text><text x="0" y="118.00000000000001" dx="0em" dy="0.3em" style="text-anchor: end; visibility: hidden; font-family: Roboto, sans-serif; font-size: 12px; font-weight: 200;" fill="rgb(255, 255, 255)" stroke="none" stroke-width="1px">1.15</text><text x="0" y="103.25" dx="0em" dy="0.3em" style="text-anchor: end; visibility: inherit; font-family: Roboto, sans-serif; font-size: 12px; font-weight: 200;" fill="rgb(255, 255, 255)" stroke="none" stroke-width="1px">1.2</text><text x="0" y="88.5" dx="0em" dy="0.3em" style="text-anchor: end; visibility: hidden; font-family: Roboto, sans-serif; font-size: 12px; font-weight: 200;" fill="rgb(255, 255, 255)" stroke="none" stroke-width="1px">1.25</text><text x="0" y="73.75" dx="0em" dy="0.3em" style="text-anchor: end; visibility: inherit; font-family: Roboto, sans-serif; font-size: 12px; font-weight: 200;" fill="rgb(255, 255, 255)" stroke="none" stroke-width="1px">1.3</text><text x="0" y="58.999999999999986" dx="0em" dy="0.3em" style="text-anchor: end; visibility: hidden; font-family: Roboto, sans-serif; font-size: 12px; font-weight: 200;" fill="rgb(255, 255, 255)" stroke="none" stroke-width="1px">1.35</text><text x="0" y="44.25000000000004" dx="0em" dy="0.3em" style="text-anchor: end; visibility: inherit; font-family: Roboto, sans-serif; font-size: 12px; font-weight: 200;" fill="rgb(255, 255, 255)" stroke="none" stroke-width="1px">1.4</text><text x="0" y="29.500000000000014" dx="0em" dy="0.3em" style="text-anchor: end; visibility: hidden; font-family: Roboto, sans-serif; font-size: 12px; font-weight: 200;" fill="rgb(255, 255, 255)" stroke="none" stroke-width="1px">1.45</text><text x="0" y="14.750000000000007" dx="0em" dy="0.3em" style="text-anchor: end; visibility: inherit; font-family: Roboto, sans-serif; font-size: 12px; font-weight: 200;" fill="rgb(255, 255, 255)" stroke="none" stroke-width="1px">1.5</text><text x="0" y="0" dx="0em" dy="0.3em" style="text-anchor: end; visibility: hidden; font-family: Roboto, sans-serif; font-size: 12px; font-weight: 200;" fill="rgb(255, 255, 255)" stroke="none" stroke-width="1px">1.55</text></g><line x1="51.5625" y1="0" x2="51.5625" y2="177" fill="rgb(0, 0, 0)" stroke="rgb(204, 204, 204)" stroke-width="1px"></line></g></g><g transform="translate(51, 0)" clip-path="url(#clip_0)"><clipPath id="clip_0"><rect width="278" height="177"></rect></clipPath><g><g><g><line x1="0" y1="0" x2="0" y2="177" fill="rgb(0, 0, 0)" stroke="rgb(189, 189, 189)" stroke-width="1px" opacity="0.25"></line><line x1="25.3125" y1="0" x2="25.3125" y2="177" fill="rgb(0, 0, 0)" stroke="rgb(189, 189, 189)" stroke-width="1px" opacity="0.25"></line><line x1="50.625" y1="0" x2="50.625" y2="177" fill="rgb(0, 0, 0)" stroke="rgb(189, 189, 189)" stroke-width="1px" opacity="0.25"></line><line x1="75.9375" y1="0" x2="75.9375" y2="177" fill="rgb(0, 0, 0)" stroke="rgb(189, 189, 189)" stroke-width="1px" opacity="0.25"></line><line x1="101.25" y1="0" x2="101.25" y2="177" fill="rgb(0, 0, 0)" stroke="rgb(189, 189, 189)" stroke-width="1px" opacity="0.25"></line><line x1="126.5625" y1="0" x2="126.5625" y2="177" fill="rgb(0, 0, 0)" stroke="rgb(189, 189, 189)" stroke-width="1px" opacity="0.25"></line><line x1="151.875" y1="0" x2="151.875" y2="177" fill="rgb(0, 0, 0)" stroke="rgb(189, 189, 189)" stroke-width="1px" opacity="0.25"></line><line x1="177.1875" y1="0" x2="177.1875" y2="177" fill="rgb(0, 0, 0)" stroke="rgb(189, 189, 189)" stroke-width="1px" opacity="0.25"></line><line x1="202.5" y1="0" x2="202.5" y2="177" fill="rgb(0, 0, 0)" stroke="rgb(189, 189, 189)" stroke-width="1px" opacity="0.25"></line><line x1="227.8125" y1="0" x2="227.8125" y2="177" fill="rgb(0, 0, 0)" stroke="rgb(189, 189, 189)" stroke-width="1px" opacity="0.25"></line><line x1="253.125" y1="0" x2="253.125" y2="177" fill="rgb(0, 0, 0)" stroke="rgb(189, 189, 189)" stroke-width="1px" opacity="0.25"></line><line x1="278.4375" y1="0" x2="278.4375" y2="177" fill="rgb(0, 0, 0)" stroke="rgb(189, 189, 189)" stroke-width="1px" opacity="0.25"></line></g><g><line x1="0" y1="177" x2="278.4375" y2="177" fill="rgb(0, 0, 0)" stroke="rgb(189, 189, 189)" stroke-width="1px" opacity="0.25"></line><line x1="0" y1="162.25" x2="278.4375" y2="162.25" fill="rgb(0, 0, 0)" stroke="rgb(189, 189, 189)" stroke-width="1px" opacity="0.25"></line><line x1="0" y1="147.5" x2="278.4375" y2="147.5" fill="rgb(0, 0, 0)" stroke="rgb(189, 189, 189)" stroke-width="1px" opacity="0.25"></line><line x1="0" y1="132.74999999999997" x2="278.4375" y2="132.74999999999997" fill="rgb(0, 0, 0)" stroke="rgb(189, 189, 189)" stroke-width="1px" opacity="0.25"></line><line x1="0" y1="118.00000000000001" x2="278.4375" y2="118.00000000000001" fill="rgb(0, 0, 0)" stroke="rgb(189, 189, 189)" stroke-width="1px" opacity="0.25"></line><line x1="0" y1="103.25" x2="278.4375" y2="103.25" fill="rgb(0, 0, 0)" stroke="rgb(189, 189, 189)" stroke-width="1px" opacity="0.25"></line><line x1="0" y1="88.5" x2="278.4375" y2="88.5" fill="rgb(0, 0, 0)" stroke="rgb(189, 189, 189)" stroke-width="1px" opacity="0.25"></line><line x1="0" y1="73.75" x2="278.4375" y2="73.75" fill="rgb(0, 0, 0)" stroke="rgb(189, 189, 189)" stroke-width="1px" opacity="0.25"></line><line x1="0" y1="58.999999999999986" x2="278.4375" y2="58.999999999999986" fill="rgb(0, 0, 0)" stroke="rgb(189, 189, 189)" stroke-width="1px" opacity="0.25"></line><line x1="0" y1="44.25000000000004" x2="278.4375" y2="44.25000000000004" fill="rgb(0, 0, 0)" stroke="rgb(189, 189, 189)" stroke-width="1px" opacity="0.25"></line><line x1="0" y1="29.500000000000014" x2="278.4375" y2="29.500000000000014" fill="rgb(0, 0, 0)" stroke="rgb(189, 189, 189)" stroke-width="1px" opacity="0.25"></line><line x1="0" y1="14.750000000000007" x2="278.4375" y2="14.750000000000007" fill="rgb(0, 0, 0)" stroke="rgb(189, 189, 189)" stroke-width="1px" opacity="0.25"></line><line x1="0" y1="0" x2="278.4375" y2="0" fill="rgb(0, 0, 0)" stroke="rgb(189, 189, 189)" stroke-width="1px" opacity="0.25"></line></g></g></g><g><g><line x1="0" y1="457.24999999999994" x2="278.4375" y2="457.24999999999994" fill="rgb(0, 0, 0)" stroke="rgb(153, 153, 153)" stroke-width="1.5px"></line></g></g><g><g><line x1="25.3125" y1="0" x2="25.3125" y2="177" fill="rgb(0, 0, 0)" stroke="rgb(153, 153, 153)" stroke-width="1.5px"></line></g></g><g><g><g><g><g><path stroke="rgb(255, 112, 67)" stroke-width="2px" d="M26.578125,292.5789774060249L27.84375,148.39335257560015L29.109374999999996,102.04443311083074L30.375,81.92385451473736L31.640625,74.64711838348474L32.90625,77.53112247006048L34.171875,141.48822139964636L35.43749999999999,109.05198160130982L36.703125,89.85946204589408L37.96875,77.13279863901211L39.234375,143.07851784026496L40.5,109.19226431295054L41.765625,90.20524461333483L43.03125,78.97277649740673L44.296875,72.82239719798753L45.5625,68.53871918024933L46.828125,64.7779586397944L48.09375,63.72424205915237L49.359375,64.14659847425088L50.625,63.93293632864741L51.890625,134.51298654850532L53.15625,104.52728503333388L54.421875,84.88629123033364L55.6875,73.82014159692054L56.953125,68.96646853221951L58.21874999999999,64.90879236860657L59.484375,62.55733942644648L60.75,61.73777720462715L62.015625,60.29790232254896L63.28125,59.552363073955426L64.546875,130.85662175667355L65.8125,102.47186693219523L67.078125,84.97221467775452L68.34375,74.95835789291284L69.609375,68.96868237837123L70.87499999999999,64.8655079953881L72.140625,63.17683561907289L73.40625,61.305662197473026L74.671875,61.07549002274407L75.9375,214.5390990386707L77.203125,159.12080768731744L78.46875,121.12378588270987L79.734375,139.89060625947093L81,110.36633854304814L82.265625,92.16004841850736L83.53125,81.6655758453413L84.796875,75.0642357962644L86.0625,71.51343376016487L87.328125,69.62924632174735L88.59375,68.2061325117411L89.859375,108.72475272463318L91.125,92.00290793203351L92.39062500000001,81.56306253683545L93.65625,76.45649272686887L94.921875,72.62974204114822L96.1875,69.86327317650058L97.453125,66.73548991259825L98.71875,64.01522611842647L99.984375,63.63598846951775L101.25,62.11774210667397L102.515625,105.82769086680415L103.78125,88.51325461102455L105.046875,77.90307052631925L106.3125,71.39903611957874L107.578125,67.74985820662887L108.84375,65.51450809605059L110.109375,64.31466832618204L111.375,59.160773032070914L112.640625,52.77014727184877L113.90625,49.4181188272816L115.171875,94.38515154882568L116.43749999999999,80.81820388057405L117.703125,72.9210093225156L118.96875,68.78597098619433L120.234375,58.650583398525036L121.5,59.35245240460876L122.765625,61.264418534821544L124.03125,61.4989509656348L125.296875,175.41636996712197L126.5625,199.1919088199491L127.828125,268.3730020662996L129.09375,162.6127527320893L130.359375,99.27245644119448L131.625,62.62051016919059L132.890625,39.842662422849195L134.15625,25.681650071736254L135.421875,18.112417739269777L136.6875,13.605468345664525L137.953125,11.086402364362785L139.21875,9.18452755677071L140.484375,154.80806964676006L141.74999999999997,94.59438706660521L143.015625,80.2360075069919L144.28125,51.06450079402058L145.546875,32.270724192385174L146.8125,20.906667980625834L148.078125,13.981566496535907L149.34375,9.832751219180055L150.609375,7.384719672624365L151.875,5.882225074067128L153.140625,152.06949196916483L154.40625,93.27087799705066L155.671875,57.24205317495461L156.9375,35.90607813834068L158.203125,23.331065391534025L159.46875,15.604723963161401L160.734375,11.042164393079277L162,8.11873726118325L163.26562499999997,7.33806822340917L164.53125,6.633641705758784L165.796875,153.1908661877199L167.0625,93.47699768275518L168.328125,57.86047882396284L169.59375,37.805269065846794L170.859375,30.403110589593503L172.125,20.112953571087026L173.390625,14.382705824140215L174.65625,11.309053407051257L175.921875,9.848291960917756L177.1875,9.337330059744652L178.453125,156.61804028543096L179.71875,98.5364995729462L180.984375,75.21398071834658L182.25,50.20444576972256L183.515625,34.89010148664433L184.78125000000003,26.188329204440855L186.046875,20.56134318382783L187.3125,17.80539440555122L188.578125,18.014086910741018L189.84375,25.947767656240746L191.109375,156.95213615965483L192.375,115.81209757370729L193.640625,92.53449083830706L194.90625,77.38569131771204L196.171875,68.18784484433819L197.4375,63.06718226175124L198.703125,60.999400019053304L199.96875,60.46338775122386L201.234375,58.34688402631419L202.5,57.891682633272026L203.765625,177.98524826080273L205.03125,128.82089491671726L206.29687500000003,99.97568094722277L207.5625,83.12463705534843L208.828125,72.85937552926006L210.09375,66.40225785539785L211.35937499999997,63.303920278347945L212.625,62.04467945659005L213.890625,60.6621823153725L215.15625,60.70519899379201L216.421875,177.9649085941969L217.6875,130.38209328312033L218.953125,101.93580837999797L220.21875,86.84775612327465L221.484375,77.06264070017939L222.75,70.34450313653832L224.015625,66.56359985593727L225.28125,63.61366712524756L226.546875,60.489422246660375L227.8125,59.36340642264219L229.078125,177.69434992248256L230.34375,130.51809863909745L231.609375,95.8674098292867L232.87499999999997,72.72746441601987L234.140625,58.82107485436962L235.40625,50.559953290841406L236.671875,45.92034368432844L237.9375,42.81408484409626L239.203125,79.99434375542626L240.46875,168.3718227611674L241.734375,252.0804049770053L243,152.53951505422685L244.265625,92.9443525052076L245.53125,57.26784307813675L246.796875,36.70949806604406L248.0625,23.687445484600147L249.328125,15.99798679530722L250.59375,11.022136355519892L251.859375,8.256291618991273L253.125,6.394533819585106L254.39062500000003,154.78201147713008L255.65625,94.21604240416133L256.921875,58.092525413505136L258.1875,36.38452854804515L259.453125,23.6099910202761L260.71875,15.455536476560836L261.984375,11.009453220241335L263.25,8.223839952393217L264.515625,6.409948226120367L265.78125,5.331488011065869" style="fill: none;" fill="none"></path></g></g></g></g><g opacity="0.2"><g><g><g><path stroke="rgb(255, 112, 67)" stroke-width="2px" d="M26.578125,292.5789774060249L27.84375,61.881977677345276L29.109374999999996,57.549470424652114L30.375,58.262054085731506L31.640625,65.14661169052124L32.90625,81.52073836326599L34.171875,232.94789618253708L35.43749999999999,61.75963258743287L36.703125,61.554223656654365L37.96875,58.23518669605256L39.234375,241.3989738225937L40.5,58.547291517257705L41.765625,61.78671097755432L43.03125,62.14607989788056L44.296875,63.60405778884888L45.5625,62.11622333526612L46.828125,59.138409256935134L48.09375,62.14393472671509L49.359375,64.78006875514984L50.625,63.61246263980867L51.890625,240.37919110059735L53.15625,59.54971945285798L54.421875,55.42518830299378L55.6875,57.221048235893264L56.953125,61.685993432998664L58.21874999999999,58.822295427322395L59.484375,59.03016602993013L60.75,60.50843513011934L62.015625,58.13809132575989L63.28125,58.43405461311341L64.546875,237.8129861354828L65.8125,59.894740343093886L67.078125,58.722738385200515L68.34375,59.93757343292238L69.609375,59.98416936397553L70.87499999999999,58.71074652671814L72.140625,60.64382708072662L73.40625,58.49890208244324L74.671875,60.73023176193237L75.9375,444.73451204970473L77.203125,75.99337077140808L78.46875,64.12825322151186L79.734375,168.04083681106565L81,66.07993698120117L82.265625,64.85061323642732L83.53125,65.92386698722841L84.796875,65.1622257232666L86.0625,66.1872307062149L87.328125,66.80296516418457L88.59375,66.07146179676057L89.859375,169.50268304347992L91.125,66.92014074325562L92.39062500000001,65.90329444408418L93.65625,68.79663801193237L94.921875,66.88961601257324L96.1875,65.71356987953186L97.453125,62.04381501674652L98.71875,59.934830427169814L99.984375,63.0671319961548L101.25,59.840372562408454L102.515625,171.39261400699615L103.78125,62.541600227355964L105.046875,61.987794399261475L106.3125,61.64298450946809L107.578125,62.276091337203994L108.84375,62.16148293018342L110.109375,62.5149086713791L111.375,51.42993009090425L112.640625,43.18420863151551L113.90625,44.390076160430915L115.171875,161.83570063114166L116.43749999999999,60.46778237819672L117.703125,61.075217485427856L118.96875,62.583413481712356L120.234375,43.44750201702118L121.5,60.40525591373445L122.765625,64.1323677301407L124.03125,61.85074961185455L125.296875,346.2924984693527L127.828125,372.14464193582535L129.09375,3.9723787307739453L130.359375,4.262012004852301L131.625,7.642590761184706L132.890625,5.675890803337117L134.15625,4.440131545066847L135.421875,6.758569240570075L136.6875,6.845044255256672L137.953125,7.3078033924102845L139.21875,6.331715345382697L140.484375,373.243382781744L141.74999999999997,4.273863196372999L143.015625,58.69843816757203L144.28125,7.307240724563618L145.546875,4.080059289932264L146.8125,3.860583662986762L148.078125,3.5939142704010143L149.34375,3.6095283031463756L150.609375,3.712672352790839L151.875,3.628483176231391L153.140625,371.35039231181145L154.40625,5.072957038879414L155.671875,3.1988159418106212L156.9375,3.9021155834198193L158.203125,4.468546271324177L159.46875,4.0152118206024365L160.734375,4.198325037956251L162,3.7335965633392467L163.26562499999997,6.16706466674806L164.53125,5.577001929283155L165.796875,373.0267029106617L167.0625,3.906194925308241L168.328125,4.435700535774244L169.59375,7.722454428672804L170.859375,19.299872875213644L172.125,4.677718043327345L173.390625,5.787334203720099L174.65625,6.69857478141786L175.921875,7.657149791717543L177.1875,8.570887207984937L178.453125,377.5391056239605L179.71875,11.414188504219062L180.984375,40.23020243644715L182.25,12.690143346786511L183.515625,11.918585062026985L184.78125000000003,13.135670781135572L186.046875,12.120864152908338L187.3125,13.671471238136299L188.578125,18.32712566852571L189.84375,37.848288774490356L191.109375,353.4586889147758L192.375,54.102039694786086L193.640625,57.618080735206604L194.90625,54.66249203681946L196.171875,54.39107513427735L197.4375,55.3861883878708L198.703125,57.89772665500642L199.96875,59.65936934947969L201.234375,55.1721284389496L202.5,57.20888054370881L203.765625,358.12559670209885L205.03125,55.07436490058899L206.29687500000003,56.707859992980964L207.5625,57.848071217536926L208.828125,57.46148324012758L210.09375,56.71658134460449L211.35937499999997,58.65641391277313L212.625,60.155818223953254L213.890625,58.58843660354616L215.15625,60.76972401142121L216.421875,353.8544729948043L217.6875,59.00787031650544L218.953125,59.266381025314345L220.21875,64.2156777381897L221.484375,62.38496756553651L222.75,60.26729679107666L224.015625,60.89224493503572L225.28125,59.18876802921295L226.546875,55.8030549287796L227.8125,57.674382686615004L229.078125,355.1907651722431L230.34375,59.753721714019775L231.609375,43.891376614570625L232.87499999999997,38.0175462961197L234.140625,37.961490511894226L235.40625,38.16827094554901L236.671875,38.96092927455903L237.9375,38.15469658374787L239.203125,135.76473212242126L240.46875,300.93804126977915L241.734375,377.6432783007621L243,3.2281801700592236L244.265625,3.5516086816787853L245.53125,3.7530789375305242L246.796875,5.871980547904982L248.0625,4.154366612434407L249.328125,4.463798761367817L250.59375,3.5583606958389415L251.859375,4.107524514198323L253.125,3.6018971204757757L254.39062500000003,377.3632279634475L255.65625,3.3670887947082653L256.921875,3.9072499275207653L258.1875,3.822533249855055L259.453125,4.448184728622456L260.71875,3.2238546609878735L261.984375,4.340328335762037L263.25,4.045420050621039L264.515625,3.68911063671114L265.78125,3.7137976884842114" style="fill: none;" fill="none"></path></g></g></g></g></g></g><g transform="translate(51, 177)" clip-path="url(#clip_1)"><clipPath id="clip_1"><rect width="278" height="23"></rect></clipPath><g><g><line x1="0" y1="0" x2="0" y2="5" style="visibility: inherit;" fill="rgb(0, 0, 0)" stroke="rgb(204, 204, 204)" stroke-width="1px"></line><line x1="25.3125" y1="0" x2="25.3125" y2="5" style="visibility: inherit;" fill="rgb(0, 0, 0)" stroke="rgb(204, 204, 204)" stroke-width="1px"></line><line x1="50.625" y1="0" x2="50.625" y2="5" style="visibility: inherit;" fill="rgb(0, 0, 0)" stroke="rgb(204, 204, 204)" stroke-width="1px"></line><line x1="75.9375" y1="0" x2="75.9375" y2="5" style="visibility: inherit;" fill="rgb(0, 0, 0)" stroke="rgb(204, 204, 204)" stroke-width="1px"></line><line x1="101.25" y1="0" x2="101.25" y2="5" style="visibility: inherit;" fill="rgb(0, 0, 0)" stroke="rgb(204, 204, 204)" stroke-width="1px"></line><line x1="126.5625" y1="0" x2="126.5625" y2="5" style="visibility: inherit;" fill="rgb(0, 0, 0)" stroke="rgb(204, 204, 204)" stroke-width="1px"></line><line x1="151.875" y1="0" x2="151.875" y2="5" style="visibility: inherit;" fill="rgb(0, 0, 0)" stroke="rgb(204, 204, 204)" stroke-width="1px"></line><line x1="177.1875" y1="0" x2="177.1875" y2="5" style="visibility: inherit;" fill="rgb(0, 0, 0)" stroke="rgb(204, 204, 204)" stroke-width="1px"></line><line x1="202.5" y1="0" x2="202.5" y2="5" style="visibility: inherit;" fill="rgb(0, 0, 0)" stroke="rgb(204, 204, 204)" stroke-width="1px"></line><line x1="227.8125" y1="0" x2="227.8125" y2="5" style="visibility: inherit;" fill="rgb(0, 0, 0)" stroke="rgb(204, 204, 204)" stroke-width="1px"></line><line x1="253.125" y1="0" x2="253.125" y2="5" style="visibility: inherit;" fill="rgb(0, 0, 0)" stroke="rgb(204, 204, 204)" stroke-width="1px"></line><line x1="278.4375" y1="0" x2="278.4375" y2="5" style="visibility: inherit;" fill="rgb(0, 0, 0)" stroke="rgb(204, 204, 204)" stroke-width="1px"></line></g><g transform="translate(0, 8)"><text x="0" y="0" dx="0em" dy="0.95em" style="text-anchor: middle; visibility: hidden; font-family: Roboto, sans-serif; font-size: 12px; font-weight: 200;" fill="rgb(255, 255, 255)" stroke="none" stroke-width="1px">-2k</text><text x="25.3125" y="0" dx="0em" dy="0.95em" style="text-anchor: middle; visibility: inherit; font-family: Roboto, sans-serif; font-size: 12px; font-weight: 200;" fill="rgb(255, 255, 255)" stroke="none" stroke-width="1px">0</text><text x="50.625" y="0" dx="0em" dy="0.95em" style="text-anchor: middle; visibility: inherit; font-family: Roboto, sans-serif; font-size: 12px; font-weight: 200;" fill="rgb(255, 255, 255)" stroke="none" stroke-width="1px">2k</text><text x="75.9375" y="0" dx="0em" dy="0.95em" style="text-anchor: middle; visibility: inherit; font-family: Roboto, sans-serif; font-size: 12px; font-weight: 200;" fill="rgb(255, 255, 255)" stroke="none" stroke-width="1px">4k</text><text x="101.25" y="0" dx="0em" dy="0.95em" style="text-anchor: middle; visibility: inherit; font-family: Roboto, sans-serif; font-size: 12px; font-weight: 200;" fill="rgb(255, 255, 255)" stroke="none" stroke-width="1px">6k</text><text x="126.5625" y="0" dx="0em" dy="0.95em" style="text-anchor: middle; visibility: inherit; font-family: Roboto, sans-serif; font-size: 12px; font-weight: 200;" fill="rgb(255, 255, 255)" stroke="none" stroke-width="1px">8k</text><text x="151.875" y="0" dx="0em" dy="0.95em" style="text-anchor: middle; visibility: inherit; font-family: Roboto, sans-serif; font-size: 12px; font-weight: 200;" fill="rgb(255, 255, 255)" stroke="none" stroke-width="1px">10k</text><text x="177.1875" y="0" dx="0em" dy="0.95em" style="text-anchor: middle; visibility: inherit; font-family: Roboto, sans-serif; font-size: 12px; font-weight: 200;" fill="rgb(255, 255, 255)" stroke="none" stroke-width="1px">12k</text><text x="202.5" y="0" dx="0em" dy="0.95em" style="text-anchor: middle; visibility: inherit; font-family: Roboto, sans-serif; font-size: 12px; font-weight: 200;" fill="rgb(255, 255, 255)" stroke="none" stroke-width="1px">14k</text><text x="227.8125" y="0" dx="0em" dy="0.95em" style="text-anchor: middle; visibility: inherit; font-family: Roboto, sans-serif; font-size: 12px; font-weight: 200;" fill="rgb(255, 255, 255)" stroke="none" stroke-width="1px">16k</text><text x="253.125" y="0" dx="0em" dy="0.95em" style="text-anchor: middle; visibility: inherit; font-family: Roboto, sans-serif; font-size: 12px; font-weight: 200;" fill="rgb(255, 255, 255)" stroke="none" stroke-width="1px">18k</text><text x="278.4375" y="0" dx="0em" dy="0.95em" style="text-anchor: middle; visibility: hidden; font-family: Roboto, sans-serif; font-size: 12px; font-weight: 200;" fill="rgb(255, 255, 255)" stroke="none" stroke-width="1px">20k</text></g><line x1="0" y1="0" x2="278.4375" y2="0" fill="rgb(0, 0, 0)" stroke="rgb(204, 204, 204)" stroke-width="1px"></line></g></g></g></g></svg>