<svg viewBox="0 0 330 200" xmlns="http://www.w3.org/2000/svg"><g><g><g><g><g><line x1="72.34375" y1="177" x2="67.34375" y2="177" style="visibility: inherit;" fill="rgb(0, 0, 0)" stroke="rgb(204, 204, 204)" stroke-width="1px"></line><line x1="72.34375" y1="164.35714285714286" x2="67.34375" y2="164.35714285714286" style="visibility: inherit;" fill="rgb(0, 0, 0)" stroke="rgb(204, 204, 204)" stroke-width="1px"></line><line x1="72.34375" y1="151.7142857142857" x2="67.34375" y2="151.7142857142857" style="visibility: inherit;" fill="rgb(0, 0, 0)" stroke="rgb(204, 204, 204)" stroke-width="1px"></line><line x1="72.34375" y1="139.07142857142856" x2="67.34375" y2="139.07142857142856" style="visibility: inherit;" fill="rgb(0, 0, 0)" stroke="rgb(204, 204, 204)" stroke-width="1px"></line><line x1="72.34375" y1="126.42857142857142" x2="67.34375" y2="126.42857142857142" style="visibility: inherit;" fill="rgb(0, 0, 0)" stroke="rgb(204, 204, 204)" stroke-width="1px"></line><line x1="72.34375" y1="113.78571428571428" x2="67.34375" y2="113.78571428571428" style="visibility: inherit;" fill="rgb(0, 0, 0)" stroke="rgb(204, 204, 204)" stroke-width="1px"></line><line x1="72.34375" y1="101.14285714285714" x2="67.34375" y2="101.14285714285714" style="visibility: inherit;" fill="rgb(0, 0, 0)" stroke="rgb(204, 204, 204)" stroke-width="1px"></line><line x1="72.34375" y1="88.5" x2="67.34375" y2="88.5" style="visibility: inherit;" fill="rgb(0, 0, 0)" stroke="rgb(204, 204, 204)" stroke-width="1px"></line><line x1="72.34375" y1="75.85714285714285" x2="67.34375" y2="75.85714285714285" style="visibility: inherit;" fill="rgb(0, 0, 0)" stroke="rgb(204, 204, 204)" stroke-width="1px"></line><line x1="72.34375" y1="63.21428571428571" x2="67.34375" y2="63.21428571428571" style="visibility: inherit;" fill="rgb(0, 0, 0)" stroke="rgb(204, 204, 204)" stroke-width="1px"></line><line x1="72.34375" y1="50.57142857142855" x2="67.34375" y2="50.57142857142855" style="visibility: inherit;" fill="rgb(0, 0, 0)" stroke="rgb(204, 204, 204)" stroke-width="1px"></line><line x1="72.34375" y1="37.92857142857143" x2="67.34375" y2="37.92857142857143" style="visibility: inherit;" fill="rgb(0, 0, 0)" stroke="rgb(204, 204, 204)" stroke-width="1px"></line><line x1="72.34375" y1="25.285714285714274" x2="67.34375" y2="25.285714285714274" style="visibility: inherit;" fill="rgb(0, 0, 0)" stroke="rgb(204, 204, 204)" stroke-width="1px"></line><line x1="72.34375" y1="12.642857142857117" x2="67.34375" y2="12.642857142857117" style="visibility: inherit;" fill="rgb(0, 0, 0)" stroke="rgb(204, 204, 204)" stroke-width="1px"></line><line x1="72.34375" y1="0" x2="67.34375" y2="0" style="visibility: inherit;" fill="rgb(0, 0, 0)" stroke="rgb(204, 204, 204)" stroke-width="1px"></line></g><g transform="translate(62.34375, 0)"><text x="0" y="177" dx="0em" dy="0.3em" style="text-anchor: end; visibility: hidden; font-family: Roboto, sans-serif; font-size: 12px; font-weight: 200;" fill="rgb(255, 255, 255)" stroke="none" stroke-width="1px">2e-3</text><text x="0" y="164.35714285714286" dx="0em" dy="0.3em" style="text-anchor: end; visibility: inherit; font-family: Roboto, sans-serif; font-size: 12px; font-weight: 200;" fill="rgb(255, 255, 255)" stroke="none" stroke-width="1px">2.5e-3</text><text x="0" y="151.7142857142857" dx="0em" dy="0.3em" style="text-anchor: end; visibility: hidden; font-family: Roboto, sans-serif; font-size: 12px; font-weight: 200;" fill="rgb(255, 255, 255)" stroke="none" stroke-width="1px">3e-3</text><text x="0" y="139.07142857142856" dx="0em" dy="0.3em" style="text-anchor: end; visibility: inherit; font-family: Roboto, sans-serif; font-size: 12px; font-weight: 200;" fill="rgb(255, 255, 255)" stroke="none" stroke-width="1px">3.5e-3</text><text x="0" y="126.42857142857142" dx="0em" dy="0.3em" style="text-anchor: end; visibility: hidden; font-family: Roboto, sans-serif; font-size: 12px; font-weight: 200;" fill="rgb(255, 255, 255)" stroke="none" stroke-width="1px">4e-3</text><text x="0" y="113.78571428571428" dx="0em" dy="0.3em" style="text-anchor: end; visibility: inherit; font-family: Roboto, sans-serif; font-size: 12px; font-weight: 200;" fill="rgb(255, 255, 255)" stroke="none" stroke-width="1px">4.5e-3</text><text x="0" y="101.14285714285714" dx="0em" dy="0.3em" style="text-anchor: end; visibility: hidden; font-family: Roboto, sans-serif; font-size: 12px; font-weight: 200;" fill="rgb(255, 255, 255)" stroke="none" stroke-width="1px">5e-3</text><text x="0" y="88.5" dx="0em" dy="0.3em" style="text-anchor: end; visibility: inherit; font-family: Roboto, sans-serif; font-size: 12px; font-weight: 200;" fill="rgb(255, 255, 255)" stroke="none" stroke-width="1px">5.5e-3</text><text x="0" y="75.85714285714285" dx="0em" dy="0.3em" style="text-anchor: end; visibility: hidden; font-family: Roboto, sans-serif; font-size: 12px; font-weight: 200;" fill="rgb(255, 255, 255)" stroke="none" stroke-width="1px">6e-3</text><text x="0" y="63.21428571428571" dx="0em" dy="0.3em" style="text-anchor: end; visibility: inherit; font-family: Roboto, sans-serif; font-size: 12px; font-weight: 200;" fill="rgb(255, 255, 255)" stroke="none" stroke-width="1px">6.5e-3</text><text x="0" y="50.57142857142855" dx="0em" dy="0.3em" style="text-anchor: end; visibility: hidden; font-family: Roboto, sans-serif; font-size: 12px; font-weight: 200;" fill="rgb(255, 255, 255)" stroke="none" stroke-width="1px">7e-3</text><text x="0" y="37.92857142857143" dx="0em" dy="0.3em" style="text-anchor: end; visibility: inherit; font-family: Roboto, sans-serif; font-size: 12px; font-weight: 200;" fill="rgb(255, 255, 255)" stroke="none" stroke-width="1px">7.5e-3</text><text x="0" y="25.285714285714274" dx="0em" dy="0.3em" style="text-anchor: end; visibility: hidden; font-family: Roboto, sans-serif; font-size: 12px; font-weight: 200;" fill="rgb(255, 255, 255)" stroke="none" stroke-width="1px">8e-3</text><text x="0" y="12.642857142857117" dx="0em" dy="0.3em" style="text-anchor: end; visibility: inherit; font-family: Roboto, sans-serif; font-size: 12px; font-weight: 200;" fill="rgb(255, 255, 255)" stroke="none" stroke-width="1px">8.5e-3</text><text x="0" y="0" dx="0em" dy="0.3em" style="text-anchor: end; visibility: hidden; font-family: Roboto, sans-serif; font-size: 12px; font-weight: 200;" fill="rgb(255, 255, 255)" stroke="none" stroke-width="1px">9e-3</text></g><line x1="72.34375" y1="0" x2="72.34375" y2="177" fill="rgb(0, 0, 0)" stroke="rgb(204, 204, 204)" stroke-width="1px"></line></g></g><g transform="translate(72, 0)" clip-path="url(#clip_0)"><clipPath id="clip_0"><rect width="257" height="177"></rect></clipPath><g><g><g><line x1="0" y1="0" x2="0" y2="177" fill="rgb(0, 0, 0)" stroke="rgb(189, 189, 189)" stroke-width="1px" opacity="0.25"></line><line x1="21.471354166666664" y1="0" x2="21.471354166666664" y2="177" fill="rgb(0, 0, 0)" stroke="rgb(189, 189, 189)" stroke-width="1px" opacity="0.25"></line><line x1="42.94270833333333" y1="0" x2="42.94270833333333" y2="177" fill="rgb(0, 0, 0)" stroke="rgb(189, 189, 189)" stroke-width="1px" opacity="0.25"></line><line x1="64.4140625" y1="0" x2="64.4140625" y2="177" fill="rgb(0, 0, 0)" stroke="rgb(189, 189, 189)" stroke-width="1px" opacity="0.25"></line><line x1="85.88541666666666" y1="0" x2="85.88541666666666" y2="177" fill="rgb(0, 0, 0)" stroke="rgb(189, 189, 189)" stroke-width="1px" opacity="0.25"></line><line x1="107.35677083333334" y1="0" x2="107.35677083333334" y2="177" fill="rgb(0, 0, 0)" stroke="rgb(189, 189, 189)" stroke-width="1px" opacity="0.25"></line><line x1="128.828125" y1="0" x2="128.828125" y2="177" fill="rgb(0, 0, 0)" stroke="rgb(189, 189, 189)" stroke-width="1px" opacity="0.25"></line><line x1="150.29947916666669" y1="0" x2="150.29947916666669" y2="177" fill="rgb(0, 0, 0)" stroke="rgb(189, 189, 189)" stroke-width="1px" opacity="0.25"></line><line x1="171.77083333333331" y1="0" x2="171.77083333333331" y2="177" fill="rgb(0, 0, 0)" stroke="rgb(189, 189, 189)" stroke-width="1px" opacity="0.25"></line><line x1="193.2421875" y1="0" x2="193.2421875" y2="177" fill="rgb(0, 0, 0)" stroke="rgb(189, 189, 189)" stroke-width="1px" opacity="0.25"></line><line x1="214.71354166666669" y1="0" x2="214.71354166666669" y2="177" fill="rgb(0, 0, 0)" stroke="rgb(189, 189, 189)" stroke-width="1px" opacity="0.25"></line><line x1="236.18489583333331" y1="0" x2="236.18489583333331" y2="177" fill="rgb(0, 0, 0)" stroke="rgb(189, 189, 189)" stroke-width="1px" opacity="0.25"></line><line x1="257.65625" y1="0" x2="257.65625" y2="177" fill="rgb(0, 0, 0)" stroke="rgb(189, 189, 189)" stroke-width="1px" opacity="0.25"></line></g><g><line x1="0" y1="177" x2="257.65625" y2="177" fill="rgb(0, 0, 0)" stroke="rgb(189, 189, 189)" stroke-width="1px" opacity="0.25"></line><line x1="0" y1="164.35714285714286" x2="257.65625" y2="164.35714285714286" fill="rgb(0, 0, 0)" stroke="rgb(189, 189, 189)" stroke-width="1px" opacity="0.25"></line><line x1="0" y1="151.7142857142857" x2="257.65625" y2="151.7142857142857" fill="rgb(0, 0, 0)" stroke="rgb(189, 189, 189)" stroke-width="1px" opacity="0.25"></line><line x1="0" y1="139.07142857142856" x2="257.65625" y2="139.07142857142856" fill="rgb(0, 0, 0)" stroke="rgb(189, 189, 189)" stroke-width="1px" opacity="0.25"></line><line x1="0" y1="126.42857142857142" x2="257.65625" y2="126.42857142857142" fill="rgb(0, 0, 0)" stroke="rgb(189, 189, 189)" stroke-width="1px" opacity="0.25"></line><line x1="0" y1="113.78571428571428" x2="257.65625" y2="113.78571428571428" fill="rgb(0, 0, 0)" stroke="rgb(189, 189, 189)" stroke-width="1px" opacity="0.25"></line><line x1="0" y1="101.14285714285714" x2="257.65625" y2="101.14285714285714" fill="rgb(0, 0, 0)" stroke="rgb(189, 189, 189)" stroke-width="1px" opacity="0.25"></line><line x1="0" y1="88.5" x2="257.65625" y2="88.5" fill="rgb(0, 0, 0)" stroke="rgb(189, 189, 189)" stroke-width="1px" opacity="0.25"></line><line x1="0" y1="75.85714285714285" x2="257.65625" y2="75.85714285714285" fill="rgb(0, 0, 0)" stroke="rgb(189, 189, 189)" stroke-width="1px" opacity="0.25"></line><line x1="0" y1="63.21428571428571" x2="257.65625" y2="63.21428571428571" fill="rgb(0, 0, 0)" stroke="rgb(189, 189, 189)" stroke-width="1px" opacity="0.25"></line><line x1="0" y1="50.57142857142855" x2="257.65625" y2="50.57142857142855" fill="rgb(0, 0, 0)" stroke="rgb(189, 189, 189)" stroke-width="1px" opacity="0.25"></line><line x1="0" y1="37.92857142857143" x2="257.65625" y2="37.92857142857143" fill="rgb(0, 0, 0)" stroke="rgb(189, 189, 189)" stroke-width="1px" opacity="0.25"></line><line x1="0" y1="25.285714285714274" x2="257.65625" y2="25.285714285714274" fill="rgb(0, 0, 0)" stroke="rgb(189, 189, 189)" stroke-width="1px" opacity="0.25"></line><line x1="0" y1="12.642857142857117" x2="257.65625" y2="12.642857142857117" fill="rgb(0, 0, 0)" stroke="rgb(189, 189, 189)" stroke-width="1px" opacity="0.25"></line><line x1="0" y1="0" x2="257.65625" y2="0" fill="rgb(0, 0, 0)" stroke="rgb(189, 189, 189)" stroke-width="1px" opacity="0.25"></line></g></g></g><g><g><line x1="0" y1="227.57142857142858" x2="257.65625" y2="227.57142857142858" fill="rgb(0, 0, 0)" stroke="rgb(153, 153, 153)" stroke-width="1.5px"></line></g></g><g><g><line x1="21.471354166666664" y1="0" x2="21.471354166666664" y2="177" fill="rgb(0, 0, 0)" stroke="rgb(153, 153, 153)" stroke-width="1.5px"></line></g></g><g><g><g><g><g><path stroke="rgb(255, 112, 67)" stroke-width="2px" d="M28.986328125,-16.64750869734386L30.059895833333332,35.2061309370607L31.133463541666668,49.18869925374189L32.20703125,39.11143824109404L33.280598958333336,35.285287658832175L34.354166666666664,8.230027871647135L35.427734375,45.61276667647032L36.501302083333336,77.94154046856015L37.57486979166667,67.2275599775011L38.6484375,65.19989736693718L39.722005208333336,32.77955257734661L40.795572916666664,31.021763925451772L41.869140625,42.74448426912447L42.94270833333333,57.71491952085134L44.016276041666664,3.504456996033281L45.08984375,19.83133858590946L46.163411458333336,33.9633103046136L47.236979166666664,65.09974736420827L48.310546875,67.98439463555376L49.384114583333336,22.818874135648848L50.457682291666664,37.81265058255981L51.53125,13.893344886357768L52.604817708333336,19.60322935142186L53.67838541666667,-1.5388810833240727L54.751953125,8.060868151218129L55.825520833333336,41.99885799087868L56.899088541666664,8.641358823853544L57.97265625,43.83370062734371L59.04622395833333,62.103429650004195L60.119791666666664,44.213329807440275L61.193359375,50.99355025175844L62.266927083333336,38.31113913083082L63.340494791666664,8.537970466756198L64.4140625,40.60073504228694L65.48763020833333,39.940712908151696L66.56119791666667,21.622712949018368L67.634765625,81.98266872856298L68.70833333333333,101.68506462630332L69.78190104166666,84.85957964913584L70.85546875,96.24080386155792L71.92903645833333,105.7946844609103L73.00260416666667,84.2803985135804L74.076171875,78.28908082727766L75.14973958333334,92.32926447610559L76.22330729166667,97.68232445246323L77.296875,60.71123616751437L78.37044270833333,70.91649174478712L79.44401041666667,83.80852044737792L80.517578125,66.33508620820068L81.59114583333333,47.51767151408795L82.66471354166667,72.45603164454057L83.73828125,109.72017902343971L84.81184895833333,117.91167621109511L85.88541666666666,120.49596866501699L86.958984375,124.60944829571115L88.03255208333333,142.60054897458676L89.10611979166667,115.78255780070077L90.1796875,74.37423446536323L91.25325520833334,89.68122585294238L92.32682291666667,57.06192352962755L93.400390625,71.40012905397235L94.47395833333333,96.855577644312L95.54752604166667,103.95637577548413L96.62109375,79.075475213718L97.69466145833333,74.13554040040637L98.76822916666667,71.8069310457557L99.841796875,97.36301612159905L100.91536458333333,95.72061008096516L101.98893229166666,75.353570095697L103.0625,111.17075242774766L104.13606770833333,69.494763641902L105.20963541666667,70.55098422301133L106.283203125,60.396810286833755L107.35677083333334,92.06582349933961L108.43033854166667,38.18096943096132L109.50390625,13.703804308832225L110.57747395833333,74.47010485679965L111.65104166666667,94.32889316057087L112.724609375,113.3111196576693L113.79817708333333,118.11870886222779L114.87174479166667,129.07965284935392L115.9453125,86.17224004095135L117.01888020833333,49.87461464369072L118.09244791666666,72.73297578466484L119.166015625,117.97968312239678L120.23958333333333,129.18619903151665L121.31315104166667,145.4302389553158L122.38671875,121.17420299557088L123.46028645833334,140.79781139893248L124.53385416666667,120.67930665464945L125.607421875,146.83436861231903L126.68098958333333,153.03322304671562L127.75455729166667,133.33581963411305L128.828125,144.14978664665932L129.90169270833334,112.14500053575769L130.97526041666666,138.7471104771605L132.048828125,120.25165329852256L133.12239583333334,126.52821900991444L134.19596354166669,121.56049923904018L135.26953125,135.39582081215804L136.34309895833334,155.9705762759729L137.41666666666666,156.7836089470232L138.490234375,105.8647925936129L139.56380208333331,114.40696771383816L140.63736979166666,18.45615621343998L141.7109375,35.6184748356259L142.78450520833334,42.26298207587867L143.85807291666666,73.2092836063488L144.931640625,79.64672444232606L146.00520833333334,79.31577651119923L147.07877604166666,111.374206539492L148.15234375,126.38358035964637L149.22591145833334,75.47946751499184L150.29947916666669,42.7343812603508L151.373046875,71.13188535470009L152.44661458333334,88.70202414945848L153.52018229166666,112.06318968963846L154.59375,106.44389111486979L155.66731770833331,129.12549270184155L156.74088541666666,143.70254063962972L157.814453125,132.82798425854403L158.88802083333334,110.65989427482067L159.96158854166666,97.28428584209922L161.03515625,128.83954005111787L162.10872395833334,136.93912447717508L163.18229166666666,126.25384377099533L164.255859375,136.64157448377117L165.32942708333334,137.0183030301216L166.40299479166669,145.17555007231815L167.4765625,109.51921391423096L168.55013020833334,120.27563206589551L169.62369791666666,118.60677836635652L170.697265625,147.36135140707884L171.77083333333331,131.98129900464463L172.84440104166666,158.81950844036328L173.91796875,118.5157694064698L174.99153645833334,109.8225362594796L176.06510416666666,122.25173680257467L177.138671875,135.78981183354486L178.21223958333334,103.49010578431485L179.28580729166666,116.22339795026572L180.359375,146.33874829200016L181.43294270833334,146.40927104639985L182.50651041666669,144.62108285792456L183.580078125,114.21294091256561L184.65364583333334,136.21235382772744L185.72721354166666,144.91591889998386L186.80078125,103.72862600525573L187.87434895833331,118.7133742791691L188.94791666666666,138.73446212362774L190.021484375,114.10233122754158L191.09505208333334,119.73915407745874L192.16861979166666,146.00771927765172L193.2421875,163.7673481469862L194.31575520833334,161.06077358378758L195.38932291666666,147.19732193863948L196.462890625,125.55449294023505L197.53645833333334,144.72533833623746L198.61002604166669,92.8227024235774L199.68359375,130.2887801879465L200.75716145833334,106.42668813638802L201.83072916666666,128.1002328822318L202.904296875,152.98288750381448L203.97786458333331,142.1131912436811L205.05143229166666,124.39875139864083L206.125,58.504616099172424L207.19856770833334,72.55269577784327L208.27213541666666,92.62443496651386L209.345703125,97.78395170000496L210.41927083333334,124.42027463567354L211.49283854166666,129.9795837937633L212.56640625,98.55055269809178L213.63997395833334,101.88979186328928L214.71354166666669,84.8978462621474L215.787109375,101.71704200620587L216.86067708333334,134.69192009930606L217.93424479166666,131.60607097775045L219.0078125,148.6893526541226L220.08138020833331,155.67288409536846L221.15494791666666,158.86771669871922L222.228515625,171.88271674521158L223.30208333333334,151.06261861903474L224.37565104166666,152.53514127280545L225.44921875,160.29161278332865L226.52278645833334,166.6275036144292L227.59635416666666,160.61384151327823L228.669921875,164.92444140656718L229.74348958333334,170.78870970126349L230.81705729166669,167.93804334748177L231.890625,171.15685407352336L232.96419270833334,163.14416770177078L234.03776041666666,118.65164681546084L235.111328125,93.05529116469222L236.18489583333331,104.4772347619646" style="fill: none;" fill="none"></path></g><g><path stroke="rgb(0, 119, 187)" stroke-width="2px" d="M32.20703125,-61.96323733883248L42.94270833333333,0.8724303521519716L53.67838541666667,28.919353642348295L64.4140625,44.09079151952037L75.14973958333334,59.65505932891958L85.88541666666666,53.91288386914797L96.62109375,77.92480526532445L107.35677083333334,87.61748984128755L118.09244791666666,95.51189998139482L128.828125,95.08228971929165L139.56380208333331,101.48223202953811L150.29947916666669,101.00789089810655L161.03515625,95.02205232709142L171.77083333333331,103.28693268141026L182.50651041666669,109.19630896926847L182.50651041666669,112.7408676173553L193.2421875,113.5015257238982L203.97786458333331,112.06901949396013L214.71354166666669,114.46132507842513L225.44921875,107.610911902928L236.18489583333331,109.06574402271721" style="fill: none;" fill="none"></path></g></g></g></g><g opacity="0.2"><g><g><g><path stroke="rgb(255, 112, 67)" stroke-width="2px" d="M27.912760416666668,-9.707870942141346L28.986328125,45.85212504118679L30.059895833333332,110.809235318963L31.133463541666668,69.8102715467768L32.20703125,24.147880081619512L33.280598958333336,29.58076468961579L34.354166666666664,-32.20562828012877L35.427734375,101.56481375545263L36.501302083333336,126.37136572333318L37.57486979166667,51.1691831227924L38.6484375,62.15983351586119L39.722005208333336,-15.837245403655944L40.795572916666664,28.38552724995781L41.869140625,60.326778946178294L42.94270833333333,80.16920404136181L44.016276041666664,-77.80826376059227L45.08984375,44.32112372773034L46.163411458333336,55.16098887154034L47.236979166666664,111.80403411281961L48.310546875,72.31134503973381L49.384114583333336,-44.929214003895034L50.457682291666664,60.30327688796178L51.53125,-21.98557693617688L52.604817708333336,28.168050789407317L53.67838541666667,-33.25203505051988L54.751953125,22.460488819650237L55.825520833333336,92.90583599784544L56.899088541666664,-41.39488594446866L57.97265625,96.6222108118236L59.04622395833333,89.50802239882094L60.119791666666664,17.37818050490958L61.193359375,61.16388081333465L62.266927083333336,19.287522567169997L63.340494791666664,-36.12178236352549L64.4140625,88.6948817984334L65.48763020833333,38.9506797082722L66.56119791666667,-5.8542869676436755L67.634765625,172.52260235430938L68.70833333333333,131.23865846438068L69.78190104166666,59.62135218775696L70.85546875,113.31264017841644L71.92903645833333,120.12550535904509L73.00260416666667,52.00896959379313L74.076171875,69.30210429802536L75.14973958333334,113.38953994906373L76.22330729166667,105.71191441693476L77.296875,5.254603740360033L78.37044270833333,86.22437511065176L79.44401041666667,103.1465635012303L80.517578125,40.124934849462335L81.59114583333333,19.29154947293655L82.66471354166667,109.86357184020537L83.73828125,165.61640009177583L84.81184895833333,130.19892199257654L85.88541666666666,124.37240734589952L86.958984375,130.7796677417521L88.03255208333333,169.5871999928994L89.10611979166667,75.5555710398725L90.1796875,12.261749462357564L91.25325520833334,112.64171293431095L92.32682291666667,8.132970044655448L93.400390625,92.90743734048945L94.47395833333333,135.0387505298214L95.54752604166667,114.60757297224231L96.62109375,41.75412437106881L97.69466145833333,66.72563818043895L98.76822916666667,68.3140170137797L99.841796875,135.69714373536408L100.91536458333333,93.25700102001429L101.98893229166666,44.803010117794784L103.0625,164.89652592582362L104.13606770833333,6.980780463133523L105.20963541666667,72.13531509467533L106.283203125,45.165549382567384L107.35677083333334,139.56934331809836L108.43033854166667,-42.64631167160616L109.50390625,-23.011943374361326L110.57747395833333,165.61955567875077L111.65104166666667,124.11707561622772L112.724609375,141.78445940331687L113.79817708333333,125.33009266906551L114.87174479166667,145.52106883004308L115.9453125,21.811120828347537L117.01888020833333,-4.571823452200225L118.09244791666666,107.02051749612603L119.166015625,185.84974412899464L120.23958333333333,145.9959728951965L121.31315104166667,169.7962988410145L122.38671875,84.79014905595353L123.46028645833334,170.2332240039749L124.53385416666667,90.50154953822494L125.607421875,186.06696154882334L126.68098958333333,162.3315046983106L127.75455729166667,103.7897145152092L128.828125,160.37073716547872L129.90169270833334,64.1378213694053L130.97526041666666,178.65027538926475L132.048828125,92.5084675305656L133.12239583333334,135.9430675770023L134.19596354166669,114.10891958272882L135.26953125,156.14880317183477L136.34309895833334,186.83270947169513L137.41666666666666,158.00315795359867L138.490234375,29.486568063497522L139.56380208333331,127.22023039417607L140.63736979166666,-125.47006103715728L141.7109375,61.361952768904814L142.78450520833334,52.229742936257786L143.85807291666666,119.62873590205396L144.931640625,89.30288569629192L146.00520833333334,78.819354614509L147.07877604166666,159.4618515819311L148.15234375,148.8976410898779L149.22591145833334,-0.8767017519900058L150.29947916666669,-6.383248121610743L151.373046875,113.72814149622405L152.44661458333334,115.05723234159606L153.52018229166666,147.10493799990843L154.59375,98.01494325271673L155.66731770833331,163.14789508229921L156.74088541666666,165.56811254631194L157.814453125,116.51614968691553L158.88802083333334,77.40775929923568L159.96158854166666,77.22087319301707L161.03515625,176.17242136464586L162.10872395833334,149.0885011162609L163.18229166666666,110.22592271172574L164.255859375,152.2231705529349L165.32942708333334,137.58339584964725L166.40299479166669,157.41142063561293L167.4765625,56.03470967710016L168.55013020833334,136.4102592933923L169.62369791666666,116.10349781704801L170.697265625,190.49321096816234L171.77083333333331,108.9112204009933L172.84440104166666,199.07682259394122L173.91796875,58.0601608556296L174.99153645833334,96.78268653899431L176.06510416666666,140.8955376172172L177.138671875,156.09692438000013L178.21223958333334,55.040546710469876L179.28580729166666,135.32333619919206L180.359375,191.51177380460183L181.43294270833334,146.5150551779994L182.50651041666669,141.93880057521164L183.580078125,68.60072799452713L184.65364583333334,169.2114732004702L185.72721354166666,157.9712665083685L186.80078125,41.94768666316355L187.87434895833331,141.19049669003914L188.94791666666666,168.76609389031572L190.021484375,77.15413488341228L191.09505208333334,128.1943883523345L192.16861979166666,185.41056707794112L193.2421875,190.40679145098798L194.31575520833334,157.0009117389896L195.38932291666666,126.40214447091732L196.462890625,93.09024944262845L197.53645833333334,173.48160643024104L198.61002604166669,14.968748554587345L199.68359375,186.48789683450013L200.75716145833334,70.63355005905031L201.83072916666666,160.6105500009975L202.904296875,190.30686943618846L203.97786458333331,125.80864685348101L205.05143229166666,97.82709163108042L206.125,-40.33658685003011L207.19856770833334,93.62481529584952L208.27213541666666,122.73204374951976L209.345703125,105.52322680024164L210.41927083333334,164.37475903917635L211.49283854166666,138.31854753089803L212.56640625,51.40700605458445L213.63997395833334,106.89865061108554L214.71354166666669,59.409927860434564L215.787109375,126.9458356222936L216.86067708333334,184.15423723895634L217.93424479166666,126.9772972954171L219.0078125,174.31427516868072L220.08138020833331,166.1481812572373L221.15494791666666,163.6599656037454L222.228515625,191.4052168149501L223.30208333333334,119.83247142976947L224.37565104166666,154.7439252534615L225.44921875,171.92632004911346L226.52278645833334,176.13133986108005L227.59635416666666,151.59334836155176L228.669921875,171.3903412465006L229.74348958333334,179.58511214330792L230.81705729166669,163.66204381680916L231.890625,175.9850701625858L232.96419270833334,151.12513814414186L234.03776041666666,51.91286548599599L235.111328125,54.66075768853936L236.18489583333331,121.61015015787311" style="fill: none;" fill="none"></path></g><g><path stroke="rgb(0, 119, 187)" stroke-width="2px" d="M21.471354166666664,-198.56859748491226L32.20703125,19.99997874881539L42.94270833333333,61.194671335497056L53.67838541666667,61.9025354316192L64.4140625,63.89862081195626L75.14973958333334,81.18604484573007L85.88541666666666,45.70148108686719L96.62109375,112.93441717539514L107.35677083333334,101.91231688378113L118.09244791666666,107.23417899331875L128.828125,94.44177085959485L139.56380208333331,111.0473172914769L150.29947916666669,100.29792800705347L161.03515625,86.0550213514694L171.77083333333331,115.67453815628375L182.50651041666669,118.05620565105761L182.50651041666669,118.05620565105761L193.2421875,114.6423197527017L203.97786458333331,109.92047837695904L214.71354166666669,118.04956478891629L225.44921875,97.33566783262151L236.18489583333331,111.2479443305305" style="fill: none;" fill="none"></path></g></g></g></g></g></g><g transform="translate(72, 177)" clip-path="url(#clip_1)"><clipPath id="clip_1"><rect width="257" height="23"></rect></clipPath><g><g><line x1="0" y1="0" x2="0" y2="5" style="visibility: inherit;" fill="rgb(0, 0, 0)" stroke="rgb(204, 204, 204)" stroke-width="1px"></line><line x1="21.471354166666664" y1="0" x2="21.471354166666664" y2="5" style="visibility: inherit;" fill="rgb(0, 0, 0)" stroke="rgb(204, 204, 204)" stroke-width="1px"></line><line x1="42.94270833333333" y1="0" x2="42.94270833333333" y2="5" style="visibility: inherit;" fill="rgb(0, 0, 0)" stroke="rgb(204, 204, 204)" stroke-width="1px"></line><line x1="64.4140625" y1="0" x2="64.4140625" y2="5" style="visibility: inherit;" fill="rgb(0, 0, 0)" stroke="rgb(204, 204, 204)" stroke-width="1px"></line><line x1="85.88541666666666" y1="0" x2="85.88541666666666" y2="5" style="visibility: inherit;" fill="rgb(0, 0, 0)" stroke="rgb(204, 204, 204)" stroke-width="1px"></line><line x1="107.35677083333334" y1="0" x2="107.35677083333334" y2="5" style="visibility: inherit;" fill="rgb(0, 0, 0)" stroke="rgb(204, 204, 204)" stroke-width="1px"></line><line x1="128.828125" y1="0" x2="128.828125" y2="5" style="visibility: inherit;" fill="rgb(0, 0, 0)" stroke="rgb(204, 204, 204)" stroke-width="1px"></line><line x1="150.29947916666669" y1="0" x2="150.29947916666669" y2="5" style="visibility: inherit;" fill="rgb(0, 0, 0)" stroke="rgb(204, 204, 204)" stroke-width="1px"></line><line x1="171.77083333333331" y1="0" x2="171.77083333333331" y2="5" style="visibility: inherit;" fill="rgb(0, 0, 0)" stroke="rgb(204, 204, 204)" stroke-width="1px"></line><line x1="193.2421875" y1="0" x2="193.2421875" y2="5" style="visibility: inherit;" fill="rgb(0, 0, 0)" stroke="rgb(204, 204, 204)" stroke-width="1px"></line><line x1="214.71354166666669" y1="0" x2="214.71354166666669" y2="5" style="visibility: inherit;" fill="rgb(0, 0, 0)" stroke="rgb(204, 204, 204)" stroke-width="1px"></line><line x1="236.18489583333331" y1="0" x2="236.18489583333331" y2="5" style="visibility: inherit;" fill="rgb(0, 0, 0)" stroke="rgb(204, 204, 204)" stroke-width="1px"></line><line x1="257.65625" y1="0" x2="257.65625" y2="5" style="visibility: inherit;" fill="rgb(0, 0, 0)" stroke="rgb(204, 204, 204)" stroke-width="1px"></line></g><g transform="translate(0, 8)"><text x="0" y="0" dx="0em" dy="0.95em" style="text-anchor: middle; visibility: hidden; font-family: Roboto, sans-serif; font-size: 12px; font-weight: 200;" fill="rgb(255, 255, 255)" stroke="none" stroke-width="1px">-2k</text><text x="21.471354166666664" y="0" dx="0em" dy="0.95em" style="text-anchor: middle; visibility: inherit; font-family: Roboto, sans-serif; font-size: 12px; font-weight: 200;" fill="rgb(255, 255, 255)" stroke="none" stroke-width="1px">0</text><text x="42.94270833333333" y="0" dx="0em" dy="0.95em" style="text-anchor: middle; visibility: hidden; font-family: Roboto, sans-serif; font-size: 12px; font-weight: 200;" fill="rgb(255, 255, 255)" stroke="none" stroke-width="1px">2k</text><text x="64.4140625" y="0" dx="0em" dy="0.95em" style="text-anchor: middle; visibility: inherit; font-family: Roboto, sans-serif; font-size: 12px; font-weight: 200;" fill="rgb(255, 255, 255)" stroke="none" stroke-width="1px">4k</text><text x="85.88541666666666" y="0" dx="0em" dy="0.95em" style="text-anchor: middle; visibility: hidden; font-family: Roboto, sans-serif; font-size: 12px; font-weight: 200;" fill="rgb(255, 255, 255)" stroke="none" stroke-width="1px">6k</text><text x="107.35677083333334" y="0" dx="0em" dy="0.95em" style="text-anchor: middle; visibility: inherit; font-family: Roboto, sans-serif; font-size: 12px; font-weight: 200;" fill="rgb(255, 255, 255)" stroke="none" stroke-width="1px">8k</text><text x="128.828125" y="0" dx="0em" dy="0.95em" style="text-anchor: middle; visibility: hidden; font-family: Roboto, sans-serif; font-size: 12px; font-weight: 200;" fill="rgb(255, 255, 255)" stroke="none" stroke-width="1px">10k</text><text x="150.29947916666669" y="0" dx="0em" dy="0.95em" style="text-anchor: middle; visibility: inherit; font-family: Roboto, sans-serif; font-size: 12px; font-weight: 200;" fill="rgb(255, 255, 255)" stroke="none" stroke-width="1px">12k</text><text x="171.77083333333331" y="0" dx="0em" dy="0.95em" style="text-anchor: middle; visibility: hidden; font-family: Roboto, sans-serif; font-size: 12px; font-weight: 200;" fill="rgb(255, 255, 255)" stroke="none" stroke-width="1px">14k</text><text x="193.2421875" y="0" dx="0em" dy="0.95em" style="text-anchor: middle; visibility: inherit; font-family: Roboto, sans-serif; font-size: 12px; font-weight: 200;" fill="rgb(255, 255, 255)" stroke="none" stroke-width="1px">16k</text><text x="214.71354166666669" y="0" dx="0em" dy="0.95em" style="text-anchor: middle; visibility: hidden; font-family: Roboto, sans-serif; font-size: 12px; font-weight: 200;" fill="rgb(255, 255, 255)" stroke="none" stroke-width="1px">18k</text><text x="236.18489583333331" y="0" dx="0em" dy="0.95em" style="text-anchor: middle; visibility: inherit; font-family: Roboto, sans-serif; font-size: 12px; font-weight: 200;" fill="rgb(255, 255, 255)" stroke="none" stroke-width="1px">20k</text><text x="257.65625" y="0" dx="0em" dy="0.95em" style="text-anchor: middle; visibility: hidden; font-family: Roboto, sans-serif; font-size: 12px; font-weight: 200;" fill="rgb(255, 255, 255)" stroke="none" stroke-width="1px">22k</text></g><line x1="0" y1="0" x2="257.65625" y2="0" fill="rgb(0, 0, 0)" stroke="rgb(204, 204, 204)" stroke-width="1px"></line></g></g></g></g></svg>