<svg viewBox="0 0 330 200" xmlns="http://www.w3.org/2000/svg"><g><g><g><g><g><line x1="51.5625" y1="177" x2="46.5625" y2="177" style="visibility: inherit;" fill="rgb(0, 0, 0)" stroke="rgb(204, 204, 204)" stroke-width="1px"></line><line x1="51.5625" y1="162.25" x2="46.5625" y2="162.25" style="visibility: inherit;" fill="rgb(0, 0, 0)" stroke="rgb(204, 204, 204)" stroke-width="1px"></line><line x1="51.5625" y1="147.5" x2="46.5625" y2="147.5" style="visibility: inherit;" fill="rgb(0, 0, 0)" stroke="rgb(204, 204, 204)" stroke-width="1px"></line><line x1="51.5625" y1="132.75" x2="46.5625" y2="132.75" style="visibility: inherit;" fill="rgb(0, 0, 0)" stroke="rgb(204, 204, 204)" stroke-width="1px"></line><line x1="51.5625" y1="118.00000000000001" x2="46.5625" y2="118.00000000000001" style="visibility: inherit;" fill="rgb(0, 0, 0)" stroke="rgb(204, 204, 204)" stroke-width="1px"></line><line x1="51.5625" y1="103.24999999999999" x2="46.5625" y2="103.24999999999999" style="visibility: inherit;" fill="rgb(0, 0, 0)" stroke="rgb(204, 204, 204)" stroke-width="1px"></line><line x1="51.5625" y1="88.49999999999999" x2="46.5625" y2="88.49999999999999" style="visibility: inherit;" fill="rgb(0, 0, 0)" stroke="rgb(204, 204, 204)" stroke-width="1px"></line><line x1="51.5625" y1="73.75" x2="46.5625" y2="73.75" style="visibility: inherit;" fill="rgb(0, 0, 0)" stroke="rgb(204, 204, 204)" stroke-width="1px"></line><line x1="51.5625" y1="58.999999999999986" x2="46.5625" y2="58.999999999999986" style="visibility: inherit;" fill="rgb(0, 0, 0)" stroke="rgb(204, 204, 204)" stroke-width="1px"></line><line x1="51.5625" y1="44.25" x2="46.5625" y2="44.25" style="visibility: inherit;" fill="rgb(0, 0, 0)" stroke="rgb(204, 204, 204)" stroke-width="1px"></line><line x1="51.5625" y1="29.499999999999993" x2="46.5625" y2="29.499999999999993" style="visibility: inherit;" fill="rgb(0, 0, 0)" stroke="rgb(204, 204, 204)" stroke-width="1px"></line><line x1="51.5625" y1="14.750000000000007" x2="46.5625" y2="14.750000000000007" style="visibility: inherit;" fill="rgb(0, 0, 0)" stroke="rgb(204, 204, 204)" stroke-width="1px"></line><line x1="51.5625" y1="0" x2="46.5625" y2="0" style="visibility: inherit;" fill="rgb(0, 0, 0)" stroke="rgb(204, 204, 204)" stroke-width="1px"></line></g><g transform="translate(41.5625, 0)"><text x="0" y="177" dx="0em" dy="0.3em" style="text-anchor: end; visibility: hidden; font-family: Roboto, sans-serif; font-size: 12px; font-weight: 200;" fill="rgb(255, 255, 255)" stroke="none" stroke-width="1px">0.15</text><text x="0" y="162.25" dx="0em" dy="0.3em" style="text-anchor: end; visibility: inherit; font-family: Roboto, sans-serif; font-size: 12px; font-weight: 200;" fill="rgb(255, 255, 255)" stroke="none" stroke-width="1px">0.2</text><text x="0" y="147.5" dx="0em" dy="0.3em" style="text-anchor: end; visibility: hidden; font-family: Roboto, sans-serif; font-size: 12px; font-weight: 200;" fill="rgb(255, 255, 255)" stroke="none" stroke-width="1px">0.25</text><text x="0" y="132.75" dx="0em" dy="0.3em" style="text-anchor: end; visibility: inherit; font-family: Roboto, sans-serif; font-size: 12px; font-weight: 200;" fill="rgb(255, 255, 255)" stroke="none" stroke-width="1px">0.3</text><text x="0" y="118.00000000000001" dx="0em" dy="0.3em" style="text-anchor: end; visibility: hidden; font-family: Roboto, sans-serif; font-size: 12px; font-weight: 200;" fill="rgb(255, 255, 255)" stroke="none" stroke-width="1px">0.35</text><text x="0" y="103.24999999999999" dx="0em" dy="0.3em" style="text-anchor: end; visibility: inherit; font-family: Roboto, sans-serif; font-size: 12px; font-weight: 200;" fill="rgb(255, 255, 255)" stroke="none" stroke-width="1px">0.4</text><text x="0" y="88.49999999999999" dx="0em" dy="0.3em" style="text-anchor: end; visibility: hidden; font-family: Roboto, sans-serif; font-size: 12px; font-weight: 200;" fill="rgb(255, 255, 255)" stroke="none" stroke-width="1px">0.45</text><text x="0" y="73.75" dx="0em" dy="0.3em" style="text-anchor: end; visibility: inherit; font-family: Roboto, sans-serif; font-size: 12px; font-weight: 200;" fill="rgb(255, 255, 255)" stroke="none" stroke-width="1px">0.5</text><text x="0" y="58.999999999999986" dx="0em" dy="0.3em" style="text-anchor: end; visibility: hidden; font-family: Roboto, sans-serif; font-size: 12px; font-weight: 200;" fill="rgb(255, 255, 255)" stroke="none" stroke-width="1px">0.55</text><text x="0" y="44.25" dx="0em" dy="0.3em" style="text-anchor: end; visibility: inherit; font-family: Roboto, sans-serif; font-size: 12px; font-weight: 200;" fill="rgb(255, 255, 255)" stroke="none" stroke-width="1px">0.6</text><text x="0" y="29.499999999999993" dx="0em" dy="0.3em" style="text-anchor: end; visibility: hidden; font-family: Roboto, sans-serif; font-size: 12px; font-weight: 200;" fill="rgb(255, 255, 255)" stroke="none" stroke-width="1px">0.65</text><text x="0" y="14.750000000000007" dx="0em" dy="0.3em" style="text-anchor: end; visibility: inherit; font-family: Roboto, sans-serif; font-size: 12px; font-weight: 200;" fill="rgb(255, 255, 255)" stroke="none" stroke-width="1px">0.7</text><text x="0" y="0" dx="0em" dy="0.3em" style="text-anchor: end; visibility: hidden; font-family: Roboto, sans-serif; font-size: 12px; font-weight: 200;" fill="rgb(255, 255, 255)" stroke="none" stroke-width="1px">0.75</text></g><line x1="51.5625" y1="0" x2="51.5625" y2="177" fill="rgb(0, 0, 0)" stroke="rgb(204, 204, 204)" stroke-width="1px"></line></g></g><g transform="translate(51, 0)" clip-path="url(#clip_0)"><clipPath id="clip_0"><rect width="278" height="177"></rect></clipPath><g><g><g><line x1="0" y1="0" x2="0" y2="177" fill="rgb(0, 0, 0)" stroke="rgb(189, 189, 189)" stroke-width="1px" opacity="0.25"></line><line x1="23.203125" y1="0" x2="23.203125" y2="177" fill="rgb(0, 0, 0)" stroke="rgb(189, 189, 189)" stroke-width="1px" opacity="0.25"></line><line x1="46.40625" y1="0" x2="46.40625" y2="177" fill="rgb(0, 0, 0)" stroke="rgb(189, 189, 189)" stroke-width="1px" opacity="0.25"></line><line x1="69.609375" y1="0" x2="69.609375" y2="177" fill="rgb(0, 0, 0)" stroke="rgb(189, 189, 189)" stroke-width="1px" opacity="0.25"></line><line x1="92.8125" y1="0" x2="92.8125" y2="177" fill="rgb(0, 0, 0)" stroke="rgb(189, 189, 189)" stroke-width="1px" opacity="0.25"></line><line x1="116.015625" y1="0" x2="116.015625" y2="177" fill="rgb(0, 0, 0)" stroke="rgb(189, 189, 189)" stroke-width="1px" opacity="0.25"></line><line x1="139.21875" y1="0" x2="139.21875" y2="177" fill="rgb(0, 0, 0)" stroke="rgb(189, 189, 189)" stroke-width="1px" opacity="0.25"></line><line x1="162.421875" y1="0" x2="162.421875" y2="177" fill="rgb(0, 0, 0)" stroke="rgb(189, 189, 189)" stroke-width="1px" opacity="0.25"></line><line x1="185.625" y1="0" x2="185.625" y2="177" fill="rgb(0, 0, 0)" stroke="rgb(189, 189, 189)" stroke-width="1px" opacity="0.25"></line><line x1="208.828125" y1="0" x2="208.828125" y2="177" fill="rgb(0, 0, 0)" stroke="rgb(189, 189, 189)" stroke-width="1px" opacity="0.25"></line><line x1="232.03125" y1="0" x2="232.03125" y2="177" fill="rgb(0, 0, 0)" stroke="rgb(189, 189, 189)" stroke-width="1px" opacity="0.25"></line><line x1="255.234375" y1="0" x2="255.234375" y2="177" fill="rgb(0, 0, 0)" stroke="rgb(189, 189, 189)" stroke-width="1px" opacity="0.25"></line><line x1="278.4375" y1="0" x2="278.4375" y2="177" fill="rgb(0, 0, 0)" stroke="rgb(189, 189, 189)" stroke-width="1px" opacity="0.25"></line></g><g><line x1="0" y1="177" x2="278.4375" y2="177" fill="rgb(0, 0, 0)" stroke="rgb(189, 189, 189)" stroke-width="1px" opacity="0.25"></line><line x1="0" y1="162.25" x2="278.4375" y2="162.25" fill="rgb(0, 0, 0)" stroke="rgb(189, 189, 189)" stroke-width="1px" opacity="0.25"></line><line x1="0" y1="147.5" x2="278.4375" y2="147.5" fill="rgb(0, 0, 0)" stroke="rgb(189, 189, 189)" stroke-width="1px" opacity="0.25"></line><line x1="0" y1="132.75" x2="278.4375" y2="132.75" fill="rgb(0, 0, 0)" stroke="rgb(189, 189, 189)" stroke-width="1px" opacity="0.25"></line><line x1="0" y1="118.00000000000001" x2="278.4375" y2="118.00000000000001" fill="rgb(0, 0, 0)" stroke="rgb(189, 189, 189)" stroke-width="1px" opacity="0.25"></line><line x1="0" y1="103.24999999999999" x2="278.4375" y2="103.24999999999999" fill="rgb(0, 0, 0)" stroke="rgb(189, 189, 189)" stroke-width="1px" opacity="0.25"></line><line x1="0" y1="88.49999999999999" x2="278.4375" y2="88.49999999999999" fill="rgb(0, 0, 0)" stroke="rgb(189, 189, 189)" stroke-width="1px" opacity="0.25"></line><line x1="0" y1="73.75" x2="278.4375" y2="73.75" fill="rgb(0, 0, 0)" stroke="rgb(189, 189, 189)" stroke-width="1px" opacity="0.25"></line><line x1="0" y1="58.999999999999986" x2="278.4375" y2="58.999999999999986" fill="rgb(0, 0, 0)" stroke="rgb(189, 189, 189)" stroke-width="1px" opacity="0.25"></line><line x1="0" y1="44.25" x2="278.4375" y2="44.25" fill="rgb(0, 0, 0)" stroke="rgb(189, 189, 189)" stroke-width="1px" opacity="0.25"></line><line x1="0" y1="29.499999999999993" x2="278.4375" y2="29.499999999999993" fill="rgb(0, 0, 0)" stroke="rgb(189, 189, 189)" stroke-width="1px" opacity="0.25"></line><line x1="0" y1="14.750000000000007" x2="278.4375" y2="14.750000000000007" fill="rgb(0, 0, 0)" stroke="rgb(189, 189, 189)" stroke-width="1px" opacity="0.25"></line><line x1="0" y1="0" x2="278.4375" y2="0" fill="rgb(0, 0, 0)" stroke="rgb(189, 189, 189)" stroke-width="1px" opacity="0.25"></line></g></g></g><g><g><line x1="0" y1="221.25" x2="278.4375" y2="221.25" fill="rgb(0, 0, 0)" stroke="rgb(153, 153, 153)" stroke-width="1.5px"></line></g></g><g><g><line x1="23.203125" y1="0" x2="23.203125" y2="177" fill="rgb(0, 0, 0)" stroke="rgb(153, 153, 153)" stroke-width="1.5px"></line></g></g><g><g><g><g><g><path stroke="rgb(255, 112, 67)" stroke-width="2px" d="M26.683593750000004,-15.72843015193938L27.84375,14.089208246373087L29.00390625,25.520524313514375L30.1640625,48.62318984960094L31.32421875,63.961163290921675L32.484375,82.42122579007469L33.64453125,82.62633326803142L34.8046875,44.84589374993809L35.96484375000001,63.915668030413464L37.125,67.6466132649514L38.28515625,81.6613808845493L39.4453125,91.83171297533222L40.60546875,99.6675528730704L41.765625,100.05149941915114L42.92578125,84.07537429167695L44.0859375,74.55487733794028L45.24609375,75.00350625638787L46.40625,93.13895186446864L47.56640625,94.97899772396796L48.7265625,99.55330606024312L49.88671875,93.37812521416373L51.04687499999999,83.23757777776075L52.20703125,86.12618731247103L53.36718750000001,84.34787945661063L54.52734375,82.89744518789303L55.6875,89.3728364094418L56.84765625,103.51746952663925L58.0078125,95.55319554052207L59.16796875,106.94388318020195L60.328125,113.65592156398314L61.48828125,109.86809893966951L62.6484375,110.35229865818455L63.80859375,116.4202849960926L64.96875,101.65788873088417L66.12890625,103.63260898651109L67.2890625,89.87885943110732L68.44921875,85.3768718205284L69.609375,96.6900719533033L70.76953125,97.57604589114123L71.92968750000001,90.3868778912371L73.08984375,108.74664064986018L74.25,121.13484869660482L75.41015625,128.26580375662985L76.5703125,125.16112667440807L77.73046875,124.62098373243835L78.890625,112.39783044590702L80.05078125,109.57813117461072L81.2109375,116.57392426470608L82.37109375,120.85175260390743L83.53125,115.3750459222986L84.69140624999999,116.63345097714843L85.8515625,116.77175378331069L87.01171875,120.47999736981937L88.171875,105.9304786760594L89.33203125000001,114.65716463559978L90.4921875,117.94408072372788L91.65234375,109.82854890430214L92.8125,114.96182183983495L93.97265625,126.1152322325863L95.1328125,135.19645582042696L96.29296875,130.65790778638453L97.453125,138.9844255223366L98.61328125,144.0410286828573L99.7734375,133.3883325841841L100.93359375,133.64113995950322L102.09374999999999,134.62895232153477L103.25390625,124.45102368421877L104.4140625,98.23400422708701L105.57421875,111.01415476069756L106.73437500000001,116.87012756386939L107.89453125,134.3954558641883L109.0546875,124.78559240526991L110.21484375,128.67961218850039L111.375,136.2466740363611L112.53515625,126.40713427983363L113.6953125,124.20567694021845L114.85546875,131.51725615688315L116.015625,142.0723532475719L117.17578125,104.98258071170382L118.3359375,100.0740331830152L119.49609374999999,126.7684656334858L120.65625,139.28179508167153L121.81640625,138.72405818532494L122.9765625,136.23580486435046L124.13671875000001,139.9461237839362L125.296875,134.5806809813679L126.45703125,127.24203256075982L127.6171875,130.905000074538L128.77734375,150.33846602072265L129.9375,141.81678757208553L131.09765625,149.41523137770872L132.2578125,146.6580085342096L133.41796875,142.7862008443455L134.578125,142.64083069747568L135.73828125,155.40162776223352L136.8984375,151.49018784947114L138.05859375,144.98375964514562L139.21875,151.01427303166477L140.37890625,142.07944557911927L141.5390625,147.98264420537217L142.69921875,140.5109680086855L143.85937500000003,143.48680683317684L145.01953125,150.27292214836422L146.1796875,149.08744849566068L147.33984375,155.77166827203897L148.5,156.8201003174905L149.66015625,143.78581534033563L150.8203125,136.96250629547563L151.98046874999997,117.62236739470556L153.140625,131.91527390643355L154.30078125,122.28934421637292L155.4609375,127.16499378978394L156.62109375,131.1963810366343L157.78125,134.06610023033323L158.94140625,152.52465916306795L160.1015625,154.94245867509258L161.26171875000003,105.2722729478992L162.421875,109.68153060881596L163.58203125,127.64694465046108L164.7421875,139.59014712479697L165.90234375,145.4956398827254L167.0625,135.72062453165168L168.22265625,147.8638788791568L169.38281249999997,143.3208917219681L170.54296875,132.710396208718L171.703125,124.06409845254097L172.86328125,124.30061367452905L174.0234375,138.08922786891915L175.18359375,146.2767583392886L176.34375,147.6294916726844L177.50390625,150.461111000639L178.66406250000003,148.975913602985L179.82421875,154.59154065184418L180.984375,141.4578495963372L182.14453125,154.01717397832616L183.3046875,160.60786994256824L184.46484375,165.69383190249354L185.625,146.246008134931L186.78515624999997,159.03080046597105L187.9453125,149.83141154302945L189.10546875,148.4155398622381L190.265625,153.2064367243783L191.42578125,158.8281425779543L192.5859375,153.04382073554288L193.74609375,160.929287270742L194.90625,168.992888388656L196.06640625000003,161.84596720792197L197.2265625,164.0466231909832L198.38671875,149.2968889956141L199.546875,159.5075800349989L200.70703125,160.11562975231877L201.8671875,135.70790339698834L203.02734375,146.37418788188958L204.18749999999997,150.72712592193045L205.34765625,154.17932812517023L206.5078125,149.6345459469863L207.66796875,155.323582264704L208.828125,168.25369810934214L209.98828125,154.58274290487378L211.1484375,141.55852833703287L212.30859375,142.82157623359635L213.46875000000003,150.67527776115583L214.62890625,149.4895123252478L215.7890625,135.1896403914217L216.94921875,134.23029712948346L218.109375,149.8263084120342L219.26953125,156.21565590660504L220.4296875,159.4123877010389L221.58984374999997,157.50641476640962L222.75,146.4961162300698L223.91015625,149.49185863684366L225.0703125,143.6965885493204L226.23046875,155.56508250433475L227.390625,160.29110406278534L228.55078125,151.11562230848648L229.7109375,133.59924559988605L230.87109375000003,129.7186068606259L232.03125,138.9650942332674L233.19140625,141.7248778013664L234.3515625,153.41242989708647L235.51171875,152.67123294359246L236.671875,155.14682243755936L237.83203125,159.1165955692022L238.99218749999997,161.12456842240624L240.15234375,166.19281243668158L241.3125,149.73605723015166L242.47265625,135.1974313904744L243.6328125,146.19338839947594L244.79296875,155.1899831277097L245.953125,165.5316908825615L247.11328125,175.13180057222715L248.27343750000003,130.45426785954876L249.43359375,139.337660729939L250.59375,146.61203212145224L251.75390625,149.20651597740206L252.9140625,157.0683654723284L254.07421875,146.02124879227384L255.234375,149.58396783153" style="fill: none;" fill="none"></path></g><g><path stroke="rgb(0, 119, 187)" stroke-width="2px" d="M116.015625,-6.225332446992454L127.6171875,36.71372251121357L139.21875,40.002033237087346L150.8203125,29.107579947436577L162.421875,44.09056221485544L174.0234375,56.501453013412004L185.625,63.37148836044773L197.2265625,44.836614658552136L197.2265625,33.719037494573115L208.828125,37.736497553499284L220.4296875,58.49164611450641L232.03125,50.804850074183925L243.6328125,56.80448175880438L255.234375,45.090139587323335" style="fill: none;" fill="none"></path></g></g></g></g><g opacity="0.2"><g><g><g><path stroke="rgb(255, 112, 67)" stroke-width="2px" d="M25.523437499999996,-37.11350083351135L26.683593750000004,33.06594967842101L27.84375,49.15475100278855L29.00390625,40.44525057077408L30.1640625,80.58249324560165L31.32421875,85.89471071958542L32.484375,109.33617413043976L33.64453125,82.92882695794106L34.8046875,-11.253655850887299L35.96484375000001,92.34736800193788L37.125,73.2227274775505L38.28515625,102.63777166604996L39.4453125,107.06728637218475L40.60546875,111.41210198402405L41.765625,100.62714844942093L42.92578125,60.117947161197655L44.0859375,60.2765491604805L45.24609375,75.67638128995895L46.40625,120.3404626250267L47.56640625,97.73896560072899L48.7265625,106.41461804509163L49.88671875,84.11547586321831L51.04687499999999,68.02687674760818L52.20703125,90.45908108353615L53.36718750000001,81.68042525649071L54.52734375,80.7217974960804L55.6875,99.08591330051422L56.84765625,124.73440617322922L58.0078125,83.60678896307945L59.16796875,124.02991086244583L60.328125,123.72397780418396L61.48828125,104.18636545538902L62.6484375,111.07859820127487L63.80859375,125.52226424217224L64.96875,79.51429471373558L66.12890625,106.59468933939932L67.2890625,69.24823522567749L68.44921875,78.62389042973518L69.609375,113.65987211465836L70.76953125,98.9050067961216L71.92968750000001,79.60312590003014L73.08984375,136.28628477454185L74.25,139.71716076135635L75.41015625,138.9622363448143L76.5703125,120.50411105155945L77.73046875,123.81076931953429L78.890625,94.06310051679611L80.05078125,105.34858226776123L81.2109375,127.06761389970778L82.37109375,127.26849511265755L83.53125,107.15998589992522L84.69140624999999,118.52105855941772L85.8515625,116.9792079925537L87.01171875,126.04236274957655L88.171875,84.1062006354332L89.33203125000001,127.74719357490538L90.4921875,122.87445485591887L91.65234375,97.65525117516518L92.8125,122.66173124313354L93.97265625,142.8453478217125L95.1328125,148.81829120218754L96.29296875,123.85008573532104L97.453125,151.47420212626457L98.61328125,151.62593342363834L99.7734375,117.40928843617439L100.93359375,134.02035102248192L102.09374999999999,136.11067086458206L103.25390625,109.18413072824478L104.4140625,58.908475041389465L105.57421875,130.18438056111336L106.73437500000001,125.65408676862717L107.89453125,160.68344831466675L109.0546875,110.37079721689224L110.21484375,134.5206418633461L111.375,147.5972668081522L112.53515625,111.64782464504242L113.6953125,120.90349093079567L114.85546875,142.4846249818802L116.015625,157.904998883605L117.17578125,49.34792190790177L118.3359375,92.71121188998224L119.49609374999999,166.8101143091917L120.65625,158.05178925395012L121.81640625,137.88745284080505L122.9765625,132.5034248828888L124.13671875000001,145.51160216331482L125.296875,126.5325167775154L126.45703125,116.2340599298477L127.6171875,136.3994513452053L128.77734375,179.48866493999958L129.9375,129.03426989912987L131.09765625,160.8128970861435L132.2578125,142.52217426896095L133.41796875,136.97848930954933L134.578125,142.42277547717094L135.73828125,174.54282335937023L136.8984375,145.6230279803276L138.05859375,135.22411733865738L139.21875,160.06004311144352L140.37890625,128.67720440030098L141.5390625,156.83744214475155L142.69921875,129.30345371365547L143.85937500000003,147.95056506991386L145.01953125,160.45209512114525L146.1796875,147.30923801660538L147.33984375,165.7979979366064L148.5,158.3927483856678L149.66015625,124.23438787460327L150.8203125,126.72754272818565L151.98046874999997,88.6121590435505L153.140625,153.35463367402554L154.30078125,107.85044968128204L155.4609375,134.47846814990044L156.62109375,137.24346190690994L157.78125,138.37067902088165L158.94140625,180.21249756217003L160.1015625,158.56915794312954L161.26171875000003,30.766994357109063L162.421875,116.29541710019112L163.58203125,154.59506571292877L164.7421875,157.50495083630085L165.90234375,154.35387901961803L167.0625,121.05810150504112L168.22265625,166.07876040041447L169.38281249999997,136.50641098618507L170.54296875,116.79465293884277L171.703125,111.09465181827545L172.86328125,124.65538650751114L174.0234375,158.77214916050434L175.18359375,158.55805404484272L176.34375,149.65859167277813L177.50390625,154.70853999257088L178.66406250000003,146.74811750650406L179.82421875,163.01498122513294L180.984375,121.75731301307677L182.14453125,172.85616055130959L183.3046875,170.49391388893127L184.46484375,173.32277484238148L185.625,117.07427248358727L186.78515624999997,178.2079889625311L187.9453125,136.03232815861702L189.10546875,146.2917323410511L190.265625,160.39278201758862L191.42578125,167.26070135831833L192.5859375,144.36733797192574L193.74609375,172.7574870735407L194.90625,181.08829006552696L196.06640625000003,151.12558543682098L197.2265625,167.34760716557503L198.38671875,127.17228770256042L199.546875,174.82361659407616L200.70703125,161.02770432829857L201.8671875,99.09631386399269L203.02734375,162.37361460924149L204.18749999999997,157.25653298199177L205.34765625,159.35763143002987L206.5078125,142.8173726797104L207.66796875,163.85713674128056L208.828125,187.64887187629938L209.98828125,134.07631009817123L211.1484375,122.02220648527145L212.30859375,144.71614807844162L213.46875000000003,162.455830052495L214.62890625,147.71086417138577L215.7890625,113.7398324906826L216.94921875,132.79128223657608L218.109375,173.22032533586025L219.26953125,165.79967714846134L220.4296875,164.2074853926897L221.58984374999997,154.6474553644657L222.75,129.98066842556L223.91015625,153.9854722470045L225.0703125,135.0036834180355L226.23046875,173.36782343685627L227.390625,167.3801364004612L228.55078125,137.3523996770382L229.7109375,107.3246805369854L230.87109375000003,123.89764875173567L232.03125,152.83482529222965L233.19140625,145.86455315351486L234.3515625,170.94375804066658L235.51171875,151.55943751335144L236.671875,158.8602066785097L237.83203125,165.0712552666664L238.99218749999997,164.13652770221233L240.15234375,173.7951784580946L241.3125,125.05092442035674L242.47265625,113.38949263095856L243.6328125,162.68732391297817L244.79296875,168.68487522006035L245.953125,181.04425251483917L247.11328125,189.5319651067257L248.27343750000003,63.43796879053116L249.43359375,152.66275003552437L250.59375,157.52358920872211L251.75390625,153.0982417613268L252.9140625,168.86113971471786L254.07421875,129.450573772192L255.234375,154.92804639041424" style="fill: none;" fill="none"></path></g><g><path stroke="rgb(0, 119, 187)" stroke-width="2px" d="M81.2109375,-43.39071124792099L92.8125,38.74929934740066L104.4140625,-21.80019646883011L116.015625,56.46514266729355L127.6171875,100.47321483492851L139.21875,44.90467458963395L150.8203125,12.825187146663666L162.421875,66.51611357927322L174.0234375,75.093474984169L185.625,73.66846591234207L197.2265625,17.0473763346672L197.2265625,17.0473763346672L208.828125,43.761667609214776L220.4296875,89.62120711803436L232.03125,39.275358617305756L243.6328125,65.80360025167465L255.234375,27.519011795520775" style="fill: none;" fill="none"></path></g></g></g></g></g></g><g transform="translate(51, 177)" clip-path="url(#clip_1)"><clipPath id="clip_1"><rect width="278" height="23"></rect></clipPath><g><g><line x1="0" y1="0" x2="0" y2="5" style="visibility: inherit;" fill="rgb(0, 0, 0)" stroke="rgb(204, 204, 204)" stroke-width="1px"></line><line x1="23.203125" y1="0" x2="23.203125" y2="5" style="visibility: inherit;" fill="rgb(0, 0, 0)" stroke="rgb(204, 204, 204)" stroke-width="1px"></line><line x1="46.40625" y1="0" x2="46.40625" y2="5" style="visibility: inherit;" fill="rgb(0, 0, 0)" stroke="rgb(204, 204, 204)" stroke-width="1px"></line><line x1="69.609375" y1="0" x2="69.609375" y2="5" style="visibility: inherit;" fill="rgb(0, 0, 0)" stroke="rgb(204, 204, 204)" stroke-width="1px"></line><line x1="92.8125" y1="0" x2="92.8125" y2="5" style="visibility: inherit;" fill="rgb(0, 0, 0)" stroke="rgb(204, 204, 204)" stroke-width="1px"></line><line x1="116.015625" y1="0" x2="116.015625" y2="5" style="visibility: inherit;" fill="rgb(0, 0, 0)" stroke="rgb(204, 204, 204)" stroke-width="1px"></line><line x1="139.21875" y1="0" x2="139.21875" y2="5" style="visibility: inherit;" fill="rgb(0, 0, 0)" stroke="rgb(204, 204, 204)" stroke-width="1px"></line><line x1="162.421875" y1="0" x2="162.421875" y2="5" style="visibility: inherit;" fill="rgb(0, 0, 0)" stroke="rgb(204, 204, 204)" stroke-width="1px"></line><line x1="185.625" y1="0" x2="185.625" y2="5" style="visibility: inherit;" fill="rgb(0, 0, 0)" stroke="rgb(204, 204, 204)" stroke-width="1px"></line><line x1="208.828125" y1="0" x2="208.828125" y2="5" style="visibility: inherit;" fill="rgb(0, 0, 0)" stroke="rgb(204, 204, 204)" stroke-width="1px"></line><line x1="232.03125" y1="0" x2="232.03125" y2="5" style="visibility: inherit;" fill="rgb(0, 0, 0)" stroke="rgb(204, 204, 204)" stroke-width="1px"></line><line x1="255.234375" y1="0" x2="255.234375" y2="5" style="visibility: inherit;" fill="rgb(0, 0, 0)" stroke="rgb(204, 204, 204)" stroke-width="1px"></line><line x1="278.4375" y1="0" x2="278.4375" y2="5" style="visibility: inherit;" fill="rgb(0, 0, 0)" stroke="rgb(204, 204, 204)" stroke-width="1px"></line></g><g transform="translate(0, 8)"><text x="0" y="0" dx="0em" dy="0.95em" style="text-anchor: middle; visibility: hidden; font-family: Roboto, sans-serif; font-size: 12px; font-weight: 200;" fill="rgb(255, 255, 255)" stroke="none" stroke-width="1px">-2k</text><text x="23.203125" y="0" dx="0em" dy="0.95em" style="text-anchor: middle; visibility: inherit; font-family: Roboto, sans-serif; font-size: 12px; font-weight: 200;" fill="rgb(255, 255, 255)" stroke="none" stroke-width="1px">0</text><text x="46.40625" y="0" dx="0em" dy="0.95em" style="text-anchor: middle; visibility: hidden; font-family: Roboto, sans-serif; font-size: 12px; font-weight: 200;" fill="rgb(255, 255, 255)" stroke="none" stroke-width="1px">2k</text><text x="69.609375" y="0" dx="0em" dy="0.95em" style="text-anchor: middle; visibility: inherit; font-family: Roboto, sans-serif; font-size: 12px; font-weight: 200;" fill="rgb(255, 255, 255)" stroke="none" stroke-width="1px">4k</text><text x="92.8125" y="0" dx="0em" dy="0.95em" style="text-anchor: middle; visibility: hidden; font-family: Roboto, sans-serif; font-size: 12px; font-weight: 200;" fill="rgb(255, 255, 255)" stroke="none" stroke-width="1px">6k</text><text x="116.015625" y="0" dx="0em" dy="0.95em" style="text-anchor: middle; visibility: inherit; font-family: Roboto, sans-serif; font-size: 12px; font-weight: 200;" fill="rgb(255, 255, 255)" stroke="none" stroke-width="1px">8k</text><text x="139.21875" y="0" dx="0em" dy="0.95em" style="text-anchor: middle; visibility: hidden; font-family: Roboto, sans-serif; font-size: 12px; font-weight: 200;" fill="rgb(255, 255, 255)" stroke="none" stroke-width="1px">10k</text><text x="162.421875" y="0" dx="0em" dy="0.95em" style="text-anchor: middle; visibility: inherit; font-family: Roboto, sans-serif; font-size: 12px; font-weight: 200;" fill="rgb(255, 255, 255)" stroke="none" stroke-width="1px">12k</text><text x="185.625" y="0" dx="0em" dy="0.95em" style="text-anchor: middle; visibility: hidden; font-family: Roboto, sans-serif; font-size: 12px; font-weight: 200;" fill="rgb(255, 255, 255)" stroke="none" stroke-width="1px">14k</text><text x="208.828125" y="0" dx="0em" dy="0.95em" style="text-anchor: middle; visibility: inherit; font-family: Roboto, sans-serif; font-size: 12px; font-weight: 200;" fill="rgb(255, 255, 255)" stroke="none" stroke-width="1px">16k</text><text x="232.03125" y="0" dx="0em" dy="0.95em" style="text-anchor: middle; visibility: hidden; font-family: Roboto, sans-serif; font-size: 12px; font-weight: 200;" fill="rgb(255, 255, 255)" stroke="none" stroke-width="1px">18k</text><text x="255.234375" y="0" dx="0em" dy="0.95em" style="text-anchor: middle; visibility: inherit; font-family: Roboto, sans-serif; font-size: 12px; font-weight: 200;" fill="rgb(255, 255, 255)" stroke="none" stroke-width="1px">20k</text><text x="278.4375" y="0" dx="0em" dy="0.95em" style="text-anchor: middle; visibility: hidden; font-family: Roboto, sans-serif; font-size: 12px; font-weight: 200;" fill="rgb(255, 255, 255)" stroke="none" stroke-width="1px">22k</text></g><line x1="0" y1="0" x2="278.4375" y2="0" fill="rgb(0, 0, 0)" stroke="rgb(204, 204, 204)" stroke-width="1px"></line></g></g></g></g></svg>