<svg viewBox="0 0 330 200" xmlns="http://www.w3.org/2000/svg"><g><g><g><g><g><line x1="51.5625" y1="177" x2="46.5625" y2="177" style="visibility: inherit;" fill="rgb(0, 0, 0)" stroke="rgb(204, 204, 204)" stroke-width="1px"></line><line x1="51.5625" y1="162.25" x2="46.5625" y2="162.25" style="visibility: inherit;" fill="rgb(0, 0, 0)" stroke="rgb(204, 204, 204)" stroke-width="1px"></line><line x1="51.5625" y1="147.5" x2="46.5625" y2="147.5" style="visibility: inherit;" fill="rgb(0, 0, 0)" stroke="rgb(204, 204, 204)" stroke-width="1px"></line><line x1="51.5625" y1="132.75000000000003" x2="46.5625" y2="132.75000000000003" style="visibility: inherit;" fill="rgb(0, 0, 0)" stroke="rgb(204, 204, 204)" stroke-width="1px"></line><line x1="51.5625" y1="118.00000000000001" x2="46.5625" y2="118.00000000000001" style="visibility: inherit;" fill="rgb(0, 0, 0)" stroke="rgb(204, 204, 204)" stroke-width="1px"></line><line x1="51.5625" y1="103.25" x2="46.5625" y2="103.25" style="visibility: inherit;" fill="rgb(0, 0, 0)" stroke="rgb(204, 204, 204)" stroke-width="1px"></line><line x1="51.5625" y1="88.50000000000001" x2="46.5625" y2="88.50000000000001" style="visibility: inherit;" fill="rgb(0, 0, 0)" stroke="rgb(204, 204, 204)" stroke-width="1px"></line><line x1="51.5625" y1="73.75000000000001" x2="46.5625" y2="73.75000000000001" style="visibility: inherit;" fill="rgb(0, 0, 0)" stroke="rgb(204, 204, 204)" stroke-width="1px"></line><line x1="51.5625" y1="59.00000000000003" x2="46.5625" y2="59.00000000000003" style="visibility: inherit;" fill="rgb(0, 0, 0)" stroke="rgb(204, 204, 204)" stroke-width="1px"></line><line x1="51.5625" y1="44.25000000000002" x2="46.5625" y2="44.25000000000002" style="visibility: inherit;" fill="rgb(0, 0, 0)" stroke="rgb(204, 204, 204)" stroke-width="1px"></line><line x1="51.5625" y1="29.500000000000032" x2="46.5625" y2="29.500000000000032" style="visibility: inherit;" fill="rgb(0, 0, 0)" stroke="rgb(204, 204, 204)" stroke-width="1px"></line><line x1="51.5625" y1="14.750000000000007" x2="46.5625" y2="14.750000000000007" style="visibility: inherit;" fill="rgb(0, 0, 0)" stroke="rgb(204, 204, 204)" stroke-width="1px"></line><line x1="51.5625" y1="0" x2="46.5625" y2="0" style="visibility: inherit;" fill="rgb(0, 0, 0)" stroke="rgb(204, 204, 204)" stroke-width="1px"></line></g><g transform="translate(41.5625, 0)"><text x="0" y="177" dx="0em" dy="0.3em" style="text-anchor: end; visibility: hidden; font-family: Roboto, sans-serif; font-size: 12px; font-weight: 200;" fill="rgb(255, 255, 255)" stroke="none" stroke-width="1px">0.2</text><text x="0" y="162.25" dx="0em" dy="0.3em" style="text-anchor: end; visibility: inherit; font-family: Roboto, sans-serif; font-size: 12px; font-weight: 200;" fill="rgb(255, 255, 255)" stroke="none" stroke-width="1px">0.25</text><text x="0" y="147.5" dx="0em" dy="0.3em" style="text-anchor: end; visibility: hidden; font-family: Roboto, sans-serif; font-size: 12px; font-weight: 200;" fill="rgb(255, 255, 255)" stroke="none" stroke-width="1px">0.3</text><text x="0" y="132.75000000000003" dx="0em" dy="0.3em" style="text-anchor: end; visibility: inherit; font-family: Roboto, sans-serif; font-size: 12px; font-weight: 200;" fill="rgb(255, 255, 255)" stroke="none" stroke-width="1px">0.35</text><text x="0" y="118.00000000000001" dx="0em" dy="0.3em" style="text-anchor: end; visibility: hidden; font-family: Roboto, sans-serif; font-size: 12px; font-weight: 200;" fill="rgb(255, 255, 255)" stroke="none" stroke-width="1px">0.4</text><text x="0" y="103.25" dx="0em" dy="0.3em" style="text-anchor: end; visibility: inherit; font-family: Roboto, sans-serif; font-size: 12px; font-weight: 200;" fill="rgb(255, 255, 255)" stroke="none" stroke-width="1px">0.45</text><text x="0" y="88.50000000000001" dx="0em" dy="0.3em" style="text-anchor: end; visibility: hidden; font-family: Roboto, sans-serif; font-size: 12px; font-weight: 200;" fill="rgb(255, 255, 255)" stroke="none" stroke-width="1px">0.5</text><text x="0" y="73.75000000000001" dx="0em" dy="0.3em" style="text-anchor: end; visibility: inherit; font-family: Roboto, sans-serif; font-size: 12px; font-weight: 200;" fill="rgb(255, 255, 255)" stroke="none" stroke-width="1px">0.55</text><text x="0" y="59.00000000000003" dx="0em" dy="0.3em" style="text-anchor: end; visibility: hidden; font-family: Roboto, sans-serif; font-size: 12px; font-weight: 200;" fill="rgb(255, 255, 255)" stroke="none" stroke-width="1px">0.6</text><text x="0" y="44.25000000000002" dx="0em" dy="0.3em" style="text-anchor: end; visibility: inherit; font-family: Roboto, sans-serif; font-size: 12px; font-weight: 200;" fill="rgb(255, 255, 255)" stroke="none" stroke-width="1px">0.65</text><text x="0" y="29.500000000000032" dx="0em" dy="0.3em" style="text-anchor: end; visibility: hidden; font-family: Roboto, sans-serif; font-size: 12px; font-weight: 200;" fill="rgb(255, 255, 255)" stroke="none" stroke-width="1px">0.7</text><text x="0" y="14.750000000000007" dx="0em" dy="0.3em" style="text-anchor: end; visibility: inherit; font-family: Roboto, sans-serif; font-size: 12px; font-weight: 200;" fill="rgb(255, 255, 255)" stroke="none" stroke-width="1px">0.75</text><text x="0" y="0" dx="0em" dy="0.3em" style="text-anchor: end; visibility: hidden; font-family: Roboto, sans-serif; font-size: 12px; font-weight: 200;" fill="rgb(255, 255, 255)" stroke="none" stroke-width="1px">0.8</text></g><line x1="51.5625" y1="0" x2="51.5625" y2="177" fill="rgb(0, 0, 0)" stroke="rgb(204, 204, 204)" stroke-width="1px"></line></g></g><g transform="translate(51, 0)" clip-path="url(#clip_0)"><clipPath id="clip_0"><rect width="278" height="177"></rect></clipPath><g><g><g><line x1="0" y1="0" x2="0" y2="177" fill="rgb(0, 0, 0)" stroke="rgb(189, 189, 189)" stroke-width="1px" opacity="0.25"></line><line x1="23.203125" y1="0" x2="23.203125" y2="177" fill="rgb(0, 0, 0)" stroke="rgb(189, 189, 189)" stroke-width="1px" opacity="0.25"></line><line x1="46.40625" y1="0" x2="46.40625" y2="177" fill="rgb(0, 0, 0)" stroke="rgb(189, 189, 189)" stroke-width="1px" opacity="0.25"></line><line x1="69.609375" y1="0" x2="69.609375" y2="177" fill="rgb(0, 0, 0)" stroke="rgb(189, 189, 189)" stroke-width="1px" opacity="0.25"></line><line x1="92.8125" y1="0" x2="92.8125" y2="177" fill="rgb(0, 0, 0)" stroke="rgb(189, 189, 189)" stroke-width="1px" opacity="0.25"></line><line x1="116.015625" y1="0" x2="116.015625" y2="177" fill="rgb(0, 0, 0)" stroke="rgb(189, 189, 189)" stroke-width="1px" opacity="0.25"></line><line x1="139.21875" y1="0" x2="139.21875" y2="177" fill="rgb(0, 0, 0)" stroke="rgb(189, 189, 189)" stroke-width="1px" opacity="0.25"></line><line x1="162.421875" y1="0" x2="162.421875" y2="177" fill="rgb(0, 0, 0)" stroke="rgb(189, 189, 189)" stroke-width="1px" opacity="0.25"></line><line x1="185.625" y1="0" x2="185.625" y2="177" fill="rgb(0, 0, 0)" stroke="rgb(189, 189, 189)" stroke-width="1px" opacity="0.25"></line><line x1="208.828125" y1="0" x2="208.828125" y2="177" fill="rgb(0, 0, 0)" stroke="rgb(189, 189, 189)" stroke-width="1px" opacity="0.25"></line><line x1="232.03125" y1="0" x2="232.03125" y2="177" fill="rgb(0, 0, 0)" stroke="rgb(189, 189, 189)" stroke-width="1px" opacity="0.25"></line><line x1="255.234375" y1="0" x2="255.234375" y2="177" fill="rgb(0, 0, 0)" stroke="rgb(189, 189, 189)" stroke-width="1px" opacity="0.25"></line><line x1="278.4375" y1="0" x2="278.4375" y2="177" fill="rgb(0, 0, 0)" stroke="rgb(189, 189, 189)" stroke-width="1px" opacity="0.25"></line></g><g><line x1="0" y1="177" x2="278.4375" y2="177" fill="rgb(0, 0, 0)" stroke="rgb(189, 189, 189)" stroke-width="1px" opacity="0.25"></line><line x1="0" y1="162.25" x2="278.4375" y2="162.25" fill="rgb(0, 0, 0)" stroke="rgb(189, 189, 189)" stroke-width="1px" opacity="0.25"></line><line x1="0" y1="147.5" x2="278.4375" y2="147.5" fill="rgb(0, 0, 0)" stroke="rgb(189, 189, 189)" stroke-width="1px" opacity="0.25"></line><line x1="0" y1="132.75000000000003" x2="278.4375" y2="132.75000000000003" fill="rgb(0, 0, 0)" stroke="rgb(189, 189, 189)" stroke-width="1px" opacity="0.25"></line><line x1="0" y1="118.00000000000001" x2="278.4375" y2="118.00000000000001" fill="rgb(0, 0, 0)" stroke="rgb(189, 189, 189)" stroke-width="1px" opacity="0.25"></line><line x1="0" y1="103.25" x2="278.4375" y2="103.25" fill="rgb(0, 0, 0)" stroke="rgb(189, 189, 189)" stroke-width="1px" opacity="0.25"></line><line x1="0" y1="88.50000000000001" x2="278.4375" y2="88.50000000000001" fill="rgb(0, 0, 0)" stroke="rgb(189, 189, 189)" stroke-width="1px" opacity="0.25"></line><line x1="0" y1="73.75000000000001" x2="278.4375" y2="73.75000000000001" fill="rgb(0, 0, 0)" stroke="rgb(189, 189, 189)" stroke-width="1px" opacity="0.25"></line><line x1="0" y1="59.00000000000003" x2="278.4375" y2="59.00000000000003" fill="rgb(0, 0, 0)" stroke="rgb(189, 189, 189)" stroke-width="1px" opacity="0.25"></line><line x1="0" y1="44.25000000000002" x2="278.4375" y2="44.25000000000002" fill="rgb(0, 0, 0)" stroke="rgb(189, 189, 189)" stroke-width="1px" opacity="0.25"></line><line x1="0" y1="29.500000000000032" x2="278.4375" y2="29.500000000000032" fill="rgb(0, 0, 0)" stroke="rgb(189, 189, 189)" stroke-width="1px" opacity="0.25"></line><line x1="0" y1="14.750000000000007" x2="278.4375" y2="14.750000000000007" fill="rgb(0, 0, 0)" stroke="rgb(189, 189, 189)" stroke-width="1px" opacity="0.25"></line><line x1="0" y1="0" x2="278.4375" y2="0" fill="rgb(0, 0, 0)" stroke="rgb(189, 189, 189)" stroke-width="1px" opacity="0.25"></line></g></g></g><g><g><line x1="0" y1="236" x2="278.4375" y2="236" fill="rgb(0, 0, 0)" stroke="rgb(153, 153, 153)" stroke-width="1.5px"></line></g></g><g><g><line x1="23.203125" y1="0" x2="23.203125" y2="177" fill="rgb(0, 0, 0)" stroke="rgb(153, 153, 153)" stroke-width="1.5px"></line></g></g><g><g><g><g><g><path stroke="rgb(255, 112, 67)" stroke-width="2px" d="M26.683593750000004,-14.52078268357682L27.84375,16.234863639754504L29.00390625,28.101045226695103L30.1640625,51.61691011045084L31.32421875,67.44832672546913L32.484375,86.4916757289066L33.64453125,86.83614680925194L34.8046875,48.910226395559036L35.96484375000001,67.90364325520422L37.125,71.2822173325327L38.28515625,85.69207898262066L39.4453125,96.19580169948156L40.60546875,103.86144036229109L41.765625,104.17011849895812L42.92578125,87.75633975672953L44.0859375,78.1487557043099L45.24609375,78.67078237748885L46.40625,96.91503624654807L47.56640625,98.05432115538184L48.7265625,102.73389376514925L49.88671875,96.6430516914611L51.04687499999999,86.78310218102844L52.20703125,89.61788552275384L53.36718750000001,87.22765932807609L54.52734375,85.86016022867949L55.6875,91.96534750885785L56.84765625,106.09576073600779L58.0078125,97.809021258106L59.16796875,109.23507020861294L60.328125,116.26854386272589L61.48828125,112.01516953865804L62.6484375,112.84372744406991L63.80859375,119.05395948503497L64.96875,104.01403559200702L66.12890625,106.00955140009313L67.2890625,92.05097333621389L68.44921875,87.14371024487707L69.609375,98.76960113957898L70.76953125,99.58580416098359L71.92968750000001,92.12051036985157L73.08984375,111.1273889419566L74.25,123.68859327516793L75.41015625,130.56464183808419L76.5703125,127.53132839470693L77.73046875,127.04101940075462L78.890625,114.49436184187321L80.05078125,111.53883481271811L81.2109375,118.63445799504143L82.37109375,122.91403618429844L83.53125,116.94928038699526L84.69140624999999,118.27114076962162L85.8515625,118.50405082434494L87.01171875,121.94677668410806L88.171875,107.12781215666132L89.33203125000001,116.09220170354094L90.4921875,119.76144348010617L91.65234375,111.69322072520903L92.8125,116.80294485721049L93.97265625,127.94623849292464L95.1328125,137.19034183919368L96.29296875,132.2933369451757L97.453125,140.08615934693793L98.61328125,145.27394031193248L99.7734375,134.19292562428944L100.93359375,134.56649242176914L102.09374999999999,135.8032798906225L103.25390625,125.66460111976016L104.4140625,99.11167826199738L105.57421875,111.78917211260918L106.73437500000001,117.57418248633459L107.89453125,135.358020410418L109.0546875,125.6938131365058L110.21484375,129.31537539439663L111.375,137.26011028693478L112.53515625,126.8945340204618L113.6953125,124.66032900144944L114.85546875,131.80951429444724L116.015625,142.69665060662135L117.17578125,104.93761850728336L118.3359375,99.69552068313207L119.49609374999999,127.05934171319156L120.65625,139.76840304398624L121.81640625,139.39069855847413L122.9765625,136.9119731941131L124.13671875000001,140.71226839770716L125.296875,134.81260191529896L126.45703125,127.01853022056763L127.6171875,130.9123976771709L128.77734375,150.8377396550582L129.9375,142.41119884769952L131.09765625,150.15659384322666L132.2578125,147.07703683610262L133.41796875,143.3997213115424L134.578125,142.97381703079523L135.73828125,156.00092639339437L136.8984375,152.12641181834022L138.05859375,145.34959725312876L139.21875,151.46834162338072L140.37890625,142.11957384028133L141.5390625,148.29091097639855L142.69921875,140.56374895409857L143.85937500000003,143.57699144980975L145.01953125,150.2681553548674L146.1796875,149.21435228503347L147.33984375,156.10636380622745L148.5,157.1226817447541L149.66015625,143.45211025944937L150.8203125,136.6855550460314L151.98046874999997,116.18497032238811L153.140625,130.64304150529966L154.30078125,121.05834902160328L155.4609375,126.25255200167274L156.62109375,130.32174078762398L157.78125,133.14699353063028L158.94140625,151.93889737298443L160.1015625,154.49535193544835L161.26171875000003,104.20288101734047L162.421875,108.19814997852639L163.58203125,126.45473058188436L164.7421875,138.56771140792657L165.90234375,144.7015237420719L167.0625,134.81746834575662L168.22265625,147.19019288456158L169.38281249999997,142.78436737439466L170.54296875,132.0155685614433L171.703125,123.08116363709483L172.86328125,123.13336426750014L174.0234375,137.2645606323194L175.18359375,145.51583404088683L176.34375,146.70974575725L177.50390625,149.63150457886934L178.66406250000003,148.12056237666656L179.82421875,153.8047154439023L180.984375,140.22189277962033L182.14453125,152.87865214082709L183.3046875,159.42226139624782L184.46484375,164.81277002048412L185.625,145.15648118944122L186.78515624999997,158.228025146074L187.9453125,148.5352023528498L189.10546875,146.99294987240324L190.265625,151.90736268114384L191.42578125,157.67086176962457L192.5859375,151.48814352089644L193.74609375,159.50177276572273L194.90625,167.89238088393623L196.06640625000003,160.71939603724726L197.2265625,162.86796876930384L198.38671875,147.73129238571636L199.546875,158.1695195012445L200.70703125,158.85294821102352L201.8671875,133.93670320653277L203.02734375,144.74367472018812L204.18749999999997,149.2984273820282L205.34765625,152.4399798029161L206.5078125,147.93410523614267L207.66796875,153.90872450399982L208.828125,167.01440749006622L209.98828125,153.28159142397138L211.1484375,140.07127292670188L212.30859375,141.0531160933815L213.46875000000003,149.10093993562714L214.62890625,147.27872445951854L215.7890625,133.38733565074776L216.94921875,132.1243474797164L218.109375,147.94813336823907L219.26953125,154.60396189030723L220.4296875,157.652829364161L221.58984374999997,155.50706327868718L222.75,143.70130893536341L223.91015625,146.8388478812452L225.0703125,141.25779326301074L226.23046875,153.16373815859114L227.390625,158.1754797084615L228.55078125,149.02040110728058L229.7109375,131.09369570434637L230.87109375000003,127.21026634228556L232.03125,136.22349053056436L233.19140625,139.14496769566176L234.3515625,151.19296472703718L235.51171875,150.3902930941302L236.671875,153.0411112502884L237.83203125,157.0628934261603L238.99218749999997,159.07685187801138L240.15234375,164.27354500499018L241.3125,147.55119103078036L242.47265625,133.00106097390645L243.6328125,144.0584848709726L244.79296875,153.1064554624452L245.953125,163.3583087904867L247.11328125,172.99464345476727L248.27343750000003,128.3693897992474L249.43359375,137.20414928615702L250.59375,144.4974821568764L251.75390625,146.97224129207353L252.9140625,154.28477777819288L254.07421875,142.91226165163786L255.234375,146.5858903567092" style="fill: none;" fill="none"></path></g><g><path stroke="rgb(0, 119, 187)" stroke-width="2px" d="M116.015625,-5.0371894093675715L127.6171875,37.56693670569114L139.21875,40.43924096769948L150.8203125,29.216804712030285L162.421875,43.81155238411223L174.0234375,55.78874093159924L185.625,62.41423207986607L197.2265625,43.647774929419356L197.2265625,32.391289516019434L208.828125,36.19575376740328L220.4296875,56.70028081293365L232.03125,48.76700038842258L243.6328125,54.416512916398105L255.234375,42.47627892506221" style="fill: none;" fill="none"></path></g></g></g></g><g opacity="0.2"><g><g><g><path stroke="rgb(255, 112, 67)" stroke-width="2px" d="M25.523437499999996,-37.17140638828275L26.683593750000004,35.88885074853901L27.84375,52.403503715992L29.00390625,43.5935319066048L30.1640625,84.14781695604326L31.32421875,90.08750578761102L32.484375,114.25706139206886L33.64453125,87.3441747426987L34.8046875,-7.405345380306244L35.96484375000001,96.22149965167047L37.125,76.33169239759448L38.28515625,107.25982075929645L39.4453125,111.93080788850784L40.60546875,115.35088768601418L41.765625,104.63291800022128L42.92578125,63.14261740446092L44.0859375,63.73981899023059L45.24609375,79.45374286174776L46.40625,124.27974945306778L47.56640625,99.76318603754046L48.7265625,109.75309869647026L49.88671875,87.50690883398059L51.04687499999999,71.99329471588136L52.20703125,93.87004038691522L53.36718750000001,83.64233022928241L54.52734375,83.80891507864001L55.6875,101.12311905622484L56.84765625,127.29136756062509L58.0078125,85.37891662120822L59.16796875,126.37413984537125L60.328125,126.81875294446947L61.48828125,105.63510856032372L62.6484375,114.08656424283983L63.80859375,128.3693072795868L64.96875,81.45415014028552L66.12890625,109.00282508134843L67.2890625,71.11310636997224L68.44921875,79.78281563520434L69.609375,116.20843744277956L70.76953125,100.81010869145393L71.92968750000001,80.92256969213487L73.08984375,139.63770678639412L74.25,142.5303997695446L75.41015625,140.8787146806717L76.5703125,122.98135823011398L77.73046875,126.30555590987206L78.890625,95.67437550425531L80.05078125,107.10554426908493L81.2109375,129.27789276838303L82.37109375,129.33340346813202L83.53125,108.00214669108394L84.69140624999999,120.25393134355545L85.8515625,118.85341590642929L87.01171875,127.11086547374725L88.171875,84.89936536550525L89.33203125000001,129.5387860238552L90.4921875,125.26530614495277L91.65234375,99.590886592865L92.8125,124.46753105521202L93.97265625,144.66117894649506L95.1328125,151.0564968585968L96.29296875,124.94782960414886L97.453125,151.77539294958115L98.61328125,153.0556117594242L99.7734375,117.57140359282494L100.93359375,135.1268426179886L102.09374999999999,137.6584610939026L103.25390625,110.45658296346667L104.4140625,59.28229397535326L105.57421875,130.80541288852692L106.73437500000001,126.25169804692268L107.89453125,162.03377729654312L109.0546875,111.19750222563744L110.21484375,134.74771878123283L111.375,149.17721262574196L112.53515625,111.34616962075235L113.6953125,121.30902147293094L114.85546875,142.53329223394394L116.015625,159.0273550748825L117.17578125,48.299070358276396L118.3359375,91.83237394690515L119.49609374999999,168.10507325828075L120.65625,158.8319950401783L121.81640625,138.82414183020592L122.9765625,133.19388514757156L124.13671875000001,146.4127112030983L125.296875,125.96310219168663L126.45703125,115.32742267847064L127.6171875,136.7531988620758L128.77734375,180.72575262188911L129.9375,129.77138763666153L131.09765625,161.77468633651733L132.2578125,142.45770132541656L133.41796875,137.88374802470207L134.578125,142.33496060967445L135.73828125,175.54159043729305L136.8984375,146.31463995575905L138.05859375,135.18437540531158L139.21875,160.64645817875862L140.37890625,128.09642216563225L141.5390625,157.54791668057442L142.69921875,128.97300592064857L143.85937500000003,148.09685519337654L145.01953125,160.30490121245384L146.1796875,147.6336476802826L147.33984375,166.44438108801842L148.5,158.64715865254402L149.66015625,122.94625303149223L150.8203125,126.53572222590448L151.98046874999997,85.43409323692325L153.140625,152.3301482796669L154.30078125,106.68131029605868L155.4609375,134.04385647177696L156.62109375,136.42552396655083L157.78125,137.3848726451397L158.94140625,180.12675313651562L160.1015625,158.3300337791443L161.26171875000003,28.764174640178688L162.421875,114.19105342030528L163.58203125,153.8396014869213L164.7421875,156.73718264698982L165.90234375,153.90224224328995L167.0625,119.99138525128366L168.22265625,165.74927969276905L169.38281249999997,136.1756291091442L170.54296875,115.86237034201623L171.703125,109.67955625057222L172.86328125,123.21166521310806L174.0234375,158.46135517954826L175.18359375,157.89274415373802L176.34375,148.50061333179474L177.50390625,154.01414281129837L178.66406250000003,145.85414907336235L179.82421875,162.33094504475594L180.984375,119.84765878319743L182.14453125,171.86379118263721L183.3046875,169.2376752793789L184.46484375,172.8985329568386L185.625,115.67204794287683L186.78515624999997,177.83534108102322L187.9453125,133.99596816301346L189.10546875,144.6795711517334L190.265625,159.27898189425468L191.42578125,166.31611040234566L192.5859375,142.21406614780426L193.74609375,171.52221663296223L194.90625,180.4782930612564L196.06640625000003,149.95991876721382L197.2265625,166.09082786738873L198.38671875,125.02627781033517L199.546875,173.8268601745367L200.70703125,159.878091275692L201.8671875,96.5623356997967L203.02734375,160.95413199067116L204.18749999999997,156.13055637478828L205.34765625,157.15230843424797L206.5078125,141.1752933859825L207.66796875,162.87065340578556L208.828125,186.6729319691658L209.98828125,132.6823673248291L211.1484375,120.25579518079759L212.30859375,142.52588084340096L213.46875000000003,161.1726756989956L214.62890625,144.5454012453556L215.7890625,112.55025243759155L216.94921875,130.22986522316933L218.109375,171.6838122010231L219.26953125,164.58770467340946L220.4296875,162.22613057494164L221.58984374999997,152.28841415047646L222.75,125.99267742037773L223.91015625,151.5451563000679L225.0703125,132.88621133565903L226.23046875,171.0226555019617L227.390625,165.69309203326702L228.55078125,135.2877832055092L229.7109375,104.2036375999451L230.87109375000003,121.38512229919435L232.03125,149.74332681298256L233.19140625,143.52718344330788L234.3515625,169.2649602741003L235.51171875,149.18628564476967L236.671875,157.01733848452568L237.83203125,163.0955666899681L238.99218749999997,162.09778955578804L240.15234375,172.0685846954584L241.3125,122.46766006946565L242.47265625,111.1758658885956L243.6328125,160.6446207165718L244.79296875,166.6784113496542L245.953125,178.7360887825489L247.11328125,187.4491454511881L248.27343750000003,61.431509315967574L249.43359375,150.45628851652145L250.59375,155.43748146295547L251.75390625,150.68437999486923L252.9140625,165.2535825073719L254.07421875,125.85348746180534L255.234375,152.09633341431618" style="fill: none;" fill="none"></path></g><g><path stroke="rgb(0, 119, 187)" stroke-width="2px" d="M81.2109375,-41.55731433629987L92.8125,39.635708689689665L104.4140625,-20.596319377422308L116.015625,57.14776074886324L127.6171875,100.82909873127937L139.21875,44.72164577245714L150.8203125,12.44422233104707L162.421875,65.65601950883868L174.0234375,73.73105919361117L185.625,72.34468078613284L197.2265625,15.511324763298047L197.2265625,15.511324763298047L208.828125,41.90148419141772L220.4296875,87.45394772291186L232.03125,36.86780488491061L243.6328125,62.890471875667586L255.234375,24.566320836544044" style="fill: none;" fill="none"></path></g></g></g></g></g></g><g transform="translate(51, 177)" clip-path="url(#clip_1)"><clipPath id="clip_1"><rect width="278" height="23"></rect></clipPath><g><g><line x1="0" y1="0" x2="0" y2="5" style="visibility: inherit;" fill="rgb(0, 0, 0)" stroke="rgb(204, 204, 204)" stroke-width="1px"></line><line x1="23.203125" y1="0" x2="23.203125" y2="5" style="visibility: inherit;" fill="rgb(0, 0, 0)" stroke="rgb(204, 204, 204)" stroke-width="1px"></line><line x1="46.40625" y1="0" x2="46.40625" y2="5" style="visibility: inherit;" fill="rgb(0, 0, 0)" stroke="rgb(204, 204, 204)" stroke-width="1px"></line><line x1="69.609375" y1="0" x2="69.609375" y2="5" style="visibility: inherit;" fill="rgb(0, 0, 0)" stroke="rgb(204, 204, 204)" stroke-width="1px"></line><line x1="92.8125" y1="0" x2="92.8125" y2="5" style="visibility: inherit;" fill="rgb(0, 0, 0)" stroke="rgb(204, 204, 204)" stroke-width="1px"></line><line x1="116.015625" y1="0" x2="116.015625" y2="5" style="visibility: inherit;" fill="rgb(0, 0, 0)" stroke="rgb(204, 204, 204)" stroke-width="1px"></line><line x1="139.21875" y1="0" x2="139.21875" y2="5" style="visibility: inherit;" fill="rgb(0, 0, 0)" stroke="rgb(204, 204, 204)" stroke-width="1px"></line><line x1="162.421875" y1="0" x2="162.421875" y2="5" style="visibility: inherit;" fill="rgb(0, 0, 0)" stroke="rgb(204, 204, 204)" stroke-width="1px"></line><line x1="185.625" y1="0" x2="185.625" y2="5" style="visibility: inherit;" fill="rgb(0, 0, 0)" stroke="rgb(204, 204, 204)" stroke-width="1px"></line><line x1="208.828125" y1="0" x2="208.828125" y2="5" style="visibility: inherit;" fill="rgb(0, 0, 0)" stroke="rgb(204, 204, 204)" stroke-width="1px"></line><line x1="232.03125" y1="0" x2="232.03125" y2="5" style="visibility: inherit;" fill="rgb(0, 0, 0)" stroke="rgb(204, 204, 204)" stroke-width="1px"></line><line x1="255.234375" y1="0" x2="255.234375" y2="5" style="visibility: inherit;" fill="rgb(0, 0, 0)" stroke="rgb(204, 204, 204)" stroke-width="1px"></line><line x1="278.4375" y1="0" x2="278.4375" y2="5" style="visibility: inherit;" fill="rgb(0, 0, 0)" stroke="rgb(204, 204, 204)" stroke-width="1px"></line></g><g transform="translate(0, 8)"><text x="0" y="0" dx="0em" dy="0.95em" style="text-anchor: middle; visibility: hidden; font-family: Roboto, sans-serif; font-size: 12px; font-weight: 200;" fill="rgb(255, 255, 255)" stroke="none" stroke-width="1px">-2k</text><text x="23.203125" y="0" dx="0em" dy="0.95em" style="text-anchor: middle; visibility: inherit; font-family: Roboto, sans-serif; font-size: 12px; font-weight: 200;" fill="rgb(255, 255, 255)" stroke="none" stroke-width="1px">0</text><text x="46.40625" y="0" dx="0em" dy="0.95em" style="text-anchor: middle; visibility: hidden; font-family: Roboto, sans-serif; font-size: 12px; font-weight: 200;" fill="rgb(255, 255, 255)" stroke="none" stroke-width="1px">2k</text><text x="69.609375" y="0" dx="0em" dy="0.95em" style="text-anchor: middle; visibility: inherit; font-family: Roboto, sans-serif; font-size: 12px; font-weight: 200;" fill="rgb(255, 255, 255)" stroke="none" stroke-width="1px">4k</text><text x="92.8125" y="0" dx="0em" dy="0.95em" style="text-anchor: middle; visibility: hidden; font-family: Roboto, sans-serif; font-size: 12px; font-weight: 200;" fill="rgb(255, 255, 255)" stroke="none" stroke-width="1px">6k</text><text x="116.015625" y="0" dx="0em" dy="0.95em" style="text-anchor: middle; visibility: inherit; font-family: Roboto, sans-serif; font-size: 12px; font-weight: 200;" fill="rgb(255, 255, 255)" stroke="none" stroke-width="1px">8k</text><text x="139.21875" y="0" dx="0em" dy="0.95em" style="text-anchor: middle; visibility: hidden; font-family: Roboto, sans-serif; font-size: 12px; font-weight: 200;" fill="rgb(255, 255, 255)" stroke="none" stroke-width="1px">10k</text><text x="162.421875" y="0" dx="0em" dy="0.95em" style="text-anchor: middle; visibility: inherit; font-family: Roboto, sans-serif; font-size: 12px; font-weight: 200;" fill="rgb(255, 255, 255)" stroke="none" stroke-width="1px">12k</text><text x="185.625" y="0" dx="0em" dy="0.95em" style="text-anchor: middle; visibility: hidden; font-family: Roboto, sans-serif; font-size: 12px; font-weight: 200;" fill="rgb(255, 255, 255)" stroke="none" stroke-width="1px">14k</text><text x="208.828125" y="0" dx="0em" dy="0.95em" style="text-anchor: middle; visibility: inherit; font-family: Roboto, sans-serif; font-size: 12px; font-weight: 200;" fill="rgb(255, 255, 255)" stroke="none" stroke-width="1px">16k</text><text x="232.03125" y="0" dx="0em" dy="0.95em" style="text-anchor: middle; visibility: hidden; font-family: Roboto, sans-serif; font-size: 12px; font-weight: 200;" fill="rgb(255, 255, 255)" stroke="none" stroke-width="1px">18k</text><text x="255.234375" y="0" dx="0em" dy="0.95em" style="text-anchor: middle; visibility: inherit; font-family: Roboto, sans-serif; font-size: 12px; font-weight: 200;" fill="rgb(255, 255, 255)" stroke="none" stroke-width="1px">20k</text><text x="278.4375" y="0" dx="0em" dy="0.95em" style="text-anchor: middle; visibility: hidden; font-family: Roboto, sans-serif; font-size: 12px; font-weight: 200;" fill="rgb(255, 255, 255)" stroke="none" stroke-width="1px">22k</text></g><line x1="0" y1="0" x2="278.4375" y2="0" fill="rgb(0, 0, 0)" stroke="rgb(204, 204, 204)" stroke-width="1px"></line></g></g></g></g></svg>