<svg viewBox="0 0 330 200" xmlns="http://www.w3.org/2000/svg"><g><g><g><g><g><line x1="61.953125" y1="177" x2="56.953125" y2="177" style="visibility: inherit;" fill="rgb(0, 0, 0)" stroke="rgb(204, 204, 204)" stroke-width="1px"></line><line x1="61.953125" y1="165.2" x2="56.953125" y2="165.2" style="visibility: inherit;" fill="rgb(0, 0, 0)" stroke="rgb(204, 204, 204)" stroke-width="1px"></line><line x1="61.953125" y1="153.4" x2="56.953125" y2="153.4" style="visibility: inherit;" fill="rgb(0, 0, 0)" stroke="rgb(204, 204, 204)" stroke-width="1px"></line><line x1="61.953125" y1="141.6" x2="56.953125" y2="141.6" style="visibility: inherit;" fill="rgb(0, 0, 0)" stroke="rgb(204, 204, 204)" stroke-width="1px"></line><line x1="61.953125" y1="129.79999999999998" x2="56.953125" y2="129.79999999999998" style="visibility: inherit;" fill="rgb(0, 0, 0)" stroke="rgb(204, 204, 204)" stroke-width="1px"></line><line x1="61.953125" y1="118.00000000000001" x2="56.953125" y2="118.00000000000001" style="visibility: inherit;" fill="rgb(0, 0, 0)" stroke="rgb(204, 204, 204)" stroke-width="1px"></line><line x1="61.953125" y1="106.20000000000002" x2="56.953125" y2="106.20000000000002" style="visibility: inherit;" fill="rgb(0, 0, 0)" stroke="rgb(204, 204, 204)" stroke-width="1px"></line><line x1="61.953125" y1="94.4" x2="56.953125" y2="94.4" style="visibility: inherit;" fill="rgb(0, 0, 0)" stroke="rgb(204, 204, 204)" stroke-width="1px"></line><line x1="61.953125" y1="82.59999999999998" x2="56.953125" y2="82.59999999999998" style="visibility: inherit;" fill="rgb(0, 0, 0)" stroke="rgb(204, 204, 204)" stroke-width="1px"></line><line x1="61.953125" y1="70.80000000000003" x2="56.953125" y2="70.80000000000003" style="visibility: inherit;" fill="rgb(0, 0, 0)" stroke="rgb(204, 204, 204)" stroke-width="1px"></line><line x1="61.953125" y1="59.00000000000001" x2="56.953125" y2="59.00000000000001" style="visibility: inherit;" fill="rgb(0, 0, 0)" stroke="rgb(204, 204, 204)" stroke-width="1px"></line><line x1="61.953125" y1="47.19999999999999" x2="56.953125" y2="47.19999999999999" style="visibility: inherit;" fill="rgb(0, 0, 0)" stroke="rgb(204, 204, 204)" stroke-width="1px"></line><line x1="61.953125" y1="35.39999999999999" x2="56.953125" y2="35.39999999999999" style="visibility: inherit;" fill="rgb(0, 0, 0)" stroke="rgb(204, 204, 204)" stroke-width="1px"></line><line x1="61.953125" y1="23.600000000000016" x2="56.953125" y2="23.600000000000016" style="visibility: inherit;" fill="rgb(0, 0, 0)" stroke="rgb(204, 204, 204)" stroke-width="1px"></line><line x1="61.953125" y1="11.800000000000017" x2="56.953125" y2="11.800000000000017" style="visibility: inherit;" fill="rgb(0, 0, 0)" stroke="rgb(204, 204, 204)" stroke-width="1px"></line><line x1="61.953125" y1="0" x2="56.953125" y2="0" style="visibility: inherit;" fill="rgb(0, 0, 0)" stroke="rgb(204, 204, 204)" stroke-width="1px"></line></g><g transform="translate(51.953125, 0)"><text x="0" y="177" dx="0em" dy="0.3em" style="text-anchor: end; visibility: hidden; font-family: Roboto, sans-serif; font-size: 12px; font-weight: 200;" fill="rgb(255, 255, 255)" stroke="none" stroke-width="1px">0.026</text><text x="0" y="165.2" dx="0em" dy="0.3em" style="text-anchor: end; visibility: inherit; font-family: Roboto, sans-serif; font-size: 12px; font-weight: 200;" fill="rgb(255, 255, 255)" stroke="none" stroke-width="1px">0.028</text><text x="0" y="153.4" dx="0em" dy="0.3em" style="text-anchor: end; visibility: hidden; font-family: Roboto, sans-serif; font-size: 12px; font-weight: 200;" fill="rgb(255, 255, 255)" stroke="none" stroke-width="1px">0.03</text><text x="0" y="141.6" dx="0em" dy="0.3em" style="text-anchor: end; visibility: inherit; font-family: Roboto, sans-serif; font-size: 12px; font-weight: 200;" fill="rgb(255, 255, 255)" stroke="none" stroke-width="1px">0.032</text><text x="0" y="129.79999999999998" dx="0em" dy="0.3em" style="text-anchor: end; visibility: hidden; font-family: Roboto, sans-serif; font-size: 12px; font-weight: 200;" fill="rgb(255, 255, 255)" stroke="none" stroke-width="1px">0.034</text><text x="0" y="118.00000000000001" dx="0em" dy="0.3em" style="text-anchor: end; visibility: inherit; font-family: Roboto, sans-serif; font-size: 12px; font-weight: 200;" fill="rgb(255, 255, 255)" stroke="none" stroke-width="1px">0.036</text><text x="0" y="106.20000000000002" dx="0em" dy="0.3em" style="text-anchor: end; visibility: hidden; font-family: Roboto, sans-serif; font-size: 12px; font-weight: 200;" fill="rgb(255, 255, 255)" stroke="none" stroke-width="1px">0.038</text><text x="0" y="94.4" dx="0em" dy="0.3em" style="text-anchor: end; visibility: inherit; font-family: Roboto, sans-serif; font-size: 12px; font-weight: 200;" fill="rgb(255, 255, 255)" stroke="none" stroke-width="1px">0.04</text><text x="0" y="82.59999999999998" dx="0em" dy="0.3em" style="text-anchor: end; visibility: hidden; font-family: Roboto, sans-serif; font-size: 12px; font-weight: 200;" fill="rgb(255, 255, 255)" stroke="none" stroke-width="1px">0.042</text><text x="0" y="70.80000000000003" dx="0em" dy="0.3em" style="text-anchor: end; visibility: inherit; font-family: Roboto, sans-serif; font-size: 12px; font-weight: 200;" fill="rgb(255, 255, 255)" stroke="none" stroke-width="1px">0.044</text><text x="0" y="59.00000000000001" dx="0em" dy="0.3em" style="text-anchor: end; visibility: hidden; font-family: Roboto, sans-serif; font-size: 12px; font-weight: 200;" fill="rgb(255, 255, 255)" stroke="none" stroke-width="1px">0.046</text><text x="0" y="47.19999999999999" dx="0em" dy="0.3em" style="text-anchor: end; visibility: inherit; font-family: Roboto, sans-serif; font-size: 12px; font-weight: 200;" fill="rgb(255, 255, 255)" stroke="none" stroke-width="1px">0.048</text><text x="0" y="35.39999999999999" dx="0em" dy="0.3em" style="text-anchor: end; visibility: hidden; font-family: Roboto, sans-serif; font-size: 12px; font-weight: 200;" fill="rgb(255, 255, 255)" stroke="none" stroke-width="1px">0.05</text><text x="0" y="23.600000000000016" dx="0em" dy="0.3em" style="text-anchor: end; visibility: inherit; font-family: Roboto, sans-serif; font-size: 12px; font-weight: 200;" fill="rgb(255, 255, 255)" stroke="none" stroke-width="1px">0.052</text><text x="0" y="11.800000000000017" dx="0em" dy="0.3em" style="text-anchor: end; visibility: hidden; font-family: Roboto, sans-serif; font-size: 12px; font-weight: 200;" fill="rgb(255, 255, 255)" stroke="none" stroke-width="1px">0.054</text><text x="0" y="0" dx="0em" dy="0.3em" style="text-anchor: end; visibility: hidden; font-family: Roboto, sans-serif; font-size: 12px; font-weight: 200;" fill="rgb(255, 255, 255)" stroke="none" stroke-width="1px">0.056</text></g><line x1="61.953125" y1="0" x2="61.953125" y2="177" fill="rgb(0, 0, 0)" stroke="rgb(204, 204, 204)" stroke-width="1px"></line></g></g><g transform="translate(61, 0)" clip-path="url(#clip_0)"><clipPath id="clip_0"><rect width="268" height="177"></rect></clipPath><g><g><g><line x1="0" y1="0" x2="0" y2="177" fill="rgb(0, 0, 0)" stroke="rgb(189, 189, 189)" stroke-width="1px" opacity="0.25"></line><line x1="22.337239583333332" y1="0" x2="22.337239583333332" y2="177" fill="rgb(0, 0, 0)" stroke="rgb(189, 189, 189)" stroke-width="1px" opacity="0.25"></line><line x1="44.674479166666664" y1="0" x2="44.674479166666664" y2="177" fill="rgb(0, 0, 0)" stroke="rgb(189, 189, 189)" stroke-width="1px" opacity="0.25"></line><line x1="67.01171875" y1="0" x2="67.01171875" y2="177" fill="rgb(0, 0, 0)" stroke="rgb(189, 189, 189)" stroke-width="1px" opacity="0.25"></line><line x1="89.34895833333333" y1="0" x2="89.34895833333333" y2="177" fill="rgb(0, 0, 0)" stroke="rgb(189, 189, 189)" stroke-width="1px" opacity="0.25"></line><line x1="111.68619791666667" y1="0" x2="111.68619791666667" y2="177" fill="rgb(0, 0, 0)" stroke="rgb(189, 189, 189)" stroke-width="1px" opacity="0.25"></line><line x1="134.0234375" y1="0" x2="134.0234375" y2="177" fill="rgb(0, 0, 0)" stroke="rgb(189, 189, 189)" stroke-width="1px" opacity="0.25"></line><line x1="156.36067708333334" y1="0" x2="156.36067708333334" y2="177" fill="rgb(0, 0, 0)" stroke="rgb(189, 189, 189)" stroke-width="1px" opacity="0.25"></line><line x1="178.69791666666666" y1="0" x2="178.69791666666666" y2="177" fill="rgb(0, 0, 0)" stroke="rgb(189, 189, 189)" stroke-width="1px" opacity="0.25"></line><line x1="201.03515625" y1="0" x2="201.03515625" y2="177" fill="rgb(0, 0, 0)" stroke="rgb(189, 189, 189)" stroke-width="1px" opacity="0.25"></line><line x1="223.37239583333334" y1="0" x2="223.37239583333334" y2="177" fill="rgb(0, 0, 0)" stroke="rgb(189, 189, 189)" stroke-width="1px" opacity="0.25"></line><line x1="245.70963541666666" y1="0" x2="245.70963541666666" y2="177" fill="rgb(0, 0, 0)" stroke="rgb(189, 189, 189)" stroke-width="1px" opacity="0.25"></line><line x1="268.046875" y1="0" x2="268.046875" y2="177" fill="rgb(0, 0, 0)" stroke="rgb(189, 189, 189)" stroke-width="1px" opacity="0.25"></line></g><g><line x1="0" y1="177" x2="268.046875" y2="177" fill="rgb(0, 0, 0)" stroke="rgb(189, 189, 189)" stroke-width="1px" opacity="0.25"></line><line x1="0" y1="165.2" x2="268.046875" y2="165.2" fill="rgb(0, 0, 0)" stroke="rgb(189, 189, 189)" stroke-width="1px" opacity="0.25"></line><line x1="0" y1="153.4" x2="268.046875" y2="153.4" fill="rgb(0, 0, 0)" stroke="rgb(189, 189, 189)" stroke-width="1px" opacity="0.25"></line><line x1="0" y1="141.6" x2="268.046875" y2="141.6" fill="rgb(0, 0, 0)" stroke="rgb(189, 189, 189)" stroke-width="1px" opacity="0.25"></line><line x1="0" y1="129.79999999999998" x2="268.046875" y2="129.79999999999998" fill="rgb(0, 0, 0)" stroke="rgb(189, 189, 189)" stroke-width="1px" opacity="0.25"></line><line x1="0" y1="118.00000000000001" x2="268.046875" y2="118.00000000000001" fill="rgb(0, 0, 0)" stroke="rgb(189, 189, 189)" stroke-width="1px" opacity="0.25"></line><line x1="0" y1="106.20000000000002" x2="268.046875" y2="106.20000000000002" fill="rgb(0, 0, 0)" stroke="rgb(189, 189, 189)" stroke-width="1px" opacity="0.25"></line><line x1="0" y1="94.4" x2="268.046875" y2="94.4" fill="rgb(0, 0, 0)" stroke="rgb(189, 189, 189)" stroke-width="1px" opacity="0.25"></line><line x1="0" y1="82.59999999999998" x2="268.046875" y2="82.59999999999998" fill="rgb(0, 0, 0)" stroke="rgb(189, 189, 189)" stroke-width="1px" opacity="0.25"></line><line x1="0" y1="70.80000000000003" x2="268.046875" y2="70.80000000000003" fill="rgb(0, 0, 0)" stroke="rgb(189, 189, 189)" stroke-width="1px" opacity="0.25"></line><line x1="0" y1="59.00000000000001" x2="268.046875" y2="59.00000000000001" fill="rgb(0, 0, 0)" stroke="rgb(189, 189, 189)" stroke-width="1px" opacity="0.25"></line><line x1="0" y1="47.19999999999999" x2="268.046875" y2="47.19999999999999" fill="rgb(0, 0, 0)" stroke="rgb(189, 189, 189)" stroke-width="1px" opacity="0.25"></line><line x1="0" y1="35.39999999999999" x2="268.046875" y2="35.39999999999999" fill="rgb(0, 0, 0)" stroke="rgb(189, 189, 189)" stroke-width="1px" opacity="0.25"></line><line x1="0" y1="23.600000000000016" x2="268.046875" y2="23.600000000000016" fill="rgb(0, 0, 0)" stroke="rgb(189, 189, 189)" stroke-width="1px" opacity="0.25"></line><line x1="0" y1="11.800000000000017" x2="268.046875" y2="11.800000000000017" fill="rgb(0, 0, 0)" stroke="rgb(189, 189, 189)" stroke-width="1px" opacity="0.25"></line><line x1="0" y1="0" x2="268.046875" y2="0" fill="rgb(0, 0, 0)" stroke="rgb(189, 189, 189)" stroke-width="1px" opacity="0.25"></line></g></g></g><g><g><line x1="0" y1="330.4" x2="268.046875" y2="330.4" fill="rgb(0, 0, 0)" stroke="rgb(153, 153, 153)" stroke-width="1.5px"></line></g></g><g><g><line x1="22.337239583333332" y1="0" x2="22.337239583333332" y2="177" fill="rgb(0, 0, 0)" stroke="rgb(153, 153, 153)" stroke-width="1.5px"></line></g></g><g><g><g><g><g><path stroke="rgb(255, 112, 67)" stroke-width="2px" d="M23.4541015625,163.1928861603141L24.570963541666664,163.16826257351786L25.687825520833336,163.09314426852734L26.8046875,162.92605286098143L27.921549479166668,162.73531490898975L29.038411458333336,162.4568201638794L30.1552734375,162.12775089915692L31.272135416666668,161.69427591782994L32.388997395833336,161.21893766478487L33.505859375,160.66072165392293L34.62272135416667,160.02629996845852L35.739583333333336,159.29177666692738L36.8564453125,158.47101954864314L37.973307291666664,157.5954754097027L39.090169270833336,156.69139601393556L40.20703125,155.65910404588539L41.32389322916667,154.4707199679058L42.44075520833333,153.13907576063625L43.5576171875,151.87185815177895L44.674479166666664,150.55483638149462L45.791341145833336,149.18872019132874L46.908203125,147.4843727199008L48.025065104166664,145.87377725913134L49.14192708333333,144.2204601772967L50.2587890625,142.4708756993099L51.37565104166667,140.77119297426304L52.492513020833336,138.931331135707L53.609375,137.10840441331473L54.726236979166664,135.49171947364215L55.843098958333336,133.97557808333895L56.9599609375,132.44293215791413L58.07682291666667,130.95275553239924L59.19368489583333,129.4250856073778L60.310546875,128.100698957173L61.427408854166664,126.68271892334919L62.544270833333336,125.30646947791777L63.6611328125,124.14034972882175L64.77799479166667,123.00306296460279L65.89485677083333,121.8445508258308L67.01171875,120.61705426032755L68.12858072916666,119.3756674294971L69.24544270833334,118.12723881693024L70.3623046875,116.98560653469579L71.47916666666667,115.84835650866364L72.59602864583333,114.6761865492147L73.712890625,113.4478978892682L74.82975260416667,112.21532861231232L75.94661458333333,110.76518151422147L77.0634765625,109.44661181483758L78.18033854166667,108.16718859620306L79.29720052083333,106.95315443722265L80.4140625,105.8187690904576L81.53092447916666,104.70658922736678L82.64778645833334,103.59059766021154L83.7646484375,102.35742932967337L84.88151041666666,101.35921103961424L85.99837239583334,100.29433833841748L87.115234375,99.24587165048264L88.23209635416667,98.28067672449664L89.34895833333333,97.20667581438012L90.4658203125,96.04455051588404L91.58268229166667,95.10426436881656L92.69954427083333,94.19267166030667L93.81640625,93.18066226823483L94.93326822916667,92.23255904306977L96.05013020833333,91.27732013100388L97.1669921875,90.34701457639935L98.28385416666666,89.38691935909033L99.40071614583334,88.51502202494285L100.517578125,87.60258780803287L101.63444010416666,86.7020619957805L102.75130208333334,85.82614151293993L103.8681640625,85.0332428708968L104.98502604166667,84.32964079113589L106.10188802083333,83.63280971724858L107.21875,82.82889676379601L108.33561197916667,82.0325187914815L109.45247395833333,81.13108224470892L110.5693359375,80.25255806684184L111.68619791666667,79.50395463728721L112.80305989583333,78.69188061013108L113.919921875,77.73219741138391L115.03678385416666,76.94116704078064L116.15364583333334,76.2220608473512L117.2705078125,75.39352067355469L118.38736979166666,74.46231590893362L119.50423177083334,73.70432950727042L120.62109375,73.03158300085005L121.73795572916667,72.39257289506875L122.85481770833333,71.67694663487606L123.9716796875,70.95687381078442L125.08854166666667,70.24480615407012L126.20540364583333,69.3935513791429L127.322265625,68.60658135157746L128.43912760416669,67.91757879699426L129.55598958333334,67.00118737605308L130.6728515625,66.22459738127647L131.78971354166666,65.51670500202333L132.90657552083334,64.70502992965791L134.0234375,63.946396983254026L135.14029947916666,63.135391344182516L136.25716145833331,62.2910191271024L137.3740234375,61.49689011057119L138.49088541666669,60.78044365572871L139.60774739583334,60.0405457993027L140.724609375,59.445759352426336L141.84147135416666,58.80077517174518L142.95833333333334,57.9688023134639L144.0751953125,57.124131748948706L145.19205729166666,56.266040048524275L146.30891927083331,55.445700345948076L147.42578125,54.74440387756511L148.54264322916669,54.01873035711577L149.65950520833334,53.16894775082187L150.7763671875,52.42293352514215L151.89322916666666,51.61083051699225L153.01009114583331,50.79741477810044L154.126953125,50.068332495943885L155.24381510416669,49.50033539453516L156.36067708333334,48.861077007766745L157.4775390625,48.05828167981874L158.59440104166666,47.35414847485409L159.71126302083334,46.46957758278959L160.828125,45.599924378462504L161.94498697916666,44.896979784290714L163.06184895833331,44.23890132386726L164.1787109375,43.610239382262485L165.29557291666669,43.02066148023334L166.41243489583334,42.45536921203448L167.529296875,41.94411419856738L168.64615885416666,41.32906316893214L169.76302083333331,40.64584410057611L170.8798828125,40.024859466947L171.99674479166669,39.42204962062649L173.11360677083334,38.88921597890743L174.23046875,38.22638511593754L175.34733072916666,37.66525796375042L176.46419270833334,37.1129040534578L177.5810546875,36.49443439693937L178.69791666666666,35.9137939968806L179.81477864583331,35.386586881822446L180.931640625,34.92208755203851L182.04850260416669,34.422874908380315L183.16536458333334,33.99306334062375L184.2822265625,33.67006518008682L185.39908854166666,33.23867978550418L186.51595052083331,32.83088223634615L187.6328125,32.34411586581739L188.74967447916669,31.806381194943615L189.86653645833334,31.181965801211877L190.9833984375,30.53837012594501L192.10026041666666,29.955911975774512L193.21712239583334,29.43265184621414L194.333984375,28.872686835887457L195.45084635416666,28.18994618580486L196.56770833333331,27.554592864070816L197.6845703125,27.08909498593478L198.80143229166669,26.551997676737738L199.91829427083334,26.134349507837122L201.03515625,25.50181463882244L202.15201822916666,24.896110034733518L203.26888020833331,24.408856387585118L204.3857421875,23.834757066756335L205.50260416666669,23.243998416060116L206.61946614583334,22.625616838809215L207.736328125,22.053205553457975L208.85319010416666,21.548088484862944L209.97005208333334,21.046422868883283L211.0869140625,20.570117298314372L212.20377604166666,20.149073880642295L213.32063802083331,19.486553095418L214.4375,18.952716755055068L215.55436197916669,18.510799570788592L216.67122395833334,18.11173431271887L217.7880859375,17.656881289449835L218.90494791666666,17.156132956008605L220.02180989583331,16.267010304725495L221.138671875,15.393852376578023L222.25553385416669,14.55884625890122L223.37239583333334,13.858376836647176L224.4892578125,13.16776844970561L225.60611979166666,12.682551227284533L226.72298177083334,12.173132144375467L227.83984375,11.691603034117136L228.95670572916666,11.10229127131598L230.07356770833331,10.476548809544406L231.1904296875,10.008693930349475L232.30729166666669,9.554732056165792L233.42415364583334,8.981081466499L234.541015625,8.400623367204087L235.65787760416666,7.9497495424591245L236.77473958333331,7.555825155487254L237.8916015625,7.274518637365472L239.00846354166669,6.951678028408498L240.12532552083334,6.644191674413563L241.2421875,6.272384219182878L242.35904947916666,5.74749877978171L243.47591145833334,5.142855116896679L244.5927734375,4.607303515179669L245.70963541666666,4.160392124118653" style="fill: none;" fill="none"></path></g><g><path stroke="rgb(0, 119, 187)" stroke-width="2px" d="M22.337239583333332,163.18054483234883L33.505859375,161.0826839223504L44.674479166666664,154.69822724008438L55.843098958333336,144.1195244725958L67.01171875,133.12205758110815L78.18033854166667,121.83639058147274L89.34895833333333,111.02472512201392L100.517578125,100.9361201283362L111.68619791666667,91.81906554642453L122.85481770833333,83.27823629936545L134.0234375,75.05835414344475L145.19205729166666,67.00527204545081L156.36067708333334,59.351325782603546L167.529296875,52.073760841644884L178.69791666666666,45.25436789620175L189.86653645833334,39.24382233668178L189.86653645833334,35.63858039490691L201.03515625,31.20138810806808L212.20377604166666,26.52321699682489L223.37239583333334,21.035348006173873L234.541015625,15.631420700207958L245.70963541666666,10.774121542783453" style="fill: none;" fill="none"></path></g></g></g></g><g opacity="0.2"><g><g><g><path stroke="rgb(255, 112, 67)" stroke-width="2px" d="M23.4541015625,163.1928861603141L24.570963541666664,163.15348842144013L25.687825520833336,163.02103069573639L26.8046875,162.72955336570737L27.921549479166668,162.48628743886948L29.038411458333336,162.07156167328355L30.1552734375,161.65717658549545L31.272135416666668,161.0622652336955L32.388997395833336,160.51790607124568L33.505859375,159.83183593451977L34.62272135416667,159.08042159825564L35.739583333333336,158.19398895800114L36.8564453125,157.2425637856126L37.973307291666664,156.28387448340655L39.090169270833336,155.33633963167668L40.20703125,154.1113941460848L41.32389322916667,152.68864673525096L42.44075520833333,151.14194755405188L43.5576171875,149.9712247863412L44.674479166666664,148.57942410707474L45.791341145833336,147.13962082713843L46.908203125,144.92790759503842L48.025065104166664,143.45791586637498L49.14192708333333,141.7405041396618L50.2587890625,139.84651141762734L51.37565104166667,138.22167613506318L52.492513020833336,136.1715430855751L53.609375,134.37401712834836L54.726236979166664,133.06669355332852L55.843098958333336,131.7013668358326L56.9599609375,130.14396377801896L58.07682291666667,128.71749089062214L59.19368489583333,127.13358090221882L60.310546875,126.11411907672883L61.427408854166664,124.5557489335537L62.544270833333336,123.2420953452587L63.6611328125,122.39117012321948L64.77799479166667,121.29713282883166L65.89485677083333,120.10678262412549L67.01171875,118.77580941617488L68.12858072916666,117.51358718574048L69.24544270833334,116.25459589958191L70.3623046875,115.27315811216832L71.47916666666667,114.14248147010804L72.59602864583333,112.91793161034585L73.712890625,111.60546489953995L74.82975260416667,110.36647469699383L75.94661458333333,108.58996086716651L77.0634765625,107.46875726580619L78.18033854166667,106.24805376827716L79.29720052083333,105.13210319876671L80.4140625,104.11719107031823L81.53092447916666,103.03831943273545L82.64778645833334,101.91661030948161L83.7646484375,100.50767683386803L84.88151041666666,99.86188360452653L85.99837239583334,98.697029286623L87.115234375,97.67317161858082L88.23209635416667,96.83288433551787L89.34895833333333,95.5956744492054L90.4658203125,94.30136256814004L91.58268229166667,93.6938351482153L92.69954427083333,92.82528259754181L93.81640625,91.66264818012714L94.93326822916667,90.81040420532226L96.05013020833333,89.84446176290513L97.1669921875,88.95155624449252L98.28385416666666,87.94677653312684L99.40071614583334,87.20717602372169L100.517578125,86.23393648266791L101.63444010416666,85.35127327740193L102.75130208333334,84.51226078867913L103.8681640625,83.84389490783214L104.98502604166667,83.27423767149449L106.10188802083333,82.58756310641766L107.21875,81.62302733361722L108.33561197916667,80.83795183300973L109.45247395833333,79.77892742455006L110.5693359375,78.93477180004119L111.68619791666667,78.38104949295521L112.80305989583333,77.47376956939698L113.919921875,76.29267261326314L115.03678385416666,75.75462148487568L116.15364583333334,75.14340155720711L117.2705078125,74.15071041285992L118.38736979166666,73.065508762002L119.50423177083334,72.56734990477563L120.62109375,72.02246324121951L121.73795572916667,71.4340577363968L122.85481770833333,70.60350724458695L123.9716796875,69.87676457464696L125.08854166666667,69.17670466899872L126.20540364583333,68.11666921675206L127.322265625,67.42612631022931L128.43912760416669,66.88407496511935L129.55598958333334,65.62660024464131L130.6728515625,65.05971238911151L131.78971354166666,64.45486643314361L132.90657552083334,63.48751732110977L134.0234375,62.80844756364823L135.14029947916666,61.9188828855753L136.25716145833331,61.02446080148221L137.3740234375,60.30569658577442L138.49088541666669,59.70577397346498L139.60774739583334,58.930699014663695L140.724609375,58.55357968211175L141.84147135416666,57.833298900723456L142.95833333333334,56.720843026042L144.0751953125,55.857125902175916L145.19205729166666,54.978902497887624L146.30891927083331,54.215190792083746L147.42578125,53.69245917499067L148.54264322916669,52.93022007644178L149.65950520833334,51.894273841381086L150.7763671875,51.303912186622625L151.89322916666666,50.39267600476743L153.01009114583331,49.577291169762624L154.126953125,48.97470907270908L155.24381510416669,48.64833974242211L156.36067708333334,47.90218942761422L157.4775390625,46.85408868789673L158.59440104166666,46.29794866740705L159.71126302083334,45.142721244692815L160.828125,44.29544457197189L161.94498697916666,43.84256289303304L163.06184895833331,43.251783633232115L164.1787109375,42.66724646985531L165.29557291666669,42.13629462718965L166.41243489583334,41.60743080973625L167.529296875,41.177231678366674L168.64615885416666,40.40648662447931L169.76302083333331,39.62101549804211L170.8798828125,39.09338251650334L171.99674479166669,38.51783485114576L173.11360677083334,38.089965516328824L174.23046875,37.23213882148266L175.34733072916666,36.82356723546983L176.46419270833334,36.284373188018805L177.5810546875,35.56672991216184L178.69791666666666,35.04283339679242L179.81477864583331,34.5957762092352L180.931640625,34.22533855736256L182.04850260416669,33.67405594289304L183.16536458333334,33.348345988988875L184.2822265625,33.18556793928147L185.39908854166666,32.591601693630224L186.51595052083331,32.219185912609106L187.6328125,31.613966310024274L188.74967447916669,30.999779188632964L189.86653645833334,30.24534271061421L190.9833984375,29.572976613044744L192.10026041666666,29.08222475051881L193.21712239583334,28.6477616518736L194.333984375,28.032739320397383L195.45084635416666,27.16583521068096L196.56770833333331,26.601562881469732L197.6845703125,26.39084816873075L198.80143229166669,25.74635171294213L199.91829427083334,25.507877254486097L201.03515625,24.55301233530045L202.15201822916666,23.987553128600133L203.26888020833331,23.6779759168625L204.3857421875,22.97360808551312L205.50260416666669,22.35786044001579L206.61946614583334,21.69804447293282L207.736328125,21.19458862543106L208.85319010416666,20.79041288197041L209.97005208333334,20.293924444913877L211.0869140625,19.855658942461012L212.20377604166666,19.51750875413419L213.32063802083331,18.49277191758157L214.4375,18.15196224451065L215.55436197916669,17.84792379438877L216.67122395833334,17.51313642561437L217.7880859375,16.97460175454617L218.90494791666666,16.405010455846785L220.02180989583331,14.933326327800762L221.138671875,14.084115484356891L222.25553385416669,13.306337082386015L223.37239583333334,12.80767270326615L224.4892578125,12.131855869293211L225.60611979166666,11.954725393652927L226.72298177083334,11.409003520011908L227.83984375,10.96930936872959L228.95670572916666,10.218323627114307L230.07356770833331,9.537935116887091L231.1904296875,9.306911611557013L232.30729166666669,8.873789244890224L233.42415364583334,8.120605581998824L234.541015625,7.529936218261717L235.65787760416666,7.273438805341719L236.77473958333331,6.964938575029379L237.8916015625,6.852558860182761L239.00846354166669,6.467417114973067L240.12532552083334,6.182962143421172L241.2421875,5.714673036336897L242.35904947916666,4.960170620679861L243.47591145833334,4.235889622569083L244.5927734375,3.803976112604153L245.70963541666666,3.4900250375270896" style="fill: none;" fill="none"></path></g><g><path stroke="rgb(0, 119, 187)" stroke-width="2px" d="M22.337239583333332,163.18054483234883L33.505859375,159.82396737635136L44.674479166666664,148.569148825109L55.843098958333336,131.67897001802922L67.01171875,118.76376480758191L78.18033854166667,106.22425028085708L89.34895833333333,95.56387052834035L100.517578125,86.22683719694615L111.68619791666667,78.37318093478679L122.85481770833333,70.5961002498865L134.0234375,62.80308463573456L145.19205729166666,54.96947341561319L156.36067708333334,47.89539785087109L167.529296875,41.17167093753815L178.69791666666666,35.03329441845418L189.86653645833334,30.232243099808706L189.86653645833334,30.232243099808706L201.03515625,24.54672628045082L212.20377604166666,19.506673002243048L223.37239583333334,12.804046133160597L234.541015625,7.525826105475438L245.70963541666666,3.488332638144505" style="fill: none;" fill="none"></path></g></g></g></g></g></g><g transform="translate(61, 177)" clip-path="url(#clip_1)"><clipPath id="clip_1"><rect width="268" height="23"></rect></clipPath><g><g><line x1="0" y1="0" x2="0" y2="5" style="visibility: inherit;" fill="rgb(0, 0, 0)" stroke="rgb(204, 204, 204)" stroke-width="1px"></line><line x1="22.337239583333332" y1="0" x2="22.337239583333332" y2="5" style="visibility: inherit;" fill="rgb(0, 0, 0)" stroke="rgb(204, 204, 204)" stroke-width="1px"></line><line x1="44.674479166666664" y1="0" x2="44.674479166666664" y2="5" style="visibility: inherit;" fill="rgb(0, 0, 0)" stroke="rgb(204, 204, 204)" stroke-width="1px"></line><line x1="67.01171875" y1="0" x2="67.01171875" y2="5" style="visibility: inherit;" fill="rgb(0, 0, 0)" stroke="rgb(204, 204, 204)" stroke-width="1px"></line><line x1="89.34895833333333" y1="0" x2="89.34895833333333" y2="5" style="visibility: inherit;" fill="rgb(0, 0, 0)" stroke="rgb(204, 204, 204)" stroke-width="1px"></line><line x1="111.68619791666667" y1="0" x2="111.68619791666667" y2="5" style="visibility: inherit;" fill="rgb(0, 0, 0)" stroke="rgb(204, 204, 204)" stroke-width="1px"></line><line x1="134.0234375" y1="0" x2="134.0234375" y2="5" style="visibility: inherit;" fill="rgb(0, 0, 0)" stroke="rgb(204, 204, 204)" stroke-width="1px"></line><line x1="156.36067708333334" y1="0" x2="156.36067708333334" y2="5" style="visibility: inherit;" fill="rgb(0, 0, 0)" stroke="rgb(204, 204, 204)" stroke-width="1px"></line><line x1="178.69791666666666" y1="0" x2="178.69791666666666" y2="5" style="visibility: inherit;" fill="rgb(0, 0, 0)" stroke="rgb(204, 204, 204)" stroke-width="1px"></line><line x1="201.03515625" y1="0" x2="201.03515625" y2="5" style="visibility: inherit;" fill="rgb(0, 0, 0)" stroke="rgb(204, 204, 204)" stroke-width="1px"></line><line x1="223.37239583333334" y1="0" x2="223.37239583333334" y2="5" style="visibility: inherit;" fill="rgb(0, 0, 0)" stroke="rgb(204, 204, 204)" stroke-width="1px"></line><line x1="245.70963541666666" y1="0" x2="245.70963541666666" y2="5" style="visibility: inherit;" fill="rgb(0, 0, 0)" stroke="rgb(204, 204, 204)" stroke-width="1px"></line><line x1="268.046875" y1="0" x2="268.046875" y2="5" style="visibility: inherit;" fill="rgb(0, 0, 0)" stroke="rgb(204, 204, 204)" stroke-width="1px"></line></g><g transform="translate(0, 8)"><text x="0" y="0" dx="0em" dy="0.95em" style="text-anchor: middle; visibility: hidden; font-family: Roboto, sans-serif; font-size: 12px; font-weight: 200;" fill="rgb(255, 255, 255)" stroke="none" stroke-width="1px">-2k</text><text x="22.337239583333332" y="0" dx="0em" dy="0.95em" style="text-anchor: middle; visibility: inherit; font-family: Roboto, sans-serif; font-size: 12px; font-weight: 200;" fill="rgb(255, 255, 255)" stroke="none" stroke-width="1px">0</text><text x="44.674479166666664" y="0" dx="0em" dy="0.95em" style="text-anchor: middle; visibility: hidden; font-family: Roboto, sans-serif; font-size: 12px; font-weight: 200;" fill="rgb(255, 255, 255)" stroke="none" stroke-width="1px">2k</text><text x="67.01171875" y="0" dx="0em" dy="0.95em" style="text-anchor: middle; visibility: inherit; font-family: Roboto, sans-serif; font-size: 12px; font-weight: 200;" fill="rgb(255, 255, 255)" stroke="none" stroke-width="1px">4k</text><text x="89.34895833333333" y="0" dx="0em" dy="0.95em" style="text-anchor: middle; visibility: hidden; font-family: Roboto, sans-serif; font-size: 12px; font-weight: 200;" fill="rgb(255, 255, 255)" stroke="none" stroke-width="1px">6k</text><text x="111.68619791666667" y="0" dx="0em" dy="0.95em" style="text-anchor: middle; visibility: inherit; font-family: Roboto, sans-serif; font-size: 12px; font-weight: 200;" fill="rgb(255, 255, 255)" stroke="none" stroke-width="1px">8k</text><text x="134.0234375" y="0" dx="0em" dy="0.95em" style="text-anchor: middle; visibility: hidden; font-family: Roboto, sans-serif; font-size: 12px; font-weight: 200;" fill="rgb(255, 255, 255)" stroke="none" stroke-width="1px">10k</text><text x="156.36067708333334" y="0" dx="0em" dy="0.95em" style="text-anchor: middle; visibility: inherit; font-family: Roboto, sans-serif; font-size: 12px; font-weight: 200;" fill="rgb(255, 255, 255)" stroke="none" stroke-width="1px">12k</text><text x="178.69791666666666" y="0" dx="0em" dy="0.95em" style="text-anchor: middle; visibility: hidden; font-family: Roboto, sans-serif; font-size: 12px; font-weight: 200;" fill="rgb(255, 255, 255)" stroke="none" stroke-width="1px">14k</text><text x="201.03515625" y="0" dx="0em" dy="0.95em" style="text-anchor: middle; visibility: inherit; font-family: Roboto, sans-serif; font-size: 12px; font-weight: 200;" fill="rgb(255, 255, 255)" stroke="none" stroke-width="1px">16k</text><text x="223.37239583333334" y="0" dx="0em" dy="0.95em" style="text-anchor: middle; visibility: hidden; font-family: Roboto, sans-serif; font-size: 12px; font-weight: 200;" fill="rgb(255, 255, 255)" stroke="none" stroke-width="1px">18k</text><text x="245.70963541666666" y="0" dx="0em" dy="0.95em" style="text-anchor: middle; visibility: inherit; font-family: Roboto, sans-serif; font-size: 12px; font-weight: 200;" fill="rgb(255, 255, 255)" stroke="none" stroke-width="1px">20k</text><text x="268.046875" y="0" dx="0em" dy="0.95em" style="text-anchor: middle; visibility: hidden; font-family: Roboto, sans-serif; font-size: 12px; font-weight: 200;" fill="rgb(255, 255, 255)" stroke="none" stroke-width="1px">22k</text></g><line x1="0" y1="0" x2="268.046875" y2="0" fill="rgb(0, 0, 0)" stroke="rgb(204, 204, 204)" stroke-width="1px"></line></g></g></g></g></svg>