<svg viewBox="0 0 330 200" xmlns="http://www.w3.org/2000/svg"><g><g><g><g><g><line x1="51.5625" y1="177" x2="46.5625" y2="177" style="visibility: inherit;" fill="rgb(0, 0, 0)" stroke="rgb(204, 204, 204)" stroke-width="1px"></line><line x1="51.5625" y1="162.25" x2="46.5625" y2="162.25" style="visibility: inherit;" fill="rgb(0, 0, 0)" stroke="rgb(204, 204, 204)" stroke-width="1px"></line><line x1="51.5625" y1="147.5" x2="46.5625" y2="147.5" style="visibility: inherit;" fill="rgb(0, 0, 0)" stroke="rgb(204, 204, 204)" stroke-width="1px"></line><line x1="51.5625" y1="132.75000000000003" x2="46.5625" y2="132.75000000000003" style="visibility: inherit;" fill="rgb(0, 0, 0)" stroke="rgb(204, 204, 204)" stroke-width="1px"></line><line x1="51.5625" y1="118.00000000000001" x2="46.5625" y2="118.00000000000001" style="visibility: inherit;" fill="rgb(0, 0, 0)" stroke="rgb(204, 204, 204)" stroke-width="1px"></line><line x1="51.5625" y1="103.25" x2="46.5625" y2="103.25" style="visibility: inherit;" fill="rgb(0, 0, 0)" stroke="rgb(204, 204, 204)" stroke-width="1px"></line><line x1="51.5625" y1="88.5" x2="46.5625" y2="88.5" style="visibility: inherit;" fill="rgb(0, 0, 0)" stroke="rgb(204, 204, 204)" stroke-width="1px"></line><line x1="51.5625" y1="73.75" x2="46.5625" y2="73.75" style="visibility: inherit;" fill="rgb(0, 0, 0)" stroke="rgb(204, 204, 204)" stroke-width="1px"></line><line x1="51.5625" y1="59.00000000000004" x2="46.5625" y2="59.00000000000004" style="visibility: inherit;" fill="rgb(0, 0, 0)" stroke="rgb(204, 204, 204)" stroke-width="1px"></line><line x1="51.5625" y1="44.25000000000004" x2="46.5625" y2="44.25000000000004" style="visibility: inherit;" fill="rgb(0, 0, 0)" stroke="rgb(204, 204, 204)" stroke-width="1px"></line><line x1="51.5625" y1="29.500000000000014" x2="46.5625" y2="29.500000000000014" style="visibility: inherit;" fill="rgb(0, 0, 0)" stroke="rgb(204, 204, 204)" stroke-width="1px"></line><line x1="51.5625" y1="14.750000000000007" x2="46.5625" y2="14.750000000000007" style="visibility: inherit;" fill="rgb(0, 0, 0)" stroke="rgb(204, 204, 204)" stroke-width="1px"></line><line x1="51.5625" y1="0" x2="46.5625" y2="0" style="visibility: inherit;" fill="rgb(0, 0, 0)" stroke="rgb(204, 204, 204)" stroke-width="1px"></line></g><g transform="translate(41.5625, 0)"><text x="0" y="177" dx="0em" dy="0.3em" style="text-anchor: end; visibility: hidden; font-family: Roboto, sans-serif; font-size: 12px; font-weight: 200;" fill="rgb(255, 255, 255)" stroke="none" stroke-width="1px">1</text><text x="0" y="162.25" dx="0em" dy="0.3em" style="text-anchor: end; visibility: inherit; font-family: Roboto, sans-serif; font-size: 12px; font-weight: 200;" fill="rgb(255, 255, 255)" stroke="none" stroke-width="1px">1.05</text><text x="0" y="147.5" dx="0em" dy="0.3em" style="text-anchor: end; visibility: hidden; font-family: Roboto, sans-serif; font-size: 12px; font-weight: 200;" fill="rgb(255, 255, 255)" stroke="none" stroke-width="1px">1.1</text><text x="0" y="132.75000000000003" dx="0em" dy="0.3em" style="text-anchor: end; visibility: inherit; font-family: Roboto, sans-serif; font-size: 12px; font-weight: 200;" fill="rgb(255, 255, 255)" stroke="none" stroke-width="1px">1.15</text><text x="0" y="118.00000000000001" dx="0em" dy="0.3em" style="text-anchor: end; visibility: hidden; font-family: Roboto, sans-serif; font-size: 12px; font-weight: 200;" fill="rgb(255, 255, 255)" stroke="none" stroke-width="1px">1.2</text><text x="0" y="103.25" dx="0em" dy="0.3em" style="text-anchor: end; visibility: inherit; font-family: Roboto, sans-serif; font-size: 12px; font-weight: 200;" fill="rgb(255, 255, 255)" stroke="none" stroke-width="1px">1.25</text><text x="0" y="88.5" dx="0em" dy="0.3em" style="text-anchor: end; visibility: hidden; font-family: Roboto, sans-serif; font-size: 12px; font-weight: 200;" fill="rgb(255, 255, 255)" stroke="none" stroke-width="1px">1.3</text><text x="0" y="73.75" dx="0em" dy="0.3em" style="text-anchor: end; visibility: inherit; font-family: Roboto, sans-serif; font-size: 12px; font-weight: 200;" fill="rgb(255, 255, 255)" stroke="none" stroke-width="1px">1.35</text><text x="0" y="59.00000000000004" dx="0em" dy="0.3em" style="text-anchor: end; visibility: hidden; font-family: Roboto, sans-serif; font-size: 12px; font-weight: 200;" fill="rgb(255, 255, 255)" stroke="none" stroke-width="1px">1.4</text><text x="0" y="44.25000000000004" dx="0em" dy="0.3em" style="text-anchor: end; visibility: inherit; font-family: Roboto, sans-serif; font-size: 12px; font-weight: 200;" fill="rgb(255, 255, 255)" stroke="none" stroke-width="1px">1.45</text><text x="0" y="29.500000000000014" dx="0em" dy="0.3em" style="text-anchor: end; visibility: hidden; font-family: Roboto, sans-serif; font-size: 12px; font-weight: 200;" fill="rgb(255, 255, 255)" stroke="none" stroke-width="1px">1.5</text><text x="0" y="14.750000000000007" dx="0em" dy="0.3em" style="text-anchor: end; visibility: inherit; font-family: Roboto, sans-serif; font-size: 12px; font-weight: 200;" fill="rgb(255, 255, 255)" stroke="none" stroke-width="1px">1.55</text><text x="0" y="0" dx="0em" dy="0.3em" style="text-anchor: end; visibility: hidden; font-family: Roboto, sans-serif; font-size: 12px; font-weight: 200;" fill="rgb(255, 255, 255)" stroke="none" stroke-width="1px">1.6</text></g><line x1="51.5625" y1="0" x2="51.5625" y2="177" fill="rgb(0, 0, 0)" stroke="rgb(204, 204, 204)" stroke-width="1px"></line></g></g><g transform="translate(51, 0)" clip-path="url(#clip_0)"><clipPath id="clip_0"><rect width="278" height="177"></rect></clipPath><g><g><g><line x1="0" y1="0" x2="0" y2="177" fill="rgb(0, 0, 0)" stroke="rgb(189, 189, 189)" stroke-width="1px" opacity="0.25"></line><line x1="23.203125" y1="0" x2="23.203125" y2="177" fill="rgb(0, 0, 0)" stroke="rgb(189, 189, 189)" stroke-width="1px" opacity="0.25"></line><line x1="46.40625" y1="0" x2="46.40625" y2="177" fill="rgb(0, 0, 0)" stroke="rgb(189, 189, 189)" stroke-width="1px" opacity="0.25"></line><line x1="69.609375" y1="0" x2="69.609375" y2="177" fill="rgb(0, 0, 0)" stroke="rgb(189, 189, 189)" stroke-width="1px" opacity="0.25"></line><line x1="92.8125" y1="0" x2="92.8125" y2="177" fill="rgb(0, 0, 0)" stroke="rgb(189, 189, 189)" stroke-width="1px" opacity="0.25"></line><line x1="116.015625" y1="0" x2="116.015625" y2="177" fill="rgb(0, 0, 0)" stroke="rgb(189, 189, 189)" stroke-width="1px" opacity="0.25"></line><line x1="139.21875" y1="0" x2="139.21875" y2="177" fill="rgb(0, 0, 0)" stroke="rgb(189, 189, 189)" stroke-width="1px" opacity="0.25"></line><line x1="162.421875" y1="0" x2="162.421875" y2="177" fill="rgb(0, 0, 0)" stroke="rgb(189, 189, 189)" stroke-width="1px" opacity="0.25"></line><line x1="185.625" y1="0" x2="185.625" y2="177" fill="rgb(0, 0, 0)" stroke="rgb(189, 189, 189)" stroke-width="1px" opacity="0.25"></line><line x1="208.828125" y1="0" x2="208.828125" y2="177" fill="rgb(0, 0, 0)" stroke="rgb(189, 189, 189)" stroke-width="1px" opacity="0.25"></line><line x1="232.03125" y1="0" x2="232.03125" y2="177" fill="rgb(0, 0, 0)" stroke="rgb(189, 189, 189)" stroke-width="1px" opacity="0.25"></line><line x1="255.234375" y1="0" x2="255.234375" y2="177" fill="rgb(0, 0, 0)" stroke="rgb(189, 189, 189)" stroke-width="1px" opacity="0.25"></line><line x1="278.4375" y1="0" x2="278.4375" y2="177" fill="rgb(0, 0, 0)" stroke="rgb(189, 189, 189)" stroke-width="1px" opacity="0.25"></line></g><g><line x1="0" y1="177" x2="278.4375" y2="177" fill="rgb(0, 0, 0)" stroke="rgb(189, 189, 189)" stroke-width="1px" opacity="0.25"></line><line x1="0" y1="162.25" x2="278.4375" y2="162.25" fill="rgb(0, 0, 0)" stroke="rgb(189, 189, 189)" stroke-width="1px" opacity="0.25"></line><line x1="0" y1="147.5" x2="278.4375" y2="147.5" fill="rgb(0, 0, 0)" stroke="rgb(189, 189, 189)" stroke-width="1px" opacity="0.25"></line><line x1="0" y1="132.75000000000003" x2="278.4375" y2="132.75000000000003" fill="rgb(0, 0, 0)" stroke="rgb(189, 189, 189)" stroke-width="1px" opacity="0.25"></line><line x1="0" y1="118.00000000000001" x2="278.4375" y2="118.00000000000001" fill="rgb(0, 0, 0)" stroke="rgb(189, 189, 189)" stroke-width="1px" opacity="0.25"></line><line x1="0" y1="103.25" x2="278.4375" y2="103.25" fill="rgb(0, 0, 0)" stroke="rgb(189, 189, 189)" stroke-width="1px" opacity="0.25"></line><line x1="0" y1="88.5" x2="278.4375" y2="88.5" fill="rgb(0, 0, 0)" stroke="rgb(189, 189, 189)" stroke-width="1px" opacity="0.25"></line><line x1="0" y1="73.75" x2="278.4375" y2="73.75" fill="rgb(0, 0, 0)" stroke="rgb(189, 189, 189)" stroke-width="1px" opacity="0.25"></line><line x1="0" y1="59.00000000000004" x2="278.4375" y2="59.00000000000004" fill="rgb(0, 0, 0)" stroke="rgb(189, 189, 189)" stroke-width="1px" opacity="0.25"></line><line x1="0" y1="44.25000000000004" x2="278.4375" y2="44.25000000000004" fill="rgb(0, 0, 0)" stroke="rgb(189, 189, 189)" stroke-width="1px" opacity="0.25"></line><line x1="0" y1="29.500000000000014" x2="278.4375" y2="29.500000000000014" fill="rgb(0, 0, 0)" stroke="rgb(189, 189, 189)" stroke-width="1px" opacity="0.25"></line><line x1="0" y1="14.750000000000007" x2="278.4375" y2="14.750000000000007" fill="rgb(0, 0, 0)" stroke="rgb(189, 189, 189)" stroke-width="1px" opacity="0.25"></line><line x1="0" y1="0" x2="278.4375" y2="0" fill="rgb(0, 0, 0)" stroke="rgb(189, 189, 189)" stroke-width="1px" opacity="0.25"></line></g></g></g><g><g><line x1="0" y1="472" x2="278.4375" y2="472" fill="rgb(0, 0, 0)" stroke="rgb(153, 153, 153)" stroke-width="1.5px"></line></g></g><g><g><line x1="23.203125" y1="0" x2="23.203125" y2="177" fill="rgb(0, 0, 0)" stroke="rgb(153, 153, 153)" stroke-width="1.5px"></line></g></g><g><g><g><g><g><path stroke="rgb(255, 112, 67)" stroke-width="2px" d="M24.36328125,305.75261068344116L25.523437499999996,161.3897344917059L26.683593750000004,116.21392747334073L27.84375,96.60630870917268L29.00390625,86.36679803109027L30.1640625,80.54308932563481L31.32421875,76.76178930560157L32.484375,74.27891956623782L33.64453125,77.25436538568285L34.8046875,177.11224929934704L35.96484375000001,143.38587731561606L37.125,216.28174061169494L38.28515625,158.85429848287592L39.4453125,125.69103452524809L40.60546875,104.52390810495203L41.765625,93.0241810220758L42.92578125,83.99029929162502L44.0859375,79.4596324502905L45.24609375,77.43856005218106L46.40625,76.31715095999942L47.56640625,176.01916282894612L48.7265625,134.39109785869482L49.88671875,110.16144447623027L51.04687499999999,95.3271068827369L52.20703125,86.05998423527711L53.36718750000001,81.32324957389437L54.52734375,79.60981427025409L55.6875,76.8349930078242L56.84765625,75.60670361742785L58.0078125,75.09142145343769L59.16796875,175.99060427094417L60.328125,135.14678307522038L61.48828125,108.88042512963456L62.6484375,95.31100682141667L63.80859375,88.6237821604939L64.96875,83.11631235319845L66.12890625,79.40865085714378L67.2890625,76.79702289442038L68.44921875,75.19140490853592L69.609375,77.14559350849429L70.76953125,175.74104115789177L71.92968750000001,135.4433003078194L73.08984375,110.46344492967627L74.25,95.69232762876968L75.41015625,86.93880074543463L76.5703125,80.55615831170043L77.73046875,77.55363831958L78.890625,74.8220645071896L80.05078125,72.32296988256381L81.2109375,72.10490472845616L82.37109375,173.5132986653739L83.53125,132.87961692493622L84.69140624999999,108.20279752537151L85.8515625,93.54959680629959L87.01171875,85.56064559216705L88.171875,80.33593369242591L89.33203125000001,76.50327182243409L90.4921875,75.31781330365013L91.65234375,75.38422955666829L92.8125,56.66692770477947L93.97265625,155.67004933927834L95.1328125,101.57802667006386L96.29296875,68.68412908187196L97.453125,49.06770911378065L98.61328125,37.111163941397635L99.7734375,29.652920775040496L100.93359375,25.22682851101433L102.09374999999999,22.81302185979768L103.25390625,21.29709112720065L104.4140625,20.485760426976473L105.57421875,133.3738182404388L106.73437500000001,88.53230424039056L107.89453125,61.01403162069614L109.0546875,44.174019892141274L110.21484375,34.14963035531342L111.375,27.952917318031197L112.53515625,24.27934025554954L113.6953125,22.124765055353063L114.85546875,21.30550492821613L116.015625,20.200275164952743L117.17578125,132.44957200414586L118.3359375,86.98428201512488L119.49609374999999,59.74698457620144L120.65625,43.421050080666525L121.81640625,33.51728835642909L122.9765625,27.487902205828302L124.13671875000001,23.9614649067184L125.296875,21.999857917419742L126.45703125,20.599627122278L127.6171875,19.89918500482738L128.77734375,133.73842345654788L129.9375,87.79453203070054L131.09765625,60.1267340957397L132.2578125,43.40017247076472L133.41796875,33.46128163263583L134.578125,27.76165548280108L135.73828125,25.155300565452738L136.8984375,22.691866128379907L138.05859375,21.24071505590371L139.21875,20.292024582171976L140.37890625,132.53484395119224L141.5390625,86.91628620012209L142.69921875,59.700025874278566L143.85937500000003,43.374377154053235L145.01953125,33.53003581925686L146.1796875,27.862438252952426L147.33984375,24.175847513310142L148.5,22.00865329672815L149.66015625,20.67995017391401L150.8203125,19.972895822655914L151.98046874999997,132.75554199321974L153.140625,87.04881755890791L154.30078125,60.06101927985156L155.4609375,43.43969994681723L156.62109375,34.10476268468884L157.78125,28.34829300128576L158.94140625,24.67062412192319L160.1015625,22.5574819236392L161.26171875000003,20.870254325234544L162.421875,20.614832620241454L163.58203125,133.72519639755382L164.7421875,87.92034194245993L165.90234375,60.01267131194506L167.0625,43.42786660209318L168.22265625,33.75835989961036L169.38281249999997,27.92410554319028L170.54296875,24.237267671998804L171.703125,22.08662234483748L172.86328125,20.589581315151417L174.0234375,19.884464302320225L175.18359375,132.86543168941674L176.34375,87.23661116552077L177.50390625,60.1283444153769L178.66406250000003,43.60053408071416L179.82421875,33.32891700223098L180.984375,27.537349734038145L182.14453125,24.016186209517738L183.3046875,21.853931124209137L184.46484375,20.687918815135205L185.625,20.08091249055818L186.78515624999997,132.92532471410726L187.9453125,87.22557828183355L189.10546875,59.870563825103L190.265625,43.641364669878726L191.42578125,33.74109350209201L192.5859375,27.692940774946006L193.74609375,24.073741092317476L194.90625,21.841199954767927L196.06640625000003,20.683374786627244L197.2265625,20.301143207700257L198.38671875,133.57098195466472L199.546875,87.4843045563285L200.70703125,60.34891160075573L201.8671875,44.12508201446955L203.02734375,34.3463616362025L204.18749999999997,28.349251603532448L205.34765625,24.960720023780247L206.5078125,22.700972533982515L207.66796875,201.32597190917224L208.828125,209.7817394183915L209.98828125,136.71308504622226L211.1484375,89.8968424503866L212.30859375,139.7567301335849L213.46875000000003,95.17180360215411L214.62890625,64.84402444873754L215.7890625,46.861086338248825L216.94921875,37.03355582325875L218.109375,37.77394389968645L219.26953125,29.782547854551872L220.4296875,24.971392859917408L221.58984374999997,102.95614766472669L222.75,69.23536476727776L223.91015625,48.784115703323174L225.0703125,36.213140768658306L226.23046875,28.87255356481741L227.390625,24.229503475255196L228.55078125,21.39611392177729L229.7109375,19.945848446831647L230.87109375000003,19.338469112959817L232.03125,18.87937264743288L233.19140625,99.13536349000235L234.3515625,66.49668459333003L235.51171875,47.0050936474623L236.671875,35.111067195786326L237.83203125,28.31517790559132L238.99218749999997,24.2685066628647L240.15234375,21.523932919990553L241.3125,20.083195439631634L242.47265625,19.071981043609945L243.6328125,19.54796600997036L244.79296875,99.52511845028155L245.953125,66.51751152274466L247.11328125,46.83237361668025L248.27343750000003,35.21327314232872L249.43359375,28.107869776815683L250.59375,23.853785176712538L251.75390625,21.394723212503376L252.9140625,20.278380653728792L254.07421875,19.203791869562735L255.234375,18.553876121569772" style="fill: none;" fill="none"></path></g></g></g></g><g opacity="0.2"><g><g><g><path stroke="rgb(255, 112, 67)" stroke-width="2px" d="M24.36328125,305.75261068344116L25.523437499999996,74.77200877666473L26.683593750000004,72.84515273571014L27.84375,73.547749042511L29.00390625,72.99809288978578L30.1640625,72.48680365085603L31.32421875,71.35446977615358L32.484375,70.6588716506958L33.64453125,81.64257001876832L34.8046875,325.3895690739155L35.96484375000001,93.102215051651L37.125,325.2288394868374L38.28515625,72.90064585208893L39.4453125,76.01110887527466L40.60546875,72.79809963703156L41.765625,75.78270089626312L42.92578125,70.44329953193666L44.0859375,72.6647825241089L45.24609375,74.40725934505464L46.40625,74.63513982295991L47.56640625,325.56671273708344L48.7265625,71.95037019252779L49.88671875,73.81744277477264L51.04687499999999,73.07577621936798L52.20703125,72.15936613082887L53.36718750000001,74.21816778182985L54.52734375,77.03966569900514L55.6875,72.67276537418365L56.84765625,73.76427066326141L58.0078125,74.31849849224092L59.16796875,327.33934503793716L60.328125,73.88105940818787L61.48828125,69.48089134693147L62.6484375,74.95688033103944L63.80859375,78.59294545650484L64.96875,74.85510778427125L66.12890625,73.84715867042543L67.2890625,72.87958097457887L68.44921875,72.78297793865205L69.609375,80.07687640190125L70.76953125,323.63421243429184L71.92968750000001,74.99668908119203L73.08984375,72.99366188049318L74.25,73.53565168380737L75.41015625,73.80851042270662L76.5703125,70.98219466209413L77.73046875,73.04985833168031L78.890625,70.72470378875732L80.05078125,68.57432794570924L81.2109375,71.7778069972992L82.37109375,325.62588956952095L83.53125,71.9290943145752L84.69140624999999,71.18756842613222L85.8515625,71.56979572772981L87.01171875,73.57721877098083L88.171875,72.49886584281923L89.33203125000001,70.75427901744844L90.4921875,73.53962552547456L91.65234375,75.48385393619539L92.8125,28.590974926948572L93.97265625,304.17473179101944L95.1328125,20.439992666244528L96.29296875,19.343282699584993L97.453125,19.643079161644007L98.61328125,19.176346182823206L99.7734375,18.465556025505087L100.93359375,18.587690114975008L102.09374999999999,19.19231188297275L103.25390625,19.023195028305086L104.4140625,19.268764376640345L105.57421875,302.7059049606323L106.73437500000001,21.27003324031833L107.89453125,19.7366226911545L109.0546875,18.91400229930881L110.21484375,19.11304605007174L111.375,18.65784776210788L112.53515625,18.76897466182711L113.6953125,18.89290225505832L114.85546875,20.076614737510713L116.015625,18.54243052005771L117.17578125,300.82351726293564L118.3359375,18.786347031593355L119.49609374999999,18.891038417816183L120.65625,18.93214833736423L121.81640625,18.66164577007297L122.9765625,18.443822979927084L124.13671875000001,18.67180895805361L125.296875,19.057447433471705L126.45703125,18.49928092956546L127.6171875,18.84852182865145L128.77734375,304.49728113412857L129.9375,18.878694891929648L131.09765625,18.625037193298372L132.2578125,18.31033003330234L133.41796875,18.55294537544253L134.578125,19.212216258049036L135.73828125,21.24576818943027L136.8984375,18.996714472770723L138.05859375,19.063988447189356L139.21875,18.868988871574423L140.37890625,300.8990730047226L141.5390625,18.488449573516867L142.69921875,18.875635385513327L143.85937500000003,18.885904073715235L145.01953125,18.763523817062403L146.1796875,19.36104190349581L147.33984375,18.645961403846762L148.5,18.757861971855196L149.66015625,18.68689548969271L150.8203125,18.91231429576877L151.98046874999997,301.9295112490654L153.140625,18.488730907440218L154.30078125,19.57932186126711L155.4609375,18.507720947265657L156.62109375,20.10235679149631L157.78125,19.713588476181062L158.94140625,19.154120802879365L160.1015625,19.3877686262131L161.26171875000003,18.33941292762759L162.421875,20.231700062751802L163.58203125,303.39074206352234L164.7421875,19.213060259819056L165.90234375,18.151165366172812L167.0625,18.5506595373154L168.22265625,19.254099845886255L169.38281249999997,19.172724008560202L170.54296875,18.70701086521152L171.703125,18.86065435409548L172.86328125,18.344019770622275L174.0234375,18.826788783073447L175.18359375,302.3368827700615L176.34375,18.793380379676844L177.50390625,19.465944290161158L178.66406250000003,18.808818578720125L179.82421875,17.921491384506247L180.984375,18.849998831748984L182.14453125,18.734440922737154L183.3046875,18.610548496246363L184.46484375,18.938900351524385L185.625,19.17040300369265L186.78515624999997,302.19194304943085L187.9453125,18.675958633422876L189.10546875,18.83804214000705L190.265625,19.29756593704226L191.42578125,18.89068675041202L192.5859375,18.62071168422702L193.74609375,18.64494156837466L194.90625,18.49238824844363L196.06640625000003,18.94663703441622L197.2265625,19.727795839309717L198.38671875,303.4757400751114L199.546875,18.354288458824183L200.70703125,19.64582216739657L201.8671875,19.789337635040315L203.02734375,19.6782810688019L204.18749999999997,19.353586554527308L205.34765625,19.87792265415194L206.5078125,19.31135129928591L207.66796875,469.26347097195685L208.828125,222.46539068222043L209.98828125,27.11010348796846L211.1484375,19.672478556633017L212.30859375,214.54656165838242L213.46875000000003,28.29441380500796L214.62890625,19.352355718612703L215.7890625,19.886679172515894L216.94921875,22.292260050773642L218.109375,38.88452601432803L219.26953125,17.79545378685L220.4296875,17.75466036796573L221.58984374999997,219.93327987194058L222.75,18.654190421104452L223.91015625,18.10724210739139L225.0703125,17.356678366661097L226.23046875,17.861672759056113L227.390625,17.264928340911897L228.55078125,17.146029591560396L229.7109375,17.770450234413172L230.87109375000003,18.427400112152124L232.03125,18.190727949142477L233.19140625,219.51934975385663L234.3515625,17.538666248321558L235.51171875,17.76770722866061L236.671875,17.27002751827242L237.83203125,18.121343970298792L238.99218749999997,18.19849979877475L240.15234375,17.407072305679343L241.3125,17.922089219093355L242.47265625,17.555159449577364L243.6328125,20.261943459510828L244.79296875,219.4908471107483L245.953125,17.006101131439234L247.11328125,17.304666757583643L248.27343750000003,17.784622430801424L249.43359375,17.449764728546175L250.59375,17.472658276557954L251.75390625,17.706130266189607L252.9140625,18.603866815567038L254.07421875,17.59190869331362L255.234375,17.579002499580415" style="fill: none;" fill="none"></path></g></g></g></g></g></g><g transform="translate(51, 177)" clip-path="url(#clip_1)"><clipPath id="clip_1"><rect width="278" height="23"></rect></clipPath><g><g><line x1="0" y1="0" x2="0" y2="5" style="visibility: inherit;" fill="rgb(0, 0, 0)" stroke="rgb(204, 204, 204)" stroke-width="1px"></line><line x1="23.203125" y1="0" x2="23.203125" y2="5" style="visibility: inherit;" fill="rgb(0, 0, 0)" stroke="rgb(204, 204, 204)" stroke-width="1px"></line><line x1="46.40625" y1="0" x2="46.40625" y2="5" style="visibility: inherit;" fill="rgb(0, 0, 0)" stroke="rgb(204, 204, 204)" stroke-width="1px"></line><line x1="69.609375" y1="0" x2="69.609375" y2="5" style="visibility: inherit;" fill="rgb(0, 0, 0)" stroke="rgb(204, 204, 204)" stroke-width="1px"></line><line x1="92.8125" y1="0" x2="92.8125" y2="5" style="visibility: inherit;" fill="rgb(0, 0, 0)" stroke="rgb(204, 204, 204)" stroke-width="1px"></line><line x1="116.015625" y1="0" x2="116.015625" y2="5" style="visibility: inherit;" fill="rgb(0, 0, 0)" stroke="rgb(204, 204, 204)" stroke-width="1px"></line><line x1="139.21875" y1="0" x2="139.21875" y2="5" style="visibility: inherit;" fill="rgb(0, 0, 0)" stroke="rgb(204, 204, 204)" stroke-width="1px"></line><line x1="162.421875" y1="0" x2="162.421875" y2="5" style="visibility: inherit;" fill="rgb(0, 0, 0)" stroke="rgb(204, 204, 204)" stroke-width="1px"></line><line x1="185.625" y1="0" x2="185.625" y2="5" style="visibility: inherit;" fill="rgb(0, 0, 0)" stroke="rgb(204, 204, 204)" stroke-width="1px"></line><line x1="208.828125" y1="0" x2="208.828125" y2="5" style="visibility: inherit;" fill="rgb(0, 0, 0)" stroke="rgb(204, 204, 204)" stroke-width="1px"></line><line x1="232.03125" y1="0" x2="232.03125" y2="5" style="visibility: inherit;" fill="rgb(0, 0, 0)" stroke="rgb(204, 204, 204)" stroke-width="1px"></line><line x1="255.234375" y1="0" x2="255.234375" y2="5" style="visibility: inherit;" fill="rgb(0, 0, 0)" stroke="rgb(204, 204, 204)" stroke-width="1px"></line><line x1="278.4375" y1="0" x2="278.4375" y2="5" style="visibility: inherit;" fill="rgb(0, 0, 0)" stroke="rgb(204, 204, 204)" stroke-width="1px"></line></g><g transform="translate(0, 8)"><text x="0" y="0" dx="0em" dy="0.95em" style="text-anchor: middle; visibility: hidden; font-family: Roboto, sans-serif; font-size: 12px; font-weight: 200;" fill="rgb(255, 255, 255)" stroke="none" stroke-width="1px">-2k</text><text x="23.203125" y="0" dx="0em" dy="0.95em" style="text-anchor: middle; visibility: inherit; font-family: Roboto, sans-serif; font-size: 12px; font-weight: 200;" fill="rgb(255, 255, 255)" stroke="none" stroke-width="1px">0</text><text x="46.40625" y="0" dx="0em" dy="0.95em" style="text-anchor: middle; visibility: hidden; font-family: Roboto, sans-serif; font-size: 12px; font-weight: 200;" fill="rgb(255, 255, 255)" stroke="none" stroke-width="1px">2k</text><text x="69.609375" y="0" dx="0em" dy="0.95em" style="text-anchor: middle; visibility: inherit; font-family: Roboto, sans-serif; font-size: 12px; font-weight: 200;" fill="rgb(255, 255, 255)" stroke="none" stroke-width="1px">4k</text><text x="92.8125" y="0" dx="0em" dy="0.95em" style="text-anchor: middle; visibility: hidden; font-family: Roboto, sans-serif; font-size: 12px; font-weight: 200;" fill="rgb(255, 255, 255)" stroke="none" stroke-width="1px">6k</text><text x="116.015625" y="0" dx="0em" dy="0.95em" style="text-anchor: middle; visibility: inherit; font-family: Roboto, sans-serif; font-size: 12px; font-weight: 200;" fill="rgb(255, 255, 255)" stroke="none" stroke-width="1px">8k</text><text x="139.21875" y="0" dx="0em" dy="0.95em" style="text-anchor: middle; visibility: hidden; font-family: Roboto, sans-serif; font-size: 12px; font-weight: 200;" fill="rgb(255, 255, 255)" stroke="none" stroke-width="1px">10k</text><text x="162.421875" y="0" dx="0em" dy="0.95em" style="text-anchor: middle; visibility: inherit; font-family: Roboto, sans-serif; font-size: 12px; font-weight: 200;" fill="rgb(255, 255, 255)" stroke="none" stroke-width="1px">12k</text><text x="185.625" y="0" dx="0em" dy="0.95em" style="text-anchor: middle; visibility: hidden; font-family: Roboto, sans-serif; font-size: 12px; font-weight: 200;" fill="rgb(255, 255, 255)" stroke="none" stroke-width="1px">14k</text><text x="208.828125" y="0" dx="0em" dy="0.95em" style="text-anchor: middle; visibility: inherit; font-family: Roboto, sans-serif; font-size: 12px; font-weight: 200;" fill="rgb(255, 255, 255)" stroke="none" stroke-width="1px">16k</text><text x="232.03125" y="0" dx="0em" dy="0.95em" style="text-anchor: middle; visibility: hidden; font-family: Roboto, sans-serif; font-size: 12px; font-weight: 200;" fill="rgb(255, 255, 255)" stroke="none" stroke-width="1px">18k</text><text x="255.234375" y="0" dx="0em" dy="0.95em" style="text-anchor: middle; visibility: inherit; font-family: Roboto, sans-serif; font-size: 12px; font-weight: 200;" fill="rgb(255, 255, 255)" stroke="none" stroke-width="1px">20k</text><text x="278.4375" y="0" dx="0em" dy="0.95em" style="text-anchor: middle; visibility: hidden; font-family: Roboto, sans-serif; font-size: 12px; font-weight: 200;" fill="rgb(255, 255, 255)" stroke="none" stroke-width="1px">22k</text></g><line x1="0" y1="0" x2="278.4375" y2="0" fill="rgb(0, 0, 0)" stroke="rgb(204, 204, 204)" stroke-width="1px"></line></g></g></g></g></svg>