<svg viewBox="0 0 330 200" xmlns="http://www.w3.org/2000/svg"><g><g><g><g><g><line x1="61.953125" y1="177" x2="56.953125" y2="177" style="visibility: inherit;" fill="rgb(0, 0, 0)" stroke="rgb(204, 204, 204)" stroke-width="1px"></line><line x1="61.953125" y1="159.3" x2="56.953125" y2="159.3" style="visibility: inherit;" fill="rgb(0, 0, 0)" stroke="rgb(204, 204, 204)" stroke-width="1px"></line><line x1="61.953125" y1="141.6" x2="56.953125" y2="141.6" style="visibility: inherit;" fill="rgb(0, 0, 0)" stroke="rgb(204, 204, 204)" stroke-width="1px"></line><line x1="61.953125" y1="123.89999999999999" x2="56.953125" y2="123.89999999999999" style="visibility: inherit;" fill="rgb(0, 0, 0)" stroke="rgb(204, 204, 204)" stroke-width="1px"></line><line x1="61.953125" y1="106.20000000000002" x2="56.953125" y2="106.20000000000002" style="visibility: inherit;" fill="rgb(0, 0, 0)" stroke="rgb(204, 204, 204)" stroke-width="1px"></line><line x1="61.953125" y1="88.49999999999999" x2="56.953125" y2="88.49999999999999" style="visibility: inherit;" fill="rgb(0, 0, 0)" stroke="rgb(204, 204, 204)" stroke-width="1px"></line><line x1="61.953125" y1="70.8" x2="56.953125" y2="70.8" style="visibility: inherit;" fill="rgb(0, 0, 0)" stroke="rgb(204, 204, 204)" stroke-width="1px"></line><line x1="61.953125" y1="53.10000000000001" x2="56.953125" y2="53.10000000000001" style="visibility: inherit;" fill="rgb(0, 0, 0)" stroke="rgb(204, 204, 204)" stroke-width="1px"></line><line x1="61.953125" y1="35.39999999999999" x2="56.953125" y2="35.39999999999999" style="visibility: inherit;" fill="rgb(0, 0, 0)" stroke="rgb(204, 204, 204)" stroke-width="1px"></line><line x1="61.953125" y1="17.699999999999978" x2="56.953125" y2="17.699999999999978" style="visibility: inherit;" fill="rgb(0, 0, 0)" stroke="rgb(204, 204, 204)" stroke-width="1px"></line><line x1="61.953125" y1="0" x2="56.953125" y2="0" style="visibility: inherit;" fill="rgb(0, 0, 0)" stroke="rgb(204, 204, 204)" stroke-width="1px"></line></g><g transform="translate(51.953125, 0)"><text x="0" y="177" dx="0em" dy="0.3em" style="text-anchor: end; visibility: hidden; font-family: Roboto, sans-serif; font-size: 12px; font-weight: 200;" fill="rgb(255, 255, 255)" stroke="none" stroke-width="1px">0.025</text><text x="0" y="159.3" dx="0em" dy="0.3em" style="text-anchor: end; visibility: inherit; font-family: Roboto, sans-serif; font-size: 12px; font-weight: 200;" fill="rgb(255, 255, 255)" stroke="none" stroke-width="1px">0.03</text><text x="0" y="141.6" dx="0em" dy="0.3em" style="text-anchor: end; visibility: hidden; font-family: Roboto, sans-serif; font-size: 12px; font-weight: 200;" fill="rgb(255, 255, 255)" stroke="none" stroke-width="1px">0.035</text><text x="0" y="123.89999999999999" dx="0em" dy="0.3em" style="text-anchor: end; visibility: inherit; font-family: Roboto, sans-serif; font-size: 12px; font-weight: 200;" fill="rgb(255, 255, 255)" stroke="none" stroke-width="1px">0.04</text><text x="0" y="106.20000000000002" dx="0em" dy="0.3em" style="text-anchor: end; visibility: hidden; font-family: Roboto, sans-serif; font-size: 12px; font-weight: 200;" fill="rgb(255, 255, 255)" stroke="none" stroke-width="1px">0.045</text><text x="0" y="88.49999999999999" dx="0em" dy="0.3em" style="text-anchor: end; visibility: inherit; font-family: Roboto, sans-serif; font-size: 12px; font-weight: 200;" fill="rgb(255, 255, 255)" stroke="none" stroke-width="1px">0.05</text><text x="0" y="70.8" dx="0em" dy="0.3em" style="text-anchor: end; visibility: hidden; font-family: Roboto, sans-serif; font-size: 12px; font-weight: 200;" fill="rgb(255, 255, 255)" stroke="none" stroke-width="1px">0.055</text><text x="0" y="53.10000000000001" dx="0em" dy="0.3em" style="text-anchor: end; visibility: inherit; font-family: Roboto, sans-serif; font-size: 12px; font-weight: 200;" fill="rgb(255, 255, 255)" stroke="none" stroke-width="1px">0.06</text><text x="0" y="35.39999999999999" dx="0em" dy="0.3em" style="text-anchor: end; visibility: hidden; font-family: Roboto, sans-serif; font-size: 12px; font-weight: 200;" fill="rgb(255, 255, 255)" stroke="none" stroke-width="1px">0.065</text><text x="0" y="17.699999999999978" dx="0em" dy="0.3em" style="text-anchor: end; visibility: inherit; font-family: Roboto, sans-serif; font-size: 12px; font-weight: 200;" fill="rgb(255, 255, 255)" stroke="none" stroke-width="1px">0.07</text><text x="0" y="0" dx="0em" dy="0.3em" style="text-anchor: end; visibility: hidden; font-family: Roboto, sans-serif; font-size: 12px; font-weight: 200;" fill="rgb(255, 255, 255)" stroke="none" stroke-width="1px">0.075</text></g><line x1="61.953125" y1="0" x2="61.953125" y2="177" fill="rgb(0, 0, 0)" stroke="rgb(204, 204, 204)" stroke-width="1px"></line></g></g><g transform="translate(61, 0)" clip-path="url(#clip_0)"><clipPath id="clip_0"><rect width="268" height="176"></rect></clipPath><g><g><g><line x1="0" y1="0" x2="0" y2="177" fill="rgb(0, 0, 0)" stroke="rgb(189, 189, 189)" stroke-width="1px" opacity="0.25"></line><line x1="22.337239583333332" y1="0" x2="22.337239583333332" y2="177" fill="rgb(0, 0, 0)" stroke="rgb(189, 189, 189)" stroke-width="1px" opacity="0.25"></line><line x1="44.674479166666664" y1="0" x2="44.674479166666664" y2="177" fill="rgb(0, 0, 0)" stroke="rgb(189, 189, 189)" stroke-width="1px" opacity="0.25"></line><line x1="67.01171875" y1="0" x2="67.01171875" y2="177" fill="rgb(0, 0, 0)" stroke="rgb(189, 189, 189)" stroke-width="1px" opacity="0.25"></line><line x1="89.34895833333333" y1="0" x2="89.34895833333333" y2="177" fill="rgb(0, 0, 0)" stroke="rgb(189, 189, 189)" stroke-width="1px" opacity="0.25"></line><line x1="111.68619791666667" y1="0" x2="111.68619791666667" y2="177" fill="rgb(0, 0, 0)" stroke="rgb(189, 189, 189)" stroke-width="1px" opacity="0.25"></line><line x1="134.0234375" y1="0" x2="134.0234375" y2="177" fill="rgb(0, 0, 0)" stroke="rgb(189, 189, 189)" stroke-width="1px" opacity="0.25"></line><line x1="156.36067708333334" y1="0" x2="156.36067708333334" y2="177" fill="rgb(0, 0, 0)" stroke="rgb(189, 189, 189)" stroke-width="1px" opacity="0.25"></line><line x1="178.69791666666666" y1="0" x2="178.69791666666666" y2="177" fill="rgb(0, 0, 0)" stroke="rgb(189, 189, 189)" stroke-width="1px" opacity="0.25"></line><line x1="201.03515625" y1="0" x2="201.03515625" y2="177" fill="rgb(0, 0, 0)" stroke="rgb(189, 189, 189)" stroke-width="1px" opacity="0.25"></line><line x1="223.37239583333334" y1="0" x2="223.37239583333334" y2="177" fill="rgb(0, 0, 0)" stroke="rgb(189, 189, 189)" stroke-width="1px" opacity="0.25"></line><line x1="245.70963541666666" y1="0" x2="245.70963541666666" y2="177" fill="rgb(0, 0, 0)" stroke="rgb(189, 189, 189)" stroke-width="1px" opacity="0.25"></line><line x1="268.046875" y1="0" x2="268.046875" y2="177" fill="rgb(0, 0, 0)" stroke="rgb(189, 189, 189)" stroke-width="1px" opacity="0.25"></line></g><g><line x1="0" y1="177" x2="268.046875" y2="177" fill="rgb(0, 0, 0)" stroke="rgb(189, 189, 189)" stroke-width="1px" opacity="0.25"></line><line x1="0" y1="159.3" x2="268.046875" y2="159.3" fill="rgb(0, 0, 0)" stroke="rgb(189, 189, 189)" stroke-width="1px" opacity="0.25"></line><line x1="0" y1="141.6" x2="268.046875" y2="141.6" fill="rgb(0, 0, 0)" stroke="rgb(189, 189, 189)" stroke-width="1px" opacity="0.25"></line><line x1="0" y1="123.89999999999999" x2="268.046875" y2="123.89999999999999" fill="rgb(0, 0, 0)" stroke="rgb(189, 189, 189)" stroke-width="1px" opacity="0.25"></line><line x1="0" y1="106.20000000000002" x2="268.046875" y2="106.20000000000002" fill="rgb(0, 0, 0)" stroke="rgb(189, 189, 189)" stroke-width="1px" opacity="0.25"></line><line x1="0" y1="88.49999999999999" x2="268.046875" y2="88.49999999999999" fill="rgb(0, 0, 0)" stroke="rgb(189, 189, 189)" stroke-width="1px" opacity="0.25"></line><line x1="0" y1="70.8" x2="268.046875" y2="70.8" fill="rgb(0, 0, 0)" stroke="rgb(189, 189, 189)" stroke-width="1px" opacity="0.25"></line><line x1="0" y1="53.10000000000001" x2="268.046875" y2="53.10000000000001" fill="rgb(0, 0, 0)" stroke="rgb(189, 189, 189)" stroke-width="1px" opacity="0.25"></line><line x1="0" y1="35.39999999999999" x2="268.046875" y2="35.39999999999999" fill="rgb(0, 0, 0)" stroke="rgb(189, 189, 189)" stroke-width="1px" opacity="0.25"></line><line x1="0" y1="17.699999999999978" x2="268.046875" y2="17.699999999999978" fill="rgb(0, 0, 0)" stroke="rgb(189, 189, 189)" stroke-width="1px" opacity="0.25"></line><line x1="0" y1="0" x2="268.046875" y2="0" fill="rgb(0, 0, 0)" stroke="rgb(189, 189, 189)" stroke-width="1px" opacity="0.25"></line></g></g></g><g><g><line x1="0" y1="265.5" x2="268.046875" y2="265.5" fill="rgb(0, 0, 0)" stroke="rgb(153, 153, 153)" stroke-width="1.5px"></line></g></g><g><g><line x1="22.337239583333332" y1="0" x2="22.337239583333332" y2="177" fill="rgb(0, 0, 0)" stroke="rgb(153, 153, 153)" stroke-width="1.5px"></line></g></g><g><g><g><g><g><path stroke="rgb(255, 112, 67)" stroke-width="2px" d="M23.4541015625,165.1753690391779L24.570963541666664,165.17038250528276L25.687825520833336,165.1248931042394L26.8046875,165.00492994092843L27.921549479166668,164.88899148899304L29.038411458333336,164.74405455129136L30.1552734375,164.5655044351287L31.272135416666668,164.30924226636276L32.388997395833336,163.9326074053798L33.505859375,163.52322108549302L34.62272135416667,163.08485503591206L35.739583333333336,162.58052938352014L36.8564453125,162.03821818715411L37.973307291666664,161.41562829177758L39.090169270833336,160.69130947966508L40.20703125,159.8965011638835L41.32389322916667,159.06841878269265L42.44075520833333,158.256347548047L43.5576171875,157.40805580744802L44.674479166666664,156.51230160569585L45.791341145833336,155.538052621723L46.908203125,154.45116044401553L48.025065104166664,153.3833337635111L49.14192708333333,152.21420586516436L50.2587890625,151.00801290320604L51.37565104166667,149.720383851185L52.492513020833336,148.52582760884997L53.609375,147.29495482695327L54.726236979166664,146.1151768036019L55.843098958333336,144.95200286228143L56.9599609375,143.86200703777007L58.07682291666667,142.7151336627221L59.19368489583333,141.57509420178408L60.310546875,140.54204944310405L61.427408854166664,139.30562127811797L62.544270833333336,138.16704135663988L63.6611328125,137.12868998914706L64.77799479166667,136.14126030716065L65.89485677083333,135.1042931421111L67.01171875,134.0546417725068L68.12858072916666,133.03362975586907L69.24544270833334,132.05482600325604L70.3623046875,131.0445933648665L71.47916666666667,129.96110748085798L72.59602864583333,128.90671800264735L73.712890625,127.93743310975361L74.82975260416667,126.97008478999888L75.94661458333333,125.97579315517552L77.0634765625,125.06158865816678L78.18033854166667,124.19547336891955L79.29720052083333,123.3573887026011L80.4140625,122.50221463892801L81.53092447916666,121.6506971410137L82.64778645833334,120.77904973573723L83.7646484375,119.76848147003133L84.88151041666666,118.75723593645223L85.99837239583334,117.77292442448669L87.115234375,116.90999924616646L88.23209635416667,116.02899632738004L89.34895833333333,115.19750871590354L90.4658203125,114.38729027111276L91.58268229166667,113.52041418074931L92.69954427083333,112.67820690106967L93.81640625,111.70245704669722L94.93326822916667,110.64810612570626L96.05013020833333,109.6289849625312L97.1669921875,108.64942726768747L98.28385416666666,107.74229600595056L99.40071614583334,106.88886467556131L100.517578125,106.01803127491456L101.63444010416666,105.21307549216736L102.75130208333334,104.31225784622663L103.8681640625,103.3921141624631L104.98502604166667,102.57016893626344L106.10188802083333,101.80485342980081L107.21875,101.05068550730141L108.33561197916667,100.3294493152165L109.45247395833333,99.61394590696474L110.5693359375,98.94078537559973L111.68619791666667,98.25674904427808L112.80305989583333,97.62020862127471L113.919921875,96.89407407060344L115.03678385416666,96.18401363977836L116.15364583333334,95.40800677233365L117.2705078125,94.5692589193191L118.38736979166666,93.72221136150394L119.50423177083334,92.98510009680768L120.62109375,92.17902110001194L121.73795572916667,91.34365706432311L122.85481770833333,90.52020931713847L123.9716796875,89.73039717360179L125.08854166666667,89.0288140349617L126.20540364583333,88.39944846469346L127.322265625,87.71686490796914L128.43912760416669,87.01032110108677L129.55598958333334,86.26533654364195L130.6728515625,85.53430228848606L131.78971354166666,84.85586918246358L132.90657552083334,84.20527788312202L134.0234375,83.30315208024359L135.14029947916666,82.50586448661433L136.25716145833331,81.77923408479658L137.3740234375,81.010951246805L138.49088541666669,80.27042178272427L139.60774739583334,79.45911103462707L140.724609375,78.71746242627819L141.84147135416666,78.03507138839555L142.95833333333334,77.32320455641265L144.0751953125,74.04701933223436L145.19205729166666,71.58991454218881L146.30891927083331,70.03893190726673L147.42578125,68.9768363005223L148.54264322916669,68.1844883362235L149.65950520833334,67.54232590793258L150.7763671875,66.93200702904872L151.89322916666666,66.41512973570354L153.01009114583331,65.8659556833716L154.126953125,65.38657236265013L155.24381510416669,64.76496559480945L156.36067708333334,64.09236508071494L157.4775390625,63.53387242233796L158.59440104166666,62.91939641640211L159.71126302083334,62.45409371021762L160.828125,61.945628455659L161.94498697916666,61.4611092516066L163.06184895833331,60.9772215490509L164.1787109375,60.42017909318024L165.29557291666669,59.94217264312394L166.41243489583334,59.39663475547963L167.529296875,58.822736905781845L168.64615885416666,58.3280498306563L169.76302083333331,57.93287972930731L170.8798828125,57.511015131018524L171.99674479166669,57.13366986152049L173.11360677083334,56.79253120920965L174.23046875,56.3008188408727L175.34733072916666,55.81870260251251L176.46419270833334,55.417275574282925L177.5810546875,54.922680775210914L178.69791666666666,54.49731912606099L179.81477864583331,54.1234776877948L180.931640625,53.83623139283586L182.04850260416669,53.55982874763923L183.16536458333334,53.196743946867684L184.2822265625,52.827885324715076L185.39908854166666,52.40116122064501L186.51595052083331,51.98116886435457L187.6328125,51.64121264111106L188.74967447916669,51.38220999175968L189.86653645833334,51.13681143840946L190.9833984375,50.791511466031075L192.10026041666666,50.39126080270099L193.21712239583334,49.97716691491299L194.333984375,49.5771806144553L195.45084635416666,49.06785731934533L196.56770833333331,48.6168840373935L197.6845703125,48.22490096362721L198.80143229166669,47.69879425926384L199.91829427083334,47.22711650945769L201.03515625,46.78995293627993L202.15201822916666,46.3217078104664L203.26888020833331,45.82702783674293L204.3857421875,45.401609807791054L205.50260416666669,44.95334106062756L206.61946614583334,44.56382470950428L207.736328125,44.18535804524988L208.85319010416666,43.790195094197806L209.97005208333334,43.33301331201183L211.0869140625,42.96013538598409L212.20377604166666,42.33347163533799L213.32063802083331,41.799592303846076L214.4375,41.32738658643594L215.55436197916669,40.89992875371475L216.67122395833334,40.47816685744582L217.7880859375,40.08396097367081L218.90494791666666,39.55694258418726L220.02180989583331,38.96069176320462L221.138671875,38.308595653320694L222.25553385416669,37.75533184763512L223.37239583333334,37.22204749200772L224.4892578125,36.64063678034562L225.60611979166666,36.195574151566134L226.72298177083334,35.76867208903462L227.83984375,35.452406275423925L228.95670572916666,35.1034997034982L230.07356770833331,34.69678594642372L231.1904296875,34.30479363187251L232.30729166666669,34.0220914935118L233.42415364583334,33.74780344099081L234.541015625,33.446787173332424L235.65787760416666,32.85424124883514L236.77473958333331,32.34640302471463L237.8916015625,31.914424623323367L239.00846354166669,31.54418804959827L240.12532552083334,31.193810586430885L241.2421875,30.87275612610473L242.35904947916666,30.569200517284237L243.47591145833334,30.290597749678742L244.5927734375,30.035554404812128L245.70963541666666,29.705340776298705" style="fill: none;" fill="none"></path></g><g><path stroke="rgb(0, 119, 187)" stroke-width="2px" d="M22.337239583333332,165.16803677380085L33.505859375,163.75718149077147L44.674479166666664,159.36848372464277L55.843098958333336,151.9359459401492L67.01171875,143.49424199797187L78.18033854166667,134.84898508558595L89.34895833333333,126.2461400888041L89.34895833333333,121.24119381401412L100.517578125,114.5586127805565L111.68619791666667,107.58213330209145L122.85481770833333,100.23426344931674L134.0234375,92.90092475516067L145.19205729166666,82.8885743451638L156.36067708333334,74.95782566079293L167.529296875,68.15403690501232L178.69791666666666,62.433495624227355L189.86653645833334,57.76464560804536L201.03515625,53.111280398358986L212.20377604166666,48.42154131405436L223.37239583333334,43.618622463297015L234.541015625,39.36737072341107L245.70963541666666,35.30296336807112" style="fill: none;" fill="none"></path></g></g></g></g><g opacity="0.2"><g><g><g><path stroke="rgb(255, 112, 67)" stroke-width="2px" d="M23.4541015625,165.1753690391779L24.570963541666664,165.16739058494568L25.687825520833336,165.08122327923775L26.8046875,164.86385326087475L27.921549479166668,164.7376222461462L29.038411458333336,164.54355458915234L30.1552734375,164.31017491221428L31.272135416666668,163.93560956418514L32.388997395833336,163.37714414298534L33.505859375,162.91533011198044L34.62272135416667,162.43128190934658L35.739583333333336,161.82678542286158L36.8564453125,161.22652213275433L37.973307291666664,160.48296316713095L39.090169270833336,159.6056826710701L40.20703125,158.70484925061464L41.32389322916667,157.82664562761784L42.44075520833333,157.03844688087702L43.5576171875,156.13574742525816L44.674479166666664,155.16875217854977L45.791341145833336,154.0767325758934L46.908203125,152.82085794210434L48.025065104166664,151.7816148251295L49.14192708333333,150.46052786707878L50.2587890625,149.19873203337193L51.37565104166667,147.7889457643032L52.492513020833336,146.73399630188942L53.609375,145.44864754378796L54.726236979166664,144.34551085531712L55.843098958333336,143.2072425931692L56.9599609375,142.22701366245747L58.07682291666667,140.99482382833958L59.19368489583333,139.86503514647484L60.310546875,138.99248237907887L61.427408854166664,137.45097908377647L62.544270833333336,136.45917150378227L63.6611328125,135.57116295397282L64.77799479166667,134.66011579334736L65.89485677083333,133.54884240031242L67.01171875,132.48016472160816L68.12858072916666,131.50211173295975L69.24544270833334,130.58662037551403L70.3623046875,129.52924440801144L71.47916666666667,128.33587865531445L72.59602864583333,127.32513378560543L73.712890625,126.48350577056408L74.82975260416667,125.51906231045723L75.94661458333333,124.48435570299625L77.0634765625,123.69028191268444L78.18033854166667,122.89630043506622L79.29720052083333,122.10026170313358L80.4140625,121.2194535434246L81.53092447916666,120.37342089414597L82.64778645833334,119.47157862782478L83.7646484375,118.25262907147408L84.88151041666666,117.24036763608456L85.99837239583334,116.29645715653896L87.115234375,115.61561147868633L88.23209635416667,114.70749194920063L89.34895833333333,113.95027729868889L90.4658203125,113.17196260392666L91.58268229166667,112.22010004520416L92.69954427083333,111.41489598155022L93.81640625,110.23883226513863L94.93326822916667,109.06657974421978L96.05013020833333,108.10030321776867L97.1669921875,107.1800907254219L98.28385416666666,106.38159911334515L99.40071614583334,105.60871767997742L100.517578125,104.71178117394447L101.63444010416666,104.00564181804657L102.75130208333334,102.96103137731552L103.8681640625,102.01189863681793L104.98502604166667,101.33725109696388L106.10188802083333,100.65688017010689L107.21875,99.91943362355232L108.33561197916667,99.24759502708912L109.45247395833333,98.54069079458714L110.5693359375,97.93104457855225L111.68619791666667,97.23069454729557L112.80305989583333,96.66539798676968L113.919921875,95.80487224459648L115.03678385416666,95.11892299354076L116.15364583333334,94.24399647116661L117.2705078125,93.31113713979721L118.38736979166666,92.45164002478123L119.50423177083334,91.8794331997633L120.62109375,90.96990260481834L121.73795572916667,90.09061101078987L122.85481770833333,89.28503769636154L123.9716796875,88.54567895829678L125.08854166666667,87.97643932700157L126.20540364583333,87.45540010929108L127.322265625,86.69298957288265L128.43912760416669,85.95050539076328L129.55598958333334,85.14785970747471L130.6728515625,84.43775090575218L131.78971354166666,83.83821952342987L132.90657552083334,83.22939093410969L134.0234375,81.94996337592602L135.14029947916666,81.30993309617043L136.25716145833331,80.68928848206997L137.3740234375,79.85852698981762L138.49088541666669,79.15962758660316L139.60774739583334,78.24214491248131L140.724609375,77.60498951375484L141.84147135416666,77.01148483157158L142.95833333333334,76.2554043084383L144.0751953125,69.13274149596691L145.19205729166666,67.90425735712051L146.30891927083331,67.71245795488358L147.42578125,67.38369289040565L148.54264322916669,66.99596638977528L149.65950520833334,66.57908226549625L150.7763671875,66.01652871072292L151.89322916666666,65.63981379568577L153.01009114583331,65.04219460487366L154.126953125,64.66749738156796L155.24381510416669,63.83255544304848L156.36067708333334,63.08346430957317L157.4775390625,62.69613343477249L158.59440104166666,61.99768240749836L159.71126302083334,61.756139650940895L160.828125,61.18293057382107L161.94498697916666,60.73433044552803L163.06184895833331,60.25138999521732L164.1787109375,59.58461540937424L165.29557291666669,59.22516296803951L166.41243489583334,58.57832792401314L167.529296875,57.96189013123512L168.64615885416666,57.58601921796799L169.76302083333331,57.34012457728386L170.8798828125,56.87821823358536L171.99674479166669,56.56765195727348L173.11360677083334,56.28082323074341L174.23046875,55.56325028836727L175.34733072916666,55.09552824497223L176.46419270833334,54.81513503193855L177.5810546875,54.180788576602936L178.69791666666666,53.85927665233612L179.81477864583331,53.56271553039551L180.931640625,53.40536195039749L182.04850260416669,53.145224779844284L183.16536458333334,52.65211674571037L184.2822265625,52.27459739148617L185.39908854166666,51.76107506453991L186.51595052083331,51.35118032991886L187.6328125,51.131278306245804L188.74967447916669,50.99370601773262L189.86653645833334,50.76871360838413L190.9833984375,50.273561507463455L192.10026041666666,49.79088480770588L193.21712239583334,49.35602608323097L194.333984375,48.97720116376877L195.45084635416666,48.303872376680374L196.56770833333331,47.94042411446571L197.6845703125,47.63692635297775L198.80143229166669,46.909634202718735L199.91829427083334,46.51959988474846L201.03515625,46.13420757651329L202.15201822916666,45.61934012174606L203.26888020833331,45.08500787615776L204.3857421875,44.76348276436329L205.50260416666669,44.28093793988228L206.61946614583334,43.97955018281937L207.736328125,43.61765804886818L208.85319010416666,43.197450667619705L209.97005208333334,42.64724063873291L211.0869140625,42.40081849694252L212.20377604166666,41.3934760093689L213.32063802083331,40.9987733066082L214.4375,40.61907801032066L215.55436197916669,40.25874200463295L216.67122395833334,39.84552401304245L217.7880859375,39.49265214800835L218.90494791666666,38.76641499996185L220.02180989583331,38.06631553173065L221.138671875,37.33045148849487L222.25553385416669,36.92543613910675L223.37239583333334,36.422120958566666L224.4892578125,35.76852071285248L225.60611979166666,35.52798020839691L226.72298177083334,35.12831899523735L227.83984375,34.978007555007935L228.95670572916666,34.580139845609665L230.07356770833331,34.086715310812L231.1904296875,33.716805160045624L232.30729166666669,33.59803828597069L233.42415364583334,33.33637136220932L234.541015625,32.995262771844864L235.65787760416666,31.965422362089157L236.77473958333331,31.584645688533783L237.8916015625,31.26645702123642L239.00846354166669,30.98883318901062L240.12532552083334,30.668244391679764L241.2421875,30.39117443561554L242.35904947916666,30.113867104053497L243.47591145833334,29.872693598270416L244.5927734375,29.652989387512207L245.70963541666666,29.21002033352852" style="fill: none;" fill="none"></path></g><g><path stroke="rgb(0, 119, 187)" stroke-width="2px" d="M22.337239583333332,165.16803677380085L33.505859375,162.91066832095385L44.674479166666664,155.15533386915922L55.843098958333336,143.19528150558472L67.01171875,132.47275333106518L78.18033854166667,122.88948248326778L89.34895833333333,113.94393409788609L89.34895833333333,113.94393409788609L100.517578125,104.70310378074646L111.68619791666667,97.22287434339523L122.85481770833333,89.27910330891609L134.0234375,81.94082441926003L145.19205729166666,67.90274079144001L156.36067708333334,63.07723979651928L167.529296875,57.95635136961937L178.69791666666666,53.85671827197075L189.86653645833334,50.763346284627914L201.03515625,46.132414072752L212.20377604166666,41.3876471221447L223.37239583333334,36.41468319296837L234.541015625,32.99072626233101L245.70963541666666,29.206486076116562" style="fill: none;" fill="none"></path></g></g></g></g></g><g><g opacity="0.00338464"><span fill="rgb(0, 0, 0)" stroke="none" stroke-width="1px">Alt + Scroll to Zoom</span></g></g></g><g transform="translate(61, 177)" clip-path="url(#clip_1)"><clipPath id="clip_1"><rect width="268" height="22"></rect></clipPath><g><g><line x1="0" y1="0" x2="0" y2="5" style="visibility: inherit;" fill="rgb(0, 0, 0)" stroke="rgb(204, 204, 204)" stroke-width="1px"></line><line x1="22.337239583333332" y1="0" x2="22.337239583333332" y2="5" style="visibility: inherit;" fill="rgb(0, 0, 0)" stroke="rgb(204, 204, 204)" stroke-width="1px"></line><line x1="44.674479166666664" y1="0" x2="44.674479166666664" y2="5" style="visibility: inherit;" fill="rgb(0, 0, 0)" stroke="rgb(204, 204, 204)" stroke-width="1px"></line><line x1="67.01171875" y1="0" x2="67.01171875" y2="5" style="visibility: inherit;" fill="rgb(0, 0, 0)" stroke="rgb(204, 204, 204)" stroke-width="1px"></line><line x1="89.34895833333333" y1="0" x2="89.34895833333333" y2="5" style="visibility: inherit;" fill="rgb(0, 0, 0)" stroke="rgb(204, 204, 204)" stroke-width="1px"></line><line x1="111.68619791666667" y1="0" x2="111.68619791666667" y2="5" style="visibility: inherit;" fill="rgb(0, 0, 0)" stroke="rgb(204, 204, 204)" stroke-width="1px"></line><line x1="134.0234375" y1="0" x2="134.0234375" y2="5" style="visibility: inherit;" fill="rgb(0, 0, 0)" stroke="rgb(204, 204, 204)" stroke-width="1px"></line><line x1="156.36067708333334" y1="0" x2="156.36067708333334" y2="5" style="visibility: inherit;" fill="rgb(0, 0, 0)" stroke="rgb(204, 204, 204)" stroke-width="1px"></line><line x1="178.69791666666666" y1="0" x2="178.69791666666666" y2="5" style="visibility: inherit;" fill="rgb(0, 0, 0)" stroke="rgb(204, 204, 204)" stroke-width="1px"></line><line x1="201.03515625" y1="0" x2="201.03515625" y2="5" style="visibility: inherit;" fill="rgb(0, 0, 0)" stroke="rgb(204, 204, 204)" stroke-width="1px"></line><line x1="223.37239583333334" y1="0" x2="223.37239583333334" y2="5" style="visibility: inherit;" fill="rgb(0, 0, 0)" stroke="rgb(204, 204, 204)" stroke-width="1px"></line><line x1="245.70963541666666" y1="0" x2="245.70963541666666" y2="5" style="visibility: inherit;" fill="rgb(0, 0, 0)" stroke="rgb(204, 204, 204)" stroke-width="1px"></line><line x1="268.046875" y1="0" x2="268.046875" y2="5" style="visibility: inherit;" fill="rgb(0, 0, 0)" stroke="rgb(204, 204, 204)" stroke-width="1px"></line></g><g transform="translate(0, 8)"><text x="0" y="0" dx="0em" dy="0.95em" style="text-anchor: middle; visibility: hidden; font-family: Roboto, sans-serif; font-size: 12px; font-weight: 200;" fill="rgb(255, 255, 255)" stroke="none" stroke-width="1px">-2k</text><text x="22.337239583333332" y="0" dx="0em" dy="0.95em" style="text-anchor: middle; visibility: inherit; font-family: Roboto, sans-serif; font-size: 12px; font-weight: 200;" fill="rgb(255, 255, 255)" stroke="none" stroke-width="1px">0</text><text x="44.674479166666664" y="0" dx="0em" dy="0.95em" style="text-anchor: middle; visibility: hidden; font-family: Roboto, sans-serif; font-size: 12px; font-weight: 200;" fill="rgb(255, 255, 255)" stroke="none" stroke-width="1px">2k</text><text x="67.01171875" y="0" dx="0em" dy="0.95em" style="text-anchor: middle; visibility: inherit; font-family: Roboto, sans-serif; font-size: 12px; font-weight: 200;" fill="rgb(255, 255, 255)" stroke="none" stroke-width="1px">4k</text><text x="89.34895833333333" y="0" dx="0em" dy="0.95em" style="text-anchor: middle; visibility: hidden; font-family: Roboto, sans-serif; font-size: 12px; font-weight: 200;" fill="rgb(255, 255, 255)" stroke="none" stroke-width="1px">6k</text><text x="111.68619791666667" y="0" dx="0em" dy="0.95em" style="text-anchor: middle; visibility: inherit; font-family: Roboto, sans-serif; font-size: 12px; font-weight: 200;" fill="rgb(255, 255, 255)" stroke="none" stroke-width="1px">8k</text><text x="134.0234375" y="0" dx="0em" dy="0.95em" style="text-anchor: middle; visibility: hidden; font-family: Roboto, sans-serif; font-size: 12px; font-weight: 200;" fill="rgb(255, 255, 255)" stroke="none" stroke-width="1px">10k</text><text x="156.36067708333334" y="0" dx="0em" dy="0.95em" style="text-anchor: middle; visibility: inherit; font-family: Roboto, sans-serif; font-size: 12px; font-weight: 200;" fill="rgb(255, 255, 255)" stroke="none" stroke-width="1px">12k</text><text x="178.69791666666666" y="0" dx="0em" dy="0.95em" style="text-anchor: middle; visibility: hidden; font-family: Roboto, sans-serif; font-size: 12px; font-weight: 200;" fill="rgb(255, 255, 255)" stroke="none" stroke-width="1px">14k</text><text x="201.03515625" y="0" dx="0em" dy="0.95em" style="text-anchor: middle; visibility: inherit; font-family: Roboto, sans-serif; font-size: 12px; font-weight: 200;" fill="rgb(255, 255, 255)" stroke="none" stroke-width="1px">16k</text><text x="223.37239583333334" y="0" dx="0em" dy="0.95em" style="text-anchor: middle; visibility: hidden; font-family: Roboto, sans-serif; font-size: 12px; font-weight: 200;" fill="rgb(255, 255, 255)" stroke="none" stroke-width="1px">18k</text><text x="245.70963541666666" y="0" dx="0em" dy="0.95em" style="text-anchor: middle; visibility: inherit; font-family: Roboto, sans-serif; font-size: 12px; font-weight: 200;" fill="rgb(255, 255, 255)" stroke="none" stroke-width="1px">20k</text><text x="268.046875" y="0" dx="0em" dy="0.95em" style="text-anchor: middle; visibility: hidden; font-family: Roboto, sans-serif; font-size: 12px; font-weight: 200;" fill="rgb(255, 255, 255)" stroke="none" stroke-width="1px">22k</text></g><line x1="0" y1="0" x2="268.046875" y2="0" fill="rgb(0, 0, 0)" stroke="rgb(204, 204, 204)" stroke-width="1px"></line></g></g></g></g></svg>