<svg viewBox="0 0 330 200" xmlns="http://www.w3.org/2000/svg"><g><g><g><g><g><line x1="41.171875" y1="177" x2="36.171875" y2="177" style="visibility: inherit;" fill="rgb(0, 0, 0)" stroke="rgb(204, 204, 204)" stroke-width="1px"></line><line x1="41.171875" y1="157.33333333333334" x2="36.171875" y2="157.33333333333334" style="visibility: inherit;" fill="rgb(0, 0, 0)" stroke="rgb(204, 204, 204)" stroke-width="1px"></line><line x1="41.171875" y1="137.66666666666666" x2="36.171875" y2="137.66666666666666" style="visibility: inherit;" fill="rgb(0, 0, 0)" stroke="rgb(204, 204, 204)" stroke-width="1px"></line><line x1="41.171875" y1="118.00000000000001" x2="36.171875" y2="118.00000000000001" style="visibility: inherit;" fill="rgb(0, 0, 0)" stroke="rgb(204, 204, 204)" stroke-width="1px"></line><line x1="41.171875" y1="98.33333333333334" x2="36.171875" y2="98.33333333333334" style="visibility: inherit;" fill="rgb(0, 0, 0)" stroke="rgb(204, 204, 204)" stroke-width="1px"></line><line x1="41.171875" y1="78.6666666666667" x2="36.171875" y2="78.6666666666667" style="visibility: inherit;" fill="rgb(0, 0, 0)" stroke="rgb(204, 204, 204)" stroke-width="1px"></line><line x1="41.171875" y1="59.00000000000001" x2="36.171875" y2="59.00000000000001" style="visibility: inherit;" fill="rgb(0, 0, 0)" stroke="rgb(204, 204, 204)" stroke-width="1px"></line><line x1="41.171875" y1="39.33333333333337" x2="36.171875" y2="39.33333333333337" style="visibility: inherit;" fill="rgb(0, 0, 0)" stroke="rgb(204, 204, 204)" stroke-width="1px"></line><line x1="41.171875" y1="19.666666666666675" x2="36.171875" y2="19.666666666666675" style="visibility: inherit;" fill="rgb(0, 0, 0)" stroke="rgb(204, 204, 204)" stroke-width="1px"></line><line x1="41.171875" y1="0" x2="36.171875" y2="0" style="visibility: inherit;" fill="rgb(0, 0, 0)" stroke="rgb(204, 204, 204)" stroke-width="1px"></line></g><g transform="translate(31.171875, 0)"><text x="0" y="177" dx="0em" dy="0.3em" style="text-anchor: end; visibility: hidden; font-family: Roboto, sans-serif; font-size: 12px; font-weight: 200;" fill="rgb(255, 255, 255)" stroke="none" stroke-width="1px">0.2</text><text x="0" y="157.33333333333334" dx="0em" dy="0.3em" style="text-anchor: end; visibility: inherit; font-family: Roboto, sans-serif; font-size: 12px; font-weight: 200;" fill="rgb(255, 255, 255)" stroke="none" stroke-width="1px">0.3</text><text x="0" y="137.66666666666666" dx="0em" dy="0.3em" style="text-anchor: end; visibility: hidden; font-family: Roboto, sans-serif; font-size: 12px; font-weight: 200;" fill="rgb(255, 255, 255)" stroke="none" stroke-width="1px">0.4</text><text x="0" y="118.00000000000001" dx="0em" dy="0.3em" style="text-anchor: end; visibility: inherit; font-family: Roboto, sans-serif; font-size: 12px; font-weight: 200;" fill="rgb(255, 255, 255)" stroke="none" stroke-width="1px">0.5</text><text x="0" y="98.33333333333334" dx="0em" dy="0.3em" style="text-anchor: end; visibility: hidden; font-family: Roboto, sans-serif; font-size: 12px; font-weight: 200;" fill="rgb(255, 255, 255)" stroke="none" stroke-width="1px">0.6</text><text x="0" y="78.6666666666667" dx="0em" dy="0.3em" style="text-anchor: end; visibility: inherit; font-family: Roboto, sans-serif; font-size: 12px; font-weight: 200;" fill="rgb(255, 255, 255)" stroke="none" stroke-width="1px">0.7</text><text x="0" y="59.00000000000001" dx="0em" dy="0.3em" style="text-anchor: end; visibility: hidden; font-family: Roboto, sans-serif; font-size: 12px; font-weight: 200;" fill="rgb(255, 255, 255)" stroke="none" stroke-width="1px">0.8</text><text x="0" y="39.33333333333337" dx="0em" dy="0.3em" style="text-anchor: end; visibility: inherit; font-family: Roboto, sans-serif; font-size: 12px; font-weight: 200;" fill="rgb(255, 255, 255)" stroke="none" stroke-width="1px">0.9</text><text x="0" y="19.666666666666675" dx="0em" dy="0.3em" style="text-anchor: end; visibility: hidden; font-family: Roboto, sans-serif; font-size: 12px; font-weight: 200;" fill="rgb(255, 255, 255)" stroke="none" stroke-width="1px">1</text><text x="0" y="0" dx="0em" dy="0.3em" style="text-anchor: end; visibility: hidden; font-family: Roboto, sans-serif; font-size: 12px; font-weight: 200;" fill="rgb(255, 255, 255)" stroke="none" stroke-width="1px">1.1</text></g><line x1="41.171875" y1="0" x2="41.171875" y2="177" fill="rgb(0, 0, 0)" stroke="rgb(204, 204, 204)" stroke-width="1px"></line></g></g><g transform="translate(41, 0)" clip-path="url(#clip_0)"><clipPath id="clip_0"><rect width="288" height="176"></rect></clipPath><g><g><g><line x1="0" y1="0" x2="0" y2="177" fill="rgb(0, 0, 0)" stroke="rgb(189, 189, 189)" stroke-width="1px" opacity="0.25"></line><line x1="24.069010416666664" y1="0" x2="24.069010416666664" y2="177" fill="rgb(0, 0, 0)" stroke="rgb(189, 189, 189)" stroke-width="1px" opacity="0.25"></line><line x1="48.13802083333333" y1="0" x2="48.13802083333333" y2="177" fill="rgb(0, 0, 0)" stroke="rgb(189, 189, 189)" stroke-width="1px" opacity="0.25"></line><line x1="72.20703125" y1="0" x2="72.20703125" y2="177" fill="rgb(0, 0, 0)" stroke="rgb(189, 189, 189)" stroke-width="1px" opacity="0.25"></line><line x1="96.27604166666666" y1="0" x2="96.27604166666666" y2="177" fill="rgb(0, 0, 0)" stroke="rgb(189, 189, 189)" stroke-width="1px" opacity="0.25"></line><line x1="120.34505208333334" y1="0" x2="120.34505208333334" y2="177" fill="rgb(0, 0, 0)" stroke="rgb(189, 189, 189)" stroke-width="1px" opacity="0.25"></line><line x1="144.4140625" y1="0" x2="144.4140625" y2="177" fill="rgb(0, 0, 0)" stroke="rgb(189, 189, 189)" stroke-width="1px" opacity="0.25"></line><line x1="168.48307291666669" y1="0" x2="168.48307291666669" y2="177" fill="rgb(0, 0, 0)" stroke="rgb(189, 189, 189)" stroke-width="1px" opacity="0.25"></line><line x1="192.55208333333331" y1="0" x2="192.55208333333331" y2="177" fill="rgb(0, 0, 0)" stroke="rgb(189, 189, 189)" stroke-width="1px" opacity="0.25"></line><line x1="216.62109375" y1="0" x2="216.62109375" y2="177" fill="rgb(0, 0, 0)" stroke="rgb(189, 189, 189)" stroke-width="1px" opacity="0.25"></line><line x1="240.69010416666669" y1="0" x2="240.69010416666669" y2="177" fill="rgb(0, 0, 0)" stroke="rgb(189, 189, 189)" stroke-width="1px" opacity="0.25"></line><line x1="264.7591145833333" y1="0" x2="264.7591145833333" y2="177" fill="rgb(0, 0, 0)" stroke="rgb(189, 189, 189)" stroke-width="1px" opacity="0.25"></line><line x1="288.828125" y1="0" x2="288.828125" y2="177" fill="rgb(0, 0, 0)" stroke="rgb(189, 189, 189)" stroke-width="1px" opacity="0.25"></line></g><g><line x1="0" y1="177" x2="288.828125" y2="177" fill="rgb(0, 0, 0)" stroke="rgb(189, 189, 189)" stroke-width="1px" opacity="0.25"></line><line x1="0" y1="157.33333333333334" x2="288.828125" y2="157.33333333333334" fill="rgb(0, 0, 0)" stroke="rgb(189, 189, 189)" stroke-width="1px" opacity="0.25"></line><line x1="0" y1="137.66666666666666" x2="288.828125" y2="137.66666666666666" fill="rgb(0, 0, 0)" stroke="rgb(189, 189, 189)" stroke-width="1px" opacity="0.25"></line><line x1="0" y1="118.00000000000001" x2="288.828125" y2="118.00000000000001" fill="rgb(0, 0, 0)" stroke="rgb(189, 189, 189)" stroke-width="1px" opacity="0.25"></line><line x1="0" y1="98.33333333333334" x2="288.828125" y2="98.33333333333334" fill="rgb(0, 0, 0)" stroke="rgb(189, 189, 189)" stroke-width="1px" opacity="0.25"></line><line x1="0" y1="78.6666666666667" x2="288.828125" y2="78.6666666666667" fill="rgb(0, 0, 0)" stroke="rgb(189, 189, 189)" stroke-width="1px" opacity="0.25"></line><line x1="0" y1="59.00000000000001" x2="288.828125" y2="59.00000000000001" fill="rgb(0, 0, 0)" stroke="rgb(189, 189, 189)" stroke-width="1px" opacity="0.25"></line><line x1="0" y1="39.33333333333337" x2="288.828125" y2="39.33333333333337" fill="rgb(0, 0, 0)" stroke="rgb(189, 189, 189)" stroke-width="1px" opacity="0.25"></line><line x1="0" y1="19.666666666666675" x2="288.828125" y2="19.666666666666675" fill="rgb(0, 0, 0)" stroke="rgb(189, 189, 189)" stroke-width="1px" opacity="0.25"></line><line x1="0" y1="0" x2="288.828125" y2="0" fill="rgb(0, 0, 0)" stroke="rgb(189, 189, 189)" stroke-width="1px" opacity="0.25"></line></g></g></g><g><g><line x1="0" y1="216.33333333333334" x2="288.828125" y2="216.33333333333334" fill="rgb(0, 0, 0)" stroke="rgb(153, 153, 153)" stroke-width="1.5px"></line></g></g><g><g><line x1="24.069010416666664" y1="0" x2="24.069010416666664" y2="177" fill="rgb(0, 0, 0)" stroke="rgb(153, 153, 153)" stroke-width="1.5px"></line></g></g><g><g><g><g><g><path stroke="rgb(255, 112, 67)" stroke-width="2px" d="M25.2724609375,-17.096151431401562L26.475911458333332,3.1156249145666974L27.679361979166668,40.999368330248394L28.8828125,46.78831851570051L30.086263020833336,60.211772830790224L31.289713541666668,66.96216231175875L32.4931640625,81.05122432611037L33.696614583333336,73.25149040555787L34.900065104166664,67.89637334593911L36.103515625,83.14818019091457L37.306966145833336,94.74911512529344L38.510416666666664,88.17277354479856L39.7138671875,85.54918281919987L40.917317708333336,95.99850482356244L42.12076822916667,99.84558978798857L43.32421875,102.89117228788318L44.527669270833336,103.51988668147649L45.731119791666664,99.85376493195675L46.9345703125,89.39175739600756L48.13802083333333,88.17171511822339L49.341471354166664,90.67722537762357L50.544921875,85.89977451678622L51.748372395833336,99.83461926452459L52.951822916666664,104.6793159253592L54.1552734375,104.4956432290686L55.358723958333336,108.34198163662268L56.562174479166664,112.20166688048512L57.765625,105.1977068301853L58.969075520833336,104.62086171414141L60.17252604166667,116.22370075894726L61.3759765625,114.07765397998779L62.579427083333336,106.93312223460067L63.782877604166664,98.36639534875083L64.986328125,110.31998173934423L66.18977864583333,116.48738205232068L67.39322916666667,116.58704097253265L68.5966796875,122.07934518387768L69.80013020833333,115.31022457786733L71.00358072916666,129.87438261083062L72.20703125,136.8779872247099L73.41048177083333,136.98474392831065L74.61393229166667,122.85579691171056L75.8173828125,123.85132170848627L77.02083333333333,125.07626678050467L78.22428385416666,113.00251526012234L79.427734375,107.41545244643541L80.63118489583333,117.13562057405993L81.83463541666667,126.44511658763102L83.0380859375,129.5599169581468L84.24153645833334,134.26805664598785L85.44498697916667,133.18909936049957L86.6484375,135.91891367177593L87.85188802083333,127.35344213806341L89.05533854166667,124.6605804039773L90.2587890625,117.70424757442854L91.46223958333333,122.05995789791497L92.66569010416667,120.20998857592711L93.869140625,119.6660578698426L95.07259114583333,125.41109885675813L96.27604166666666,125.80145616076256L97.4794921875,121.54069763864186L98.68294270833333,122.21167247163324L99.88639322916667,133.496900594237L101.08984375,131.90792094628168L102.29329427083334,122.11047539885925L103.49674479166667,130.03954177166676L104.7001953125,129.2794489685634L105.90364583333333,123.27446144961951L107.10709635416667,135.38874185568275L108.310546875,145.90154740305454L109.51399739583333,123.78944280798262L110.71744791666667,130.3073023660284L111.9208984375,135.44705582280764L113.12434895833333,135.00901979974793L114.32779947916666,143.58232936127118L115.53125,136.84297648785392L116.73470052083333,128.00373498430577L117.93815104166667,138.74573279915685L119.1416015625,134.24373854099773L120.34505208333334,143.8468382014775L121.54850260416667,146.60988468650643L122.751953125,145.2791585766693L123.95540364583333,139.8186939225646L125.15885416666667,136.34876126842016L126.3623046875,134.26789887823452L127.56575520833333,133.54851663159005L128.76920572916669,126.13359084951882L129.97265625,119.33076602157755L131.17610677083334,116.32084083916826L132.37955729166666,130.33495806274067L133.5830078125,144.32724095156144L134.78645833333334,146.51277388396076L135.98990885416666,151.61677501953966L137.193359375,156.2323476137161L138.39680989583334,152.58242236344654L139.60026041666666,155.6477966235199L140.8037109375,156.10222527540438L142.00716145833331,158.35454254045115L143.21061197916666,137.54504875755725L144.4140625,136.6004179025675L145.61751302083334,147.3235673887522L146.82096354166666,130.89416184323974L148.0244140625,129.70184483308364L149.22786458333334,128.52833281067274L150.43131510416669,138.30818817282076L151.634765625,146.3117611245177L152.83821614583334,136.8073223254598L154.04166666666666,144.13506170639496L155.2451171875,96.4224382193631L156.44856770833331,94.35310533553839L157.65201822916666,101.06330579267231L158.85546875,111.88917321610225L160.05891927083334,126.21164489575887L161.26236979166666,127.40672561002968L162.4658203125,131.08380546851873L163.66927083333334,122.71717522154601L164.87272135416666,131.6954142189643L166.076171875,136.37214653908936L167.27962239583334,139.32041664055822L168.48307291666669,128.1756803858191L169.6865234375,134.041104912832L170.88997395833334,146.51352806095755L172.09342447916666,138.11489424231337L173.296875,138.77865501119308L174.50032552083331,116.14509252631831L175.70377604166666,124.48640759740772L176.9072265625,128.18391995402874L178.11067708333334,137.19806235297145L179.31412760416666,138.9132382468201L180.517578125,134.67695902958417L181.72102864583334,136.90593494877163L182.92447916666666,136.59913706325457L184.1279296875,145.38069923446358L185.33138020833334,144.4627472066429L186.53483072916669,151.82824839176018L187.73828125,149.60617888582516L188.94173177083334,149.89190606641432L190.14518229166666,158.22405878921944L191.3486328125,157.20100627076982L192.55208333333331,153.95624775329642L193.75553385416666,154.25268370294222L194.958984375,138.56598466863426L196.16243489583334,144.64416183370466L197.36588541666666,151.35875667733816L198.5693359375,144.6164802169971L199.77278645833334,148.60782345073454L200.97623697916666,156.1280423120878L202.1796875,157.5887356350554L203.38313802083334,153.5244238783757L204.58658854166669,153.28400192319393L205.7900390625,145.1580873111429L206.99348958333334,147.14282172001654L208.19694010416666,151.4800728305812L209.400390625,145.61685833203606L210.60384114583331,142.47128211379734L211.80729166666666,144.72514594547363L213.0107421875,144.82977642785954L214.21419270833334,148.4046055048989L215.41764322916666,151.41730557105663L216.62109375,148.11506225002836L217.82454427083334,152.9583684921247L219.02799479166666,145.33918127536668L220.2314453125,144.37149554761186L221.43489583333334,131.44347816073062L222.63834635416669,137.35574528394042L223.841796875,131.06050696065762L225.04524739583334,145.46800338083946L226.24869791666666,150.88100835594201L227.4521484375,150.1698311383287L228.65559895833331,159.2131657847619L229.85904947916666,156.47570129129426L231.0625,152.65015809472288L232.26595052083334,147.30966206830274L233.46940104166666,157.72691650256434L234.6728515625,140.1491216524338L235.87630208333334,144.455849025879L237.07975260416666,147.99829869323992L238.283203125,146.99173653634801L239.48665364583334,149.06710865008284L240.69010416666669,144.63917005404303L241.8935546875,146.78248878525378L243.09700520833334,147.63992405855663L244.30045572916666,159.74150500053568L245.50390625,158.88064094397072L246.70735677083331,161.45638557282672L247.91080729166666,163.01897496386917L249.1142578125,159.07042886259885L250.31770833333334,155.9114655898575L251.52115885416666,160.5083414860505L252.724609375,158.25963283466928L253.92805989583334,158.69949446253557L255.13151041666666,160.8003859806016L256.3349609375,157.42900166638424L257.53841145833337,144.4702736878061L258.7418619791667,145.6080214705267L259.9453125,157.9184403256296L261.1487630208333,162.58522650216335L262.3522135416667,165.55133562851537L263.5556640625,167.10905911665313L264.7591145833333,170.50146504724714" style="fill: none;" fill="none"></path></g><g><path stroke="rgb(0, 119, 187)" stroke-width="2px" d="M24.069010416666664,4.072585185368873L36.103515625,-259.11402530471474L72.20703125,-50.18726447854026L84.24153645833334,9.889981436331437L96.27604166666666,32.70926985349089L96.27604166666666,45.985030674422006L108.310546875,40.989309529803094L120.34505208333334,3.608535952495038L132.37955729166666,11.270239567830473L144.4140625,43.76791419958027L156.44856770833331,-78.06803201918825L168.48307291666669,-25.764008382573767L180.517578125,11.072708303368444L192.55208333333331,46.56979598065513L204.58658854166669,63.590636994947275L216.62109375,78.42237176651015L228.65559895833331,88.81265487924502L240.69010416666669,85.50049957737352L252.724609375,92.93079659725103L264.7591145833333,90.6461500663988" style="fill: none;" fill="none"></path></g></g></g></g><g opacity="0.2"><g><g><g><path stroke="rgb(255, 112, 67)" stroke-width="2px" d="M25.2724609375,-17.096151431401562L26.475911458333332,15.242690722147646L27.679361979166668,77.36776200930278L28.8828125,53.59612393379213L30.086263020833336,77.73743478457133L31.289713541666668,76.30038110415143L32.4931640625,101.19880843162537L33.696614583333336,61.879403471946716L34.900065104166664,59.99861586093904L36.103515625,105.79533584912619L37.306966145833336,112.04529790083568L38.510416666666664,78.34404933452608L39.7138671875,81.62236320972444L40.917317708333336,111.65201652050021L42.12076822916667,105.61169513066612L43.32421875,107.45739805698395L44.527669270833336,104.46269222100578L45.731119791666664,94.35551313559216L46.9345703125,73.7003398736318L48.13802083333333,86.34176321824394L49.341471354166664,94.43535335858664L50.544921875,78.7337554295858L51.748372395833336,120.73661126693091L52.951822916666664,111.94630352656048L54.1552734375,104.2201354900996L55.358723958333336,114.11147284507753L56.562174479166664,117.99118487040202L57.765625,94.6917775074641L58.969075520833336,103.75559457143149L60.17252604166667,133.62795291344327L61.3759765625,110.858584523201L62.579427083333336,96.21632603804272L63.782877604166664,85.51630604267122L64.986328125,128.2503604690234L66.18977864583333,125.7384822567304L67.39322916666667,116.73652935028078L68.5966796875,130.31780141592026L69.80013020833333,105.15654373168945L71.00358072916666,151.72061957915625L72.20703125,147.38339412212372L73.41048177083333,137.14487898349762L74.61393229166667,101.6623764038086L75.8173828125,125.34460890293123L77.02083333333333,126.91368438800177L78.22428385416666,94.89188798268637L79.427734375,99.03485822677614L80.63118489583333,131.7158727645874L81.83463541666667,140.40936060746512L83.0380859375,134.23211751381555L84.24153645833334,141.33026617765427L85.44498697916667,131.57066343228024L86.6484375,140.0136351386706L87.85188802083333,114.50523483753204L89.05533854166667,120.62128780285519L90.2587890625,107.2697483301163L91.46223958333333,128.59352338314056L92.66569010416667,117.43503459294638L93.869140625,118.850161810716L95.07259114583333,134.02866033713022L96.27604166666666,126.38699211676916L97.4794921875,115.14955985546112L98.68294270833333,123.21813472112021L99.88639322916667,150.4247427781423L101.08984375,129.5244514743487L102.29329427083334,107.41430707772574L103.49674479166667,141.93314133087796L104.7001953125,128.1393097639084L105.90364583333333,114.26698017120363L107.10709635416667,153.56016246477765L108.310546875,161.6707557241122L109.51399739583333,90.62128591537478L110.71744791666667,140.08409170309704L111.9208984375,143.15668600797653L113.12434895833333,134.35196576515833L114.32779947916666,156.44229370355606L115.53125,126.73394717772804L116.73470052083333,114.74487272898358L117.93815104166667,154.8587295214335L119.1416015625,127.49074715375902L120.34505208333334,158.25148769219717L121.54850260416667,150.75445441404977L122.751953125,143.28306941191357L123.95540364583333,131.62799694140753L125.15885416666667,131.1438622872035L126.3623046875,131.14660529295605L127.56575520833333,132.46944326162338L128.76920572916669,115.01120217641196L129.97265625,109.12652877966563L131.17610677083334,111.80595306555432L132.37955729166666,151.35613389809927L133.5830078125,165.31566528479257L134.78645833333334,149.79107328255972L135.98990885416666,159.27277672290802L137.193359375,163.1557065049807L138.39680989583334,147.1075344880422L139.60026041666666,160.2458580136299L140.8037109375,156.78386825323105L142.00716145833331,161.73301843802133L143.21061197916666,106.33080808321637L144.4140625,135.18347162008286L145.61751302083334,163.4082916180293L146.82096354166666,106.25005352497101L148.0244140625,127.91336931784949L149.22786458333334,126.76806477705638L150.43131510416669,152.97797121604285L151.634765625,158.317120552063L152.83821614583334,122.55066412687302L154.04166666666666,155.1266707777977L155.2451171875,24.853502988815315L156.44856770833331,91.24910600980125L157.65201822916666,111.12860647837321L158.85546875,128.12797435124716L160.05891927083334,147.6953524152438L161.26236979166666,129.1993466814359L162.4658203125,136.5994252562523L163.66927083333334,110.16722985108694L164.87272135416666,145.1627727150917L166.076171875,143.38724501927695L167.27962239583334,143.74282179276148L168.48307291666669,111.45857600371045L169.6865234375,142.83924170335135L170.88997395833334,165.2221627831459L172.09342447916666,125.51694351434709L173.296875,139.77429616451263L174.50032552083331,82.19474879900615L175.70377604166666,136.9983802040418L176.9072265625,133.73018848896027L178.11067708333334,150.7192759513855L179.31412760416666,141.48600208759308L180.517578125,128.32254020373026L181.72102864583334,140.2493988275528L182.92447916666666,136.138940234979L184.1279296875,158.55304249127707L185.33138020833334,143.0858191649119L186.53483072916669,162.87650016943613L187.73828125,146.2730746269226L188.94173177083334,150.32049683729807L190.14518229166666,170.72228787342706L191.3486328125,155.6664274930954L192.55208333333331,149.0891099770864L193.75553385416666,154.6973376274109L194.958984375,115.03593611717224L196.16243489583334,153.76142758131027L197.36588541666666,161.43064894278845L198.5693359375,134.50306552648544L199.77278645833334,154.59483830134073L200.97623697916666,167.40837060411772L202.1796875,159.77977561950684L203.38313802083334,147.42795624335608L204.58658854166669,152.9233689904213L205.7900390625,132.9692153930664L206.99348958333334,150.11992333332697L208.19694010416666,157.9859494964282L209.400390625,136.82203658421835L210.60384114583331,137.75291778643927L211.80729166666666,148.10594169298807L213.0107421875,144.98672215143839L214.21419270833334,153.76684912045798L215.41764322916666,155.93635567029318L216.62109375,143.16169726848602L217.82454427083334,160.2233278552691L219.02799479166666,133.91040045022964L220.2314453125,142.91996695597967L221.43489583333334,112.05145208040875L222.63834635416669,146.2241459687551L223.841796875,121.61764947573344L225.04524739583334,167.0792480111122L226.24869791666666,159.0005158185959L227.4521484375,149.10306531190872L228.65559895833331,172.7781677544117L229.85904947916666,152.36950455109277L231.0625,146.91184329986572L232.26595052083334,139.29891802867255L233.46940104166666,173.35279815395674L234.6728515625,113.78242937723797L235.87630208333334,150.91594008604685L237.07975260416666,153.31197319428128L238.283203125,145.48189330101013L239.48665364583334,152.1801668206851L240.69010416666669,137.9972621599833L241.8935546875,149.99746688206992L243.09700520833334,148.92607696851096L244.30045572916666,177.89387641350427L245.50390625,157.58934485912323L246.70735677083331,165.32000251611075L247.91080729166666,165.36285905043283L249.1142578125,153.14760971069336L250.31770833333334,151.17302068074545L251.52115885416666,167.40365533034006L252.724609375,154.88656985759735L253.92805989583334,159.35928690433502L255.13151041666666,163.95172325770062L256.3349609375,152.3719251950582L257.53841145833337,125.03218171993893L258.7418619791667,147.31464314460754L259.9453125,176.384068608284L261.1487630208333,169.58540576696396L262.3522135416667,170.0004993180434L263.5556640625,169.4456443488598L264.7591145833333,175.59007394313812" style="fill: none;" fill="none"></path></g><g><path stroke="rgb(0, 119, 187)" stroke-width="2px" d="M24.069010416666664,4.072585185368873L36.103515625,-417.0259915987649L60.17252604166667,-152.22273381551102L72.20703125,68.67427416642506L84.24153645833334,92.99844034512839L96.27604166666666,65.3412173986435L96.27604166666666,65.3412173986435L108.310546875,33.62159121036532L120.34505208333334,-51.897556304931626L132.37955729166666,22.693303902943935L144.4140625,92.3375752369563L156.44856770833331,-260.42413584391267L168.48307291666669,52.58955804506938L180.517578125,66.28448315461479L192.55208333333331,99.79039220015208L204.58658854166669,89.11469586690268L216.62109375,100.66620814800264L228.65559895833331,104.39649669329327L240.69010416666669,80.53256936868033L252.724609375,104.07583463191989L264.7591145833333,87.21925544738771" style="fill: none;" fill="none"></path></g></g></g></g></g></g><g transform="translate(41, 177)" clip-path="url(#clip_1)"><clipPath id="clip_1"><rect width="288" height="22"></rect></clipPath><g><g><line x1="0" y1="0" x2="0" y2="5" style="visibility: inherit;" fill="rgb(0, 0, 0)" stroke="rgb(204, 204, 204)" stroke-width="1px"></line><line x1="24.069010416666664" y1="0" x2="24.069010416666664" y2="5" style="visibility: inherit;" fill="rgb(0, 0, 0)" stroke="rgb(204, 204, 204)" stroke-width="1px"></line><line x1="48.13802083333333" y1="0" x2="48.13802083333333" y2="5" style="visibility: inherit;" fill="rgb(0, 0, 0)" stroke="rgb(204, 204, 204)" stroke-width="1px"></line><line x1="72.20703125" y1="0" x2="72.20703125" y2="5" style="visibility: inherit;" fill="rgb(0, 0, 0)" stroke="rgb(204, 204, 204)" stroke-width="1px"></line><line x1="96.27604166666666" y1="0" x2="96.27604166666666" y2="5" style="visibility: inherit;" fill="rgb(0, 0, 0)" stroke="rgb(204, 204, 204)" stroke-width="1px"></line><line x1="120.34505208333334" y1="0" x2="120.34505208333334" y2="5" style="visibility: inherit;" fill="rgb(0, 0, 0)" stroke="rgb(204, 204, 204)" stroke-width="1px"></line><line x1="144.4140625" y1="0" x2="144.4140625" y2="5" style="visibility: inherit;" fill="rgb(0, 0, 0)" stroke="rgb(204, 204, 204)" stroke-width="1px"></line><line x1="168.48307291666669" y1="0" x2="168.48307291666669" y2="5" style="visibility: inherit;" fill="rgb(0, 0, 0)" stroke="rgb(204, 204, 204)" stroke-width="1px"></line><line x1="192.55208333333331" y1="0" x2="192.55208333333331" y2="5" style="visibility: inherit;" fill="rgb(0, 0, 0)" stroke="rgb(204, 204, 204)" stroke-width="1px"></line><line x1="216.62109375" y1="0" x2="216.62109375" y2="5" style="visibility: inherit;" fill="rgb(0, 0, 0)" stroke="rgb(204, 204, 204)" stroke-width="1px"></line><line x1="240.69010416666669" y1="0" x2="240.69010416666669" y2="5" style="visibility: inherit;" fill="rgb(0, 0, 0)" stroke="rgb(204, 204, 204)" stroke-width="1px"></line><line x1="264.7591145833333" y1="0" x2="264.7591145833333" y2="5" style="visibility: inherit;" fill="rgb(0, 0, 0)" stroke="rgb(204, 204, 204)" stroke-width="1px"></line><line x1="288.828125" y1="0" x2="288.828125" y2="5" style="visibility: inherit;" fill="rgb(0, 0, 0)" stroke="rgb(204, 204, 204)" stroke-width="1px"></line></g><g transform="translate(0, 8)"><text x="0" y="0" dx="0em" dy="0.95em" style="text-anchor: middle; visibility: hidden; font-family: Roboto, sans-serif; font-size: 12px; font-weight: 200;" fill="rgb(255, 255, 255)" stroke="none" stroke-width="1px">-2k</text><text x="24.069010416666664" y="0" dx="0em" dy="0.95em" style="text-anchor: middle; visibility: inherit; font-family: Roboto, sans-serif; font-size: 12px; font-weight: 200;" fill="rgb(255, 255, 255)" stroke="none" stroke-width="1px">0</text><text x="48.13802083333333" y="0" dx="0em" dy="0.95em" style="text-anchor: middle; visibility: hidden; font-family: Roboto, sans-serif; font-size: 12px; font-weight: 200;" fill="rgb(255, 255, 255)" stroke="none" stroke-width="1px">2k</text><text x="72.20703125" y="0" dx="0em" dy="0.95em" style="text-anchor: middle; visibility: inherit; font-family: Roboto, sans-serif; font-size: 12px; font-weight: 200;" fill="rgb(255, 255, 255)" stroke="none" stroke-width="1px">4k</text><text x="96.27604166666666" y="0" dx="0em" dy="0.95em" style="text-anchor: middle; visibility: hidden; font-family: Roboto, sans-serif; font-size: 12px; font-weight: 200;" fill="rgb(255, 255, 255)" stroke="none" stroke-width="1px">6k</text><text x="120.34505208333334" y="0" dx="0em" dy="0.95em" style="text-anchor: middle; visibility: inherit; font-family: Roboto, sans-serif; font-size: 12px; font-weight: 200;" fill="rgb(255, 255, 255)" stroke="none" stroke-width="1px">8k</text><text x="144.4140625" y="0" dx="0em" dy="0.95em" style="text-anchor: middle; visibility: hidden; font-family: Roboto, sans-serif; font-size: 12px; font-weight: 200;" fill="rgb(255, 255, 255)" stroke="none" stroke-width="1px">10k</text><text x="168.48307291666669" y="0" dx="0em" dy="0.95em" style="text-anchor: middle; visibility: inherit; font-family: Roboto, sans-serif; font-size: 12px; font-weight: 200;" fill="rgb(255, 255, 255)" stroke="none" stroke-width="1px">12k</text><text x="192.55208333333331" y="0" dx="0em" dy="0.95em" style="text-anchor: middle; visibility: hidden; font-family: Roboto, sans-serif; font-size: 12px; font-weight: 200;" fill="rgb(255, 255, 255)" stroke="none" stroke-width="1px">14k</text><text x="216.62109375" y="0" dx="0em" dy="0.95em" style="text-anchor: middle; visibility: inherit; font-family: Roboto, sans-serif; font-size: 12px; font-weight: 200;" fill="rgb(255, 255, 255)" stroke="none" stroke-width="1px">16k</text><text x="240.69010416666669" y="0" dx="0em" dy="0.95em" style="text-anchor: middle; visibility: hidden; font-family: Roboto, sans-serif; font-size: 12px; font-weight: 200;" fill="rgb(255, 255, 255)" stroke="none" stroke-width="1px">18k</text><text x="264.7591145833333" y="0" dx="0em" dy="0.95em" style="text-anchor: middle; visibility: inherit; font-family: Roboto, sans-serif; font-size: 12px; font-weight: 200;" fill="rgb(255, 255, 255)" stroke="none" stroke-width="1px">20k</text><text x="288.828125" y="0" dx="0em" dy="0.95em" style="text-anchor: middle; visibility: hidden; font-family: Roboto, sans-serif; font-size: 12px; font-weight: 200;" fill="rgb(255, 255, 255)" stroke="none" stroke-width="1px">22k</text></g><line x1="0" y1="0" x2="288.828125" y2="0" fill="rgb(0, 0, 0)" stroke="rgb(204, 204, 204)" stroke-width="1px"></line></g></g></g></g></svg>