<svg viewBox="0 0 330 200" xmlns="http://www.w3.org/2000/svg"><g><g><g><g><g><line x1="41.171875" y1="177" x2="36.171875" y2="177" style="visibility: inherit;" fill="rgb(0, 0, 0)" stroke="rgb(204, 204, 204)" stroke-width="1px"></line><line x1="41.171875" y1="159.3" x2="36.171875" y2="159.3" style="visibility: inherit;" fill="rgb(0, 0, 0)" stroke="rgb(204, 204, 204)" stroke-width="1px"></line><line x1="41.171875" y1="141.6" x2="36.171875" y2="141.6" style="visibility: inherit;" fill="rgb(0, 0, 0)" stroke="rgb(204, 204, 204)" stroke-width="1px"></line><line x1="41.171875" y1="123.89999999999999" x2="36.171875" y2="123.89999999999999" style="visibility: inherit;" fill="rgb(0, 0, 0)" stroke="rgb(204, 204, 204)" stroke-width="1px"></line><line x1="41.171875" y1="106.2" x2="36.171875" y2="106.2" style="visibility: inherit;" fill="rgb(0, 0, 0)" stroke="rgb(204, 204, 204)" stroke-width="1px"></line><line x1="41.171875" y1="88.5" x2="36.171875" y2="88.5" style="visibility: inherit;" fill="rgb(0, 0, 0)" stroke="rgb(204, 204, 204)" stroke-width="1px"></line><line x1="41.171875" y1="70.8" x2="36.171875" y2="70.8" style="visibility: inherit;" fill="rgb(0, 0, 0)" stroke="rgb(204, 204, 204)" stroke-width="1px"></line><line x1="41.171875" y1="53.09999999999999" x2="36.171875" y2="53.09999999999999" style="visibility: inherit;" fill="rgb(0, 0, 0)" stroke="rgb(204, 204, 204)" stroke-width="1px"></line><line x1="41.171875" y1="35.39999999999999" x2="36.171875" y2="35.39999999999999" style="visibility: inherit;" fill="rgb(0, 0, 0)" stroke="rgb(204, 204, 204)" stroke-width="1px"></line><line x1="41.171875" y1="17.699999999999996" x2="36.171875" y2="17.699999999999996" style="visibility: inherit;" fill="rgb(0, 0, 0)" stroke="rgb(204, 204, 204)" stroke-width="1px"></line><line x1="41.171875" y1="0" x2="36.171875" y2="0" style="visibility: inherit;" fill="rgb(0, 0, 0)" stroke="rgb(204, 204, 204)" stroke-width="1px"></line></g><g transform="translate(31.171875, 0)"><text x="0" y="177" dx="0em" dy="0.3em" style="text-anchor: end; visibility: hidden; font-family: Roboto, sans-serif; font-size: 12px; font-weight: 200;" fill="rgb(255, 255, 255)" stroke="none" stroke-width="1px">0.1</text><text x="0" y="159.3" dx="0em" dy="0.3em" style="text-anchor: end; visibility: inherit; font-family: Roboto, sans-serif; font-size: 12px; font-weight: 200;" fill="rgb(255, 255, 255)" stroke="none" stroke-width="1px">0.2</text><text x="0" y="141.6" dx="0em" dy="0.3em" style="text-anchor: end; visibility: hidden; font-family: Roboto, sans-serif; font-size: 12px; font-weight: 200;" fill="rgb(255, 255, 255)" stroke="none" stroke-width="1px">0.3</text><text x="0" y="123.89999999999999" dx="0em" dy="0.3em" style="text-anchor: end; visibility: inherit; font-family: Roboto, sans-serif; font-size: 12px; font-weight: 200;" fill="rgb(255, 255, 255)" stroke="none" stroke-width="1px">0.4</text><text x="0" y="106.2" dx="0em" dy="0.3em" style="text-anchor: end; visibility: hidden; font-family: Roboto, sans-serif; font-size: 12px; font-weight: 200;" fill="rgb(255, 255, 255)" stroke="none" stroke-width="1px">0.5</text><text x="0" y="88.5" dx="0em" dy="0.3em" style="text-anchor: end; visibility: inherit; font-family: Roboto, sans-serif; font-size: 12px; font-weight: 200;" fill="rgb(255, 255, 255)" stroke="none" stroke-width="1px">0.6</text><text x="0" y="70.8" dx="0em" dy="0.3em" style="text-anchor: end; visibility: hidden; font-family: Roboto, sans-serif; font-size: 12px; font-weight: 200;" fill="rgb(255, 255, 255)" stroke="none" stroke-width="1px">0.7</text><text x="0" y="53.09999999999999" dx="0em" dy="0.3em" style="text-anchor: end; visibility: inherit; font-family: Roboto, sans-serif; font-size: 12px; font-weight: 200;" fill="rgb(255, 255, 255)" stroke="none" stroke-width="1px">0.8</text><text x="0" y="35.39999999999999" dx="0em" dy="0.3em" style="text-anchor: end; visibility: hidden; font-family: Roboto, sans-serif; font-size: 12px; font-weight: 200;" fill="rgb(255, 255, 255)" stroke="none" stroke-width="1px">0.9</text><text x="0" y="17.699999999999996" dx="0em" dy="0.3em" style="text-anchor: end; visibility: inherit; font-family: Roboto, sans-serif; font-size: 12px; font-weight: 200;" fill="rgb(255, 255, 255)" stroke="none" stroke-width="1px">1</text><text x="0" y="0" dx="0em" dy="0.3em" style="text-anchor: end; visibility: hidden; font-family: Roboto, sans-serif; font-size: 12px; font-weight: 200;" fill="rgb(255, 255, 255)" stroke="none" stroke-width="1px">1.1</text></g><line x1="41.171875" y1="0" x2="41.171875" y2="177" fill="rgb(0, 0, 0)" stroke="rgb(204, 204, 204)" stroke-width="1px"></line></g></g><g transform="translate(41, 0)" clip-path="url(#clip_0)"><clipPath id="clip_0"><rect width="288" height="176"></rect></clipPath><g><g><g><line x1="0" y1="0" x2="0" y2="177" fill="rgb(0, 0, 0)" stroke="rgb(189, 189, 189)" stroke-width="1px" opacity="0.25"></line><line x1="24.069010416666664" y1="0" x2="24.069010416666664" y2="177" fill="rgb(0, 0, 0)" stroke="rgb(189, 189, 189)" stroke-width="1px" opacity="0.25"></line><line x1="48.13802083333333" y1="0" x2="48.13802083333333" y2="177" fill="rgb(0, 0, 0)" stroke="rgb(189, 189, 189)" stroke-width="1px" opacity="0.25"></line><line x1="72.20703125" y1="0" x2="72.20703125" y2="177" fill="rgb(0, 0, 0)" stroke="rgb(189, 189, 189)" stroke-width="1px" opacity="0.25"></line><line x1="96.27604166666666" y1="0" x2="96.27604166666666" y2="177" fill="rgb(0, 0, 0)" stroke="rgb(189, 189, 189)" stroke-width="1px" opacity="0.25"></line><line x1="120.34505208333334" y1="0" x2="120.34505208333334" y2="177" fill="rgb(0, 0, 0)" stroke="rgb(189, 189, 189)" stroke-width="1px" opacity="0.25"></line><line x1="144.4140625" y1="0" x2="144.4140625" y2="177" fill="rgb(0, 0, 0)" stroke="rgb(189, 189, 189)" stroke-width="1px" opacity="0.25"></line><line x1="168.48307291666669" y1="0" x2="168.48307291666669" y2="177" fill="rgb(0, 0, 0)" stroke="rgb(189, 189, 189)" stroke-width="1px" opacity="0.25"></line><line x1="192.55208333333331" y1="0" x2="192.55208333333331" y2="177" fill="rgb(0, 0, 0)" stroke="rgb(189, 189, 189)" stroke-width="1px" opacity="0.25"></line><line x1="216.62109375" y1="0" x2="216.62109375" y2="177" fill="rgb(0, 0, 0)" stroke="rgb(189, 189, 189)" stroke-width="1px" opacity="0.25"></line><line x1="240.69010416666669" y1="0" x2="240.69010416666669" y2="177" fill="rgb(0, 0, 0)" stroke="rgb(189, 189, 189)" stroke-width="1px" opacity="0.25"></line><line x1="264.7591145833333" y1="0" x2="264.7591145833333" y2="177" fill="rgb(0, 0, 0)" stroke="rgb(189, 189, 189)" stroke-width="1px" opacity="0.25"></line><line x1="288.828125" y1="0" x2="288.828125" y2="177" fill="rgb(0, 0, 0)" stroke="rgb(189, 189, 189)" stroke-width="1px" opacity="0.25"></line></g><g><line x1="0" y1="177" x2="288.828125" y2="177" fill="rgb(0, 0, 0)" stroke="rgb(189, 189, 189)" stroke-width="1px" opacity="0.25"></line><line x1="0" y1="159.3" x2="288.828125" y2="159.3" fill="rgb(0, 0, 0)" stroke="rgb(189, 189, 189)" stroke-width="1px" opacity="0.25"></line><line x1="0" y1="141.6" x2="288.828125" y2="141.6" fill="rgb(0, 0, 0)" stroke="rgb(189, 189, 189)" stroke-width="1px" opacity="0.25"></line><line x1="0" y1="123.89999999999999" x2="288.828125" y2="123.89999999999999" fill="rgb(0, 0, 0)" stroke="rgb(189, 189, 189)" stroke-width="1px" opacity="0.25"></line><line x1="0" y1="106.2" x2="288.828125" y2="106.2" fill="rgb(0, 0, 0)" stroke="rgb(189, 189, 189)" stroke-width="1px" opacity="0.25"></line><line x1="0" y1="88.5" x2="288.828125" y2="88.5" fill="rgb(0, 0, 0)" stroke="rgb(189, 189, 189)" stroke-width="1px" opacity="0.25"></line><line x1="0" y1="70.8" x2="288.828125" y2="70.8" fill="rgb(0, 0, 0)" stroke="rgb(189, 189, 189)" stroke-width="1px" opacity="0.25"></line><line x1="0" y1="53.09999999999999" x2="288.828125" y2="53.09999999999999" fill="rgb(0, 0, 0)" stroke="rgb(189, 189, 189)" stroke-width="1px" opacity="0.25"></line><line x1="0" y1="35.39999999999999" x2="288.828125" y2="35.39999999999999" fill="rgb(0, 0, 0)" stroke="rgb(189, 189, 189)" stroke-width="1px" opacity="0.25"></line><line x1="0" y1="17.699999999999996" x2="288.828125" y2="17.699999999999996" fill="rgb(0, 0, 0)" stroke="rgb(189, 189, 189)" stroke-width="1px" opacity="0.25"></line><line x1="0" y1="0" x2="288.828125" y2="0" fill="rgb(0, 0, 0)" stroke="rgb(189, 189, 189)" stroke-width="1px" opacity="0.25"></line></g></g></g><g><g><line x1="0" y1="194.70000000000002" x2="288.828125" y2="194.70000000000002" fill="rgb(0, 0, 0)" stroke="rgb(153, 153, 153)" stroke-width="1.5px"></line></g></g><g><g><line x1="24.069010416666664" y1="0" x2="24.069010416666664" y2="177" fill="rgb(0, 0, 0)" stroke="rgb(153, 153, 153)" stroke-width="1.5px"></line></g></g><g><g><g><g><g><path stroke="rgb(255, 112, 67)" stroke-width="2px" d="M25.2724609375,-6.300055432319626L26.475911458333332,11.541284796595608L27.679361979166668,45.063545449412636L28.8828125,50.059569753575L30.086263020833336,61.85575209117283L31.289713541666668,68.06907943886344L32.4931640625,80.45226518773383L33.696614583333336,73.68655755517152L34.900065104166664,69.03496448073436L36.103515625,82.31115245782685L37.306966145833336,92.4680276928593L38.510416666666664,86.8672657565133L39.7138671875,84.51717859721893L40.917317708333336,93.7558625866988L42.12076822916667,97.15598048467646L43.32421875,100.05186799721396L44.527669270833336,100.33986527304111L45.731119791666664,97.00897717833628L46.9345703125,87.53714789891076L48.13802083333333,86.44369523219878L49.341471354166664,89.06630931846296L50.544921875,84.7572906254515L51.748372395833336,97.06072247379151L52.951822916666664,101.4295871511865L54.1552734375,101.38039810595177L55.358723958333336,104.76226134173955L56.562174479166664,108.24354753289006L57.765625,102.22442375454673L58.969075520833336,101.53036320643905L60.17252604166667,111.88855518950899L61.3759765625,110.2258971682372L62.579427083333336,104.20410093013218L63.782877604166664,96.47026905527447L64.986328125,107.29415717089036L66.18977864583333,112.72014394291082L67.39322916666667,112.76672513346941L68.5966796875,118.03525178033887L69.80013020833333,111.84465297068486L71.00358072916666,124.87901723192539L72.20703125,131.10943515302955L73.41048177083333,131.4061674001345L74.61393229166667,118.91200335631697L75.8173828125,119.71716964631636L77.02083333333333,120.74653057586715L78.22428385416666,110.37625899881552L79.427734375,105.41362521480622L80.63118489583333,113.97153197696704L81.83463541666667,122.07557765127076L83.0380859375,125.0262756364794L84.24153645833334,129.22386205779435L85.44498697916667,128.27097344032615L86.6484375,130.5936704899837L87.85188802083333,123.0249563041775L89.05533854166667,120.81859538933097L90.2587890625,114.79852933156387L91.46223958333333,118.4614979938753L92.66569010416667,117.05944495177759L93.869140625,116.39635447011278L95.07259114583333,121.84150333491542L96.27604166666666,122.06740107588519L97.4794921875,118.56383407862502L98.68294270833333,119.16252064437582L99.88639322916667,129.11603453475792L101.08984375,127.81595142792796L102.29329427083334,119.45302463120895L103.49674479166667,126.1914578279655L104.7001953125,125.63093330149655L105.90364583333333,120.35419725468638L107.10709635416667,131.2076327078991L108.310546875,140.39771054109653L109.51399739583333,120.90303634834716L110.71744791666667,126.87397830505628L111.9208984375,131.47860219251785L113.12434895833333,131.00366335494326L114.32779947916666,138.58345880617503L115.53125,132.6003039914954L116.73470052083333,124.70872187129189L117.93815104166667,134.27321772761064L119.1416015625,130.43510944716286L120.34505208333334,138.89847875757306L121.54850260416667,141.41247571661052L122.751953125,140.1100610372661L123.95540364583333,135.3614093397402L125.15885416666667,132.4589364894833L126.3623046875,130.84586764863764L127.56575520833333,130.12855771953843L128.76920572916669,123.27750003680576L129.97265625,117.40898065057391L131.17610677083334,114.83404353312847L132.37955729166666,127.23080468089698L133.5830078125,139.71074015326093L134.78645833333334,141.76147323385948L135.98990885416666,146.21417257986113L137.193359375,150.2094032383063L138.39680989583334,147.13233665800684L139.60026041666666,150.0663170097863L140.8037109375,150.33239059201452L142.00716145833331,152.29860048503622L143.21061197916666,133.9972875106987L144.4140625,133.4594475667868L145.61751302083334,142.7448998404261L146.82096354166666,128.08760098175506L148.0244140625,127.01421948883711L149.22786458333334,126.35623502381908L150.43131510416669,135.10618242292563L151.634765625,142.1031343011198L152.83821614583334,133.77190186668264L154.04166666666666,140.08025833898083L155.2451171875,98.15151151259717L156.44856770833331,96.69633980417238L157.65201822916666,102.58666606321326L158.85546875,111.97020764574047L160.05891927083334,124.71994539633175L161.26236979166666,125.75881291231383L162.4658203125,129.22247367859404L163.66927083333334,121.90990132427527L164.87272135416666,129.74979346475786L166.076171875,134.114541317712L167.27962239583334,136.6281071386878L168.48307291666669,126.69852032435799L169.6865234375,131.91306653602638L170.88997395833334,142.86060767044853L172.09342447916666,135.22110527438065L173.296875,135.95669123221717L174.50032552083331,116.69695259028245L175.70377604166666,124.21672468002778L176.9072265625,127.41590987095917L178.11067708333334,135.19405505209974L179.31412760416666,136.67109866112358L180.517578125,133.019038688957L181.72102864583334,134.85965402115542L182.92447916666666,134.45615919821952L184.1279296875,142.2138898264974L185.33138020833334,141.4111673934227L186.53483072916669,147.87678047317064L187.73828125,146.15444105325815L188.94173177083334,146.3613106623809L190.14518229166666,153.64774644348148L191.3486328125,152.8004402266331L192.55208333333331,150.05724847474022L193.75553385416666,150.2425471839805L194.958984375,136.10502688750623L196.16243489583334,141.48354522863028L197.36588541666666,147.66714484857914L198.5693359375,141.85387033323883L199.77278645833334,145.38921360314154L200.97623697916666,151.93563056552568L202.1796875,153.3994239053974L203.38313802083334,149.535483954063L204.58658854166669,149.39241005522666L205.7900390625,142.24220971073305L206.99348958333334,143.9934246337747L208.19694010416666,147.96590942003343L209.400390625,142.83024654780633L210.60384114583331,140.16899501559024L211.80729166666666,142.31127954767277L213.0107421875,142.47497824457963L214.21419270833334,145.5215699459772L215.41764322916666,148.13472513351803L216.62109375,145.20242190834261L217.82454427083334,149.50256861613022L219.02799479166666,142.73861070970193L220.2314453125,141.93938467085061L221.43489583333334,130.9660817502719L222.63834635416669,136.08856068842303L223.841796875,130.26480505223688L225.04524739583334,142.86743888351688L226.24869791666666,147.66814591225008L227.4521484375,147.10225664696705L228.65559895833331,155.12818167162902L229.85904947916666,152.63583764048198L231.0625,149.42925772316326L232.26595052083334,144.7344709518377L233.46940104166666,153.8702190257802L234.6728515625,138.58616904125776L235.87630208333334,142.42770800892214L237.07975260416666,145.78320681276142L238.283203125,145.0258951546086L239.48665364583334,146.74571157940227L240.69010416666669,142.67249847798348L241.8935546875,144.91244917004585L243.09700520833334,145.6794916253643L244.30045572916666,156.18566127665977L245.50390625,155.23075372486198L246.70735677083331,157.50771515553524L247.91080729166666,158.86032785049278L249.1142578125,155.34612686557293L250.31770833333334,152.68537169648837L251.52115885416666,156.83292983623522L252.724609375,154.8706340459119L253.92805989583334,155.21957152766768L255.13151041666666,157.02798504521124L256.3349609375,154.08014899307292L257.53841145833337,142.53059991963983L258.7418619791667,143.7176671479242L259.9453125,154.520915027505L261.1487630208333,158.61102814915526L262.3522135416667,161.25910987402648L263.5556640625,162.8382887586692L264.7591145833333,165.84059119372003" style="fill: none;" fill="none"></path></g><g><path stroke="rgb(0, 119, 187)" stroke-width="2px" d="M24.069010416666664,11.903712344169612L36.103515625,-225.49788359105594L72.20703125,-37.40848673245375L84.24153645833334,16.961820426632883L96.27604166666666,37.87134243543294L96.27604166666666,50.036043104192004L108.310546875,45.88083544224031L120.34505208333334,12.50100537738169L132.37955729166666,19.71899299419053L144.4140625,49.34567406330312L156.44856770833331,-59.540933257515015L168.48307291666669,-12.167399903458147L180.517578125,21.17941667672987L192.55208333333331,53.32775766682536L204.58658854166669,68.85147844495425L216.62109375,82.4381673707272L228.65559895833331,92.02994233790271L240.69010416666669,89.22607274199903L252.724609375,96.14959723682014L264.7591145833333,94.31498675620554" style="fill: none;" fill="none"></path></g></g></g></g><g opacity="0.2"><g><g><g><path stroke="rgb(255, 112, 67)" stroke-width="2px" d="M25.2724609375,-6.300055432319626L26.475911458333332,22.246088933944698L27.679361979166668,77.24491567611695L28.8828125,55.934894335269924L30.086263020833336,77.2568477511406L31.289713541666668,76.66434795856476L32.4931640625,98.16041893959046L33.696614583333336,63.82209087610244L34.900065104166664,62.17476822137832L36.103515625,102.02474434375763L37.306966145833336,107.61121843457222L38.510416666666664,78.49660195112229L39.7138671875,80.99972130060196L40.917317708333336,107.59578902721405L42.12076822916667,102.2521606206894L43.32421875,104.39365686178208L44.527669270833336,100.77173931598664L45.731119791666664,92.01349074840546L46.9345703125,73.33084691762924L48.13802083333333,84.80361617803574L49.341471354166664,93.00008661746979L50.544921875,78.29390437602997L51.748372395833336,115.51562733650208L52.951822916666664,107.98283241391182L54.1552734375,101.30661488771439L55.358723958333336,109.83504177331925L56.562174479166664,113.4654679119587L57.765625,93.19574732780457L58.969075520833336,100.48927302360535L60.17252604166667,127.42583743929863L61.3759765625,107.73191068768502L62.579427083333336,95.17140777111054L63.782877604166664,84.86952216625214L64.986328125,123.52998856902123L66.18977864583333,120.85912386775017L67.39322916666667,112.83659691810608L68.5966796875,125.93804166913033L69.80013020833333,102.55875481367111L71.00358072916666,144.4305635511875L72.20703125,140.4550620138645L73.41048177083333,131.8512657701969L74.61393229166667,100.1707573056221L75.8173828125,120.92491908073426L77.02083333333333,122.29057196974755L78.22428385416666,94.82085163593293L79.427734375,97.96967453956604L80.63118489583333,126.80839211940766L81.83463541666667,134.2316461622715L83.0380859375,129.45232261419295L84.24153645833334,135.520241689682L85.44498697916667,126.84164051413536L86.6484375,134.0777160644531L87.85188802083333,111.67188502550125L89.05533854166667,117.50905401706696L90.2587890625,105.76843024492264L91.46223958333333,123.95595098733902L92.66569010416667,114.95636538863182L93.869140625,115.40171874761582L95.07259114583333,130.0092266321182L96.27604166666666,122.40624768733979L97.4794921875,113.30848358273506L98.68294270833333,120.06055049300194L99.88639322916667,144.0463053703308L101.08984375,125.86582676768303L102.29329427083334,106.90863443613053L103.49674479166667,136.29910762310027L104.7001953125,124.79014651179314L105.90364583333333,112.43909318447113L107.10709635416667,147.4877858877182L108.310546875,154.1828272908926L109.51399739583333,91.66102505922318L110.71744791666667,135.83039124011992L111.9208984375,138.38553802371024L113.12434895833333,130.2912550985813L114.32779947916666,149.95315198302268L115.53125,123.62557176947594L116.73470052083333,112.87134869098664L117.93815104166667,148.61996151208876L119.1416015625,124.67794702649117L120.34505208333334,151.5935327231884L121.54850260416667,145.18347115516661L122.751953125,138.1564390182495L123.95540364583333,128.2384317934513L125.15885416666667,128.10522721409797L126.3623046875,128.42626438736914L127.56575520833333,129.05259282588958L128.76920572916669,113.00091351270676L129.97265625,108.60620157122612L131.17610677083334,110.9716378569603L132.37955729166666,145.82594640254973L133.5830078125,158.43064336180686L134.78645833333334,144.8375728547573L135.98990885416666,152.8932215988636L137.193359375,156.20224922597407L138.39680989583334,142.5167367875576L139.60026041666666,154.46728753745555L140.8037109375,150.73150096535682L142.00716145833331,155.24791532456874L143.21061197916666,106.54531804919243L144.4140625,132.65268765091895L145.61751302083334,156.673078250885L146.82096354166666,106.10165269374848L148.0244140625,125.40414724946022L149.22786458333334,125.36925832629204L150.43131510416669,148.23110352158545L151.634765625,152.59856211841105L152.83821614583334,121.27505321502686L154.04166666666666,149.54279304742812L155.2451171875,35.258391273021694L156.44856770833331,94.51358224153519L157.65201822916666,111.4221554517746L158.85546875,126.04552001953125L160.05891927083334,143.8445520222187L161.26236979166666,127.31711418628693L162.4658203125,134.41796482801436L163.66927083333334,110.94104279279709L164.87272135416666,141.50963167548178L166.076171875,140.66166309714316L167.27962239583334,140.3984558701515L168.48307291666669,111.80414010286331L169.6865234375,139.73488585352897L170.88997395833334,159.28191937208175L172.09342447916666,123.76185168027878L173.296875,137.060070168972L174.50032552083331,87.80734462738037L175.70377604166666,135.49638281464576L176.9072265625,132.21468765735625L178.11067708333334,146.86127282381057L179.31412760416666,138.88666407465934L180.517578125,127.54094873070717L181.72102864583334,137.62057701945304L182.92447916666666,133.85091696381568L184.1279296875,153.8504857689142L185.33138020833334,140.20708374381064L186.53483072916669,157.5752000927925L187.73828125,143.57093192338942L188.94173177083334,146.67161507606505L190.14518229166666,164.57740011513232L191.3486328125,151.5294809013605L192.55208333333331,145.94246084690093L193.75553385416666,150.52049524784087L194.958984375,114.8987464427948L196.16243489583334,149.55132274031638L197.36588541666666,156.94254427850245L198.5693359375,133.13395856022834L199.77278645833334,150.6922285079956L200.97623697916666,161.75525600910186L202.1796875,155.595113915205L203.38313802083334,143.73957402706145L204.58658854166669,149.1777992069721L205.7900390625,131.5169091939926L206.99348958333334,146.62024701833724L208.19694010416666,153.9246365994215L209.400390625,135.1267522394657L210.60384114583331,136.17711771726607L211.80729166666666,145.52470634579657L213.0107421875,142.72052628993987L214.21419270833334,150.09145749807357L215.41764322916666,152.05445791482924L216.62109375,140.80396707057952L217.82454427083334,155.9527886778116L219.02799479166666,132.5926738500595L220.2314453125,140.7405456125736L221.43489583333334,114.50612736940384L222.63834635416669,143.7722790956497L223.841796875,121.52917159795761L225.04524739583334,161.7713896304369L226.24869791666666,154.8692064553499L227.4521484375,146.2534227490425L228.65559895833331,167.16706920862197L229.85904947916666,148.89732159376143L231.0625,144.61938784718512L232.26595052083334,137.69229079484938L233.46940104166666,167.57384113669394L234.6728515625,115.66009406447411L235.87630208333334,148.1900164604187L237.07975260416666,150.81645501852034L238.283203125,143.88992766737937L239.48665364583334,149.32543621659278L240.69010416666669,136.56267882585524L241.8935546875,148.2723752081394L243.09700520833334,146.83005530834197L244.30045572916666,171.94491575360297L245.50390625,153.7983923971653L246.70735677083331,160.92315730154513L247.91080729166666,160.88924689292907L249.1142578125,150.07482538819312L250.31770833333334,148.69423894286155L251.52115885416666,163.0542670458555L252.724609375,151.9271903604269L253.92805989583334,155.74297775030135L255.13151041666666,159.74060532152652L256.3349609375,149.65839491486548L257.53841145833337,125.2062763094902L258.7418619791667,145.4982679903507L259.9453125,170.72578684687613L261.1487630208333,164.7461978316307L262.3522135416667,165.23123246133326L263.5556640625,165.20705708563327L264.7591145833333,170.3440448462963" style="fill: none;" fill="none"></path></g><g><path stroke="rgb(0, 119, 187)" stroke-width="2px" d="M24.069010416666664,11.903712344169612L36.103515625,-367.9388411521912L60.17252604166667,-129.37733094692229L72.20703125,69.74530584812165L84.24153645833334,92.17552853822708L96.27604166666666,67.77229346036911L96.27604166666666,67.77229346036911L108.310546875,39.75271124839782L120.34505208333334,-37.06415205001829L132.37955729166666,30.480507802963253L144.4140625,93.62446857690811L156.44856770833331,-222.51531057357786L168.48307291666669,58.80009044408798L180.517578125,71.1604436159134L192.55208333333331,101.52759565114975L204.58658854166669,92.13049049377442L216.62109375,102.81475110054016L228.65559895833331,106.41614357829094L240.69010416666669,85.02052463293076L252.724609375,106.53450427651406L264.7591145833333,91.56313140392304" style="fill: none;" fill="none"></path></g></g></g></g></g></g><g transform="translate(41, 177)" clip-path="url(#clip_1)"><clipPath id="clip_1"><rect width="288" height="22"></rect></clipPath><g><g><line x1="0" y1="0" x2="0" y2="5" style="visibility: inherit;" fill="rgb(0, 0, 0)" stroke="rgb(204, 204, 204)" stroke-width="1px"></line><line x1="24.069010416666664" y1="0" x2="24.069010416666664" y2="5" style="visibility: inherit;" fill="rgb(0, 0, 0)" stroke="rgb(204, 204, 204)" stroke-width="1px"></line><line x1="48.13802083333333" y1="0" x2="48.13802083333333" y2="5" style="visibility: inherit;" fill="rgb(0, 0, 0)" stroke="rgb(204, 204, 204)" stroke-width="1px"></line><line x1="72.20703125" y1="0" x2="72.20703125" y2="5" style="visibility: inherit;" fill="rgb(0, 0, 0)" stroke="rgb(204, 204, 204)" stroke-width="1px"></line><line x1="96.27604166666666" y1="0" x2="96.27604166666666" y2="5" style="visibility: inherit;" fill="rgb(0, 0, 0)" stroke="rgb(204, 204, 204)" stroke-width="1px"></line><line x1="120.34505208333334" y1="0" x2="120.34505208333334" y2="5" style="visibility: inherit;" fill="rgb(0, 0, 0)" stroke="rgb(204, 204, 204)" stroke-width="1px"></line><line x1="144.4140625" y1="0" x2="144.4140625" y2="5" style="visibility: inherit;" fill="rgb(0, 0, 0)" stroke="rgb(204, 204, 204)" stroke-width="1px"></line><line x1="168.48307291666669" y1="0" x2="168.48307291666669" y2="5" style="visibility: inherit;" fill="rgb(0, 0, 0)" stroke="rgb(204, 204, 204)" stroke-width="1px"></line><line x1="192.55208333333331" y1="0" x2="192.55208333333331" y2="5" style="visibility: inherit;" fill="rgb(0, 0, 0)" stroke="rgb(204, 204, 204)" stroke-width="1px"></line><line x1="216.62109375" y1="0" x2="216.62109375" y2="5" style="visibility: inherit;" fill="rgb(0, 0, 0)" stroke="rgb(204, 204, 204)" stroke-width="1px"></line><line x1="240.69010416666669" y1="0" x2="240.69010416666669" y2="5" style="visibility: inherit;" fill="rgb(0, 0, 0)" stroke="rgb(204, 204, 204)" stroke-width="1px"></line><line x1="264.7591145833333" y1="0" x2="264.7591145833333" y2="5" style="visibility: inherit;" fill="rgb(0, 0, 0)" stroke="rgb(204, 204, 204)" stroke-width="1px"></line><line x1="288.828125" y1="0" x2="288.828125" y2="5" style="visibility: inherit;" fill="rgb(0, 0, 0)" stroke="rgb(204, 204, 204)" stroke-width="1px"></line></g><g transform="translate(0, 8)"><text x="0" y="0" dx="0em" dy="0.95em" style="text-anchor: middle; visibility: hidden; font-family: Roboto, sans-serif; font-size: 12px; font-weight: 200;" fill="rgb(255, 255, 255)" stroke="none" stroke-width="1px">-2k</text><text x="24.069010416666664" y="0" dx="0em" dy="0.95em" style="text-anchor: middle; visibility: inherit; font-family: Roboto, sans-serif; font-size: 12px; font-weight: 200;" fill="rgb(255, 255, 255)" stroke="none" stroke-width="1px">0</text><text x="48.13802083333333" y="0" dx="0em" dy="0.95em" style="text-anchor: middle; visibility: hidden; font-family: Roboto, sans-serif; font-size: 12px; font-weight: 200;" fill="rgb(255, 255, 255)" stroke="none" stroke-width="1px">2k</text><text x="72.20703125" y="0" dx="0em" dy="0.95em" style="text-anchor: middle; visibility: inherit; font-family: Roboto, sans-serif; font-size: 12px; font-weight: 200;" fill="rgb(255, 255, 255)" stroke="none" stroke-width="1px">4k</text><text x="96.27604166666666" y="0" dx="0em" dy="0.95em" style="text-anchor: middle; visibility: hidden; font-family: Roboto, sans-serif; font-size: 12px; font-weight: 200;" fill="rgb(255, 255, 255)" stroke="none" stroke-width="1px">6k</text><text x="120.34505208333334" y="0" dx="0em" dy="0.95em" style="text-anchor: middle; visibility: inherit; font-family: Roboto, sans-serif; font-size: 12px; font-weight: 200;" fill="rgb(255, 255, 255)" stroke="none" stroke-width="1px">8k</text><text x="144.4140625" y="0" dx="0em" dy="0.95em" style="text-anchor: middle; visibility: hidden; font-family: Roboto, sans-serif; font-size: 12px; font-weight: 200;" fill="rgb(255, 255, 255)" stroke="none" stroke-width="1px">10k</text><text x="168.48307291666669" y="0" dx="0em" dy="0.95em" style="text-anchor: middle; visibility: inherit; font-family: Roboto, sans-serif; font-size: 12px; font-weight: 200;" fill="rgb(255, 255, 255)" stroke="none" stroke-width="1px">12k</text><text x="192.55208333333331" y="0" dx="0em" dy="0.95em" style="text-anchor: middle; visibility: hidden; font-family: Roboto, sans-serif; font-size: 12px; font-weight: 200;" fill="rgb(255, 255, 255)" stroke="none" stroke-width="1px">14k</text><text x="216.62109375" y="0" dx="0em" dy="0.95em" style="text-anchor: middle; visibility: inherit; font-family: Roboto, sans-serif; font-size: 12px; font-weight: 200;" fill="rgb(255, 255, 255)" stroke="none" stroke-width="1px">16k</text><text x="240.69010416666669" y="0" dx="0em" dy="0.95em" style="text-anchor: middle; visibility: hidden; font-family: Roboto, sans-serif; font-size: 12px; font-weight: 200;" fill="rgb(255, 255, 255)" stroke="none" stroke-width="1px">18k</text><text x="264.7591145833333" y="0" dx="0em" dy="0.95em" style="text-anchor: middle; visibility: inherit; font-family: Roboto, sans-serif; font-size: 12px; font-weight: 200;" fill="rgb(255, 255, 255)" stroke="none" stroke-width="1px">20k</text><text x="288.828125" y="0" dx="0em" dy="0.95em" style="text-anchor: middle; visibility: hidden; font-family: Roboto, sans-serif; font-size: 12px; font-weight: 200;" fill="rgb(255, 255, 255)" stroke="none" stroke-width="1px">22k</text></g><line x1="0" y1="0" x2="288.828125" y2="0" fill="rgb(0, 0, 0)" stroke="rgb(204, 204, 204)" stroke-width="1px"></line></g></g></g></g></svg>