<svg viewBox="0 0 330 200" xmlns="http://www.w3.org/2000/svg"><g><g><g><g><g><line x1="61.953125" y1="177" x2="56.953125" y2="177" style="visibility: inherit;" fill="rgb(0, 0, 0)" stroke="rgb(204, 204, 204)" stroke-width="1px"></line><line x1="61.953125" y1="160.9090909090909" x2="56.953125" y2="160.9090909090909" style="visibility: inherit;" fill="rgb(0, 0, 0)" stroke="rgb(204, 204, 204)" stroke-width="1px"></line><line x1="61.953125" y1="144.8181818181818" x2="56.953125" y2="144.8181818181818" style="visibility: inherit;" fill="rgb(0, 0, 0)" stroke="rgb(204, 204, 204)" stroke-width="1px"></line><line x1="61.953125" y1="128.72727272727272" x2="56.953125" y2="128.72727272727272" style="visibility: inherit;" fill="rgb(0, 0, 0)" stroke="rgb(204, 204, 204)" stroke-width="1px"></line><line x1="61.953125" y1="112.63636363636364" x2="56.953125" y2="112.63636363636364" style="visibility: inherit;" fill="rgb(0, 0, 0)" stroke="rgb(204, 204, 204)" stroke-width="1px"></line><line x1="61.953125" y1="96.54545454545453" x2="56.953125" y2="96.54545454545453" style="visibility: inherit;" fill="rgb(0, 0, 0)" stroke="rgb(204, 204, 204)" stroke-width="1px"></line><line x1="61.953125" y1="80.45454545454547" x2="56.953125" y2="80.45454545454547" style="visibility: inherit;" fill="rgb(0, 0, 0)" stroke="rgb(204, 204, 204)" stroke-width="1px"></line><line x1="61.953125" y1="64.36363636363635" x2="56.953125" y2="64.36363636363635" style="visibility: inherit;" fill="rgb(0, 0, 0)" stroke="rgb(204, 204, 204)" stroke-width="1px"></line><line x1="61.953125" y1="48.272727272727266" x2="56.953125" y2="48.272727272727266" style="visibility: inherit;" fill="rgb(0, 0, 0)" stroke="rgb(204, 204, 204)" stroke-width="1px"></line><line x1="61.953125" y1="32.18181818181815" x2="56.953125" y2="32.18181818181815" style="visibility: inherit;" fill="rgb(0, 0, 0)" stroke="rgb(204, 204, 204)" stroke-width="1px"></line><line x1="61.953125" y1="16.090909090909115" x2="56.953125" y2="16.090909090909115" style="visibility: inherit;" fill="rgb(0, 0, 0)" stroke="rgb(204, 204, 204)" stroke-width="1px"></line><line x1="61.953125" y1="0" x2="56.953125" y2="0" style="visibility: inherit;" fill="rgb(0, 0, 0)" stroke="rgb(204, 204, 204)" stroke-width="1px"></line></g><g transform="translate(51.953125, 0)"><text x="0" y="177" dx="0em" dy="0.3em" style="text-anchor: end; visibility: hidden; font-family: Roboto, sans-serif; font-size: 12px; font-weight: 200;" fill="rgb(255, 255, 255)" stroke="none" stroke-width="1px">3e-3</text><text x="0" y="160.9090909090909" dx="0em" dy="0.3em" style="text-anchor: end; visibility: inherit; font-family: Roboto, sans-serif; font-size: 12px; font-weight: 200;" fill="rgb(255, 255, 255)" stroke="none" stroke-width="1px">4e-3</text><text x="0" y="144.8181818181818" dx="0em" dy="0.3em" style="text-anchor: end; visibility: hidden; font-family: Roboto, sans-serif; font-size: 12px; font-weight: 200;" fill="rgb(255, 255, 255)" stroke="none" stroke-width="1px">5e-3</text><text x="0" y="128.72727272727272" dx="0em" dy="0.3em" style="text-anchor: end; visibility: inherit; font-family: Roboto, sans-serif; font-size: 12px; font-weight: 200;" fill="rgb(255, 255, 255)" stroke="none" stroke-width="1px">6e-3</text><text x="0" y="112.63636363636364" dx="0em" dy="0.3em" style="text-anchor: end; visibility: hidden; font-family: Roboto, sans-serif; font-size: 12px; font-weight: 200;" fill="rgb(255, 255, 255)" stroke="none" stroke-width="1px">7e-3</text><text x="0" y="96.54545454545453" dx="0em" dy="0.3em" style="text-anchor: end; visibility: inherit; font-family: Roboto, sans-serif; font-size: 12px; font-weight: 200;" fill="rgb(255, 255, 255)" stroke="none" stroke-width="1px">8e-3</text><text x="0" y="80.45454545454547" dx="0em" dy="0.3em" style="text-anchor: end; visibility: hidden; font-family: Roboto, sans-serif; font-size: 12px; font-weight: 200;" fill="rgb(255, 255, 255)" stroke="none" stroke-width="1px">9e-3</text><text x="0" y="64.36363636363635" dx="0em" dy="0.3em" style="text-anchor: end; visibility: inherit; font-family: Roboto, sans-serif; font-size: 12px; font-weight: 200;" fill="rgb(255, 255, 255)" stroke="none" stroke-width="1px">0.01</text><text x="0" y="48.272727272727266" dx="0em" dy="0.3em" style="text-anchor: end; visibility: hidden; font-family: Roboto, sans-serif; font-size: 12px; font-weight: 200;" fill="rgb(255, 255, 255)" stroke="none" stroke-width="1px">0.011</text><text x="0" y="32.18181818181815" dx="0em" dy="0.3em" style="text-anchor: end; visibility: inherit; font-family: Roboto, sans-serif; font-size: 12px; font-weight: 200;" fill="rgb(255, 255, 255)" stroke="none" stroke-width="1px">0.012</text><text x="0" y="16.090909090909115" dx="0em" dy="0.3em" style="text-anchor: end; visibility: hidden; font-family: Roboto, sans-serif; font-size: 12px; font-weight: 200;" fill="rgb(255, 255, 255)" stroke="none" stroke-width="1px">0.013</text><text x="0" y="0" dx="0em" dy="0.3em" style="text-anchor: end; visibility: hidden; font-family: Roboto, sans-serif; font-size: 12px; font-weight: 200;" fill="rgb(255, 255, 255)" stroke="none" stroke-width="1px">0.014</text></g><line x1="61.953125" y1="0" x2="61.953125" y2="177" fill="rgb(0, 0, 0)" stroke="rgb(204, 204, 204)" stroke-width="1px"></line></g></g><g transform="translate(61, 0)" clip-path="url(#clip_0)"><clipPath id="clip_0"><rect width="268" height="176"></rect></clipPath><g><g><g><line x1="0" y1="0" x2="0" y2="177" fill="rgb(0, 0, 0)" stroke="rgb(189, 189, 189)" stroke-width="1px" opacity="0.25"></line><line x1="22.337239583333332" y1="0" x2="22.337239583333332" y2="177" fill="rgb(0, 0, 0)" stroke="rgb(189, 189, 189)" stroke-width="1px" opacity="0.25"></line><line x1="44.674479166666664" y1="0" x2="44.674479166666664" y2="177" fill="rgb(0, 0, 0)" stroke="rgb(189, 189, 189)" stroke-width="1px" opacity="0.25"></line><line x1="67.01171875" y1="0" x2="67.01171875" y2="177" fill="rgb(0, 0, 0)" stroke="rgb(189, 189, 189)" stroke-width="1px" opacity="0.25"></line><line x1="89.34895833333333" y1="0" x2="89.34895833333333" y2="177" fill="rgb(0, 0, 0)" stroke="rgb(189, 189, 189)" stroke-width="1px" opacity="0.25"></line><line x1="111.68619791666667" y1="0" x2="111.68619791666667" y2="177" fill="rgb(0, 0, 0)" stroke="rgb(189, 189, 189)" stroke-width="1px" opacity="0.25"></line><line x1="134.0234375" y1="0" x2="134.0234375" y2="177" fill="rgb(0, 0, 0)" stroke="rgb(189, 189, 189)" stroke-width="1px" opacity="0.25"></line><line x1="156.36067708333334" y1="0" x2="156.36067708333334" y2="177" fill="rgb(0, 0, 0)" stroke="rgb(189, 189, 189)" stroke-width="1px" opacity="0.25"></line><line x1="178.69791666666666" y1="0" x2="178.69791666666666" y2="177" fill="rgb(0, 0, 0)" stroke="rgb(189, 189, 189)" stroke-width="1px" opacity="0.25"></line><line x1="201.03515625" y1="0" x2="201.03515625" y2="177" fill="rgb(0, 0, 0)" stroke="rgb(189, 189, 189)" stroke-width="1px" opacity="0.25"></line><line x1="223.37239583333334" y1="0" x2="223.37239583333334" y2="177" fill="rgb(0, 0, 0)" stroke="rgb(189, 189, 189)" stroke-width="1px" opacity="0.25"></line><line x1="245.70963541666666" y1="0" x2="245.70963541666666" y2="177" fill="rgb(0, 0, 0)" stroke="rgb(189, 189, 189)" stroke-width="1px" opacity="0.25"></line><line x1="268.046875" y1="0" x2="268.046875" y2="177" fill="rgb(0, 0, 0)" stroke="rgb(189, 189, 189)" stroke-width="1px" opacity="0.25"></line></g><g><line x1="0" y1="177" x2="268.046875" y2="177" fill="rgb(0, 0, 0)" stroke="rgb(189, 189, 189)" stroke-width="1px" opacity="0.25"></line><line x1="0" y1="160.9090909090909" x2="268.046875" y2="160.9090909090909" fill="rgb(0, 0, 0)" stroke="rgb(189, 189, 189)" stroke-width="1px" opacity="0.25"></line><line x1="0" y1="144.8181818181818" x2="268.046875" y2="144.8181818181818" fill="rgb(0, 0, 0)" stroke="rgb(189, 189, 189)" stroke-width="1px" opacity="0.25"></line><line x1="0" y1="128.72727272727272" x2="268.046875" y2="128.72727272727272" fill="rgb(0, 0, 0)" stroke="rgb(189, 189, 189)" stroke-width="1px" opacity="0.25"></line><line x1="0" y1="112.63636363636364" x2="268.046875" y2="112.63636363636364" fill="rgb(0, 0, 0)" stroke="rgb(189, 189, 189)" stroke-width="1px" opacity="0.25"></line><line x1="0" y1="96.54545454545453" x2="268.046875" y2="96.54545454545453" fill="rgb(0, 0, 0)" stroke="rgb(189, 189, 189)" stroke-width="1px" opacity="0.25"></line><line x1="0" y1="80.45454545454547" x2="268.046875" y2="80.45454545454547" fill="rgb(0, 0, 0)" stroke="rgb(189, 189, 189)" stroke-width="1px" opacity="0.25"></line><line x1="0" y1="64.36363636363635" x2="268.046875" y2="64.36363636363635" fill="rgb(0, 0, 0)" stroke="rgb(189, 189, 189)" stroke-width="1px" opacity="0.25"></line><line x1="0" y1="48.272727272727266" x2="268.046875" y2="48.272727272727266" fill="rgb(0, 0, 0)" stroke="rgb(189, 189, 189)" stroke-width="1px" opacity="0.25"></line><line x1="0" y1="32.18181818181815" x2="268.046875" y2="32.18181818181815" fill="rgb(0, 0, 0)" stroke="rgb(189, 189, 189)" stroke-width="1px" opacity="0.25"></line><line x1="0" y1="16.090909090909115" x2="268.046875" y2="16.090909090909115" fill="rgb(0, 0, 0)" stroke="rgb(189, 189, 189)" stroke-width="1px" opacity="0.25"></line><line x1="0" y1="0" x2="268.046875" y2="0" fill="rgb(0, 0, 0)" stroke="rgb(189, 189, 189)" stroke-width="1px" opacity="0.25"></line></g></g></g><g><g><line x1="0" y1="225.27272727272728" x2="268.046875" y2="225.27272727272728" fill="rgb(0, 0, 0)" stroke="rgb(153, 153, 153)" stroke-width="1.5px"></line></g></g><g><g><line x1="22.337239583333332" y1="0" x2="22.337239583333332" y2="177" fill="rgb(0, 0, 0)" stroke="rgb(153, 153, 153)" stroke-width="1.5px"></line></g></g><g><g><g><g><g><path stroke="rgb(255, 112, 67)" stroke-width="2px" d="M29.038411458333336,-26.12117055048034L30.1552734375,1.687826033783565L31.272135416666668,-20.243197375885522L32.388997395833336,-33.805094588831366L33.505859375,9.0044550585012L34.62272135416667,36.811824206548984L35.739583333333336,10.199987223942175L36.8564453125,11.651985771685316L37.973307291666664,29.54615479151326L39.090169270833336,38.498592918505516L40.20703125,28.03277159482009L41.32389322916667,57.05549362981203L42.44075520833333,63.59937511703356L43.5576171875,72.54834236295682L44.674479166666664,76.20302233697477L45.791341145833336,47.20820018138611L46.908203125,52.995057334779396L48.025065104166664,79.47881805331113L49.14192708333333,84.00779874926378L50.2587890625,78.93469125266608L51.37565104166667,92.0458336869179L52.492513020833336,96.78755211304234L53.609375,76.52445678541216L54.726236979166664,97.78694998328295L55.843098958333336,110.74354262802585L56.9599609375,91.2631050979489L58.07682291666667,59.35966349706026L59.19368489583333,66.70292844791136L60.310546875,65.42939051810673L61.427408854166664,82.38352972089562L62.544270833333336,91.47835525931784L63.6611328125,66.61134571740375L64.77799479166667,80.04419877667523L65.89485677083333,91.42832146584409L67.01171875,102.82016007553275L68.12858072916666,89.22000223388858L69.24544270833334,73.4975317862539L70.3623046875,86.3445693232827L71.47916666666667,97.9139920436807L72.59602864583333,57.606136749684325L73.712890625,56.037452058287585L74.82975260416667,77.72942549988322L75.94661458333333,107.2034982722038L77.0634765625,97.96094962612278L78.18033854166667,105.51054548665769L79.29720052083333,107.66789075483683L80.4140625,123.74919394069597L81.53092447916666,114.87340480117466L82.64778645833334,99.08862139950159L83.7646484375,81.80608338515846L84.88151041666666,109.78206062448524L85.99837239583334,90.35440230095895L87.115234375,110.05427136230175L88.23209635416667,89.09423104241847L89.34895833333333,104.27587253476834L90.4658203125,77.85716638829533L91.58268229166667,82.26950806597611L92.69954427083333,104.56956022512783L93.81640625,97.18681229561594L94.93326822916667,60.63611060625314L96.05013020833333,101.4253568298877L97.1669921875,94.64549354433942L98.28385416666666,87.15492660534338L99.40071614583334,95.52663214588792L100.517578125,124.16202264573408L101.63444010416666,90.89171740413174L102.75130208333334,85.4528385807195L103.8681640625,91.55846442932595L104.98502604166667,102.63147114539788L106.10188802083333,118.49048871970778L107.21875,114.44006040242186L108.33561197916667,111.92436621582813L109.45247395833333,124.56758259464904L110.5693359375,108.20140456233547L111.68619791666667,127.62164453298686L112.80305989583333,128.03725666915244L113.919921875,140.86154898744473L115.03678385416666,129.01940458547426L116.15364583333334,112.50425049708369L117.2705078125,92.70717378448734L118.38736979166666,102.90883528395358L119.50423177083334,122.40701147371666L120.62109375,102.97815183617607L121.73795572916667,94.59360876950204L122.85481770833333,117.9677684938357L123.9716796875,131.84145296102167L125.08854166666667,127.41655833888565L126.20540364583333,143.08649448470834L127.322265625,160.62417766605301L128.43912760416669,144.93876728534661L129.55598958333334,132.40301811224742L130.6728515625,148.7178465162715L131.78971354166666,157.33588441995062L132.90657552083334,121.45402048509773L134.0234375,97.16114999288645L135.14029947916666,134.00165586730438L136.25716145833331,125.56201188424313L137.3740234375,129.08105213046068L138.49088541666669,96.24928943086752L139.60774739583334,104.65730403781475L140.724609375,126.77975431281108L141.84147135416666,109.63038343146474L142.95833333333334,138.9215336689924L144.0751953125,61.75776542666457L145.19205729166666,35.90555525794456L146.30891927083331,56.48747931080683L147.42578125,94.018796255634L148.54264322916669,110.39199772449533L149.65950520833334,116.64753846604403L150.7763671875,105.39564137137289L151.89322916666666,87.98202734440018L153.01009114583331,112.3438997008551L154.126953125,100.36936565702416L155.24381510416669,115.9110473237893L156.36067708333334,109.81591020669218L157.4775390625,118.2030538913079L158.59440104166666,146.23612219527985L159.71126302083334,155.69040828478168L160.828125,145.4379807952318L161.94498697916666,46.68845560429318L163.06184895833331,47.743608067553694L164.1787109375,61.96442071179564L165.29557291666669,94.55398887809308L166.41243489583334,103.08951145766979L167.529296875,91.09904278378424L168.64615885416666,108.3897384685105L169.76302083333331,121.76557423350533L170.8798828125,136.92628643753883L171.99674479166669,136.51106257656505L173.11360677083334,152.91061096637748L174.23046875,129.91637981357485L175.34733072916666,136.6791577753129L176.46419270833334,157.82220774135115L177.5810546875,153.39387874719898L178.69791666666666,139.22818291097417L179.81477864583331,148.33589514697402L180.931640625,151.41340914431103L182.04850260416669,161.01893730905476L183.16536458333334,149.89985404402833L184.2822265625,128.4152049367531L185.39908854166666,135.52451801269672L186.51595052083331,157.59536471179325L187.6328125,145.579820492226L188.74967447916669,165.48977316035814L189.86653645833334,159.9409270523645L190.9833984375,146.68123422942503L192.10026041666666,151.68658827432253L193.21712239583334,147.29992680851484L194.333984375,136.27889700905436L195.45084635416666,123.16057201986176L196.56770833333331,114.8643182225722L197.6845703125,110.32515314240173L198.80143229166669,128.2395234550715L199.91829427083334,139.31752212888807L201.03515625,137.69413501187614L202.15201822916666,145.17059853202048L203.26888020833331,138.9363354120934L204.3857421875,134.3527828176841L205.50260416666669,76.21647374288749L206.61946614583334,96.03822243851512L207.736328125,112.12598143304639L208.85319010416666,147.0232198075884L209.97005208333334,155.55557002500115L211.0869140625,150.5077065388612L212.20377604166666,163.63578836064596L213.32063802083331,168.66475339171652L214.4375,149.3193674009285L215.55436197916669,141.11167662907005L216.67122395833334,164.82706636258254L217.7880859375,117.89491469223455L218.90494791666666,123.42824028684373L220.02180989583331,110.92977823657904L221.138671875,100.38517936374612L222.25553385416669,116.35619151828752L223.37239583333334,126.78660398389465L224.4892578125,101.15994219445165L225.60611979166666,103.60558498168137L226.72298177083334,140.56913151613995L227.83984375,158.38208438028985L228.95670572916666,163.7141853215456L230.07356770833331,170.44643549730162L231.1904296875,168.63828598156982L232.30729166666669,153.3493485079026L233.42415364583334,153.6533736125121L234.541015625,149.42687148866537L235.65787760416666,156.38735084015798L236.77473958333331,166.1856133663196L237.8916015625,160.29361747467476L239.00846354166669,151.67596476384378L240.12532552083334,138.44199122702105L241.2421875,165.00392291403105L242.35904947916666,176.38321311332646L243.47591145833334,179.5965549586234L244.5927734375,164.64426690918853L245.70963541666666,170.76915152027343" style="fill: none;" fill="none"></path></g><g><path stroke="rgb(0, 119, 187)" stroke-width="2px" d="M33.505859375,-12.694712580351L44.674479166666664,14.629282946668996L55.843098958333336,48.43503994316382L67.01171875,74.3843581925625L78.18033854166667,86.3367982039756L89.34895833333333,91.6085081977878L89.34895833333333,94.67547328958865L100.517578125,94.05596758539684L111.68619791666667,101.87002171242261L122.85481770833333,105.95525250851732L134.0234375,104.85495333132961L145.19205729166666,80.75369634109555L156.36067708333334,89.53739575110967L167.529296875,102.84762082041887L178.69791666666666,110.5805247734834L189.86653645833334,113.16949673913018L201.03515625,112.67277970277728L212.20377604166666,112.12387976043837L223.37239583333334,117.85824926714147L234.541015625,115.70374250145365L245.70963541666666,114.03556388430476" style="fill: none;" fill="none"></path></g></g></g></g><g opacity="0.2"><g><g><g><path stroke="rgb(255, 112, 67)" stroke-width="2px" d="M26.8046875,-17.142818828198067L27.921549479166668,20.269717586988723L29.038411458333336,-42.56173342872752L30.1552734375,41.45513609322632L31.272135416666668,-52.218840045007816L32.388997395833336,-53.80625871501189L33.505859375,72.57164708863606L34.62272135416667,78.27066713707012L35.739583333333336,-29.572947808287402L36.8564453125,13.825242566114094L37.973307291666664,56.35235178131949L39.090169270833336,51.91672685403716L40.20703125,12.341420917348401L41.32389322916667,100.5772952389988L42.44075520833333,73.41353585706514L43.5576171875,85.97042994675311L44.674479166666664,81.68470824577592L45.791341145833336,3.7175570929592L46.908203125,61.67515264586967L48.025065104166664,119.2039362554523L49.14192708333333,90.80121614309874L50.2587890625,71.3250660652464L51.37565104166667,111.71249142526224L52.492513020833336,103.9001176194711L53.609375,46.129844902591245L54.726236979166664,129.68067019432783L55.843098958333336,130.1784244342284L56.9599609375,62.04245526275851L58.07682291666667,11.504507443444268L59.19368489583333,77.7178249975497L60.310546875,63.51908371462063L61.427408854166664,107.81473779644479L62.544270833333336,105.12059333243154L63.6611328125,29.31083178926596L64.77799479166667,100.19347824088551L65.89485677083333,108.50450543619014L67.01171875,119.90791795199567L68.12858072916666,68.81976549869233L69.24544270833334,49.913826133717166L70.3623046875,105.61512561955236L71.47916666666667,115.26812611926685L72.59602864583333,-2.8556461808356515L73.712890625,53.68442502143708L74.82975260416667,110.26738566024736L75.94661458333333,151.41460742903027L77.0634765625,84.09712665731256L78.18033854166667,116.83493927730754L79.29720052083333,110.9039086570794L80.4140625,147.87114871936765L81.53092447916666,101.55972109193152L82.64778645833334,75.41144629703325L83.7646484375,55.882276363670826L84.88151041666666,151.74602648344907L85.99837239583334,61.21291481568054L87.115234375,139.60407495430925L88.23209635416667,57.65417056259783L89.34895833333333,127.04833477329124L90.4658203125,38.22910716858776L91.58268229166667,88.88802058249712L92.69954427083333,138.0196384638548L93.81640625,86.1126904013482L94.93326822916667,5.810058072209339L96.05013020833333,162.60922616533935L97.1669921875,84.475698616017L98.28385416666666,75.91907619684935L99.40071614583334,108.08419045670465L100.517578125,167.1151083955033L101.63444010416666,40.98625954172826L102.75130208333334,77.29452034560116L103.8681640625,100.7169032022357L104.98502604166667,119.24098121950573L106.10188802083333,142.27901508117264L107.21875,108.364417926493L108.33561197916667,108.15082493593746L109.45247395833333,143.53240716288036L110.5693359375,83.65213751386513L111.68619791666667,156.75200448896396L112.80305989583333,128.6606748734008L113.919921875,160.09798746488312L115.03678385416666,111.25618798251857L116.15364583333334,87.73151936449788L117.2705078125,63.011558715592734L118.38736979166666,118.21132753315297L119.50423177083334,151.65427575836128L120.62109375,73.8348623798652L121.73795572916667,82.01679416949098L122.85481770833333,153.02900808033618L123.9716796875,152.65197966180065L125.08854166666667,120.7792164056816L126.20540364583333,166.59139870344237L127.322265625,186.93070243807003L128.43912760416669,121.41065171428703L129.55598958333334,113.59939435259864L130.6728515625,173.19008912230757L131.78971354166666,170.26294127546927L132.90657552083334,67.63122458281842L134.0234375,60.72184425456957L135.14029947916666,189.26241467893124L136.25716145833331,112.9025459096513L137.3740234375,134.35961249978706L138.49088541666669,47.00164538147772L139.60774739583334,117.26932594823566L140.724609375,159.9634297253056L141.84147135416666,83.90632710944523L142.95833333333334,182.85825902528384L145.19205729166666,-2.872759995135419L146.30891927083331,87.36036539010026L147.42578125,150.3157716728747L148.54264322916669,134.95179992778733L149.65950520833334,126.03084957836703L150.7763671875,88.51779572936621L151.89322916666666,61.86160630394112L153.01009114583331,148.88670823553747L154.126953125,82.40756459127773L155.24381510416669,139.22356982393697L156.36067708333334,100.67320453104647L157.4775390625,130.78376941823146L158.59440104166666,188.28572465123779L159.71126302083334,169.8718374190344L160.828125,130.059339560907L161.94498697916666,-101.43583218211478L163.06184895833331,49.32633676244451L164.1787109375,83.29563967815854L165.29557291666669,143.43834112753922L166.41243489583334,115.89279532703486L167.529296875,73.11333977295592L168.64615885416666,134.32578199559993L169.76302083333331,141.82932788099754L170.8798828125,159.66735474358904L171.99674479166669,135.8882267851044L173.11360677083334,177.5099335510961L174.23046875,95.42503308437087L175.34733072916666,146.82332471791995L176.46419270833334,189.53678269040853L177.5810546875,146.75138525597075L178.69791666666666,117.97963915663686L179.81477864583331,161.99746350097385L180.931640625,156.0296801403165L182.04850260416669,175.42722955617037L183.16536458333334,133.2212291464887L184.2822265625,96.18823127584025L185.39908854166666,146.1884876266122L186.51595052083331,190.70163476043805L187.6328125,127.55650416287509L188.74967447916669,195.35470216255635L189.86653645833334,151.617657890374L190.9833984375,126.79169499501586L192.10026041666666,159.19461934166875L193.21712239583334,140.7199346098033L194.333984375,119.74735230986367L195.45084635416666,103.48308453607288L196.56770833333331,102.41993752663785L197.6845703125,103.516405522146L198.80143229166669,155.1110789240761L199.91829427083334,155.93452013961294L201.03515625,135.2590543363582L202.15201822916666,156.385293812237L203.26888020833331,129.58494073220274L204.3857421875,127.47745392607018L205.50260416666669,-10.987989869307409L206.61946614583334,125.77084548195654L207.736328125,136.2576199248433L208.85319010416666,199.3690773694014L209.97005208333334,168.3540953511203L211.0869140625,142.93591130965135L212.20377604166666,183.32791109332308L213.32063802083331,176.20820093832234L214.4375,120.30128841474652L215.55436197916669,128.8001404712823L216.67122395833334,200.40015096285126L217.7880859375,47.496687186712556L218.90494791666666,131.7282286787575L220.02180989583331,92.182085161182L221.138671875,84.56828105449677L222.25553385416669,140.31270975009963L223.37239583333334,142.43222268230537L224.4892578125,62.71994951028716L225.60611979166666,107.27404916252603L226.72298177083334,196.01445131782782L227.83984375,185.10151367651468L228.95670572916666,171.71233673342928L230.07356770833331,180.5448107609356L231.1904296875,165.92606170797214L232.30729166666669,130.41594229740173L233.42415364583334,154.10941126942635L234.541015625,143.08711830289528L235.65787760416666,166.8280698673969L236.77473958333331,180.88300715556198L237.8916015625,151.45562363720754L239.00846354166669,138.74948569759727L240.12532552083334,118.59103092178702L241.2421875,204.84682044454595L243.47591145833334,184.41656772656873L244.5927734375,142.21583483503625L245.70963541666666,179.95647843690082" style="fill: none;" fill="none"></path></g><g><path stroke="rgb(0, 119, 187)" stroke-width="2px" d="M22.337239583333332,-67.61824577775872L33.505859375,20.25940733809361L44.674479166666664,40.86031865260816L55.843098958333336,88.19061017104171L67.01171875,108.26378809897736L78.18033854166667,102.8713256181641L89.34895833333333,99.14713783629917L89.34895833333333,99.14713783629917L100.517578125,93.14231700450182L111.68619791666667,113.47298140993172L122.85481770833333,112.0460459600118L134.0234375,103.21049234508112L145.19205729166666,44.68050564148208L156.36067708333334,102.69573668458246L167.529296875,122.79731275446035L178.69791666666666,122.17442686009136L189.86653645833334,117.05185912143101L201.03515625,111.92783026464961L212.20377604166666,111.30061346631159L223.37239583333334,126.45927938310936L234.541015625,112.47210051119328L245.70963541666666,111.53335085070945" style="fill: none;" fill="none"></path></g></g></g></g></g></g><g transform="translate(61, 177)" clip-path="url(#clip_1)"><clipPath id="clip_1"><rect width="268" height="22"></rect></clipPath><g><g><line x1="0" y1="0" x2="0" y2="5" style="visibility: inherit;" fill="rgb(0, 0, 0)" stroke="rgb(204, 204, 204)" stroke-width="1px"></line><line x1="22.337239583333332" y1="0" x2="22.337239583333332" y2="5" style="visibility: inherit;" fill="rgb(0, 0, 0)" stroke="rgb(204, 204, 204)" stroke-width="1px"></line><line x1="44.674479166666664" y1="0" x2="44.674479166666664" y2="5" style="visibility: inherit;" fill="rgb(0, 0, 0)" stroke="rgb(204, 204, 204)" stroke-width="1px"></line><line x1="67.01171875" y1="0" x2="67.01171875" y2="5" style="visibility: inherit;" fill="rgb(0, 0, 0)" stroke="rgb(204, 204, 204)" stroke-width="1px"></line><line x1="89.34895833333333" y1="0" x2="89.34895833333333" y2="5" style="visibility: inherit;" fill="rgb(0, 0, 0)" stroke="rgb(204, 204, 204)" stroke-width="1px"></line><line x1="111.68619791666667" y1="0" x2="111.68619791666667" y2="5" style="visibility: inherit;" fill="rgb(0, 0, 0)" stroke="rgb(204, 204, 204)" stroke-width="1px"></line><line x1="134.0234375" y1="0" x2="134.0234375" y2="5" style="visibility: inherit;" fill="rgb(0, 0, 0)" stroke="rgb(204, 204, 204)" stroke-width="1px"></line><line x1="156.36067708333334" y1="0" x2="156.36067708333334" y2="5" style="visibility: inherit;" fill="rgb(0, 0, 0)" stroke="rgb(204, 204, 204)" stroke-width="1px"></line><line x1="178.69791666666666" y1="0" x2="178.69791666666666" y2="5" style="visibility: inherit;" fill="rgb(0, 0, 0)" stroke="rgb(204, 204, 204)" stroke-width="1px"></line><line x1="201.03515625" y1="0" x2="201.03515625" y2="5" style="visibility: inherit;" fill="rgb(0, 0, 0)" stroke="rgb(204, 204, 204)" stroke-width="1px"></line><line x1="223.37239583333334" y1="0" x2="223.37239583333334" y2="5" style="visibility: inherit;" fill="rgb(0, 0, 0)" stroke="rgb(204, 204, 204)" stroke-width="1px"></line><line x1="245.70963541666666" y1="0" x2="245.70963541666666" y2="5" style="visibility: inherit;" fill="rgb(0, 0, 0)" stroke="rgb(204, 204, 204)" stroke-width="1px"></line><line x1="268.046875" y1="0" x2="268.046875" y2="5" style="visibility: inherit;" fill="rgb(0, 0, 0)" stroke="rgb(204, 204, 204)" stroke-width="1px"></line></g><g transform="translate(0, 8)"><text x="0" y="0" dx="0em" dy="0.95em" style="text-anchor: middle; visibility: hidden; font-family: Roboto, sans-serif; font-size: 12px; font-weight: 200;" fill="rgb(255, 255, 255)" stroke="none" stroke-width="1px">-2k</text><text x="22.337239583333332" y="0" dx="0em" dy="0.95em" style="text-anchor: middle; visibility: inherit; font-family: Roboto, sans-serif; font-size: 12px; font-weight: 200;" fill="rgb(255, 255, 255)" stroke="none" stroke-width="1px">0</text><text x="44.674479166666664" y="0" dx="0em" dy="0.95em" style="text-anchor: middle; visibility: hidden; font-family: Roboto, sans-serif; font-size: 12px; font-weight: 200;" fill="rgb(255, 255, 255)" stroke="none" stroke-width="1px">2k</text><text x="67.01171875" y="0" dx="0em" dy="0.95em" style="text-anchor: middle; visibility: inherit; font-family: Roboto, sans-serif; font-size: 12px; font-weight: 200;" fill="rgb(255, 255, 255)" stroke="none" stroke-width="1px">4k</text><text x="89.34895833333333" y="0" dx="0em" dy="0.95em" style="text-anchor: middle; visibility: hidden; font-family: Roboto, sans-serif; font-size: 12px; font-weight: 200;" fill="rgb(255, 255, 255)" stroke="none" stroke-width="1px">6k</text><text x="111.68619791666667" y="0" dx="0em" dy="0.95em" style="text-anchor: middle; visibility: inherit; font-family: Roboto, sans-serif; font-size: 12px; font-weight: 200;" fill="rgb(255, 255, 255)" stroke="none" stroke-width="1px">8k</text><text x="134.0234375" y="0" dx="0em" dy="0.95em" style="text-anchor: middle; visibility: hidden; font-family: Roboto, sans-serif; font-size: 12px; font-weight: 200;" fill="rgb(255, 255, 255)" stroke="none" stroke-width="1px">10k</text><text x="156.36067708333334" y="0" dx="0em" dy="0.95em" style="text-anchor: middle; visibility: inherit; font-family: Roboto, sans-serif; font-size: 12px; font-weight: 200;" fill="rgb(255, 255, 255)" stroke="none" stroke-width="1px">12k</text><text x="178.69791666666666" y="0" dx="0em" dy="0.95em" style="text-anchor: middle; visibility: hidden; font-family: Roboto, sans-serif; font-size: 12px; font-weight: 200;" fill="rgb(255, 255, 255)" stroke="none" stroke-width="1px">14k</text><text x="201.03515625" y="0" dx="0em" dy="0.95em" style="text-anchor: middle; visibility: inherit; font-family: Roboto, sans-serif; font-size: 12px; font-weight: 200;" fill="rgb(255, 255, 255)" stroke="none" stroke-width="1px">16k</text><text x="223.37239583333334" y="0" dx="0em" dy="0.95em" style="text-anchor: middle; visibility: hidden; font-family: Roboto, sans-serif; font-size: 12px; font-weight: 200;" fill="rgb(255, 255, 255)" stroke="none" stroke-width="1px">18k</text><text x="245.70963541666666" y="0" dx="0em" dy="0.95em" style="text-anchor: middle; visibility: inherit; font-family: Roboto, sans-serif; font-size: 12px; font-weight: 200;" fill="rgb(255, 255, 255)" stroke="none" stroke-width="1px">20k</text><text x="268.046875" y="0" dx="0em" dy="0.95em" style="text-anchor: middle; visibility: hidden; font-family: Roboto, sans-serif; font-size: 12px; font-weight: 200;" fill="rgb(255, 255, 255)" stroke="none" stroke-width="1px">22k</text></g><line x1="0" y1="0" x2="268.046875" y2="0" fill="rgb(0, 0, 0)" stroke="rgb(204, 204, 204)" stroke-width="1px"></line></g></g></g></g></svg>