<svg viewBox="0 0 330 200" xmlns="http://www.w3.org/2000/svg"><g><g><g><g><g><line x1="51.5625" y1="177" x2="46.5625" y2="177" style="visibility: inherit;" fill="rgb(0, 0, 0)" stroke="rgb(204, 204, 204)" stroke-width="1px"></line><line x1="51.5625" y1="157.3333333333334" x2="46.5625" y2="157.3333333333334" style="visibility: inherit;" fill="rgb(0, 0, 0)" stroke="rgb(204, 204, 204)" stroke-width="1px"></line><line x1="51.5625" y1="137.6666666666667" x2="46.5625" y2="137.6666666666667" style="visibility: inherit;" fill="rgb(0, 0, 0)" stroke="rgb(204, 204, 204)" stroke-width="1px"></line><line x1="51.5625" y1="118.00000000000003" x2="46.5625" y2="118.00000000000003" style="visibility: inherit;" fill="rgb(0, 0, 0)" stroke="rgb(204, 204, 204)" stroke-width="1px"></line><line x1="51.5625" y1="98.33333333333334" x2="46.5625" y2="98.33333333333334" style="visibility: inherit;" fill="rgb(0, 0, 0)" stroke="rgb(204, 204, 204)" stroke-width="1px"></line><line x1="51.5625" y1="78.66666666666666" x2="46.5625" y2="78.66666666666666" style="visibility: inherit;" fill="rgb(0, 0, 0)" stroke="rgb(204, 204, 204)" stroke-width="1px"></line><line x1="51.5625" y1="59.000000000000064" x2="46.5625" y2="59.000000000000064" style="visibility: inherit;" fill="rgb(0, 0, 0)" stroke="rgb(204, 204, 204)" stroke-width="1px"></line><line x1="51.5625" y1="39.33333333333337" x2="46.5625" y2="39.33333333333337" style="visibility: inherit;" fill="rgb(0, 0, 0)" stroke="rgb(204, 204, 204)" stroke-width="1px"></line><line x1="51.5625" y1="19.666666666666696" x2="46.5625" y2="19.666666666666696" style="visibility: inherit;" fill="rgb(0, 0, 0)" stroke="rgb(204, 204, 204)" stroke-width="1px"></line><line x1="51.5625" y1="0" x2="46.5625" y2="0" style="visibility: inherit;" fill="rgb(0, 0, 0)" stroke="rgb(204, 204, 204)" stroke-width="1px"></line></g><g transform="translate(41.5625, 0)"><text x="0" y="177" dx="0em" dy="0.3em" style="text-anchor: end; visibility: hidden; font-family: Roboto, sans-serif; font-size: 12px; font-weight: 200;" fill="rgb(255, 255, 255)" stroke="none" stroke-width="1px">1.1</text><text x="0" y="157.3333333333334" dx="0em" dy="0.3em" style="text-anchor: end; visibility: inherit; font-family: Roboto, sans-serif; font-size: 12px; font-weight: 200;" fill="rgb(255, 255, 255)" stroke="none" stroke-width="1px">1.15</text><text x="0" y="137.6666666666667" dx="0em" dy="0.3em" style="text-anchor: end; visibility: hidden; font-family: Roboto, sans-serif; font-size: 12px; font-weight: 200;" fill="rgb(255, 255, 255)" stroke="none" stroke-width="1px">1.2</text><text x="0" y="118.00000000000003" dx="0em" dy="0.3em" style="text-anchor: end; visibility: inherit; font-family: Roboto, sans-serif; font-size: 12px; font-weight: 200;" fill="rgb(255, 255, 255)" stroke="none" stroke-width="1px">1.25</text><text x="0" y="98.33333333333334" dx="0em" dy="0.3em" style="text-anchor: end; visibility: hidden; font-family: Roboto, sans-serif; font-size: 12px; font-weight: 200;" fill="rgb(255, 255, 255)" stroke="none" stroke-width="1px">1.3</text><text x="0" y="78.66666666666666" dx="0em" dy="0.3em" style="text-anchor: end; visibility: inherit; font-family: Roboto, sans-serif; font-size: 12px; font-weight: 200;" fill="rgb(255, 255, 255)" stroke="none" stroke-width="1px">1.35</text><text x="0" y="59.000000000000064" dx="0em" dy="0.3em" style="text-anchor: end; visibility: hidden; font-family: Roboto, sans-serif; font-size: 12px; font-weight: 200;" fill="rgb(255, 255, 255)" stroke="none" stroke-width="1px">1.4</text><text x="0" y="39.33333333333337" dx="0em" dy="0.3em" style="text-anchor: end; visibility: inherit; font-family: Roboto, sans-serif; font-size: 12px; font-weight: 200;" fill="rgb(255, 255, 255)" stroke="none" stroke-width="1px">1.45</text><text x="0" y="19.666666666666696" dx="0em" dy="0.3em" style="text-anchor: end; visibility: hidden; font-family: Roboto, sans-serif; font-size: 12px; font-weight: 200;" fill="rgb(255, 255, 255)" stroke="none" stroke-width="1px">1.5</text><text x="0" y="0" dx="0em" dy="0.3em" style="text-anchor: end; visibility: hidden; font-family: Roboto, sans-serif; font-size: 12px; font-weight: 200;" fill="rgb(255, 255, 255)" stroke="none" stroke-width="1px">1.55</text></g><line x1="51.5625" y1="0" x2="51.5625" y2="177" fill="rgb(0, 0, 0)" stroke="rgb(204, 204, 204)" stroke-width="1px"></line></g></g><g transform="translate(51, 0)" clip-path="url(#clip_0)"><clipPath id="clip_0"><rect width="278" height="176"></rect></clipPath><g><g><g><line x1="0" y1="0" x2="0" y2="177" fill="rgb(0, 0, 0)" stroke="rgb(189, 189, 189)" stroke-width="1px" opacity="0.25"></line><line x1="23.203125" y1="0" x2="23.203125" y2="177" fill="rgb(0, 0, 0)" stroke="rgb(189, 189, 189)" stroke-width="1px" opacity="0.25"></line><line x1="46.40625" y1="0" x2="46.40625" y2="177" fill="rgb(0, 0, 0)" stroke="rgb(189, 189, 189)" stroke-width="1px" opacity="0.25"></line><line x1="69.609375" y1="0" x2="69.609375" y2="177" fill="rgb(0, 0, 0)" stroke="rgb(189, 189, 189)" stroke-width="1px" opacity="0.25"></line><line x1="92.8125" y1="0" x2="92.8125" y2="177" fill="rgb(0, 0, 0)" stroke="rgb(189, 189, 189)" stroke-width="1px" opacity="0.25"></line><line x1="116.015625" y1="0" x2="116.015625" y2="177" fill="rgb(0, 0, 0)" stroke="rgb(189, 189, 189)" stroke-width="1px" opacity="0.25"></line><line x1="139.21875" y1="0" x2="139.21875" y2="177" fill="rgb(0, 0, 0)" stroke="rgb(189, 189, 189)" stroke-width="1px" opacity="0.25"></line><line x1="162.421875" y1="0" x2="162.421875" y2="177" fill="rgb(0, 0, 0)" stroke="rgb(189, 189, 189)" stroke-width="1px" opacity="0.25"></line><line x1="185.625" y1="0" x2="185.625" y2="177" fill="rgb(0, 0, 0)" stroke="rgb(189, 189, 189)" stroke-width="1px" opacity="0.25"></line><line x1="208.828125" y1="0" x2="208.828125" y2="177" fill="rgb(0, 0, 0)" stroke="rgb(189, 189, 189)" stroke-width="1px" opacity="0.25"></line><line x1="232.03125" y1="0" x2="232.03125" y2="177" fill="rgb(0, 0, 0)" stroke="rgb(189, 189, 189)" stroke-width="1px" opacity="0.25"></line><line x1="255.234375" y1="0" x2="255.234375" y2="177" fill="rgb(0, 0, 0)" stroke="rgb(189, 189, 189)" stroke-width="1px" opacity="0.25"></line><line x1="278.4375" y1="0" x2="278.4375" y2="177" fill="rgb(0, 0, 0)" stroke="rgb(189, 189, 189)" stroke-width="1px" opacity="0.25"></line></g><g><line x1="0" y1="177" x2="278.4375" y2="177" fill="rgb(0, 0, 0)" stroke="rgb(189, 189, 189)" stroke-width="1px" opacity="0.25"></line><line x1="0" y1="157.3333333333334" x2="278.4375" y2="157.3333333333334" fill="rgb(0, 0, 0)" stroke="rgb(189, 189, 189)" stroke-width="1px" opacity="0.25"></line><line x1="0" y1="137.6666666666667" x2="278.4375" y2="137.6666666666667" fill="rgb(0, 0, 0)" stroke="rgb(189, 189, 189)" stroke-width="1px" opacity="0.25"></line><line x1="0" y1="118.00000000000003" x2="278.4375" y2="118.00000000000003" fill="rgb(0, 0, 0)" stroke="rgb(189, 189, 189)" stroke-width="1px" opacity="0.25"></line><line x1="0" y1="98.33333333333334" x2="278.4375" y2="98.33333333333334" fill="rgb(0, 0, 0)" stroke="rgb(189, 189, 189)" stroke-width="1px" opacity="0.25"></line><line x1="0" y1="78.66666666666666" x2="278.4375" y2="78.66666666666666" fill="rgb(0, 0, 0)" stroke="rgb(189, 189, 189)" stroke-width="1px" opacity="0.25"></line><line x1="0" y1="59.000000000000064" x2="278.4375" y2="59.000000000000064" fill="rgb(0, 0, 0)" stroke="rgb(189, 189, 189)" stroke-width="1px" opacity="0.25"></line><line x1="0" y1="39.33333333333337" x2="278.4375" y2="39.33333333333337" fill="rgb(0, 0, 0)" stroke="rgb(189, 189, 189)" stroke-width="1px" opacity="0.25"></line><line x1="0" y1="19.666666666666696" x2="278.4375" y2="19.666666666666696" fill="rgb(0, 0, 0)" stroke="rgb(189, 189, 189)" stroke-width="1px" opacity="0.25"></line><line x1="0" y1="0" x2="278.4375" y2="0" fill="rgb(0, 0, 0)" stroke="rgb(189, 189, 189)" stroke-width="1px" opacity="0.25"></line></g></g></g><g><g><line x1="0" y1="609.6666666666667" x2="278.4375" y2="609.6666666666667" fill="rgb(0, 0, 0)" stroke="rgb(153, 153, 153)" stroke-width="1.5px"></line></g></g><g><g><line x1="23.203125" y1="0" x2="23.203125" y2="177" fill="rgb(0, 0, 0)" stroke="rgb(153, 153, 153)" stroke-width="1.5px"></line></g></g><g><g><g><g><g><path stroke="rgb(255, 112, 67)" stroke-width="2px" d="M25.523437499999996,195.56456270813945L26.683593750000004,142.91260646151852L27.84375,224.88814449690145L29.00390625,243.97478107228048L30.1640625,175.41981609898195L31.32421875,136.97538983503833L32.484375,116.68767332069622L33.64453125,103.7208930579547L34.8046875,95.47459351380107L35.96484375000001,213.83928513763655L37.125,159.31477053603328L38.28515625,125.3416997922973L39.4453125,106.254380150875L40.60546875,95.51089682589557L41.765625,87.97259243134059L42.92578125,84.6717918332498L44.0859375,82.15550471134411L45.24609375,81.7463162988841L46.40625,81.09973490454904L47.56640625,203.77060586970092L48.7265625,153.85427573861816L49.88671875,123.50943330657745L51.04687499999999,104.58465737779179L52.20703125,95.7013184874929L53.36718750000001,89.06048179843837L54.52734375,86.2163846382091L55.6875,83.24595037806974L56.84765625,82.32464813445232L58.0078125,74.24183159348667L59.16796875,186.3832292370515L60.328125,115.36195551049384L61.48828125,72.85130035551175L62.6484375,47.66463519694063L63.80859375,39.22178862022237L64.96875,31.716146647166656L66.12890625,25.190870860108003L67.2890625,18.80302404111252L68.44921875,15.180491161693674L69.609375,13.012541850897176L70.76953125,149.49297008363968L71.92968750000001,93.34502811182743L73.08984375,59.60633555242318L74.25,39.099360092041046L75.41015625,26.944150508306816L76.5703125,19.938960651633767L77.73046875,15.482027272262814L78.890625,12.845678524044683L80.05078125,12.002989758560265L81.2109375,10.664290485476048L82.37109375,148.33133980759868L83.53125,92.34550347190044L84.69140624999999,58.89284933955155L85.8515625,38.809234523855594L87.01171875,26.87049262368901L88.171875,19.597245919567918L89.33203125000001,15.216624173240419L90.4921875,12.750524532426992L91.65234375,11.41575171845923L92.8125,10.343700883573913L93.97265625,148.33701699443262L95.1328125,92.46864550193608L96.29296875,58.91579436191155L97.453125,38.82080713269049L98.61328125,26.858042903881906L99.7734375,256.41450472562065L100.93359375,165.90131819181755L102.09374999999999,200.21645235180728L103.25390625,126.32730888819616L104.4140625,81.75617066718684L105.57421875,148.12306904612515L106.73437500000001,94.88514838110524L107.89453125,63.90249488447773L109.0546875,45.04231581903301L110.21484375,33.434952746729834L111.375,26.246443055610328L112.53515625,27.237607031588013L113.6953125,33.761417851561845L114.85546875,27.30537957293663L116.015625,23.184107730842896L117.17578125,113.72758871916368L118.3359375,75.30078052642011L119.49609374999999,51.996765401932L120.65625,38.72217372276727L121.81640625,30.39432915380601L122.9765625,26.123201356317555L124.13671875000001,29.35092073241041L125.296875,24.696423690870436L126.45703125,21.898999056034313L127.6171875,20.69417931287274L128.77734375,112.90128395745431L129.9375,74.28736200604403L131.09765625,51.40253716313981L132.2578125,37.265714917207625L133.41796875,29.108768562649644L134.578125,23.90038826873396L135.73828125,22.049690231544744L136.8984375,20.439791161733723L138.05859375,20.00167167122237L139.21875,19.05371436239328L140.37890625,112.91927584465967L141.5390625,75.48238539967906L142.69921875,52.72768260801219L143.85937500000003,39.691019736316086L145.01953125,31.16773156479181L146.1796875,25.745041569998982L147.33984375,22.709311318952526L148.5,21.07659196410098L149.66015625,19.968221947869743L150.8203125,18.203315587036496L151.98046874999997,109.9174964653608L153.140625,72.70974044564304L154.30078125,50.190441270051L155.4609375,36.566815840827026L156.62109375,28.681064121500604L157.78125,23.869582966512006L158.94140625,21.152732496785504L160.1015625,19.26647705554611L161.26171875000003,18.021233686127164L162.421875,16.9600814948387L163.58203125,110.05986787298764L164.7421875,72.88644677054555L165.90234375,50.421696172068515L167.0625,37.46644575550754L168.22265625,29.7270555763717L169.38281249999997,25.06157120084422L170.54296875,21.52843041429314L171.703125,19.34490820890303L172.86328125,18.273666142179415L174.0234375,17.53054095829756L175.18359375,109.87144461587214L176.34375,72.80998498190525L177.50390625,50.09107165727472L178.66406250000003,36.807883770426855L179.82421875,28.9773813751305L180.984375,23.87699749471532L182.14453125,20.865850558291626L183.3046875,19.387028950697648L184.46484375,18.11151392752717L185.625,17.38521655099471L186.78515624999997,109.73405062176911L187.9453125,71.73016356041897L189.10546875,49.27841090328016L190.265625,35.75519999960974L191.42578125,28.08416807512385L192.5859375,23.239451701601045L193.74609375,20.23799990127067L194.90625,18.617820222236183L196.06640625000003,18.336330929830137L197.2265625,18.640847324987963L198.38671875,111.51980267345557L199.546875,73.9309641820966L200.70703125,50.985050219463076L201.8671875,38.15867634902404L203.02734375,31.71154326770711L204.18749999999997,27.562867275321512L205.34765625,25.50067030873539L206.5078125,22.221543046752497L207.66796875,20.105597400418866L208.828125,19.1258414648485L209.98828125,111.00369902029706L211.1484375,74.14681500340544L212.30859375,51.39647605902977L213.46875000000003,38.318974782349876L214.62890625,30.320272363815015L215.7890625,25.4797510927478L216.94921875,21.83945003105557L218.109375,19.568712323626052L219.26953125,18.249013699921L220.4296875,17.286556123394924L221.58984374999997,109.5897883645887L222.75,71.94024469488038L223.91015625,49.486215222079565L225.0703125,35.89513088953441L226.23046875,28.19237759327057L227.390625,22.819564040194898L228.55078125,19.94251681309397L229.7109375,18.190968423732848L230.87109375000003,16.98087941188541L232.03125,16.530552005244818L233.19140625,109.30253864256954L234.3515625,72.00177712993872L235.51171875,49.055370146574866L236.671875,35.67113413882793L237.83203125,27.781109451090572L238.99218749999997,24.412802035909063L240.15234375,21.58480184990239L241.3125,20.366381941545445L242.47265625,19.268339271331875L243.6328125,18.473291783522598L244.79296875,112.24089569389285L245.953125,74.97992884242218L247.11328125,51.62360050155926L248.27343750000003,37.551417330151004L249.43359375,29.030027885781838L250.59375,24.027852229007316L251.75390625,21.540356356935614L252.9140625,20.18381814104533L254.07421875,19.61808799868152L255.234375,19.366744942458357" style="fill: none;" fill="none"></path></g></g></g></g><g opacity="0.2"><g><g><g><path stroke="rgb(255, 112, 67)" stroke-width="2px" d="M24.36328125,388.15655001004546L25.523437499999996,80.00937032699588L26.683593750000004,92.36672846476239L27.84375,321.2913772265117L29.00390625,268.8942937850952L30.1640625,80.58361975351971L31.32421875,81.99924516677858L32.484375,87.1079878807068L33.64453125,84.59741083780928L34.8046875,83.22979974746706L35.96484375000001,390.31276353200286L37.125,77.82471863428755L38.28515625,74.49302164713545L39.4453125,77.66079473495486L40.60546875,79.4083003997803L41.765625,76.67045243581138L42.92578125,79.72198772430423L44.0859375,78.38171291351321L45.24609375,81.1325960159302L46.40625,80.129921913147L47.56640625,387.7701847553254L48.7265625,78.98142306009932L49.88671875,77.99276876449586L51.04687499999999,76.197717666626L52.20703125,82.37637329101565L53.36718750000001,79.09925508499147L54.52734375,81.95024617513023L55.6875,78.7903035481771L56.84765625,80.94269561767581L58.0078125,62.117611249287954L59.16796875,354.59528851509106L60.328125,8.830059051513684L61.48828125,9.085322697957373L62.6484375,9.884639263153089L63.80859375,26.55751911799116L64.96875,20.45768388112387L66.12890625,15.4029572804769L67.2890625,9.221253871917737L68.44921875,9.746691862742114L69.609375,9.760617891947437L70.76953125,354.21361215909326L71.92968750000001,9.123115221659358L73.08984375,8.998296737670925L74.25,8.338896910349536L75.41015625,8.711336135864284L76.5703125,9.431175867716487L77.73046875,8.796627203623476L78.890625,8.891155401865664L80.05078125,10.73895661036175L81.2109375,8.65624157587688L82.37109375,354.8319137891134L83.53125,8.36674896876018L84.69140624999999,8.713868141174343L85.8515625,8.683812300364192L87.01171875,8.962379773457856L88.171875,8.687375863393164L89.33203125000001,8.645691553751636L90.4921875,9.051375071207698L91.65234375,9.413592497507754L92.8125,8.735624631245955L93.97265625,355.32699116071075L95.1328125,8.666088263193782L96.29296875,8.58651765187583L97.453125,8.678326288859065L98.61328125,8.913896560668972L99.7734375,600.7491974582276L100.93359375,30.131538391113303L102.09374999999999,251.68915359179184L103.25390625,15.49359369277956L104.4140625,14.89946333567303L105.57421875,247.6734166145325L106.73437500000001,15.028267383575466L107.89453125,17.428514639536555L109.0546875,16.7520472208659L110.21484375,16.02390813827516L111.375,15.463678518931086L112.53515625,28.72435299555463L113.6953125,43.54713408152264L114.85546875,17.6213221549988L116.015625,17.002199967702254L117.17578125,249.54281020164493L118.3359375,17.66056823730471L119.49609374999999,17.040742715199798L120.65625,18.810286204020205L121.81640625,17.9025623003642L122.9765625,19.716509660085066L124.13671875000001,34.19249979654949L125.296875,17.714678128560394L126.45703125,17.70286210378012L127.6171875,18.886949698130305L128.77734375,251.21194092432663L129.9375,16.366479078928652L131.09765625,17.07529989878338L132.2578125,16.06048154830935L133.41796875,16.873349030812598L134.578125,16.08781782786053L135.73828125,19.273643175760927L136.8984375,18.02494255701703L138.05859375,19.344492435455347L139.21875,17.631778399149606L140.37890625,253.71761806805932L141.5390625,19.327049732208273L142.69921875,18.59562842051191L143.85937500000003,20.136025428771994L145.01953125,18.382799307505312L146.1796875,17.61100657780967L147.33984375,18.155715942382837L148.5,18.627512931823755L149.66015625,18.305666923522963L150.8203125,15.555956045786568L151.98046874999997,247.48876778284713L153.140625,16.898106416066497L154.30078125,16.41149250666302L155.4609375,16.13137769699099L156.62109375,16.852436542511008L157.78125,16.652361234029158L158.94140625,17.077456792195647L160.1015625,16.43709389368696L161.26171875000003,16.15336863199872L162.421875,15.368353207906098L163.58203125,249.70954744021103L164.7421875,17.126315116882346L165.90234375,16.72457027435305L167.0625,18.03357013066612L168.22265625,18.117970307668074L169.38281249999997,18.06334463755292L170.54296875,16.228719234466574L171.703125,16.069624900817892L172.86328125,16.666803042093928L174.0234375,16.415853182474795L175.18359375,248.38280010223392L176.34375,17.217795530955026L177.50390625,16.01270167032879L178.66406250000003,16.883101940155044L179.82421875,17.23162778218589L180.984375,16.226421674092627L182.14453125,16.34913015365603L183.3046875,17.168796539306655L184.46484375,16.198241392771433L185.625,16.295770486195906L186.78515624999997,248.25730172793075L187.9453125,14.724332968393977L189.10546875,15.600781917572041L190.265625,15.470383644104023L191.42578125,16.577620188395212L192.5859375,15.972377141316748L193.74609375,15.735822200775166L194.90625,16.18755070368451L196.06640625000003,17.91409699122114L197.2265625,19.097621917724634L198.38671875,250.8382356961569L199.546875,17.547706445058203L200.70703125,16.56617927551271L201.8671875,18.919115543365503L203.02734375,22.040843645731638L204.18749999999997,21.33985328674318L205.34765625,22.407374858856226L206.5078125,17.3028521537781L207.66796875,16.931678930918405L208.828125,17.656207561492934L209.98828125,248.8204853534699L211.1484375,18.861488978068063L212.30859375,17.270967642466257L213.46875000000003,18.702722867329932L214.62890625,18.3222187360128L215.7890625,18.218969186147064L216.94921875,16.378998438517268L218.109375,16.162605762481714L219.26953125,16.269465764363623L220.4296875,15.84286975860597L221.58984374999997,248.04463672637945L222.75,15.465929190317812L223.91015625,15.805171012878445L225.0703125,15.50850439071658L226.23046875,16.63824764887494L227.390625,14.760343710581484L228.55078125,15.626945972442646L229.7109375,15.563645839691182L230.87109375000003,15.165745894114192L232.03125,15.855060895284034L233.19140625,248.46051859855658L234.3515625,16.050634860992453L235.51171875,14.635759671529145L236.671875,15.594780127207466L237.83203125,15.946072419484468L238.99218749999997,19.360340913136824L240.15234375,17.342801570892355L241.3125,18.53875207901003L242.47265625,17.62127526601158L243.6328125,17.2807205518087L244.79296875,252.89230155944827L245.953125,19.08847856521608L247.11328125,16.589107990264914L248.27343750000003,16.443142573038752L249.43359375,16.247943719228125L250.59375,16.524588743845637L251.75390625,17.809112548828146L252.9140625,18.149010817209902L254.07421875,18.769492785135935L255.234375,18.989730358123794" style="fill: none;" fill="none"></path></g></g></g></g></g></g><g transform="translate(51, 177)" clip-path="url(#clip_1)"><clipPath id="clip_1"><rect width="278" height="22"></rect></clipPath><g><g><line x1="0" y1="0" x2="0" y2="5" style="visibility: inherit;" fill="rgb(0, 0, 0)" stroke="rgb(204, 204, 204)" stroke-width="1px"></line><line x1="23.203125" y1="0" x2="23.203125" y2="5" style="visibility: inherit;" fill="rgb(0, 0, 0)" stroke="rgb(204, 204, 204)" stroke-width="1px"></line><line x1="46.40625" y1="0" x2="46.40625" y2="5" style="visibility: inherit;" fill="rgb(0, 0, 0)" stroke="rgb(204, 204, 204)" stroke-width="1px"></line><line x1="69.609375" y1="0" x2="69.609375" y2="5" style="visibility: inherit;" fill="rgb(0, 0, 0)" stroke="rgb(204, 204, 204)" stroke-width="1px"></line><line x1="92.8125" y1="0" x2="92.8125" y2="5" style="visibility: inherit;" fill="rgb(0, 0, 0)" stroke="rgb(204, 204, 204)" stroke-width="1px"></line><line x1="116.015625" y1="0" x2="116.015625" y2="5" style="visibility: inherit;" fill="rgb(0, 0, 0)" stroke="rgb(204, 204, 204)" stroke-width="1px"></line><line x1="139.21875" y1="0" x2="139.21875" y2="5" style="visibility: inherit;" fill="rgb(0, 0, 0)" stroke="rgb(204, 204, 204)" stroke-width="1px"></line><line x1="162.421875" y1="0" x2="162.421875" y2="5" style="visibility: inherit;" fill="rgb(0, 0, 0)" stroke="rgb(204, 204, 204)" stroke-width="1px"></line><line x1="185.625" y1="0" x2="185.625" y2="5" style="visibility: inherit;" fill="rgb(0, 0, 0)" stroke="rgb(204, 204, 204)" stroke-width="1px"></line><line x1="208.828125" y1="0" x2="208.828125" y2="5" style="visibility: inherit;" fill="rgb(0, 0, 0)" stroke="rgb(204, 204, 204)" stroke-width="1px"></line><line x1="232.03125" y1="0" x2="232.03125" y2="5" style="visibility: inherit;" fill="rgb(0, 0, 0)" stroke="rgb(204, 204, 204)" stroke-width="1px"></line><line x1="255.234375" y1="0" x2="255.234375" y2="5" style="visibility: inherit;" fill="rgb(0, 0, 0)" stroke="rgb(204, 204, 204)" stroke-width="1px"></line><line x1="278.4375" y1="0" x2="278.4375" y2="5" style="visibility: inherit;" fill="rgb(0, 0, 0)" stroke="rgb(204, 204, 204)" stroke-width="1px"></line></g><g transform="translate(0, 8)"><text x="0" y="0" dx="0em" dy="0.95em" style="text-anchor: middle; visibility: hidden; font-family: Roboto, sans-serif; font-size: 12px; font-weight: 200;" fill="rgb(255, 255, 255)" stroke="none" stroke-width="1px">-2k</text><text x="23.203125" y="0" dx="0em" dy="0.95em" style="text-anchor: middle; visibility: inherit; font-family: Roboto, sans-serif; font-size: 12px; font-weight: 200;" fill="rgb(255, 255, 255)" stroke="none" stroke-width="1px">0</text><text x="46.40625" y="0" dx="0em" dy="0.95em" style="text-anchor: middle; visibility: hidden; font-family: Roboto, sans-serif; font-size: 12px; font-weight: 200;" fill="rgb(255, 255, 255)" stroke="none" stroke-width="1px">2k</text><text x="69.609375" y="0" dx="0em" dy="0.95em" style="text-anchor: middle; visibility: inherit; font-family: Roboto, sans-serif; font-size: 12px; font-weight: 200;" fill="rgb(255, 255, 255)" stroke="none" stroke-width="1px">4k</text><text x="92.8125" y="0" dx="0em" dy="0.95em" style="text-anchor: middle; visibility: hidden; font-family: Roboto, sans-serif; font-size: 12px; font-weight: 200;" fill="rgb(255, 255, 255)" stroke="none" stroke-width="1px">6k</text><text x="116.015625" y="0" dx="0em" dy="0.95em" style="text-anchor: middle; visibility: inherit; font-family: Roboto, sans-serif; font-size: 12px; font-weight: 200;" fill="rgb(255, 255, 255)" stroke="none" stroke-width="1px">8k</text><text x="139.21875" y="0" dx="0em" dy="0.95em" style="text-anchor: middle; visibility: hidden; font-family: Roboto, sans-serif; font-size: 12px; font-weight: 200;" fill="rgb(255, 255, 255)" stroke="none" stroke-width="1px">10k</text><text x="162.421875" y="0" dx="0em" dy="0.95em" style="text-anchor: middle; visibility: inherit; font-family: Roboto, sans-serif; font-size: 12px; font-weight: 200;" fill="rgb(255, 255, 255)" stroke="none" stroke-width="1px">12k</text><text x="185.625" y="0" dx="0em" dy="0.95em" style="text-anchor: middle; visibility: hidden; font-family: Roboto, sans-serif; font-size: 12px; font-weight: 200;" fill="rgb(255, 255, 255)" stroke="none" stroke-width="1px">14k</text><text x="208.828125" y="0" dx="0em" dy="0.95em" style="text-anchor: middle; visibility: inherit; font-family: Roboto, sans-serif; font-size: 12px; font-weight: 200;" fill="rgb(255, 255, 255)" stroke="none" stroke-width="1px">16k</text><text x="232.03125" y="0" dx="0em" dy="0.95em" style="text-anchor: middle; visibility: hidden; font-family: Roboto, sans-serif; font-size: 12px; font-weight: 200;" fill="rgb(255, 255, 255)" stroke="none" stroke-width="1px">18k</text><text x="255.234375" y="0" dx="0em" dy="0.95em" style="text-anchor: middle; visibility: inherit; font-family: Roboto, sans-serif; font-size: 12px; font-weight: 200;" fill="rgb(255, 255, 255)" stroke="none" stroke-width="1px">20k</text><text x="278.4375" y="0" dx="0em" dy="0.95em" style="text-anchor: middle; visibility: hidden; font-family: Roboto, sans-serif; font-size: 12px; font-weight: 200;" fill="rgb(255, 255, 255)" stroke="none" stroke-width="1px">22k</text></g><line x1="0" y1="0" x2="278.4375" y2="0" fill="rgb(0, 0, 0)" stroke="rgb(204, 204, 204)" stroke-width="1px"></line></g></g></g></g></svg>